<?xml version="1.0" standalone="no"?>
<!DOCTYPE svg PUBLIC "-//W3C//DTD SVG 1.1//EN" "http://www.w3.org/Graphics/SVG/1.1/DTD/svg11.dtd">
<svg xmlns="http://www.w3.org/2000/svg">
<defs >
<font id="UbuntuCondensed" horiz-adv-x="484" ><font-face
    font-family="Ubuntu Condensed"
    units-per-em="1000"
    panose-1="2 11 5 6 3 6 2 3 2 4"
    ascent="932"
    descent="-189"
    alphabetic="0" />
<glyph unicode=" " glyph-name="space" horiz-adv-x="195" />
<glyph unicode="!" glyph-name="exclam" horiz-adv-x="263" d="M178 505Q178 421 172 353T157 216H106Q97 284 91 352T85 505V693H178V505ZM191 46Q191 23 175 5T131 -13Q104 -13 88 5T72 46Q72 70 88 88T131 106Q158 106 174 88T191 46Z" />
<glyph unicode="&quot;" glyph-name="quotedbl" horiz-adv-x="378" d="M152 760V710Q152 661 147 608T133 501H89Q80 555 75 607T70 711V760H152ZM308 760V710Q308 661 303 608T289 501H245Q236 555 231 607T226 711V760H308Z" />
<glyph unicode="#" glyph-name="numbersign" horiz-adv-x="567" d="M137 250L163 443H47V509H172L197 693H269L243 509H367L393 693H465L439 509H520V443H430L404 250H520V184H395L370 0H298L323 184H199L174 0H103L128 184H47V250H137ZM208 250H332L358 443H234L208
250Z" />
<glyph unicode="$" glyph-name="dollar" horiz-adv-x="430" d="M375 183Q375 127 346 82T255 22V-109H178V17Q140 21 108 32T55 60L80 127Q103 111 133 101T197 90Q241 90 262 115T283 182Q283 206 276 225T255 259T226 286T191 311Q168 326 146 342T105 379T76
429T64 498Q64 523 71 548T93 595T129 633T178 658V776H255V665Q282 662 306 655T351 636L327 568Q307 579 285 586T240 594Q204 594 180 571T155 498Q155 474 164 456T188 423T222 396T262 369Q283 354 303 338T340 301T365 251T375 183Z" />
<glyph unicode="%" glyph-name="percent" horiz-adv-x="645" d="M363 169Q363 259 392 306T480 353Q538 353 567 306T597 169Q597 79 568 32T480 -15Q422 -15 393 32T363 169ZM524 169Q524 236 513 263T480 290Q458 290 447 263T436 169Q436 102 447 75T480 48Q502
48 513 75T524 169ZM498 693L219 0H141L420 693H498ZM48 523Q48 613 77 660T165 707Q223 707 252 660T282 523Q282 433 253 386T165 339Q107 339 78 386T48 523ZM209 523Q209 590 198 617T165 644Q143 644 132 617T121 523Q121 456 132 429T165 402Q187 402 198
429T209 523Z" />
<glyph unicode="&amp;" glyph-name="ampersand" horiz-adv-x="511" d="M483 353Q478 290 464 237T428 140Q451 106 470 70T502 0H415Q402 32 381 70Q349 32 310 12T231 -9Q181 -9 146 7T88 48T55 106T44 169Q44 208 53 239T78 296T114 342T158 381Q132 419 113
461T93 554Q93 624 132 666T237 709Q273 709 299 698T341 666T365 620T373 565Q373 531 364 504T339 453T303 411T261 375L380 207Q391 239 399 278T411 363L483 353ZM234 64Q263 64 290 80T341 130L199 325Q169 298 150 263T131 176Q131 128 157 96T234 64ZM171
555Q171 521 185 492T221 432Q252 458 273 489T295 565Q295 603 279 622T235 641Q203 641 187 619T171 555Z" />
<glyph unicode="&apos;" glyph-name="quotesingle" horiz-adv-x="222" d="M152 760V710Q152 661 147 608T133 501H89Q80 555 75 607T70 711V760H152Z" />
<glyph unicode="(" glyph-name="parenleft" horiz-adv-x="285" d="M162 299Q162 171 193 58T280 -149L211 -187Q149 -90 113 33T76 299Q76 442 112 565T211 785L280 747Q224 653 193 540T162 299Z" />
<glyph unicode=")" glyph-name="parenright" horiz-adv-x="285" d="M123 299Q123 427 92 540T5 747L74 785Q136 688 172 565T209 299Q209 156 173 33T74 -187L5 -149Q61 -55 92 58T123 299Z" />
<glyph unicode="*" glyph-name="asterisk" horiz-adv-x="387" d="M66 641Q95 631 123 613T174 579Q167 605 159 637T150 700V707H238V700Q238 670 230 638T213 579Q236 594 263 612T319 640L326 642L352 558L347 556Q318 547 285 545T226 541Q246 524 271 504T314
459L318 454L247 402L244 408Q226 432 214 463T192 519Q182 494 170 463T141 409L137 403L66 455L71 460Q88 484 114 505T161 543Q134 545 101 546T39 558L35 561L60 643L66 641Z" />
<glyph unicode="+" glyph-name="plus" horiz-adv-x="430" d="M43 336H178V480H252V336H387V263H252V118H178V263H43V336Z" />
<glyph unicode="," glyph-name="comma" horiz-adv-x="232" d="M165 114Q166 106 166 99T166 83Q166 19 148 -40T99 -154L38 -136Q63 -85 71 -33T79 66Q79 79 79 91T77 114H165Z" />
<glyph unicode="-" glyph-name="hyphen" horiz-adv-x="233" d="M24 340H209V259H24V340Z" />
<glyph unicode="." glyph-name="period" horiz-adv-x="232" d="M176 46Q176 23 160 5T116 -13Q89 -13 73 5T57 46Q57 70 73 88T116 106Q143 106 159 88T176 46Z" />
<glyph unicode="/" glyph-name="slash" horiz-adv-x="270" d="M54 -185H-26L216 783H296L54 -185Z" />
<glyph unicode="0" glyph-name="zero" horiz-adv-x="430" d="M52 347Q52 449 61 518T90 630T140 690T215 709Q258 709 289 691T340 630T369 519T378 347Q378 245 369 176T340 64T289 4T215 -15Q171 -15 141 3T90 64T61 175T52 347ZM288 347Q288 429 284 484T272
572T249 619T215 633Q195 633 181 619T159 572T146 484T142 347Q142 265 146 210T158 122T181 75T215 61Q235 61 249 75T271 122T284 210T288 347Z" />
<glyph unicode="1" glyph-name="one" horiz-adv-x="430" d="M70 555Q89 566 109 582T149 616T184 654T212 693H278V0H192V557Q175 539 153 523T105 493L70 555Z" />
<glyph unicode="2" glyph-name="two" horiz-adv-x="430" d="M44 650Q103 709 188 709Q269 709 312 667T355 534Q355 492 341 454T306 381T260 310T212 239T172 163T151 78H369V0H59V19Q59 86 74 138T112 232T162 310T211 380T249 451T265 532Q265 585 244 608T181
632Q152 632 129 621T86 591L44 650Z" />
<glyph unicode="3" glyph-name="three" horiz-adv-x="430" d="M257 373Q307 355 334 310T362 192Q362 96 316 41T175 -15Q138 -15 103 -4T42 25L65 95Q88 81 113 71T167 61Q218 61 246 92T275 193Q275 262 244 297T143 332H117V405H139Q199 405 228 437T257 526Q257
580 234 606T173 633Q147 633 124 623T83 598L49 661Q75 685 110 697T181 709Q259 709 301 660T343 530Q343 473 321 434T257 373Z" />
<glyph unicode="4" glyph-name="four" horiz-adv-x="430" d="M42 232Q60 294 88 363T146 496T203 612T248 693H336V240H404V169H336V0H257V169H42V232ZM257 240V578Q242 547 223 507T184 422T146 331T115 240H257Z" />
<glyph unicode="5" glyph-name="five" horiz-adv-x="430" d="M191 618Q186 546 184 498T180 422Q274 409 318 354T362 205Q362 152 347 111T306 42T243 0T165 -15Q136 -15 106 -7T50 16L74 87Q117 63 162 63Q210 63 243 98T276 205Q276 284 232 318T96 357Q101
407 104 448T109 529T112 608T115 693H349V618H191Z" />
<glyph unicode="6" glyph-name="six" horiz-adv-x="430" d="M348 625Q310 620 279 609T222 573T181 508T156 408Q177 417 196 421T233 425Q305 425 344 369T384 213Q384 107 347 46T228 -15Q187 -15 156 1T105 53T74 149T63 295Q63 370 77 441T124 567T209 658T339
696L348 625ZM212 355Q196 355 180 350T150 336Q149 324 149 312T149 286Q149 240 151 199T162 126T185 76T227 57Q266 57 281 98T297 209Q297 284 277 319T212 355Z" />
<glyph unicode="7" glyph-name="seven" horiz-adv-x="430" d="M115 0Q117 48 125 103T147 216T175 330T209 440T245 538T281 617H45V693H378V626Q354 587 325 520T271 368T226 188T203 0H115Z" />
<glyph unicode="8" glyph-name="eight" horiz-adv-x="430" d="M373 540Q373 482 345 435T278 352Q320 321 351 278T382 174Q382 127 368 92T330 33T276 -3T214 -15Q177 -15 146 -2T93 35T59 92T47 164Q47 226 74 274T148 360Q110 389 86 433T62 538Q62 583 76
615T112 669T163 699T220 709Q248 709 275 700T325 670T360 617T373 540ZM298 168Q298 194 290 216T267 258T236 294T199 324Q170 297 151 261T132 171Q132 117 154 85T216 52Q249 52 273 81T298 168ZM146 549Q146 517 151 493T166 450T190 416T224 388Q252 417
269 449T287 534Q287 595 267 618T218 642Q207 642 194 638T171 624T153 595T146 549Z" />
<glyph unicode="9" glyph-name="nine" horiz-adv-x="430" d="M87 71Q125 75 157 86T215 122T257 185T283 285Q244 269 210 269Q138 269 98 325T57 481Q57 587 94 648T213 709Q254 709 285 693T336 641T367 545T378 399Q378 323 364 252T316 126T229 36T96 -2L87
71ZM231 339Q261 339 290 357Q290 369 290 381T291 408Q291 454 289 495T279 568T256 618T214 637Q175 637 160 596T144 485Q144 410 165 375T231 339Z" />
<glyph unicode=":" glyph-name="colon" horiz-adv-x="232" d="M176 47Q176 24 160 6T116 -12Q89 -12 73 6T57 47Q57 71 73 89T116 107Q143 107 159 89T176 47ZM176 478Q176 455 160 437T116 419Q89 419 73 437T57 478Q57 502 73 520T116 538Q143 538 159 520T176 478Z" />
<glyph unicode=";" glyph-name="semicolon" horiz-adv-x="232" d="M410 114Q411 106 411 99T411 83Q411 19 393 -40T344 -154L283 -136Q308 -85 316 -33T324 66Q324 79 324 91T322 114H410ZM176 478Q176 455 160 437T116 419Q89 419 73 437T57 478Q57 502 73 520T116
538Q143 538 159 520T176 478Z" />
<glyph unicode="&lt;" glyph-name="less" horiz-adv-x="430" d="M46 263V325L347 509L384 444L129 294L384 144L347 79L46 263Z" />
<glyph unicode="=" glyph-name="equal" horiz-adv-x="430" d="M43 432H387V359H43V432ZM43 239H387V166H43V239Z" />
<glyph unicode="&gt;" glyph-name="greater" horiz-adv-x="430" d="M83 79L46 144L301 294L46 444L83 509L384 325V263L83 79Z" />
<glyph unicode="?" glyph-name="question" horiz-adv-x="342" d="M142 633Q115 633 94 624T55 601L21 667Q49 686 81 697T152 709Q197 709 229 696T281 662T310 612T320 554Q320 519 310 492T283 441T248 396T213 351T186 300T175 238Q175 233 175 227T176 216H98Q95
235 95 258Q95 293 104 319T128 368T160 409T191 448T215 492T225 547Q225 588 203 610T142 633ZM201 46Q201 23 185 5T141 -13Q114 -13 98 5T82 46Q82 70 98 88T141 106Q168 106 184 88T201 46Z" />
<glyph unicode="@" glyph-name="at" horiz-adv-x="824" d="M606 43Q568 43 544 54T504 82Q484 63 463 55T415 47Q334 47 292 106T250 279Q250 386 297 448T431 511Q473 511 506 503T558 486V192Q558 150 568 132T607 113Q648 113 664 168T681 326Q681 392 667
449T621 548T540 615T420 639Q358 639 307 615T220 545T163 431T143 278Q143 191 162 124T216 10T301 -59T415 -83Q461 -83 492 -75T535 -63L546 -132Q539 -135 526 -138T494 -145T456 -151T414 -153Q337 -153 273 -128T162 -50T89 84T63 278Q63 386 90 467T166
601T279 682T418 709Q497 709 560 683T668 606T737 484T761 322Q761 185 721 114T606 43ZM425 119Q456 119 477 137Q474 151 473 165T472 193V433Q467 435 457 437T433 439Q385 439 363 400T340 279Q340 206 359 163T425 119Z" />
<glyph unicode="A" glyph-name="A" horiz-adv-x="503" d="M299 693Q323 618 346 542T392 381T437 203T483 0H393Q385 45 377 89T359 177H141Q131 133 123 89T107 0H20Q42 109 65 203T110 381T156 541T204 693H299ZM250 591Q225 508 202 424T158 252H341Q321 340
298 424T250 591Z" />
<glyph unicode="B" glyph-name="B" horiz-adv-x="521" d="M174 398H236Q360 398 360 510Q360 545 350 567T322 602T283 620T235 625Q220 625 205 624T174 621V398ZM174 326V76Q193 73 211 71T248 69Q276 69 301 75T344 95T373 133T384 194Q384 256 351 291T246
326H174ZM84 683Q119 691 155 695T228 700Q273 700 313 692T385 663T434 609T453 525Q453 463 427 424T360 365Q411 345 444 304T477 191Q477 137 460 100T410 40T334 6T236 -5Q201 -5 163 -1T84 11V683Z" />
<glyph unicode="C" glyph-name="C" horiz-adv-x="469" d="M307 -15Q185 -15 120 76T55 357Q55 454 73 521T125 630T203 690T301 709Q345 709 383 698T445 669L418 594Q394 610 367 620T303 630Q223 630 187 564T151 357Q151 216 189 140T313 64Q354 64 379 74T429
100L454 29Q431 11 394 -2T307 -15Z" />
<glyph unicode="D" glyph-name="D" horiz-adv-x="576" d="M521 347Q521 250 501 183T442 73T349 12T227 -7Q159 -7 83 11V683Q121 691 157 696T226 701Q294 701 348 682T441 621T500 512T521 347ZM425 347Q425 421 414 473T380 558T320 606T230 621Q216 621 202
620T173 617V77Q188 75 202 74T229 73Q282 73 319 88T379 135T414 220T425 347Z" />
<glyph unicode="E" glyph-name="E" horiz-adv-x="456" d="M84 0V693H395V616H174V401H374V326H174V77H411V0H84Z" />
<glyph unicode="F" glyph-name="F" horiz-adv-x="426" d="M84 0V693H395V616H174V398H370V323H174V0H84Z" />
<glyph unicode="G" glyph-name="G" horiz-adv-x="525" d="M55 347Q55 445 73 514T124 626T205 689T312 709Q357 709 394 697T454 668L426 593Q403 609 376 619T314 630Q227 630 189 560T151 347Q151 271 162 217T195 129T246 79T313 63Q344 63 366 70V341H456V15Q429
2 389 -7T305 -16Q251 -16 205 5T126 71T74 184T55 347Z" />
<glyph unicode="H" glyph-name="H" horiz-adv-x="576" d="M402 693H492V0H402V322H174V0H84V693H174V400H402V693Z" />
<glyph unicode="I" glyph-name="I" horiz-adv-x="258" d="M84 693H174V0H84V693Z" />
<glyph unicode="J" glyph-name="J" horiz-adv-x="395" d="M316 184Q316 138 307 102T277 39T223 -1T141 -15Q103 -15 68 -4T5 29L35 100Q52 87 80 76T136 64Q157 64 173 69T202 87T220 124T226 184V693H316V184Z" />
<glyph unicode="K" glyph-name="K" horiz-adv-x="515" d="M480 693Q458 659 431 618T374 534T316 448T259 370Q289 340 324 295T393 199T457 96T505 0H404Q383 46 356 94T298 186T236 269T174 333V0H84V693H174V387Q200 420 229 462T286 546T340 626T382 693H480Z" />
<glyph unicode="L" glyph-name="L" horiz-adv-x="417" d="M393 77V0H84V693H174V77H393Z" />
<glyph unicode="M" glyph-name="M" horiz-adv-x="726" d="M325 96Q305 168 284 234T244 358T206 465T173 549Q169 492 167 424T162 283T158 139T155 0H69Q72 90 75 181T82 361T92 534T105 693H194Q212 650 235 591T281 466T327 336T365 217Q381 271 402 336T446
466T491 590T532 693H621Q628 618 633 534T643 362T651 182T657 0H571Q569 66 568 139T564 285T558 428T551 556Q542 531 529 494T501 412T471 322T442 232T418 154T401 96H325Z" />
<glyph unicode="N" glyph-name="N" horiz-adv-x="581" d="M424 0Q400 59 370 127T306 265T237 403T168 531V0H84V693H159Q197 631 232 566T300 438T360 313T413 196V693H497V0H424Z" />
<glyph unicode="O" glyph-name="O" horiz-adv-x="605" d="M549 346Q549 265 535 199T490 85T413 11T303 -15Q240 -15 194 11T117 84T71 198T56 346Q56 427 71 494T116 608T193 682T303 709Q366 709 412 683T489 609T534 494T549 346ZM453 346Q453 409 445 461T419
550T373 609T303 630Q262 630 234 609T187 551T161 461T152 346Q152 283 160 231T187 142T233 85T303 64Q344 64 372 84T419 142T445 231T453 346Z" />
<glyph unicode="P" glyph-name="P" horiz-adv-x="485" d="M84 683Q154 700 221 700Q273 700 315 688T388 649T435 580T452 479Q452 419 435 377T387 308T313 269T216 257H174V0H84V683ZM174 336H210Q244 336 271 343T318 368T347 412T357 479Q357 519 347 546T320
590T277 614T222 621Q196 621 174 618V336Z" />
<glyph unicode="Q" glyph-name="Q" horiz-adv-x="605" d="M549 346Q549 275 538 215T503 109T444 33T360 -9Q362 -51 405 -74T516 -110L495 -180Q455 -171 419 -160T353 -131T303 -85T273 -13Q217 -7 177 21T109 97T69 207T56 346Q56 427 71 494T116 608T193 682T303
709Q366 709 412 683T489 609T534 494T549 346ZM453 346Q453 409 445 461T419 550T373 609T303 630Q262 630 234 609T187 551T161 461T152 346Q152 283 160 231T187 142T233 85T303 64Q344 64 372 84T419 142T445 231T453 346Z" />
<glyph unicode="R" glyph-name="R" horiz-adv-x="514" d="M84 683Q154 700 219 700Q271 700 313 688T385 650T431 583T448 484Q448 412 421 368T346 300Q358 280 376 246T414 170T452 84T484 0H394Q383 30 367 68T332 143T296 215T264 274Q248 272 231 271T197
270H172V0H84V683ZM172 344H210Q279 344 316 375T353 484Q353 523 344 549T317 591T275 614T220 621Q194 621 172 618V344Z" />
<glyph unicode="S" glyph-name="S" horiz-adv-x="400" d="M170 62Q224 62 253 92T283 173Q283 200 274 221T251 259T217 290T178 318Q155 334 130 352T85 394T51 450T38 525Q38 567 52 601T92 659T153 696T230 709Q270 709 304 699T361 675L333 604Q312 618 288
625T236 633Q187 633 158 607T128 529Q128 501 137 480T162 442T198 411T242 382Q265 367 289 349T332 308T364 253T377 178Q377 139 365 104T328 43T264 1T173 -15Q125 -15 89 -4T25 25L53 97Q79 81 106 72T170 62Z" />
<glyph unicode="T" glyph-name="T" horiz-adv-x="426" d="M412 693V616H258V0H168V616H14V693H412Z" />
<glyph unicode="U" glyph-name="U" horiz-adv-x="549" d="M272 -15Q175 -15 127 40T78 214V693H168V222Q168 143 191 104T274 64Q336 64 358 104T381 222V693H471V214Q471 97 421 41T272 -15Z" />
<glyph unicode="V" glyph-name="V" horiz-adv-x="497" d="M200 0Q177 75 154 151T109 312T64 489T20 693H114Q127 616 143 539T177 386T213 241T250 107Q268 170 286 240T323 386T357 538T386 693H477Q455 583 433 490T389 312T343 152T297 0H200Z" />
<glyph unicode="W" glyph-name="W" horiz-adv-x="756" d="M424 611Q437 551 452 484T483 351T517 223T549 110Q561 166 572 234T593 378T613 533T628 693H716Q693 492 665 323T598 0H507Q492 49 475 109T440 233T407 364T378 492Q365 430 349 364T316 234T282
109T249 0H158Q120 154 92 323T40 693H131Q137 613 146 534T165 379T187 235T210 110Q225 161 242 223T275 351T307 484T335 611H424Z" />
<glyph unicode="X" glyph-name="X" horiz-adv-x="471" d="M234 439L353 693H443L285 371Q306 326 329 278T375 181T418 86T453 0H364Q353 30 339 65T307 138T271 213T234 288Q216 252 197 214T161 138T130 66T105 0H18Q32 39 52 84T94 176T138 272T182 364L22
693H114L234 439Z" />
<glyph unicode="Y" glyph-name="Y" horiz-adv-x="451" d="M448 693Q431 646 411 593T367 486T320 377T272 274V0H182V268Q158 317 133 372T85 482T41 591T3 693H100Q126 614 159 526T227 362Q262 438 295 526T354 693H448Z" />
<glyph unicode="Z" glyph-name="Z" horiz-adv-x="432" d="M390 622Q360 569 323 498T250 351T181 203T127 77H397V0H31V55Q46 95 66 143T109 242T156 346T205 447T252 539T294 616H44V693H390V622Z" />
<glyph unicode="[" glyph-name="bracketleft" horiz-adv-x="281" d="M94 783H275V715H176V-117H275V-185H94V783Z" />
<glyph unicode="\" glyph-name="backslash" horiz-adv-x="270" d="M-26 783H54L296 -185H216L-26 783Z" />
<glyph unicode="]" glyph-name="bracketright" horiz-adv-x="281" d="M187 -185H6V-117H105V715H6V783H187V-185Z" />
<glyph unicode="^" glyph-name="asciicircum" horiz-adv-x="430" d="M258 693L401 341L329 312L216 597L103 312L30 341L173 693H258Z" />
<glyph unicode="_" glyph-name="underscore" horiz-adv-x="367" d="M-4 -109H371V-182H-4V-109Z" />
<glyph unicode="`" glyph-name="grave" horiz-adv-x="314" d="M89 778L207 619L164 582L28 726L89 778Z" />
<glyph unicode="a" glyph-name="a" horiz-adv-x="434" d="M86 514Q112 525 141 531T204 538Q274 538 318 495T362 359V11Q326 1 289 -5T215 -11Q179 -11 148 -2T93 27T55 77T41 152Q41 193 53 223T88 274T140 305T205 316Q238 316 278 308V356Q278 414 256 437T191
460Q168 460 148 456T104 441L86 514ZM127 153Q127 107 151 85T219 63Q246 63 278 70V237Q248 245 219 245Q200 245 183 241T154 226T134 198T127 153Z" />
<glyph unicode="b" glyph-name="b" horiz-adv-x="467" d="M163 70Q177 66 190 65T214 63Q272 63 300 109T329 264Q329 320 322 358T302 419T269 452T225 462Q192 462 163 446V70ZM163 521Q179 529 195 533T235 538Q284 538 319 519T376 464T408 378T419 264Q419
125 370 56T214 -13Q177 -13 141 -6T77 14V761L163 776V521Z" />
<glyph unicode="c" glyph-name="c" horiz-adv-x="353" d="M238 -13Q184 -13 148 8T90 65T58 152T48 261Q48 391 95 464T239 538Q268 538 291 531T334 513L312 442Q281 462 243 462Q189 462 164 413T138 261Q138 218 143 182T160 119T193 78T246 63Q268 63 285
68T319 83L338 16Q322 5 296 -4T238 -13Z" />
<glyph unicode="d" glyph-name="d" horiz-adv-x="467" d="M304 446Q275 462 242 462Q217 462 198 452T166 419T145 358T138 264Q138 156 166 110T253 63Q264 63 277 64T304 70V446ZM304 761L390 776V14Q362 2 326 -5T253 -13Q145 -13 97 56T48 264Q48 327 58 377T91
463T149 518T232 538Q255 538 271 534T304 521V761Z" />
<glyph unicode="e" glyph-name="e" horiz-adv-x="436" d="M137 237Q138 199 144 168T163 113T199 76T257 63Q286 63 310 71T346 86L362 17Q349 8 319 -2T246 -13Q191 -13 154 7T93 63T59 149T49 259Q49 404 97 471T224 538Q313 538 350 471T387 283Q387 272 387
261T386 237H137ZM224 465Q181 465 162 422T138 307H297Q297 380 282 422T224 465Z" />
<glyph unicode="f" glyph-name="f" horiz-adv-x="306" d="M231 776Q260 776 282 770T318 757L300 689Q286 696 271 699T239 703Q216 703 201 695T178 673T167 640T164 598V525H299V451H164V0H78V598Q78 683 116 729T231 776Z" />
<glyph unicode="g" glyph-name="g" horiz-adv-x="467" d="M390 15Q390 -41 376 -79T336 -142T278 -177T206 -188Q174 -188 142 -181T83 -160L101 -88Q119 -98 145 -106T199 -114Q248 -114 276 -86T304 10V35Q288 28 270 24T229 19Q135 19 92 83T48 266Q48 329
59 379T95 465T159 519T254 538Q291 538 326 531T390 511V15ZM304 455Q290 459 277 460T253 462Q193 462 166 416T138 266Q138 172 165 134T242 95Q259 95 274 99T304 110V455Z" />
<glyph unicode="h" glyph-name="h" horiz-adv-x="482" d="M78 0V761L164 776V522Q183 528 205 532T251 536Q284 536 313 526T363 490T397 423T410 317V0H324V310Q324 388 304 424T229 460Q200 460 164 450V0H78Z" />
<glyph unicode="i" glyph-name="i" horiz-adv-x="242" d="M164 0H78V525H164V0ZM121 618Q98 618 82 633T65 675Q65 701 81 716T121 732Q144 732 160 717T177 675Q177 649 161 634T121 618Z" />
<glyph unicode="j" glyph-name="j" horiz-adv-x="242" d="M164 -28Q164 -114 126 -151T25 -188Q-8 -188 -34 -178L-22 -105Q-13 -107 -4 -108T16 -110Q30 -110 41 -107T61 -93T73 -66T78 -23V525H164V-28ZM121 618Q98 618 82 633T65 675Q65 701 81 716T121 732Q144
732 160 717T177 675Q177 649 161 634T121 618Z" />
<glyph unicode="k" glyph-name="k" horiz-adv-x="427" d="M403 525Q361 453 323 394T246 282Q270 254 295 219T343 147T386 72T420 0H326Q311 33 291 69T249 139T205 205T164 257V0H78V761L164 776V299Q182 323 202 353T243 413T281 473T311 525H403Z" />
<glyph unicode="l" glyph-name="l" horiz-adv-x="243" d="M214 -10Q140 -8 108 26T76 136V761L162 776V134Q162 99 176 84T225 62L214 -10Z" />
<glyph unicode="m" glyph-name="m" horiz-adv-x="698" d="M78 510Q113 521 154 528T229 536Q264 536 292 527T343 497Q369 514 399 525T465 536Q501 536 530 526T581 490T614 423T626 317V0H540V310Q540 388 522 424T454 460Q435 460 416 453T379 434Q387 411
391 382T395 317V0H309V310Q309 388 291 424T223 460Q197 460 164 450V0H78V510Z" />
<glyph unicode="n" glyph-name="n" horiz-adv-x="482" d="M78 510Q115 521 158 528T237 536Q276 536 308 526T362 490T397 423T410 317V0H324V310Q324 388 304 424T229 460Q200 460 164 450V0H78V510Z" />
<glyph unicode="o" glyph-name="o" horiz-adv-x="463" d="M415 262Q415 200 404 150T371 63T314 7T232 -13Q185 -13 150 7T93 63T59 149T48 262Q48 323 59 374T92 461T150 518T232 538Q279 538 313 518T370 462T404 374T415 262ZM325 262Q325 306 320 342T304
405T275 446T232 461Q206 461 189 447T160 406T143 343T138 262Q138 218 143 182T159 119T188 79T232 64Q257 64 275 78T304 119T320 181T325 262Z" />
<glyph unicode="p" glyph-name="p" horiz-adv-x="467" d="M163 79Q192 63 225 63Q250 63 269 73T301 106T322 167T329 261Q329 369 302 415T214 462Q203 462 190 461T163 455V79ZM163 -185H77V511Q105 523 140 530T213 538Q268 538 307 519T371 465T407 378T419
260Q419 127 377 57T238 -13Q215 -13 197 -9T163 4V-185Z" />
<glyph unicode="q" glyph-name="q" horiz-adv-x="467" d="M304 455Q290 459 277 460T253 462Q193 462 166 416T138 261Q138 205 145 167T165 106T198 73T242 63Q275 63 304 79V455ZM304 4Q288 -4 270 -8T229 -13Q133 -13 91 57T48 260Q48 326 59 377T95 464T159
519T254 538Q291 538 326 531T390 511V-185H304V4Z" />
<glyph unicode="r" glyph-name="r" horiz-adv-x="328" d="M305 447Q273 461 233 461Q196 461 164 448V0H78V502Q107 516 144 525T227 535Q251 535 275 532T320 521L305 447Z" />
<glyph unicode="s" glyph-name="s" horiz-adv-x="341" d="M151 61Q189 61 208 82T228 139Q228 161 220 176T199 204T169 225T135 246Q118 256 102 269T74 300T54 340T46 393Q46 458 86 498T196 538Q225 538 251 531T294 514L275 445Q257 455 239 460T200 465Q168
465 149 447T130 393Q130 373 137 359T155 333T181 311T212 292Q231 281 249 268T282 238T306 197T315 140Q315 71 275 29T156 -13Q116 -13 84 -2T36 18L54 89Q69 81 94 71T151 61Z" />
<glyph unicode="t" glyph-name="t" horiz-adv-x="321" d="M158 525H290V451H158V162Q158 108 177 87T230 65Q247 65 262 70T289 82L306 13Q265 -11 219 -11Q145 -11 109 30T72 168V666L158 681V525Z" />
<glyph unicode="u" glyph-name="u" horiz-adv-x="480" d="M403 15Q390 10 372 6T333 -2T292 -8T254 -11Q213 -11 179 -2T121 32T84 97T71 202V525H157V205Q157 128 180 97T252 65Q268 65 284 66T317 73V525H403V15Z" />
<glyph unicode="v" glyph-name="v" horiz-adv-x="397" d="M200 101Q212 141 225 195T252 306T276 421T296 525H382Q369 459 352 386T316 243T278 109T243 0H154Q138 46 119 109T82 242T46 386T15 525H106Q114 478 125 421T149 307T175 195T200 101Z" />
<glyph unicode="w" glyph-name="w" horiz-adv-x="573" d="M216 0H129Q98 103 71 237T20 525H105Q109 482 117 425T134 307T154 190T173 93Q182 133 193 191T216 310T238 428T254 525H335Q339 486 347 429T365 311T385 191T403 93Q412 133 422 190T441 307T459
424T471 525H553Q530 371 503 237T444 0H360Q352 31 343 79T324 183T306 293T292 395Q286 349 276 294T255 183T234 80T216 0Z" />
<glyph unicode="x" glyph-name="x" horiz-adv-x="392" d="M243 278Q260 247 278 212T315 141T349 69T377 0H292Q272 58 246 110T193 209Q168 163 143 111T97 0H15Q26 33 42 68T77 140T113 210T149 276L20 525H107L197 347L288 525H372L243 278Z" />
<glyph unicode="y" glyph-name="y" horiz-adv-x="396" d="M199 109Q228 209 252 310T298 525H383Q368 452 351 381T315 244T278 120T243 13Q224 -43 207 -81T169 -143T124 -177T67 -188Q49 -188 31 -184T1 -174L17 -104Q43 -115 66 -115Q95 -115 113 -94T148 -31L158
-6Q139 46 120 109T82 242T46 383T15 525H106Q114 478 125 422T148 310T174 202T199 109Z" />
<glyph unicode="z" glyph-name="z" horiz-adv-x="356" d="M319 461Q297 424 269 373T214 269T162 164T122 74H326V0H33V62Q49 106 74 160T126 268T180 370T226 451H45V525H319V461Z" />
<glyph unicode="{" glyph-name="braceleft" horiz-adv-x="266" d="M37 332Q70 336 86 367T102 455V627Q102 713 142 748T260 783V716Q218 716 201 695T184 628V457Q184 340 115 299Q184 258 184 141V-30Q184 -75 201 -96T260 -118V-185Q183 -185 143 -150T102
-29V143Q102 199 86 230T37 266V332Z" />
<glyph unicode="|" glyph-name="bar" horiz-adv-x="269" d="M94 783H175V-185H94V783Z" />
<glyph unicode="}" glyph-name="braceright" horiz-adv-x="266" d="M229 266Q196 262 180 231T164 143V-29Q164 -115 124 -150T6 -185V-118Q48 -118 65 -97T82 -30V141Q82 258 151 299Q82 340 82 457V628Q82 673 65 694T6 716V783Q83 783 123 748T164 627V455Q164
399 180 368T229 332V266Z" />
<glyph unicode="~" glyph-name="asciitilde" horiz-adv-x="430" d="M140 376Q167 376 188 365T226 339T259 313T292 301Q316 301 327 321T346 373L405 355Q402 333 395 310T374 267T340 236T289 223Q262 223 242 234T204 260T170 286T138 298Q117 298 105 278T84
226L25 244Q28 266 35 289T56 332T90 363T140 376Z" />
<glyph unicode="&#xa0;" glyph-name="uni00A0" horiz-adv-x="195" />
<glyph unicode="&#xa1;" glyph-name="exclamdown" horiz-adv-x="263" d="M85 21Q85 105 91 173T106 310H157Q166 242 172 174T178 21V-185H85V21ZM191 478Q191 455 175 437T131 419Q104 419 88 437T72 478Q72 502 88 520T131 538Q158 538 174 520T191 478Z" />
<glyph unicode="&#xa2;" glyph-name="cent" horiz-adv-x="430" d="M280 556Q306 554 326 547T365 531L343 460Q327 470 310 475T271 480Q214 480 188 435T162 292Q162 251 167 217T184 159T219 120T274 106Q297 106 315 111T350 126L369 59Q354 48 331 40T280
30V-101H201V39Q165 50 141 73T101 130T79 204T72 292Q72 393 103 458T201 546V685H280V556Z" />
<glyph unicode="&#xa3;" glyph-name="sterling" horiz-adv-x="430" d="M339 303H199V290Q199 241 195 183T182 74H401V0H87Q99 70 106 140T113 283V303H44V372H113V517Q113 563 126 598T162 658T218 694T288 706Q320 706 346 699T390 680L370 608Q354 618 335
624T296 630Q249 630 224 601T199 515V372H339V303Z" />
<glyph unicode="&#xa4;" glyph-name="currency" horiz-adv-x="430" d="M67 348Q67 410 89 457L30 538L88 588L139 517Q174 539 216 539Q259 539 292 517L344 588L402 538L343 457Q365 410 365 348Q365 287 343 240L402 160L344 110L293 179Q260 157 216 157Q173
157 138 179L88 110L30 160L88 240Q67 285 67 348ZM137 348Q137 289 158 257T216 224Q253 224 274 256T295 348Q295 407 274 439T216 472Q179 472 158 440T137 348Z" />
<glyph unicode="&#xa5;" glyph-name="yen" horiz-adv-x="430" d="M377 121H259V0H173V121H52V187H173V281H52V347H144Q100 450 69 534T12 693H97Q109 654 123 613T153 530T185 449T216 375Q231 409 247 448T278 529T308 612T335 693H417Q391 618 360 534T285 347H377V281H259V187H377V121Z"
/>
<glyph unicode="&#xa6;" glyph-name="brokenbar" horiz-adv-x="269" d="M94 400V783H175V400H94ZM175 198V-185H94V198H175Z" />
<glyph unicode="&#xa7;" glyph-name="section" horiz-adv-x="400" d="M41 308Q41 361 65 398T119 456Q96 476 82 502T67 567Q67 601 79 627T113 672T163 699T224 709Q263 709 292 700T346 677L325 612Q308 622 284 630T230 638Q196 638 173 620T149 567Q149 547
157 532T178 504T208 483T244 463Q265 452 285 438T322 404T349 359T360 301Q360 250 339 214T289 156Q313 136 328 109T344 39Q344 4 332 -23T297 -70T243 -99T175 -109Q137 -109 103 -101T44 -78L61 -12Q116 -38 175 -38Q211 -38 236 -19T261 37Q261 59 255 74T236
100T206 120T167 141Q145 152 123 165T82 198T53 243T41 308ZM120 317Q120 291 128 273T150 241T182 217T220 198L237 189Q281 227 281 292Q281 315 274 332T255 362T228 385T195 406Q187 410 180 414T165 423Q144 405 132 377T120 317Z" />
<glyph unicode="&#xa8;" glyph-name="dieresis" horiz-adv-x="314" d="M74 618Q51 618 35 633T18 675Q18 701 34 716T74 732Q97 732 113 717T130 675Q130 649 114 634T74 618ZM240 618Q217 618 201 633T184 675Q184 701 200 716T240 732Q263 732 279 717T296 675Q296
649 280 634T240 618Z" />
<glyph unicode="&#xa9;" glyph-name="copyright" horiz-adv-x="711" d="M648 348Q648 260 624 193T560 79T467 9T356 -15Q298 -15 245 9T152 79T87 192T63 348Q63 436 87 503T151 616T245 685T356 709Q414 709 466 686T559 616T624 503T648 348ZM580 348Q580 418
564 473T517 567T446 626T356 647Q307 647 266 627T194 568T148 474T131 348Q131 278 147 222T194 127T265 68T356 47Q405 47 446 67T517 127T563 222T580 348ZM214 348Q214 447 255 500T369 553Q419 553 464 526L448 469Q432 478 412 484T373 491Q332 491 309
456T285 348Q285 276 309 241T376 205Q395 205 415 211T453 227L469 170Q422 143 372 143Q298 143 256 196T214 348Z" />
<glyph unicode="&#xaa;" glyph-name="ordfeminine" horiz-adv-x="317" d="M202 495Q192 497 182 498T160 499Q139 499 120 488T101 444Q101 413 117 400T164 386Q185 386 202 391V495ZM153 706Q185 706 206 697T241 671T260 632T266 583V345Q246 339 219 334T162
329Q105 329 71 356T36 444Q36 474 45 495T71 529T109 549T155 556Q179 556 202 550V584Q202 612 189 629T143 646Q125 646 107 642T75 630L66 688Q82 695 105 700T153 706Z" />
<glyph unicode="&#xab;" glyph-name="guillemotleft" horiz-adv-x="453" d="M222 92L156 63L28 284L156 505L222 476L128 284L222 92ZM411 92L345 63L217 284L345 505L411 476L317 284L411 92Z" />
<glyph unicode="&#xac;" glyph-name="logicalnot" horiz-adv-x="430" d="M367 133H293V321H23V394H367V133Z" />
<glyph unicode="&#xad;" glyph-name="uni00AD" horiz-adv-x="233" d="M24 340H209V259H24V340Z" />
<glyph unicode="&#xae;" glyph-name="registered" horiz-adv-x="711" d="M427 150Q409 197 389 236T354 299H313V150H247V534Q270 541 294 544T339 548Q478 548 478 421Q478 350 417 316L420 310Q428 297 438 279T459 239T479 194T496 150H427ZM344 490Q336 490
329 490T313 488V353H338Q368 353 388 366T409 421Q409 459 390 474T344 490ZM648 348Q648 260 624 193T560 79T467 9T356 -15Q298 -15 245 9T152 79T87 192T63 348Q63 436 87 503T151 616T245 685T356 709Q414 709 466 686T559 616T624 503T648 348ZM580 348Q580
418 564 473T517 567T446 626T356 647Q307 647 266 627T194 568T148 474T131 348Q131 278 147 222T194 127T265 68T356 47Q405 47 446 67T517 127T563 222T580 348Z" />
<glyph unicode="&#xaf;" glyph-name="overscore" horiz-adv-x="314" d="M50 711H263V643H50V711Z" />
<glyph unicode="&#xb0;" glyph-name="degree" horiz-adv-x="288" d="M264 637Q264 609 254 587T228 550T190 526T144 518Q120 518 98 526T60 549T34 587T24 637Q24 665 33 687T59 724T98 748T144 756Q168 756 189 748T227 725T254 687T264 637ZM202 637Q202 666
185 682T144 698Q120 698 103 682T86 637Q86 608 103 592T144 576Q168 576 185 592T202 637Z" />
<glyph unicode="&#xb1;" glyph-name="plusminus" horiz-adv-x="430" d="M43 342H178V486H252V342H387V269H252V124H178V269H43V342ZM43 58H387V-15H43V58Z" />
<glyph unicode="&#xb2;" glyph-name="twosuperior" horiz-adv-x="280" d="M239 595Q239 571 232 550T213 511T188 476T162 445Q148 428 135 410T117 371H244V306H34V323Q34 349 41 372T60 415T86 453T115 489Q141 521 155 543T169 588Q169 612 156 623T124 635Q109
635 93 628T62 610L32 663Q55 680 79 689T132 699Q179 699 209 671T239 595Z" />
<glyph unicode="&#xb3;" glyph-name="threesuperior" horiz-adv-x="280" d="M111 363Q138 363 155 378T172 419Q172 451 150 465T101 480H77V539H105Q114 539 124 541T143 550T158 566T164 591Q164 614 151 625T115 636Q98 636 83 630T51 613L27 667Q48 682 71
690T120 699Q148 699 169 691T204 669T224 638T231 603Q231 571 218 551T185 514Q211 500 226 474T242 416Q242 393 234 372T210 335T169 309T111 299Q66 299 24 324L44 384Q61 373 76 368T111 363Z" />
<glyph unicode="&#xb4;" glyph-name="acute" horiz-adv-x="314" d="M286 726L150 582L107 619L225 778L286 726Z" />
<glyph unicode="&#xb5;" glyph-name="mu" horiz-adv-x="488" d="M410 15Q397 10 379 6T341 -2T304 -8T272 -11Q234 -11 207 -3T159 26Q161 -6 162 -39T164 -109V-185H78V525H164V186Q164 123 187 94T259 65Q275 65 291 66T324 73V525H410V15Z" />
<glyph unicode="&#xb6;" glyph-name="paragraph" horiz-adv-x="530" d="M304 628Q299 628 295 628T287 627V-185H215V264Q132 278 87 332T41 480Q41 589 108 644T289 700Q321 700 358 696T431 681V-185H359V624Q348 626 335 627T304 628Z" />
<glyph unicode="&#xb7;" glyph-name="middot" horiz-adv-x="227" d="M173 294Q173 271 157 253T113 235Q86 235 70 253T54 294Q54 318 70 336T113 354Q140 354 156 336T173 294Z" />
<glyph unicode="&#xb8;" glyph-name="cedilla" horiz-adv-x="314" d="M202 20Q196 9 188 -8T173 -40Q202 -51 214 -68T226 -109Q226 -147 196 -168T122 -189Q107 -189 89 -187T54 -178L64 -123Q74 -125 85 -127T108 -130Q126 -130 139 -125T152 -103Q152 -92 141
-84T100 -70Q108 -47 120 -20T141 20H202Z" />
<glyph unicode="&#xb9;" glyph-name="onesuperior" horiz-adv-x="280" d="M32 609Q61 625 90 646T143 693H194V306H124V595Q90 569 59 556L32 609Z" />
<glyph unicode="&#xba;" glyph-name="ordmasculine" horiz-adv-x="364" d="M323 521Q323 426 284 379T182 332Q120 332 81 378T41 521Q41 618 80 664T182 710Q244 710 283 664T323 521ZM253 521Q253 587 235 617T182 648Q149 648 130 618T111 521Q111 456 129
425T182 394Q216 394 234 425T253 521Z" />
<glyph unicode="&#xbb;" glyph-name="guillemotright" horiz-adv-x="453" d="M136 284L42 476L108 505L236 284L108 63L42 92L136 284ZM325 284L231 476L297 505L425 284L297 63L231 92L325 284Z" />
<glyph unicode="&#xbc;" glyph-name="onequarter" horiz-adv-x="706" d="M282 609Q311 625 340 646T393 693H444V306H374V595Q340 569 309 556L282 609ZM527 693L244 0H169L452 693H527ZM619 388V154H661V96H619V1H555V96H427V134Q469 268 547 388H619ZM556 304Q539
275 521 235T487 154H556V304Z" />
<glyph unicode="&#xbd;" glyph-name="onehalf" horiz-adv-x="706" d="M282 609Q311 625 340 646T393 693H444V306H374V595Q340 569 309 556L282 609ZM507 693L224 0H149L432 693H507ZM654 290Q654 266 647 245T628 206T603 171T577 140Q563 123 550 105T532 66H659V1H449V18Q449
44 456 67T475 110T501 148T530 184Q556 216 570 238T584 283Q584 307 571 318T539 330Q524 330 508 323T477 305L447 358Q470 375 494 384T547 394Q594 394 624 366T654 290Z" />
<glyph unicode="&#xbe;" glyph-name="threequarters" horiz-adv-x="706" d="M125 363Q152 363 169 378T186 419Q186 451 164 465T115 480H91V539H119Q128 539 138 541T157 550T172 566T178 591Q178 614 165 625T129 636Q112 636 97 630T65 613L41 667Q62 682 85
690T134 699Q162 699 183 691T218 669T238 638T245 603Q245 571 232 551T199 514Q225 500 240 474T256 416Q256 393 248 372T224 335T183 309T125 299Q80 299 38 324L58 384Q75 373 90 368T125 363ZM537 693L254 0H179L462 693H537ZM624 388V154H666V96H624V1H560V96H432V134Q474
268 552 388H624ZM561 304Q544 275 526 235T492 154H561V304Z" />
<glyph unicode="&#xbf;" glyph-name="questiondown" horiz-adv-x="342" d="M204 -112Q231 -112 252 -103T291 -80L325 -146Q297 -165 265 -176T194 -188Q149 -188 117 -175T65 -141T36 -91T26 -32Q26 3 36 31T63 82T98 127T133 172T160 223T171 286Q171 291 171
297T170 308H248Q251 288 251 266Q251 231 242 204T218 155T186 114T155 75T131 30T121 -25Q121 -67 143 -89T204 -112ZM264 477Q264 454 248 436T204 418Q177 418 161 436T145 477Q145 501 161 519T204 537Q231 537 247 519T264 477Z" />
<glyph unicode="&#xc0;" glyph-name="Agrave" horiz-adv-x="503" d="M299 693Q323 618 346 542T392 381T437 203T483 0H393Q385 45 377 89T359 177H141Q131 133 123 89T107 0H20Q42 109 65 203T110 381T156 541T204 693H299ZM250 591Q225 508 202 424T158 252H341Q321
340 298 424T250 591ZM183 928L301 769L258 732L122 876L183 928Z" />
<glyph unicode="&#xc1;" glyph-name="Aacute" horiz-adv-x="503" d="M299 693Q323 618 346 542T392 381T437 203T483 0H393Q385 45 377 89T359 177H141Q131 133 123 89T107 0H20Q42 109 65 203T110 381T156 541T204 693H299ZM250 591Q225 508 202 424T158 252H341Q321
340 298 424T250 591ZM381 876L245 732L202 769L320 928L381 876Z" />
<glyph unicode="&#xc2;" glyph-name="Acircumflex" horiz-adv-x="503" d="M299 693Q323 618 346 542T392 381T437 203T483 0H393Q385 45 377 89T359 177H141Q131 133 123 89T107 0H20Q42 109 65 203T110 381T156 541T204 693H299ZM250 591Q225 508 202 424T158
252H341Q321 340 298 424T250 591ZM177 731L135 766L250 918L365 766L323 731L250 816L177 731Z" />
<glyph unicode="&#xc3;" glyph-name="Atilde" horiz-adv-x="503" d="M299 693Q323 618 346 542T392 381T437 203T483 0H393Q385 45 377 89T359 177H141Q131 133 123 89T107 0H20Q42 109 65 203T110 381T156 541T204 693H299ZM250 591Q225 508 202 424T158 252H341Q321
340 298 424T250 591ZM379 871Q370 823 351 798T302 772Q285 772 271 779T244 795T222 811T201 818Q192 818 186 808T173 772L123 789Q131 837 151 862T200 888Q218 888 232 881T258 865T280 849T301 842Q310 842 316 852T329 888L379 871Z" />
<glyph unicode="&#xc4;" glyph-name="Adieresis" horiz-adv-x="503" d="M299 693Q323 618 346 542T392 381T437 203T483 0H393Q385 45 377 89T359 177H141Q131 133 123 89T107 0H20Q42 109 65 203T110 381T156 541T204 693H299ZM250 591Q225 508 202 424T158 252H341Q321
340 298 424T250 591ZM168 768Q145 768 129 783T112 825Q112 851 128 866T168 882Q191 882 207 867T224 825Q224 799 208 784T168 768ZM334 768Q311 768 295 783T278 825Q278 851 294 866T334 882Q357 882 373 867T390 825Q390 799 374 784T334 768Z" />
<glyph unicode="&#xc5;" glyph-name="Aring" horiz-adv-x="503" d="M336 741Q336 719 328 702T305 674Q328 602 350 527T395 371T439 198T483 0H393Q385 45 377 89T359 177H141Q131 133 123 89T107 0H20Q42 106 63 197T107 370T151 526T197 673Q183 684 175 701T166
741Q166 780 191 803T251 826Q286 826 311 803T336 741ZM250 591Q225 508 202 424T158 252H341Q321 340 298 424T250 591ZM291 741Q291 761 280 771T251 782Q234 782 223 772T211 741Q211 721 222 711T251 700Q268 700 279 710T291 741Z" />
<glyph unicode="&#xc6;" glyph-name="AE" horiz-adv-x="729" d="M357 0V177H155Q137 132 120 88T89 0H2Q32 87 69 178T146 359T230 534T314 693H668V616H447V401H647V326H447V77H684V0H357ZM357 247V612Q312 527 269 436T186 252H356L357 247Z" />
<glyph unicode="&#xc7;" glyph-name="Ccedilla" horiz-adv-x="469" d="M296 -40Q325 -51 337 -68T349 -109Q349 -147 319 -168T245 -189Q230 -189 212 -187T177 -178L187 -123Q197 -125 208 -127T231 -130Q249 -130 262 -125T275 -103Q275 -92 264 -84T223 -70Q228
-56 234 -40T248 -9Q154 11 105 101T55 357Q55 454 73 521T125 630T203 690T301 709Q345 709 383 698T445 669L418 594Q394 610 367 620T303 630Q223 630 187 564T151 357Q151 216 189 140T313 64Q354 64 379 74T429 100L454 29Q431 11 394 -2T307 -15L296 -40Z"
/>
<glyph unicode="&#xc8;" glyph-name="Egrave" horiz-adv-x="456" d="M84 0V693H395V616H174V401H374V326H174V77H411V0H84ZM170 928L288 769L245 732L109 876L170 928Z" />
<glyph unicode="&#xc9;" glyph-name="Eacute" horiz-adv-x="456" d="M84 0V693H395V616H174V401H374V326H174V77H411V0H84ZM360 876L224 732L181 769L299 928L360 876Z" />
<glyph unicode="&#xca;" glyph-name="Ecircumflex" horiz-adv-x="456" d="M84 0V693H395V616H174V401H374V326H174V77H411V0H84ZM169 731L127 766L242 918L357 766L315 731L242 816L169 731Z" />
<glyph unicode="&#xcb;" glyph-name="Edieresis" horiz-adv-x="456" d="M84 0V693H395V616H174V401H374V326H174V77H411V0H84ZM155 768Q132 768 116 783T99 825Q99 851 115 866T155 882Q178 882 194 867T211 825Q211 799 195 784T155 768ZM321 768Q298 768 282
783T265 825Q265 851 281 866T321 882Q344 882 360 867T377 825Q377 799 361 784T321 768Z" />
<glyph unicode="&#xcc;" glyph-name="Igrave" horiz-adv-x="258" d="M84 693H174V0H84V693ZM62 928L180 769L137 732L1 876L62 928Z" />
<glyph unicode="&#xcd;" glyph-name="Iacute" horiz-adv-x="258" d="M84 693H174V0H84V693ZM259 876L123 732L80 769L198 928L259 876Z" />
<glyph unicode="&#xce;" glyph-name="Icircumflex" horiz-adv-x="258" d="M84 693H174V0H84V693ZM56 731L14 766L129 918L244 766L202 731L129 816L56 731Z" />
<glyph unicode="&#xcf;" glyph-name="Idieresis" horiz-adv-x="258" d="M84 693H174V0H84V693ZM47 768Q24 768 8 783T-9 825Q-9 851 7 866T47 882Q70 882 86 867T103 825Q103 799 87 784T47 768ZM213 768Q190 768 174 783T157 825Q157 851 173 866T213 882Q236
882 252 867T269 825Q269 799 253 784T213 768Z" />
<glyph unicode="&#xd0;" glyph-name="Eth" horiz-adv-x="576" d="M15 380H83V683Q121 691 157 696T226 701Q293 701 347 682T440 620T500 510T521 347Q521 252 500 185T441 75T348 13T227 -7Q159 -7 83 11V314H15V380ZM425 347Q425 491 379 556T230 621Q216 621
202 620T173 617V380H281V314H173V77Q188 75 202 74T229 73Q332 73 378 137T425 347Z" />
<glyph unicode="&#xd1;" glyph-name="Ntilde" horiz-adv-x="581" d="M424 0Q400 59 370 127T306 265T237 403T168 531V0H84V693H159Q197 631 232 566T300 438T360 313T413 196V693H497V0H424ZM419 871Q410 823 391 798T342 772Q325 772 311 779T284 795T262 811T241
818Q232 818 226 808T213 772L163 789Q171 837 191 862T240 888Q258 888 272 881T298 865T320 849T341 842Q350 842 356 852T369 888L419 871Z" />
<glyph unicode="&#xd2;" glyph-name="Ograve" horiz-adv-x="605" d="M549 346Q549 265 535 199T490 85T413 11T303 -15Q240 -15 194 11T117 84T71 198T56 346Q56 427 71 494T116 608T193 682T303 709Q366 709 412 683T489 609T534 494T549 346ZM453 346Q453 409
445 461T419 550T373 609T303 630Q262 630 234 609T187 551T161 461T152 346Q152 283 160 231T187 142T233 85T303 64Q344 64 372 84T419 142T445 231T453 346ZM234 928L352 769L309 732L173 876L234 928Z" />
<glyph unicode="&#xd3;" glyph-name="Oacute" horiz-adv-x="605" d="M549 346Q549 265 535 199T490 85T413 11T303 -15Q240 -15 194 11T117 84T71 198T56 346Q56 427 71 494T116 608T193 682T303 709Q366 709 412 683T489 609T534 494T549 346ZM453 346Q453 409
445 461T419 550T373 609T303 630Q262 630 234 609T187 551T161 461T152 346Q152 283 160 231T187 142T233 85T303 64Q344 64 372 84T419 142T445 231T453 346ZM431 876L295 732L252 769L370 928L431 876Z" />
<glyph unicode="&#xd4;" glyph-name="Ocircumflex" horiz-adv-x="605" d="M549 346Q549 265 535 199T490 85T413 11T303 -15Q240 -15 194 11T117 84T71 198T56 346Q56 427 71 494T116 608T193 682T303 709Q366 709 412 683T489 609T534 494T549 346ZM453 346Q453
409 445 461T419 550T373 609T303 630Q262 630 234 609T187 551T161 461T152 346Q152 283 160 231T187 142T233 85T303 64Q344 64 372 84T419 142T445 231T453 346ZM228 731L186 766L301 918L416 766L374 731L301 816L228 731Z" />
<glyph unicode="&#xd5;" glyph-name="Otilde" horiz-adv-x="605" d="M549 346Q549 265 535 199T490 85T413 11T303 -15Q240 -15 194 11T117 84T71 198T56 346Q56 427 71 494T116 608T193 682T303 709Q366 709 412 683T489 609T534 494T549 346ZM453 346Q453 409
445 461T419 550T373 609T303 630Q262 630 234 609T187 551T161 461T152 346Q152 283 160 231T187 142T233 85T303 64Q344 64 372 84T419 142T445 231T453 346ZM430 871Q421 823 402 798T353 772Q336 772 322 779T295 795T273 811T252 818Q243 818 237 808T224
772L174 789Q182 837 202 862T251 888Q269 888 283 881T309 865T331 849T352 842Q361 842 367 852T380 888L430 871Z" />
<glyph unicode="&#xd6;" glyph-name="Odieresis" horiz-adv-x="605" d="M549 346Q549 265 535 199T490 85T413 11T303 -15Q240 -15 194 11T117 84T71 198T56 346Q56 427 71 494T116 608T193 682T303 709Q366 709 412 683T489 609T534 494T549 346ZM453 346Q453
409 445 461T419 550T373 609T303 630Q262 630 234 609T187 551T161 461T152 346Q152 283 160 231T187 142T233 85T303 64Q344 64 372 84T419 142T445 231T453 346ZM219 768Q196 768 180 783T163 825Q163 851 179 866T219 882Q242 882 258 867T275 825Q275 799
259 784T219 768ZM385 768Q362 768 346 783T329 825Q329 851 345 866T385 882Q408 882 424 867T441 825Q441 799 425 784T385 768Z" />
<glyph unicode="&#xd7;" glyph-name="multiply" horiz-adv-x="430" d="M267 299L378 188L326 136L215 247L104 136L52 188L163 299L52 410L104 462L215 351L326 462L378 410L267 299Z" />
<glyph unicode="&#xd8;" glyph-name="Oslash" horiz-adv-x="605" d="M63 -3L115 86Q85 134 71 199T56 346Q56 427 71 494T116 608T193 682T303 709Q347 709 382 696T446 659L487 730L544 697L491 605Q520 557 534 492T549 346Q549 265 535 199T490 85T413 11T303
-15Q217 -15 160 34L120 -36L63 -3ZM152 346Q152 249 171 183L401 581Q383 604 359 617T303 630Q262 630 234 609T187 551T161 461T152 346ZM453 346Q453 440 435 508L205 111Q223 88 247 76T303 64Q344 64 372 84T419 142T445 231T453 346Z" />
<glyph unicode="&#xd9;" glyph-name="Ugrave" horiz-adv-x="549" d="M272 -15Q175 -15 127 40T78 214V693H168V222Q168 143 191 104T274 64Q336 64 358 104T381 222V693H471V214Q471 97 421 41T272 -15ZM207 928L325 769L282 732L146 876L207 928Z" />
<glyph unicode="&#xda;" glyph-name="Uacute" horiz-adv-x="549" d="M272 -15Q175 -15 127 40T78 214V693H168V222Q168 143 191 104T274 64Q336 64 358 104T381 222V693H471V214Q471 97 421 41T272 -15ZM403 876L267 732L224 769L342 928L403 876Z" />
<glyph unicode="&#xdb;" glyph-name="Ucircumflex" horiz-adv-x="549" d="M272 -15Q175 -15 127 40T78 214V693H168V222Q168 143 191 104T274 64Q336 64 358 104T381 222V693H471V214Q471 97 421 41T272 -15ZM201 731L159 766L274 918L389 766L347 731L274 816L201 731Z" />
<glyph unicode="&#xdc;" glyph-name="Udieresis" horiz-adv-x="549" d="M272 -15Q175 -15 127 40T78 214V693H168V222Q168 143 191 104T274 64Q336 64 358 104T381 222V693H471V214Q471 97 421 41T272 -15ZM192 768Q169 768 153 783T136 825Q136 851 152 866T192
882Q215 882 231 867T248 825Q248 799 232 784T192 768ZM358 768Q335 768 319 783T302 825Q302 851 318 866T358 882Q381 882 397 867T414 825Q414 799 398 784T358 768Z" />
<glyph unicode="&#xdd;" glyph-name="Yacute" horiz-adv-x="451" d="M448 693Q431 646 411 593T367 486T320 377T272 274V0H182V268Q158 317 133 372T85 482T41 591T3 693H100Q126 614 159 526T227 362Q262 438 295 526T354 693H448ZM354 876L218 732L175 769L293
928L354 876Z" />
<glyph unicode="&#xde;" glyph-name="Thorn" horiz-adv-x="486" d="M174 693V582Q185 583 197 583T221 584Q273 584 315 572T388 533T435 464T452 363Q452 303 435 261T387 192T313 153T216 141H174V0H84V693H174ZM174 220H210Q244 220 271 227T318 252T347 296T357
363Q357 403 347 430T320 474T277 498T222 505Q196 505 174 502V220Z" />
<glyph unicode="&#xdf;" glyph-name="germandbls" horiz-adv-x="487" d="M404 628Q404 581 386 547T347 484Q337 470 331 460T320 441T315 427T313 413Q313 403 317 394T330 373T354 347T394 310Q420 287 436 252T452 164Q452 128 443 96T414 40T365 2T297 -12Q257
-12 221 1L236 76Q250 72 262 70T287 68Q309 68 324 76T348 97T361 128T365 165Q365 186 362 201T351 230T332 254T306 279Q268 314 250 341T232 403Q232 435 243 457T275 510Q292 534 305 558T318 618Q318 653 301 676T249 700Q207 700 185 676T162 586V0H76V583Q76
683 120 729T246 776Q284 776 313 765T363 734T393 687T404 628Z" />
<glyph unicode="&#xe0;" glyph-name="agrave" horiz-adv-x="434" d="M86 514Q112 525 141 531T204 538Q274 538 318 495T362 359V11Q326 1 289 -5T215 -11Q179 -11 148 -2T93 27T55 77T41 152Q41 193 53 223T88 274T140 305T205 316Q238 316 278 308V356Q278 414
256 437T191 460Q168 460 148 456T104 441L86 514ZM127 153Q127 107 151 85T219 63Q246 63 278 70V237Q248 245 219 245Q200 245 183 241T154 226T134 198T127 153ZM154 778L272 619L229 582L93 726L154 778Z" />
<glyph unicode="&#xe1;" glyph-name="aacute" horiz-adv-x="434" d="M86 514Q112 525 141 531T204 538Q274 538 318 495T362 359V11Q326 1 289 -5T215 -11Q179 -11 148 -2T93 27T55 77T41 152Q41 193 53 223T88 274T140 305T205 316Q238 316 278 308V356Q278 414
256 437T191 460Q168 460 148 456T104 441L86 514ZM127 153Q127 107 151 85T219 63Q246 63 278 70V237Q248 245 219 245Q200 245 183 241T154 226T134 198T127 153ZM329 726L193 582L150 619L268 778L329 726Z" />
<glyph unicode="&#xe2;" glyph-name="acircumflex" horiz-adv-x="434" d="M86 514Q112 525 141 531T204 538Q274 538 318 495T362 359V11Q326 1 289 -5T215 -11Q179 -11 148 -2T93 27T55 77T41 152Q41 193 53 223T88 274T140 305T205 316Q238 316 278 308V356Q278
414 256 437T191 460Q168 460 148 456T104 441L86 514ZM127 153Q127 107 151 85T219 63Q246 63 278 70V237Q248 245 219 245Q200 245 183 241T154 226T134 198T127 153ZM143 581L101 616L216 768L331 616L289 581L216 666L143 581Z" />
<glyph unicode="&#xe3;" glyph-name="atilde" horiz-adv-x="434" d="M86 514Q112 525 141 531T204 538Q274 538 318 495T362 359V11Q326 1 289 -5T215 -11Q179 -11 148 -2T93 27T55 77T41 152Q41 193 53 223T88 274T140 305T205 316Q238 316 278 308V356Q278 414
256 437T191 460Q168 460 148 456T104 441L86 514ZM127 153Q127 107 151 85T219 63Q246 63 278 70V237Q248 245 219 245Q200 245 183 241T154 226T134 198T127 153ZM345 721Q336 673 317 648T268 622Q251 622 237 629T210 645T188 661T167 668Q158 668 152 658T139
622L89 639Q97 687 117 712T166 738Q184 738 198 731T224 715T246 699T267 692Q276 692 282 702T295 738L345 721Z" />
<glyph unicode="&#xe4;" glyph-name="adieresis" horiz-adv-x="434" d="M86 514Q112 525 141 531T204 538Q274 538 318 495T362 359V11Q326 1 289 -5T215 -11Q179 -11 148 -2T93 27T55 77T41 152Q41 193 53 223T88 274T140 305T205 316Q238 316 278 308V356Q278
414 256 437T191 460Q168 460 148 456T104 441L86 514ZM127 153Q127 107 151 85T219 63Q246 63 278 70V237Q248 245 219 245Q200 245 183 241T154 226T134 198T127 153ZM134 618Q111 618 95 633T78 675Q78 701 94 716T134 732Q157 732 173 717T190 675Q190 649
174 634T134 618ZM300 618Q277 618 261 633T244 675Q244 701 260 716T300 732Q323 732 339 717T356 675Q356 649 340 634T300 618Z" />
<glyph unicode="&#xe5;" glyph-name="aring" horiz-adv-x="434" d="M86 514Q112 525 141 531T204 538Q274 538 318 495T362 359V11Q326 1 289 -5T215 -11Q179 -11 148 -2T93 27T55 77T41 152Q41 193 53 223T88 274T140 305T205 316Q238 316 278 308V356Q278 414
256 437T191 460Q168 460 148 456T104 441L86 514ZM127 153Q127 107 151 85T219 63Q246 63 278 70V237Q248 245 219 245Q200 245 183 241T154 226T134 198T127 153ZM302 682Q302 643 277 620T217 597Q182 597 157 620T132 682Q132 721 157 744T217 767Q252 767
277 744T302 682ZM257 682Q257 702 246 712T217 723Q200 723 189 713T177 682Q177 662 188 652T217 641Q234 641 245 651T257 682Z" />
<glyph unicode="&#xe6;" glyph-name="ae" horiz-adv-x="663" d="M204 538Q245 538 277 522T330 470Q375 538 451 538Q540 538 577 471T614 283Q614 272 614 261T613 237H364Q365 199 371 168T390 113T426 76T484 63Q513 63 537 71T573 86L589 17Q576 8 546 -2T473
-13Q434 -13 405 -4T352 25Q320 8 288 -1T215 -11Q179 -11 147 -2T92 28T55 79T41 152Q41 193 53 223T88 274T140 305T205 316Q237 316 277 308Q277 310 277 311T278 314V356Q278 414 256 437T191 460Q168 460 148 456T104 441L86 514Q112 525 141 531T204 538ZM219
63Q246 63 267 69T306 87Q292 117 285 154T276 237Q247 245 219 245Q200 245 183 241T154 226T134 198T127 153Q127 114 150 89T219 63ZM451 465Q408 465 389 422T365 307H524Q524 380 509 422T451 465Z" />
<glyph unicode="&#xe7;" glyph-name="ccedilla" horiz-adv-x="353" d="M338 16Q323 5 298 -3T244 -13Q240 -20 237 -27T232 -40Q261 -51 273 -68T285 -109Q285 -147 255 -168T181 -189Q166 -189 148 -187T113 -178L123 -123Q133 -125 144 -127T167 -130Q185 -130
198 -125T211 -103Q211 -92 200 -84T159 -70Q164 -55 170 -38T185 -6Q147 4 121 28T78 87T55 166T48 261Q48 391 95 464T239 538Q268 538 291 531T334 513L312 442Q281 462 243 462Q189 462 164 413T138 261Q138 218 143 182T160 119T193 78T246 63Q268 63 285
68T319 83L338 16Z" />
<glyph unicode="&#xe8;" glyph-name="egrave" horiz-adv-x="436" d="M137 237Q138 199 144 168T163 113T199 76T257 63Q286 63 310 71T346 86L362 17Q349 8 319 -2T246 -13Q191 -13 154 7T93 63T59 149T49 259Q49 404 97 471T224 538Q313 538 350 471T387 283Q387
272 387 261T386 237H137ZM224 465Q181 465 162 422T138 307H297Q297 380 282 422T224 465ZM165 778L283 619L240 582L104 726L165 778Z" />
<glyph unicode="&#xe9;" glyph-name="eacute" horiz-adv-x="436" d="M137 237Q138 199 144 168T163 113T199 76T257 63Q286 63 310 71T346 86L362 17Q349 8 319 -2T246 -13Q191 -13 154 7T93 63T59 149T49 259Q49 404 97 471T224 538Q313 538 350 471T387 283Q387
272 387 261T386 237H137ZM224 465Q181 465 162 422T138 307H297Q297 380 282 422T224 465ZM340 726L204 582L161 619L279 778L340 726Z" />
<glyph unicode="&#xea;" glyph-name="ecircumflex" horiz-adv-x="436" d="M137 237Q138 199 144 168T163 113T199 76T257 63Q286 63 310 71T346 86L362 17Q349 8 319 -2T246 -13Q191 -13 154 7T93 63T59 149T49 259Q49 404 97 471T224 538Q313 538 350 471T387
283Q387 272 387 261T386 237H137ZM224 465Q181 465 162 422T138 307H297Q297 380 282 422T224 465ZM149 581L107 616L222 768L337 616L295 581L222 666L149 581Z" />
<glyph unicode="&#xeb;" glyph-name="edieresis" horiz-adv-x="436" d="M137 237Q138 199 144 168T163 113T199 76T257 63Q286 63 310 71T346 86L362 17Q349 8 319 -2T246 -13Q191 -13 154 7T93 63T59 149T49 259Q49 404 97 471T224 538Q313 538 350 471T387 283Q387
272 387 261T386 237H137ZM224 465Q181 465 162 422T138 307H297Q297 380 282 422T224 465ZM140 618Q117 618 101 633T84 675Q84 701 100 716T140 732Q163 732 179 717T196 675Q196 649 180 634T140 618ZM306 618Q283 618 267 633T250 675Q250 701 266 716T306
732Q329 732 345 717T362 675Q362 649 346 634T306 618Z" />
<glyph unicode="&#xec;" glyph-name="igrave" horiz-adv-x="242" d="M164 0H78V525H164V0ZM320 778L438 619L395 582L259 726L320 778Z" />
<glyph unicode="&#xed;" glyph-name="iacute" horiz-adv-x="242" d="M164 0H78V525H164V0ZM497 726L361 582L318 619L436 778L497 726Z" />
<glyph unicode="&#xee;" glyph-name="icircumflex" horiz-adv-x="242" d="M164 0H78V525H164V0ZM304 581L262 616L377 768L492 616L450 581L377 666L304 581Z" />
<glyph unicode="&#xef;" glyph-name="idieresis" horiz-adv-x="242" d="M164 0H78V525H164V0ZM295 618Q272 618 256 633T239 675Q239 701 255 716T295 732Q318 732 334 717T351 675Q351 649 335 634T295 618ZM461 618Q438 618 422 633T405 675Q405 701 421 716T461
732Q484 732 500 717T517 675Q517 649 501 634T461 618Z" />
<glyph unicode="&#xf0;" glyph-name="eth" horiz-adv-x="461" d="M426 666L337 624Q372 551 390 466T409 286Q409 223 400 168T370 73T313 10T227 -13Q182 -13 149 4T94 54T60 133T49 236Q49 301 63 348T101 427T159 474T232 489Q268 489 300 477Q286 538 263
589L183 552L158 609L235 645Q208 690 172 732L233 775Q275 730 306 678L401 723L426 666ZM319 289Q319 345 313 396Q299 406 281 412T240 419Q139 419 139 234Q139 142 162 102T224 62Q276 62 297 122T319 289Z" />
<glyph unicode="&#xf1;" glyph-name="ntilde" horiz-adv-x="482" d="M78 510Q115 521 158 528T237 536Q276 536 308 526T362 490T397 423T410 317V0H324V310Q324 388 304 424T229 460Q200 460 164 450V0H78V510ZM369 721Q360 673 341 648T292 622Q275 622 261
629T234 645T212 661T191 668Q182 668 176 658T163 622L113 639Q121 687 141 712T190 738Q208 738 222 731T248 715T270 699T291 692Q300 692 306 702T319 738L369 721Z" />
<glyph unicode="&#xf2;" glyph-name="ograve" horiz-adv-x="463" d="M415 262Q415 200 404 150T371 63T314 7T232 -13Q185 -13 150 7T93 63T59 149T48 262Q48 323 59 374T92 461T150 518T232 538Q279 538 313 518T370 462T404 374T415 262ZM325 262Q325 306 320
342T304 405T275 446T232 461Q206 461 189 447T160 406T143 343T138 262Q138 218 143 182T159 119T188 79T232 64Q257 64 275 78T304 119T320 181T325 262ZM173 778L291 619L248 582L112 726L173 778Z" />
<glyph unicode="&#xf3;" glyph-name="oacute" horiz-adv-x="463" d="M415 262Q415 200 404 150T371 63T314 7T232 -13Q185 -13 150 7T93 63T59 149T48 262Q48 323 59 374T92 461T150 518T232 538Q279 538 313 518T370 462T404 374T415 262ZM325 262Q325 306 320
342T304 405T275 446T232 461Q206 461 189 447T160 406T143 343T138 262Q138 218 143 182T159 119T188 79T232 64Q257 64 275 78T304 119T320 181T325 262ZM351 726L215 582L172 619L290 778L351 726Z" />
<glyph unicode="&#xf4;" glyph-name="ocircumflex" horiz-adv-x="463" d="M415 262Q415 200 404 150T371 63T314 7T232 -13Q185 -13 150 7T93 63T59 149T48 262Q48 323 59 374T92 461T150 518T232 538Q279 538 313 518T370 462T404 374T415 262ZM325 262Q325 306
320 342T304 405T275 446T232 461Q206 461 189 447T160 406T143 343T138 262Q138 218 143 182T159 119T188 79T232 64Q257 64 275 78T304 119T320 181T325 262ZM157 581L115 616L230 768L345 616L303 581L230 666L157 581Z" />
<glyph unicode="&#xf5;" glyph-name="otilde" horiz-adv-x="463" d="M415 262Q415 200 404 150T371 63T314 7T232 -13Q185 -13 150 7T93 63T59 149T48 262Q48 323 59 374T92 461T150 518T232 538Q279 538 313 518T370 462T404 374T415 262ZM325 262Q325 306 320
342T304 405T275 446T232 461Q206 461 189 447T160 406T143 343T138 262Q138 218 143 182T159 119T188 79T232 64Q257 64 275 78T304 119T320 181T325 262ZM359 721Q350 673 331 648T282 622Q265 622 251 629T224 645T202 661T181 668Q172 668 166 658T153 622L103
639Q111 687 131 712T180 738Q198 738 212 731T238 715T260 699T281 692Q290 692 296 702T309 738L359 721Z" />
<glyph unicode="&#xf6;" glyph-name="odieresis" horiz-adv-x="463" d="M415 262Q415 200 404 150T371 63T314 7T232 -13Q185 -13 150 7T93 63T59 149T48 262Q48 323 59 374T92 461T150 518T232 538Q279 538 313 518T370 462T404 374T415 262ZM325 262Q325 306
320 342T304 405T275 446T232 461Q206 461 189 447T160 406T143 343T138 262Q138 218 143 182T159 119T188 79T232 64Q257 64 275 78T304 119T320 181T325 262ZM148 618Q125 618 109 633T92 675Q92 701 108 716T148 732Q171 732 187 717T204 675Q204 649 188 634T148
618ZM314 618Q291 618 275 633T258 675Q258 701 274 716T314 732Q337 732 353 717T370 675Q370 649 354 634T314 618Z" />
<glyph unicode="&#xf7;" glyph-name="divide" horiz-adv-x="430" d="M43 336H387V263H43V336ZM272 453Q272 432 257 416T218 400Q194 400 180 416T165 453Q165 475 179 491T218 507Q242 507 257 491T272 453ZM272 148Q272 127 257 111T218 95Q194 95 180 111T165
148Q165 170 179 186T218 202Q242 202 257 186T272 148Z" />
<glyph unicode="&#xf8;" glyph-name="oslash" horiz-adv-x="463" d="M40 -4L86 73Q66 109 57 157T48 262Q48 323 59 374T92 461T150 518T232 538Q298 538 342 497L376 553L426 523L379 446Q397 411 406 364T415 262Q415 200 404 150T371 63T314 7T232 -13Q168
-13 125 24L90 -34L40 -4ZM138 262Q138 236 139 213T145 170L296 421Q274 461 232 461Q206 461 189 447T160 406T143 343T138 262ZM325 262Q325 308 319 346L170 98Q192 64 232 64Q257 64 275 78T304 119T320 181T325 262Z" />
<glyph unicode="&#xf9;" glyph-name="ugrave" horiz-adv-x="480" d="M403 15Q390 10 372 6T333 -2T292 -8T254 -11Q213 -11 179 -2T121 32T84 97T71 202V525H157V205Q157 128 180 97T252 65Q268 65 284 66T317 73V525H403V15ZM168 778L286 619L243 582L107 726L168 778Z" />
<glyph unicode="&#xfa;" glyph-name="uacute" horiz-adv-x="480" d="M403 15Q390 10 372 6T333 -2T292 -8T254 -11Q213 -11 179 -2T121 32T84 97T71 202V525H157V205Q157 128 180 97T252 65Q268 65 284 66T317 73V525H403V15ZM368 726L232 582L189 619L307 778L368 726Z" />
<glyph unicode="&#xfb;" glyph-name="ucircumflex" horiz-adv-x="480" d="M403 15Q390 10 372 6T333 -2T292 -8T254 -11Q213 -11 179 -2T121 32T84 97T71 202V525H157V205Q157 128 180 97T252 65Q268 65 284 66T317 73V525H403V15ZM167 581L125 616L240 768L355
616L313 581L240 666L167 581Z" />
<glyph unicode="&#xfc;" glyph-name="udieresis" horiz-adv-x="480" d="M403 15Q390 10 372 6T333 -2T292 -8T254 -11Q213 -11 179 -2T121 32T84 97T71 202V525H157V205Q157 128 180 97T252 65Q268 65 284 66T317 73V525H403V15ZM158 618Q135 618 119 633T102
675Q102 701 118 716T158 732Q181 732 197 717T214 675Q214 649 198 634T158 618ZM324 618Q301 618 285 633T268 675Q268 701 284 716T324 732Q347 732 363 717T380 675Q380 649 364 634T324 618Z" />
<glyph unicode="&#xfd;" glyph-name="yacute" horiz-adv-x="396" d="M199 109Q228 209 252 310T298 525H383Q368 452 351 381T315 244T278 120T243 13Q224 -43 207 -81T169 -143T124 -177T67 -188Q49 -188 31 -184T1 -174L17 -104Q43 -115 66 -115Q95 -115 113
-94T148 -31L158 -6Q139 46 120 109T82 242T46 383T15 525H106Q114 478 125 422T148 310T174 202T199 109ZM324 726L188 582L145 619L263 778L324 726Z" />
<glyph unicode="&#xfe;" glyph-name="thorn" horiz-adv-x="467" d="M163 -183H77V761L163 776V529Q177 533 192 535T225 538Q324 538 371 465T419 260Q419 127 377 57T238 -13Q215 -13 197 -9T163 4V-183ZM163 79Q192 63 225 63Q250 63 269 73T301 106T322 167T329
261Q329 369 302 415T214 462Q203 462 190 461T163 455V79Z" />
<glyph unicode="&#xff;" glyph-name="ydieresis" horiz-adv-x="396" d="M199 109Q228 209 252 310T298 525H383Q368 452 351 381T315 244T278 120T243 13Q224 -43 207 -81T169 -143T124 -177T67 -188Q49 -188 31 -184T1 -174L17 -104Q43 -115 66 -115Q95 -115
113 -94T148 -31L158 -6Q139 46 120 109T82 242T46 383T15 525H106Q114 478 125 422T148 310T174 202T199 109ZM114 618Q91 618 75 633T58 675Q58 701 74 716T114 732Q137 732 153 717T170 675Q170 649 154 634T114 618ZM280 618Q257 618 241 633T224 675Q224 701
240 716T280 732Q303 732 319 717T336 675Q336 649 320 634T280 618Z" />
<glyph unicode="&#x2013;" glyph-name="endash" horiz-adv-x="367" d="M-4 337H371V264H-4V337Z" />
<glyph unicode="&#x2014;" glyph-name="emdash" horiz-adv-x="742" d="M-4 337H746V264H-4V337Z" />
<glyph unicode="&#x2018;" glyph-name="quoteleft" horiz-adv-x="223" d="M57 520Q56 528 56 534T56 548Q56 605 74 657T123 758L184 740Q159 695 151 649T143 562Q143 551 143 541T145 520H57Z" />
<glyph unicode="&#x2019;" glyph-name="quoteright" horiz-adv-x="223" d="M166 750Q167 742 167 736T167 722Q167 665 149 613T100 512L39 530Q64 575 72 621T80 708Q80 719 80 729T78 750H166Z" />
<glyph unicode="&#x201a;" glyph-name="quotesinglbase" horiz-adv-x="223" d="M161 114Q162 106 162 100T162 86Q162 29 144 -23T95 -124L34 -106Q59 -61 67 -15T75 72Q75 83 75 93T73 114H161Z" />
<glyph unicode="&#x201c;" glyph-name="quotedblleft" horiz-adv-x="392" d="M62 520Q61 528 61 534T61 548Q61 605 79 657T128 758L189 740Q164 695 156 649T148 562Q148 551 148 541T150 520H62ZM231 520Q230 528 230 534T230 548Q230 605 248 657T297 758L358
740Q333 695 325 649T317 562Q317 551 317 541T319 520H231Z" />
<glyph unicode="&#x201d;" glyph-name="quotedblright" horiz-adv-x="391" d="M166 750Q167 742 167 736T167 722Q167 665 149 613T100 512L39 530Q64 575 72 621T80 708Q80 719 80 729T78 750H166ZM334 750Q335 742 335 736T335 722Q335 665 317 613T268 512L207
530Q232 575 240 621T248 708Q248 719 248 729T246 750H334Z" />
<glyph unicode="&#x201e;" glyph-name="quotedblbase" horiz-adv-x="391" d="M161 114Q162 106 162 100T162 86Q162 29 144 -23T95 -124L34 -106Q59 -61 67 -15T75 72Q75 83 75 93T73 114H161ZM329 114Q330 106 330 100T330 86Q330 29 312 -23T263 -124L202 -106Q227
-61 235 -15T243 72Q243 83 243 93T241 114H329Z" />
<glyph unicode="&#x2022;" glyph-name="bullet" horiz-adv-x="328" d="M278 353Q278 330 270 310T247 274T211 249T164 240Q138 240 117 249T81 273T58 309T50 353Q50 376 58 396T81 432T117 457T164 466Q190 466 211 457T247 433T270 397T278 353Z" />
<glyph unicode="&#x2039;" glyph-name="guilsinglleft" horiz-adv-x="264" d="M222 92L156 63L28 284L156 505L222 476L128 284L222 92Z" />
<glyph unicode="&#x203a;" glyph-name="guilsinglright" horiz-adv-x="264" d="M136 284L42 476L108 505L236 284L108 63L42 92L136 284Z" />
</font>
</defs>
</svg>
