<svg width="889" height="203" viewBox="0 0 889 203" fill="none" xmlns="http://www.w3.org/2000/svg">
<g clip-path="url(#clip0_380_150)">
<path d="M270.495 24.0183H236.72V177.738H270.495V147.121L283.127 133.956L311.404 177.738H349.831L306.055 110.158L348.189 66.2816H306.484L270.495 104.821V24.0183Z" fill="#26282D"/>
<path d="M620.308 32.1535H586.93V66.2816H567.584V93.8065H586.93V152.467C586.93 160.67 589.016 167.053 593.409 171.373C597.797 175.69 604.273 177.738 612.598 177.738H641.837V150.808H620.308V93.8065H641.837V66.2816H620.308V32.1535Z" fill="#26282D"/>
<path fill-rule="evenodd" clip-rule="evenodd" d="M401.38 64.2974C384.895 64.2974 371.554 69.3887 361.49 79.6567L361.481 79.6659C351.543 90.0116 346.644 104.18 346.644 122.01C346.644 139.641 351.477 153.737 361.274 164.146C371.086 174.572 384.644 179.722 401.777 179.722C415.736 179.722 427.512 176.431 437.026 169.771L437.033 169.766L437.04 169.761C446.549 162.901 452.486 153.833 454.801 142.602L455.113 141.086H421.994L421.71 141.955C420.558 145.47 418.227 148.315 414.621 150.492C411.086 152.6 406.758 153.685 401.579 153.685C395.278 153.685 390.311 151.942 386.554 148.557C382.807 145.115 380.915 140.637 380.915 135.006V130.415H453.099L453.231 129.3C453.765 124.756 454.033 120.309 454.033 115.958C454.033 100.018 449.215 87.3889 439.456 78.2392C429.916 68.9091 417.177 64.2974 401.38 64.2974ZM386.332 95.0866C389.953 91.9565 394.794 90.3341 400.983 90.3341C406.97 90.3341 411.681 91.9212 415.239 94.9885L415.248 94.996L415.257 95.0034C418.857 97.9929 420.655 101.896 420.655 106.831V107.553H380.915V107.227C380.915 102.149 382.722 98.1458 386.323 95.0946L386.332 95.0866Z" fill="#26282D"/>
<path fill-rule="evenodd" clip-rule="evenodd" d="M512.297 64.2974C498.164 64.2974 486.817 67.4454 478.394 73.8824L478.39 73.8855C469.984 80.3622 465.795 89.3442 465.795 100.68C465.795 109.53 468.566 116.784 474.183 122.314C479.768 127.813 488.051 131.493 498.875 133.47L498.886 133.472L518.26 136.651L518.276 136.653C521.528 137.1 523.952 137.977 525.644 139.203L525.653 139.209L525.661 139.215C527.209 140.299 528.275 142.331 528.595 145.679C528.58 148.685 527.387 150.953 524.973 152.619L524.961 152.627C522.549 154.334 518.945 155.273 513.983 155.273C508.534 155.273 504.444 154.086 501.564 151.869C498.812 149.7 497.388 146.589 497.388 142.348V141.086H464.109V142.348C464.109 153.714 468.586 162.851 477.503 169.642L477.507 169.645C486.46 176.411 498.6 179.722 513.785 179.722C528.637 179.722 540.51 176.512 549.265 169.946C558.136 163.343 562.568 154.161 562.568 142.546C562.568 133.399 559.951 126.003 554.596 120.509C549.264 115.038 541.356 111.595 531.045 110.048L531.036 110.047L512.287 106.972L512.272 106.97C509.945 106.646 508.353 106.419 507.488 106.287C506.801 106.11 505.901 105.782 504.773 105.281C503.717 104.811 502.667 104.126 501.625 103.207C500.141 101.887 499.372 100.13 499.372 97.8026C499.372 94.8557 500.436 92.7068 502.524 91.1829C504.676 89.6125 507.816 88.7468 512.098 88.7468C517.016 88.7468 520.504 89.7558 522.768 91.5699C524.986 93.3471 526.221 96.0533 526.313 99.9163L526.343 101.148H559.533L559.492 99.8463C559.15 88.9638 554.745 80.2697 546.296 73.8804C537.872 67.4441 526.493 64.2974 512.297 64.2974ZM548.508 168.936L549.265 169.946L549.262 169.948L548.508 168.936ZM500.788 152.864L501.559 151.864L501.564 151.869L501.569 151.872L500.788 152.864ZM529.857 145.622L528.6 145.738L528.595 145.679L528.595 145.622H529.857Z" fill="#26282D"/>
<path fill-rule="evenodd" clip-rule="evenodd" d="M779.369 64.2974C764.636 64.2974 752.703 67.6126 743.691 74.3707C734.698 81.0986 729.785 90.7144 728.902 103.07L728.806 104.422H761.79L761.877 103.254C762.187 99.0993 763.685 96.0404 766.279 93.918L766.281 93.9161C768.958 91.7155 772.802 90.5325 777.98 90.5325C783.19 90.5325 786.863 91.7798 789.236 94.0515C791.599 96.3132 792.889 99.7973 792.889 104.747V109.835H765.381C752.938 109.835 742.927 112.931 735.494 119.263C728.096 125.555 724.435 134.195 724.435 145.026C724.435 155.493 727.674 163.977 734.244 170.339L734.253 170.348C740.886 176.635 749.721 179.722 760.619 179.722C768.928 179.722 776.283 178.032 782.645 174.611L782.655 174.606C788.445 171.431 792.556 167.245 794.888 162.035L795.188 163.88L795.191 163.897C796.025 168.626 798.008 172.239 801.262 174.531L801.27 174.537L801.278 174.542C804.504 176.742 809.38 177.738 815.68 177.738H839.76V153.685H826.367V105.343C826.367 93.9896 822.583 84.2855 815.014 76.3047C807.531 68.2029 795.541 64.2974 779.369 64.2974ZM758.309 140.264C758.309 137.079 759.377 134.866 761.388 133.396C763.473 131.872 766.754 131.01 771.432 131.01H792.889V133.617C792.889 139.953 790.968 144.859 787.226 148.481C783.481 152.04 778.333 153.884 771.631 153.884C766.889 153.884 763.561 152.998 761.445 151.429C759.399 149.911 758.309 147.623 758.309 144.332V140.264Z" fill="#26282D"/>
<path d="M685.616 66.2816C674.159 66.2816 666.183 69.2923 662.4 75.8411C660.761 78.6409 659.617 81.403 658.989 84.1255L658.986 84.1374L658.983 84.1493C658.43 86.7765 658.163 89.9786 658.163 93.735V177.738H691.541V93.8065H723.883V66.2816H685.616Z" fill="#26282D"/>
<path d="M861.875 177.83C858.279 177.83 855.299 176.689 852.933 174.406C850.662 172.024 849.526 169.097 849.526 165.623C849.526 162.149 850.662 159.271 852.933 156.989C855.299 154.607 858.279 153.416 861.875 153.416C865.377 153.416 868.263 154.607 870.534 156.989C872.805 159.271 873.941 162.149 873.941 165.623C873.941 169.097 872.805 172.024 870.534 174.406C868.263 176.689 865.377 177.83 861.875 177.83Z" fill="#F62E76"/>
<path d="M0 23.5192C0 11.0534 10.1055 0.947876 22.5713 0.947876H179.334C191.8 0.947876 201.905 11.0534 201.905 23.5192V180.282C201.905 192.747 191.8 202.853 179.334 202.853H22.5713C10.1055 202.853 0 192.747 0 180.282V23.5192Z" fill="#2C0059"/>
<path d="M95.9938 85.6871C98.7319 82.9489 103.171 82.9489 105.91 85.6871L117.165 96.9427C119.903 99.6809 119.903 104.12 117.165 106.859L105.91 118.114C103.171 120.852 98.7319 120.852 95.9938 118.114L84.7381 106.859C81.9999 104.12 81.9999 99.6809 84.7381 96.9427L95.9938 85.6871Z" fill="#A950FF"/>
<path d="M147.835 85.5974C150.525 82.9082 154.885 82.9082 157.574 85.5974L169.007 97.0304C171.696 99.7196 171.696 104.08 169.007 106.769L157.574 118.202C154.885 120.891 150.525 120.891 147.835 118.202L136.402 106.769C133.713 104.08 133.713 99.7196 136.402 97.0304L147.835 85.5974Z" fill="#A950FF"/>
<path d="M96.0825 33.846C98.7717 31.1568 103.132 31.1568 105.821 33.846L117.254 45.279C119.943 47.9682 119.943 52.3283 117.254 55.0175L105.821 66.4505C103.132 69.1398 98.7717 69.1398 96.0825 66.4506L84.6494 55.0175C81.9602 52.3283 81.9602 47.9682 84.6494 45.279L96.0825 33.846Z" fill="#E9C1FF"/>
<path d="M91.2914 71.0668C94.0296 73.805 94.0296 78.2445 91.2914 80.9827L80.0357 92.2383C77.2975 94.9765 72.858 94.9765 70.1199 92.2383L58.8642 80.9827C56.126 78.2445 56.126 73.805 58.8642 71.0668L70.1199 59.8111C72.8581 57.0729 77.2976 57.0729 80.0358 59.8111L91.2914 71.0668Z" fill="#CD88FF"/>
<path d="M65.5026 97.0304C68.1918 99.7196 68.1918 104.08 65.5026 106.769L54.0695 118.202C51.3803 120.891 47.0203 120.891 44.331 118.202L32.898 106.769C30.2088 104.08 30.2088 99.7196 32.898 97.0304L44.3311 85.5974C47.0203 82.9081 51.3803 82.9081 54.0695 85.5974L65.5026 97.0304Z" fill="#A950FF"/>
<path d="M143.042 71.0668C145.78 73.805 145.78 78.2445 143.042 80.9827L131.787 92.2383C129.048 94.9765 124.609 94.9765 121.871 92.2383L110.615 80.9827C107.877 78.2445 107.877 73.805 110.615 71.0668L121.871 59.8111C124.609 57.0729 129.048 57.0729 131.787 59.8111L143.042 71.0668Z" fill="#CD88FF"/>
<path d="M112.029 144.988C118.146 151.106 118.146 161.024 112.029 167.141C105.912 173.259 95.9934 173.259 89.876 167.141C83.7586 161.024 83.7586 151.106 89.876 144.988C95.9934 138.871 105.912 138.871 112.029 144.988Z" fill="#F62E76"/>
</g>
<defs>
<clipPath id="clip0_380_150">
<rect width="889" height="202" fill="white" transform="translate(0 0.947876)"/>
</clipPath>
</defs>
</svg>
