<svg xmlns="http://www.w3.org/2000/svg" width="24" viewBox="0 0 1484.3 1348.5"><path fill="#364AFF" d="M228.4 198.4s-44-158.2 40.4-192.7 195 97.6 195 97.6 314-65.4 534 0c0 0 122.2-105.6 214.7-80.3 99.9 27.3 32.7 181.4 32.7 181.4s228.4 384.1 239 737.3c0 0-346 346.1-746.8 406.8 0 0-527.5-106.4-737.4-449.6 0 0-8.3-296.1 228.4-700.5Z"/><path fill="#fff" d="M743 467.3s-261.8-18-285.8 402c0 0-19 182 304.8 178.3 244-2.8 260.5-118.6 266.4-182 5.8-62.4-75.2-397.4-285.5-398.4Z"/><path fill="#364AFF" d="M752.2 789s144 5.9 116.6 94-119 83.2-119 83.2-96.3 0-134.4-95.2c-28.8-72.1 136.8-82 136.8-82Z"/></svg>