<svg xmlns="http://www.w3.org/2000/svg" width="200" height="200"><path fill="#364aff" d="M30.8 29.4S24.8 6 36.2 1c11.4-5.2 26.3 14.4 26.3 14.4s42.3-9.7 72 0c0 0 16.4-15.6 28.9-11.9 13.5 4 4.4 27 4.4 27s30.8 56.9 32.2 109.3c0 0-46.6 51.3-100.6 60.3 0 0-71.1-15.8-99.4-66.7 0 0-1.1-43.9 30.8-103.9z"/><path fill="#fff" d="M100.1 69.3S64.8 66.6 61.6 129c0 0-2.5 27 41 26.5 33-.4 35.2-17.6 36-27 .8-9.3-10.2-59-38.5-59.1z"/><path fill="#364aff" d="M101.4 117s19.4.9 15.7 14c-3.7 13-16 12.3-16 12.3s-13 0-18.2-14.1C79 118.5 101.4 117 101.4 117z"/></svg>