<svg xmlns="http://www.w3.org/2000/svg" width="200" height="200" viewBox="0 0 200 200" fill="none">
	<rect width="200" height="200" rx="30" fill="#4422dd" />
	<path fill-rule="evenodd" clip-rule="evenodd" d="M148.883 112.106C148.124 111.916 147.491 111.726 146.921 111.473C146.5 111.286 146.148 111.064 145.839 110.807C145.635 110.637 145.547 110.369 145.572 110.104C145.877 106.923 145.541 104.118 145.845 100.964C147.111 88.1771 155.15 92.2285 162.367 90.1395C166.511 88.9722 170.655 86.6747 172.169 82.1555C172.417 81.4157 172.199 80.6114 171.684 80.0255C166.956 74.6505 161.723 69.9012 156.037 65.831C136.973 52.2582 112.197 46.6221 89.4444 49.9189C88.5825 50.0438 88.1307 50.9987 88.6016 51.7314C91.4833 56.2156 95.2849 59.8853 99.6447 62.5864C100.437 63.0773 100.119 64.1376 99.2092 63.9337C97.0711 63.4543 94.3238 62.5194 91.7401 60.6961C91.4911 60.5204 91.1704 60.4762 90.8873 60.5891C89.7323 61.0497 88.0643 61.7139 86.6859 62.3089C85.8925 62.6514 85.731 63.6747 86.3841 64.2407C97.8122 74.1467 114.437 75.6526 127.455 67.7254C128.248 67.2425 129.518 68.2348 129.262 69.1275C128.853 70.5574 128.375 72.523 127.867 75.1999C124.638 91.5322 115.332 90.2661 103.811 86.1514C80.7898 77.8076 67.7294 84.9328 56.1177 70.8281C55.3109 69.8481 53.8925 69.5083 52.9328 70.3392C50.5358 72.4145 49.1172 75.4437 49.1172 78.6816C49.1172 82.5166 51.0968 85.8018 54.0311 87.7682C54.3981 88.0142 54.8858 87.9102 55.1598 87.5636C55.8748 86.6586 56.4597 86.0587 57.1881 85.6794C57.9852 85.2641 58.374 86.4045 57.701 87.0003C55.2349 89.1839 54.527 91.7851 52.9154 96.913C50.3832 104.952 51.4594 113.182 39.6217 115.334C33.3546 115.651 33.4812 119.892 31.2023 126.222C28.5575 133.863 25.0942 137.247 18.6844 143.924C17.8078 144.837 17.7326 146.297 18.696 147.118C21.2564 149.301 23.8969 149.421 26.5812 148.315C33.228 145.53 38.3556 136.921 43.1666 131.35C48.5474 125.146 61.4613 127.805 71.21 121.728C76.4677 118.504 79.6266 114.386 78.6164 108.217C78.4537 107.224 79.5906 106.626 80.0029 107.545C80.7856 109.289 81.2988 111.149 81.5121 113.071C81.5681 113.575 82.0184 113.947 82.5245 113.919C93.0718 113.326 106.711 124.959 119.458 128.107C120.233 128.299 120.784 127.403 120.346 126.736C119.539 125.507 118.854 124.233 118.308 122.931C117.744 121.578 117.317 120.265 117.015 118.998C116.778 118.007 118.226 117.741 118.721 118.632C121.99 124.524 128.523 130.057 137.615 130.717C140.717 130.97 144.136 130.59 147.681 129.514C151.922 128.248 155.847 126.602 160.531 127.488C164.013 128.122 167.241 129.894 169.267 132.869C172.11 137.015 178.11 138.113 181.308 133.781C181.743 133.191 181.78 132.403 181.492 131.729C174.45 115.223 156.569 114.089 148.883 112.106Z" fill="white" />
</svg>
