
<svg xmlns="http://www.w3.org/2000/svg" width="367" height="277" fill="none" viewBox="0 0 367 277"><path fill="#fff" fill-rule="evenodd" d="M52.114 0H87.64c14.753 0 26.712 11.96 26.712 26.712v103.641h69.45v37.396h-80.135c-14.752 0-26.711-11.959-26.711-26.711V37.396H52.114V0ZM323.77 26.712v27.78h-37.396V37.396h-29.383V167.75h-37.396V37.396h-29.383v17.096h-37.396v-27.78C152.817 11.959 164.776 0 179.528 0H297.06c14.752 0 26.711 11.96 26.711 26.712Z" clip-rule="evenodd"/><path fill="#5EB5FF" d="M34.778 268.051 0 243.21c10.217-14.304 20.757-25.37 31.846-33.133 12.326-8.628 25.423-13.212 38.966-13.212 12.576 0 23.468 3.05 33.199 8.888 3.926 2.356 7.532 5.073 11.178 8.29 2.514 2.218 4.31 3.959 8.13 7.779 5.791 5.791 8.197 7.914 11.076 9.641 3.124 1.875 6.423 2.798 11.21 2.798 4.792 0 8.104-.926 11.245-2.807 2.893-1.732 5.319-3.868 11.108-9.646l.053-.053c3.802-3.795 5.615-5.549 8.13-7.763 3.641-3.206 7.241-5.915 11.158-8.263 9.711-5.821 20.572-8.864 33.099-8.864 12.527 0 23.387 3.043 33.098 8.864 3.917 2.348 7.517 5.057 11.159 8.263 2.514 2.214 4.328 3.968 8.129 7.763l.053.053c5.789 5.778 8.215 7.914 11.109 9.646 3.14 1.881 6.452 2.807 11.244 2.807 4.265 0 8.975-1.648 14.457-5.486 6.719-4.703 13.987-12.334 21.578-22.961l34.778 24.841c-10.217 14.304-20.757 25.37-31.847 33.133C321.831 272.416 308.733 277 295.19 277c-12.57 0-23.465-3.047-33.203-8.879-3.929-2.354-7.541-5.069-11.192-8.283-2.522-2.22-4.34-3.978-8.15-7.781l-.053-.053c-5.775-5.764-8.193-7.893-11.07-9.618-3.112-1.865-6.385-2.782-11.124-2.782-4.74 0-8.013.917-11.125 2.782-2.877 1.725-5.295 3.854-11.07 9.618l-.053.053c-3.809 3.803-5.628 5.561-8.15 7.781-3.651 3.214-7.262 5.929-11.192 8.283-9.738 5.832-20.632 8.879-33.203 8.879-12.575 0-23.467-3.05-33.199-8.888-3.926-2.356-7.532-5.073-11.178-8.29-2.514-2.218-4.31-3.959-8.13-7.779-5.79-5.791-8.196-7.914-11.076-9.641-3.124-1.875-6.422-2.798-11.21-2.798-4.264 0-8.974 1.648-14.457 5.486-6.718 4.703-13.986 12.334-21.577 22.961Z"/></svg>