<svg xmlns="http://www.w3.org/2000/svg" width="611" height="269" viewBox="0 0 611 269" fill="none">
<circle cx="576" cy="135.44" r="86" stroke="url(#paint0_linear_88_2374)" stroke-opacity="0.4" stroke-width="2"/>
<path opacity="0.7" d="M14 137.44L125 137.44" stroke="url(#paint1_linear_88_2374)" stroke-width="1.5" stroke-linecap="round"/>
<path fill-rule="evenodd" clip-rule="evenodd" d="M139.752 137.042C138.464 137.174 137.207 137.303 136 137.44C137.207 137.577 138.464 137.706 139.752 137.838C149.037 138.792 159.929 139.911 165.229 145.211C170.529 150.511 171.648 161.401 172.601 170.685C172.734 171.974 172.863 173.232 173 174.44C173.137 173.232 173.266 171.974 173.399 170.685C174.352 161.401 175.471 150.511 180.771 145.211C186.071 139.911 196.963 138.792 206.248 137.838C207.536 137.706 208.793 137.577 210 137.44C208.793 137.303 207.536 137.174 206.248 137.042C196.963 136.088 186.071 134.969 180.771 129.669C175.471 124.369 174.352 113.479 173.399 104.195C173.266 102.906 173.137 101.648 173 100.44C172.863 101.648 172.734 102.906 172.601 104.195C171.648 113.479 170.529 124.369 165.229 129.669C159.929 134.969 149.037 136.088 139.752 137.042Z" fill="white"/>
<path d="M442.081 165.399C428.291 165.399 418.389 155.126 418.389 140.967C418.389 126.9 428.291 116.72 441.711 116.72C455.13 116.72 465.125 126.9 465.125 140.967C465.125 141.707 465.032 142.818 464.94 143.743H429.032C430.05 151.332 435.417 156.607 442.451 156.607C447.449 156.607 452.076 153.923 454.39 149.944L462.719 155.311C458.554 161.327 450.503 165.399 442.081 165.399ZM429.495 135.877H454.019C452.354 129.676 447.634 125.511 441.711 125.511C435.788 125.511 431.16 129.676 429.495 135.877Z" fill="white"/>
<path d="M397.904 165.243V117.933H408.637V167.78C408.637 174.316 407.368 179.097 404.734 181.927C401.709 185.341 397.514 187 392.148 187L389.221 177.341C392.441 177.341 394.685 176.463 395.953 174.707C397.221 172.853 397.904 169.731 397.904 165.243Z" fill="white"/>
<path d="M409.992 100.847C409.992 104.571 406.973 107.59 403.249 107.59C399.525 107.59 396.507 104.571 396.507 100.847C396.507 97.1231 399.525 94.1043 403.249 94.1043C406.973 94.1043 409.992 97.1231 409.992 100.847Z" fill="white"/>
<path d="M478.009 99.4133H488.745V117.923H498.092V126.715H488.745V164.196H478.009V126.715H470.451V117.923H478.009V99.4133Z" fill="white"/>
<path fill-rule="evenodd" clip-rule="evenodd" d="M249.092 164.196L257.772 146.625H290.768L299.342 164.196H310.538L274.269 90L238 164.196H249.092ZM262.269 137.435L274.269 112.982L286.269 137.435H262.269Z" fill="white"/>
<path d="M387.62 133.723C384.261 129.44 380.205 125.967 372.63 125.967C364.764 125.967 359.026 132.267 359.026 141.059C359.026 149.759 364.764 156.144 372.63 156.144C380.205 156.144 384.261 152.591 387.62 148.317V160.491C383.585 163.582 378.445 165.399 372.63 165.399C358.655 165.399 348.568 155.126 348.568 141.059C348.568 126.9 358.655 116.719 372.63 116.719C378.426 116.719 383.592 118.482 387.62 121.555V133.723Z" fill="white"/>
<path d="M327.479 164.196H316.77V117.945H327.479V122.377C329.542 120.065 331.259 118.714 332.654 118.057C334.304 117.279 336.129 116.777 338.27 116.777C340.412 116.777 344.029 117.653 347.046 119.503L342.179 129.238C340.135 127.778 338.188 127.096 336.241 127.096C330.4 127.096 327.479 131.477 327.479 140.239V164.196Z" fill="white"/>
<defs>
<linearGradient id="paint0_linear_88_2374" x1="563" y1="135.44" x2="463.206" y2="135.44" gradientUnits="userSpaceOnUse">
<stop stop-color="white"/>
<stop offset="0.479462" stop-color="white" stop-opacity="0.24"/>
<stop offset="1" stop-color="white" stop-opacity="0"/>
</linearGradient>
<linearGradient id="paint1_linear_88_2374" x1="14" y1="138.291" x2="119.604" y2="138.291" gradientUnits="userSpaceOnUse">
<stop stop-color="white" stop-opacity="0"/>
<stop offset="0.614583" stop-color="white" stop-opacity="0.34375"/>
<stop offset="0.838542" stop-color="white" stop-opacity="0.545673"/>
<stop offset="1" stop-color="white"/>
</linearGradient>
</defs>
</svg>