
<svg width="500" height="62" viewBox="0 0 500 62" fill="none" xmlns="http://www.w3.org/2000/svg">
<path fill-rule="evenodd" clip-rule="evenodd" d="M93.0578 0H101.918C101.9 7.56173 101.918 14.7077 101.97 22.2693C105.483 18.628 109.791 16.8508 114.895 16.9378C120.189 16.8952 124.862 18.5505 128.914 21.9034C132.741 25.5912 134.913 30.1037 135.428 35.4412C136.18 41.2349 135.138 46.671 132.301 51.7493C128.695 57.2448 123.605 60.3287 117.031 61.0009C112.204 61.5389 107.792 60.4586 103.794 57.7602C103.156 57.257 102.548 56.7168 101.97 56.1399C101.918 57.6378 101.9 59.1363 101.918 60.6351H93.0578V46.4178C93.5587 43.3221 94.9832 40.7434 97.3313 38.6819C94.957 36.6721 93.5325 34.1284 93.0578 31.0505V0ZM111.82 24.7782C119.282 24.5024 123.92 27.9871 125.735 35.2321C126.466 38.8811 126.153 42.4355 124.797 45.8951C122.104 51.35 117.708 53.8067 111.611 53.2651C107.399 52.9021 104.255 50.8984 102.178 47.2541C101.844 46.0348 101.497 44.8152 101.136 43.5952C100.406 41.6257 99.2072 40.0054 97.5398 38.7342C99.8148 36.8727 101.222 34.4858 101.761 31.5732C103.024 28.6346 105.16 26.631 108.172 25.5623C109.377 25.1811 110.593 24.9198 111.82 24.7782Z" fill="white"/>
<path d="M468.713 0H459.853C459.836 11.1858 459.853 22.3714 459.905 33.557C460.364 36.6739 461.771 39.2525 464.127 41.2929C461.771 43.3333 460.364 45.9118 459.905 49.0287C459.853 53.0359 459.836 57.0432 459.853 61.0507H468.713C468.731 57.0781 468.713 53.1057 468.661 49.1333C468.233 45.9729 466.825 43.3594 464.44 41.2929C466.141 39.811 467.374 37.9991 468.14 35.8568C468.576 34.2795 469.063 32.7114 469.599 31.1526C471.611 26.6578 475.085 24.3928 480.022 24.3576C482.93 24.2492 485.432 25.19 487.527 27.1801C489.547 29.7393 490.555 32.6664 490.55 35.9614C490.602 44.3244 490.62 52.6875 490.602 61.0507H499.983C500.031 51.6755 499.979 42.3019 499.826 32.9298C499.661 31.229 499.348 29.5564 498.888 27.9119C497.762 23.7875 495.381 20.6339 491.748 18.4511C488.173 16.6468 484.387 15.915 480.387 16.2558C475.604 16.6067 471.73 18.6452 468.765 22.3713C468.713 14.9143 468.695 7.45719 468.713 0Z" fill="white"/>
<path d="M432.685 48.9195V25.027H425.036V16.8623H432.685V4.57233H442.053V16.8623H452.796V25.027H442.053V47.9741C442.053 51.4118 443.256 52.701 446.78 52.701H453.311V60.8657H444.717C436.294 60.8657 432.685 56.9122 432.685 48.9195Z" fill="white"/>
<path d="M226.002 60.6327C212.681 60.6327 204.172 51.9524 204.172 38.2013C204.172 24.6222 212.939 15.5981 226.26 15.5981C237.605 15.5981 244.652 21.872 246.457 31.8415H236.745C235.542 26.6848 231.846 23.5049 226.088 23.5049C218.611 23.5049 213.712 29.521 213.712 38.2013C213.712 46.7957 218.611 52.7259 226.088 52.7259C231.76 52.7259 235.542 49.46 236.659 44.3893H246.457C244.738 54.3588 237.261 60.6327 226.002 60.6327Z" fill="white"/>
<path fill-rule="evenodd" clip-rule="evenodd" d="M199.194 52.0383H201.085V60.1171H196.186C190.17 60.1171 188.107 57.4528 188.107 53.0697C185.185 57.5387 180.716 60.6327 173.583 60.6327C163.957 60.6327 157.254 55.9058 157.254 47.7411C157.254 38.717 163.785 33.6463 176.075 33.6463H187.162V30.982C187.162 26.0832 183.638 23.0752 177.536 23.0752C172.036 23.0752 168.34 25.6535 167.653 29.521H158.543C159.488 20.9266 166.879 15.5981 177.966 15.5981C189.654 15.5981 196.358 21.1844 196.358 31.5836V49.2022C196.358 51.4367 197.304 52.0383 199.194 52.0383ZM187.162 42.0688V40.5218H175.646C169.887 40.5218 166.707 42.6704 166.707 47.1395C166.707 50.8351 169.801 53.4134 174.872 53.4134C182.607 53.4134 187.076 48.8584 187.162 42.0688Z" fill="white"/>
<path d="M299.159 45.5925H290.049C290.307 55.1323 298.386 60.6327 310.16 60.6327C320.817 60.6327 328.81 55.3042 328.81 46.8817C328.81 37.0841 320.645 35.0214 310.59 33.8182C304.23 33.1306 300.019 32.615 300.019 28.4896C300.019 24.9659 303.628 22.7314 309.129 22.7314C314.629 22.7314 318.411 25.5676 318.926 29.6069H328.036C327.435 20.5828 319.786 15.598 308.957 15.598C298.386 15.5121 290.909 20.9266 290.909 29.2631C290.909 38.3732 298.816 40.5218 308.871 41.725L309.545 41.81C315.927 42.6125 319.7 43.0869 319.7 47.6552C319.7 51.1789 315.918 53.4134 310.16 53.4134C303.457 53.4134 299.503 50.1475 299.159 45.5925Z" fill="white"/>
<path d="M150.551 0H141.736V31.7437C141.736 35.377 143.369 38.7982 146.144 40.9782C143.369 43.1582 141.736 46.5794 141.736 50.2127V60.6016H150.551V50.2127C150.551 46.5794 148.918 43.1582 146.144 40.9782C148.918 38.7982 150.551 35.377 150.551 31.7437V0Z" fill="white"/>
<path d="M409.901 16.8345H418.715V31.8426C418.715 35.4759 417.083 38.8972 414.308 41.0772C411.534 38.8972 409.901 35.4759 409.901 31.8426V16.8345Z" fill="white"/>
<path d="M414.308 41.0772C417.083 43.2571 418.715 46.6784 418.715 50.3117V60.7005H409.901V50.3117C409.901 46.6784 411.534 43.2571 414.308 41.0772Z" fill="white"/>
<path d="M262.398 0H253.584L253.514 24.0881C253.514 27.7214 255.147 31.3505 257.922 33.5304C255.147 35.7104 253.514 38.9238 253.514 42.5571L253.584 60.6016H262.398L262.329 42.5571C262.329 38.9238 260.696 35.7104 257.922 33.5304C260.696 31.3505 262.329 27.7214 262.329 24.0881L262.398 0Z" fill="white"/>
<path d="M276.675 16.2241C280.359 16.1892 284.042 16.2241 287.724 16.3286C282.257 22.3171 276.733 28.2584 271.151 34.1525C276.581 42.2157 281.993 50.3353 287.389 58.4297L287.392 58.4343L287.402 58.4496L288.766 60.4963H277.718C275.533 57.282 273.362 54.0588 271.203 50.8264C267.716 45.0332 264.189 39.2661 260.624 33.5252C266.034 27.8033 271.385 22.0362 276.675 16.2241Z" fill="white"/>
<path d="M414.308 11.4341C417.351 11.4341 419.817 8.96756 419.817 5.9249C419.817 2.88223 417.351 0.415667 414.308 0.415667C411.265 0.415667 408.799 2.88223 408.799 5.9249C408.799 8.96756 411.265 11.4341 414.308 11.4341Z" fill="white"/>
<path d="M354.895 16.2542C358.451 16.0176 361.791 16.753 364.916 18.4605C366.963 19.8309 368.582 21.5925 369.773 23.7452C372.505 19.6097 376.34 17.1982 381.276 16.5107C385.58 15.8328 389.67 16.4827 393.546 18.4605C396.922 20.6189 399.121 23.6461 400.141 27.5421C400.706 29.7642 401.012 32.0218 401.061 34.3148C401.112 43.1056 401.13 51.8964 401.112 60.6873H391.399C391.437 51.4511 391.386 42.2156 391.245 32.9808C390.978 30.5307 390.041 28.3929 388.433 26.5672C386.896 25.1403 385.072 24.4391 382.963 24.4636C377.949 24.5997 374.711 27.0625 373.249 31.852C372.758 33.7694 372.553 35.7191 372.636 37.7011C372.585 45.3631 372.567 53.0252 372.585 60.6873H362.871C362.888 52.2385 362.871 43.7897 362.82 35.3409C362.847 32.7158 362.234 30.253 360.979 27.9525C358.681 24.9256 355.664 23.8482 351.93 24.7201C349.246 25.3215 347.218 26.8095 345.846 29.1839C344.889 30.9043 344.378 32.7514 344.312 34.7252C343.658 37.2555 342.345 39.3591 340.375 41.0362C342.935 43.1807 344.35 45.9343 344.619 49.2968C344.67 53.0935 344.687 56.8903 344.67 60.6873H335.876C335.859 56.822 335.876 52.9567 335.928 49.0916C336.256 45.8143 337.671 43.1293 340.171 41.0362C337.934 39.1303 336.554 36.7188 336.03 33.8017C335.88 28.1604 335.829 22.5165 335.876 16.8699H344.67C344.653 18.2386 344.67 19.6068 344.721 20.9746C347.517 18.1096 350.908 16.5361 354.895 16.2542Z" fill="white"/>
<path d="M0.509564 10.8453C-1.07569 7.67952 1.2298 3.95471 4.77453 3.95471H69.2141C72.7589 3.95471 75.0643 7.67952 73.4791 10.8453L66.3265 25.1291C65.5188 26.7422 63.8677 27.7611 62.0616 27.7611H11.9271C10.121 27.7611 8.46986 26.7422 7.66213 25.1291L0.509564 10.8453Z" fill="white"/>
<path d="M55.5976 49.4381C57.1828 52.6039 54.8773 56.3287 51.3326 56.3287L22.6559 56.3287C19.1111 56.3287 16.8056 52.6039 18.3909 49.4381L25.5435 35.1543C26.3512 33.5413 28.0023 32.5224 29.8084 32.5224H44.18C45.9861 32.5224 47.6373 33.5413 48.445 35.1543L55.5976 49.4381Z" fill="white"/>
</svg>
