
<svg fill="none" height="30" viewBox="0 0 147 30" width="147" xmlns="http://www.w3.org/2000/svg"><g fill="#fff"><path clip-rule="evenodd" d="m62.0651 18.1241c.3096-.7949.465-1.7173.465-2.7658 0-1.049-.1579-1.9712-.4741-2.7664-.3159-.7956-.7492-1.4645-1.2991-2.0065-.5501-.5421-1.1938-.94843-1.931-1.21958-.7376-.2714-1.5217-.4071-2.3524-.4071-.8077 0-1.5775.1357-2.3086.4071-.7318.27115-1.3757.67748-1.9312 1.21958-.556.542-.9981 1.2109-1.3256 2.0065-.3277.7952-.4917 1.7174-.4917 2.7664 0 1.0485.1583 1.9709.4743 2.7658.3161.7957.7487 1.4616 1.2991 1.9974.5498.5367 1.1938.94 1.9312 1.2109.7374.2714 1.5213.4069 2.3525.4069.854 0 1.6531-.1355 2.3961-.4069.7431-.2709 1.3841-.6742 1.9224-1.2109.5381-.5358.9626-1.2017 1.2731-1.9974zm-8.6027-1.1399c-.1463-.4832-.2193-1.0253-.2193-1.6259 0-.5893.073-1.1284.2193-1.6178.1463-.4889.3571-.9071.6323-1.2546.2745-.3478.6113-.6189 1.0095-.8135.3976-.1942.854-.2914 1.3693-.2914.503 0 .9566.0942 1.3607.2828.4033.1881.7431.4565 1.0178.804.2749.3481.486.766.6323 1.2549.1463.4892.2195 1.0342.2195 1.6356 0 .6006-.0732 1.1427-.2195 1.6259-.1463.4834-.3574.8987-.6323 1.2462-.2747.348-.6145.6157-1.0178.8041-.4041.1891-.8577.2835-1.3607.2835-.5153 0-.9717-.0944-1.3693-.2835-.3982-.1884-.735-.4561-1.0095-.8041-.2752-.3475-.486-.7628-.6323-1.2462z" fill-rule="evenodd"/><path d="m69.4167 19.3884c.3862 0 .705-.0321.9567-.0974.2516-.0645.4536-.1527.6056-.2654.1519-.1115.2575-.244.3162-.3972.0586-.153.0878-.3241.0878-.5127 0-.4004-.1875-.7338-.5619-.9986-.3746-.2654-1.0182-.5509-1.931-.8579-.3981-.1409-.7961-.3033-1.194-.4857s-.7549-.4123-1.0708-.6894c-.3157-.2768-.5734-.6127-.7723-1.0079-.1991-.3945-.2985-.8745-.2985-1.4403s.1053-1.0754.3159-1.529c.2109-.4538.5092-.8394.8956-1.15802.3861-.31835.854-.56231 1.4041-.7336.5502-.17055 1.1703-.25657 1.8611-.25657.8191 0 1.5274.08898 2.1244.26546.5965.17673 1.0882.3715 1.4744.58358l-.7898 2.17415c-.3397-.1767-.7173-.333-1.1324-.4687-.4156-.1352-.9159-.2034-1.5009-.2034-.6557 0-1.1268.092-1.4135.2744-.2867.1826-.4303.4627-.4303.8394 0 .2242.053.413.1583.5658.1051.1532.2546.2916.4475.4155.1932.1235.4156.2358.6675.3356.2511.1004.5293.2032.8339.3092.6317.2361 1.1818.4687 1.6502.6985.4679.2299.8572.4981 1.1675.8043.3098.3063.541.6659.6935 1.0785.1517.4127.228.9133.228 1.502 0 1.1432-.3981 2.0301-1.194 2.6603-.7959.6308-1.9955.9462-3.5988.9462-.5383 0-1.0242-.0326-1.4572-.0974-.433-.0652-.8162-.1446-1.1498-.2387-.3334-.0942-.6204-.1943-.8605-.3003-.2398-.1063-.4416-.2062-.6056-.3009l.7728-2.1916c.3623.2007.8101.3801 1.3431.5388.5322.1594 1.1849.239 1.9572.239z"/><path d="m86.2752 9.24216v2.35114h-3.6693v9.8985h-2.7386v-9.8985h-3.6695v-2.35114z"/><path d="m89.3171 21.4921h2.7388v-12.24991h-2.7388z"/><path d="m104.315 21.4918c-.784-1.4022-1.632-2.7866-2.545-4.154-.914-1.3671-1.885-2.6573-2.9146-3.8712v8.0252h-2.7037v-12.24964h2.2295c.3859.38855.8133.86584 1.2816 1.43164.4682.5658.9442 1.1699 1.4312 1.812.485.6422.968 1.308 1.448 1.9972.48.6893.93 1.352 1.352 1.9885v-7.22934h2.721v12.24964z"/><path d="m116.644 11.3634c-1.275 0-2.197.3564-2.765 1.0693-.568.7131-.851 1.6879-.851 2.9257 0 .6004.07 1.1459.21 1.6348.141.4887.352.9099.632 1.2636.281.3537.632.6278 1.054.8223.421.1943.912.2915 1.474.2915.304 0 .565-.006.782-.0176.216-.0116.406-.0351.57-.0707v-4.2598h2.739v6.0629c-.328.1298-.854.268-1.58.415-.726.1471-1.621.2213-2.686.2213-.913 0-1.741-.1417-2.484-.4242-.744-.2832-1.379-.6953-1.905-1.2376-.526-.5418-.933-1.2079-1.22-1.9974-.287-.789-.43-1.6906-.43-2.7041 0-1.0255.158-1.9328.474-2.7226.316-.7892.748-1.4585 1.299-2.0063.55-.5479 1.196-.9632 1.94-1.24596.743-.28301 1.536-.42489 2.378-.42489.574 0 1.092.0388 1.554.11518.462.07687.86.16511 1.194.26546.333.09986.609.20293.825.30922.217.10604.371.18884.465.24767l-.79 2.20922c-.374-.2002-.805-.3737-1.29-.5213-.486-.1473-1.015-.2207-1.589-.2207z"/><path d="m124.321 21.4918v-12.24964h8.216v2.31554h-5.477v2.4037h4.863v2.2629h-4.863v2.952h5.881v2.3155z"/><path clip-rule="evenodd" d="m144.006 10.0814c-.971-.65422-2.37-.98098-4.196-.98098-.503 0-1.074.02348-1.711.07094-.638.04671-1.256.12976-1.852.24692v12.07342h2.738v-4.4726h1.352c.235.2833.47.5984.705.9464.235.3475.474.7153.714 1.1044.241.389.475.7899.705 1.2022.228.4126.455.8189.678 1.2196h3.061c-.21-.4476-.438-.9042-.684-1.3701-.246-.4652-.5-.9128-.764-1.3429-.263-.4301-.53-.8426-.799-1.2376-.269-.3947-.526-.7452-.772-1.0519.738-.306 1.302-.7277 1.694-1.2636.393-.5361.588-1.2349.588-2.0948 0-1.379-.486-2.3953-1.457-3.0494zm-4.573 1.3877c.158-.0116.336-.0176.535-.0176.878 0 1.542.1268 1.993.3797.451.2541.676.6807.676 1.2818 0 .6249-.222 1.0671-.667 1.3259-.445.2595-1.182.3885-2.212.3885h-.773v-3.323c.141-.0113.29-.0232.448-.0353z" fill-rule="evenodd"/><path d="m44.0025 9.34126h2.7552v12.20654h-2.7552v-5.1785h-4.6271v5.1785h-2.7553v-12.20654h2.7553v4.66744h4.6271z"/><path clip-rule="evenodd" d="m17.8175.798004v8.729406l7.0525 4.12459v-9.25917zm-17.81725511.000429v13.698467h22.93675511l-6.9786-3.8357-9.0909-.0044v-6.17182zm17.81725511 25.471867v-6.1186l-9.16098-.0064c.00855.0408-7.09448-3.8969-7.09448-3.8969l23.30786.1101v13.6982zm-17.81725567-8.9516-.00024433 8.9516 6.8675 3.5946v-8.5192z" fill-rule="evenodd"/></g></svg>