<svg width="282" height="72" viewBox="0 0 282 72" fill="none" xmlns="http://www.w3.org/2000/svg">
<path d="M97.4773 24.7273H101.659V41.0909C101.652 42.5909 101.333 43.8826 100.705 44.9659C100.076 46.0417 99.197 46.8712 98.0682 47.4545C96.947 48.0303 95.6402 48.3182 94.1477 48.3182C92.7841 48.3182 91.5568 48.0758 90.4659 47.5909C89.3826 47.0985 88.5227 46.3712 87.8864 45.4091C87.25 44.447 86.9318 43.25 86.9318 41.8182H91.125C91.1326 42.447 91.2689 42.9886 91.5341 43.4432C91.8068 43.8977 92.1818 44.2462 92.6591 44.4886C93.1364 44.7311 93.6856 44.8523 94.3068 44.8523C94.9811 44.8523 95.553 44.7121 96.0227 44.4318C96.4924 44.1439 96.8485 43.7197 97.0909 43.1591C97.3409 42.5985 97.4697 41.9091 97.4773 41.0909V24.7273ZM113.665 48.3409C111.96 48.3409 110.483 47.9659 109.233 47.2159C107.983 46.4659 107.013 45.4167 106.324 44.0682C105.642 42.7197 105.301 41.1439 105.301 39.3409C105.301 37.5379 105.642 35.9583 106.324 34.6023C107.013 33.2462 107.983 32.1932 109.233 31.4432C110.483 30.6932 111.96 30.3182 113.665 30.3182C115.369 30.3182 116.847 30.6932 118.097 31.4432C119.347 32.1932 120.313 33.2462 120.994 34.6023C121.684 35.9583 122.028 37.5379 122.028 39.3409C122.028 41.1439 121.684 42.7197 120.994 44.0682C120.313 45.4167 119.347 46.4659 118.097 47.2159C116.847 47.9659 115.369 48.3409 113.665 48.3409ZM113.688 45.0455C114.612 45.0455 115.384 44.7917 116.006 44.2841C116.627 43.7689 117.089 43.0795 117.392 42.2159C117.703 41.3523 117.858 40.3902 117.858 39.3295C117.858 38.2614 117.703 37.2955 117.392 36.4318C117.089 35.5606 116.627 34.8674 116.006 34.3523C115.384 33.8371 114.612 33.5795 113.688 33.5795C112.741 33.5795 111.953 33.8371 111.324 34.3523C110.703 34.8674 110.237 35.5606 109.926 36.4318C109.623 37.2955 109.472 38.2614 109.472 39.3295C109.472 40.3902 109.623 41.3523 109.926 42.2159C110.237 43.0795 110.703 43.7689 111.324 44.2841C111.953 44.7917 112.741 45.0455 113.688 45.0455ZM125.702 48V24.7273H129.815V33.4318H129.986C130.198 33.0076 130.497 32.5568 130.884 32.0795C131.27 31.5947 131.793 31.1818 132.452 30.8409C133.111 30.4924 133.952 30.3182 134.974 30.3182C136.323 30.3182 137.539 30.6629 138.622 31.3523C139.713 32.0341 140.577 33.0455 141.213 34.3864C141.857 35.7197 142.179 37.3561 142.179 39.2955C142.179 41.2121 141.865 42.8409 141.236 44.1818C140.607 45.5227 139.751 46.5455 138.668 47.25C137.584 47.9545 136.357 48.3068 134.986 48.3068C133.986 48.3068 133.156 48.1402 132.497 47.8068C131.838 47.4735 131.308 47.072 130.906 46.6023C130.512 46.125 130.205 45.6742 129.986 45.25H129.747V48H125.702ZM129.736 39.2727C129.736 40.4015 129.895 41.3902 130.213 42.2386C130.539 43.0871 131.005 43.75 131.611 44.2273C132.224 44.697 132.967 44.9318 133.838 44.9318C134.747 44.9318 135.509 44.6894 136.122 44.2045C136.736 43.7121 137.198 43.0417 137.509 42.1932C137.827 41.3371 137.986 40.3636 137.986 39.2727C137.986 38.1894 137.83 37.2273 137.52 36.3864C137.209 35.5455 136.747 34.8864 136.134 34.4091C135.52 33.9318 134.755 33.6932 133.838 33.6932C132.959 33.6932 132.213 33.9242 131.599 34.3864C130.986 34.8485 130.52 35.4962 130.202 36.3295C129.891 37.1629 129.736 38.1439 129.736 39.2727ZM159.472 35.1591L155.722 35.5682C155.616 35.1894 155.43 34.8333 155.165 34.5C154.907 34.1667 154.559 33.8977 154.119 33.6932C153.68 33.4886 153.142 33.3864 152.506 33.3864C151.65 33.3864 150.93 33.572 150.347 33.9432C149.771 34.3144 149.487 34.7955 149.494 35.3864C149.487 35.8939 149.672 36.3068 150.051 36.625C150.438 36.9432 151.074 37.2045 151.96 37.4091L154.938 38.0455C156.589 38.4015 157.816 38.9659 158.619 39.7386C159.43 40.5114 159.839 41.5227 159.847 42.7727C159.839 43.8712 159.517 44.8409 158.881 45.6818C158.252 46.5152 157.377 47.1667 156.256 47.6364C155.134 48.1061 153.847 48.3409 152.392 48.3409C150.256 48.3409 148.536 47.8939 147.233 47C145.93 46.0985 145.153 44.8447 144.903 43.2386L148.915 42.8523C149.097 43.6402 149.483 44.2348 150.074 44.6364C150.665 45.0379 151.434 45.2386 152.381 45.2386C153.358 45.2386 154.142 45.0379 154.733 44.6364C155.331 44.2348 155.631 43.7386 155.631 43.1477C155.631 42.6477 155.438 42.2348 155.051 41.9091C154.672 41.5833 154.081 41.3333 153.278 41.1591L150.301 40.5341C148.627 40.1856 147.388 39.5985 146.585 38.7727C145.782 37.9394 145.384 36.8864 145.392 35.6136C145.384 34.5379 145.676 33.6061 146.267 32.8182C146.866 32.0227 147.695 31.4091 148.756 30.9773C149.824 30.5379 151.055 30.3182 152.449 30.3182C154.494 30.3182 156.104 30.7538 157.278 31.625C158.46 32.4962 159.191 33.6742 159.472 35.1591ZM183.341 32.5795H179.091C178.97 31.8826 178.746 31.2652 178.42 30.7273C178.095 30.1818 177.689 29.7197 177.205 29.3409C176.72 28.9621 176.167 28.678 175.545 28.4886C174.932 28.2917 174.269 28.1932 173.557 28.1932C172.292 28.1932 171.17 28.5114 170.193 29.1477C169.216 29.7765 168.451 30.7008 167.898 31.9205C167.345 33.1326 167.068 34.6136 167.068 36.3636C167.068 38.1439 167.345 39.6439 167.898 40.8636C168.458 42.0758 169.223 42.9924 170.193 43.6136C171.17 44.2273 172.288 44.5341 173.545 44.5341C174.242 44.5341 174.894 44.4432 175.5 44.2614C176.114 44.072 176.663 43.7955 177.148 43.4318C177.64 43.0682 178.053 42.6212 178.386 42.0909C178.727 41.5606 178.962 40.9545 179.091 40.2727L183.341 40.2955C183.182 41.4015 182.837 42.4394 182.307 43.4091C181.784 44.3788 181.098 45.2348 180.25 45.9773C179.402 46.7121 178.409 47.2879 177.273 47.7045C176.136 48.1136 174.875 48.3182 173.489 48.3182C171.443 48.3182 169.617 47.8447 168.011 46.8977C166.405 45.9508 165.14 44.5833 164.216 42.7955C163.292 41.0076 162.83 38.8636 162.83 36.3636C162.83 33.8561 163.295 31.7121 164.227 29.9318C165.159 28.1439 166.428 26.7765 168.034 25.8295C169.64 24.8826 171.458 24.4091 173.489 24.4091C174.784 24.4091 175.989 24.5909 177.102 24.9545C178.216 25.3182 179.208 25.8523 180.08 26.5568C180.951 27.2538 181.667 28.1098 182.227 29.125C182.795 30.1326 183.167 31.2841 183.341 32.5795ZM194.634 48.3409C192.929 48.3409 191.452 47.9659 190.202 47.2159C188.952 46.4659 187.982 45.4167 187.293 44.0682C186.611 42.7197 186.27 41.1439 186.27 39.3409C186.27 37.5379 186.611 35.9583 187.293 34.6023C187.982 33.2462 188.952 32.1932 190.202 31.4432C191.452 30.6932 192.929 30.3182 194.634 30.3182C196.338 30.3182 197.815 30.6932 199.065 31.4432C200.315 32.1932 201.281 33.2462 201.963 34.6023C202.652 35.9583 202.997 37.5379 202.997 39.3409C202.997 41.1439 202.652 42.7197 201.963 44.0682C201.281 45.4167 200.315 46.4659 199.065 47.2159C197.815 47.9659 196.338 48.3409 194.634 48.3409ZM194.656 45.0455C195.58 45.0455 196.353 44.7917 196.974 44.2841C197.596 43.7689 198.058 43.0795 198.361 42.2159C198.671 41.3523 198.827 40.3902 198.827 39.3295C198.827 38.2614 198.671 37.2955 198.361 36.4318C198.058 35.5606 197.596 34.8674 196.974 34.3523C196.353 33.8371 195.58 33.5795 194.656 33.5795C193.709 33.5795 192.921 33.8371 192.293 34.3523C191.671 34.8674 191.205 35.5606 190.895 36.4318C190.592 37.2955 190.44 38.2614 190.44 39.3295C190.44 40.3902 190.592 41.3523 190.895 42.2159C191.205 43.0795 191.671 43.7689 192.293 44.2841C192.921 44.7917 193.709 45.0455 194.656 45.0455ZM210.602 24.7273V48H206.489V24.7273H210.602ZM218.946 24.7273V48H214.832V24.7273H218.946ZM223.176 48V30.5455H227.29V48H223.176ZM225.244 28.0682C224.593 28.0682 224.032 27.8523 223.562 27.4205C223.093 26.9811 222.858 26.4545 222.858 25.8409C222.858 25.2197 223.093 24.6932 223.562 24.2614C224.032 23.822 224.593 23.6023 225.244 23.6023C225.903 23.6023 226.464 23.822 226.926 24.2614C227.396 24.6932 227.631 25.2197 227.631 25.8409C227.631 26.4545 227.396 26.9811 226.926 27.4205C226.464 27.8523 225.903 28.0682 225.244 28.0682ZM237.997 48.3068C236.626 48.3068 235.399 47.9545 234.315 47.25C233.232 46.5455 232.376 45.5227 231.747 44.1818C231.118 42.8409 230.804 41.2121 230.804 39.2955C230.804 37.3561 231.122 35.7197 231.759 34.3864C232.402 33.0455 233.27 32.0341 234.361 31.3523C235.452 30.6629 236.668 30.3182 238.009 30.3182C239.031 30.3182 239.872 30.4924 240.531 30.8409C241.19 31.1818 241.713 31.5947 242.099 32.0795C242.486 32.5568 242.785 33.0076 242.997 33.4318H243.168V24.7273H247.293V48H243.247V45.25H242.997C242.785 45.6742 242.478 46.125 242.077 46.6023C241.675 47.072 241.145 47.4735 240.486 47.8068C239.827 48.1402 238.997 48.3068 237.997 48.3068ZM239.145 44.9318C240.016 44.9318 240.759 44.697 241.372 44.2273C241.986 43.75 242.452 43.0871 242.77 42.2386C243.088 41.3902 243.247 40.4015 243.247 39.2727C243.247 38.1439 243.088 37.1629 242.77 36.3295C242.459 35.4962 241.997 34.8485 241.384 34.3864C240.777 33.9242 240.031 33.6932 239.145 33.6932C238.228 33.6932 237.463 33.9318 236.849 34.4091C236.236 34.8864 235.774 35.5455 235.463 36.3864C235.152 37.2273 234.997 38.1894 234.997 39.2727C234.997 40.3636 235.152 41.3371 235.463 42.1932C235.781 43.0417 236.247 43.7121 236.861 44.2045C237.482 44.6894 238.243 44.9318 239.145 44.9318ZM259.403 48.3409C257.653 48.3409 256.142 47.9773 254.869 47.25C253.604 46.5152 252.631 45.4773 251.949 44.1364C251.267 42.7879 250.926 41.2008 250.926 39.375C250.926 37.5795 251.267 36.0038 251.949 34.6477C252.638 33.2841 253.6 32.2235 254.835 31.4659C256.07 30.7008 257.521 30.3182 259.188 30.3182C260.263 30.3182 261.278 30.4924 262.233 30.8409C263.195 31.1818 264.044 31.7121 264.778 32.4318C265.521 33.1515 266.104 34.0682 266.528 35.1818C266.953 36.2879 267.165 37.6061 267.165 39.1364V40.3977H252.858V37.625H263.222C263.214 36.8371 263.044 36.1364 262.71 35.5227C262.377 34.9015 261.911 34.4129 261.312 34.0568C260.722 33.7008 260.032 33.5227 259.244 33.5227C258.403 33.5227 257.665 33.7273 257.028 34.1364C256.392 34.5379 255.896 35.0682 255.54 35.7273C255.191 36.3788 255.013 37.0947 255.006 37.875V40.2955C255.006 41.3106 255.191 42.1818 255.562 42.9091C255.934 43.6288 256.453 44.1818 257.119 44.5682C257.786 44.947 258.566 45.1364 259.46 45.1364C260.059 45.1364 260.6 45.053 261.085 44.8864C261.57 44.7121 261.991 44.4583 262.347 44.125C262.703 43.7917 262.972 43.3788 263.153 42.8864L266.994 43.3182C266.752 44.3333 266.29 45.2197 265.608 45.9773C264.934 46.7273 264.07 47.3106 263.017 47.7273C261.964 48.1364 260.759 48.3409 259.403 48.3409ZM270.645 48V30.5455H274.634V33.4545H274.815C275.134 32.447 275.679 31.6705 276.452 31.125C277.232 30.572 278.122 30.2955 279.122 30.2955C279.349 30.2955 279.603 30.3068 279.884 30.3295C280.171 30.3447 280.41 30.3712 280.599 30.4091V34.1932C280.425 34.1326 280.149 34.0795 279.77 34.0341C279.399 33.9811 279.039 33.9545 278.69 33.9545C277.94 33.9545 277.266 34.1174 276.668 34.4432C276.077 34.7614 275.611 35.2045 275.27 35.7727C274.929 36.3409 274.759 36.9962 274.759 37.7386V48H270.645Z" fill="white"/>
<g clip-path="url(#clip0_1559_2)">
<path d="M64.8 0H7.2C3.22355 0 0 3.22355 0 7.2V64.8C0 68.7765 3.22355 72 7.2 72H64.8C68.7765 72 72 68.7765 72 64.8V7.2C72 3.22355 68.7765 0 64.8 0Z" fill="white"/>
<path d="M20.8116 53.7869C17.4017 53.7869 14.6983 52.8499 12.7016 50.976C10.7355 49.0714 9.75244 46.5216 9.75244 43.3267H15.5124C15.5124 45.0163 15.9886 46.3373 16.9409 47.2896C17.8933 48.2419 19.1835 48.7181 20.8116 48.7181C22.4398 48.7181 23.73 48.2573 24.6824 47.3357C25.6347 46.3833 26.1108 45.0624 26.1108 43.3728V24.9869H18.2772V19.6416H31.8708V43.3728C31.8708 46.5984 30.8724 49.1481 28.8756 51.0221C26.9095 52.8653 24.2216 53.7869 20.8116 53.7869ZM49.9623 53.7408C47.8119 53.7408 45.9226 53.3414 44.2944 52.5427C42.697 51.7133 41.4528 50.5613 40.562 49.0867C39.6711 47.5814 39.2256 45.815 39.2256 43.7875V37.4285C39.2256 35.3702 39.6711 33.6038 40.562 32.1293C41.4528 30.6547 42.697 29.5181 44.2944 28.7194C45.9226 27.8899 47.8119 27.4752 49.9623 27.4752C53.1571 27.4752 55.7069 28.3046 57.6116 29.9635C59.5162 31.5917 60.5146 33.8189 60.6068 36.6451H54.8468C54.7546 35.3241 54.2785 34.3104 53.4183 33.6038C52.5888 32.8666 51.4368 32.4979 49.9623 32.4979C48.4263 32.4979 47.2128 32.928 46.322 33.7882C45.4311 34.6176 44.9856 35.8157 44.9856 37.3824V43.7875C44.9856 45.3542 45.4311 46.5677 46.322 47.4278C47.2128 48.288 48.4263 48.7181 49.9623 48.7181C51.4368 48.7181 52.5888 48.3648 53.4183 47.6582C54.2785 46.921 54.7546 45.8919 54.8468 44.5709H60.6068C60.5146 47.3971 59.5162 49.6397 57.6116 51.2986C55.7069 52.9267 53.1571 53.7408 49.9623 53.7408Z" fill="#191926"/>
</g>
<defs>
<clipPath id="clip0_1559_2">
<rect width="72" height="72" fill="white"/>
</clipPath>
</defs>
</svg>
