<svg xmlns="http://www.w3.org/2000/svg" width="349" height="64" fill="#ffffff"  viewBox="0 0 349 64" ><path fill="#ffffff" d="M76.094 52V7.581h-6.917V52h6.917zM95.64 52.761c3.616 0 7.677-1.776 9.518-4.759V52h6.853V22.43h-6.853v3.997c-1.841-2.982-5.394-4.759-9.328-4.759-9.201 0-14.722 6.854-14.722 15.547 0 8.693 5.013 15.546 14.531 15.546zm1.015-6.155c-5.394 0-8.63-3.997-8.63-9.391s3.236-9.392 8.63-9.392c5.901 0 8.756 4.316 8.756 9.392s-2.855 9.391-8.756 9.391zM132.621 46.162c-2.729 0-4.315-.634-4.315-5.774V28.204h6.79V22.43h-6.79v-8.947h-6.917v8.947h-5.013v5.774h5.013v13.77c0 9.963 6.219 10.407 9.582 10.407 2.031 0 4.061-.19 5.14-.381v-6.092c-.698.127-2.411.254-3.49.254zM144.247 18.178c3.045 0 5.14-2.284 5.14-5.14 0-2.855-2.095-5.14-5.14-5.14-3.046 0-5.14 2.285-5.14 5.14 0 2.856 2.094 5.14 5.14 5.14zM147.673 52V22.43h-6.853V52h6.853zM168.299 46.162c-2.728 0-4.315-.634-4.315-5.774V28.204h6.79V22.43h-6.79v-8.947h-6.916v8.947h-5.013v5.774h5.013v13.77c0 9.963 6.218 10.407 9.581 10.407 2.031 0 4.061-.19 5.14-.381v-6.092c-.698.127-2.411.254-3.49.254zM187.159 52.761c4.251 0 7.361-1.713 9.137-4.886V52h6.917V22.43h-6.917v16.689c0 4.251-1.903 7.741-7.17 7.741-4.505 0-6.028-2.792-6.028-7.551v-16.88h-6.917v18.593c0 7.932 4.505 11.74 10.978 11.74zM232.247 26.427c-1.84-2.982-5.394-4.759-9.328-4.759-9.201 0-14.722 6.854-14.722 15.547 0 8.693 5.013 15.546 14.532 15.546 3.616 0 7.678-1.776 9.518-4.759V52h6.853V7.581h-6.853v18.846zm-8.503 20.18c-5.394 0-8.63-3.998-8.63-9.392 0-5.394 3.236-9.392 8.63-9.392 5.901 0 8.757 4.316 8.757 9.392s-2.856 9.391-8.757 9.391zM273.099 35.692c0-8.313-5.711-14.024-14.15-14.024-9.011 0-14.849 6.092-14.849 15.547 0 9.582 5.774 15.546 15.102 15.546 7.107 0 12.691-3.87 13.58-9.39h-6.98c-1.142 2.283-3.173 3.362-6.6 3.362-5.013 0-8.058-2.538-8.249-7.234h21.956c.127-1.65.19-2.601.19-3.807zm-22.146-1.46c.064-4.188 2.983-7.107 7.869-7.107 4.759 0 7.424 2.539 7.487 7.108h-15.356zM281.59 52.508c2.983 0 5.394-2.475 5.394-5.394s-2.411-5.33-5.394-5.33a5.321 5.321 0 00-5.33 5.33c0 2.919 2.348 5.394 5.33 5.394zM303.931 52.761c7.17 0 11.675-3.426 11.675-9.2 0-4.189-2.665-7.234-6.853-8.44l-5.901-1.713c-2.729-.762-3.681-1.84-3.681-3.427 0-1.777 1.777-3.046 4.252-3.046 3.236 0 5.14 1.46 5.14 3.934h6.789c0-5.71-4.441-9.2-11.675-9.2-6.6 0-11.359 3.68-11.359 8.693 0 4.188 2.348 7.17 6.473 8.312l5.901 1.587c3.173.825 3.871 1.84 3.871 3.49 0 2.094-1.65 3.49-4.252 3.49-3.553 0-6.028-1.777-6.028-4.315h-6.917c0 5.647 5.331 9.835 12.565 9.835zM337.5 21.668c-4.378 0-7.805 1.714-9.645 4.886V7.581h-6.916V52h6.916V35.755c0-5.203 2.538-8.185 7.044-8.185 4.822 0 6.472 2.728 6.472 9.01V52h6.917V33.408c0-7.742-3.681-11.74-10.788-11.74zM50.552 47.654l-5.29 15.762H14.805l5.29-15.762h30.457zM33.744.584H14.863L0 44.875h18.88L33.744.584z" data-darkreader-inline-fill="" style="--darkreader-inline-fill: #ffffff;"></path></svg>