<svg xmlns="http://www.w3.org/2000/svg" width="236.333" height="33.468" viewBox="0 0 236.333 33.468">
    <defs>
        <style>
            .cls-1{fill:#ffb300}.cls-2{fill:#fff}
        </style>
    </defs>
    <g id="Group_448" transform="translate(-58.267 -97.906)">
        <path id="Path_1278" d="M65.043 128.721h-6.776v-21.977h5.265l.779 2.746a11.819 11.819 0 0 1 3.205-2.38 8.572 8.572 0 0 1 3.891-.871q4.716 0 6.455 3.343a12.009 12.009 0 0 1 3.32-2.427 8.83 8.83 0 0 1 3.96-.916 6.683 6.683 0 0 1 7.371 7.463v15.018h-6.776v-14.331a3.188 3.188 0 0 0-.732-2.2 2.507 2.507 0 0 0-1.969-.824 5.464 5.464 0 0 0-2.29.55 5.036 5.036 0 0 0-1.969 1.6v15.2H72v-14.326a3.188 3.188 0 0 0-.732-2.2 2.507 2.507 0 0 0-1.969-.824 4.829 4.829 0 0 0-2.29.642 5.886 5.886 0 0 0-1.969 1.693z" class="cls-1" transform="translate(0 2.15)"/>
        <path id="Path_1279" d="M88.567 108.667A18 18 0 0 1 92.8 106.9a17.737 17.737 0 0 1 4.831-.664 10.206 10.206 0 0 1 6.547 1.969q2.472 1.97 2.472 6.272v14.24h-5.173l-.6-2.173h-.177a6.671 6.671 0 0 1-2.541 1.927 9.076 9.076 0 0 1-3.823.749 8.916 8.916 0 0 1-3.273-.55 6.682 6.682 0 0 1-2.312-1.464 6.122 6.122 0 0 1-1.4-2.175 7.464 7.464 0 0 1-.481-2.678 6.149 6.149 0 0 1 .848-3.3 6.713 6.713 0 0 1 2.288-2.243 10.924 10.924 0 0 1 3.388-1.282 20 20 0 0 1 4.144-.411h2.29v-1.191a2.248 2.248 0 0 0-.871-1.9 4.011 4.011 0 0 0-2.472-.664 9.033 9.033 0 0 0-2.7.413 14.957 14.957 0 0 0-2.931 1.327zm11.308 10.576-1.511.045a9.971 9.971 0 0 0-2.151.278 4.732 4.732 0 0 0-1.4.577 2.043 2.043 0 0 0-.756.832 2.29 2.29 0 0 0-.229.993 2.134 2.134 0 0 0 .847 1.964 3.593 3.593 0 0 0 1.946.531 3.312 3.312 0 0 0 1.991-.647 3.768 3.768 0 0 0 1.259-1.433z" class="cls-1" transform="translate(7.381 2.15)"/>
        <path id="Path_1280" d="M118.836 112.375a13.63 13.63 0 0 0-2.609-.938 10.94 10.94 0 0 0-2.656-.343 3.914 3.914 0 0 0-1.924.411 1.269 1.269 0 0 0-.732 1.145 1.575 1.575 0 0 0 .71 1.306 9.708 9.708 0 0 0 2.815 1.121l1.374.413a8.88 8.88 0 0 1 4.167 2.4 5.828 5.828 0 0 1 1.419 4.051 6.515 6.515 0 0 1-.687 3 6.722 6.722 0 0 1-1.945 2.312 9.031 9.031 0 0 1-3.022 1.466 14.282 14.282 0 0 1-3.915.5 18.715 18.715 0 0 1-4.144-.413 14.845 14.845 0 0 1-3.365-1.19l1.466-4.9a16.229 16.229 0 0 0 2.77 1.122 10.186 10.186 0 0 0 2.953.434 4.407 4.407 0 0 0 2.449-.5 1.446 1.446 0 0 0 .71-1.19 1.474 1.474 0 0 0-.16-.71 1.69 1.69 0 0 0-.572-.572 5.015 5.015 0 0 0-1.167-.527q-.755-.251-1.946-.618l-1.419-.413a8.078 8.078 0 0 1-3.938-2.4 6.69 6.69 0 0 1 1.077-9.112 8.134 8.134 0 0 1 2.746-1.464 12.1 12.1 0 0 1 3.731-.527 18.629 18.629 0 0 1 3.915.39 15.257 15.257 0 0 1 3.273 1.076z" class="cls-1" transform="translate(11.86 2.15)"/>
        <path id="Path_1281" d="M133.176 112.375a13.641 13.641 0 0 0-2.61-.938 10.94 10.94 0 0 0-2.656-.343 3.908 3.908 0 0 0-1.922.411 1.266 1.266 0 0 0-.732 1.145 1.572 1.572 0 0 0 .71 1.306 9.708 9.708 0 0 0 2.815 1.121l1.374.413a8.882 8.882 0 0 1 4.165 2.4 5.829 5.829 0 0 1 1.42 4.051 6.515 6.515 0 0 1-.687 3 6.725 6.725 0 0 1-1.946 2.312 9.007 9.007 0 0 1-3.022 1.466 14.269 14.269 0 0 1-3.915.5 18.7 18.7 0 0 1-4.143-.413 14.8 14.8 0 0 1-3.365-1.19l1.466-4.9a16.216 16.216 0 0 0 2.769 1.122 10.2 10.2 0 0 0 2.954.434 4.41 4.41 0 0 0 2.449-.5 1.446 1.446 0 0 0 .71-1.19 1.474 1.474 0 0 0-.161-.71 1.685 1.685 0 0 0-.571-.572 5.04 5.04 0 0 0-1.167-.527q-.757-.251-1.946-.618l-1.419-.413a8.078 8.078 0 0 1-3.938-2.4 6.689 6.689 0 0 1 1.076-9.112 8.128 8.128 0 0 1 2.748-1.464 12.1 12.1 0 0 1 3.731-.527 18.617 18.617 0 0 1 3.914.39 15.211 15.211 0 0 1 3.273 1.076z" class="cls-1" transform="translate(15.56 2.15)"/>
        <path id="Path_1282" d="M137.571 104.591a3.448 3.448 0 0 1-2.656-.985 3.339 3.339 0 0 1-.915-2.358 3.293 3.293 0 0 1 .938-2.358 3.46 3.46 0 0 1 2.632-.985 3.51 3.51 0 0 1 2.633.962 3.274 3.274 0 0 1 .938 2.38 3.318 3.318 0 0 1-.916 2.38 3.5 3.5 0 0 1-2.654.964zm-3.388 26.28v-21.976h6.776v21.976z" class="cls-1" transform="translate(19.541)"/>
        <path id="Path_1283" d="M156.439 106.641h7.188l-7.693 21.976h-8.058l-7.325-21.976h7.234l2.656 9.614 1.511 7.646h.184l1.511-7.646z" class="cls-1" transform="translate(21.231 2.254)"/>
        <path id="Path_1284" d="M179.227 119.7h-14.24v.184a3.591 3.591 0 0 0 1.786 3.341 8.7 8.7 0 0 0 4.486 1.053 13.226 13.226 0 0 0 3.3-.366 11.2 11.2 0 0 0 2.38-.869l1.237 4.67a15.866 15.866 0 0 1-3.136 1.053 20.217 20.217 0 0 1-4.647.458 16.3 16.3 0 0 1-4.694-.664 11.015 11.015 0 0 1-3.891-2.037 9.781 9.781 0 0 1-2.656-3.48 11.806 11.806 0 0 1-.984-5.036 13.713 13.713 0 0 1 .8-4.786 10.828 10.828 0 0 1 2.271-3.731 10.069 10.069 0 0 1 3.511-2.4 11.674 11.674 0 0 1 4.519-.848 9.719 9.719 0 0 1 7.25 2.748q2.706 2.747 2.707 7.829zm-6.959-4.624a6.22 6.22 0 0 0-.184-1.511 4.068 4.068 0 0 0-.572-1.3 2.911 2.911 0 0 0-1.006-.916 3.026 3.026 0 0 0-1.488-.343 3.488 3.488 0 0 0-2.656 1.122 5 5 0 0 0-1.237 3.044z" class="cls-1" transform="translate(25.776 2.15)"/>
        <path id="Path_1285" d="M191.155 100.781a23.589 23.589 0 0 1 4.876.454 17.467 17.467 0 0 1 3.777 1.224l-1.419 4.549a13 13 0 0 0-3.273-1.122 16.923 16.923 0 0 0-3.32-.343 9.792 9.792 0 0 0-3.433.6 7.5 7.5 0 0 0-2.817 1.854 8.763 8.763 0 0 0-1.9 3.183 13.637 13.637 0 0 0-.687 4.578q0 4.853 2.129 7.44a7.465 7.465 0 0 0 6.113 2.587 14.871 14.871 0 0 0 1.74-.092 4.269 4.269 0 0 0 1.19-.274v-6.272H189.6v-5.128h11.218v14.833a21.548 21.548 0 0 1-4.212 1.283 27.009 27.009 0 0 1-5.448.5 18.853 18.853 0 0 1-6.113-.96 14.022 14.022 0 0 1-4.921-2.857 13.2 13.2 0 0 1-3.3-4.663 16 16 0 0 1-1.19-6.377 16.34 16.34 0 0 1 1.19-6.422 13.1 13.1 0 0 1 3.3-4.709 14.287 14.287 0 0 1 4.921-2.88 18.423 18.423 0 0 1 6.11-.986z" class="cls-2" transform="translate(30.283 .742)"/>
        <path id="Path_1286" d="M197.979 101.182h11.447a12.451 12.451 0 0 1 4.372.71 8.855 8.855 0 0 1 3.159 1.945 8.15 8.15 0 0 1 1.9 2.885 9.664 9.664 0 0 1 .64 3.526 8.374 8.374 0 0 1-1.877 5.494 8.179 8.179 0 0 1-1.785 1.648 12.184 12.184 0 0 1-1.786 1.008l6.914 11.629h-8.012l-5.128-10.394h-2.885v10.394h-6.959zm6.959 13.185h2.106a6.91 6.91 0 0 0 3.846-.961 3.446 3.446 0 0 0 1.466-3.114 3.606 3.606 0 0 0-1.19-2.839 5.037 5.037 0 0 0-3.434-1.053h-2.793z" class="cls-2" transform="translate(36.049 .845)"/>
        <path id="Path_1287" d="M224.336 101.182v28.844h-6.959v-28.844z" class="cls-2" transform="translate(41.054 .845)"/>
        <path id="Path_1288" d="M236.195 101.182a20.883 20.883 0 0 1 6.226.869 13.074 13.074 0 0 1 4.784 2.61 11.526 11.526 0 0 1 3.068 4.326 15.616 15.616 0 0 1 1.076 6.02 15.974 15.974 0 0 1-1.282 6.662 13.019 13.019 0 0 1-3.5 4.67 14.816 14.816 0 0 1-5.2 2.77 21.383 21.383 0 0 1-6.318.916h-9.157v-28.843zm-3.343 23.533h1.785a13.7 13.7 0 0 0 3.549-.458 7.351 7.351 0 0 0 3-1.58 7.944 7.944 0 0 0 2.061-3 12.252 12.252 0 0 0 .779-4.671 8.247 8.247 0 0 0-2.335-6.34 8.908 8.908 0 0 0-6.319-2.175h-2.517z" class="cls-2" transform="translate(43.251 .845)"/>
    </g>
</svg>
