<svg id="Layer_1" data-name="Layer 1" xmlns="http://www.w3.org/2000/svg" viewBox="0 0 170 72"><defs><style>.cls-1{fill:#16d3d3;}.cls-2{fill:#fff;}</style></defs><path class="cls-1" d="M56.48,44.58A27.31,27.31,0,0,0,55.8,56a14.64,14.64,0,0,0,5.43,9.25,19.1,19.1,0,0,0,10.19,3.6,37.82,37.82,0,0,0,11.15-.9,68.47,68.47,0,0,0,21-8.8,88.44,88.44,0,0,0,17.89-14.53,67,67,0,0,1-16.75,16.29,62.08,62.08,0,0,1-21.51,9.66,39,39,0,0,1-12,.8,20.41,20.41,0,0,1-11.27-4.5A15.52,15.52,0,0,1,56.12,62a17,17,0,0,1-1.62-5.84A25.57,25.57,0,0,1,56.48,44.58Z"/><path class="cls-2" d="M29.69,32.85V22.39a5.54,5.54,0,0,0-5.53-5.53H5.53A5.54,5.54,0,0,0,0,22.39V32.85a5.54,5.54,0,0,0,5.53,5.53H17.78l10.53,6.07L30,41.55l-5.54-3.2A5.52,5.52,0,0,0,29.69,32.85ZM5.53,35a2.17,2.17,0,0,1-2.17-2.17V22.39a2.18,2.18,0,0,1,2.17-2.18H24.16a2.19,2.19,0,0,1,2.18,2.18V32.85A2.18,2.18,0,0,1,24.16,35Z"/><path class="cls-2" d="M83.74,16.78a4.21,4.21,0,0,0-3.38,2L67.8,37.14,70.57,39l12.56-18.4a.73.73,0,0,1,1.37,0L98.13,39.05l2.7-2L87.2,18.61A4.15,4.15,0,0,0,83.74,16.78Z"/><path class="cls-2" d="M61.51,31.81c0,1.74-1,3.21-2.18,3.21H40.7c-1.18,0-2.18-1.47-2.18-3.21V16.86H35.17v15c0,3.62,2.48,6.57,5.53,6.57H59.33c3.05,0,5.53-3,5.53-6.57V16.86H61.51Z"/><path class="cls-2" d="M130.13,34a.48.48,0,0,1-.31.47.45.45,0,0,1-.52-.06l-18-16.95a3.87,3.87,0,0,0-6.46,2.89v18h3.35v-18a.51.51,0,0,1,.31-.48.5.5,0,0,1,.53.06l18,17A3.88,3.88,0,0,0,133.49,34V16.86h-3.36Z"/><polygon class="cls-2" points="137.65 16.86 137.65 20.21 152.14 20.21 152.14 38.38 155.5 38.38 155.5 20.21 170 20.21 170 16.86 137.65 16.86"/><path class="cls-1" d="M74.88,53.25H64.5a2.61,2.61,0,0,1-2.61-2.62V46.27a2.61,2.61,0,0,1,2.61-2.61H74.88v2H64.5a.6.6,0,0,0-.6.6v4.36a.6.6,0,0,0,.6.61H74.88Z"/><path class="cls-1" d="M86,53.25H77.75V43.66H86a4.8,4.8,0,0,1,0,9.59Zm-6.19-2H86a2.79,2.79,0,0,0,0-5.57H79.77Z"/><path class="cls-1" d="M95.17,53.33h-2V45.5a1.93,1.93,0,0,1,3.21-1.43L103.68,51V43.74h2V51.2a1.93,1.93,0,0,1-3.21,1.43l-7.32-6.92Z"/><path class="cls-1" d="M128.65,8.26a10.41,10.41,0,0,0-1-1.23l-1.12-1.11a8.84,8.84,0,0,0-1.25-1A14.41,14.41,0,0,0,124,4.08a18.3,18.3,0,0,0-2.89-1.31c-.33-.13-.67-.23-1-.33a3.05,3.05,0,0,0-5.57-1,33.46,33.46,0,0,0-5.84.12A43.4,43.4,0,0,0,96.77,4.79a46.82,46.82,0,0,0-10.54,6.15c3.77-1.53,7.48-3,11.26-4.19A62.42,62.42,0,0,1,109,4.22a36.24,36.24,0,0,1,5.2-.26,3.06,3.06,0,0,0,5.57.64l.73.16a17.2,17.2,0,0,1,9.66,6.18A12.41,12.41,0,0,0,128.65,8.26Z"/></svg>