<svg width="59" height="24" viewBox="0 0 59 24" fill="none" xmlns="http://www.w3.org/2000/svg">
<g clip-path="url(#clip0_1046_262)">
<path d="M27.1504 1.51153V0.285861H30.2514V12.3573C30.2671 13.4155 30.036 14.4637 29.575 15.4181C29.1341 16.3145 28.4319 17.0568 27.5601 17.5491C26.5655 18.0894 25.4436 18.3562 24.3106 18.3216C22.7757 18.3941 21.2609 17.951 20.0096 17.0624C18.9212 16.2185 18.2113 14.9806 18.0349 13.6176H21.0868C21.2442 14.2081 21.6103 14.7227 22.1194 15.0643C22.7076 15.4371 23.3975 15.6191 24.0941 15.5856C24.4993 15.6034 24.9034 15.5409 25.284 15.4025C25.6647 15.2641 26.0141 15.052 26.3121 14.7785C26.6157 14.4492 26.8479 14.0596 26.993 13.6366C27.1381 13.2135 27.194 12.7636 27.156 12.3182V9.92158C26.8546 10.7287 26.3032 11.4174 25.5809 11.8896C24.7884 12.3964 23.8608 12.6542 22.9197 12.6274C21.9385 12.6408 20.9718 12.3819 20.1301 11.8795C19.2829 11.3571 18.6087 10.5992 18.1889 9.69944C17.7268 8.64345 17.4879 7.50484 17.4879 6.35284C17.4879 5.20084 17.7268 4.06223 18.1889 3.00623C18.6075 2.10763 19.2829 1.35079 20.1301 0.830606C20.9718 0.326047 21.9385 0.0670711 22.9197 0.082699C23.9523 0.131815 26.3266 0.131814 27.1515 1.51042L27.1504 1.51153ZM21.5411 3.79991C20.9651 4.54558 20.6526 5.45981 20.6526 6.40084C20.6526 7.34186 20.9651 8.2561 21.5411 9.00177C22.1707 9.60791 23.0135 9.94502 23.8898 9.94056C24.7649 9.93609 25.6044 9.59005 26.2273 8.97721C26.8245 8.24828 27.1515 7.33516 27.1515 6.39414C27.1515 5.45312 26.8256 4.54 26.2273 3.81107C25.9281 3.49628 25.5653 3.24735 25.1623 3.08214C24.7605 2.91693 24.3262 2.83767 23.892 2.85107C23.4544 2.83209 23.0191 2.90688 22.6128 3.07098C22.2075 3.23507 21.8414 3.484 21.5411 3.80102V3.79991Z" fill="white"/>
<path d="M24.6813 23.9318C23.9389 23.9318 23.1988 23.8793 22.4643 23.7744C17.2692 23.022 13.2104 19.8038 12.1187 15.5765C11.8619 14.1342 11.7681 12.6686 11.8374 11.2062V5.40381H14.9484V11.2308C14.8948 12.4252 14.9562 13.6207 15.1315 14.8029C15.9062 17.8191 18.9637 20.1376 22.9086 20.708C25.936 21.1456 29.8217 20.5059 31.7183 17.4161L32.2117 16.4561C33.7667 13.297 37.1791 13.2669 39.0065 13.2479H40.1417C40.471 13.1999 40.7914 13.1006 41.0894 12.9532C41.6442 12.6831 42.112 12.2622 42.4401 11.7409C42.7683 11.2196 42.9436 10.6168 42.9458 10.0006V5.4239H46.0569V10.0006C46.0547 11.5545 45.4853 13.0548 44.455 14.2213C43.4247 15.3878 42.0037 16.1402 40.4565 16.3389H39.0344C36.5652 16.3634 35.5337 16.7329 35.0001 17.8146L34.432 18.9465C32.5108 22.1011 28.8963 23.9318 24.679 23.9318H24.6813Z" fill="white"/>
<path d="M35.8999 1.82169V0.227643H32.7743V11.866C32.7743 11.9117 32.7855 11.9564 32.8067 11.9966C32.8279 12.0368 32.8602 12.0702 32.8993 12.0948C32.9384 12.1194 32.9819 12.1328 33.0277 12.135C33.0735 12.1372 33.1192 12.1283 33.1594 12.1071C33.9642 11.732 34.8115 11.4529 35.6833 11.2755C35.7436 11.2632 35.7983 11.2308 35.8385 11.1828C35.8775 11.1359 35.8999 11.0756 35.901 11.0142V6.58485C35.901 4.46281 37.053 3.40123 39.3581 3.40123H40.2668V0.0702489C39.309 0.0501559 36.8052 0.227645 35.901 1.82169H35.8999Z" fill="white"/>
<path d="M13.4515 4.07001L13.13 3.36676C12.9458 2.96936 12.6232 2.65234 12.2213 2.47597L11.5103 2.17569L12.2113 1.85532C12.612 1.67336 12.9313 1.34853 13.1054 0.944434L13.4113 0.235596L13.7328 0.934386C13.9136 1.33513 14.2396 1.65327 14.6459 1.82518L15.3525 2.12992L14.6515 2.45029C14.2507 2.63225 13.9315 2.95708 13.7573 3.36118L13.4515 4.07001Z" fill="#50FFAB"/>
<path d="M5.92662 6.04346V2.82523H8.97853V0.19751H0.0895996V2.82523H2.75081V6.02895C2.75081 9.30635 4.14281 13.1296 8.97742 13.1296V10.5856C6.50821 10.6001 5.92551 8.70132 5.92551 6.04346H5.92662Z" fill="white"/>
<path d="M44.5019 4.07001L44.1805 3.36676C43.9963 2.96825 43.6714 2.65122 43.2673 2.47597L42.5563 2.17569L43.2618 1.85532C43.6614 1.67113 43.9795 1.34741 44.1559 0.944434L44.4618 0.235596L44.7777 0.934386C44.9585 1.33513 45.2856 1.65327 45.6908 1.82518L46.4019 2.12992L45.7008 2.45029C45.3001 2.63225 44.9808 2.95708 44.8067 3.36118L44.5008 4.07001H44.5019Z" fill="#50FFAB"/>
<path d="M58.038 7.20003C57.5792 6.71779 57.0054 6.36059 56.3691 6.16189C55.5609 5.92077 54.736 5.73993 53.8999 5.62049C53.1375 5.5111 52.3874 5.32468 51.6629 5.06458C51.453 4.99872 51.2688 4.86812 51.1394 4.69063C51.0099 4.51314 50.9407 4.29882 50.9418 4.08002C50.9462 3.86347 51.0121 3.65249 51.1304 3.47054C51.2487 3.28858 51.4162 3.14347 51.6127 3.05193C52.2277 2.75947 52.9075 2.62551 53.5874 2.66347C54.8588 2.64561 56.1124 2.97156 57.2119 3.60784L58.3483 1.36858C57.6841 0.993514 56.9641 0.725608 56.2151 0.576026C55.3611 0.380677 54.4882 0.282445 53.613 0.281329C52.1786 0.206538 50.7576 0.581608 49.5487 1.35407C49.0798 1.66998 48.6992 2.09863 48.4402 2.59984C48.1812 3.10105 48.0528 3.65919 48.0674 4.22291C48.0071 4.99314 48.2471 5.75668 48.7394 6.35389C49.2015 6.85621 49.7898 7.22682 50.4428 7.42663C51.2767 7.67221 52.1284 7.85305 52.9913 7.96803C53.728 8.06403 54.4536 8.22924 55.1591 8.46031C55.3578 8.51835 55.5308 8.64003 55.6525 8.80635C55.7741 8.97268 55.8367 9.17472 55.8311 9.38012C55.8311 10.3122 54.947 10.7766 53.1788 10.7732C51.5725 10.809 49.9751 10.5299 48.4781 9.95165V12.4119C49.9204 12.95 51.453 13.2056 52.9913 13.1643C54.7595 13.1643 56.157 12.8116 57.184 12.1061C57.6618 11.8036 58.0536 11.385 58.3226 10.8882C58.5916 10.3915 58.7278 9.83556 58.7189 9.27184C58.7702 8.51947 58.5258 7.77603 58.038 7.20003Z" fill="white"/>
</g>
<defs>
<clipPath id="clip0_1046_262">
<rect width="58.7163" height="24" fill="white" transform="translate(0.0494385)"/>
</clipPath>
</defs>
</svg>
