<svg version="1.2" xmlns="http://www.w3.org/2000/svg" viewBox="0 0 1229 354" width="1229" height="354"><style>.a{fill:#fff}.b{fill:#ff5c12}</style><path class="a" d="m512.2 195.3c0 9.4-2.7 17.2-8.2 23.3-5.4 6.2-12.4 9.3-20.9 9.3-7.5 0-13.8-2.6-18.9-7.7-5.1-5.1-7.7-12.1-7.7-20.8v-55.1h-18.8v60.5c0 12.3 4.1 22.1 12.4 29.4 8.2 7.4 18.1 11.1 29.4 11.1 14 0 24.9-5.6 32.6-16.9v15.2h18.8v-99.3h-18.8z"/><path fill-rule="evenodd" class="a" d="m641 157.3c9.4 10 14.2 22.4 14.2 36.5 0 14.1-4.7 26.2-14.2 36.2-9.5 10-20.8 15-35.4 15-14.6 0-26.1-5.6-34.3-17v15.6h-18.8v-131.2h18.8v47.8c8-11.5 19.4-17.4 34.3-17.6h0.6c13.7 0 25.4 4.9 34.8 14.7zm-3.3 36.7c0-9.4-3.3-17.5-9.9-24.2-6.6-6.7-14.4-10.1-23.8-10.1-9.4 0-17.3 3.4-23.9 10.1-6.5 6.8-9.8 14.9-9.8 24.2q0 13.9 9.9 24c6.6 6.7 14.4 10.1 23.8 10.1 9.4 0 17.3-3.3 23.9-10 6.5-6.7 9.8-14.8 9.8-24.1z"/><path fill-rule="evenodd" class="a" d="m669 118.8c0 3.5 1.2 6.4 3.7 8.6 2.4 2.3 5.5 3.4 9.1 3.4 3.6 0 6.5-1.2 8.9-3.5 2.5-2.3 3.7-5.1 3.7-8.5 0-3.4-1.2-6.4-3.7-8.8-2.4-2.4-5.4-3.6-8.9-3.6q-5.4 0-9 3.6c-2.5 2.3-3.8 5.3-3.8 8.8zm3.2 124.9h18.8v-99.4h-18.8z"/><path class="a" d="m758.5 159.6c6.5 0 12.3 1.8 17.4 5.3 5.1 3.6 9.1 8.3 11.8 14.2l17.4-4.5c-3.9-9.5-10-17.2-18.4-23.2-8.4-5.9-17.8-8.9-28.3-8.9q-21.2 0-36 15c-10 10-15 22.1-15 36.4 0 14.2 4.9 26 14.7 36.1 9.8 10.1 21.9 15.1 36.3 15.1 10.6 0 20.1-2.9 28.4-8.8 8.3-5.9 14.4-13.6 18.3-23.3l-17.4-4.5c-2.6 5.9-6.5 10.6-11.7 14.2-5.2 3.6-11 5.3-17.5 5.3-9.2 0-17.1-3.3-23.6-10-6.5-6.7-9.8-14.7-9.8-24.1 0-9.4 3.2-17.4 9.7-24.2 6.4-6.6 14.3-10 23.7-10.1z"/><path class="a" d="m839.9 112.4h-18.8v131.2h18.8z"/><path fill-rule="evenodd" class="a" d="m943.8 157.7c9.9 10.1 14.9 22 14.9 36.1 0 14.1-4.9 26.2-14.8 36.2-10 10.1-22.1 15.2-36.2 15.2-14.1 0-26.2-5-36.1-15.1-9.9-10.1-14.9-22.2-14.9-36.3 0-14.1 5-26.2 14.9-36.2 10-10 22-15 36.1-15 14.1 0 26.2 5.1 36.1 15.1zm-2.7 36.1c0-9.4-3.3-17.4-9.7-24q-9.6-9.9-23.7-9.9-14.1 0-23.7 9.9c-6.5 6.6-9.7 14.5-9.7 24 0 9.5 3.3 17.6 9.8 24.2 6.5 6.6 14.3 9.9 23.6 9.9 9.2 0 17.1-3.3 23.6-10 6.6-6.7 9.8-14.8 9.8-24.1z"/><path class="a" d="m1048.3 195.3c0 9.4-2.7 17.2-8.2 23.3-5.4 6.2-12.4 9.3-20.9 9.3-7.5 0-13.8-2.6-18.9-7.7-5.1-5.1-7.7-12.1-7.7-20.8v-55.1h-18.8v60.5c0 12.3 4.1 22.1 12.4 29.4 8.2 7.4 18.1 11.1 29.4 11.1 14 0 24.9-5.6 32.6-16.9v15.2h18.8v-99.3h-18.8z"/><path fill-rule="evenodd" class="a" d="m1187 112.4v131.3h-18.8v-15.6c-8.2 11.3-19.7 17-34.3 17-13.8 0-25.5-5-35.2-15.1-9.7-10.1-14.5-21.8-14.5-36.1 0-14.3 4.8-26.5 14.6-36.5 9.7-9.9 21.4-14.8 35.1-14.8 14.6 0 26.1 5.8 34.3 17.4v-47.6zm-17.8 81.5c0-9.4-3.2-17.4-9.8-24.2-6.6-6.7-14.5-10.1-23.9-10.1-9.4 0-17.3 3.4-23.9 10.1-6.5 6.8-9.8 14.7-9.8 24.2 0 9.5 3.3 17.6 9.8 24.2 6.5 6.6 14.8 9.9 24 9.9 9.2 0 17.2-3.4 23.8-10.1 6.7-6.7 10-14.6 9.8-24z"/><path fill-rule="evenodd" class="b" d="m41.4 183.5v18.1l69.4 34.2v-18.3l-47.4-23c-1.6-0.9-3.4-1.6-5.1-2.2 1.6-0.6 3.3-1.3 5-2.1l47.4-23v-17.8z"/><path fill-rule="evenodd" class="b" d="m391.4 183.5v18.1l-69.4 34.3v-18.3l47.4-23c1.6-0.9 3.4-1.6 5.1-2.2-1.6-0.6-3.3-1.3-5-2.1l-47.4-23v-17.9z"/><path fill-rule="evenodd" class="b" d="m263.1 248h-89.6c-31 0-57-24.5-58.1-54.8-0.6-15.6 5.1-30.4 15.9-41.6 10.6-10.9 24.7-17.1 39.8-17.4 8-17.8 25.6-29.2 45.1-29.2 22.8 0 42.2 15.2 47.8 36.6h0.1c14.6 0 28.2 5.8 38.3 16.3 10.1 10.4 15.4 24.2 14.9 38.8-1 28.3-25.3 51.2-54.2 51.2zm-77.6-106.5c-2.3 5.4-7.5 8.9-13.4 8.9-11.2 0-21.5 4.4-29.2 12.4-7.7 8-11.7 18.5-11.3 29.6 0.7 21.5 19.4 39 41.6 39h89.7c20.2 0 37.1-15.9 37.8-35.4 0.3-10.1-3.3-19.7-10.3-26.9-6.9-7.2-16.3-11.2-26.4-11.2-0.9 0-1.9 0.1-2.9 0.2-0.9 0-1.8 0.1-2.8 0.3l-1.8 0.3c-16.7 3.5-29.2 18.3-29.2 36v1.5h-16.4v-1.5c0-23.5 15.4-43.5 36.6-50.5-4.2-13.5-16.7-22.9-31.4-22.9-13.3 0-25.3 8-30.6 20.2z"/></svg>