<svg xmlns="http://www.w3.org/2000/svg" xmlns:xlink="http://www.w3.org/1999/xlink" viewBox="0 0 500 500" width="500" height="500" style="width:100%;height:100%;transform:translate3d(0,0,0);content-visibility:visible">
    <defs>
      <path d="M-6.816-205.027c-20.92 36.208-170.344 294.875-187.382 324.715-1.947 4.684 1.644 10.592 6.749 10.684 1.368.132 11.815.066 13.815.079 97.651.04 259.272-.026 357.187 0 1.526 0 3.79.013 3.895-.079.618.053 1.105-.198 1.658-.224 4.25-1.276 6.815-6.276 5.091-10.447-.408-.592-.237-.67-1.342-2.486C143.266 31.247 71.403-93.101 21.696-179.24c-3.052-5.052-11.868-20.735-14.881-25.774-2.96-5.144-10.684-5.21-13.644 0z" transform="translate(250 250)" style="display:block" id="a"/>
      <path d="M-6.816-205.027c-20.92 36.208-170.344 294.875-187.382 324.715-1.947 4.684 1.644 10.592 6.749 10.684 1.368.132 11.815.066 13.815.079 97.651.04 259.272-.026 357.187 0 1.526 0 3.79.013 3.895-.079.618.053 1.105-.198 1.658-.224 4.25-1.276 6.815-6.276 5.091-10.447-.408-.592-.237-.67-1.342-2.486C143.266 31.247 71.403-93.101 21.696-179.24c-3.052-5.052-11.868-20.735-14.881-25.774-2.96-5.144-10.684-5.21-13.644 0z" transform="translate(250 250)" style="display:block" id="g"/>
      <path d="M-6.816-205.027c-20.92 36.208-170.344 294.875-187.382 324.715-1.947 4.684 1.644 10.592 6.749 10.684 1.368.132 11.815.066 13.815.079 97.651.04 259.272-.026 357.187 0 1.526 0 3.79.013 3.895-.079.618.053 1.105-.198 1.658-.224 4.25-1.276 6.815-6.276 5.091-10.447-.408-.592-.237-.67-1.342-2.486C143.266 31.247 71.403-93.101 21.696-179.24c-3.052-5.052-11.868-20.735-14.881-25.774-2.96-5.144-10.684-5.21-13.644 0z" transform="translate(250 250)" style="display:block" id="b"/>
      <path d="M-6.816-205.027c-20.92 36.208-170.344 294.875-187.382 324.715-1.947 4.684 1.644 10.592 6.749 10.684 1.368.132 11.815.066 13.815.079 97.651.04 259.272-.026 357.187 0 1.526 0 3.79.013 3.895-.079.618.053 1.105-.198 1.658-.224 4.25-1.276 6.815-6.276 5.091-10.447-.408-.592-.237-.67-1.342-2.486C143.266 31.247 71.403-93.101 21.696-179.24c-3.052-5.052-11.868-20.735-14.881-25.774-2.96-5.144-10.684-5.21-13.644 0z" transform="translate(250 250)" style="display:block" id="c"/>
      <path d="M-6.816-205.027c-20.92 36.208-170.344 294.875-187.382 324.715-1.947 4.684 1.644 10.592 6.749 10.684 1.368.132 11.815.066 13.815.079 97.651.04 259.272-.026 357.187 0 1.526 0 3.79.013 3.895-.079.618.053 1.105-.198 1.658-.224 4.25-1.276 6.815-6.276 5.091-10.447-.408-.592-.237-.67-1.342-2.486C143.266 31.247 71.403-93.101 21.696-179.24c-3.052-5.052-11.868-20.735-14.881-25.774-2.96-5.144-10.684-5.21-13.644 0z" transform="translate(250 250)" style="display:block" id="d"/>
      <path d="M-6.816-205.027c-20.92 36.208-170.344 294.875-187.382 324.715-1.947 4.684 1.644 10.592 6.749 10.684 1.368.132 11.815.066 13.815.079 97.651.04 259.272-.026 357.187 0 1.526 0 3.79.013 3.895-.079.618.053 1.105-.198 1.658-.224 4.25-1.276 6.815-6.276 5.091-10.447-.408-.592-.237-.67-1.342-2.486C143.266 31.247 71.403-93.101 21.696-179.24c-3.052-5.052-11.868-20.735-14.881-25.774-2.96-5.144-10.684-5.21-13.644 0z" transform="translate(250 250)" style="display:block" id="e"/>
      <path d="M-6.816-205.027c-20.92 36.208-170.344 294.875-187.382 324.715-1.947 4.684 1.644 10.592 6.749 10.684 1.368.132 11.815.066 13.815.079 97.651.04 259.272-.026 357.187 0 1.526 0 3.79.013 3.895-.079.618.053 1.105-.198 1.658-.224 4.25-1.276 6.815-6.276 5.091-10.447-.408-.592-.237-.67-1.342-2.486C143.266 31.247 71.403-93.101 21.696-179.24c-3.052-5.052-11.868-20.735-14.881-25.774-2.96-5.144-10.684-5.21-13.644 0z" transform="translate(250 250)" style="display:block" id="f"/>
      <mask id="r" mask-type="alpha">
        <use xlink:href="#a"/>
      </mask>
      <mask id="p" mask-type="alpha">
        <use xlink:href="#b"/>
      </mask>
      <mask id="n" mask-type="alpha">
        <use xlink:href="#c"/>
      </mask>
      <mask id="m" mask-type="alpha">
        <use xlink:href="#d"/>
      </mask>
      <mask id="l" mask-type="alpha">
        <use xlink:href="#e"/>
      </mask>
      <mask id="k" mask-type="alpha">
        <use xlink:href="#f"/>
      </mask>
      <mask id="j" mask-type="alpha">
        <use xlink:href="#g"/>
      </mask>
      <clipPath id="h">
        <path d="M0 0h500v500H0z"/>
      </clipPath>
      <clipPath id="i">
        <path d="M0 0h500v500H0z"/>
      </clipPath>
      <clipPath id="s">
        <path d="M0 0h1920v1080H0z"/>
      </clipPath>
      <clipPath id="q">
        <path d="M0 0h1920v1080H0z"/>
      </clipPath>
      <clipPath id="o">
        <path d="M0 0h1920v1080H0z"/>
      </clipPath>
    </defs>
    <g clip-path="url(#h)">
      <g clip-path="url(#i)" transform="translate(0 24)" style="display:block">
        <path d="M-6.816-205.027c-20.92 36.208-170.344 294.875-187.382 324.715-1.947 4.684 1.644 10.592 6.749 10.684 1.368.132 11.815.066 13.815.079 97.651.04 259.272-.026 357.187 0 1.526 0 3.79.013 3.895-.079.618.053 1.105-.198 1.658-.224 4.25-1.276 6.815-6.276 5.091-10.447-.408-.592-.237-.67-1.342-2.486C143.266 31.247 71.403-93.101 21.696-179.24c-3.052-5.052-11.868-20.735-14.881-25.774-2.96-5.144-10.684-5.21-13.644 0zm-20.511-11.842c9.105-16.065 30.997-20.709 45.904-9.762 3.566 2.645 6.513 6.039 8.763 9.762l4.96 8.592 9.921 17.183L200.973 83.875l9.921 17.183c1.671 2.987 3.21 5.25 5.236 9.644 1.605 4.105 2.435 8.539 2.29 12.973-.382 13.381-9.974 25.656-22.881 29.248-4.184 1.184-9.144 1.237-11.986 1.184-98.112-.118-259.378.092-357.187 0-6.723-.237-14.512.763-21.906-1.197-17.788-4.96-27.683-25.183-20.578-42.234 17.486-31.524 167.371-290.153 188.791-327.545" transform="translate(250 250)" style="display:block"/>
        <g mask="url(#j)" style="display:block">
          <path d="m202.134 244.025 41.827 72.456c2.684 4.658 9.407 4.658 12.091 0l41.826-72.456c2.684-4.658-.671-10.473-6.039-10.473h-83.652c-5.368 0-8.736 5.815-6.039 10.473zm44.182 47.642-21.525-37.274c-1.645-2.842.408-6.394 3.697-6.394h43.05c3.276 0 5.328 3.552 3.697 6.394l-21.525 37.274c-1.645 2.842-5.736 2.842-7.381 0z"/>
        </g>
        <g mask="url(#k)" style="display:block">
          <path d="M230.369 47.341c-22.906 53.22-42.589 115.018-23.274 172.146 2.802 7.868 6.288 15.42 10.604 22.591l-12.486 7.302c-4.684-7.881-8.618-16.486-11.657-25.222-17.749-52.128-4.526-108.427 14.486-158.029 3.197-8.184 6.605-16.262 10.157-24.248l12.157 5.447z"/>
        </g>
        <g mask="url(#l)" style="display:block">
          <path d="M448.039 356.347c-34.642-46.457-78.31-94.402-137.451-106.23-8.21-1.5-16.499-2.263-24.867-2.105l-.079-14.46c9.17-.118 18.578.776 27.669 2.513 54.01 10.697 96.165 50.286 129.61 91.56 5.486 6.855 10.776 13.855 15.92 20.92z"/>
        </g>
        <g mask="url(#m)" style="display:block">
          <path d="M71.59 390.345c57.549-6.776 120.914-20.617 160.727-65.93 5.408-6.355 10.21-13.158 14.262-20.486l12.565 7.158c-4.487 7.999-9.973 15.709-16.012 22.709-36.274 41.432-91.626 58.141-144.096 66.469a586 586 0 0 1-26.077 3.329l-1.355-13.249z"/>
        </g>
        <g mask="url(#n)" style="display:block">
          <g clip-path="url(#o)" transform="translate(-710 -290)">
            <path d="m26.6-48.803-69.413 93.109-5.881-7.184 62.386-93.517z" transform="translate(990.142 584.502)" style="display:block"/>
            <path d="M-69.58 28.086 57.952-72.23l11.212 14.81-133.09 92.966z" transform="translate(988.235 608.382)" style="display:block"/>
            <path d="m-101.789 16.832 210.317-98.614 8.268 18.054-214.415 89.649z" transform="translate(981.847 640.913)" style="display:block"/>
            <path d="m-165.267 36.82 324.014-66.518 4.06 20.75-326.033 56.216z" transform="translate(981.847 640.913)" style="display:block"/>
          </g>
        </g>
        <g mask="url(#p)" style="display:block">
          <g clip-path="url(#q)" transform="rotate(120 689.283 205.728)">
            <path d="m26.6-48.803-69.413 93.109-5.881-7.184 62.386-93.517z" transform="translate(990.142 584.502)" style="display:block"/>
            <path d="M-69.58 28.086 57.952-72.23l11.212 14.81-133.09 92.966z" transform="translate(988.235 608.382)" style="display:block"/>
            <path d="m-101.789 16.832 210.317-98.614 8.268 18.054-214.415 89.649z" transform="translate(981.847 640.913)" style="display:block"/>
            <path d="m-165.267 36.82 324.014-66.518 4.06 20.75-326.033 56.216z" transform="translate(981.847 640.913)" style="display:block"/>
          </g>
        </g>
        <g mask="url(#r)" style="display:block">
          <g clip-path="url(#s)" transform="rotate(-120 520.37 615.193)">
            <path d="m26.6-48.803-69.413 93.109-5.881-7.184 62.386-93.517z" transform="translate(990.142 584.502)" style="display:block"/>
            <path d="M-69.58 28.086 57.952-72.23l11.212 14.81-133.09 92.966z" transform="translate(988.235 608.382)" style="display:block"/>
            <path d="m-101.789 16.832 210.317-98.614 8.268 18.054-214.415 89.649z" transform="translate(981.847 640.913)" style="display:block"/>
            <path d="m-165.267 36.82 324.014-66.518 4.06 20.75-326.033 56.216z" transform="translate(981.847 640.913)" style="display:block"/>
          </g>
        </g>
      </g>
    </g>
  </svg>
