<svg width="270" height="250" viewBox="0 0 270 250" fill="none" xmlns="http://www.w3.org/2000/svg">
<path fill-rule="evenodd" clip-rule="evenodd" d="M134.121 193.437C132.873 192.57 130.891 191.704 128.909 191.704C125.091 191.704 123.109 193.654 123.109 198.132V202.755H129.056V210.629H123.109V235.404H114.594V197.554C114.594 188.525 118.998 183.902 126.413 183.902C129.79 183.902 132.873 184.697 135.075 186.069H142.563V223.053C142.563 226.736 143.517 228.326 145.426 228.326C146.821 228.326 147.922 227.748 148.95 227.025L150.712 233.382C148.803 234.899 145.94 236.127 141.976 236.127C136.911 236.127 134.121 233.093 134.121 226.448V193.437ZM38.5343 202.83H46.9031V205.936C48.9586 203.769 52.8494 202.035 57.1806 202.035C66.2835 202.035 72.2298 208.97 72.2298 218.649C72.2298 228.545 65.3292 236.274 54.6847 236.274C51.7482 236.274 48.8852 235.768 46.9766 234.684V249.998H38.5343V202.83ZM46.9766 213.376V226.594C49.2523 228.039 51.161 228.472 53.9506 228.472C59.8234 228.472 63.2003 224.283 63.2003 218.865C63.2003 213.665 60.117 209.909 54.5378 209.909C51.6748 209.836 49.032 211.137 46.9766 213.376ZM17.5451 202.176C6.90059 202.176 0 209.832 0 219.8C0 229.48 5.87283 236.414 15.0491 236.414C19.307 236.414 23.1977 234.68 25.3266 232.513V235.619H33.7688V208.243C27.4555 203.548 20.4815 202.176 17.5451 202.176ZM25.2532 225.073C23.1977 227.313 20.5549 228.613 17.6919 228.613C12.1127 228.613 9.02949 224.857 9.02949 219.656C9.02949 214.239 12.4064 209.977 18.2792 209.977C21.0688 209.977 22.9775 210.41 25.2532 211.855V225.073ZM84.2703 202.83H75.9015V249.998H84.3437V234.684C86.2524 235.768 89.1154 236.274 92.0518 236.274C102.696 236.274 109.597 228.545 109.597 218.649C109.597 208.97 103.651 202.035 94.5478 202.035C90.2166 202.035 86.3258 203.769 84.2703 205.936V202.83ZM84.3437 226.594V213.376C86.3992 211.137 89.042 209.836 91.905 209.909C97.4842 209.909 100.567 213.665 100.567 218.865C100.567 224.283 97.1906 228.472 91.3177 228.472C88.5281 228.472 86.6195 228.039 84.3437 226.594ZM186.899 219.154C186.899 209.331 179.852 202.035 168.84 202.035C157.902 202.035 150.781 209.331 150.781 219.154C150.781 228.978 157.829 236.274 168.84 236.274C179.852 236.274 186.899 228.906 186.899 219.154ZM177.87 219.154C177.87 224.789 174.052 228.472 168.84 228.472C163.701 228.472 159.884 224.572 159.884 219.154C159.884 213.52 163.848 209.909 168.84 209.909C173.979 209.909 177.87 213.665 177.87 219.154ZM228.824 235.622H221.262L214.215 217.491C213.884 216.701 213.675 215.851 213.47 215.018C213.357 214.557 213.245 214.101 213.114 213.663C212.82 215.108 212.453 216.336 211.939 217.636L204.892 235.622H197.698L186.906 202.828H195.936L201.221 220.597C201.612 221.806 201.791 222.806 201.983 223.883L201.983 223.884C202.044 224.222 202.105 224.569 202.176 224.931C202.267 224.588 202.35 224.259 202.433 223.929C202.68 222.941 202.928 221.952 203.424 220.597L209.59 202.828H217.078L223.465 220.525C223.979 221.97 224.346 223.486 224.713 225.003L224.713 225.004C225.006 223.487 225.373 221.898 225.74 220.309L230.586 202.828H239.101L239.079 202.898H243.938L251.647 220.74C252.173 222.005 252.559 223.224 252.954 224.471C253.055 224.79 253.157 225.111 253.262 225.435L253.303 225.218C253.584 223.767 253.877 222.25 254.436 220.668L260.382 202.898H269.999L257.079 235.475C252.234 247.177 249.151 249.994 244.232 249.994C241.222 249.994 239.02 248.839 237.111 247.466L239.827 241.182C240.708 241.688 241.956 242.338 243.278 242.338C245.407 242.338 246.948 240.676 248.343 237.281L249.077 235.548L236.941 209.722L228.824 235.622Z" fill="#171921"/>
<g clip-path="url(#clip0_4926_29074)">
<path d="M118.643 46.5581C117.97 47.0543 117.298 47.5506 116.625 48.0468C105.194 55.9865 70.5637 81.4599 62.6627 70.3773C54.9297 59.6256 63.167 29.1899 83.0037 14.4684C83.3399 14.1375 83.8442 13.9721 84.1805 13.6413C105.866 -1.41111 122.005 0.739235 129.906 11.6564C137.302 21.9119 129.065 38.1222 118.643 46.5581Z" fill="#8427E0"/>
<path d="M203.373 70.216C192.614 77.6594 175.803 69.0581 167.398 58.3063C167.061 57.8101 166.725 57.4793 166.389 56.9831C158.32 45.7351 132.431 11.6604 143.526 4.0515C154.621 -3.72283 186.73 4.71314 201.355 25.2241C201.692 25.7204 202.028 26.0512 202.364 26.5474C216.485 47.2238 214.3 62.607 203.373 70.216Z" fill="#2690DC"/>
<path d="M188.903 137.365C188.567 137.696 188.231 137.861 187.727 138.192C166.041 153.245 149.902 151.094 142.001 140.177C134.604 129.922 142.842 113.711 153.264 105.275C153.937 104.779 154.609 104.283 155.282 103.787C166.713 96.0123 201.343 70.3736 209.076 81.4561C216.977 92.2079 208.908 122.643 188.903 137.365Z" fill="#FFBD00"/>
<path d="M128.398 147.788C117.303 155.562 85.3627 147.126 70.7373 126.615C70.4011 126.284 70.0649 125.788 69.8968 125.457C55.6076 104.781 57.9611 89.232 68.8881 81.7885C79.647 74.345 96.4578 82.9464 104.863 93.6981C105.199 94.1943 105.536 94.5252 105.872 95.0214C113.773 106.104 139.661 140.179 128.398 147.788Z" fill="#E3006D"/>
<path d="M118.643 46.5581C103.177 53.34 70.2282 67.2345 65.3531 55.9865C61.1504 46.5581 68.8834 27.3704 83.0044 14.4684C83.3406 14.1375 83.8449 13.9721 84.1812 13.6413C105.867 -1.41111 122.005 0.739235 129.906 11.6564C137.303 21.9119 129.066 38.1221 118.643 46.5581Z" fill="#9327FF"/>
<path d="M203.378 70.2112C192.62 77.6547 175.809 69.0533 167.403 58.3016C160.511 42.5876 147.23 11.6557 158.326 7.02417C168.412 2.72348 189.257 11.3249 202.538 26.5427C216.491 47.2191 214.305 62.6023 203.378 70.2112Z" fill="#26A4FF"/>
<path d="M188.903 137.367C188.567 137.698 188.231 137.863 187.727 138.194C166.041 153.246 149.902 151.096 142.001 140.179C134.604 129.923 142.842 113.713 153.264 105.277C168.73 98.4952 201.679 84.6007 206.555 95.8486C210.925 105.277 203.192 124.465 188.903 137.367Z" fill="#FFCE00"/>
<path d="M113.941 144.81C103.855 149.111 83.0092 140.675 69.8968 125.457C55.6076 104.781 57.9611 89.232 68.8881 81.7885C79.647 74.345 96.4578 82.9464 104.863 93.6981C111.756 109.247 125.036 140.179 113.941 144.81Z" fill="#FB006D"/>
</g>
<defs>
<clipPath id="clip0_4926_29074">
<rect width="154.812" height="151.652" fill="white" transform="translate(57.7031)"/>
</clipPath>
</defs>
</svg>
