<svg xmlns="http://www.w3.org/2000/svg" width="112" height="98" fill="none" class="u-max-width-100-percent" viewBox="0 0 112 98"><path fill="#FD366E" d="M111.1 73.473v24.49H48.87c-18.13 0-33.96-9.849-42.429-24.49A48.7 48.7 0 0 1 0 52.293V45.67a48.5 48.5 0 0 1 1.732-10.048C7.545 15.064 26.448 0 48.871 0c22.422 0 41.323 15.064 47.136 35.623H69.398C65.03 28.922 57.47 24.491 48.872 24.491s-16.16 4.43-20.528 11.132a24.3 24.3 0 0 0-3.042 6.68 24.5 24.5 0 0 0-.921 6.679c0 7.02 2.952 13.348 7.685 17.811a24.4 24.4 0 0 0 16.806 6.68z"/><path fill="#FD366E" d="M111.1 42.303v24.49H65.676a24.4 24.4 0 0 0 7.686-17.81c0-2.316-.321-4.556-.922-6.68z"/></svg>