<svg version="1.1" id="prefix__Layer_1" xmlns="http://www.w3.org/2000/svg" x="0" y="0" viewBox="0 0 1235.7 1235.4"
    xml:space="preserve">
    <style>
        .prefix__st0 {
            fill: #fff
        }
    </style>
    <g id="prefix__Layer_2_1_">
        <g id="prefix__Layer_2-2">
            <g id="prefix__Layer_4">
                <circle class="prefix__st0" cx="618.6" cy="618.6" r="618.6" id="prefix__Layer_5" />
                <linearGradient id="prefix__SVGID_1_" gradientUnits="userSpaceOnUse" x1="617.37" y1="1257.3" x2="617.37"
                    y2="61.44" gradientTransform="matrix(1 0 0 -1 0 1278)">
                    <stop offset=".32" stop-color="#cd9d49" />
                    <stop offset=".99" stop-color="#875d27" />
                </linearGradient>
                <circle cx="617.4" cy="618.6" r="597.9" fill="url(#prefix__SVGID_1_)" />
            </g>
            <path class="prefix__st0"
                d="M1005.6 574.1c-4.8-4-12.4-10-22.6-17v-79.2c0-201.9-163.7-365.6-365.6-365.6-201.9 0-365.6 163.7-365.6 365.6v79.2c-10.2 7-17.7 13-22.6 17-4.1 3.4-6.5 8.5-6.5 13.9v94.9c0 5.4 2.4 10.5 6.5 14 11.3 9.4 37.2 29.1 77.5 49.3v9.2c0 24.9 16 45 35.8 45 19.8 0 35.8-20.2 35.8-45V527.8c0-24.9-16-45-35.8-45-19 0-34.5 18.5-35.8 41.9h-.1v-46.9c0-171.6 139.1-310.7 310.7-310.7C789 167.2 928 306.3 928 477.9v46.9c-1.3-23.4-16.8-41.9-35.8-41.9-19.8 0-35.8 20.2-35.8 45v227.6c0 24.9 16 45 35.8 45 19.8 0 35.8-20.2 35.8-45v-9.2c40.3-20.2 66.2-39.9 77.5-49.3 4.2-3.5 6.5-8.6 6.5-14v-95c.1-5.4-2.3-10.5-6.4-13.9z" />
            <path class="prefix__st0"
                d="M489.9 969.7c23.9 0 43.3-19.4 43.3-43.3V441.6c0-23.9-19.4-43.3-43.3-43.3h-44.7c-23.9 0-43.3 19.4-43.3 43.3v484.8c0 23.9 19.4 43.3 43.3 43.3h44.7zm-71.7-455.1h98.7v10.3h-98.7v-10.3zM639.7 969.7c23.9 0 43.3-19.4 43.3-43.3V441.6c0-23.9-19.4-43.3-43.3-43.3H595c-23.9 0-43.3 19.4-43.3 43.3v484.8c0 23.9 19.4 43.3 43.3 43.3h44.7zM568 514.6h98.7v10.3H568v-10.3zM789.6 969.7c23.9 0 43.3-19.4 43.3-43.3V441.6c0-23.9-19.4-43.3-43.3-43.3h-44.7c-23.9 0-43.3 19.4-43.3 43.3v484.8c0 23.9 19.4 43.3 43.3 43.3h44.7zm-71.7-455.1h98.7v10.3h-98.7v-10.3zM327.1 984.7h580.5c18 0 32.6 14.6 32.6 32.6s-14.6 32.6-32.6 32.6H327.1c-18 0-32.6-14.6-32.6-32.6s14.6-32.6 32.6-32.6z" />
        </g>
    </g>
</svg>