<?xml version="1.0" encoding="UTF-8" standalone="no"?>
<!-- Created with Inkscape (http://www.inkscape.org/) -->

<svg
   xmlns:dc="http://purl.org/dc/elements/1.1/"
   xmlns:cc="http://creativecommons.org/ns#"
   xmlns:rdf="http://www.w3.org/1999/02/22-rdf-syntax-ns#"
   xmlns:svg="http://www.w3.org/2000/svg"
   xmlns="http://www.w3.org/2000/svg"
   xmlns:sodipodi="http://sodipodi.sourceforge.net/DTD/sodipodi-0.dtd"
   xmlns:inkscape="http://www.inkscape.org/namespaces/inkscape"
   version="1.1"
   id="svg2"
   xml:space="preserve"
   width="64"
   height="64"
   viewBox="0 0 64 63.999999"
   sodipodi:docname="bitwarden-icon.svg"
   inkscape:version="0.92.2 5c3e80d, 2017-08-06"><metadata
     id="metadata8"><rdf:RDF><cc:Work
         rdf:about=""><dc:format>image/svg+xml</dc:format><dc:type
           rdf:resource="http://purl.org/dc/dcmitype/StillImage" /><dc:title></dc:title></cc:Work></rdf:RDF></metadata><defs
     id="defs6"><clipPath
       clipPathUnits="userSpaceOnUse"
       id="clipPath18"><path
         d="M 0,1500 H 1500 V 0 H 0 Z"
         id="path16"
         inkscape:connector-curvature="0" /></clipPath></defs><sodipodi:namedview
     pagecolor="#ffffff"
     bordercolor="#666666"
     borderopacity="1"
     objecttolerance="10"
     gridtolerance="10"
     guidetolerance="10"
     inkscape:pageopacity="0"
     inkscape:pageshadow="2"
     inkscape:window-width="1440"
     inkscape:window-height="799"
     id="namedview4"
     showgrid="false"
     fit-margin-top="50"
     fit-margin-left="50"
     fit-margin-right="50"
     fit-margin-bottom="50"
     inkscape:zoom="5.3400704"
     inkscape:cx="72.883247"
     inkscape:cy="23.722997"
     inkscape:window-x="0"
     inkscape:window-y="1"
     inkscape:window-maximized="1"
     inkscape:current-layer="g10" /><g
     id="g10"
     inkscape:groupmode="layer"
     inkscape:label="logo-vertical"
     transform="matrix(1.3333333,0,0,-1.3333333,31.882666,774.35078)"><path
       d="m 20.088053,578.76279 v -24.00016 c 0,-1.79111 -0.34893,-3.56734 -1.046785,-5.32749 -0.698165,-1.76104 -1.562895,-3.32302 -2.593423,-4.68822 -1.031908,-1.36442 -2.261363,-2.69188 -3.687599,-3.98376 -1.427771,-1.29219 -2.745111,-2.36474 -3.9537075,-3.21903 -1.2081373,-0.85369 -2.4685751,-1.66122 -3.7808519,-2.42195 -1.3125864,-0.76028 -2.2452616,-1.27562 -2.7971051,-1.54665 -0.5518437,-0.27117 -0.9947907,-0.47961 -1.3280751,-0.6253 -0.2500014,-0.12451 -0.5211689,-0.18713 -0.8124295,-0.18713 -0.2917201,0 -0.5624267,0.0627 -0.81258076,0.18713 -0.33343844,0.14566 -0.77607884,0.35413 -1.32776984,0.6253 -0.552611,0.27103 -1.4845188,0.78637 -2.7972576,1.54665 -1.3125851,0.76073 -2.5731749,1.56826 -3.7814668,2.42195 -1.2081351,0.85429 -2.5257829,1.92684 -3.9529389,3.21903 -1.427156,1.29188 -2.655998,2.61934 -3.687139,3.98376 -1.031297,1.3652 -1.896026,2.92718 -2.594036,4.68822 -0.69801,1.76015 -1.046939,3.53638 -1.046939,5.32749 v 24.00016 c 0,0.54172 0.198161,1.01088 0.594021,1.40629 0.395556,0.39586 0.864578,0.59402 1.405992,0.59402 h 36.000846 c 0.540954,0 1.009208,-0.19816 1.405377,-0.59402 0.396014,-0.39541 0.593868,-0.86457 0.593868,-1.40629 m -6.000346,-24.00016 v 20.00043 H 0.0880769 v -35.53105 c 2.4786974,1.31259 4.6980372,2.73943 6.6564844,4.281 4.8952787,3.83317 7.3431457,7.58318 7.3431457,11.24962"
       style="fill:#3c8dbc;fill-opacity:1;fill-rule:nonzero;stroke:none;stroke-width:0.15337521"
       id="path28"
       inkscape:connector-curvature="0" /></g></svg>