<?xml version="1.0" encoding="UTF-8"?>
<svg version="1.1" xmlns="http://www.w3.org/2000/svg" width="48" height="48">
<path d="M0 0 C0.66 0.33 1.32 0.66 2 1 C0.68 2.65 -0.64 4.3 -2 6 C-1.34 6.33 -0.68 6.66 0 7 C-0.11859375 7.74765625 -0.2371875 8.4953125 -0.359375 9.265625 C-1.40546104 15.33342534 -1.40546104 15.33342534 0.9375 20.6875 C1.618125 21.120625 2.29875 21.55375 3 22 C3.66 20.35 4.32 18.7 5 17 C5.66 17 6.32 17 7 17 C6.979375 16.030625 6.95875 15.06125 6.9375 14.0625 C7 11 7 11 8 10 C11 9.875 11 9.875 14 10 C15 11 15 11 15.0625 14.0625 C15.041875 15.031875 15.02125 16.00125 15 17 C17.31 17.33 19.62 17.66 22 18 C18.97981957 12.37391168 16.863403 9.79844234 11 7 C10.125 4.3125 10.125 4.3125 10 2 C15.64911169 -0.40087247 20.29782616 -0.42927615 26.07421875 1.80078125 C28.37881246 3.23589336 29.31356894 4.61005211 30.6875 6.9375 C31.10386719 7.62714844 31.52023438 8.31679687 31.94921875 9.02734375 C34.80854268 14.39521953 34.44020104 20.07300746 34 26 C32.75 29.4375 32.75 29.4375 31 32 C30.13375 33.299375 30.13375 33.299375 29.25 34.625 C24.50473849 39.63388715 18.72974091 42.04617479 11.875 42.375 C6.14872678 42.28066271 1.63973927 40.28713731 -3 37 C-8.87871924 30.88327593 -10.41890043 25.61147937 -10.34765625 17.21484375 C-9.65002122 10.76367934 -6.89195464 5.76582433 -2.1875 1.375 C-1.465625 0.92125 -0.74375 0.4675 0 0 Z " fill="#D44589" transform="translate(12,3)"/>
<path d="M0 0 C0.66 0.33 1.32 0.66 2 1 C0.68 2.65 -0.64 4.3 -2 6 C-1.34 6.33 -0.68 6.66 0 7 C-0.11859375 7.74765625 -0.2371875 8.4953125 -0.359375 9.265625 C-1.40546104 15.33342534 -1.40546104 15.33342534 0.9375 20.6875 C1.618125 21.120625 2.29875 21.55375 3 22 C3.66 20.35 4.32 18.7 5 17 C5.66 17 6.32 17 7 17 C6.979375 16.030625 6.95875 15.06125 6.9375 14.0625 C7 11 7 11 8 10 C11 9.875 11 9.875 14 10 C15 11 15 11 15.0625 14.0625 C15.041875 15.031875 15.02125 16.00125 15 17 C16.32 17.33 17.64 17.66 19 18 C18.67 18.66 18.34 19.32 18 20 C16.02 19.67 14.04 19.34 12 19 C12 20.32 12 21.64 12 23 C13.65 23.33 15.3 23.66 17 24 C17 24.33 17 24.66 17 25 C12.71 25 8.42 25 4 25 C4.33 25.99 4.66 26.98 5 28 C6.82025274 28.57999093 6.82025274 28.57999093 8.9375 28.8125 C11.12109375 29.26171875 11.12109375 29.26171875 13 30 C14.5 33.125 14.5 33.125 15 36 C16.65 36 18.3 36 20 36 C20 36.66 20 37.32 20 38 C21.32 38.33 22.64 38.66 24 39 C17.26237622 41.94005401 11.59701884 43.50220283 4.41796875 41.15625 C-1.7611547 38.41409027 -5.66464443 34.88302569 -9 29 C-11.27579151 22.17262547 -10.88973747 14.99210287 -7.8125 8.5 C-5.74496449 4.82569403 -3.62410926 2.27801154 0 0 Z " fill="#6C2877" transform="translate(12,3)"/>
<path d="M0 0 C0.66 0.33 1.32 0.66 2 1 C0.68 2.65 -0.64 4.3 -2 6 C-1.34 6.33 -0.68 6.66 0 7 C-0.10699219 7.73605469 -0.21398438 8.47210938 -0.32421875 9.23046875 C-1.2044272 15.28160357 -1.2044272 15.28160357 0.4375 21 C1.2109375 21.99 1.2109375 21.99 2 23 C2 23.99 2 24.98 2 26 C-0.31 26 -2.62 26 -5 26 C-5.33 24.68 -5.66 23.36 -6 22 C-6.99 22 -7.98 22 -9 22 C-9.5650489 15.16918664 -9.45956128 10.26713932 -5.37890625 4.59375 C-3.7658036 2.72931407 -2.12459979 1.2590221 0 0 Z " fill="#CA4084" transform="translate(12,3)"/>
<path d="M0 0 C1.5625 1.125 1.5625 1.125 2.5625 4.125 C-0.20014289 4.72232819 -2.59782769 5.125 -5.4375 5.125 C-6.4275 6.61 -6.4275 6.61 -7.4375 8.125 C-4.67473823 7.60231534 -2.1114124 7.01630413 0.5625 6.125 C0.07019231 12.64807692 0.07019231 12.64807692 -2.5 15.0625 C-3.139375 15.413125 -3.77875 15.76375 -4.4375 16.125 C-4.72882812 15.58230469 -5.02015625 15.03960938 -5.3203125 14.48046875 C-8.16477803 9.51607136 -10.20076021 7.62435308 -15.4375 5.125 C-16.3125 2.4375 -16.3125 2.4375 -16.4375 0.125 C-10.57655382 -2.36590213 -5.99521989 -2.15213022 0 0 Z " fill="#B93D79" transform="translate(38.4375,4.875)"/>
<path d="M0 0 C3 0.125 3 0.125 4 1.125 C4.04080783 3.12458364 4.04254356 5.12545254 4 7.125 C5.32 7.455 6.64 7.785 8 8.125 C7.67 8.785 7.34 9.445 7 10.125 C4.03 9.63 4.03 9.63 1 9.125 C1 10.445 1 11.765 1 13.125 C2.65 13.455 4.3 13.785 6 14.125 C6 14.455 6 14.785 6 15.125 C4.02090602 15.15186553 2.04171029 15.17133375 0.0625 15.1875 C-1.03964844 15.19910156 -2.14179688 15.21070313 -3.27734375 15.22265625 C-6 15.125 -6 15.125 -7 14.125 C-7.04080783 12.12541636 -7.04254356 10.12454746 -7 8.125 C-6.01 7.795 -5.02 7.465 -4 7.125 C-4.020625 6.155625 -4.04125 5.18625 -4.0625 4.1875 C-3.98042553 0.16585106 -3.98042553 0.16585106 0 0 Z " fill="#3C2C62" transform="translate(23,12.875)"/>
<path d="M0 0 C3.63 0.66 7.26 1.32 11 2 C11.33 3.32 11.66 4.64 12 6 C14.31 6 16.62 6 19 6 C19 6.66 19 7.32 19 8 C19.99 8.33 20.98 8.66 22 9 C14.53512789 9.60200582 9.23354417 8.27571622 3 4 C2.01 2.68 1.02 1.36 0 0 Z " fill="#412063" transform="translate(6,36)"/>
<path d="M0 0 C0.66 0.33 1.32 0.66 2 1 C2 1.66 2 2.32 2 3 C2.66 3.33 3.32 3.66 4 4 C3.67 5.98 3.34 7.96 3 10 C-0.3 10 -3.6 10 -7 10 C-6.67 8.35 -6.34 6.7 -6 5 C-3.69 5 -1.38 5 1 5 C0.67 3.35 0.34 1.7 0 0 Z " fill="#9C2F80" transform="translate(13,24)"/>
<path d="M0 0 C2.31 0.33 4.62 0.66 7 1 C7.66 2.98 8.32 4.96 9 7 C10.65 7 12.3 7 14 7 C14 7.66 14 8.32 14 9 C15.32 9.33 16.64 9.66 18 10 C13.28400182 10.92470553 10.32734391 11.22923777 6 9 C6 8.01 6 7.02 6 6 C5.01 6 4.02 6 3 6 C2.67 4.68 2.34 3.36 2 2 C1.34 2 0.68 2 0 2 C0 1.34 0 0.68 0 0 Z " fill="#952D7E" transform="translate(18,32)"/>
<path d="M0 0 C2.97851562 0.390625 2.97851562 0.390625 5.95703125 0.78125 C8.15471706 1.053233 8.15471706 1.053233 11 1 C10.67 2.98 10.34 4.96 10 7 C3.25 6.125 3.25 6.125 1 5 C0.375 2.4375 0.375 2.4375 0 0 Z " fill="#822E80" transform="translate(23,21)"/>
<path d="M0 0 C3.3 0 6.6 0 10 0 C10.33 1.98 10.66 3.96 11 6 C12.32 6 13.64 6 15 6 C15 6.99 15 7.98 15 9 C14.34 9 13.68 9 13 9 C13 8.34 13 7.68 13 7 C11.35 7.33 9.7 7.66 8 8 C6.5393715 5.35261084 6 4.10551666 6 1 C4.02 1 2.04 1 0 1 C0 0.67 0 0.34 0 0 Z " fill="#C63A8B" transform="translate(19,32)"/>
<path d="M0 0 C1.98 0 3.96 0 6 0 C6 2.31 6 4.62 6 7 C4.02 7 2.04 7 0 7 C0 4.69 0 2.38 0 0 Z " fill="#3D4F87" transform="translate(20,13)"/>
<path d="M0 0 C3.63 0.33 7.26 0.66 11 1 C11 1.99 11 2.98 11 4 C7.7 4 4.4 4 1 4 C0.67 2.68 0.34 1.36 0 0 Z " fill="#E84F94" transform="translate(16,28)"/>
<path d="M0 0 C1.32 0.33 2.64 0.66 4 1 C4 1.66 4 2.32 4 3 C4.66 3 5.32 3 6 3 C6 4.32 6 5.64 6 7 C4.33388095 7.042721 2.66617115 7.04063832 1 7 C0 6 0 6 -0.0625 2.9375 C-0.041875 1.968125 -0.02125 0.99875 0 0 Z " fill="#505CA3" transform="translate(16,21)"/>
<path d="M0 0 C0.33 0 0.66 0 1 0 C1 2.64 1 5.28 1 8 C1.99 8 2.98 8 4 8 C4.33 9.98 4.66 11.96 5 14 C1.125 13.125 1.125 13.125 0 12 C-0.07244053 9.98035801 -0.08377188 7.95832876 -0.0625 5.9375 C-0.05347656 4.83277344 -0.04445312 3.72804688 -0.03515625 2.58984375 C-0.02355469 1.73519531 -0.01195313 0.88054688 0 0 Z " fill="#81286D" transform="translate(2,17)"/>
<path d="M0 0 C0.8125 1.6875 0.8125 1.6875 1 4 C-1.4375 6.75 -1.4375 6.75 -4 9 C-4.99 6.69 -5.98 4.38 -7 2 C-6.34 2 -5.68 2 -5 2 C-5 2.66 -5 3.32 -5 4 C-3.35 2.68 -1.7 1.36 0 0 Z " fill="#7C276F" transform="translate(38,12)"/>
<path d="M0 0 C2.9375 0.8125 2.9375 0.8125 6 2 C6.33 2.99 6.66 3.98 7 5 C4.75 5.6875 4.75 5.6875 2 6 C-0.3125 4.5625 -0.3125 4.5625 -2 3 C-1 1 -1 1 0 0 Z " fill="#AE3671" transform="translate(34,4)"/>
<path d="M0 0 C6.625 0.75 6.625 0.75 10 3 C10 4.32 10 5.64 10 7 C5.04303419 5.76075855 2.88341534 4.21422242 0 0 Z " fill="#351C59" transform="translate(6,36)"/>
<path d="M0 0 C1.98 0.66 3.96 1.32 6 2 C5.67 3.32 5.34 4.64 5 6 C5 5.01 5 4.02 5 3 C4.236875 3.515625 3.47375 4.03125 2.6875 4.5625 C1.800625 5.036875 0.91375 5.51125 0 6 C-0.99 5.67 -1.98 5.34 -3 5 C-1.125 1.125 -1.125 1.125 0 0 Z " fill="#C83A8B" transform="translate(34,8)"/>
<path d="M0 0 C0.66 0.33 1.32 0.66 2 1 C1.401875 1.7425 0.80375 2.485 0.1875 3.25 C-1.58173222 5.47417764 -3.30860915 7.71662235 -5 10 C-5.66 9.67 -6.32 9.34 -7 9 C-5.64978174 4.58110387 -3.73884332 2.65654657 0 0 Z " fill="#6E2546" transform="translate(12,3)"/>
<path d="M0 0 C0.99 0 1.98 0 3 0 C3.66 2.31 4.32 4.62 5 7 C3.68 6.67 2.36 6.34 1 6 C0.67 4.02 0.34 2.04 0 0 Z " fill="#B23287" transform="translate(25,33)"/>
<path d="M0 0 C0.66 0.33 1.32 0.66 2 1 C1.67 2.98 1.34 4.96 1 7 C0.01 6.67 -0.98 6.34 -2 6 C-2.6875 3.9375 -2.6875 3.9375 -3 2 C-2.01 1.34 -1.02 0.68 0 0 Z " fill="#AF3181" transform="translate(32,21)"/>
<path d="M0 0 C1.65 0 3.3 0 5 0 C4.1875 1.9375 4.1875 1.9375 3 4 C2.01 4.33 1.02 4.66 0 5 C0 3.35 0 1.7 0 0 Z " fill="#4671B7" transform="translate(20,14)"/>
</svg>
