<?xml version="1.0" standalone="no"?>
<!DOCTYPE svg PUBLIC "-//W3C//DTD SVG 20010904//EN"
 "http://www.w3.org/TR/2001/REC-SVG-20010904/DTD/svg10.dtd">
<svg version="1.0" xmlns="http://www.w3.org/2000/svg"
 width="600.000000pt" height="601.000000pt" viewBox="0 0 600.000000 601.000000"
 preserveAspectRatio="xMidYMid meet">

<g transform="translate(0.000000,601.000000) scale(0.100000,-0.100000)"
fill="#000000" stroke="none">
<path d="M2250 2940 l0 -500 90 0 90 0 0 500 0 500 -90 0 -90 0 0 -500z"/>
<path d="M906 3408 c-154 -29 -297 -149 -356 -297 -120 -305 68 -633 393 -683
142 -22 301 21 397 108 l42 38 -25 21 c-13 11 -45 38 -71 59 l-47 39 -22 -20
c-53 -50 -108 -68 -197 -67 -102 0 -140 15 -209 79 -66 62 -94 132 -94 235 0
105 28 173 97 238 82 77 182 100 294 67 29 -9 68 -30 87 -47 l35 -30 65 57
c36 31 65 60 65 65 0 4 -19 24 -41 45 -98 88 -255 124 -413 93z"/>
<path d="M1637 3156 c-151 -42 -257 -190 -257 -359 0 -94 20 -159 69 -229 119
-165 368 -197 480 -61 l31 38 0 -53 0 -52 90 0 90 0 0 355 0 355 -95 0 -95 0
0 -47 0 -48 -26 33 c-14 18 -44 42 -66 53 -51 26 -157 33 -221 15z m233 -190
c72 -47 107 -153 79 -237 -58 -172 -289 -188 -365 -26 -37 81 -29 154 24 226
56 75 178 93 262 37z"/>
<path d="M3056 3154 c-178 -56 -284 -231 -255 -416 31 -197 206 -333 404 -315
86 8 166 41 221 91 l47 42 -65 57 c-36 31 -68 57 -71 57 -2 0 -19 -13 -37 -30
-94 -87 -247 -51 -299 71 -41 94 -18 188 62 252 31 26 49 32 100 35 58 4 66 2
116 -32 29 -20 55 -36 56 -36 2 0 32 23 67 52 35 28 65 53 67 55 12 9 -61 68
-118 96 -55 27 -76 32 -155 34 -62 2 -107 -2 -140 -13z"/>
<path d="M3739 3156 c-102 -27 -190 -103 -238 -205 -23 -49 -26 -69 -26 -156
0 -87 3 -107 26 -155 41 -85 90 -135 177 -177 72 -36 81 -38 171 -38 84 0 104
4 155 28 93 43 140 88 182 172 66 133 54 282 -30 397 -88 119 -264 175 -417
134z m178 -167 c71 -27 123 -108 123 -195 0 -67 -20 -113 -66 -153 -75 -67
-177 -66 -250 1 -48 44 -66 87 -66 156 1 85 37 148 104 181 47 23 110 27 155
10z"/>
<path d="M4610 3157 c-19 -6 -54 -30 -77 -54 l-43 -42 0 44 0 45 -90 0 -90 0
0 -355 0 -355 95 0 95 0 0 226 c0 250 5 275 63 316 40 29 119 30 164 3 61 -36
68 -64 71 -317 l3 -228 89 0 88 0 4 233 c4 253 9 278 64 314 39 25 125 24 161
-3 54 -40 58 -59 61 -311 l3 -233 95 0 96 0 -4 263 c-4 279 -4 280 -59 362
-81 122 -301 140 -408 34 -22 -23 -41 -46 -41 -52 0 -6 -16 8 -36 32 -52 60
-104 84 -194 87 -41 2 -91 -2 -110 -9z"/>
<path d="M2578 2644 c-59 -32 -76 -121 -33 -172 32 -38 76 -56 119 -48 47 9
74 33 90 80 17 50 6 92 -34 129 -35 31 -96 36 -142 11z"/>
</g>
</svg>
