<svg xmlns="http://www.w3.org/2000/svg" fill="none" viewBox="0 0 324 65">
  <path fill="#009486" d="M26.6 40.2c-1.4 1.3-3 2.3-4.9 3.1-1.9.7-4 1.1-6.2 1.1-3 0-5.6-.6-8-1.9-2.3-1.3-4.2-3-5.5-5.2-1.3-2.2-2-4.7-2-7.5s.7-5.3 2-7.5 3.2-3.9 5.5-5.2c2.3-1.3 5-1.9 8-1.9 2.2 0 4.3.4 6.2 1.1 1.9.7 3.5 1.7 4.9 3.1l-5.7 5.4c-1.3-1.7-3.1-2.5-5.4-2.5-2.1 0-3.8.7-5.1 2.2-1.3 1.4-2 3.2-2 5.4s.7 4 2 5.4c1.3 1.4 3 2.2 5.1 2.2 2.2 0 4-.8 5.4-2.5l5.7 5.2ZM31.1 36.1c0-1.9.5-3.5 1.6-5s2.6-2.6 4.4-3.5c1.9-.9 4.1-1.3 6.5-1.3a23.36 23.36 0 0 1 5 .5c-.6-3.1-2.8-4.6-6.7-4.6-2.3 0-4.5.9-6.8 2.6L32.3 18c1.9-.9 3.9-1.6 5.8-2.1 1.9-.4 3.7-.7 5.4-.7 2.7 0 5.1.5 7.1 1.5s3.5 2.5 4.6 4.3c1.1 1.9 1.7 4 1.7 6.6v16.2h-6.8l-.5-3c-1 1.1-2.3 2-3.8 2.6-1.5.6-3.2 1-5 1-2.8 0-5.2-.8-7-2.3a7.42 7.42 0 0 1-2.7-6Zm8-1.8c0 .9.4 1.7 1.1 2.3.7.6 1.7.9 2.8.9 1.6 0 3-.5 4.1-1.5 1.1-1 1.6-2.2 1.6-3.6v-.6c-.7-.2-1.4-.4-2.2-.5-.8-.1-1.6-.2-2.3-.2-1.6 0-2.8.3-3.7.8-.9.5-1.4 1.3-1.4 2.4ZM61.9 40.3l3.8-6.1c1.6 1.1 3.1 1.9 4.4 2.5 1.4.6 2.6.9 3.6.9.8 0 1.5-.2 2-.6.5-.4.8-.9.8-1.4 0-.8-.5-1.5-1.4-2-.9-.5-2-1-3.3-1.5-1.3-.5-2.6-1.2-3.9-1.8-1.3-.7-2.4-1.6-3.3-2.7a6.4 6.4 0 0 1-1.3-4.2c0-2.4.9-4.3 2.8-5.9 1.9-1.5 4.5-2.3 8-2.3 1.7 0 3.5.2 5.3.6 1.9.4 3.6 1.1 5.1 2l-3.6 6.1c-.8-.5-1.9-1-3.2-1.4-1.3-.4-2.4-.6-3.4-.6-.5 0-1.1.1-1.7.3-.6.2-.9.6-.9 1.2 0 .7.4 1.3 1.3 1.7.9.4 1.9.9 3.1 1.4 1.3.5 2.6 1.1 4 1.8s2.5 1.6 3.5 2.7c.9 1.1 1.4 2.6 1.4 4.4 0 1.8-.5 3.4-1.5 4.7-1 1.3-2.4 2.3-4 3-1.7.7-3.5 1.1-5.6 1.1-1.9 0-3.9-.3-6-1-2.1-.5-4.1-1.5-6-2.9ZM88.6 15.8h4.6v-7h8.1v7h6.8v7h-6.8v10.3c0 1.3.4 2.4 1.3 3.1.9.8 1.9 1.1 3.2 1.1 1 0 2-.2 3-.6v6.6c-1.8.7-3.5 1-5.2 1-3.3 0-5.9-.9-7.7-2.7-1.8-1.8-2.7-4.3-2.7-7.7V22.5h-4.6v-6.7ZM113.1 29.8c0-2.8.6-5.3 2-7.5 1.3-2.2 3.1-3.9 5.3-5.2 2.3-1.3 4.8-1.9 7.7-1.9 2.9 0 5.4.6 7.7 1.9 2.2 1.3 4 3 5.3 5.2 1.3 2.2 2 4.7 2 7.5s-.7 5.3-2 7.5-3.1 3.9-5.3 5.2c-2.2 1.3-4.8 1.9-7.7 1.9-2.9 0-5.5-.6-7.7-1.9-2.3-1.3-4-3-5.3-5.2-1.4-2.2-2-4.7-2-7.5Zm7.8 0c0 2.2.7 4 2 5.4 1.3 1.4 3 2.2 5.1 2.2 2.1 0 3.8-.7 5.1-2.2 1.3-1.4 2-3.2 2-5.4s-.7-4-2-5.4a6.87 6.87 0 0 0-5.1-2.2c-2.1 0-3.8.7-5.1 2.2-1.3 1.4-2 3.2-2 5.4ZM148.4 15.8h7.6l.2 3c1.2-1.1 2.6-2 4.1-2.7 1.6-.6 3.3-.9 5.1-.9 2.6 0 5 .6 7 1.9 2.1 1.3 3.7 3 4.9 5.2 1.2 2.2 1.8 4.7 1.8 7.5s-.6 5.3-1.8 7.5c-1.2 2.2-2.8 3.9-4.9 5.2-2.1 1.3-4.4 1.9-7 1.9-1.8 0-3.4-.3-4.9-.9-1.5-.6-2.9-1.4-4-2.5v23.8h-8.1v-49Zm15.2 6.4c-2.1 0-3.8.7-5.1 2.2-1.3 1.4-2 3.2-2 5.4s.7 4 2 5.4c1.3 1.4 3 2.2 5.1 2.2 2.1 0 3.8-.7 5.1-2.2 1.3-1.4 2-3.2 2-5.4s-.7-4-2-5.4a6.67 6.67 0 0 0-5.1-2.2ZM182.4 29.8c0-2.8.6-5.3 2-7.5 1.3-2.2 3.1-3.9 5.3-5.2 2.3-1.3 4.8-1.9 7.7-1.9 2.9 0 5.4.6 7.7 1.9 2.2 1.3 4 3 5.3 5.2 1.3 2.2 2 4.7 2 7.5s-.7 5.3-2 7.5-3.1 3.9-5.3 5.2c-2.2 1.3-4.8 1.9-7.7 1.9-2.9 0-5.5-.6-7.7-1.9-2.3-1.3-4-3-5.3-5.2-1.3-2.2-2-4.7-2-7.5Zm7.9 0c0 2.2.7 4 2 5.4 1.3 1.4 3 2.2 5.1 2.2 2.1 0 3.8-.7 5.1-2.2 1.3-1.4 2-3.2 2-5.4s-.7-4-2-5.4a6.87 6.87 0 0 0-5.1-2.2c-2.1 0-3.8.7-5.1 2.2-1.3 1.4-2 3.2-2 5.4ZM215.8 29.8c0-2.8.6-5.3 1.8-7.5 1.2-2.2 2.8-3.9 4.9-5.2 2.1-1.3 4.4-1.9 7-1.9 1.8 0 3.4.3 4.9.9 1.5.6 2.9 1.4 4 2.5V0h8.1v43.9h-7.6l-.2-3c-1.2 1.1-2.6 2-4.1 2.7-1.6.6-3.3.9-5.1.9-2.6 0-5-.6-7-1.9-2.1-1.3-3.7-3-4.9-5.2-1.2-2.3-1.8-4.8-1.8-7.6Zm8.3 0c0 2.2.7 4 2 5.4 1.3 1.4 3 2.2 5.1 2.2 2.1 0 3.8-.7 5.1-2.2 1.3-1.4 2-3.2 2-5.4s-.7-4-2-5.4a6.87 6.87 0 0 0-5.1-2.2c-2.1 0-3.8.7-5.1 2.2-1.3 1.4-2 3.2-2 5.4ZM318.7 44h-10.82s-1.13-2.41-1.6-3.26c-.45-.86-1.55-.82-1.55-.82h-29.38s-1.07-.14-1.6.82c-.57.95-1.63 3.26-1.63 3.26h-10.65a4.47 4.47 0 0 1-4.47-4.44V4.47A4.47 4.47 0 0 1 261.44 0h57.23a4.47 4.47 0 0 1 4.47 4.44v35.09a4.45 4.45 0 0 1-4.43 4.47Z"></path>
  <path fill="#E7F9E4" d="M274.95 9.51h30.2a9.34 9.34 0 0 1 9.4 9.44c0 5.18-4.22 9.4-9.4 9.4h-30.2a9.42 9.42 0 0 1 0-18.84Z"></path>
  <path fill="#009486" d="M302.77 15.36a4.61 4.61 0 0 0-3.64 7.46s1.58-1.18 3.8-1.18c1.67 0 3.6 1.01 3.6 1.01a4.61 4.61 0 0 0-3.76-7.29ZM277.23 15.36a4.61 4.61 0 0 0-3.77 7.3s1.94-1.02 3.6-1.02c2.23 0 3.8 1.18 3.8 1.18a4.61 4.61 0 0 0-3.64-7.45Z"></path>
</svg>