<?xml version="1.0" encoding="UTF-8"?>
<svg width="2458px" height="512px" viewBox="0 0 2458 512" version="1.1" xmlns="http://www.w3.org/2000/svg" xmlns:xlink="http://www.w3.org/1999/xlink">
    <!-- Generator: Sketch 60.1 (88133) - https://sketch.com -->
    <title>on_white</title>
    <desc>Created with Sketch.</desc>
    <g id="Logo" stroke="none" stroke-width="1" fill="none" fill-rule="evenodd">
        <g id="on_white" fill-rule="nonzero">
            <g id="woot-log">
                <circle id="Oval" fill="#47A7F6" cx="256" cy="256" r="256"></circle>
                <path d="M362.807947,368.807947 L244.122956,368.807947 C178.699407,368.807947 125.456954,315.561812 125.456954,250.12177 C125.456954,184.703089 178.699407,131.456954 244.124143,131.456954 C309.565494,131.456954 362.807947,184.703089 362.807947,250.12177 L362.807947,368.807947 Z" id="Fill-1" stroke="#FFFFFF" stroke-width="6" fill="#FFFFFF"></path>
            </g>
            <path d="M772.982159,256.84801 C768.65756,250.216959 762.170758,244.66714 753.52156,240.198388 C744.872362,235.729635 735.64669,233.495293 725.844265,233.495293 C715.176921,233.495293 705.735022,235.513409 697.518283,239.549701 C689.301545,243.585993 682.310215,248.991661 676.544083,255.766866 C670.777951,262.542071 666.381342,270.398308 663.354122,279.335813 C660.326903,288.273317 658.813316,297.643141 658.813316,307.445566 C658.813316,317.24799 660.326903,326.617814 663.354122,335.555319 C666.381342,344.492823 670.777951,352.34906 676.544083,359.124265 C682.310215,365.89947 689.373621,371.305138 697.734512,375.34143 C706.095404,379.377723 715.609379,381.395839 726.276723,381.395839 C736.655761,381.395839 746.09766,379.377723 754.602705,375.34143 C763.10775,371.305138 770.09908,365.827395 775.576905,358.908036 L802.821743,383.558127 C794.172545,393.648858 783.361209,401.505095 770.387412,407.127074 C757.413615,412.749053 742.710199,415.56 726.276723,415.56 C710.41986,415.56 695.78852,412.96528 682.382263,407.775761 C668.976006,402.586242 657.371839,395.306609 647.569415,385.936645 C637.76699,376.566681 630.054905,365.250816 624.432926,351.988713 C618.810947,338.726609 616,323.879042 616,307.445566 C616,291.300396 618.738872,276.59698 624.216697,263.334876 C629.694522,250.072773 637.334533,238.684833 647.136957,229.170715 C656.939381,219.656597 668.543548,212.304889 681.949805,207.115371 C695.356062,201.925852 709.843251,199.331131 725.411808,199.331131 C739.827138,199.331131 754.170176,202.214154 768.441352,207.980286 C782.712529,213.746418 794.028393,222.107184 802.389285,233.062835 L772.982159,256.84801 Z M885.42117,236.090039 C890.322383,225.999308 898.683149,217.35024 910.503719,210.142575 C922.32429,202.93491 935.586194,199.331131 950.289831,199.331131 C963.551935,199.331131 974.939874,201.565474 984.453992,206.034226 C993.96811,210.502979 1001.89642,216.485251 1008.23917,223.981222 C1014.58191,231.477194 1019.26682,240.270413 1022.29404,250.361144 C1025.32126,260.451875 1026.83485,271.263211 1026.83485,282.795475 L1026.83485,409.938049 L986.183823,409.938049 L986.183823,296.634122 C986.183823,288.273231 985.535143,280.344918 984.237763,272.848947 C982.940384,265.352975 980.56189,258.722023 977.102211,252.955891 C973.642549,247.189759 968.957619,242.576922 963.047334,239.117243 C957.137049,235.657564 949.424963,233.92775 939.910845,233.92775 C923.765676,233.92775 910.503771,240.054174 900.124733,252.307204 C889.745696,264.560235 884.556255,280.921389 884.556255,301.391157 L884.556255,409.938049 L843.905228,409.938049 L843.905228,83 L884.556255,83 L884.556255,236.090039 L885.42117,236.090039 Z M1223.17066,277.173524 C1223.17066,261.893274 1218.55783,250.57741 1209.33202,243.225592 C1200.1062,235.873773 1187.85336,232.197919 1172.57311,232.197919 C1161.04084,232.197919 1150.15743,234.432262 1139.92255,238.901014 C1129.68766,243.369767 1121.11067,249.063737 1114.19131,255.983095 L1092.56843,230.035631 C1102.65916,220.521513 1114.98408,213.025654 1129.54356,207.547828 C1144.10305,202.070003 1159.74344,199.331131 1176.46523,199.331131 C1191.16886,199.331131 1203.92624,201.421323 1214.73774,205.601769 C1225.54923,209.782214 1234.41453,215.476184 1241.33389,222.683849 C1248.25325,229.891514 1253.4427,238.396431 1256.90237,248.198856 C1260.36205,258.00128 1262.09186,268.524313 1262.09186,279.76827 L1262.09186,369.287022 C1262.09186,376.206381 1262.30809,383.486013 1262.74055,391.126138 C1263.17301,398.766263 1263.96584,405.036837 1265.11906,409.938049 L1228.36016,409.938049 C1226.0537,400.135625 1224.90049,390.333348 1224.90049,380.530923 L1223.60312,380.530923 C1216.10715,391.486574 1206.66525,399.991491 1195.27714,406.04593 C1183.88903,412.100368 1170.4109,415.127542 1154.84234,415.127542 C1146.76976,415.127542 1138.33691,414.046409 1129.54356,411.884109 C1120.75021,409.72181 1112.74982,406.190107 1105.54216,401.288895 C1098.33449,396.387682 1092.35222,389.900881 1087.59516,381.828296 C1082.8381,373.755712 1080.45961,363.809283 1080.45961,351.988713 C1080.45961,336.420156 1084.63999,324.095234 1093.00088,315.013576 C1101.36178,305.931918 1112.31726,299.012664 1125.86767,294.255605 C1139.41808,289.498546 1154.6981,286.399296 1171.70819,284.957763 C1188.71828,283.51623 1205.87227,282.795475 1223.17066,282.795475 L1223.17066,277.173524 Z M1213.22414,312.202601 C1203.1334,312.202601 1192.68245,312.635054 1181.87095,313.499974 C1171.05945,314.364894 1161.25717,316.094707 1152.46382,318.689467 C1143.67047,321.284226 1136.39084,325.176307 1130.62471,330.365826 C1124.85858,335.555345 1121.97555,342.474599 1121.97555,351.123797 C1121.97555,357.178236 1123.20084,362.223526 1125.65144,366.259818 C1128.10205,370.29611 1131.34545,373.611587 1135.38174,376.206346 C1139.41803,378.801105 1143.88672,380.602995 1148.78793,381.612068 C1153.68914,382.621141 1158.73443,383.12567 1163.92395,383.12567 C1182.95219,383.12567 1197.58353,377.4317 1207.81841,366.043589 C1218.0533,354.655478 1223.17066,340.31244 1223.17066,323.014044 L1223.17066,312.202601 L1213.22414,312.202601 Z M1425.99334,238.252328 L1371.50367,238.252328 L1371.50367,345.069389 C1371.50367,357.466573 1373.81009,366.331868 1378.42299,371.66554 C1383.0359,376.999212 1390.3876,379.666008 1400.47834,379.666008 C1404.22632,379.666008 1408.26255,379.233554 1412.58715,378.368635 C1416.91175,377.503715 1420.80383,376.206355 1424.26351,374.476515 L1425.56088,407.775761 C1420.65967,409.5056 1415.254,410.875036 1409.34372,411.884109 C1403.43343,412.893182 1397.30701,413.397711 1390.96427,413.397711 C1371.64772,413.397711 1356.87223,408.064119 1346.63735,397.396775 C1336.40246,386.729431 1331.2851,370.728655 1331.2851,349.393966 L1331.2851,238.252328 L1291.93144,238.252328 L1291.93144,204.953082 L1331.2851,204.953082 L1331.2851,146.13883 L1371.50367,146.13883 L1371.50367,204.953082 L1425.99334,204.953082 L1425.99334,238.252328 Z M1506.07776,204.953082 L1552.35074,361.502783 L1553.21566,361.502783 L1602.08338,204.953082 L1644.8967,204.953082 L1694.62934,361.502783 L1695.49425,361.502783 L1741.76723,204.953082 L1784.58055,204.953082 L1716.68468,409.938049 L1674.30382,409.938049 L1623.70627,255.983095 L1622.84135,255.983095 L1572.67625,409.938049 L1530.2954,409.938049 L1461.96707,204.953082 L1506.07776,204.953082 Z M2032.81129,307.013108 C2032.81129,322.869971 2030.00034,337.429236 2024.37836,350.691339 C2018.75638,363.953443 2010.97222,375.413458 2001.02564,385.07173 C1991.07907,394.730001 1979.33075,402.22586 1965.78034,407.559532 C1952.22993,412.893204 1937.67066,415.56 1922.10211,415.56 C1906.53355,415.56 1891.97429,412.893204 1878.42388,407.559532 C1864.87346,402.22586 1853.19722,394.730001 1843.3948,385.07173 C1833.59237,375.413458 1825.88029,363.953443 1820.25831,350.691339 C1814.63633,337.429236 1811.82538,322.869971 1811.82538,307.013108 C1811.82538,291.156245 1814.63633,276.669056 1820.25831,263.551105 C1825.88029,250.433155 1833.59237,239.117291 1843.3948,229.603173 C1853.19722,220.089055 1864.87346,212.665272 1878.42388,207.331599 C1891.97429,201.997927 1906.53355,199.331131 1922.10211,199.331131 C1937.67066,199.331131 1952.22993,201.997927 1965.78034,207.331599 C1979.33075,212.665272 1991.07907,220.089055 2001.02564,229.603173 C2010.97222,239.117291 2018.75638,250.433155 2024.37836,263.551105 C2030.00034,276.669056 2032.81129,291.156245 2032.81129,307.013108 Z M1990.43043,307.013108 C1990.43043,297.210684 1988.91683,287.84086 1985.88962,278.903355 C1982.8624,269.96585 1978.46579,262.109613 1972.69966,255.334408 C1966.93353,248.559203 1959.79805,243.153536 1951.293,239.117243 C1942.78796,235.080951 1933.05776,233.062835 1922.10211,233.062835 C1911.14646,233.062835 1901.41625,235.080951 1892.91121,239.117243 C1884.40616,243.153536 1877.27068,248.559203 1871.50455,255.334408 C1865.73842,262.109613 1861.34181,269.96585 1858.31459,278.903355 C1855.28737,287.84086 1853.77378,297.210684 1853.77378,307.013108 C1853.77378,316.815532 1855.28737,326.185356 1858.31459,335.122861 C1861.34181,344.060365 1865.73842,351.988678 1871.50455,358.908036 C1877.27068,365.827395 1884.40616,371.305138 1892.91121,375.34143 C1901.41625,379.377723 1911.14646,381.395839 1922.10211,381.395839 C1933.05776,381.395839 1942.78796,379.377723 1951.293,375.34143 C1959.79805,371.305138 1966.93353,365.827395 1972.69966,358.908036 C1978.46579,351.988678 1982.8624,344.060365 1985.88962,335.122861 C1988.91683,326.185356 1990.43043,316.815532 1990.43043,307.013108 Z M2296.61051,307.013108 C2296.61051,322.869971 2293.79956,337.429236 2288.17758,350.691339 C2282.5556,363.953443 2274.77144,375.413458 2264.82486,385.07173 C2254.87829,394.730001 2243.12997,402.22586 2229.57956,407.559532 C2216.02915,412.893204 2201.46988,415.56 2185.90133,415.56 C2170.33277,415.56 2155.77351,412.893204 2142.22309,407.559532 C2128.67268,402.22586 2116.99644,394.730001 2107.19402,385.07173 C2097.39159,375.413458 2089.67951,363.953443 2084.05753,350.691339 C2078.43555,337.429236 2075.6246,322.869971 2075.6246,307.013108 C2075.6246,291.156245 2078.43555,276.669056 2084.05753,263.551105 C2089.67951,250.433155 2097.39159,239.117291 2107.19402,229.603173 C2116.99644,220.089055 2128.67268,212.665272 2142.22309,207.331599 C2155.77351,201.997927 2170.33277,199.331131 2185.90133,199.331131 C2201.46988,199.331131 2216.02915,201.997927 2229.57956,207.331599 C2243.12997,212.665272 2254.87829,220.089055 2264.82486,229.603173 C2274.77144,239.117291 2282.5556,250.433155 2288.17758,263.551105 C2293.79956,276.669056 2296.61051,291.156245 2296.61051,307.013108 Z M2254.22965,307.013108 C2254.22965,297.210684 2252.71605,287.84086 2249.68884,278.903355 C2246.66162,269.96585 2242.26501,262.109613 2236.49888,255.334408 C2230.73275,248.559203 2223.59727,243.153536 2215.09222,239.117243 C2206.58718,235.080951 2196.85698,233.062835 2185.90133,233.062835 C2174.94568,233.062835 2165.21547,235.080951 2156.71043,239.117243 C2148.20538,243.153536 2141.0699,248.559203 2135.30377,255.334408 C2129.53764,262.109613 2125.14103,269.96585 2122.11381,278.903355 C2119.08659,287.84086 2117.573,297.210684 2117.573,307.013108 C2117.573,316.815532 2119.08659,326.185356 2122.11381,335.122861 C2125.14103,344.060365 2129.53764,351.988678 2135.30377,358.908036 C2141.0699,365.827395 2148.20538,371.305138 2156.71043,375.34143 C2165.21547,379.377723 2174.94568,381.395839 2185.90133,381.395839 C2196.85698,381.395839 2206.58718,379.377723 2215.09222,375.34143 C2223.59727,371.305138 2230.73275,365.827395 2236.49888,358.908036 C2242.26501,351.988678 2246.66162,344.060365 2249.68884,335.122861 C2252.71605,326.185356 2254.22965,316.815532 2254.22965,307.013108 Z M2453.16021,238.252328 L2398.67053,238.252328 L2398.67053,345.069389 C2398.67053,357.466573 2400.97695,366.331868 2405.58986,371.66554 C2410.20276,376.999212 2417.55447,379.666008 2427.6452,379.666008 C2431.39319,379.666008 2435.42942,379.233554 2439.75402,378.368635 C2444.07862,377.503715 2447.9707,376.206355 2451.43038,374.476515 L2452.72775,407.775761 C2447.82654,409.5056 2442.42087,410.875036 2436.51059,411.884109 C2430.6003,412.893182 2424.47388,413.397711 2418.13113,413.397711 C2398.81459,413.397711 2384.0391,408.064119 2373.80421,397.396775 C2363.56933,386.729431 2358.45196,370.728655 2358.45196,349.393966 L2358.45196,238.252328 L2319.09831,238.252328 L2319.09831,204.953082 L2358.45196,204.953082 L2358.45196,146.13883 L2398.67053,146.13883 L2398.67053,204.953082 L2453.16021,204.953082 L2453.16021,238.252328 Z" id="chatwoot" stroke="#273445" stroke-width="8" fill="#273444"></path>
        </g>
    </g>
</svg>