<?xml version="1.0" encoding="UTF-8"?>
<!DOCTYPE svg PUBLIC "-//W3C//DTD SVG 1.1//EN" "http://www.w3.org/Graphics/SVG/1.1/DTD/svg11.dtd">
<svg xmlns="http://www.w3.org/2000/svg" version="1.1" width="234px" height="245px" style="shape-rendering:geometricPrecision; text-rendering:geometricPrecision; image-rendering:optimizeQuality; fill-rule:evenodd; clip-rule:evenodd" xmlns:xlink="http://www.w3.org/1999/xlink">
<g><path style="opacity:1" fill="#1a1d20" d="M 57.5,-0.5 C 58.5,-0.5 59.5,-0.5 60.5,-0.5C 63.806,3.91646 67.4727,8.08312 71.5,12C 86.178,12.8328 100.845,12.6662 115.5,11.5C 114.484,8.86628 114.484,6.19962 115.5,3.5C 135.181,2.0004 154.848,2.16707 174.5,4C 175.833,6.66667 175.833,9.33333 174.5,12C 188.266,10.3377 200.1,14.171 210,23.5C 213.73,28.2277 216.064,33.561 217,39.5C 217.333,49.5 217.667,59.5 218,69.5C 221.004,71.3392 223.504,73.6726 225.5,76.5C 223.621,80.5532 221.121,84.2199 218,87.5C 217.333,104.833 217.333,122.167 218,139.5C 223.106,143.63 228.273,147.63 233.5,151.5C 233.5,152.5 233.5,153.5 233.5,154.5C 228.352,160.763 223.186,167.096 218,173.5C 217.667,184.833 217.333,196.167 217,207.5C 213.819,223.181 204.319,232.181 188.5,234.5C 189.045,237.998 188.212,240.998 186,243.5C 177.42,243.097 168.753,243.097 160,243.5C 158.931,240.792 157.764,238.125 156.5,235.5C 130.506,234.333 104.506,234.167 78.5,235C 77.3785,238.07 75.7118,240.737 73.5,243C 64.392,243.122 55.5587,243.289 47,243.5C 46.502,240.518 46.3354,237.518 46.5,234.5C 31.9392,233.061 22.4392,225.061 18,210.5C 17.8224,152.987 17.3224,95.8201 16.5,39C 19.8683,35.0885 20.2017,30.9219 17.5,26.5C 31.5531,18.4804 44.8865,9.4804 57.5,-0.5 Z"/></g>
<g><path style="opacity:1" fill="#0f4a8c" d="M 144.5,8.5 C 144.5,8.83333 144.5,9.16667 144.5,9.5C 143.833,9.5 143.167,9.5 142.5,9.5C 138.609,10.7274 136.609,13.394 136.5,17.5C 135.07,17.5792 133.736,17.2458 132.5,16.5C 129.807,19.65 127.474,22.9833 125.5,26.5C 123.517,26.8432 122.183,26.1765 121.5,24.5C 124.093,19.2421 126.426,14.5754 128.5,10.5C 129.738,10.19 129.738,9.68999 128.5,9C 132.887,8.77398 137.221,8.27398 141.5,7.5C 142.417,8.12723 143.417,8.46056 144.5,8.5 Z"/></g>
<g><path style="opacity:1" fill="#8bc5ed" d="M 128.5,10.5 C 126.426,14.5754 124.093,19.2421 121.5,24.5C 120.512,19.3595 120.179,14.0262 120.5,8.5C 123.533,8.13152 126.2,8.79818 128.5,10.5 Z"/></g>
<g><path style="opacity:1" fill="#93cdf6" d="M 144.5,9.5 C 144.5,9.16667 144.5,8.83333 144.5,8.5C 146.5,8.5 148.5,8.5 150.5,8.5C 154.953,8.56209 159.619,8.72876 164.5,9C 162.019,12.8057 159.685,16.6391 157.5,20.5C 157.167,20.5 156.833,20.5 156.5,20.5C 156.904,17.9896 156.404,15.3229 155,12.5C 154.424,15.1242 153.09,15.7908 151,14.5C 150.51,15.7932 150.343,17.1266 150.5,18.5C 149.997,23.5 149.664,23.1667 149.5,17.5C 149.65,13.5301 147.983,10.8635 144.5,9.5 Z"/></g>
<g><path style="opacity:1" fill="#c08772" d="M 64.5,12.5 C 63.9035,13.9354 63.9035,15.602 64.5,17.5C 63.8333,17.5 63.1667,17.5 62.5,17.5C 61.7387,16.6091 60.7387,15.9424 59.5,15.5C 58.537,15.9698 58.537,16.6365 59.5,17.5C 57.8793,17.7869 56.8793,18.7869 56.5,20.5C 57.4415,20.4895 58.1081,20.9895 58.5,22C 58.0109,23.5637 57.6776,25.0637 57.5,26.5C 56.8333,26.5 56.1667,26.5 55.5,26.5C 55.7989,24.396 55.4656,22.396 54.5,20.5C 53.2638,21.2458 51.9305,21.5792 50.5,21.5C 50.6427,19.7376 50.3094,18.0709 49.5,16.5C 51.9288,15.1187 51.5954,14.1187 48.5,13.5C 48.8333,12.5 49.5,11.8333 50.5,11.5C 52.9386,13.1647 54.4386,15.4981 55,18.5C 58.5266,14.5423 57.6932,11.8757 52.5,10.5C 54.4293,8.85176 56.4293,7.18509 58.5,5.5C 59.2421,7.10822 59.4087,8.77489 59,10.5C 61.301,8.47545 63.1343,9.14212 64.5,12.5 Z"/></g>
<g><path style="opacity:1" fill="#91b0cb" d="M 142.5,9.5 C 143.167,9.5 143.833,9.5 144.5,9.5C 147.983,10.8635 149.65,13.5301 149.5,17.5C 147.695,16.7629 146.029,15.7629 144.5,14.5C 143.294,16.4841 143.294,18.4841 144.5,20.5C 144.043,21.2975 143.376,21.6309 142.5,21.5C 141.833,20.8333 141.167,20.1667 140.5,19.5C 139.508,19.3284 138.842,19.6618 138.5,20.5C 137.441,18.274 137.608,15.9406 139,13.5C 141.071,12.8971 142.238,11.5638 142.5,9.5 Z"/></g>
<g><path style="opacity:1" fill="#8ecaf3" d="M 169.5,8.5 C 169.5,14.5 169.5,20.5 169.5,26.5C 161.568,27.787 160.568,25.9537 166.5,21C 166.167,20.8333 165.833,20.6667 165.5,20.5C 163.493,22.5332 161.493,24.5332 159.5,26.5C 159.5,26.1667 159.5,25.8333 159.5,25.5C 159.34,23.8008 159.506,22.1341 160,20.5C 162.872,16.8175 165.038,12.8175 166.5,8.5C 167.5,8.5 168.5,8.5 169.5,8.5 Z"/></g>
<g><path style="opacity:1" fill="#eeda92" d="M 52.5,10.5 C 57.6932,11.8757 58.5266,14.5423 55,18.5C 54.4386,15.4981 52.9386,13.1647 50.5,11.5C 51.1667,11.1667 51.8333,10.8333 52.5,10.5 Z"/></g>
<g><path style="opacity:1" fill="#325576" d="M 169.5,8.5 C 168.5,8.5 167.5,8.5 166.5,8.5C 165.038,12.8175 162.872,16.8175 160,20.5C 159.506,22.1341 159.34,23.8008 159.5,25.5C 158.711,25.2172 158.044,24.7172 157.5,24C 158.684,22.8545 158.684,21.6879 157.5,20.5C 159.685,16.6391 162.019,12.8057 164.5,9C 159.619,8.72876 154.953,8.56209 150.5,8.5C 156.932,7.19274 163.266,7.19274 169.5,8.5 Z"/></g>
<g><path style="opacity:1" fill="#efd1c2" d="M 48.5,13.5 C 51.5954,14.1187 51.9288,15.1187 49.5,16.5C 50.3094,18.0709 50.6427,19.7376 50.5,21.5C 51.9305,21.5792 53.2638,21.2458 54.5,20.5C 55.4656,22.396 55.7989,24.396 55.5,26.5C 54.1667,26.5 52.8333,26.5 51.5,26.5C 52.8499,25.1765 52.6833,24.1765 51,23.5C 49.2509,23.7483 48.4176,24.7483 48.5,26.5C 46.8333,26.5 45.1667,26.5 43.5,26.5C 43.5111,24.4534 43.8444,22.4534 44.5,20.5C 44.1667,19.8333 43.8333,19.1667 43.5,18.5C 42.8182,19.2427 42.1515,19.9094 41.5,20.5C 41.5,19.8333 41.5,19.1667 41.5,18.5C 43.5313,16.4776 45.8646,14.8109 48.5,13.5 Z"/></g>
<g><path style="opacity:1" fill="#7f91a8" d="M 156.5,20.5 C 155.055,22.0627 153.389,23.396 151.5,24.5C 151.247,22.1727 151.914,20.1727 153.5,18.5C 152.451,15.9548 151.451,15.9548 150.5,18.5C 150.343,17.1266 150.51,15.7932 151,14.5C 153.09,15.7908 154.424,15.1242 155,12.5C 156.404,15.3229 156.904,17.9896 156.5,20.5 Z"/></g>
<g><path style="opacity:1" fill="#362e2e" d="M 142.5,9.5 C 142.238,11.5638 141.071,12.8971 139,13.5C 137.608,15.9406 137.441,18.274 138.5,20.5C 138.573,22.0269 137.906,23.0269 136.5,23.5C 136.5,22.5 136.5,21.5 136.5,20.5C 136.5,19.5 136.5,18.5 136.5,17.5C 136.609,13.394 138.609,10.7274 142.5,9.5 Z"/></g>
<g><path style="opacity:1" fill="#1d1d1f" d="M 62.5,17.5 C 62.5,18.5 62.5,19.5 62.5,20.5C 61.5,19.5 60.5,18.5 59.5,17.5C 58.537,16.6365 58.537,15.9698 59.5,15.5C 60.7387,15.9424 61.7387,16.6091 62.5,17.5 Z"/></g>
<g><path style="opacity:1" fill="#d6c2bd" d="M 64.5,12.5 C 66.5,13.8333 68.1667,15.5 69.5,17.5C 68.3226,19.7843 66.6559,20.1177 64.5,18.5C 64.5,18.1667 64.5,17.8333 64.5,17.5C 63.9035,15.602 63.9035,13.9354 64.5,12.5 Z"/></g>
<g><path style="opacity:1" fill="#7fb0d4" d="M 136.5,17.5 C 136.5,18.5 136.5,19.5 136.5,20.5C 134.692,20.4914 133.025,20.9914 131.5,22C 129.957,23.7392 128.29,25.2392 126.5,26.5C 126.167,26.5 125.833,26.5 125.5,26.5C 127.474,22.9833 129.807,19.65 132.5,16.5C 133.736,17.2458 135.07,17.5792 136.5,17.5 Z"/></g>
<g><path style="opacity:1" fill="#e8d891" d="M 41.5,18.5 C 41.5,19.1667 41.5,19.8333 41.5,20.5C 41.719,21.675 41.3857,22.675 40.5,23.5C 39.4728,22.2086 38.4728,22.2086 37.5,23.5C 37.5,22.5 37.5,21.5 37.5,20.5C 38.6049,19.3995 39.9382,18.7329 41.5,18.5 Z"/></g>
<g><path style="opacity:1" fill="#67584c" d="M 69.5,17.5 C 70.4013,18.2905 71.0679,19.2905 71.5,20.5C 71.8072,22.4458 71.8072,24.1125 71.5,25.5C 69.9309,24.286 69.0976,22.6193 69,20.5C 68.2742,23.285 66.7742,23.9516 64.5,22.5C 64.5,21.1667 64.5,19.8333 64.5,18.5C 66.6559,20.1177 68.3226,19.7843 69.5,17.5 Z"/></g>
<g><path style="opacity:1" fill="#eddb61" d="M 62.5,17.5 C 63.1667,17.5 63.8333,17.5 64.5,17.5C 64.5,17.8333 64.5,18.1667 64.5,18.5C 64.5,19.8333 64.5,21.1667 64.5,22.5C 63.5,22.1667 62.8333,21.5 62.5,20.5C 62.5,19.5 62.5,18.5 62.5,17.5 Z"/></g>
<g><path style="opacity:1" fill="#86a6c0" d="M 115.5,19.5 C 115.5,21.1667 115.5,22.8333 115.5,24.5C 104.833,24.5 94.1667,24.5 83.5,24.5C 81.7041,23.2073 80.0375,21.7073 78.5,20C 90.8288,19.5001 103.162,19.3335 115.5,19.5 Z"/></g>
<g><path style="opacity:1" fill="#0b498d" d="M 136.5,20.5 C 136.5,21.5 136.5,22.5 136.5,23.5C 135.167,23.5 134.5,24.1667 134.5,25.5C 132.052,26.4731 129.385,26.8064 126.5,26.5C 128.29,25.2392 129.957,23.7392 131.5,22C 133.025,20.9914 134.692,20.4914 136.5,20.5 Z"/></g>
<g><path style="opacity:1" fill="#c0a092" d="M 140.5,19.5 C 140.249,21.1703 139.582,22.6703 138.5,24C 140.929,24.4512 141.096,25.2845 139,26.5C 137.436,26.0879 135.936,25.7546 134.5,25.5C 134.5,24.1667 135.167,23.5 136.5,23.5C 137.906,23.0269 138.573,22.0269 138.5,20.5C 138.842,19.6618 139.508,19.3284 140.5,19.5 Z"/></g>
<g><path style="opacity:1" fill="#dbb7a8" d="M 149.5,17.5 C 149.664,23.1667 149.997,23.5 150.5,18.5C 151.451,15.9548 152.451,15.9548 153.5,18.5C 151.914,20.1727 151.247,22.1727 151.5,24.5C 151.5,25.1667 151.5,25.8333 151.5,26.5C 150.25,26.4226 149.417,25.756 149,24.5C 146.099,27.3178 143.599,26.9845 141.5,23.5C 141.863,22.8165 142.196,22.1499 142.5,21.5C 143.376,21.6309 144.043,21.2975 144.5,20.5C 143.294,18.4841 143.294,16.4841 144.5,14.5C 146.029,15.7629 147.695,16.7629 149.5,17.5 Z"/></g>
<g><path style="opacity:1" fill="#e2bead" d="M 59.5,17.5 C 60.5,18.5 61.5,19.5 62.5,20.5C 62.8333,21.5 63.5,22.1667 64.5,22.5C 66.7742,23.9516 68.2742,23.285 69,20.5C 69.0976,22.6193 69.9309,24.286 71.5,25.5C 71.8072,24.1125 71.8072,22.4458 71.5,20.5C 72.8333,21.1667 73.8333,22.1667 74.5,23.5C 73.596,24.209 73.2627,25.209 73.5,26.5C 68.1667,26.5 62.8333,26.5 57.5,26.5C 57.6776,25.0637 58.0109,23.5637 58.5,22C 58.1081,20.9895 57.4415,20.4895 56.5,20.5C 56.8793,18.7869 57.8793,17.7869 59.5,17.5 Z"/></g>
<g><path style="opacity:1" fill="#114a8c" d="M 156.5,20.5 C 156.833,20.5 157.167,20.5 157.5,20.5C 158.684,21.6879 158.684,22.8545 157.5,24C 158.044,24.7172 158.711,25.2172 159.5,25.5C 159.5,25.8333 159.5,26.1667 159.5,26.5C 156.833,26.5 154.167,26.5 151.5,26.5C 151.5,25.8333 151.5,25.1667 151.5,24.5C 153.389,23.396 155.055,22.0627 156.5,20.5 Z"/></g>
<g><path style="opacity:1" fill="#cd967a" d="M 43.5,26.5 C 42.8333,26.8333 42.1667,27.1667 41.5,27.5C 38.5,27.8333 37.1667,26.5 37.5,23.5C 38.4728,22.2086 39.4728,22.2086 40.5,23.5C 41.3857,22.675 41.719,21.675 41.5,20.5C 42.1515,19.9094 42.8182,19.2427 43.5,18.5C 43.8333,19.1667 44.1667,19.8333 44.5,20.5C 43.8444,22.4534 43.5111,24.4534 43.5,26.5 Z"/></g>
<g><path style="opacity:1" fill="#ce544e" d="M 51.5,26.5 C 51.1667,26.5 50.8333,26.5 50.5,26.5C 49.8333,26.5 49.1667,26.5 48.5,26.5C 48.4176,24.7483 49.2509,23.7483 51,23.5C 52.6833,24.1765 52.8499,25.1765 51.5,26.5 Z"/></g>
<g><path style="opacity:1" fill="#41769b" d="M 115.5,19.5 C 116.468,21.6074 116.802,23.9407 116.5,26.5C 105.828,26.6665 95.1615,26.4998 84.5,26C 83.944,25.6174 83.6107,25.1174 83.5,24.5C 94.1667,24.5 104.833,24.5 115.5,24.5C 115.5,22.8333 115.5,21.1667 115.5,19.5 Z"/></g>
<g><path style="opacity:1" fill="#86a6c1" d="M 174.5,19.5 C 186.946,17.2274 197.446,20.5607 206,29.5C 208.354,33.2023 209.854,37.2023 210.5,41.5C 209.094,41.0269 208.427,40.0269 208.5,38.5C 204.778,31.6179 199.112,27.1179 191.5,25C 185.843,24.5006 180.176,24.3339 174.5,24.5C 174.5,22.8333 174.5,21.1667 174.5,19.5 Z"/></g>
<g><path style="opacity:1" fill="#998a87" d="M 37.5,20.5 C 37.5,21.5 37.5,22.5 37.5,23.5C 37.1667,26.5 38.5,27.8333 41.5,27.5C 40.1516,28.6006 38.6516,29.6006 37,30.5C 36.1224,27.7846 34.6224,25.4513 32.5,23.5C 34.0287,22.2371 35.6954,21.2371 37.5,20.5 Z"/></g>
<g><path style="opacity:1" fill="#665346" d="M 74.5,23.5 C 78.0933,25.1693 78.0933,26.336 74.5,27C 66.3225,27.8228 58.3225,27.6561 50.5,26.5C 50.8333,26.5 51.1667,26.5 51.5,26.5C 52.8333,26.5 54.1667,26.5 55.5,26.5C 56.1667,26.5 56.8333,26.5 57.5,26.5C 62.8333,26.5 68.1667,26.5 73.5,26.5C 73.2627,25.209 73.596,24.209 74.5,23.5 Z"/></g>
<g><path style="opacity:1" fill="#40779c" d="M 174.5,19.5 C 174.5,21.1667 174.5,22.8333 174.5,24.5C 180.176,24.3339 185.843,24.5006 191.5,25C 199.112,27.1179 204.778,31.6179 208.5,38.5C 207.508,45.9818 207.175,53.6484 207.5,61.5C 205.983,61.4894 204.816,60.8228 204,59.5C 208.171,35.6827 198.338,24.516 174.5,26C 173.189,23.7265 173.189,21.5598 174.5,19.5 Z"/></g>
<g><path style="opacity:1" fill="#ba927d" d="M 27.5,28.5 C 29.1207,28.7869 30.1207,29.7869 30.5,31.5C 29.1667,32.8333 27.8333,32.8333 26.5,31.5C 27.1272,30.5832 27.4606,29.5832 27.5,28.5 Z"/></g>
<g><path style="opacity:1" fill="#7da0b9" d="M 120.5,76.5 C 118.765,72.3797 115.598,70.7131 111,71.5C 105.819,71.0065 101.986,73.0065 99.5,77.5C 98.596,78.209 98.2627,79.209 98.5,80.5C 77.6664,84.9718 57.9997,81.9718 39.5,71.5C 37.8958,70.713 37.2291,69.3797 37.5,67.5C 38.3333,59.9164 38.3333,52.4164 37.5,45C 38.384,39.1156 41.7174,35.4489 47.5,34C 92.7684,33.715 138.268,33.8816 184,34.5C 184.689,33.6433 185.522,32.9767 186.5,32.5C 189.167,34.5 191.833,36.5 194.5,38.5C 195.407,41.0567 196.407,43.5567 197.5,46C 197.369,60.1958 197.369,73.1958 197.5,85C 197.37,86.0588 196.87,86.8921 196,87.5C 171.344,79.4158 146.178,75.7491 120.5,76.5 Z"/></g>
<g><path style="opacity:1" fill="#a73235" d="M 29.5,37.5 C 32.5572,36.0303 33.0572,36.697 31,39.5C 30.7216,38.5842 30.2216,37.9175 29.5,37.5 Z"/></g>
<g><path style="opacity:1" fill="#305781" d="M 208.5,38.5 C 208.427,40.0269 209.094,41.0269 210.5,41.5C 210.831,48.8635 210.497,56.1968 209.5,63.5C 208.478,63.1445 207.811,62.4778 207.5,61.5C 207.175,53.6484 207.508,45.9818 208.5,38.5 Z"/></g>
<g><path style="opacity:1" fill="#40769b" d="M 27.5,42.5 C 30.9788,46.6058 32.3121,51.4391 31.5,57C 31.3333,60.1667 31.1667,63.3333 31,66.5C 29.3308,67.8463 28.1642,69.513 27.5,71.5C 26.1667,61.8333 26.1667,52.1667 27.5,42.5 Z"/></g>
<g><path style="opacity:1" fill="#305784" d="M 27.5,42.5 C 26.1667,52.1667 26.1667,61.8333 27.5,71.5C 27.5,77.5 27.5,83.5 27.5,89.5C 26.1667,112.167 26.1667,134.833 27.5,157.5C 27.5,163.5 27.5,169.5 27.5,175.5C 26.3427,184.324 26.176,193.324 27,202.5C 28.117,208.069 30.7837,212.736 35,216.5C 35.3988,216.272 35.5654,215.938 35.5,215.5C 37.4333,217.596 39.7666,219.096 42.5,220C 92.1667,220.667 141.833,220.667 191.5,220C 194.862,218.657 197.862,216.824 200.5,214.5C 204.11,210.953 206.443,206.62 207.5,201.5C 207.145,197.202 206.978,192.869 207,188.5C 206.329,189.252 205.496,189.586 204.5,189.5C 206.127,187.37 207.96,185.37 210,183.5C 210.667,191.833 210.667,200.167 210,208.5C 207.234,217.598 201.401,223.765 192.5,227C 142.5,227.667 92.5,227.667 42.5,227C 32.9247,224.423 27.0913,218.257 25,208.5C 24.3333,151.833 24.3333,95.1667 25,38.5C 25.6622,39.9839 26.4955,41.3172 27.5,42.5 Z"/></g>
<g><path style="opacity:1" fill="#94292d" d="M 212.5,83.5 C 211.596,84.209 211.263,85.209 211.5,86.5C 210.175,87.9526 209.342,87.6192 209,85.5C 208.283,86.0442 207.783,86.7109 207.5,87.5C 206.417,87.4606 205.417,87.1272 204.5,86.5C 203.336,80.1928 203.169,73.8595 204,67.5C 208.623,70.4353 213.29,73.4353 218,76.5C 217.874,79.0977 216.874,81.431 215,83.5C 214.023,84.7736 213.189,84.7736 212.5,83.5 Z"/></g>
<g><path style="opacity:1" fill="#dfd3b6" d="M 31.5,68.5 C 32.8333,68.5 34.1667,68.5 35.5,68.5C 35.5,69.5 35.5,70.5 35.5,71.5C 34.1667,71.5 32.8333,71.5 31.5,71.5C 31.5,70.5 31.5,69.5 31.5,68.5 Z"/></g>
<g><path style="opacity:1" fill="#618dac" d="M 198.5,87.5 C 197.778,87.9175 197.278,88.5842 197,89.5C 196.5,124.832 196.333,160.165 196.5,195.5C 181.366,197.788 166.2,199.455 151,200.5C 131.83,200.006 112.996,195.506 94.5,187C 75.1516,177.242 56.6516,166.076 39,153.5C 38.5172,154.448 38.3505,155.448 38.5,156.5C 37.71,155.391 37.21,154.058 37,152.5C 36.3333,133.167 36.3333,113.833 37,94.5C 37.2896,92.9559 37.9563,91.6226 39,90.5C 39.4995,84.1754 39.6662,77.8421 39.5,71.5C 57.9997,81.9718 77.6664,84.9718 98.5,80.5C 98.2627,79.209 98.596,78.209 99.5,77.5C 100.195,82.5915 101.028,87.5915 102,92.5C 94.2296,97.9383 89.2296,105.272 87,114.5C 82.17,115.154 77.3367,115.987 72.5,117C 70.5359,118.451 69.2026,120.284 68.5,122.5C 63.2799,128.852 63.6133,135.018 69.5,141C 76.2685,141.144 82.9352,140.31 89.5,138.5C 92.3092,142.477 95.3092,146.31 98.5,150C 102.351,152.169 106.185,154.336 110,156.5C 109.672,161.475 109.672,166.475 110,171.5C 110.827,176.843 113.993,179.176 119.5,178.5C 128.105,178.898 131.772,174.898 130.5,166.5C 131.794,165.71 132.961,164.71 134,163.5C 134.747,160.076 134.58,156.743 133.5,153.5C 138.785,148.041 143.118,141.874 146.5,135C 152.756,135.579 159.089,135.579 165.5,135C 167,134.167 168.167,133 169,131.5C 169.667,128.167 169.667,124.833 169,121.5C 168.303,119.416 167.136,117.749 165.5,116.5C 165.161,101.243 158.328,97.5768 145,105.5C 139.269,97.0533 131.436,91.7199 121.5,89.5C 121.414,85.1434 121.08,80.81 120.5,76.5C 146.178,75.7491 171.344,79.4158 196,87.5C 196.87,86.8921 197.37,86.0588 197.5,85C 197.369,73.1958 197.369,60.1958 197.5,46C 196.407,43.5567 195.407,41.0567 194.5,38.5C 191.833,36.5 189.167,34.5 186.5,32.5C 185.522,32.9767 184.689,33.6433 184,34.5C 138.268,33.8816 92.7684,33.715 47.5,34C 41.7174,35.4489 38.384,39.1156 37.5,45C 38.3333,52.4164 38.3333,59.9164 37.5,67.5C 36.8826,67.3893 36.3826,67.056 36,66.5C 35.3333,57.8333 35.3333,49.1667 36,40.5C 37.4421,36.7251 39.9421,33.8917 43.5,32C 92.5,31.3333 141.5,31.3333 190.5,32C 194.219,33.263 196.719,35.763 198,39.5C 198.5,55.4965 198.667,71.4965 198.5,87.5 Z"/></g>
<g><path style="opacity:1" fill="#1c1e20" d="M 120.5,76.5 C 121.08,80.81 121.414,85.1434 121.5,89.5C 131.436,91.7199 139.269,97.0533 145,105.5C 158.328,97.5768 165.161,101.243 165.5,116.5C 165.16,118.679 164.16,120.512 162.5,122C 157.599,123.325 152.599,123.825 147.5,123.5C 145.775,133.783 140.441,141.616 131.5,147C 132.117,149.277 132.784,151.444 133.5,153.5C 134.58,156.743 134.747,160.076 134,163.5C 132.961,164.71 131.794,165.71 130.5,166.5C 116.367,170.54 110.534,165.206 113,150.5C 103.526,148.181 96.0263,143.015 90.5,135C 86.1454,134.964 81.9787,135.798 78,137.5C 72.5913,137.081 69.5913,134.081 69,128.5C 68.5045,126.527 68.3379,124.527 68.5,122.5C 69.2026,120.284 70.5359,118.451 72.5,117C 77.3367,115.987 82.17,115.154 87,114.5C 89.2296,105.272 94.2296,97.9383 102,92.5C 101.028,87.5915 100.195,82.5915 99.5,77.5C 101.986,73.0065 105.819,71.0065 111,71.5C 115.598,70.7131 118.765,72.3797 120.5,76.5 Z"/></g>
<g><path style="opacity:1" fill="#f5ecab" d="M 115.5,82.5 C 111.435,79.6349 108.101,80.3016 105.5,84.5C 104.637,82.1046 104.637,79.7713 105.5,77.5C 108.758,76.5827 112.091,76.2493 115.5,76.5C 115.5,78.5 115.5,80.5 115.5,82.5 Z"/></g>
<g><path style="opacity:1" fill="#4d7da0" d="M 29.5,73.5 C 32.1873,73.3359 34.854,73.5026 37.5,74C 31.0255,75.2148 31.0255,76.3814 37.5,77.5C 37.5,79.8333 37.5,82.1667 37.5,84.5C 31.627,84.5981 31.2936,85.5981 36.5,87.5C 34.3052,88.7691 32.1385,88.7691 30,87.5C 29.5008,82.8452 29.3342,78.1785 29.5,73.5 Z"/></g>
<g><path style="opacity:1" fill="#492f2e" d="M 212.5,83.5 C 212.338,81.4727 212.505,79.4727 213,77.5C 214.493,79.5632 214.326,81.5632 212.5,83.5 Z"/></g>
<g><path style="opacity:1" fill="#ead961" d="M 115.5,82.5 C 116.652,88.3265 117.152,94.3265 117,100.5C 115,101.167 113,101.833 111,102.5C 108.864,96.631 107.031,90.631 105.5,84.5C 108.101,80.3016 111.435,79.6349 115.5,82.5 Z"/></g>
<g><path style="opacity:1" fill="#563231" d="M 211.5,86.5 C 209.657,90.6897 206.99,94.3564 203.5,97.5C 202.13,94.5153 202.63,91.8486 205,89.5C 205.333,89.8333 205.667,90.1667 206,90.5C 206.5,89.3333 207.333,88.5 208.5,88C 208.272,87.6012 207.938,87.4346 207.5,87.5C 207.783,86.7109 208.283,86.0442 209,85.5C 209.342,87.6192 210.175,87.9526 211.5,86.5 Z"/></g>
<g><path style="opacity:1" fill="#e8d85f" d="M 31.5,90.5 C 37.1857,90.0048 37.6857,91.0048 33,93.5C 31.9614,92.7562 31.4614,91.7562 31.5,90.5 Z"/></g>
<g><path style="opacity:1" fill="#3e7398" d="M 27.5,89.5 C 28.9073,91.3083 30.074,93.3083 31,95.5C 31.6667,114.5 31.6667,133.5 31,152.5C 29.8236,154.196 28.657,155.862 27.5,157.5C 26.1667,134.833 26.1667,112.167 27.5,89.5 Z"/></g>
<g><path style="opacity:1" fill="#f1e7a9" d="M 122.5,94.5 C 130.281,96.0291 135.614,100.362 138.5,107.5C 136.599,107.433 134.766,107.767 133,108.5C 130.511,106.681 128.011,104.848 125.5,103C 124.552,102.517 123.552,102.351 122.5,102.5C 122.5,99.8333 122.5,97.1667 122.5,94.5 Z"/></g>
<g><path style="opacity:1" fill="#ede1a6" d="M 102.5,97.5 C 103.75,97.5774 104.583,98.244 105,99.5C 105.681,101.529 106.014,103.529 106,105.5C 103.295,107.707 101.129,110.374 99.5,113.5C 97.2573,114.474 94.924,114.808 92.5,114.5C 92.4598,111.575 93.2932,108.909 95,106.5C 97.3347,103.335 99.8347,100.335 102.5,97.5 Z"/></g>
<g><path style="opacity:1" fill="#2f5681" d="M 206.5,130.5 C 207.68,120.655 207.68,110.989 206.5,101.5C 207.458,100.038 208.624,98.7051 210,97.5C 210.833,109.514 210.666,121.514 209.5,133.5C 208.145,132.812 207.145,131.812 206.5,130.5 Z"/></g>
<g><path style="opacity:1" fill="#85a5c2" d="M 128.5,108.5 C 128.565,108.938 128.399,109.272 128,109.5C 121.383,104.61 114.55,104.277 107.5,108.5C 106.893,108.376 106.56,108.043 106.5,107.5C 114.195,101.987 121.528,102.32 128.5,108.5 Z"/></g>
<g><path style="opacity:1" fill="#40789e" d="M 206.5,101.5 C 207.68,110.989 207.68,120.655 206.5,130.5C 205.542,130.047 204.708,129.381 204,128.5C 203.333,120.5 203.333,112.5 204,104.5C 204.377,103.058 205.21,102.058 206.5,101.5 Z"/></g>
<g><path style="opacity:1" fill="#efe4a8" d="M 160.5,110.5 C 155.809,110.77 151.309,111.77 147,113.5C 146.667,113.167 146.333,112.833 146,112.5C 142.391,114.464 138.891,115.798 135.5,116.5C 134.708,115.033 134.708,113.7 135.5,112.5C 142.666,110.027 149.999,108.027 157.5,106.5C 158.984,107.467 159.984,108.8 160.5,110.5 Z"/></g>
<g><path style="opacity:1" fill="#ead961" d="M 160.5,110.5 C 160.958,113.394 160.291,115.894 158.5,118C 151.13,118.725 143.797,119.558 136.5,120.5C 135.571,119.311 135.238,117.978 135.5,116.5C 138.891,115.798 142.391,114.464 146,112.5C 146.333,112.833 146.667,113.167 147,113.5C 151.309,111.77 155.809,110.77 160.5,110.5 Z"/></g>
<g><path style="opacity:1" fill="#1b1b1d" d="M 129.5,118.5 C 128.275,129.294 122.275,133.46 111.5,131C 106.634,127.769 104.634,123.269 105.5,117.5C 108.19,107.99 114.19,105.157 123.5,109C 126.98,111.297 128.98,114.464 129.5,118.5 Z"/></g>
<g><path style="opacity:1" fill="#262322" d="M 118.5,112.5 C 125.97,116.528 126.303,121.028 119.5,126C 117.115,126.556 114.782,126.39 112.5,125.5C 108.413,118.341 110.413,114.008 118.5,112.5 Z"/></g>
<g><path style="opacity:1" fill="#efe062" d="M 115.5,110.5 C 117.179,110.285 118.179,110.952 118.5,112.5C 110.413,114.008 108.413,118.341 112.5,125.5C 111.833,125.833 111.167,126.167 110.5,126.5C 106.517,121.779 106.517,116.946 110.5,112C 112.025,110.991 113.692,110.491 115.5,110.5 Z"/></g>
<g><path style="opacity:1" fill="#44789f" d="M 128.5,108.5 C 130.316,110.118 131.649,112.118 132.5,114.5C 132.665,117.518 132.498,120.518 132,123.5C 131.626,121.509 130.793,119.842 129.5,118.5C 128.98,114.464 126.98,111.297 123.5,109C 114.19,105.157 108.19,107.99 105.5,117.5C 104.954,120.647 103.954,123.647 102.5,126.5C 100.145,119.209 101.478,112.875 106.5,107.5C 106.56,108.043 106.893,108.376 107.5,108.5C 114.55,104.277 121.383,104.61 128,109.5C 128.399,109.272 128.565,108.938 128.5,108.5 Z"/></g>
<g><path style="opacity:1" fill="#ebda60" d="M 121.5,120.5 C 118.609,119.597 115.609,119.264 112.5,119.5C 114.378,115.09 117.211,114.423 121,117.5C 121.483,118.448 121.649,119.448 121.5,120.5 Z"/></g>
<g><path style="opacity:1" fill="#46608f" d="M 165.5,116.5 C 167.136,117.749 168.303,119.416 169,121.5C 169.667,124.833 169.667,128.167 169,131.5C 168.167,133 167,134.167 165.5,135C 159.089,135.579 152.756,135.579 146.5,135C 143.118,141.874 138.785,148.041 133.5,153.5C 132.784,151.444 132.117,149.277 131.5,147C 140.441,141.616 145.775,133.783 147.5,123.5C 152.599,123.825 157.599,123.325 162.5,122C 164.16,120.512 165.16,118.679 165.5,116.5 Z"/></g>
<g><path style="opacity:1" fill="#f4ebac" d="M 98.5,123.5 C 92.6957,123.467 86.8623,123.467 81,123.5C 78.544,125.285 76.044,125.952 73.5,125.5C 73.4208,124.07 73.7542,122.736 74.5,121.5C 82.4818,120.56 90.4818,119.893 98.5,119.5C 98.5,120.833 98.5,122.167 98.5,123.5 Z"/></g>
<g><path style="opacity:1" fill="#ead860" d="M 98.5,123.5 C 99.8284,124.91 99.4951,126.076 97.5,127C 90.8333,128.833 84.1667,130.667 77.5,132.5C 74.7013,131.189 73.368,128.855 73.5,125.5C 76.044,125.952 78.544,125.285 81,123.5C 86.8623,123.467 92.6957,123.467 98.5,123.5 Z"/></g>
<g><path style="opacity:1" fill="#46618f" d="M 68.5,122.5 C 68.3379,124.527 68.5045,126.527 69,128.5C 69.5913,134.081 72.5913,137.081 78,137.5C 81.9787,135.798 86.1454,134.964 90.5,135C 96.0263,143.015 103.526,148.181 113,150.5C 110.534,165.206 116.367,170.54 130.5,166.5C 131.772,174.898 128.105,178.898 119.5,178.5C 113.993,179.176 110.827,176.843 110,171.5C 109.672,166.475 109.672,161.475 110,156.5C 106.185,154.336 102.351,152.169 98.5,150C 95.3092,146.31 92.3092,142.477 89.5,138.5C 82.9352,140.31 76.2685,141.144 69.5,141C 63.6133,135.018 63.2799,128.852 68.5,122.5 Z"/></g>
<g><path style="opacity:1" fill="#2f557f" d="M 132.5,114.5 C 134.132,129.7 127.132,136.533 111.5,135C 107.342,133.341 104.342,130.508 102.5,126.5C 103.954,123.647 104.954,120.647 105.5,117.5C 104.634,123.269 106.634,127.769 111.5,131C 122.275,133.46 128.275,129.294 129.5,118.5C 130.793,119.842 131.626,121.509 132,123.5C 132.498,120.518 132.665,117.518 132.5,114.5 Z"/></g>
<g><path style="opacity:1" fill="#c1a94b" d="M 112.5,119.5 C 115.609,119.264 118.609,119.597 121.5,120.5C 117.972,124.727 114.972,124.394 112.5,119.5 Z"/></g>
<g><path style="opacity:1" fill="#ccb24f" d="M 115.5,110.5 C 124.386,109.917 127.886,114.25 126,123.5C 121.867,130.16 116.7,131.16 110.5,126.5C 111.167,126.167 111.833,125.833 112.5,125.5C 114.782,126.39 117.115,126.556 119.5,126C 126.303,121.028 125.97,116.528 118.5,112.5C 118.179,110.952 117.179,110.285 115.5,110.5 Z"/></g>
<g><path style="opacity:1" fill="#ecda61" d="M 134.5,124.5 C 137.187,124.336 139.854,124.503 142.5,125C 140.578,132.009 136.578,137.509 130.5,141.5C 129.448,139.458 128.781,137.292 128.5,135C 130.741,131.603 132.741,128.103 134.5,124.5 Z"/></g>
<g><path style="opacity:1" fill="#ecdb61" d="M 100.5,130.5 C 104.028,133.188 107.861,135.521 112,137.5C 112.497,139.81 112.663,142.143 112.5,144.5C 105.133,143.152 99.4662,139.319 95.5,133C 97.3146,132.243 98.9812,131.41 100.5,130.5 Z"/></g>
<g><path style="opacity:1" fill="#ecda61" d="M 128.5,156.5 C 126.574,157.242 124.741,158.242 123,159.5C 121.67,158.418 120.17,157.751 118.5,157.5C 117.899,151.158 117.232,144.824 116.5,138.5C 119.127,137.908 121.794,137.575 124.5,137.5C 125.994,143.809 127.328,150.142 128.5,156.5 Z"/></g>
<g><path style="opacity:1" fill="#90a0b7" d="M 212.5,142.5 C 213.752,145.9 215.919,149.233 219,152.5C 220.961,158.412 219.127,162.412 213.5,164.5C 215.399,162.749 216.733,160.583 217.5,158C 216.701,155.851 215.867,153.684 215,151.5C 214.346,150.304 213.846,150.304 213.5,151.5C 214.731,154.538 214.564,157.538 213,160.5C 211.68,160.201 210.18,160.034 208.5,160C 207.944,159.617 207.611,159.117 207.5,158.5C 208.496,158.414 209.329,158.748 210,159.5C 210.464,158.906 210.631,158.239 210.5,157.5C 211.117,157.611 211.617,157.944 212,158.5C 213.187,156.956 213.52,155.289 213,153.5C 211.104,151.47 208.937,149.803 206.5,148.5C 205.482,149.193 204.482,149.859 203.5,150.5C 203.663,144.987 203.83,139.654 204,134.5C 207.003,137.067 209.836,139.734 212.5,142.5 Z"/></g>
<g><path style="opacity:1" fill="#e4c1b3" d="M 210.5,157.5 C 210.631,158.239 210.464,158.906 210,159.5C 209.329,158.748 208.496,158.414 207.5,158.5C 207.103,157.475 206.437,157.308 205.5,158C 206.337,159.011 206.67,160.178 206.5,161.5C 205.5,161.5 204.5,161.5 203.5,161.5C 203.5,157.833 203.5,154.167 203.5,150.5C 204.482,149.859 205.482,149.193 206.5,148.5C 208.937,149.803 211.104,151.47 213,153.5C 213.52,155.289 213.187,156.956 212,158.5C 211.617,157.944 211.117,157.611 210.5,157.5 Z"/></g>
<g><path style="opacity:1" fill="#4d565b" d="M 210.5,157.5 C 208.824,156.817 208.157,155.483 208.5,153.5C 209.5,153.5 210.5,153.5 211.5,153.5C 211.567,154.959 211.234,156.292 210.5,157.5 Z"/></g>
<g><path style="opacity:1" fill="#7da1b9" d="M 196.5,195.5 C 197.562,201.737 195.895,207.237 191.5,212C 190.5,212.333 189.5,212.667 188.5,213C 140.833,213.667 93.1667,213.667 45.5,213C 42.6667,211.5 40.5,209.333 39,206.5C 38.5002,196.839 38.3335,187.172 38.5,177.5C 39.7997,170.47 39.7997,163.47 38.5,156.5C 38.3505,155.448 38.5172,154.448 39,153.5C 56.6516,166.076 75.1516,177.242 94.5,187C 112.996,195.506 131.83,200.006 151,200.5C 166.2,199.455 181.366,197.788 196.5,195.5 Z"/></g>
<g><path style="opacity:1" fill="#d3c391" d="M 31.5,154.5 C 32.8333,154.5 34.1667,154.5 35.5,154.5C 35.5,155.5 35.5,156.5 35.5,157.5C 33.0274,157.912 31.6941,156.912 31.5,154.5 Z"/></g>
<g><path style="opacity:1" fill="#bea64b" d="M 128.5,156.5 C 129.249,157.531 129.915,158.698 130.5,160C 126.979,163.681 123.146,164.181 119,161.5C 118.51,160.207 118.343,158.873 118.5,157.5C 120.17,157.751 121.67,158.418 123,159.5C 124.741,158.242 126.574,157.242 128.5,156.5 Z"/></g>
<g><path style="opacity:1" fill="#aed1ee" d="M 213.5,164.5 C 213.918,165.222 214.584,165.722 215.5,166C 214.642,168.342 212.642,170.175 209.5,171.5C 207.833,170.667 206.167,169.833 204.5,169C 206.874,166.935 209.04,167.101 211,169.5C 210.981,167.893 210.815,166.226 210.5,164.5C 207.921,164.606 205.588,163.939 203.5,162.5C 203.5,162.167 203.5,161.833 203.5,161.5C 204.5,161.5 205.5,161.5 206.5,161.5C 206.67,160.178 206.337,159.011 205.5,158C 206.437,157.308 207.103,157.475 207.5,158.5C 207.611,159.117 207.944,159.617 208.5,160C 210.18,160.034 211.68,160.201 213,160.5C 214.564,157.538 214.731,154.538 213.5,151.5C 213.846,150.304 214.346,150.304 215,151.5C 215.867,153.684 216.701,155.851 217.5,158C 216.733,160.583 215.399,162.749 213.5,164.5 Z"/></g>
<g><path style="opacity:1" fill="#4a799d" d="M 29.5,159.5 C 32.1873,159.336 34.854,159.503 37.5,160C 32.203,161.134 32.203,161.968 37.5,162.5C 37.5,165.167 37.5,167.833 37.5,170.5C 31.7389,170.709 31.4055,171.542 36.5,173C 34.1902,173.497 31.8568,173.663 29.5,173.5C 29.5,168.833 29.5,164.167 29.5,159.5 Z"/></g>
<g><path style="opacity:1" fill="#e9ded9" d="M 212.5,142.5 C 217.648,145.913 222.648,149.58 227.5,153.5C 220.235,163.601 212.402,173.268 204,182.5C 203.5,175.842 203.334,169.175 203.5,162.5C 205.588,163.939 207.921,164.606 210.5,164.5C 210.815,166.226 210.981,167.893 211,169.5C 209.04,167.101 206.874,166.935 204.5,169C 206.167,169.833 207.833,170.667 209.5,171.5C 212.642,170.175 214.642,168.342 215.5,166C 214.584,165.722 213.918,165.222 213.5,164.5C 219.127,162.412 220.961,158.412 219,152.5C 215.919,149.233 213.752,145.9 212.5,142.5 Z"/></g>
<g><path style="opacity:1" fill="#f8eb67" d="M 31.5,176.5 C 32.9778,176.238 34.3112,176.571 35.5,177.5C 34.8333,177.833 34.1667,178.167 33.5,178.5C 32.2867,178.253 31.62,177.586 31.5,176.5 Z"/></g>
<g><path style="opacity:1" fill="#40759b" d="M 27.5,175.5 C 28.9073,177.308 30.074,179.308 31,181.5C 31.3333,190.833 31.6667,200.167 32,209.5C 32.926,211.692 34.0927,213.692 35.5,215.5C 35.5654,215.938 35.3988,216.272 35,216.5C 30.7837,212.736 28.117,208.069 27,202.5C 26.176,193.324 26.3427,184.324 27.5,175.5 Z"/></g>
<g><path style="opacity:1" fill="#41789f" d="M 200.5,214.5 C 201.045,212.407 201.878,210.407 203,208.5C 203.172,201.987 203.672,195.653 204.5,189.5C 205.496,189.586 206.329,189.252 207,188.5C 206.978,192.869 207.145,197.202 207.5,201.5C 206.443,206.62 204.11,210.953 200.5,214.5 Z"/></g>
<g><path style="opacity:1" fill="#477fa7" d="M 198.5,87.5 C 198.667,127.501 198.5,167.501 198,207.5C 196.833,211.333 194.333,213.833 190.5,215C 141.167,215.667 91.8333,215.667 42.5,215C 40.2911,213.127 38.4578,210.96 37,208.5C 36.3333,198.833 36.3333,189.167 37,179.5C 37.2784,178.584 37.7784,177.918 38.5,177.5C 38.3335,187.172 38.5002,196.839 39,206.5C 40.5,209.333 42.6667,211.5 45.5,213C 93.1667,213.667 140.833,213.667 188.5,213C 189.5,212.667 190.5,212.333 191.5,212C 195.895,207.237 197.562,201.737 196.5,195.5C 196.333,160.165 196.5,124.832 197,89.5C 197.278,88.5842 197.778,87.9175 198.5,87.5 Z"/></g>
<g><path style="opacity:1" fill="#42779d" d="M 162.5,233.5 C 168.833,233.5 175.167,233.5 181.5,233.5C 181.5,235.5 181.5,237.5 181.5,239.5C 175.794,239.829 170.128,239.495 164.5,238.5C 163.544,236.925 162.877,235.258 162.5,233.5 Z"/></g>
<g><path style="opacity:0.02" fill="#000000" d="M 153.5,236.5 C 154.833,237.167 154.833,237.167 153.5,236.5 Z"/></g>
<g><path style="opacity:1" fill="#4279a0" d="M 53.5,234.5 C 59.5368,234.171 65.5368,234.504 71.5,235.5C 70.9598,236.748 70.2931,237.915 69.5,239C 64.1771,239.499 58.8437,239.666 53.5,239.5C 53.5,237.833 53.5,236.167 53.5,234.5 Z"/></g>
</svg>