<?xml version="1.0" encoding="UTF-8" standalone="no"?><!DOCTYPE svg PUBLIC "-//W3C//DTD SVG 1.1//EN" "http://www.w3.org/Graphics/SVG/1.1/DTD/svg11.dtd"><svg width="100%" height="100%" viewBox="0 0 120 120" version="1.1" xmlns="http://www.w3.org/2000/svg" xmlns:xlink="http://www.w3.org/1999/xlink" xml:space="preserve" xmlns:serif="http://www.serif.com/" style="fill-rule:evenodd;clip-rule:evenodd;stroke-linejoin:round;stroke-miterlimit:2;"><path d="M111.108,9.531l-0.006,-0.011c-0.435,-0.618 -1.151,-0.981 -1.906,-0.966c-13.039,0.734 -34.043,8.376 -34.929,8.701c-0.512,0.188 -0.932,0.566 -1.174,1.054l-2.96,5.911l-2.181,-2.183c-0.658,-0.664 -1.681,-0.819 -2.508,-0.381c-2.497,1.305 -15.121,7.998 -17.807,11.256c-1.559,1.885 -2.764,6.031 -3.581,9.685l-1.427,-2.846c-0.295,-0.595 -0.851,-1.018 -1.503,-1.144c-0.652,-0.135 -1.33,0.048 -1.826,0.492c-0.755,0.663 -16.512,14.842 -13.232,32.52c12.607,-17.973 27.758,-33.089 52.542,-45.254c0.295,-0.146 0.619,-0.221 0.948,-0.221c1.175,-0 2.143,0.967 2.143,2.144c-0,0.814 -0.465,1.561 -1.195,1.922l-0.007,-0c-1.442,0.713 -2.842,1.433 -4.216,2.162c-0.35,0.184 -0.693,0.372 -1.038,0.558c-1.055,0.571 -2.093,1.148 -3.113,1.73c-0.333,0.191 -0.662,0.378 -0.99,0.569c-2.629,1.532 -5.141,3.108 -7.534,4.727c-0.197,0.132 -0.39,0.268 -0.59,0.406c-1.042,0.713 -2.064,1.436 -3.067,2.166c-0.179,0.129 -0.35,0.257 -0.526,0.387c-23.388,17.253 -35.764,39.115 -50.59,65.336c-0.182,0.322 -0.279,0.685 -0.279,1.055c0,1.174 0.967,2.14 2.141,2.14l0.005,0c0.772,0.003 1.487,-0.413 1.865,-1.085c5.905,-10.442 11.416,-20.177 17.392,-29.187c2.434,2.967 6.13,4.62 9.964,4.46c16.21,-0 42.981,-23.712 45.677,-31.349c0.081,-0.23 0.123,-0.472 0.123,-0.715c0,-0.98 -0.672,-1.841 -1.623,-2.077l-7.145,-1.789l15.555,-2.592c0.677,-0.111 1.261,-0.543 1.564,-1.16l17.152,-34.3c0.328,-0.679 0.283,-1.482 -0.118,-2.121Z" style="fill:#fff;fill-rule:nonzero;"/></svg>