<svg width="47" height="30" viewBox="0 0 47 30" fill="none" xmlns="http://www.w3.org/2000/svg">
<path fill-rule="evenodd" clip-rule="evenodd" d="M38.7759 14.1873C38.5379 14.1873 38.7759 14.1873 38.7759 14.1873C38.7759 6.60302 31.8594 0 24.0793 0C18.3479 0 13.236 3.37708 11.0359 8.16627C10.9594 8.16474 11.0363 8.16474 10.9594 8.16474C4.91834 8.16474 0 13.4481 0 19.3371C0 23.5291 1.79123 26.7912 5.40029 28.5334C5.97588 27.949 7.40249 27.9389 8.13884 27.5428C6.84539 27.1249 5.79299 26.2659 4.66867 25.4489C0.803302 22.6401 1.38287 15.7952 3.91798 13.4851C7.97916 9.78429 12.4979 10.7237 12.4979 10.7237L13.059 9.50237C13.9945 7.46591 15.8766 1.56091 24.4742 1.66552C33.5675 1.77619 36.0433 11.1473 36.0467 14.2713C36.0464 14.284 36.0463 14.2969 36.0463 14.3097L36.0415 16.517L38.2972 16.326C38.4759 16.3108 38.6533 16.3031 38.8244 16.3031C42.127 16.3031 45.4997 18.8079 45.4997 22.0274C45.4997 25.2468 42.127 27.9805 38.8244 27.9805H20.1518C20.3643 28.0866 22.5177 30 26.0633 30H38.8244C43.2765 30 46.8855 26.4818 46.8855 22.1418C46.8855 17.8019 43.228 14.1873 38.7759 14.1873Z" fill="white"/>
<path fill-rule="evenodd" clip-rule="evenodd" d="M32.8004 9.8463C31.95 9.53546 29.7648 9.74492 28.2297 10.3292C27.4766 10.6158 26.8793 10.9921 26.674 11.4423C26.1107 12.6779 29.5611 14.8228 30.9519 14.4284C31.6146 14.2404 32.5663 12.8654 32.9903 11.6624C33.2918 10.8073 33.3271 10.0389 32.8004 9.8463Z" fill="white"/>
<path fill-rule="evenodd" clip-rule="evenodd" d="M25.0842 10.8637C24.6901 10.8148 23.8755 10.7075 23.6155 10.4203C23.0338 9.77811 22.1014 9.60573 21.4237 9.75105C20.7054 9.90502 20.3232 10.7199 20.8163 11.7331C21.0382 12.189 20.9819 12.7384 20.7558 13.148C21.462 12.5069 22.1221 11.9844 22.6119 11.7331C23.5772 11.2382 24.4333 10.9815 25.0842 10.8637Z" fill="white"/>
<path fill-rule="evenodd" clip-rule="evenodd" d="M32.1314 20.2602C32.1314 20.2602 31.4272 22.5942 30.9343 23.6582C30.4998 24.5958 30.3622 24.5209 30.0482 24.6307C30.1662 24.34 30.2513 23.9586 30.4061 23.3149C30.5923 22.5406 30.4061 22.3368 30.4061 22.3368C30.162 23.4955 29.7824 24.3235 29.46 24.8668C29.0416 25.0032 28.5273 25.0913 28.1527 24.9452C27.6246 24.7393 27.5349 22.3195 27.5349 22.1823C29.8332 22.3368 31.0575 21.4272 32.1314 20.2602ZM20.8335 17.7094C20.8821 17.934 20.9363 18.1447 20.9929 18.349C20.9577 18.3105 20.9391 18.2896 20.9391 18.2896C20.9391 18.2896 20.9842 18.3913 21.0538 18.5659C21.1504 18.8876 21.2571 19.1817 21.3709 19.4538C21.7489 20.6371 22.1519 22.4536 21.5511 23.5925C21.1018 24.4441 15.3943 28.2867 25.1501 29.9574L33.9076 27.9808C30.0498 27.4718 31.5994 24.4504 32.5187 22.8344C33.622 20.8947 33.9986 19.6596 34.2362 17.8778C34.3792 16.8067 34.274 16.0052 34.2439 15.8123C34.2392 15.7831 34.2362 15.7669 34.2362 15.7669C34.2362 15.7669 34.232 15.8268 34.2207 15.9294L34.2362 15.6639C34.2362 15.6639 33.5397 18.3926 32.1666 19.3708C31.8471 19.5983 31.6426 19.7498 31.5115 19.8517C31.6499 19.3431 32.1686 17.1988 31.4272 16.0244C31.4272 16.0244 31.12 20.9578 28.4217 21.2197C25.7233 21.4816 21.9208 18.7903 20.8335 17.7094Z" fill="white"/>
<path fill-rule="evenodd" clip-rule="evenodd" d="M13.0693 17.5462C12.9609 18.1371 12.9143 18.6691 12.9312 19.1378C12.4068 19.9482 8.62053 28.7229 3.91797 24.7801C4.7226 25.4678 5.40027 28.5338 5.40027 28.5338C9.82341 31.0535 12.8862 21.1715 13.2359 20.5234C13.5211 21.1173 14.0027 22.3232 16.6758 22.3769C16.6758 22.3769 13.5399 20.8782 14.9397 16.901C16.3395 12.9238 18.4087 9.54824 21.2501 7.98749C24.0914 6.42674 26.9623 6.53321 29.603 7.63149C29.603 7.63149 25.6177 4.05998 21.0383 6.75964C18.4072 8.31077 16.6555 10.0319 15.4497 11.7959C14.4386 11.9719 13.2092 11.8129 12.7108 11.8129C12.0807 11.8129 11.1087 12.2295 11.548 13.7373C11.9783 15.2138 13.1659 16.707 13.0693 17.5462Z" fill="white"/>
</svg>
