<?xml version="1.0" encoding="UTF-8"?>
<!DOCTYPE svg PUBLIC "-//W3C//DTD SVG 1.1//EN" "http://www.w3.org/Graphics/SVG/1.1/DTD/svg11.dtd">
<svg xmlns="http://www.w3.org/2000/svg" version="1.1" width="369px" height="368px" style="shape-rendering:geometricPrecision; text-rendering:geometricPrecision; image-rendering:optimizeQuality; fill-rule:evenodd; clip-rule:evenodd" xmlns:xlink="http://www.w3.org/1999/xlink">
<g><path style="opacity:0.999" fill="#4199d4" d="M 176.5,74.5 C 216.391,72.6986 248.225,87.6986 272,119.5C 283.556,136.001 289.389,154.334 289.5,174.5C 319.138,176.969 337.638,192.635 345,221.5C 347.876,255.946 332.709,277.779 299.5,287C 263.167,287.667 226.833,287.667 190.5,287C 180.066,285.28 170.399,281.613 161.5,276C 155.514,270.993 154.014,264.826 157,257.5C 160.279,251.953 164.279,246.953 169,242.5C 171.394,236.724 172.061,230.724 171,224.5C 169.532,216.461 167.366,208.628 164.5,201C 164.833,200.5 165.167,200 165.5,199.5C 177.121,210.147 190.454,217.981 205.5,223C 220.396,226.965 229.896,221.465 234,206.5C 235.714,200.214 237.214,193.881 238.5,187.5C 239.806,188.912 240.64,190.579 241,192.5C 241.402,199.34 241.569,206.007 241.5,212.5C 245.572,209.596 248.739,205.929 251,201.5C 253.266,196.201 255.433,190.868 257.5,185.5C 258.995,195.602 258.495,205.602 256,215.5C 250.925,227.98 245.591,240.314 240,252.5C 237.706,262.089 241.206,268.255 250.5,271C 266.5,271.667 282.5,271.667 298.5,271C 317.258,266.575 329.091,255.075 334,236.5C 334.417,214.231 323.917,199.731 302.5,193C 291.542,191.255 280.542,191.088 269.5,192.5C 271.796,157.872 260.796,128.372 236.5,104C 214.38,88.0522 190.047,83.7189 163.5,91C 145.612,96.2289 131.779,106.729 122,122.5C 117.11,131.846 112.61,141.346 108.5,151C 83.9141,148.972 63.0807,156.805 46,174.5C 31.7445,199.073 32.0778,223.406 47,247.5C 58.1301,258.404 69.9634,259.237 82.5,250C 97.8801,235.677 107.547,218.343 111.5,198C 106.521,188.211 102.521,178.044 99.5,167.5C 99.7801,163.801 101.447,160.967 104.5,159C 112.517,158.641 120.517,157.974 128.5,157C 141.024,138.474 157.691,125.141 178.5,117C 196.369,112.967 212.369,116.8 226.5,128.5C 226,128.833 225.5,129.167 225,129.5C 190.359,117.713 163.026,127.046 143,157.5C 133.431,172.874 126.598,189.374 122.5,207C 123.22,218.275 128.22,227.109 137.5,233.5C 127.164,234.773 118.997,231.106 113,222.5C 107.277,239.948 98.9439,255.948 88,270.5C 83.6754,275.077 78.5087,278.244 72.5,280C 68.7636,280.61 65.0969,280.277 61.5,279C 34.147,265.335 20.4804,243.001 20.5,212C 23.2489,172.6 43.2489,146.6 80.5,134C 86.172,133.197 91.8387,132.363 97.5,131.5C 114.084,99.0368 140.417,80.0368 176.5,74.5 Z M 240.5,222.5 C 238.615,231.321 235.449,239.654 231,247.5C 231.465,244.066 231.965,240.566 232.5,237C 232.167,235.5 231.833,234 231.5,232.5C 229.625,238.303 227.292,243.969 224.5,249.5C 221.253,251.881 218.086,251.881 215,249.5C 213.515,243.924 212.682,238.257 212.5,232.5C 223.4,233.313 232.733,229.98 240.5,222.5 Z"/></g>
<g><path style="opacity:1" fill="#4199d4" d="M 170.5,142.5 C 174.319,142.605 177.986,143.438 181.5,145C 185.268,149.05 189.934,151.216 195.5,151.5C 188.762,153.813 182.096,156.646 175.5,160C 171.989,162.847 168.489,165.68 165,168.5C 164.5,168.333 164,168.167 163.5,168C 164.848,166.426 165.514,164.593 165.5,162.5C 164.426,159.04 163.426,155.54 162.5,152C 162.982,146.809 165.649,143.642 170.5,142.5 Z"/></g>
<g><path style="opacity:1" fill="#4199d4" d="M 236.5,142.5 C 249.637,140.793 254.137,146.127 250,158.5C 247.399,165.76 243.232,171.927 237.5,177C 231.618,178.788 225.952,178.122 220.5,175C 212.9,171.569 207.567,166.069 204.5,158.5C 204.556,155.889 205.556,153.722 207.5,152C 216.605,146.814 226.272,143.647 236.5,142.5 Z"/></g>
</svg>
