<svg width="878" height="633" viewBox="0 0 878 633" fill="none" xmlns="http://www.w3.org/2000/svg">
<path d="M856.792 275.916C839.296 275.916 827.631 265.651 827.631 244.581V123.56C827.631 46.3018 795.82 3.62061 713.64 3.62061H675.466V85.2012H687.13C719.472 85.2012 734.847 103.03 734.847 134.906V241.88C734.847 288.342 748.633 307.252 778.853 316.977C748.633 326.162 734.847 345.61 734.847 392.074C734.847 418.547 734.847 445.02 734.847 471.493C734.847 493.644 734.847 515.255 729.015 537.407C723.184 557.936 713.64 577.386 700.386 594.134C692.963 603.859 684.48 611.964 674.935 619.527V630.332H713.11C795.29 630.332 827.102 587.651 827.102 510.393V389.372C827.102 367.761 838.236 358.036 856.262 358.036H878V276.457H856.792V275.916Z" fill="#0F9C43"/>
<path d="M596.997 126.798H479.295C476.644 126.798 474.523 124.637 474.523 121.936V112.751C474.523 110.05 476.644 107.889 479.295 107.889H597.528C600.179 107.889 602.299 110.05 602.299 112.751V121.936C602.299 124.637 599.648 126.798 596.997 126.798Z" fill="#0F9C43"/>
<path d="M617.145 243.492H531.255C528.603 243.492 526.482 241.33 526.482 238.629V229.445C526.482 226.744 528.603 224.583 531.255 224.583H617.145C619.796 224.583 621.917 226.744 621.917 229.445V238.629C621.917 240.79 619.796 243.492 617.145 243.492Z" fill="#0F9C43"/>
<path d="M651.077 185.145H479.295C476.644 185.145 474.523 182.984 474.523 180.282V171.099C474.523 168.398 476.644 166.236 479.295 166.236H650.546C653.198 166.236 655.319 168.398 655.319 171.099V180.282C655.319 182.444 653.728 185.145 651.077 185.145Z" fill="#0F9C43"/>
<path d="M343.036 153.275C354.7 153.275 366.364 154.355 377.499 157.058V134.906C377.499 103.57 393.403 85.2012 425.215 85.2012H436.88V3.62061H398.706C316.525 3.62061 284.715 46.3018 284.715 123.56V163.54C303.272 157.058 322.888 153.275 343.036 153.275Z" fill="#0F9C43"/>
<path d="M687.13 447.188C678.646 378.574 626.688 321.305 559.884 308.339C541.327 304.557 522.77 304.017 504.744 307.259C504.213 307.259 504.213 306.718 503.683 306.718C474.523 244.587 411.96 203.527 344.095 203.527C276.23 203.527 214.198 243.507 184.507 305.638C183.977 305.638 183.977 306.178 183.446 306.178C164.36 304.017 145.273 305.098 126.186 309.96C60.442 326.168 10.6039 382.356 1.59057 450.43C0.530193 457.453 0 464.477 0 470.96C0 491.491 13.785 510.399 33.9324 513.101C58.8514 516.883 80.5893 497.433 80.0591 472.581C80.0591 468.8 80.0591 464.477 80.5893 460.695C84.8308 426.117 110.81 396.944 144.742 388.839C155.347 386.138 165.95 385.598 176.023 387.219C208.366 391.54 240.177 374.793 253.963 345.618C264.037 324.007 279.941 305.098 301.15 294.833C324.478 283.487 350.988 281.866 375.376 290.511C400.826 299.696 419.913 319.144 431.577 343.457C443.771 367.229 449.603 383.976 475.583 387.219C486.187 388.839 515.878 388.299 527.012 387.759C548.75 387.759 570.487 395.322 585.864 410.99C595.937 421.796 603.359 435.302 606.54 450.43C611.313 474.742 605.48 499.054 591.165 517.423C581.091 530.389 567.307 540.114 551.93 544.437C544.508 546.598 537.086 547.138 529.663 547.138C525.421 547.138 519.589 547.138 512.696 547.138C491.489 547.138 446.423 547.138 412.49 547.138C389.162 547.138 370.605 528.228 370.605 504.457V424.497V346.158C370.605 339.675 365.302 334.272 358.941 334.272H342.504C310.163 334.813 284.183 371.55 284.183 410.45C284.183 449.35 284.183 552.54 284.183 552.54C284.183 594.681 317.585 628.719 358.941 628.719C358.941 628.719 542.918 628.179 545.569 628.179C587.984 623.856 627.219 601.705 653.728 567.668C680.237 534.712 692.432 491.491 687.13 447.188Z" fill="#0F9C43"/>
</svg>
