<?xml version="1.0" encoding="iso-8859-1"?>
<!-- Uploaded to: SVG Repo, www.svgrepo.com, Generator: SVG Repo Mixer Tools -->
<svg version="1.1" id="Layer_1" xmlns="http://www.w3.org/2000/svg" xmlns:xlink="http://www.w3.org/1999/xlink" 
	 viewBox="0 0 289.944 289.944" xml:space="preserve">
<g>
	<g>
		<circle style="fill:#F9BA48;" cx="93.772" cy="196.231" r="65.599"/>
		<path style="fill:#333333;" d="M282.572,47.663l-49.87,49.87l57.151-90.921l-6.897-6.152l-32.027,25.62l10.936-19.689L255.526,0
			L49.375,112.451c-29.955,16.147-49.317,49.031-49.317,83.78c0,51.674,42.04,93.713,93.713,93.713
			c32.617,0,62.357-16.597,79.572-44.425L289.886,53.407L282.572,47.663z M165.355,240.623
			c-15.477,25.017-42.237,39.95-71.583,39.95c-46.505,0-84.342-37.837-84.342-84.342c0-31.347,17.426-60.998,44.415-75.542
			L245.827,15.973L231.634,41.52l-65.82,52.653l5.857,7.319l66.405-53.126l0.361,0.201l0.487-0.881l28.236-22.59l-88.334,140.528
			l7.933,4.986l23.508-37.401l51.458-51.458L165.355,240.623z"/>
		
			<rect x="129.309" y="90.835" transform="matrix(0.8574 -0.5146 0.5146 0.8574 -28.7717 87.193)" style="fill:#333333;" width="27.32" height="9.371"/>
		<path style="fill:#333333;" d="M56.287,196.231h-9.371c0,25.837,21.02,46.857,46.857,46.857v-9.371
			C73.104,233.717,56.287,216.9,56.287,196.231z"/>
	</g>
</g>
</svg>