<svg
  version="1.1"
  id="Layer_1"
  xmlns="http://www.w3.org/2000/svg"
  x="0px"
  y="0px"
  width="100%"
  viewBox="0 0 864 864"
  enableBackground="new 0 0 864 864"
  xmlSpace="preserve"
>
  <path
    fill="#EC008C"
    opacity="1.000000"
    stroke="none"
    d="M0.999997,649.000000 C1.000000,433.052795 1.000000,217.105591 1.000000,1.079198 C288.876801,1.079198 576.753601,1.079198 865.000000,1.079198 C865.000000,73.025414 865.000000,145.051453 864.634888,217.500671 C852.362488,223.837280 840.447632,229.735275 828.549438,235.666794 C782.143677,258.801056 735.743225,281.945923 688.998657,304.980469 C688.122009,304.476532 687.580750,304.087708 687.053894,303.680206 C639.556946,266.944733 573.006775,291.446869 560.804199,350.179443 C560.141357,353.369446 559.717590,356.609131 559.195374,359.748962 C474.522705,359.748962 390.283478,359.748962 306.088135,359.748962 C298.804138,318.894806 265.253357,295.206024 231.834442,293.306793 C201.003021,291.554596 169.912033,310.230042 156.935104,338.792725 C149.905151,354.265930 147.884064,370.379944 151.151794,387.034515 C155.204453,407.689667 166.300507,423.954224 183.344437,436.516663 C181.938263,437.607025 180.887405,438.409576 179.849426,439.228516 C147.141953,465.032562 139.918045,510.888947 163.388611,545.322632 C167.274551,551.023804 172.285187,555.958313 176.587341,561.495728 C125.846893,587.012817 75.302292,612.295532 24.735992,637.534790 C16.874903,641.458496 8.914484,645.183228 0.999997,649.000000 z"
  />
  <path
    fill="#000000"
    opacity="1.000000"
    stroke="none"
    d="M689.340759,305.086823 C735.743225,281.945923 782.143677,258.801056 828.549438,235.666794 C840.447632,229.735275 852.362488,223.837280 864.634888,217.961929 C865.000000,433.613190 865.000000,649.226379 865.000000,864.919800 C577.000000,864.919800 289.000000,864.919800 1.000000,864.919800 C1.000000,793.225708 1.000000,721.576721 0.999997,649.463867 C8.914484,645.183228 16.874903,641.458496 24.735992,637.534790 C75.302292,612.295532 125.846893,587.012817 176.939667,561.513062 C178.543060,562.085083 179.606812,562.886414 180.667526,563.691833 C225.656799,597.853394 291.232574,574.487244 304.462524,519.579773 C304.989105,517.394409 305.501068,515.205505 305.984619,513.166748 C391.466370,513.166748 476.422729,513.166748 561.331177,513.166748 C573.857727,555.764343 608.978149,572.880920 638.519897,572.672791 C671.048340,572.443665 700.623230,551.730408 711.658752,520.910583 C722.546875,490.502106 715.037842,453.265564 682.776733,429.447052 C683.966064,428.506866 685.119507,427.602356 686.265320,426.688232 C712.934143,405.412262 723.011475,370.684631 711.897339,338.686676 C707.312805,325.487671 699.185303,314.725128 689.340759,305.086823 z"
  />
  <path
    fill="#FEFBFC"
    opacity="1.000000"
    stroke="none"
    d="M688.998657,304.980469 C699.185303,314.725128 707.312805,325.487671 711.897339,338.686676 C723.011475,370.684631 712.934143,405.412262 686.265320,426.688232 C685.119507,427.602356 683.966064,428.506866 682.776733,429.447052 C715.037842,453.265564 722.546875,490.502106 711.658752,520.910583 C700.623230,551.730408 671.048340,572.443665 638.519897,572.672791 C608.978149,572.880920 573.857727,555.764343 561.331177,513.166748 C476.422729,513.166748 391.466370,513.166748 305.984619,513.166748 C305.501068,515.205505 304.989105,517.394409 304.462524,519.579773 C291.232574,574.487244 225.656799,597.853394 180.667526,563.691833 C179.606812,562.886414 178.543060,562.085083 177.128418,561.264465 C172.285187,555.958313 167.274551,551.023804 163.388611,545.322632 C139.918045,510.888947 147.141953,465.032562 179.849426,439.228516 C180.887405,438.409576 181.938263,437.607025 183.344437,436.516663 C166.300507,423.954224 155.204453,407.689667 151.151794,387.034515 C147.884064,370.379944 149.905151,354.265930 156.935104,338.792725 C169.912033,310.230042 201.003021,291.554596 231.834442,293.306793 C265.253357,295.206024 298.804138,318.894806 306.088135,359.748962 C390.283478,359.748962 474.522705,359.748962 559.195374,359.748962 C559.717590,356.609131 560.141357,353.369446 560.804199,350.179443 C573.006775,291.446869 639.556946,266.944733 687.053894,303.680206 C687.580750,304.087708 688.122009,304.476532 688.998657,304.980469 M703.311279,484.370789 C698.954468,457.053253 681.951416,440.229645 656.413696,429.482330 C673.953552,421.977875 688.014709,412.074219 696.456482,395.642365 C704.862061,379.280853 706.487793,362.316345 700.947998,344.809204 C691.688965,315.548492 664.183716,296.954437 633.103516,298.838257 C618.467957,299.725372 605.538086,305.139557 594.588501,314.780121 C577.473999,329.848511 570.185486,349.121399 571.838501,371.750854 C479.166595,371.750854 387.082886,371.750854 294.582672,371.750854 C293.993011,354.662048 288.485260,339.622314 276.940491,327.118439 C265.392609,314.611176 251.082092,307.205322 234.093262,305.960541 C203.355347,303.708374 176.337585,320.898438 166.089890,348.816620 C159.557541,366.613007 160.527206,384.117401 168.756042,401.172516 C177.054779,418.372589 191.471954,428.832886 207.526581,435.632172 C198.407059,442.272583 188.815598,448.302246 180.383728,455.660675 C171.685028,463.251984 166.849655,473.658661 163.940216,484.838684 C161.021744,496.053375 161.212982,507.259705 164.178833,518.426208 C171.577927,546.284302 197.338104,566.588867 226.001465,567.336853 C240.828415,567.723816 254.357819,563.819092 266.385468,555.199646 C284.811554,541.994751 293.631104,523.530579 294.687347,501.238312 C387.354828,501.238312 479.461304,501.238312 571.531799,501.238312 C577.616638,543.189026 615.312866,566.342102 651.310059,559.044739 C684.973938,552.220398 708.263306,519.393127 703.311279,484.370789 z"
  />
  <path
    fill="#EC008C"
    opacity="1.000000"
    stroke="none"
    d="M703.401855,484.804718 C708.263306,519.393127 684.973938,552.220398 651.310059,559.044739 C615.312866,566.342102 577.616638,543.189026 571.531799,501.238312 C479.461304,501.238312 387.354828,501.238312 294.687347,501.238312 C293.631104,523.530579 284.811554,541.994751 266.385468,555.199646 C254.357819,563.819092 240.828415,567.723816 226.001465,567.336853 C197.338104,566.588867 171.577927,546.284302 164.178833,518.426208 C161.212982,507.259705 161.021744,496.053375 163.940216,484.838684 C166.849655,473.658661 171.685028,463.251984 180.383728,455.660675 C188.815598,448.302246 198.407059,442.272583 207.526581,435.632172 C191.471954,428.832886 177.054779,418.372589 168.756042,401.172516 C160.527206,384.117401 159.557541,366.613007 166.089890,348.816620 C176.337585,320.898438 203.355347,303.708374 234.093262,305.960541 C251.082092,307.205322 265.392609,314.611176 276.940491,327.118439 C288.485260,339.622314 293.993011,354.662048 294.582672,371.750854 C387.082886,371.750854 479.166595,371.750854 571.838501,371.750854 C570.185486,349.121399 577.473999,329.848511 594.588501,314.780121 C605.538086,305.139557 618.467957,299.725372 633.103516,298.838257 C664.183716,296.954437 691.688965,315.548492 700.947998,344.809204 C706.487793,362.316345 704.862061,379.280853 696.456482,395.642365 C688.014709,412.074219 673.953552,421.977875 656.413696,429.482330 C681.951416,440.229645 698.954468,457.053253 703.401855,484.804718 z"
  />
</svg>

