<svg width="382" height="146" viewBox="0 0 382 146" fill="none" xmlns="http://www.w3.org/2000/svg">
<path d="M114.794 86.6648C111.454 83.6785 109.784 79.2644 109.784 73.434C109.784 67.6036 111.487 63.1896 114.896 60.2033C118.301 57.217 122.959 55.721 128.865 55.721C131.319 55.721 133.486 55.8973 135.372 56.2613C137.258 56.6197 139.063 57.2283 140.786 58.0929V67.5524C138.106 66.2157 135.064 65.5445 131.659 65.5445C128.66 65.5445 126.445 66.1417 125.018 67.3363C123.586 68.5308 122.873 70.5615 122.873 73.434C122.873 76.2099 123.575 78.2178 124.986 79.4578C126.391 80.7035 128.617 81.3236 131.665 81.3236C134.891 81.3236 137.955 80.5329 140.862 78.9573V88.8547C137.636 90.3849 133.615 91.1471 128.801 91.1471C122.797 91.1471 118.133 89.6511 114.794 86.6648Z" fill="white"/>
<path d="M143.77 73.4279C143.77 67.643 145.337 63.246 148.471 60.2312C151.605 57.2165 156.328 55.7148 162.645 55.7148C169.006 55.7148 173.761 57.2222 176.922 60.2312C180.078 63.2403 181.656 67.643 181.656 73.4279C181.656 85.2366 175.318 91.1409 162.645 91.1409C150.06 91.1466 143.77 85.2423 143.77 73.4279ZM167.179 79.4574C168.109 78.2116 168.574 76.2037 168.574 73.4335C168.574 70.7089 168.109 68.7123 167.179 67.4439C166.25 66.1754 164.737 65.544 162.645 65.544C160.603 65.544 159.122 66.1811 158.214 67.4439C157.306 68.7123 156.853 70.7089 156.853 73.4335C156.853 76.2094 157.306 78.2173 158.214 79.4574C159.122 80.7031 160.597 81.3231 162.645 81.3231C164.737 81.3231 166.244 80.6974 167.179 79.4574Z" fill="white"/>
<path d="M184.638 56.4315H196.629L196.97 59.014C198.288 58.0583 199.969 57.2677 202.011 56.6477C204.054 56.0276 206.167 55.7148 208.35 55.7148C212.392 55.7148 215.343 56.7671 217.207 58.8718C219.071 60.9764 220.001 64.2244 220.001 68.627V90.4299H207.194V69.9865C207.194 68.4564 206.864 67.3585 206.205 66.6873C205.546 66.0161 204.443 65.6862 202.898 65.6862C201.947 65.6862 200.968 65.9137 199.969 66.3688C198.969 66.8239 198.131 67.4097 197.445 68.1265V90.4299H184.638V56.4315Z" fill="white"/>
<path d="M220.038 56.4317H233.391L239.524 76.3689L245.658 56.4317H259.011L246.268 90.4301H232.775L220.038 56.4317Z" fill="white"/>
<path d="M263.043 87.5062C259.195 84.4687 257.396 79.1957 257.396 73.5018C257.396 67.9558 258.828 63.3882 262.097 60.2312C265.366 57.0743 270.349 55.7148 276.639 55.7148C282.426 55.7148 286.976 57.1255 290.3 59.9468C293.618 62.7682 295.282 66.6191 295.282 71.4939V77.4494H270.927C271.532 79.2184 272.299 80.4983 274.185 81.289C276.071 82.0796 278.703 82.4721 282.07 82.4721C284.08 82.4721 286.133 82.3071 288.219 81.9715C288.954 81.8521 290.165 81.6644 290.802 81.5222V89.7871C287.619 90.6972 283.377 91.1523 278.595 91.1523C272.159 91.1466 266.89 90.5437 263.043 87.5062ZM281.826 70.1344C281.826 68.4507 279.984 64.8273 276.282 64.8273C272.942 64.8273 270.738 68.3938 270.738 70.1344H281.826Z" fill="white"/>
<path d="M305.338 73.1437L293.346 56.4317H307.245L331.773 90.4301H317.74L312.287 82.825L306.835 90.4301H292.865L305.338 73.1437Z" fill="white"/>
<path d="M317.431 56.4317H331.265L320.647 71.3178L313.622 61.7786L317.431 56.4317Z" fill="white"/>
<path d="M82.2808 87.6517C89.652 86.8381 96.6012 82.9353 100.427 76.4211C98.6156 92.533 80.8853 102.717 66.413 96.4643C65.0795 95.8897 63.9316 94.9339 63.1438 93.705C59.8915 88.6302 58.8224 82.1729 60.3585 76.313C64.7475 83.8399 73.6717 88.4538 82.2808 87.6517Z" fill="white"/>
<path d="M60.0895 71.5852C57.1016 78.4464 56.9722 86.4797 60.6353 93.0906C47.7442 83.453 47.8848 62.8294 60.4778 53.2885C61.6425 52.4067 63.0267 51.8833 64.4785 51.8036C70.4486 51.4907 76.5144 53.7835 80.7683 58.0561C72.1254 58.1415 63.7076 63.643 60.0895 71.5852Z" fill="white"/>
<path d="M84.9366 60.1673C80.5757 54.1253 73.7503 50.0119 66.2722 49.8868C80.7277 43.3669 98.5086 53.9375 100.444 69.5659C100.624 71.0167 100.388 72.4959 99.7409 73.8044C97.04 79.2547 92.032 83.4819 86.1801 85.0464C90.4678 77.144 89.9388 67.4893 84.9366 60.1673Z" fill="white"/>
</svg>
