<svg xmlns="http://www.w3.org/2000/svg" viewBox="0 0 4410 4410"><circle cx="2200" cy="2200" r="2200" fill="#fff"/><path d="M384 3039a1991 1991 0 0 1-184-839c0-78 4-154 13-229a2007 2007 0 0 1 39-224A2000 2000 0 0 1 871 706a2001 2001 0 0 1 910-462 2004 2004 0 0 1 571-38 1994 1994 0 0 1 680 175 2003 2003 0 0 1 463 295 2004 2004 0 0 1 676 1180 2009 2009 0 0 1 29 344 2025 2025 0 0 1-6 152 1998 1998 0 0 1-121 551 2001 2001 0 0 1-397 646 1035 1035 0 0 1-738 323 722 722 0 0 1-688-910c17-64 62-186 127-240a762 762 0 0 1-205-138c-7-8-6-22 1-31a26 26 0 0 1 29-8 1458 1458 0 0 0 228 58c111 18 248 42 387 48 338 17 692-135 802-437 109-303 67-602-327-781-394-180-576-393-894-522-208-84-439-34-676 98-640 353-1213 1470-949 2505a32 32 0 0 1-52 31 2011 2011 0 0 1-209-272 2003 2003 0 0 1-128-234zm1745-1989c107-8 202 84 218 206 21 163-39 332-235 336-169 3-220-166-208-269 11-103 95-263 224-273z"/></svg>