<svg width="1024" height="1028" viewBox="0 0 1024 1028" fill="none" xmlns="http://www.w3.org/2000/svg">
<g clip-path="url(#clip0_1255_4057)">
<rect width="1024" height="1028" fill="#6644FF"/>
<path d="M0 856.177V0H1024V1028H987.478C944.858 1005.08 881.857 978.413 792.583 956.099C706.535 934.591 579.091 924.288 443.621 913.336C289.815 900.902 125.662 887.631 0 856.177Z" fill="#754DFC"/>
<path d="M0 630.724V0H1024V864.167C987.48 836.871 914.997 793.6 788.518 757.39C703.262 732.982 576.241 718.365 441.22 702.828C288.002 685.197 124.482 666.38 0 630.724Z" fill="#8555F8"/>
<path d="M0 385.079V0H1024V661.623C992.243 634.157 920.217 583.508 783.219 539.058C698.867 511.689 572.433 492.648 438.037 472.408C285.691 449.465 123.114 424.981 0 385.079Z" fill="#945EF5"/>
<path d="M1024 0V470.993C995.948 444.51 924.692 389.046 780.011 339.296C696.15 310.459 570.068 289.215 436.045 266.632C284.289 241.062 122.352 213.776 0 171.81V0H1024Z" fill="#A366F1"/>
<path d="M170.96 0H1024V278.073C1008.47 260.248 941.186 192.346 771.386 130.624C688.04 100.328 562.349 76.8867 428.741 51.9689C343.042 35.9861 254.087 19.396 170.96 0Z" fill="#B36EEE"/>
<g filter="url(#filter0_dd_1255_4057)">
<path fill-rule="evenodd" clip-rule="evenodd" d="M751.713 578.4C748 577.472 744.906 576.544 742.122 575.306C740.063 574.391 738.343 573.308 736.836 572.055C735.835 571.222 735.405 569.911 735.529 568.615C737.022 553.073 735.38 539.364 736.862 523.951C743.05 461.46 782.345 481.259 817.617 471.05C837.872 465.345 858.126 454.117 865.527 432.032C866.739 428.417 865.672 424.486 863.154 421.622C840.049 395.355 814.469 372.145 786.676 352.254C693.499 285.923 572.404 258.379 461.196 274.491C456.983 275.101 454.775 279.768 457.077 283.348C471.161 305.263 489.743 323.197 511.052 336.397C514.925 338.796 513.368 343.978 508.923 342.981C498.473 340.639 485.045 336.07 472.417 327.159C471.2 326.301 469.632 326.084 468.249 326.636C462.603 328.887 454.451 332.133 447.714 335.041C443.836 336.715 443.046 341.715 446.238 344.482C502.095 392.893 583.352 400.252 646.98 361.511C650.856 359.151 657.062 364.001 655.813 368.363C653.814 375.352 651.478 384.958 648.991 398.04C633.211 477.856 587.728 471.669 531.417 451.56C418.895 410.784 355.06 445.604 298.306 376.675C294.363 371.885 287.431 370.225 282.74 374.285C271.024 384.427 264.09 399.231 264.09 415.055C264.09 433.797 273.766 449.851 288.108 459.461C289.902 460.664 292.286 460.156 293.624 458.461C297.119 454.039 299.978 451.107 303.538 449.253C307.434 447.224 309.335 452.797 306.045 455.709C293.991 466.38 290.532 479.092 282.655 504.152C270.278 543.441 275.538 583.659 217.679 594.177C187.048 595.724 187.667 616.452 176.528 647.388C163.601 684.728 146.674 701.267 115.345 733.897C111.061 738.359 110.693 745.495 115.402 749.508C127.916 760.172 140.822 760.758 153.942 755.357C186.429 741.745 211.491 699.671 235.006 672.447C261.306 642.129 324.424 655.122 372.073 625.423C397.77 609.668 413.21 589.543 408.273 559.396C407.477 554.54 413.034 551.622 415.049 556.111C418.875 564.633 421.383 573.723 422.426 583.116C422.699 585.578 424.9 587.4 427.374 587.261C478.926 584.363 545.591 641.216 607.891 656.599C611.681 657.535 614.375 653.158 612.232 649.896C608.291 643.894 604.94 637.666 602.271 631.301C599.515 624.689 597.427 618.274 595.951 612.082C594.796 607.24 601.872 605.938 604.288 610.292C620.266 639.089 652.198 666.13 696.639 669.353C711.8 670.591 728.508 668.734 745.835 663.475C766.565 657.288 785.748 649.244 808.644 653.576C825.661 656.669 841.441 665.331 851.342 679.872C865.235 700.13 894.563 705.498 910.194 684.325C912.321 681.444 912.5 677.592 911.094 674.298C876.675 593.634 789.279 588.093 751.713 578.4Z" fill="white"/>
</g>
</g>
<defs>
<filter id="filter0_dd_1255_4057" x="52" y="222" width="920" height="608.703" filterUnits="userSpaceOnUse" color-interpolation-filters="sRGB">
<feFlood flood-opacity="0" result="BackgroundImageFix"/>
<feColorMatrix in="SourceAlpha" type="matrix" values="0 0 0 0 0 0 0 0 0 0 0 0 0 0 0 0 0 0 127 0" result="hardAlpha"/>
<feOffset dy="12"/>
<feGaussianBlur stdDeviation="30"/>
<feColorMatrix type="matrix" values="0 0 0 0 0.0901961 0 0 0 0 0.160784 0 0 0 0 0.25098 0 0 0 0.1 0"/>
<feBlend mode="normal" in2="BackgroundImageFix" result="effect1_dropShadow_1255_4057"/>
<feColorMatrix in="SourceAlpha" type="matrix" values="0 0 0 0 0 0 0 0 0 0 0 0 0 0 0 0 0 0 127 0" result="hardAlpha"/>
<feOffset dy="16"/>
<feColorMatrix type="matrix" values="0 0 0 0 0.0901961 0 0 0 0 0.160784 0 0 0 0 0.25098 0 0 0 0.1 0"/>
<feBlend mode="normal" in2="effect1_dropShadow_1255_4057" result="effect2_dropShadow_1255_4057"/>
<feBlend mode="normal" in="SourceGraphic" in2="effect2_dropShadow_1255_4057" result="shape"/>
</filter>
<clipPath id="clip0_1255_4057">
<rect width="1024" height="1028" fill="white"/>
</clipPath>
</defs>
</svg>
