<?xml version="1.0" encoding="UTF-8"?>
<!DOCTYPE svg PUBLIC "-//W3C//DTD SVG 1.1//EN" "http://www.w3.org/Graphics/SVG/1.1/DTD/svg11.dtd">
<svg xmlns="http://www.w3.org/2000/svg" version="1.1" width="256px" height="256px" style="shape-rendering:geometricPrecision; text-rendering:geometricPrecision; image-rendering:optimizeQuality; fill-rule:evenodd; clip-rule:evenodd" xmlns:xlink="http://www.w3.org/1999/xlink">
<g><path style="opacity:1" fill="#222222" d="M -0.5,-0.5 C 84.8333,-0.5 170.167,-0.5 255.5,-0.5C 255.5,84.8333 255.5,170.167 255.5,255.5C 170.167,255.5 84.8333,255.5 -0.5,255.5C -0.5,170.167 -0.5,84.8333 -0.5,-0.5 Z"/></g>
<g><path style="opacity:1" fill="#fbda56" d="M 161.5,179.5 C 160.957,179.56 160.624,179.893 160.5,180.5C 184.157,181.5 207.824,181.833 231.5,181.5C 231.5,186.833 231.5,192.167 231.5,197.5C 199.167,197.5 166.833,197.5 134.5,197.5C 134.813,194.753 134.48,192.086 133.5,189.5C 132.893,189.624 132.56,189.957 132.5,190.5C 115.506,204.774 95.8393,210.94 73.5,209C 58.1984,207.118 42.8651,205.618 27.5,204.5C 32.8364,149.128 38.5031,93.795 44.5,38.5C 59.7916,40.3257 75.1249,41.8257 90.5,43C 113.794,44.8067 132.127,55.14 145.5,74C 173.165,74.5 200.831,74.6666 228.5,74.5C 228.91,80.6208 228.41,86.6208 227,92.5C 205.158,121.53 183.324,150.53 161.5,179.5 Z"/></g>
<g><path style="opacity:1" fill="#222222" d="M 64.5,58.5 C 74.4468,59.9949 84.4468,61.1616 94.5,62C 117.983,67.1515 131.483,81.6515 135,105.5C 135.624,124.968 132.958,143.968 127,162.5C 119.558,178.614 107.058,187.781 89.5,190C 76.8083,190.293 64.1416,189.793 51.5,188.5C 56.0225,145.186 60.3558,101.852 64.5,58.5 Z"/></g>
<g><path style="opacity:1" fill="#252422" d="M 153.5,93.5 C 169.328,92.3386 185.328,92.1719 201.5,93C 185,114.833 168.5,136.667 152,158.5C 155.973,140.11 157.307,121.443 156,102.5C 155.34,99.322 154.507,96.322 153.5,93.5 Z"/></g>
<g><path style="opacity:1" fill="#6d6133" d="M 161.5,179.5 C 185.167,180.167 208.833,180.833 232.5,181.5C 232.167,181.5 231.833,181.5 231.5,181.5C 207.824,181.833 184.157,181.5 160.5,180.5C 160.624,179.893 160.957,179.56 161.5,179.5 Z"/></g>
<g><path style="opacity:1" fill="#d6ba4d" d="M 231.5,181.5 C 231.833,181.5 232.167,181.5 232.5,181.5C 232.5,187.167 232.5,192.833 232.5,198.5C 199.5,198.5 166.5,198.5 133.5,198.5C 133.806,195.615 133.473,192.948 132.5,190.5C 132.56,189.957 132.893,189.624 133.5,189.5C 134.48,192.086 134.813,194.753 134.5,197.5C 166.833,197.5 199.167,197.5 231.5,197.5C 231.5,192.167 231.5,186.833 231.5,181.5 Z"/></g>
</svg>
