<svg width="176" height="80" viewBox="0 0 176 80" fill="none" xmlns="http://www.w3.org/2000/svg">
<path fill-rule="evenodd" clip-rule="evenodd" d="M149.073 39.613C149.073 51.7589 144.203 53.9359 138.76 53.9359H127.187V25.2902H138.76C144.203 25.2902 149.073 27.4672 149.073 39.613V39.613ZM143.172 39.6143C143.172 31.1352 140.594 30.7342 136.87 30.7342H133.261V48.4945H136.87C140.594 48.4945 143.172 48.0935 143.172 39.6143V39.6143ZM81.8689 53.9359V25.2902H100.088V30.7329H87.9418V36.5766H97.1084V41.962H87.9418V48.4932H100.088V53.9359H81.8689ZM110 79.9998H116V0H110V79.9998ZM161.217 41.2193V48.4953H166.259C169.41 48.4953 170.212 46.4328 170.212 44.8859C170.212 43.6828 169.639 41.2193 165.342 41.2193H161.217ZM161.217 30.7342V36.1768H165.342C167.691 36.1768 169.066 35.1456 169.066 33.4269C169.066 31.7081 167.691 30.7342 165.342 30.7342H161.217ZM155.146 25.2902H166.833C172.964 25.2902 174.797 29.587 174.797 32.6808C174.797 35.5454 172.964 37.6078 171.703 38.1808C175.37 39.9568 176 43.5662 176 45.3995C176 47.8057 174.797 53.9359 166.833 53.9359H155.146V25.2902ZM46.9799 39.613C46.9799 51.7589 42.1101 53.9359 36.6674 53.9359H25.0945V25.2902H36.6674C42.1101 25.2902 46.9799 27.4672 46.9799 39.613V39.613ZM64.8538 48.725C67.9475 48.725 69.5517 47.6937 70.1246 47.0062V43.8552H65.1975V38.9281H74.9944V50.3291C74.135 51.6468 69.4371 54.2249 65.1402 54.2249C58.0934 54.2249 52.1351 51.4749 52.1351 39.3291C52.1351 27.1833 58.1507 25.0063 63.5934 25.0063C72.1298 25.0063 74.2496 29.475 74.9371 33.4281L69.8954 34.5739C69.609 32.7406 68.0048 30.449 64.3382 30.449C60.6142 30.449 58.0361 30.85 58.0361 39.3291C58.0361 47.8083 60.7288 48.725 64.8538 48.725V48.725ZM41.0781 39.6143C41.0781 31.1352 38.5 30.7342 34.7761 30.7342H31.1667V48.4945H34.7761C38.5 48.4945 41.0781 48.0935 41.0781 39.6143V39.6143ZM0 53.9359V25.2902H18.2187V30.7329H6.0729V36.5766H15.2395V41.962H6.0729V48.4932H18.2187V53.9359H0Z" fill="#0CCB93"/>
</svg>
