<svg xmlns="http://www.w3.org/2000/svg" width="175" height="39" viewBox="0 0 175 39" fill="none">
<path d="M2.97068 15.5223H0V18.493H2.97068V15.5223Z" fill="#00FFA7"/>
<path d="M8.858 10.5928H4.9025V14.5483H8.858V10.5928Z" fill="#00FFA7"/>
<path d="M8.26825 17.5082H6.28781V19.4886H8.26825V17.5082Z" fill="#00FFA7"/>
<path d="M16.6933 30.3595C17.2344 30.1485 17.7376 29.8238 18.2084 29.3693L20.2862 31.6203C19.02 33.0705 17.1694 33.7956 14.7344 33.7956C13.2139 33.7956 11.872 33.498 10.7086 32.9082C9.53981 32.3184 8.64158 31.4959 8.00848 30.4461C7.37539 29.3964 7.05613 28.2005 7.05613 26.8694C7.05613 25.5383 7.36999 24.3641 7.99227 23.3035C8.61995 22.2429 9.47487 21.4204 10.5679 20.8252C11.6609 20.2354 12.8893 19.9378 14.2583 19.9378C15.5407 19.9378 16.7095 20.2084 17.7593 20.7495C18.809 21.2906 19.6477 22.0752 20.2754 23.1033C20.9031 24.1314 21.2115 25.3435 21.2115 26.7449L11.2551 28.6713C11.5365 29.3368 11.9856 29.8401 12.5917 30.1701C13.1977 30.5056 13.9444 30.668 14.8318 30.668C15.5299 30.668 16.1521 30.5652 16.6933 30.3541V30.3595ZM11.8558 23.8446C11.2389 24.4777 10.9142 25.3543 10.8818 26.469L17.4346 25.192C17.2506 24.4939 16.8773 23.9312 16.3091 23.5145C15.7409 23.0979 15.0591 22.8868 14.2583 22.8868C13.2735 22.8868 12.4726 23.2061 11.8558 23.8392V23.8446Z" fill="#D8D8D8"/>
<path d="M36.947 20.1434L31.2653 33.6008H27.2395L21.5849 20.1434H25.6108L29.339 29.299L33.1917 20.1434H36.947Z" fill="#D8D8D8"/>
<path d="M40.7617 32.9136C39.6362 32.3238 38.7542 31.5013 38.1211 30.4515C37.488 29.4018 37.1688 28.2059 37.1688 26.8748C37.1688 25.5437 37.4826 24.3478 38.1211 23.2981C38.7542 22.2483 39.6362 21.4258 40.7617 20.836C41.8873 20.2462 43.1588 19.9486 44.5766 19.9486C45.9943 19.9486 47.2604 20.2462 48.3805 20.836C49.4952 21.4258 50.3718 22.2483 51.0049 23.2981C51.638 24.3478 51.9573 25.5437 51.9573 26.8748C51.9573 28.2059 51.638 29.4018 51.0049 30.4515C50.3718 31.5013 49.4952 32.3238 48.3805 32.9136C47.2604 33.5034 45.9943 33.801 44.5766 33.801C43.1588 33.801 41.8873 33.5034 40.7617 32.9136ZM47.0386 29.5858C47.6825 28.9094 48.0018 28.0057 48.0018 26.8694C48.0018 25.7331 47.6825 24.8294 47.0386 24.153C46.3947 23.4766 45.5776 23.1412 44.5766 23.1412C43.5755 23.1412 42.7476 23.4766 42.0983 24.153C41.4489 24.8294 41.1243 25.7331 41.1243 26.8694C41.1243 28.0057 41.4489 28.9094 42.0983 29.5858C42.7476 30.2621 43.5755 30.5976 44.5766 30.5976C45.5776 30.5976 46.4001 30.2621 47.0386 29.5858Z" fill="#D8D8D8"/>
<path d="M55.8369 32.5889C54.9873 31.7826 54.5599 30.6355 54.5599 29.1475V15.0354H58.4612V28.9202C58.4612 29.4883 58.6073 29.9267 58.8995 30.2351C59.1917 30.5435 59.603 30.695 60.1387 30.695C60.3389 30.695 60.5445 30.668 60.7502 30.6193C60.9558 30.5706 61.1235 30.511 61.2371 30.4461L61.4103 33.4709C60.761 33.6873 60.0846 33.7956 59.3811 33.7956C57.8606 33.7956 56.681 33.3897 55.8315 32.5835L55.8369 32.5889Z" fill="#D8D8D8"/>
<path d="M76.8969 20.1434V33.6008H73.1957V31.9991C72.6762 32.5835 72.0593 33.0272 71.3451 33.3356C70.6254 33.6441 69.8516 33.7956 69.0183 33.7956C67.2489 33.7956 65.8474 33.2869 64.8139 32.2697C63.7804 31.2524 63.2609 29.7427 63.2609 27.7406V20.1326H67.1623V27.1616C67.1623 29.3314 68.0714 30.4137 69.8895 30.4137C70.8256 30.4137 71.5724 30.1106 72.1405 29.4992C72.7087 28.8931 72.9901 27.9841 72.9901 26.7828V20.1272H76.8914L76.8969 20.1434Z" fill="#D8D8D8"/>
<path d="M88.6336 32.9514C88.2494 33.2328 87.7786 33.4493 87.2213 33.59C86.6639 33.7306 86.085 33.801 85.4843 33.801C83.8664 33.801 82.6219 33.3951 81.7561 32.5727C80.8903 31.7556 80.4574 30.5543 80.4574 28.9689V17.1619H84.3588V20.441H87.6866V23.4442H84.3588V28.9202C84.3588 29.4883 84.4995 29.9267 84.7863 30.2351C85.0677 30.5435 85.4789 30.695 86.0146 30.695C86.6153 30.695 87.1509 30.5273 87.6163 30.1972L88.6444 32.9514H88.6336Z" fill="#D8D8D8"/>
<path d="M91.0361 17.6381C90.587 17.2214 90.3597 16.702 90.3597 16.0851C90.3597 15.4682 90.587 14.9488 91.0361 14.5321C91.4852 14.1155 92.0696 13.9044 92.7893 13.9044C93.509 13.9044 94.088 14.1047 94.5425 14.5051C94.9916 14.9055 95.2189 15.4033 95.2189 16.0039C95.2189 16.6533 94.9916 17.1944 94.5425 17.6164C94.0934 18.0439 93.509 18.2549 92.7893 18.2549C92.0696 18.2549 91.4906 18.0439 91.0361 17.6273V17.6381ZM90.8359 20.1434H94.7373V33.6008H90.8359V20.1434Z" fill="#D8D8D8"/>
<path d="M100.955 32.9136C99.829 32.3238 98.947 31.5013 98.3139 30.4515C97.6808 29.4018 97.3616 28.2059 97.3616 26.8748C97.3616 25.5437 97.6754 24.3478 98.3139 23.2981C98.947 22.2483 99.829 21.4258 100.955 20.836C102.08 20.2462 103.352 19.9486 104.769 19.9486C106.187 19.9486 107.453 20.2462 108.573 20.836C109.688 21.4258 110.565 22.2483 111.198 23.2981C111.831 24.3478 112.15 25.5437 112.15 26.8748C112.15 28.2059 111.831 29.4018 111.198 30.4515C110.565 31.5013 109.688 32.3238 108.573 32.9136C107.453 33.5034 106.187 33.801 104.769 33.801C103.352 33.801 102.08 33.5034 100.955 32.9136ZM107.231 29.5858C107.875 28.9094 108.195 28.0057 108.195 26.8694C108.195 25.7331 107.875 24.8294 107.231 24.153C106.587 23.4766 105.77 23.1412 104.769 23.1412C103.768 23.1412 102.94 23.4766 102.291 24.153C101.642 24.8294 101.317 25.7331 101.317 26.8694C101.317 28.0057 101.642 28.9094 102.291 29.5858C102.94 30.2621 103.768 30.5976 104.769 30.5976C105.77 30.5976 106.593 30.2621 107.231 29.5858Z" fill="#D8D8D8"/>
<path d="M126.971 21.4421C127.999 22.4431 128.508 23.9258 128.508 25.8954V33.6008H124.606V26.496C124.606 25.4301 124.374 24.6346 123.908 24.1043C123.443 23.5795 122.767 23.3143 121.879 23.3143C120.894 23.3143 120.11 23.6173 119.525 24.2288C118.941 24.8402 118.649 25.7439 118.649 26.9452V33.6008H114.747V20.1434H118.476V21.718C118.995 21.1499 119.634 20.7116 120.402 20.4032C121.17 20.0947 122.009 19.9432 122.929 19.9432C124.595 19.9432 125.943 20.441 126.971 21.4421Z" fill="#D8D8D8"/>
<path d="M145.845 20.1434V33.6008H142.117V32.0478C141.148 33.2166 139.747 33.801 137.912 33.801C136.646 33.801 135.499 33.5196 134.471 32.9514C133.443 32.3833 132.642 31.577 132.057 30.5273C131.473 29.4775 131.181 28.26 131.181 26.8748C131.181 25.4896 131.473 24.2721 132.057 23.2223C132.642 22.1726 133.448 21.3609 134.471 20.7982C135.499 20.23 136.641 19.9486 137.912 19.9486C139.628 19.9486 140.975 20.4897 141.938 21.5719V20.1434H145.84H145.845ZM141.045 29.5858C141.695 28.9094 142.019 28.0057 142.019 26.8694C142.019 25.7331 141.695 24.8294 141.045 24.153C140.396 23.4766 139.579 23.1412 138.594 23.1412C137.609 23.1412 136.765 23.4766 136.116 24.153C135.466 24.8294 135.142 25.7331 135.142 26.8694C135.142 28.0057 135.466 28.9094 136.116 29.5858C136.765 30.2621 137.593 30.5976 138.594 30.5976C139.595 30.5976 140.396 30.2621 141.045 29.5858Z" fill="#00FFA7"/>
<path d="M160.823 20.8036C161.851 21.3771 162.652 22.1888 163.236 23.2277C163.82 24.2721 164.113 25.4842 164.113 26.8694C164.113 28.2546 163.82 29.4667 163.236 30.511C162.652 31.5554 161.845 32.3616 160.823 32.9352C159.8 33.5088 158.658 33.7956 157.408 33.7956C155.693 33.7956 154.34 33.2545 153.355 32.1722V38.4491H149.454V20.138H153.182V21.691C154.151 20.5222 155.558 19.9378 157.408 19.9378C158.658 19.9378 159.8 20.2246 160.823 20.7982V20.8036ZM159.194 29.5858C159.838 28.9094 160.157 28.0057 160.157 26.8694C160.157 25.7331 159.838 24.8294 159.194 24.153C158.55 23.4766 157.733 23.1412 156.732 23.1412C155.731 23.1412 154.908 23.4766 154.27 24.153C153.626 24.8294 153.307 25.7331 153.307 26.8694C153.307 28.0057 153.626 28.9094 154.27 29.5858C154.914 30.2621 155.731 30.5976 156.732 30.5976C157.733 30.5976 158.555 30.2621 159.194 29.5858Z" fill="#00FFA7"/>
<path d="M166.71 20.1434H170.611V33.6008H166.71V20.1434Z" fill="#00FFA7"/>
<path d="M157.403 13.4553C158.409 13.899 159.584 13.4553 160.054 12.4651L164.216 13.7908C164.151 15.3979 165.049 16.9563 166.607 17.6435C168.636 18.5417 171.017 17.6218 171.91 15.5873C172.77 13.6393 171.959 11.3774 170.097 10.4034L172.262 4.70558C173.295 4.87332 174.356 4.33222 174.8 3.32576C175.325 2.12991 174.783 0.728449 173.588 0.203574C172.392 -0.326712 170.99 0.214391 170.465 1.41565C169.989 2.49787 170.39 3.74783 171.358 4.3647L169.194 10.0626C167.332 9.59721 165.346 10.5225 164.546 12.3406C164.475 12.503 164.416 12.6707 164.367 12.833L160.238 11.5181C160.206 10.7714 159.762 10.068 159.032 9.74329C158.004 9.28876 156.808 9.75412 156.353 10.7822C155.904 11.8049 156.364 13.0062 157.392 13.4607L157.403 13.4553Z" fill="#00FFA7"/>
<style xmlns="" class="darkreader darkreader--fallback">html, body, body :not(iframe) {
    background-color: var(--darkreader-background-ffffff, #181a1b) !important;
    border-color: var(--darkreader-border-404040, #776e62) !important;
    color: var(--darkreader-text-000000, #e8e6e3) !important;
}
div[style*="background-color: rgb(135, 135, 135)"] {
    background-color: #878787 !important;
}</style><script xmlns=""/></svg>