<svg viewBox="0 0 200 240" xmlns="http://www.w3.org/2000/svg"><path fill="#FDBC3D" d="m90.694 107.498-.981.39-20.608 8.23 6.332 6.547z" data-darkreader-inline-fill="" style="--darkreader-inline-fill: #fdbf45;"></path><path fill="#8EC63F" d="M61.139 77.914 46.632 93 56.9 103.547c8.649-7.169 17.832-10.502 18.653-10.789L61.139 77.914z" data-darkreader-inline-fill="" style="--darkreader-inline-fill: #99cb51;"></path><path fill="#208ECB" d="M61.139 77.914 46.367 63.247l-14.228 14.8 14.493 14.952z" data-darkreader-inline-fill="" style="--darkreader-inline-fill: #45aae2;"></path><path fill="#273C8B" d="m40.767 57.48-6.943 2.79a38.381 38.381 0 0 0-11.742 7.418L32.14 78.047l14.228-14.8-5.601-5.768z" data-darkreader-inline-fill="" style="--darkreader-inline-fill: #84abdc;"></path><path fill="#EE4649" d="m119.074 138.128-.243-.25-5.653 5.675c1.897-1.516 4.287-3.66 5.896-5.425z" data-darkreader-inline-fill="" style="--darkreader-inline-fill: #ef4f52;"></path><path fill="#F6944E" d="m102.088 150.087 3.709-1.875a46.26 46.26 0 0 0 7.381-4.659l5.653-5.676-14.311-15.285-14.493 15.072 12.061 12.423z" data-darkreader-inline-fill="" style="--darkreader-inline-fill: #f69753;"></path><path fill="#FFC951" d="m90.279 107.926-14.842 14.74 14.589 14.998 14.493-15.072z" data-darkreader-inline-fill="" style="--darkreader-inline-fill: #ffc952;"></path><path fill="#F6CC18" d="m69.087 116.125-11.256 4.493c-3.301.973-6.096 2.843-8.434 5.081l11.548 11.892 14.493-14.926-6.35-6.54z" data-darkreader-inline-fill="" style="--darkreader-inline-fill: #f7d02c;"></path><path fill="#C5D82D" d="m56.886 103.559-10.253-10.56L32 107.926l11.784 11.991c3.304-6.888 8.174-12.272 13.103-16.358z" data-darkreader-inline-fill="" style="--darkreader-inline-fill: #cbdc41;"></path><path fill="#0D77B3" d="m32.14 78.047-14.507 14.94 14.365 14.939 14.634-14.927z" data-darkreader-inline-fill="" style="--darkreader-inline-fill: #52b9f2;"></path><path fill="#2A377E" d="M32.14 78.047 22.08 67.688a38.573 38.573 0 0 0-11.093 18.455l6.645 6.843 14.506-14.94z" data-darkreader-inline-fill="" style="--darkreader-inline-fill: #8dadd9;"></path><path fill="#DA2128" d="m94.826 162.454-4.87 5.017 14.808 15.397c-.632-1.942-1.606-4.438-2.58-6.307l-7.357-14.107z" data-darkreader-inline-fill="" style="--darkreader-inline-fill: #e13a40;"></path><path fill="#F8A561" d="m91.24 155.575 10.832-5.48-12.046-12.43-14.506 14.939 14.436 14.867 4.87-5.017z" data-darkreader-inline-fill="" style="--darkreader-inline-fill: #f8a460;"></path><path fill="#FDBC3D" d="m75.437 122.665-14.493 14.926 14.576 15.013 14.506-14.94z" data-darkreader-inline-fill="" style="--darkreader-inline-fill: #fdbf45;"></path><path fill="#FAD412" d="M49.397 125.7c-6.71 6.472-9.664 16.047-9.664 16.047-.3-4.606.06-8.83.907-12.698l-8.513 8.742 14.311 14.74 14.506-14.94-11.547-11.892z" data-darkreader-inline-fill="" style="--darkreader-inline-fill: #fad827;"></path><path fill="#C4D52D" d="m43.783 119.917-11.785-11.991-13.29 13.687 3.708 6.178 9.71 10 8.52-8.775a42.699 42.699 0 0 1 3.137-9.099z" data-darkreader-inline-fill="" style="--darkreader-inline-fill: #cad942;"></path><path fill="#1B80C1" d="m17.633 92.986-7.638 7.72c.65 5.1 2.35 10.3 5.193 15.04l3.52 5.867 13.29-13.687-14.365-14.94z" data-darkreader-inline-fill="" style="--darkreader-inline-fill: #4ba9e6;"></path><path fill="#1A4685" d="M10.989 86.143c-1.22 4.667-1.597 9.683-.993 14.563l7.638-7.72-6.645-6.843z" data-darkreader-inline-fill="" style="--darkreader-inline-fill: #85b8e7;"></path><path fill="#B12026" d="m89.956 197.35 12.502 13.022c4.143-8.355 5.148-18.255 2.307-27.504l-.302-.311-14.507 14.793z" data-darkreader-inline-fill="" style="--darkreader-inline-fill: #e1585e;"></path><path fill="#E42028" d="M89.956 167.47 75.52 182.484l14.436 14.867 14.506-14.793z" data-darkreader-inline-fill="" style="--darkreader-inline-fill: #e7353d;"></path><path fill="#F16B4E" d="m75.52 152.604-14.576 14.867 14.576 15.012 14.436-15.012z" data-darkreader-inline-fill="" style="--darkreader-inline-fill: #f17054;"></path><path fill="#FAD412" d="m60.944 137.591-14.506 14.94 14.506 14.94 14.576-14.867z" data-darkreader-inline-fill="" style="--darkreader-inline-fill: #fad827;"></path><path fill="#FFC951" d="m32.127 137.792-2.293 2.36 10.933 18.22 5.671-5.841z" data-darkreader-inline-fill="" style="--darkreader-inline-fill: #ffc952;"></path><path fill="#FFC951" d="m22.416 127.79 7.418 12.363 2.293-2.361z" data-darkreader-inline-fill="" style="--darkreader-inline-fill: #ffc952;"></path><path fill="#981C20" d="M102.458 210.371 89.955 197.35 75.45 212.29l12.918 13.304a36.951 36.951 0 0 0 14.09-15.222z" data-darkreader-inline-fill="" style="--darkreader-inline-fill: #e36a6d;"></path><path fill="#C92039" d="m75.52 182.483-12.59 12.823 6.423 10.704 6.097 6.28 14.506-14.94z" data-darkreader-inline-fill="" style="--darkreader-inline-fill: #e2465d;"></path><path fill="#F05B41" d="m60.944 167.47-9.096 9.369 11.081 18.467 12.59-12.823z" data-darkreader-inline-fill="" style="--darkreader-inline-fill: #f1634b;"></path><path fill="#F6CC18" d="m46.438 152.53-5.671 5.842 11.081 18.467 9.096-9.368z" data-darkreader-inline-fill="" style="--darkreader-inline-fill: #f7d02c;"></path><path fill="#7A1319" d="m74.01 213.772 8.904 14.838 4.104-2.237c.429-.233.934-.533 1.35-.78L75.45 212.29l-1.44 1.482z" data-darkreader-inline-fill="" style="--darkreader-inline-fill: #eb7d84;"></path><path fill="#981C20" d="m69.353 206.01 4.658 7.762 1.44-1.482z" data-darkreader-inline-fill="" style="--darkreader-inline-fill: #e36a6d;"></path><path fill="#15796E" d="m147.842 48.094 10.653-10.971a41.81 41.81 0 0 0 .943-6.94l-11.414-11.755-14.48 14.94 14.298 14.726z" data-darkreader-inline-fill="" style="--darkreader-inline-fill: #7fe9dd;"></path><path fill="#29B364" d="m133.53 33.354 14.494-14.926-2.737-2.965-20.95 8.422z" data-darkreader-inline-fill="" style="--darkreader-inline-fill: #58d98f;"></path><path fill="#21A29F" d="M151.819 52.189c3.057-4.334 5.434-9.932 6.677-15.066l-10.653 10.971 3.976 4.095z" data-darkreader-inline-fill="" style="--darkreader-inline-fill: #63dfdc;"></path><path fill="#12827F" d="M159.438 30.183c.307-6.28-.783-12.862-3.488-19.006l-1.41.567-6.516 6.684 11.414 11.755zM154.54 11.744l-9.253 3.72 2.737 2.964z" data-darkreader-inline-fill="" style="--darkreader-inline-fill: #77ece9;"></path><path fill="#0C6355" d="m133.336 63.034 14.506-14.94-14.311-14.713-14.493 14.926z" data-darkreader-inline-fill="" style="--darkreader-inline-fill: #8cf1e1;"></path><path fill="#1B974D" d="m104.532 33.368 14.506 14.94 14.48-14.94-9.2-9.476-17.363 6.98z" data-darkreader-inline-fill="" style="--darkreader-inline-fill: #6ae49b;"></path><path fill="#16669F" d="m106.955 30.872-3.485 1.401 1.062 1.095z" data-darkreader-inline-fill="" style="--darkreader-inline-fill: #63b1e9;"></path><path fill="#44BFBD" d="M135.9 65.674A41.696 41.696 0 0 0 151.82 52.19l-3.977-4.095-14.506 14.94 2.564 2.64z" data-darkreader-inline-fill="" style="--darkreader-inline-fill: #56c5c3;"></path><path fill="#0D5650" d="m115.71 74.76 11.052-4.956 6.574-6.77-14.298-14.727-14.506 14.94z" data-darkreader-inline-fill="" style="--darkreader-inline-fill: #c9c4bd;"></path><path fill="#3FAF49" d="m119.038 48.307-14.506-14.94-14.576 14.868 14.563 14.999z" data-darkreader-inline-fill="" style="--darkreader-inline-fill: #5fc568;"></path><path fill="#0D77B3" d="m104.532 33.368-1.062-1.095-20.97 8.43 7.456 7.532z" data-darkreader-inline-fill="" style="--darkreader-inline-fill: #52b9f2;"></path><path fill="#0C6355" d="M134.766 66.217c.352-.157.789-.376 1.134-.543l-2.564-2.64-6.574 6.77 8.004-3.587z" data-darkreader-inline-fill="" style="--darkreader-inline-fill: #8cf1e1;"></path><path fill="#12827F" d="m115.71 74.76-11.178-11.513-14.506 14.94 5.47 5.633z" data-darkreader-inline-fill="" style="--darkreader-inline-fill: #77ece9;"></path><path fill="#4EB648" d="M104.532 63.247 89.956 48.235 75.52 63.247l14.493 14.927z" data-darkreader-inline-fill="" style="--darkreader-inline-fill: #60be5b;"></path><path fill="#16669F" d="M89.956 48.235 82.5 40.703l-20.868 8.388L75.52 63.247z" data-darkreader-inline-fill="" style="--darkreader-inline-fill: #63b1e9;"></path><path fill="#FBB139" d="M129.526 119.012c1.902-7.144 2.108-15.019.353-22.538l-11.048 11.379 10.695 11.16z" data-darkreader-inline-fill="" style="--darkreader-inline-fill: #fbb542;"></path><path fill="#E2B523" d="m110.62 99.542 8.21 8.311 11.049-11.38a46.303 46.303 0 0 0-1.186-4.149l-18.074 7.218z" data-darkreader-inline-fill="" style="--darkreader-inline-fill: #e5bc38;"></path><path fill="#189590" d="M90.026 78.186 76.128 92.501l19.367-8.681z" data-darkreader-inline-fill="" style="--darkreader-inline-fill: #6be7e2;"></path><path fill="#8EC63F" d="m76.083 92.521 13.943-14.335-14.506-14.94-14.381 14.668 14.413 14.844z" data-darkreader-inline-fill="" style="--darkreader-inline-fill: #99cb51;"></path><path fill="#0D77B3" d="M75.52 63.247 61.633 49.09l-2.264.91-13.002 13.246L61.14 77.914z" data-darkreader-inline-fill="" style="--darkreader-inline-fill: #52b9f2;"></path><path fill="#1953A2" d="m59.37 50.002-18.603 7.477 5.6 5.768z" data-darkreader-inline-fill="" style="--darkreader-inline-fill: #72b0e9;"></path><path fill="#ED3551" d="M119.324 137.84c.885-.988 2.15-2.59 2.942-3.646l-3.17 3.41.228.236z" data-darkreader-inline-fill="" style="--darkreader-inline-fill: #ee435d;"></path><path fill="#F8A561" d="m118.83 137.877 3.437-3.683a46.268 46.268 0 0 0 7.259-15.182l-10.695-11.159-14.311 14.74 14.31 15.284z" data-darkreader-inline-fill="" style="--darkreader-inline-fill: #f8a460;"></path><path fill="#E9B520" d="m90.279 107.926 14.24 14.666 14.312-14.739-8.212-8.311-19.925 7.956z" data-darkreader-inline-fill="" style="--darkreader-inline-fill: #ebbc34;"></path><path fill="#EE4649" d="m118.83 137.877.244.251c.085-.095.166-.193.25-.288l-.228-.235-.265.272z" data-darkreader-inline-fill="" style="--darkreader-inline-fill: #ef4f52;"></path></svg>
