<?xml version="1.0" encoding="UTF-8"?>
<svg width="800" height="327" viewBox="0 0 800 327" fill="none" xmlns="http://www.w3.org/2000/svg">
<path d="M244.218 208.833C234.942 208.833 226.284 208.833 217.352 208.833C217.352 199.348 217.352 190.07 217.352 180.447C226.147 180.447 234.873 180.447 244.15 180.447C244.15 177.47 244.15 174.908 244.15 172.277C244.15 161.477 244.699 150.676 247.997 140.291C254.937 118.344 269.917 106.158 292.386 103.112C295.34 102.697 298.295 102.42 301.25 102.42C324.681 102.351 348.181 102.351 371.612 102.351C372.574 102.351 373.467 102.42 374.635 102.489C374.635 176.223 374.635 251.715 374.635 325.588C363.229 325.588 351.822 325.588 340.072 325.588C340.072 263.069 340.072 198.655 340.072 136.414C339.523 135.929 339.317 135.652 339.11 135.652C327.017 135.791 314.786 135.237 302.761 136.275C289.019 137.452 281.323 145.76 279.949 159.607C279.33 166.254 279.811 172.969 279.811 180.101C290.05 180.101 300.357 180.101 310.938 180.101C310.938 189.793 310.938 199.071 310.938 208.694C300.563 208.694 290.256 208.694 279.605 208.694C279.605 247.188 279.605 287.232 279.605 325.588C267.649 325.588 256.106 325.588 244.218 325.588C244.218 287.44 244.218 247.396 244.218 208.833Z" fill="#192147"/>
<path d="M503.166 275.501C511.461 281.649 519.269 287.454 527.355 293.397C521.639 302.344 514.11 309.038 505.187 314.229C476.258 331.236 437.43 328.982 412.474 308.56C396.929 295.855 388.913 279.258 386.961 259.655C385.149 241.555 388.216 224.48 398.602 209.112C411.847 189.441 431.017 179.264 454.788 177.146C475.491 175.302 494.383 180.015 510.555 193.266C524.985 205.014 533.001 220.382 534.884 238.55C535.72 246.61 535.023 254.806 535.023 263.275C497.868 263.275 460.853 263.275 423.349 263.275C425.998 275.433 432.202 284.312 443.356 289.435C463.083 298.451 487.76 293.26 502.12 277.072C502.469 276.663 502.748 276.116 503.166 275.501ZM499.89 238.755C499.402 220.928 482.044 207.404 461.201 207.951C437.918 208.565 425.231 223.728 423.837 238.755C449.072 238.755 474.376 238.755 499.89 238.755Z" fill="#192147"/>
<path d="M690.882 263.452C652.915 263.452 615.991 263.452 579.067 263.452C580.736 277.262 592.279 289.294 606.743 292.234C627.117 296.405 644.64 291.687 658.826 275.689C666.614 281.501 674.471 287.312 682.538 293.328C677.74 301.122 671.342 307.07 663.971 312.061C633.723 332.297 589.776 329.563 564.603 305.634C547.358 289.226 540.961 268.716 542.212 245.608C543.256 226.944 550.001 210.467 563.769 197.409C580.04 181.958 599.858 175.737 622.18 176.899C643.736 178.061 661.816 186.265 675.375 203.015C686.64 216.962 691.021 233.165 690.882 250.735C690.882 254.837 690.882 258.94 690.882 263.452ZM578.997 238.566C604.517 238.566 629.829 238.566 655.14 238.566C654.445 225.235 643.736 209.168 619.885 207.869C598.815 206.775 581.779 219.218 578.997 238.566Z" fill="#192147"/>
<path d="M798.97 292.08C791.411 292.08 783.784 292.08 776.295 291.388C762.552 290.211 754.856 281.903 753.482 268.056C752.863 261.409 753.345 214.192 753.345 207.13C763.583 207.13 773.89 207.13 784.471 207.13C784.471 197.437 784.471 188.16 784.471 178.536C774.096 178.536 763.789 178.536 753.138 178.536C753.138 140.042 753.138 140.706 753.138 102.351C741.182 102.351 729.639 102.351 717.751 102.351C717.751 140.568 717.751 139.973 717.751 178.536C708.475 178.536 699.817 178.536 690.885 178.536C690.885 188.021 690.885 197.299 690.885 206.922C699.68 206.922 708.406 206.922 717.683 206.922C717.683 209.899 717.683 252.963 717.683 255.525C717.683 266.325 718.232 277.126 721.531 287.511C728.471 309.458 743.45 321.643 765.919 324.689C768.874 325.105 771.828 325.382 774.783 325.382C782.822 325.382 790.862 325.382 798.97 325.382V292.08Z" fill="#192147"/>
<path d="M27.9379 54.9974C42.8822 54.9974 54.997 42.8827 54.997 27.9384C54.997 12.9941 42.8822 0.879395 27.9379 0.879395C12.9936 0.879395 0.878906 12.9941 0.878906 27.9384C0.878906 42.8827 12.9936 54.9974 27.9379 54.9974Z" fill="#63C740"/>
<path d="M109.116 54.9974C124.06 54.9974 136.175 42.8827 136.175 27.9384C136.175 12.9941 124.06 0.879395 109.116 0.879395C94.1714 0.879395 82.0566 12.9941 82.0566 27.9384C82.0566 42.8827 94.1714 54.9974 109.116 54.9974Z" fill="#5CABDF"/>
<path d="M190.291 54.9974C205.236 54.9974 217.35 42.8827 217.35 27.9384C217.35 12.9941 205.236 0.879395 190.291 0.879395C175.347 0.879395 163.232 12.9941 163.232 27.9384C163.232 42.8827 175.347 54.9974 190.291 54.9974Z" fill="#D66C7B"/>
<path d="M27.9379 136.175C42.8822 136.175 54.997 124.06 54.997 109.116C54.997 94.1714 42.8822 82.0566 27.9379 82.0566C12.9936 82.0566 0.878906 94.1714 0.878906 109.116C0.878906 124.06 12.9936 136.175 27.9379 136.175Z" fill="#C98DEF"/>
<path d="M109.116 136.175C124.06 136.175 136.175 124.06 136.175 109.116C136.175 94.1714 124.06 82.0566 109.116 82.0566C94.1714 82.0566 82.0566 94.1714 82.0566 109.116C82.0566 124.06 94.1714 136.175 109.116 136.175Z" fill="#FAA669"/>
<path d="M27.9379 217.351C42.8822 217.351 54.997 205.237 54.997 190.292C54.997 175.348 42.8822 163.233 27.9379 163.233C12.9936 163.233 0.878906 175.348 0.878906 190.292C0.878906 205.237 12.9936 217.351 27.9379 217.351Z" fill="#3AEFC4"/>
</svg>
