<?xml version="1.0" encoding="UTF-8"?>
<svg id="logosandtypes_com" data-name="logosandtypes com" xmlns="http://www.w3.org/2000/svg" viewBox="0 0 150 150">
  <defs>
    <style>
      .cls-1 {
        fill: #7c3aed;
        fill-rule: evenodd;
      }

      .cls-2 {
        fill: none;
      }
    </style>
  </defs>
  <g id="Layer_3" data-name="Layer 3">
    <g id="Layer_2" data-name="Layer 2">
      <path id="Layer_3-2" data-name="Layer 3-2" class="cls-2" d="M0,0H150V150H0V0Z"/>
    </g>
  </g>
  <path class="cls-1" d="M140.19,76.45c-3.24-14.68-11.77-43.35-15.1-56.52-6.68,.83-18.4,2.17-24.91,2.97,0,0-11.73,1.41-11.73,1.41-1.91,.27-3.79-.53-4.19-2.11-.33-1.03-1.18-5.12-1.95-5.88-.9-.94-2.35-.97-3.55-.69-15.06,1.87-49.7,6.21-49.7,6.21l-3.47-12.55-15.25,1.87L45.82,141.9l14.93-1.99L34.32,41.31s33.41-4.16,48.14-6.1c3.63-.62,5.03,.57,7.18,4.1,.84,1.41,1.68,1.76,3.47,1.52,.07,0,20.89-2.41,20.96-2.38,1.01,3.73,3.08,11.11,4.07,14.81l-18.09,2.35c-2.75,.35-4.55-.47-6.1-2.7-.47-.68-1.17-2.1-1.89-2.5-.7-.52-1.48-.57-2.66-.43-9.03,1.12-35.96,4.46-35.96,4.46l3.23,11.84s24.42-2.93,33.09-4.1c3.05-.61,5.65,.3,6.98,4.42,.31,.96,1.37,1.47,2.38,1.54l22.33-2.92,4.14,14.7s-18.11,2.66-18.11,2.66c-2.87,.35-4.09,.2-5.64-2.03-.17-.28-1.1-1.45-1.63-1.98-1.28-1.28-3.09-1.9-4.88-1.66l-34.58,4.5,4.55,16.65s25.11-3.45,35.45-4.45c3.31-.44,2.75,2.76,3.9,4.64,.61,.94,1.73,1.56,4.12,1.22l14.75-1.85c5.81-.71,11.8-1.61,15.16-6.4,1.51-2.16,2.52-6.64,2.34-9.02-.09-1.22-.56-4.54-.82-5.74Z"/>
</svg>