<svg width="101" height="101" viewBox="0 0 101 101" fill="none" xmlns="http://www.w3.org/2000/svg">
<path d="M72.3746 0.845703H29.5175C13.7379 0.845703 0.946045 13.6376 0.946045 29.4171V72.2743C0.946045 88.0538 13.7379 100.846 29.5175 100.846H72.3746C88.1542 100.846 100.946 88.0538 100.946 72.2743V29.4171C100.946 13.6376 88.1542 0.845703 72.3746 0.845703Z" fill="#0E7159"/>
<path d="M79.5179 30.4538L76.9465 29.7037C68.0537 27.0966 58.3393 28.8823 50.9464 34.4538C45.7679 30.5609 39.4464 28.5253 33.0893 28.561H22.375V35.7394H33.0893C37.9821 35.7394 42.8394 37.2753 46.8037 40.311L50.9464 43.4538L55.0894 40.311C60.018 36.561 66.3393 35.0252 72.375 36.0252V64.9894C64.8393 64.0609 57.0893 66.061 50.9464 70.6681C45.7679 66.811 39.5179 64.7752 33.1608 64.7752C31.9465 64.7752 30.7321 64.8466 29.5179 64.9894V45.0253H22.375V73.2039H79.5179V30.4895V30.4538Z" fill="white"/>
</svg>
