<?xml version="1.0" encoding="utf-8"?>
<!-- Generator: Adobe Illustrator 25.0.0, SVG Export Plug-In . SVG Version: 6.00 Build 0)  -->
<svg version="1.1" id="Layer_1" xmlns="http://www.w3.org/2000/svg" xmlns:xlink="http://www.w3.org/1999/xlink" x="0px" y="0px"
	 viewBox="100 100 800 520" xml:space="preserve">
<style type="text/css">
	.st0{fill:#73A952;}
	.st1{fill:#303030;}
</style>
<g id="Layer_2_1_">
	<g>
		<path class="st0" d="M822.9,149.5c-4.8-4.8-10.8-4.4-10.8-4.4s-132.1,7.3-200.3,8.9c-14.9,0.3-29.8,0.6-44.5,0.6v132.1
			c-6.4-2.9-12.4-6-18.7-8.9c0-41,0-122.9,0-122.9c-32.7,0.3-100.3-2.5-100.3-2.5s-159.4-7.9-176.5-9.5c-11.1-0.6-25.4-2.2-43.8,1.6
			c-9.8,1.9-37.8,8.3-60.6,30.2c-50.8,45.1-37.8,117.2-36.2,128c1.9,13,7.6,49.8,35.6,81.6c51.4,63.2,162.6,61.6,162.6,61.6
			s13.7,32.7,34.6,62.5c28.3,37.1,57.2,66.4,85.1,69.9c70.8,0,212.7,0,212.7,0s13.7,0,31.8-11.7c15.9-9.5,29.8-26.4,29.8-26.4
			s14.6-15.6,34.9-51.1c6.4-10.8,11.4-21.6,15.9-31.4c0,0,62.2-131.8,62.2-260.4C834.6,158.7,825.1,151.7,822.9,149.5L822.9,149.5z
			 M263.1,379.3c-29.2-9.5-41.6-21-41.6-21s-21.6-15.2-32.4-44.8c-18.4-50.2-1.6-80.3-1.6-80.3s9.5-25.4,43.5-33.7
			c15.6-4.1,34.9-3.5,34.9-3.5s7.9,67,17.8,106c8.3,33,27.9,87.6,27.9,87.6S282.1,386,263.1,379.3L263.1,379.3z M601.2,500.3
			c0,0-7,16.2-22.2,17.5c-6.7,0.3-11.7-1.3-11.7-1.3s-0.3,0-6-2.2l-127-61.9c0,0-12.4-6.4-14.3-17.5c-2.5-9.2,3.2-20.3,3.2-20.3
			l61.3-126.1c0,0,5.4-10.8,13.7-14.6c0.6-0.3,2.5-1.3,5.1-1.6c9.2-2.2,20.3,3.2,20.3,3.2l124.8,60.3c0,0,14.3,6.4,17.1,18.1
			c2.2,8.3-0.6,15.9-1.9,19.4C656.2,390.4,601.2,500.3,601.2,500.3L601.2,500.3z"/>
		<path class="st0" d="M489.8,408.9c-9.2,0-17.5,6.7-19.4,15.6c-2.2,8.9,2.2,18.4,10.2,22.5c8.6,4.4,19.7,1.9,25.7-6
			c5.7-7.9,4.8-19.1-1.9-26l27-55.2c1.6,0,4.1,0.3,7-0.6c4.8-1,7.9-4.1,7.9-4.1c4.8,1.9,9.8,4.1,14.9,7c5.4,2.9,10.5,5.4,15.2,8.3
			c1,0.6,1.9,1.3,3.2,2.2c1.9,1.6,3.8,3.5,5.4,6.4c2.2,6.4-2.2,16.8-2.2,16.8c-2.5,8.6-20.6,45.7-20.6,45.7c-9.2-0.3-17.1,5.7-20,14
			c-2.9,9.2,1.3,19.4,10.2,24.1s19.7,1.9,25.4-6c5.7-7.6,5.1-18.4-1.3-25.4c2.2-4.1,4.1-8.3,6.4-12.7c5.7-11.7,15.2-34.3,15.2-34.3
			c1-1.9,6.4-11.7,3.2-24.1c-2.9-12.7-14.3-18.7-14.3-18.7c-13.7-8.9-33-17.1-33-17.1s0-4.8-1.3-7.9c-1.3-3.5-3.2-5.7-4.4-7
			c5.4-10.8,10.5-21.6,15.9-32.7c-4.8-2.2-9.2-4.4-13.7-7c-5.4,11.1-10.8,22.2-16.2,33.3c-7.6,0-14.6,3.8-18.1,10.5
			c-3.8,7-3.2,15.9,2.2,22.2L489.8,408.9L489.8,408.9z"/>
	</g>

</g>
</svg>
