<?xml version="1.0" standalone="no"?>
<!DOCTYPE svg PUBLIC "-//W3C//DTD SVG 20010904//EN"
 "http://www.w3.org/TR/2001/REC-SVG-20010904/DTD/svg10.dtd">
<svg version="1.0" xmlns="http://www.w3.org/2000/svg"
 width="185.000000pt" height="222.000000pt" viewBox="0 0 185.000000 222.000000"
 preserveAspectRatio="xMidYMid meet">
<metadata>
Created by potrace 1.16, written by Peter Selinger 2001-2019
</metadata>
<g transform="translate(0.000000,222.000000) scale(0.100000,-0.100000)"
fill="#337ab7" stroke="none">
<path d="M983 2210 c-468 -66 -828 -418 -944 -920 -29 -124 -36 -358 -15 -478
57 -328 272 -604 565 -727 125 -53 193 -67 353 -72 112 -4 171 -1 250 12 247
41 496 156 611 284 l37 41 -5 172 c-3 95 -8 316 -11 491 l-6 319 -267 -8
c-146 -3 -342 -9 -436 -13 l-170 -6 -8 -213 c-5 -118 -7 -215 -5 -217 2 -2 81
-7 176 -11 l172 -7 0 -27 c0 -65 -12 -90 -51 -111 -60 -30 -172 -44 -241 -30
-249 52 -347 418 -180 677 105 163 290 242 537 231 68 -4 153 -15 195 -25 41
-11 77 -16 80 -11 9 13 43 526 37 542 -8 22 -124 64 -236 87 -115 23 -342 34
-438 20z"/>
</g>
</svg>
