<svg width="346" height="434" xmlns="http://www.w3.org/2000/svg">

 <g>
  <title>background</title>
  <rect fill="none" id="canvas_background" height="436" width="348" y="-1" x="-1"/>
 </g>
 <g>
  <title>Layer 1</title>
  <path id="svg_1" d="m221.227,397.119l0,-24.919l8.552,-26.577c59.868,-59.323 106.907,-114.847 115.221,-131.932l-10.215,3.56s9.5,-11.864 8.552,-18.51c-7.6,-116.273 -73.17,-176.862 -91.226,-191.732c26.607,31.955 19.326,42.4 19.326,42.4c-11.723,-21.833 -35.797,-43.032 -40.549,-48.409l-5.7,33.853c22.806,13.289 16.79,20.882 16.79,20.882c-5.387,-7.594 -19.957,-14.235 -19.957,-14.235l-1.586,9.491c6.973,3.165 38.327,22.149 38.565,70.872c0,59.323 -33.735,74.985 -39.674,77.357c-19.718,-11.865 -41.1,-11.627 -46.326,-12.1c-5.226,0.474 -26.608,0.236 -46.324,12.1c-5.941,-2.376 -39.676,-18.038 -39.676,-77.361c0.238,-48.723 31.6,-67.707 38.564,-70.872l-1.581,-9.487s-14.574,6.644 -19.955,14.238c0,0 -6.022,-7.593 16.786,-20.882l-5.702,-33.856c-4.752,5.378 -28.824,26.577 -40.543,48.407c0,0 -7.288,-10.443 19.32,-42.4c-18.054,14.87 -83.625,75.459 -91.226,191.732c-0.95,6.646 8.554,18.51 8.554,18.51l-10.217,-3.558c8.316,17.085 55.355,72.612 115.221,131.935l8.554,26.577l0,24.916l-7.6,-26.577l-17.345,-28.475l0,28.95c7.127,20.169 34.921,60.983 34.921,60.983l0,-84.475l-106.431,-116.037s66.52,54.1 85.526,73.56l9.978,-10.2c-12.355,-8.78 -66.045,-62.646 -70.8,-110.1c40.388,85.426 79.111,96.1 107.62,129.325l0,8.127l24.707,0l0,-8.131c28.508,-33.221 67.233,-43.9 107.619,-129.325c-4.75,47.459 -58.442,101.325 -70.8,110.1l9.976,10.2c19.006,-19.458 85.526,-73.56 85.526,-73.56l-106.423,116.041l0,84.475s27.8,-40.815 34.923,-60.984l0,-28.95l-17.343,28.475l-7.602,26.578zm-48.227,-102.036c-17.818,-11.865 -63.668,-39.629 -82.672,-83.053a314.117,314.117 0 0 0 34.447,34.882s-1.189,-30.61 1.186,-37.255c4.276,36.781 13.068,52.442 47.039,71.9c33.973,-19.458 42.763,-35.119 47.039,-71.9c2.375,6.645 1.188,37.255 1.188,37.255a314.117,314.117 0 0 0 34.447,-34.882c-19.006,43.424 -64.856,71.188 -82.674,83.053z" class="cls-1"/>
 </g>
</svg>