<svg xmlns="http://www.w3.org/2000/svg" xml:space="preserve" style="fill-rule:evenodd;clip-rule:evenodd;stroke-linejoin:round;stroke-miterlimit:2" viewBox="0 0 355 354" height="24" class="fill-foreground"><path d="M565.33 118.79H253.02c-11.56 0-20.93 9.37-20.93 20.93v310.72c0 11.56 9.37 20.93 20.93 20.93h312.31c11.56 0 20.93-9.37 20.93-20.93V139.72c0-11.56-9.37-20.93-20.93-20.93M386.85 419.57c0 3.01-2.45 5.46-5.46 5.46h-96.28c-3.01 0-5.46-2.45-5.46-5.46V169.43c0-3.01 2.45-5.47 5.46-5.47h94.76a5.47 5.47 0 0 1 5.46 5.47v95.21s-.52 40.97 1.52 73.12v81.82zm150.34 0c0 4.35-4.83 6.95-8.44 4.57l-43.9-28.7c-1.9-1.26-4.35-1.19-6.21.15l-38.48 27.81c-1.6 1.19-3.49 1.26-5.09.67-1.41-1-2.34-2.64-2.34-4.5V225.34c5.21-1 11-1.56 17.7-1.56 32.86 0 86.77 18.59 86.77 71v124.8z" style="fill-rule:nonzero" transform="translate(-232 -118)"></path></svg>