<?xml version="1.0" encoding="UTF-8"?>
<!DOCTYPE svg PUBLIC "-//W3C//DTD SVG 1.1//EN" "http://www.w3.org/Graphics/SVG/1.1/DTD/svg11.dtd">
<svg xmlns="http://www.w3.org/2000/svg" version="1.1" width="484px" height="329px" style="shape-rendering:geometricPrecision; text-rendering:geometricPrecision; image-rendering:optimizeQuality; fill-rule:evenodd; clip-rule:evenodd" xmlns:xlink="http://www.w3.org/1999/xlink">
<g><path style="opacity:0.947" fill="#f95251" d="M 157.5,-0.5 C 158.833,-0.5 160.167,-0.5 161.5,-0.5C 200.102,3.59921 222.268,24.9325 228,63.5C 228.667,88.5 228.667,113.5 228,138.5C 222.962,132.265 216.629,130.265 209,132.5C 208.667,109.167 208.333,85.8333 208,62.5C 202.332,36.3319 186.165,21.9986 159.5,19.5C 141.783,20.273 127.949,27.9397 118,42.5C 112.924,38.3791 107.757,34.3791 102.5,30.5C 115.97,11.5969 134.303,1.26361 157.5,-0.5 Z"/></g>
<g><path style="opacity:0.947" fill="#f95251" d="M 321.5,-0.5 C 322.833,-0.5 324.167,-0.5 325.5,-0.5C 348.697,1.26361 367.03,11.5969 380.5,30.5C 375.243,34.3791 370.076,38.3791 365,42.5C 349.005,21.3908 328.505,15.2242 303.5,24C 287.107,31.7273 277.607,44.5606 275,62.5C 274.667,85.8333 274.333,109.167 274,132.5C 266.371,130.265 260.038,132.265 255,138.5C 254.333,113.5 254.333,88.5 255,63.5C 260.732,24.9325 282.898,3.59921 321.5,-0.5 Z"/></g>
<g><path style="opacity:0.984" fill="#f95251" d="M -0.5,139.5 C -0.5,137.167 -0.5,134.833 -0.5,132.5C 19.5,132.5 39.5,132.5 59.5,132.5C 51.7127,98.1844 43.3793,64.0177 34.5,30C 83.3876,36.5512 118.554,62.0512 140,106.5C 159.513,155.397 153.846,201.064 123,243.5C 114.899,253.77 105.399,262.437 94.5,269.5C 90.7735,258.059 87.6068,246.392 85,234.5C 39.0428,218.384 10.5428,186.717 -0.5,139.5 Z"/></g>
<g><path style="opacity:0.984" fill="#f95251" d="M 483.5,132.5 C 483.5,134.833 483.5,137.167 483.5,139.5C 472.457,186.717 443.957,218.384 398,234.5C 395.393,246.392 392.226,258.059 388.5,269.5C 351.514,243.037 332.514,206.871 331.5,161C 333.865,105.236 359.865,64.9024 409.5,40C 421.97,34.3953 434.97,31.0619 448.5,30C 439.621,64.0177 431.287,98.1844 423.5,132.5C 443.5,132.5 463.5,132.5 483.5,132.5 Z"/></g>
<g><path style="opacity:0.95" fill="#f95251" d="M 211.5,170.5 C 225.127,170.958 231.627,177.958 231,191.5C 226.507,203.825 218.007,207.659 205.5,203C 197.535,196.871 195.369,189.037 199,179.5C 201.917,174.637 206.083,171.637 211.5,170.5 Z"/></g>
<g><path style="opacity:0.949" fill="#f95251" d="M 265.5,170.5 C 280.848,170.68 287.348,178.347 285,193.5C 279.06,204.76 270.227,207.593 258.5,202C 249.176,192.625 249.176,183.292 258.5,174C 260.925,172.787 263.259,171.621 265.5,170.5 Z"/></g>
<g><path style="opacity:0.987" fill="#f95251" d="M 388.5,328.5 C 386.5,328.5 384.5,328.5 382.5,328.5C 285.992,327.966 189.325,326.966 92.5,325.5C 120.96,261.579 170.294,227.913 240.5,224.5C 299.804,226.887 345.304,252.887 377,302.5C 381.676,310.846 385.509,319.513 388.5,328.5 Z"/></g>
</svg>
