<svg enable-background="new -173 -143 900 900" height="900" viewBox="-173 -143 900 900" width="900" xmlns="http://www.w3.org/2000/svg"><path d="m-173-143h900v900h-900z" fill="none"/><path d="m694.1 394.9-81-352.7c-4.6-19.3-22.1-38.6-41.4-44.2l-370.2-114.2c-4.6-1.8-10.1-1.8-15.7-1.8-15.7 0-32.2 6.4-43.3 15.7l-265.2 246.8c-14.7 12.9-22.1 38.7-17.5 57.1l86.6 377.6c4.6 19.3 22.1 38.7 41.4 44.2l346.2 106.8c4.6 1.8 10.1 1.8 15.7 1.8 15.7 0 32.2-6.4 43.3-15.7l283.6-263.3c14.8-13.8 22.1-38.7 17.5-58.1zm-453.9-427.3 254.1 78.3c10.1 2.8 10.1 7.4 0 10.1l-133.5 30.4c-10.1 2.8-23.9-1.8-31.3-9.2l-93-100.4c-8.3-8.2-6.5-11.9 3.7-9.2zm158.3 455.9c2.8 10.1-3.7 15.7-13.8 12.9l-274.4-84.7c-10.1-2.8-12-11.1-4.6-18.4l210-195.3c7.4-7.4 15.7-4.6 18.4 5.5zm-452.1-248.7 222.9-207.2c7.4-7.4 19.3-6.4 26.7.9l111.4 120.7c7.4 7.4 6.4 19.3-.9 26.7l-222.9 207.2c-7.4 7.4-19.3 6.4-26.7-.9l-111.4-120.6c-7.4-8.3-6.4-20.3.9-26.8zm54.4 328.8-58.9-258.8c-2.8-10.1 1.8-12 8.3-4.6l93 100.4c7.4 7.4 10.1 22.1 7.4 32.2l-40.6 130.8c-2.8 10.1-7.4 10.1-9.2 0zm325.9 151-291-89.3c-10.1-2.8-15.7-13.8-12.9-23.9l48.8-156.6c2.8-10.1 13.8-15.7 23.9-12.9l291 89.3c10.1 2.8 15.7 13.8 12.9 23.9l-48.8 156.6c-3.6 10.2-13.7 15.7-23.9 12.9zm257.8-211.8-194.2 180.5c-7.4 7.4-11 4.6-8.3-5.5l40.5-130.8c2.8-10.1 13.8-20.3 23.9-22.1l133.5-30.4c10.2-2.7 12 1.9 4.6 8.3zm21.2-38.6-160.2 36.8c-10.1 2.8-20.3-3.7-23-13.8l-68.1-296.5c-2.8-10.1 3.7-20.3 13.8-23l160.2-36.8c10.1-2.8 20.3 3.7 23 13.8l68.1 296.5c2.8 11-3.6 21.1-13.8 23z" fill="#22adf6"/></svg>