<svg width="30" height="30" viewBox="0 0 202 192" fill="none" xmlns="http://www.w3.org/2000/svg"><g filter="url(#filter0_ddi_108_149)"><path d="M1 39.1976C1.00455 27.9441 1.00435 20.6882 3.68702 15.1463C6.04676 10.2715 9.81132 6.3077 14.4426 3.82386C19.7076 1.00013 26.5981 1 40.3827 1L160.306 1.00008C174.09 1.00008 180.981 1.00021 186.246 3.82394C190.877 6.30778 194.642 10.2716 197.001 15.1464C199.684 20.6883 199.684 27.9442 199.679 39.1976L201 149.546C201 164.056 201 171.312 198.317 176.854C195.958 181.728 192.193 185.692 187.562 188.176C182.297 191 175.406 191 161.622 191L41.6987 191C27.9141 191 21.0235 191 15.7585 188.176C11.1272 185.692 7.3627 181.728 5.00296 176.853C2.32029 171.312 2.32048 164.056 2.32048 149.546L1 39.1976Z" fill="url(#paint0_linear_108_149)"></path><path d="M34.0387 67.5918C34.0387 55.2761 34.0388 49.1181 36.3158 44.4141C38.3188 40.2764 41.5148 36.9123 45.4458 34.804C49.9148 32.4072 55.7649 32.4072 67.4654 32.4072H131.186C142.886 32.4072 148.736 32.4072 153.206 34.804C157.137 36.9123 160.333 40.2764 162.336 44.4141C164.613 49.1181 164.613 55.2761 164.613 67.5918V112.687C164.613 116.377 164.613 118.221 164.896 120.013C165.147 121.604 165.564 123.16 166.139 124.655C166.786 126.339 167.701 127.912 169.531 131.059L177.976 145.577C178.843 147.068 179.302 148.782 179.302 150.53C179.302 156.464 174.184 160.941 168.641 159.855L135.003 153.262C133.866 153.039 133.298 152.928 132.726 152.85C132.217 152.78 131.706 152.731 131.194 152.701C130.618 152.667 130.04 152.667 128.883 152.667H67.4654C55.7649 152.667 49.9148 152.667 45.4458 150.271C41.5148 148.162 38.3188 144.798 36.3158 140.66C34.0388 135.956 34.0387 129.798 34.0387 117.483V67.5918Z" fill="url(#paint1_linear_108_149)"></path><path d="M84.9615 93.9116C84.9615 101.123 79.4078 106.969 72.557 106.969C65.7062 106.969 60.1526 101.123 60.1526 93.9116C60.1526 86.7005 65.7062 80.8549 72.557 80.8549C79.4078 80.8549 84.9615 86.7005 84.9615 93.9116Z" fill="#EDE9E0"></path><path d="M142.414 93.9114C142.414 101.122 136.861 106.969 130.01 106.969C123.159 106.969 117.605 101.122 117.605 93.9114C117.605 86.7003 123.159 80.8547 130.01 80.8547C136.861 80.8547 142.414 86.7003 142.414 93.9114Z" fill="#EDE9E0"></path><path d="M113.688 63.6753C113.688 70.8863 108.134 76.7319 101.283 76.7319C94.4321 76.7319 88.8784 70.8863 88.8784 63.6753C88.8784 56.4642 94.4321 50.6184 101.283 50.6184C108.134 50.6184 113.688 56.4642 113.688 63.6753Z" fill="#EDE9E0"></path><path d="M113.688 124.149C113.688 131.36 108.134 137.206 101.283 137.206C94.4323 137.206 88.8786 131.36 88.8786 124.149C88.8786 116.938 94.4323 111.092 101.283 111.092C108.134 111.092 113.688 116.938 113.688 124.149Z" fill="#EDE9E0"></path></g><defs><filter id="filter0_ddi_108_149" x="0.637843" y="0.728382" width="200.679" height="190.634" filterUnits="userSpaceOnUse" color-interpolation-filters="sRGB"><feFlood flood-opacity="0" result="BackgroundImageFix"></feFlood><feColorMatrix in="SourceAlpha" type="matrix" values="0 0 0 0 0 0 0 0 0 0 0 0 0 0 0 0 0 0 127 0" result="hardAlpha"></feColorMatrix><feOffset dx="-0.135809" dy="0.135809"></feOffset><feGaussianBlur stdDeviation="0.0905394"></feGaussianBlur><feComposite in2="hardAlpha" operator="out"></feComposite><feColorMatrix type="matrix" values="0 0 0 0 1 0 0 0 0 1 0 0 0 0 1 0 0 0 0.25 0"></feColorMatrix><feBlend mode="normal" in2="BackgroundImageFix" result="effect1_dropShadow_108_149"></feBlend><feColorMatrix in="SourceAlpha" type="matrix" values="0 0 0 0 0 0 0 0 0 0 0 0 0 0 0 0 0 0 127 0" result="hardAlpha"></feColorMatrix><feOffset dx="0.181079" dy="-0.135809"></feOffset><feGaussianBlur stdDeviation="0.0679045"></feGaussianBlur><feComposite in2="hardAlpha" operator="out"></feComposite><feColorMatrix type="matrix" values="0 0 0 0 0.0784314 0 0 0 0 0.596078 0 0 0 0 0.282353 0 0 0 0.66 0"></feColorMatrix><feBlend mode="normal" in2="effect1_dropShadow_108_149" result="effect2_dropShadow_108_149"></feBlend><feBlend mode="normal" in="SourceGraphic" in2="effect2_dropShadow_108_149" result="shape"></feBlend><feColorMatrix in="SourceAlpha" type="matrix" values="0 0 0 0 0 0 0 0 0 0 0 0 0 0 0 0 0 0 127 0" result="hardAlpha"></feColorMatrix><feOffset dx="-0.362157" dy="0.362157"></feOffset><feGaussianBlur stdDeviation="0.271618"></feGaussianBlur><feComposite in2="hardAlpha" operator="arithmetic" k2="-1" k3="1"></feComposite><feColorMatrix type="matrix" values="0 0 0 0 0.722168 0 0 0 0 0.48793 0 0 0 0 0.455246 0 0 0 0.66 0"></feColorMatrix><feBlend mode="normal" in2="shape" result="effect3_innerShadow_108_149"></feBlend></filter><linearGradient id="paint0_linear_108_149" x1="101" y1="1" x2="101" y2="191" gradientUnits="userSpaceOnUse"><stop offset="0.100539" stop-color="#ECE8E1" data-darkreader-inline-stopcolor="" style="--darkreader-inline-stopcolor: var(--darkreader-background-ece8e1, #312b1f);"></stop><stop offset="0.171048" stop-color="#EAE6DE" data-darkreader-inline-stopcolor="" style="--darkreader-inline-stopcolor: var(--darkreader-background-eae6de, #262218);"></stop><stop offset="0.326166" stop-color="#EDE8DF" data-darkreader-inline-stopcolor="" style="--darkreader-inline-stopcolor: var(--darkreader-background-ede8df, #342c1d);"></stop><stop offset="0.520831" stop-color="#EDE7E1" data-darkreader-inline-stopcolor="" style="--darkreader-inline-stopcolor: var(--darkreader-background-ede7e1, #32281e);"></stop><stop offset="0.699493" stop-color="#EBE6E1" data-darkreader-inline-stopcolor="" style="--darkreader-inline-stopcolor: var(--darkreader-background-ebe6e1, #312920);"></stop><stop offset="1" stop-color="#D8D0C8" data-darkreader-inline-stopcolor="" style="--darkreader-inline-stopcolor: var(--darkreader-background-d8d0c8, #3f362d);"></stop></linearGradient><linearGradient id="paint1_linear_108_149" x1="90.8876" y1="1" x2="90.8876" y2="177.393" gradientUnits="userSpaceOnUse"><stop offset="0.100539" stop-color="#84DCA7" data-darkreader-inline-stopcolor="" style="--darkreader-inline-stopcolor: var(--darkreader-background-84dca7, #20724d);"></stop><stop offset="0.171048" stop-color="#6CBA8B" data-darkreader-inline-stopcolor="" style="--darkreader-inline-stopcolor: var(--darkreader-background-6cba8b, #3a7b5d);"></stop><stop offset="0.326166" stop-color="#5AC585" data-darkreader-inline-stopcolor="" style="--darkreader-inline-stopcolor: var(--darkreader-background-5ac585, #308961);"></stop><stop offset="0.520831" stop-color="#2BBE66" data-darkreader-inline-stopcolor="" style="--darkreader-inline-stopcolor: var(--darkreader-background-2bbe66, #229852);"></stop><stop offset="0.699493" stop-color="#139E4A" data-darkreader-inline-stopcolor="" style="--darkreader-inline-stopcolor: var(--darkreader-background-139e4a, #0f7e3b);"></stop><stop offset="1" stop-color="#00AC44" data-darkreader-inline-stopcolor="" style="--darkreader-inline-stopcolor: var(--darkreader-background-00ac44, #008a36);"></stop></linearGradient></defs></svg>