<?xml version="1.0" encoding="UTF-8"?>
<!DOCTYPE svg PUBLIC "-//W3C//DTD SVG 1.1//EN" "http://www.w3.org/Graphics/SVG/1.1/DTD/svg11.dtd">
<svg xmlns="http://www.w3.org/2000/svg" version="1.1" width="512px" height="512px" style="shape-rendering:geometricPrecision; text-rendering:geometricPrecision; image-rendering:optimizeQuality; fill-rule:evenodd; clip-rule:evenodd" xmlns:xlink="http://www.w3.org/1999/xlink">
<g><path style="opacity:0.995" fill="#18a057" d="M 230.5,-0.5 C 247.5,-0.5 264.5,-0.5 281.5,-0.5C 290.12,3.28885 296.287,9.62218 300,18.5C 299.871,28.5889 300.704,38.4222 302.5,48C 326.717,53.6219 349.217,63.1219 370,76.5C 376.469,71.0323 382.636,65.199 388.5,59C 398.925,52.0844 409.591,51.7511 420.5,58C 432,68.1667 442.833,79 453,90.5C 459,100.5 459,110.5 453,120.5C 447.017,127.317 440.851,133.984 434.5,140.5C 447.998,161.821 457.498,184.821 463,209.5C 474.144,210.648 485.31,211.815 496.5,213C 503.496,216.822 508.496,222.322 511.5,229.5C 511.5,246.5 511.5,263.5 511.5,280.5C 508.841,288.664 503.508,294.497 495.5,298C 484.573,299.444 473.573,300.277 462.5,300.5C 457.369,325.4 448.036,348.566 434.5,370C 441.693,377.526 448.526,385.359 455,393.5C 458.667,402.825 458.001,411.825 453,420.5C 443.167,430.333 433.333,440.167 423.5,450C 414.895,457.565 405.229,459.232 394.5,455C 386.322,448.153 378.155,441.32 370,434.5C 348.501,447.828 325.334,457.161 300.5,462.5C 301.01,473.958 300.177,485.291 298,496.5C 294.006,504.342 287.839,509.342 279.5,511.5C 263.167,511.5 246.833,511.5 230.5,511.5C 222.336,508.841 216.503,503.508 213,495.5C 212,484.833 211,474.167 210,463.5C 198.505,459.749 187.005,455.915 175.5,452C 173.842,451.275 173.342,450.108 174,448.5C 192.195,429.971 210.695,411.805 229.5,394C 293.836,401.915 343.336,378.748 378,324.5C 408.025,263.569 400.691,207.569 356,156.5C 315.267,118.147 267.767,106.314 213.5,121C 164.374,138.458 132.874,172.291 119,222.5C 117.485,228.075 116.485,233.742 116,239.5C 115.261,253.906 115.594,268.239 117,282.5C 98.8333,300.667 80.6667,318.833 62.5,337C 61.552,337.483 60.552,337.649 59.5,337.5C 54.8294,325.486 51.1627,313.153 48.5,300.5C 37.4331,300.188 26.4331,299.355 15.5,298C 7.189,293.843 1.85567,287.343 -0.5,278.5C -0.5,262.833 -0.5,247.167 -0.5,231.5C 2.22646,223.578 7.22646,217.411 14.5,213C 25.7307,211.098 37.0641,210.265 48.5,210.5C 53.718,185.511 63.0513,162.178 76.5,140.5C 71.2189,133.716 65.3855,127.383 59,121.5C 51.8558,110.353 52.1892,99.353 60,88.5C 69.8333,78.6667 79.6667,68.8333 89.5,59C 98.3002,53.1199 107.633,52.1199 117.5,56C 125.629,62.4604 133.463,69.2938 141,76.5C 162.028,62.9274 184.861,53.4274 209.5,48C 210.93,37.2282 212.097,26.3949 213,15.5C 216.503,7.49214 222.336,2.15881 230.5,-0.5 Z"/></g>
<g><path style="opacity:0.99" fill="#1d1d1d" d="M 52.5,511.5 C 46.5,511.5 40.5,511.5 34.5,511.5C 16.5,506.167 4.83333,494.5 -0.5,476.5C -0.5,470.167 -0.5,463.833 -0.5,457.5C 1.14258,451.876 3.64258,446.542 7,441.5C 55.9723,391.528 105.306,341.861 155,292.5C 141.187,245.876 152.02,206.042 187.5,173C 216.657,150.235 248.991,143.902 284.5,154C 289.202,158.922 290.702,164.755 289,171.5C 275,186.167 261,200.833 247,215.5C 234.564,236.922 238.73,254.422 259.5,268C 272.178,272.999 284.178,271.666 295.5,264C 309.596,248.899 324.596,234.899 340.5,222C 353.68,220.169 360.513,226.003 361,239.5C 365.554,290.573 345.387,328.073 300.5,352C 273.591,363.046 246.258,364.379 218.5,356C 169.472,405.361 120.139,454.361 70.5,503C 64.8398,506.712 58.8398,509.545 52.5,511.5 Z"/></g>
</svg>
