<svg viewBox="0 0 128 128" version="1.1" xmlns="http://www.w3.org/2000/svg">
  <defs>
    <clipPath id="clip-path">
      <path class="cls-1" d="M.02-.02H128v127.98H.02z" />
    </clipPath>
    <clipPath id="clip-path-3">
      <path class="cls-1" d="M428 245.69h-9.77a.42.42 0 0 1-.33-.17l-.76-1-2.14-2.82-5.68-7.7-3.18-4.28a.41.41 0 0 0-.63 0l-3.33 3.71-.38.43a.4.4 0 0 0-.1.27v11.16a.41.41 0 0 1-.41.41h-8.42a.41.41 0 0 1-.41-.41v-40.55a.4.4 0 0 1 .41-.41h8.42a.41.41 0 0 1 .41.41v15.53a.4.4 0 0 0 .7.28l4.65-5L414 208l3.24-3.52a.41.41 0 0 1 .3-.13h10.34a.4.4 0 0 1 .41.42.46.46 0 0 1-.1.25l-4.66 5.17-7.74 8.61-3.23 3.58a.4.4 0 0 0 0 .5l4 5.63 3.66 5.16.45.63 2.77 3.88 2.89 4.06 2 2.82a.41.41 0 0 1-.33.63zm-38.72-.57a.41.41 0 0 1-.37.57h-8.94a.4.4 0 0 1-.37-.25l-.18-.4-3.46-8a.4.4 0 0 0-.37-.25h-16.8a.41.41 0 0 0-.38.25l-.52 1.2-3.12 7.25a.41.41 0 0 1-.36.23h-8.94a.41.41 0 0 1-.37-.57l.62-1.44 4.22-9.76.15-.34.18-.41.08-.2 1.4-3.25 10.84-25.09a.41.41 0 0 1 .37-.25h8.4a.4.4 0 0 1 .37.25l5.64 13 2.79 6.44 3.12 7.21 5.9 13.66zm-17.16-17-.59-1.38-2-4.63-2-4.57a.41.41 0 0 0-.75 0l-3.51 8.11-1.07 2.48a.4.4 0 0 0 .37.56h9.13a.4.4 0 0 0 .37-.61zm-26.51 4.66a17.7 17.7 0 0 1-.83 1.84 20.76 20.76 0 0 1-4 5.37 22.08 22.08 0 0 1-2.26 1.94 21 21 0 0 1-11.68 4.14h-1.51a21.6 21.6 0 0 1-12.1-3.42 22 22 0 0 1-3.34-2.7c-.41-.41-.81-.82-1.18-1.24a20.43 20.43 0 0 1-5.1-14 23.47 23.47 0 0 1 .27-3.6l-.19-.28.3-.45a20.05 20.05 0 0 1 5.89-10.91A22 22 0 0 1 313 207a20.33 20.33 0 0 1 7.39-3.09 23.77 23.77 0 0 1 4.92-.49 21.25 21.25 0 0 1 15.45 6.13 20.25 20.25 0 0 1 6.17 12.94c.07.74.1 1.51.1 2.28a21.76 21.76 0 0 1-1.47 7.97zm-8-8a13.54 13.54 0 0 0-3.18-9 5.22 5.22 0 0 0-.36-.43 11.34 11.34 0 0 0-8.73-3.9 12.49 12.49 0 0 0-2.67.28 11.4 11.4 0 0 0-6.06 3.62 13.44 13.44 0 0 0-3.55 9.12v.32a13.41 13.41 0 0 0 3.56 9.41 11.78 11.78 0 0 0 1.07 1 11.35 11.35 0 0 0 2.33 1.6 12.09 12.09 0 0 0 10.81-.09 11.76 11.76 0 0 0 2.87-2.18l.36-.38a13.42 13.42 0 0 0 2-2.83 13.84 13.84 0 0 0 1.53-6.55zm-34.51 12.69h-16.85a.4.4 0 0 1-.41-.4v-32.33a.4.4 0 0 0-.23-.36.35.35 0 0 0-.17 0H277a.4.4 0 0 0-.41.41v40.55a.41.41 0 0 0 .41.41h26a.41.41 0 0 0 .41-.41v-7.42a.41.41 0 0 0-.34-.46zm-45.76-34c-.67-.05-1.34-.08-2-.08a21.24 21.24 0 0 0-15.42 6.15 22.18 22.18 0 0 0-2.08 2.35 20.67 20.67 0 0 0-4.22 13 22.27 22.27 0 0 0 1.35 7.89 19.26 19.26 0 0 0 2.08 4.05 20.42 20.42 0 0 0 2.74 3.28 20.93 20.93 0 0 0 4.13 3.14c.37.21.75.42 1.13.61.38.19.56.27.85.39a23.61 23.61 0 0 0 9.6 1.88 21.39 21.39 0 0 0 3.07-.22c.64-.09 1.27-.21 1.9-.36a21.44 21.44 0 0 0 9.63-5.32c.58-.54 1.16-1.12 1.73-1.74a.41.41 0 0 0 0-.56l-5.34-5.49a.39.39 0 0 0-.36-.12.44.44 0 0 0-.24.14 13.55 13.55 0 0 1-10.84 5 12.05 12.05 0 0 1-4.18-.71 11.73 11.73 0 0 1-4.28-2.79 11.29 11.29 0 0 1-2.7-4.3 14.68 14.68 0 0 1-.79-5 12 12 0 0 1 3.21-8.7l.49-.47a12.68 12.68 0 0 1 8.91-3.4 13.35 13.35 0 0 1 10.59 5.08.4.4 0 0 0 .61 0l5.19-5.89a.42.42 0 0 0 0-.55 21.73 21.73 0 0 0-14.78-7.27zm-23.34 4.2 1.57-2.74a.4.4 0 0 0-.35-.61h-9.07a.41.41 0 0 0-.35.2l-8.22 14.15-.44.32-.33.25a.42.42 0 0 1-.17-.16l-.14-.23-.21-.35-8.12-14a.41.41 0 0 0-.35-.2h-9.07a.41.41 0 0 0-.35.61l3.93 6.88 7.12 12.44 2.87 5a.41.41 0 0 1 .06.2v15.82a.41.41 0 0 0 .41.41h8.42a.41.41 0 0 0 .41-.41v-15.79a.41.41 0 0 1 .06-.2l2-3.55 7.7-13.46 1.57-2.74 1-1.83zm-38.85 29.85H174.7a.41.41 0 0 1-.41-.41v-7.77a.41.41 0 0 1 .41-.41h17.71a.41.41 0 0 0 .41-.41v-7.06a.41.41 0 0 0-.41-.41H174.7a.41.41 0 0 1-.41-.41V213a.41.41 0 0 1 .41-.41h19.78a.41.41 0 0 0 .41-.41v-7.41a.41.41 0 0 0-.41-.41h-29a.4.4 0 0 0-.41.41v40.55a.41.41 0 0 0 .41.41h29.66a.41.41 0 0 0 .41-.41v-7.36a.41.41 0 0 0-.42-.44zm-34.82 7-3.84-5.38-3.93-5.52-.14-.21q-5.38-7.57-7.54-10.58a.4.4 0 0 1 0-.5l3.69-4.09 3-3.37 2.92-3.24 6-6.66a.4.4 0 0 0-.3-.67h-10.31a.41.41 0 0 0-.3.13l-6.4 7-8.4 9.13a.4.4 0 0 1-.7-.28v-15.55a.4.4 0 0 0-.41-.4h-8.42a.4.4 0 0 0-.41.41v40.55a.41.41 0 0 0 .41.41h8.42a.41.41 0 0 0 .41-.41v-11.16a.4.4 0 0 1 .1-.27l1.75-2 2-2.17a.41.41 0 0 1 .63 0l5.84 7.85 4.19 5.65 1.68 2.27a.4.4 0 0 0 .32.17h9.78a.41.41 0 0 0 .33-.65zM120 204.28H33.93a.78.78 0 0 0-.66.37l-.43.74-5.27 9.13-5.82 10.09a.76.76 0 0 0 0 .76l1.25 2.21 10.25 17.76a.77.77 0 0 0 .67.39H120a.85.85 0 0 0 .85-.85v-39.74a.86.86 0 0 0-.85-.86Z" id="path1576" />
    </clipPath>
    <linearGradient id="linear-gradient" x1="20.71" y1="225.61" x2="430.83" y2="225.61" gradientUnits="userSpaceOnUse">
      <stop offset="0" stop-color="#e6e6e6" id="stop1579" />
      <stop offset="1" stop-color="#595959" id="stop1581" />
    </linearGradient>
    <style id="style2007">.cls-1{fill:none}</style>
  </defs>
  <g id="g2460" transform="translate(.714 .07)">
    <path d="M105.69 41.25a.76.76 0 0 1-.66-.38l-11.51-20a.78.78 0 0 0-.67-.38h-47a.76.76 0 0 0-.66.38l-12 20.71 4.625 6.774c-.134.236-1.199 4.644-1.065 4.88L33.19 82.29l12 20.73a.76.76 0 0 0 .66.38h47a.78.78 0 0 0 .67-.38l11.52-20a.76.76 0 0 1 .66-.38H120a.86.86 0 0 0 .86-.86V42.11a.86.86 0 0 0-.86-.86z" id="path1588" style="fill:#4d4d4d;clip-path:url(#clip-path)" clip-path="url(#clip-path)" transform="matrix(1.2527 0 0 1.2527 -23.058 -13.67)" />
    <g clip-path="url(#clip-path-3)" id="g1592" transform="matrix(1.2527 0 0 1.2527 -23.058 -217.896)" style="fill:#4d4d4d">
      <path id="rect1590" style="display:inline;fill:url(#linear-gradient)" d="M20.71 197.91h99.111v52.823H20.71z" />
    </g>
    <path d="m21.876 61.343-16.122 5.85-1.591-2.743a.952.952 0 0 1 0-.952l7.29-12.64z" id="path1594" style="fill:#e1e1e1;stroke-width:1.2527" />
    <path class="cls-62" id="polygon1794" transform="matrix(1.2527 0 0 1.2527 -23.058 -217.896)" style="fill:#c8c8c8" d="M120.89 225.43v9.83l-8.48-8.62z" />
    <path class="cls-61" d="m117.757 66.016 10.623 10.798v12.039a1.065 1.065 0 0 1-1.064 1.065H114.95z" id="path1798" style="fill:#c2c2c2;stroke-width:1.2527" />
    <path class="cls-63" id="polygon1802" transform="matrix(1.2527 0 0 1.2527 -23.058 -217.896)" style="fill:#c7c7c7" d="m112.41 226.64-2.24 19.08H98.31l-3.59-8.66z" />
    <path class="cls-64" id="polygon1804" transform="matrix(1.2527 0 0 1.2527 -23.058 -217.896)" style="fill:#cecece" d="M120.89 216.31v9.12l-8.48 1.21z" />
    <path class="cls-65" d="M128.38 39.083v13.993l-10.622 12.927-8.03-27.997h17.538a1.077 1.077 0 0 1 1.114 1.077z" id="path1808" style="fill:#d3d3d3;stroke-width:1.2527" />
    <path class="cls-58" id="polygon1812" transform="matrix(1.2527 0 0 1.2527 -23.058 -217.896)" style="fill:#c6c6c6" d="M98.31 245.72h-6.26l-1.62-2.33 4.29-6.33z" />
    <path class="cls-66" id="polygon1814" transform="matrix(1.2527 0 0 1.2527 -23.058 -217.896)" style="fill:#d5d5d5" d="m112.41 226.64-23.47-9.93 12.34-12.43h4.73z" />
    <path class="cls-67" d="m88.357 53.577 7.24 25.492 22.16-13.066Z" id="path1816" style="fill:#d0d0d0;stroke-width:1.2527" />
    <path class="cls-50" id="polygon1818" transform="matrix(1.2527 0 0 1.2527 -23.058 -217.896)" style="fill:#bfbfbf" d="m90.36 245.72.07-2.33 1.62 2.33z" />
    <path class="cls-68" id="polygon1820" transform="matrix(1.2527 0 0 1.2527 -23.058 -217.896)" style="fill:#d9d9d9" d="m101.28 204.28-12.34 12.43-2.23-11.12 4.77-1.31z" />
    <path class="cls-69" d="m88.357 53.577-35.69 8.23 37.581 25.192Z" id="path1822" style="fill:#d4d4d4;stroke-width:1.2527" />
    <path class="cls-67" d="m88.357 53.577 1.866 33.422 5.362-7.93z" id="path1824" style="fill:#d0d0d0;stroke-width:1.2527" />
    <path class="cls-68" d="m85.563 39.647-32.896 22.16 35.69-8.23Z" id="path1826" style="fill:#d9d9d9;stroke-width:1.2527" />
    <path class="cls-70" id="polygon1828" transform="matrix(1.2527 0 0 1.2527 -23.058 -217.896)" style="fill:#d8d8d8" d="M60.45 223.28 48.1 245.72h-7.03l-5.2-22.81z" />
    <path class="cls-71" d="M36.82 38.006 21.877 61.343 18.118 39.41l.538-.927a.977.977 0 0 1 .827-.464h17.338z" id="path1830" style="fill:#e2e2e2;stroke-width:1.2527" />
    <path class="cls-70" d="M28.39 89.918h-8.944a.965.965 0 0 1-.84-.489L5.754 67.194l16.122-5.85Z" id="path1832" style="fill:#d8d8d8;stroke-width:1.2527" />
    <path class="cls-72" id="polygon1834" transform="matrix(1.2527 0 0 1.2527 -23.058 -217.896)" style="fill:#e4e4e4" d="m27.56 214.53 5.27-9.13 3.04 17.51z" />
    <path class="cls-73" id="polygon1836" transform="matrix(1.2527 0 0 1.2527 -23.058 -217.896)" style="fill:#dedede" d="m86.71 205.59-7.91-1.31H52.67l7.78 19z" />
    <path class="cls-73" id="polygon1838" transform="matrix(1.2527 0 0 1.2527 -23.058 -217.896)" style="fill:#dedede" d="m60.45 223.28-7.78-19H47.8l-11.93 18.63z" />
    <path class="cls-74" id="polygon1840" transform="matrix(1.2527 0 0 1.2527 -23.058 -217.896)" style="fill:#c5c5c5" d="M84.72 245.72H90.36l.07-2.33z" />
    <path class="cls-67" id="polygon1842" transform="matrix(1.2527 0 0 1.2527 -23.058 -217.896)" style="fill:#d0d0d0" d="M73.47 245.72h11.25l5.71-2.33-29.98-20.11 5.4 22.44z" />
    <path class="cls-75" id="polygon1844" transform="matrix(1.2527 0 0 1.2527 -23.058 -217.896)" style="fill:#d1d1d1" d="m65.85 245.72-5.4-22.44-12.35 22.44h17.15z" />
    <path class="cls-78" id="polygon1856" transform="matrix(1.2527 0 0 1.2527 -23.058 -217.896)" style="fill:#ddd" d="m86.79 204.28-.08 1.31 4.77-1.31H89.3z" />
    <path class="cls-79" id="polygon1858" transform="matrix(1.2527 0 0 1.2527 -23.058 -217.896)" style="fill:#e3e3e3" d="m86.71 205.59-.73-1.31H78.8z" />
    <path class="cls-71" id="polygon1860" transform="matrix(1.2527 0 0 1.2527 -23.058 -217.896)" style="fill:#e2e2e2" d="m86.71 205.59.08-1.31h-.81z" />
    <path class="cls-80" d="M58.58 38.457 44.074 63.573a.84.84 0 0 0-.1.414H33.851L53.757 29.5a.79.79 0 0 1 .3.288l4.51 7.842a.864.864 0 0 1 .013.827z" id="path1862" style="fill:#00b8e3;stroke-width:1.2527" />
    <path class="cls-81" d="m58.567 90.394-4.51 7.804a.877.877 0 0 1-.3.288L33.84 63.962h10.122a.777.777 0 0 0 .1.388l14.481 25.054a.852.852 0 0 1 .025.99z" id="path1864" style="fill:#33c6e9;stroke-width:1.2527" />
    <path class="cls-82" d="M53.757 29.5 33.852 63.962l-5.011 8.656-4.76-8.268a.777.777 0 0 1-.1-.388.84.84 0 0 1 .1-.414l4.835-8.355 14.67-25.38a.852.852 0 0 1 .738-.438h9.032a.89.89 0 0 1 .401.125z" id="path1866" style="fill:#008aaa;stroke-width:1.2527" />
    <path class="cls-80" d="M53.757 98.486a.89.89 0 0 1-.426.113h-9.007a.852.852 0 0 1-.739-.439L30.181 74.948l-1.328-2.305 5.011-8.656Z" id="path1868" style="fill:#00b8e3;stroke-width:1.2527" />
    <path class="cls-82" d="M93.793 63.962 73.875 98.46a.927.927 0 0 1-.3-.288l-4.51-7.817a.864.864 0 0 1 0-.802l14.481-25.129a.84.84 0 0 0 .126-.438h10.121Z" id="path1870" style="fill:#008aaa;stroke-width:1.2527" />
    <path class="cls-80" d="M103.64 63.962a.84.84 0 0 1-.126.438L84.01 98.223a.852.852 0 0 1-.727.4h-8.982a.927.927 0 0 1-.438-.112l19.93-34.55 5.011-8.643 4.735 8.218a.84.84 0 0 1 .1.426z" id="path1872" style="fill:#00b8e3;stroke-width:1.2527" />
    <path class="cls-80" d="M93.793 63.962H83.66a.84.84 0 0 0-.125-.426L69.053 38.482a.852.852 0 0 1 0-.865l4.51-7.817a.927.927 0 0 1 .3-.288z" id="path1874" style="fill:#00b8e3;stroke-width:1.2527" />
    <path class="cls-81" d="m98.78 55.33-5.012 8.644L73.85 29.487a.927.927 0 0 1 .439-.112h9.007a.852.852 0 0 1 .726.4z" id="path1876" style="fill:#33c6e9;stroke-width:1.2527" />
  </g>
</svg>