<?xml version="1.0" encoding="UTF-8"?><svg id="a" xmlns="http://www.w3.org/2000/svg" viewBox="0 0 3394.83 910.4"><path d="M3186.54,268.23c-115.03,0-208.29,93.25-208.29,208.29s93.25,208.29,208.29,208.29v-56.89h0c-.13-.01-.26,0-.4,0-83.99,0-152.07-68.09-152.07-152.07s68.09-152.07,152.07-152.07,152.07,68.09,152.07,152.07c0,7.09-.65,14.01-1.59,20.84,19.43,.06,38.58,.24,56.12,.61,1-7.5,1.73-13.47,2.08-20.79,0-115.03-93.25-208.29-208.29-208.29Z" fill="#fff"/><rect x="3175.72" y="337.31" width="20.84" height="148.32" fill="#fff"/><rect x="3175.72" y="477.67" width="113.14" height="19.55" fill="#fff"/><g><path d="M93.6,664.4c-16.54-20-24.8-55.33-24.8-106V84h32.8v472c0,28.8,2.66,50.94,8,66.4,5.32,15.47,12.8,26.28,22.4,32.4,9.6,6.14,22.4,10,38.4,11.6l48.8,5.6v22.4h-50.4c-33.6,0-58.67-10-75.2-30Z" fill="#fff"/><path d="M366.79,678.8c-24.27-13.6-41.6-36.12-52-67.6-10.4-31.46-15.6-75.2-15.6-131.2s5.6-99.46,16.8-130.4c11.2-30.92,29.06-52.92,53.6-66,24.52-13.06,58.66-19.6,102.4-19.6,54.4,0,94,10.28,118.8,30.8,24.8,20.54,37.2,56.14,37.2,106.8,0,64-37.6,96-112.8,96h-183.2c0,44.27,3.86,78.8,11.6,103.6,7.72,24.8,21.86,42.8,42.4,54,20.52,11.2,50.26,16.8,89.2,16.8h144v20c-51.74,4.8-101.6,7.2-149.6,7.2-44.28,0-78.54-6.8-102.8-20.4Zm146.8-206c29.32,0,50.66-5.2,64-15.6,13.32-10.4,20-28.92,20-55.6,0-28.8-4.14-51.2-12.4-67.2-8.28-16-21.34-27.33-39.2-34-17.87-6.66-42.54-10-74-10-37.34,0-65.88,5.2-85.6,15.6-19.74,10.4-33.74,28.54-42,54.4-8.27,25.88-12.4,63.34-12.4,112.4h181.6Z" fill="#fff"/><path d="M771.59,670.8c-20-18.93-30-44.93-30-78v-26.4c0-34.66,11.2-62.12,33.6-82.4,22.4-20.26,54.4-30.4,96-30.4h164v-65.6c0-32.52-8.8-57.2-26.4-74-17.6-16.8-48.8-25.2-93.6-25.2h-135.2v-20c53.86-4.8,102.4-7.2,145.6-7.2,49.6,0,85.73,10.4,108.4,31.2,22.66,20.8,34,52.27,34,94.4v307.2h-24l-8-50.4c-2.67,2.14-15.08,7.88-37.2,17.2-22.14,9.34-46.94,18-74.4,26-27.47,8-52.67,12-75.6,12-31.47,0-57.2-9.46-77.2-28.4Zm154-9.6c26.12-6.66,49.46-13.6,70-20.8,20.53-7.2,33.73-12.12,39.6-14.8v-152.8l-163.2,4.8c-34.14,1.6-58.94,10.27-74.4,26-15.47,15.74-23.2,36.67-23.2,62.8v20.8c0,29.34,8.53,50.67,25.6,64,17.06,13.34,37.06,20,60,20,17.6,0,39.46-3.33,65.6-10Z" fill="#fff"/><path d="M1222.38,268.8h23.2l9.6,48.8c25.06-16.53,52-30,80.8-40.4,28.8-10.4,57.86-15.6,87.2-15.6,27.73,0,51.46,6.4,71.2,19.2,19.73,12.8,34.66,29.74,44.8,50.8,10.12,21.08,15.2,43.88,15.2,68.4v294.4h-32.8V402.4c0-31.46-9.47-57.86-28.4-79.2-18.94-21.33-44.4-32-76.4-32s-57.2,3.74-80.4,11.2c-23.2,7.47-50.27,19.74-81.2,36.8v355.2h-32.8V268.8Z" fill="#fff"/><path d="M1750.38,662c-19.74-21.6-29.07-56.92-28-106l2.4-236.8h-68v-40.8l68.8-11.2,10.4-119.2h48.8v119.2h123.2v52h-123.2v236.8c0,32.54,6.12,54.8,18.4,66.8,12.26,12,27.72,18.8,46.4,20.4l52,4.8v46.4h-58.4c-42.14,0-73.08-10.8-92.8-32.4Z" fill="#fff"/><path d="M2015.57,187.6c-2.4-2.4-3.6-5.46-3.6-9.2v-62.4c0-8.52,4.26-12.8,12.8-12.8h44.8c8,0,12,4.28,12,12.8v62.4c0,8.54-4,12.8-12,12.8h-44.8c-3.74,0-6.8-1.2-9.2-3.6Zm-.4,79.6h63.2v427.2h-63.2V267.2Z" fill="#fff"/><path d="M2219.96,267.2h49.6l13.6,47.2c53.33-36.26,106.66-54.4,160-54.4,25.6,0,47.86,5.74,66.8,17.2,18.92,11.48,33.73,26.8,44.4,46,22.4-16.52,49.72-31.2,82-44,32.26-12.8,62.26-19.2,90-19.2,44.26,0,77.6,13.6,100,40.8,22.4,27.2,33.6,62.4,33.6,105.6v288h-63.2V411.2c0-27.72-8.14-50.26-24.4-67.6-16.28-17.33-38.28-26-66-26-22.94,0-46.8,4.27-71.6,12.8-24.8,8.54-48.67,19.74-71.6,33.6,5.33,17.08,8,33.08,8,48v282.4h-63.2V411.2c0-27.72-7.88-50.26-23.6-67.6-15.74-17.33-37.48-26-65.2-26-25.6,0-48.4,3.34-68.4,10-20,6.67-42.54,17.2-67.6,31.6v335.2h-63.2V267.2Z" fill="#fff"/></g></svg>