<svg xmlns="http://www.w3.org/2000/svg" height="800" width="1200" viewBox="-60.81093 -20.117075 527.02806 120.70245"><g font-weight="400"><g font-size="67.5623" font-family="Vegur"><path style="-inkscape-font-specification:Vegur" d="M95.4062 3.5205v45.9016h29.5989v-6.9732h-20.5642V3.5205h-9.0347m35.0592 45.9016H139.5V16.3838h-9.0347v33.0383m4.5173-35.8818c2.8318 0 5.1916-2.3018 5.1916-5.213 0-2.8434-2.3598-5.213-5.1916-5.213-2.8992 0-5.1916 2.3696-5.1916 5.213 0 2.9112 2.2924 5.213 5.1916 5.213m20.2509 6.7024h-.1349V.677h-9.0347v48.7451h8.8325l.2022-3.8589h.1349c2.8317 3.182 5.6635 4.5359 10.3157 4.5359 8.765 0 14.5635-7.9211 14.5635-17.8055 0-9.5458-5.1916-16.5868-14.159-16.5868-4.787 0-7.6188 1.4217-10.7202 4.5359m-.1349 11.9155c0-5.6869 2.5621-9.4782 7.4166-9.4782 5.3939 0 8.0908 3.859 8.0908 10.1552 0 6.2286-2.6295 10.2907-7.956 10.2907-4.6522 0-7.5514-3.6559-7.5514-9.4782v-1.4895m49.2565-16.4514c-4.315.2707-8.4279 2.9112-10.3157 6.567h-.1349l-.2022-5.89h-8.8325v33.0383h9.0347V36.965c0-6.6347 1.2136-9.0043 3.3038-10.4937 1.8204-1.2863 3.978-1.8279 6.9446-1.9633l.2023-8.8012m33.2417 15.2328c0-8.1918-4.9894-15.2328-13.6196-15.2328-10.3831 0-17.058 7.1764-17.058 18.0763 0 10.6291 6.8771 16.316 17.058 16.316 4.787 0 8.1583-.7447 11.3272-2.1664l-.944-6.7701c-2.9666 1.2186-6.0006 1.9633-9.237 1.9633-5.4612 0-8.9673-2.505-9.3044-7.6502h21.3732c.2697-1.2187.4046-3.1143.4046-4.5361M223.0334 22.68c3.9106 0 5.731 3.182 5.8658 6.567h-12.743c.6743-3.7913 3.3038-6.567 6.8772-6.567" fill="#18a303"/><path style="-inkscape-font-specification:Vegur" d="M265.0245 2.8434c-12.1362 0-22.1148 8.869-22.1148 23.6279 0 14.759 9.9786 23.6278 22.1148 23.6278 12.1362 0 22.1149-8.8688 22.1149-23.6278 0-14.7589-9.9787-23.6279-22.1149-23.6279m0 4.6038c9.0347 0 15.912 6.7701 15.912 19.0241 0 12.2539-6.8773 19.0242-15.912 19.0242s-15.9119-6.7703-15.9119-19.0242c0-12.254 6.8772-19.0241 15.912-19.0241m30.7497 7.1086v2.0987h-5.3265v4.333h5.3265v28.4346h5.6635V20.9875h8.3605v-4.333h-8.3605v-2.9788c0-5.89 2.4947-9.3428 7.012-9.3428 2.0902 0 3.4386.3385 4.7197.8124l.5394-4.1975C312.4953.4739 310.2029 0 308.3824 0c-8.0233 0-12.6081 5.213-12.6081 14.5558"/><path style="-inkscape-font-specification:Vegur" d="M314.6029 14.5558v2.0987h-5.3265v4.333h5.3265v28.4346h5.6635V20.9875h8.3605v-4.333h-8.3605v-2.9788c0-5.89 2.4947-9.3428 7.012-9.3428 2.0902 0 3.4387.3385 4.7197.8124l.5394-4.1975C331.324.4739 329.0315 0 327.2111 0c-8.0234 0-12.6082 5.213-12.6082 14.5558m20.5841 34.8663h5.6635V16.6545h-5.6635v32.7676m2.8317-37.5743c1.9553 0 3.506-1.5571 3.506-3.5205 0-1.9633-1.5507-3.5205-3.506-3.5205-1.9552 0-3.506 1.5572-3.506 3.5205 0 1.9634 1.5508 3.5205 3.506 3.5205m14.6082 21.0552c0-8.2596 4.9219-12.5925 11.327-12.5925 3.3713 0 6.3379.8124 8.7651 1.9633l.5394-4.3329c-2.0227-1.0155-5.259-1.9634-8.8324-1.9634-10.1135 0-17.7324 6.1609-17.7324 17.6702 0 10.8322 6.8772 16.4514 15.9793 16.4514 4.0454 0 6.9446-.4738 10.2484-1.8956l-.5394-4.3329c-2.8318 1.2864-5.8658 1.8956-8.6976 1.8956-6.54 0-11.0574-4.1298-11.0574-12.8632m52.5771 1.4217c.1348-1.2186.2022-2.2341.2022-3.2497 0-8.395-4.3825-15.0975-12.8104-15.0975-9.1022 0-15.777 7.5826-15.777 17.6702 0 11.103 6.6748 16.4514 15.777 16.4514 4.0454 0 7.0794-.6092 10.2483-1.8956l-.5394-4.3329c-2.4946 1.2186-6.068 1.8956-8.8998 1.8956-6.5401 0-10.7878-3.9943-10.9226-11.4415h22.7216m-13.08-14.0142c4.9892 0 7.6862 4.1298 7.6862 9.5459H382.752c.809-5.7546 3.978-9.5459 9.3718-9.5459"/></g><path style="-inkscape-font-specification:'Andale Mono'" d="M108.9324 60.805H95.4061v1.9435h5.581v17.434h2.3093v-17.434h5.636V60.805m4.4564 7.831v-9.0314h-2.3094v20.578h2.3094V72.58c0-2.858 1.677-4.5729 3.739-4.5729 2.1444 0 2.6667 1.2576 2.6667 3.9156v8.2597h2.3094v-9.0028c0-3.3725-1.4846-5.116-4.3163-5.116-1.9795 0-3.409 1.1434-4.3438 2.5723h-.055m23.3914 5.1732c.055-.5145.0825-.9432.0825-1.3718 0-3.544-1.787-6.3735-5.2236-6.3735-3.7115 0-6.4332 3.201-6.4332 7.4595 0 4.6872 2.7217 6.945 6.4332 6.945 1.6496 0 2.8867-.2571 4.1789-.8002l-.22-1.8291c-1.0172.5144-2.4743.8001-3.629.8001-2.6667 0-4.3988-1.6862-4.4538-4.83h9.265m-5.3335-5.9162c2.0344 0 3.1341 1.7434 3.1341 4.0299h-6.9556c.33-2.4293 1.622-4.0299 3.8215-4.0299m14.9113-6.8307V80.011c1.347.2002 3.3265.3145 4.8111.3145 5.636 0 10.942-3.4011 10.942-10.432 0-6.1733-4.0688-9.2314-10.887-9.2314-1.512 0-3.2716.1143-4.8662.4m2.3094 1.715c.8523-.143 1.787-.1716 2.8042-.1716 5.2511 0 8.1104 2.9153 8.1104 7.5739 0 5.516-3.684 8.2026-8.1378 8.2026-.8523 0-1.8145-.0285-2.7768-.1144V62.777m22.0353 3.2868c-4.014 0-6.4058 3.1438-6.4058 7.2023 0 4.0584 2.3919 7.2022 6.4058 7.2022s6.4058-3.1438 6.4058-7.2022c0-4.0585-2.3919-7.2023-6.4058-7.2023m0 12.5753c-2.7767 0-3.9864-2.4864-3.9864-5.373 0-2.8867 1.2097-5.3732 3.9864-5.3732s3.9864 2.4865 3.9864 5.3732c0 2.8866-1.2097 5.373-3.9864 5.373m11.1023-5.4302c0-3.4868 2.007-5.316 4.6187-5.316 1.3746 0 2.5843.343 3.574.8289l.22-1.8292c-.8248-.4287-2.1444-.8288-3.6015-.8288-4.124 0-7.2306 2.6008-7.2306 7.4595 0 4.5728 2.8043 6.945 6.5157 6.945 1.6496 0 2.8318-.2 4.179-.8002l-.22-1.8291c-1.1547.543-2.3919.8001-3.5466.8001-2.6667 0-4.5087-1.7434-4.5087-5.4302m19.9003 4.6871l.0825 2.2865h2.2269v-13.833h-2.3094v7.6025c0 2.858-1.677 4.5729-3.739 4.5729-2.1444 0-2.6668-1.2576-2.6668-3.9156v-8.2597H192.99v9.0029c0 3.3724 1.4846 5.1158 4.3164 5.1158 1.9794 0 3.409-1.1432 4.3438-2.5722h.055m22.7316-6.2591v8.5455h2.3094V70.894c0-3.0867-1.3747-4.8301-4.014-4.8301-1.897 0-3.409 1.2576-4.2888 3.1153h-.0825c-.5223-1.9435-1.622-3.1153-3.739-3.1153-1.897 0-3.1066 1.0575-4.0414 2.5722h-.055l-.0825-2.2864h-2.2269v13.833h2.3094v-7.0309c0-3.1153 1.3197-5.1445 3.3816-5.1445 1.732 0 2.4193 1.2576 2.4193 3.6298v8.5455h2.3094v-7.0308c0-3.1724 1.3197-5.1445 3.3816-5.1445 1.732 0 2.4193 1.2576 2.4193 3.6298m16.9441 2.172c.055-.5145.0825-.9432.0825-1.3718 0-3.544-1.787-6.3735-5.2236-6.3735-3.7115 0-6.4333 3.201-6.4333 7.4595 0 4.6872 2.7218 6.945 6.4333 6.945 1.6495 0 2.8867-.2571 4.1789-.8002l-.22-1.8291c-1.0172.5144-2.4743.8001-3.629.8001-2.6668 0-4.3988-1.6862-4.4538-4.83h9.265m-5.3336-5.9162c2.0345 0 3.1342 1.7434 3.1342 4.0299h-6.9556c.3299-2.4293 1.622-4.0299 3.8214-4.0299m10.9919.7431l-.0825-2.2864h-2.2269v13.833h2.3094V72.58c0-2.858 1.677-4.5729 3.739-4.5729 2.1444 0 2.6668 1.2576 2.6668 3.9156v8.2597h2.3093v-9.0028c0-3.3725-1.4846-5.116-4.3163-5.116-1.9795 0-3.409 1.1434-4.3438 2.5723h-.055m19.0201-2.2863h-3.1891v-3.058h-2.3094v3.058h-2.117v1.8291h2.117v8.6028c0 2.515 1.3197 3.6868 3.464 3.6868 1.1273 0 1.8696-.1143 2.447-.3715l-.2475-1.7434c-.4674.2-.9623.2857-1.4846.2857-1.3472 0-1.8695-.8001-1.8695-2.4578v-8.0026h3.1891v-1.8291m11.909 13.8329V71.437h6.6807v-1.9434h-6.6807v-6.745h7.6155V60.805h-9.9248v19.3775h2.3093m15.9676-14.1187c-4.0139 0-6.4057 3.1438-6.4057 7.2023 0 4.0584 2.3918 7.2022 6.4057 7.2022 4.014 0 6.4058-3.1438 6.4058-7.2022 0-4.0585-2.3919-7.2023-6.4058-7.2023m0 12.5753c-2.7767 0-3.9864-2.4864-3.9864-5.373 0-2.8867 1.2097-5.3732 3.9864-5.3732 2.7768 0 3.9864 2.4865 3.9864 5.3732 0 2.8866-1.2096 5.373-3.9864 5.373m18.2229-.7431l.0824 2.2865h2.227v-13.833h-2.3094v7.6025c0 2.858-1.677 4.5729-3.739 4.5729-2.1444 0-2.6668-1.2576-2.6668-3.9156v-8.2597h-2.3094v9.0029c0 3.3724 1.4846 5.1158 4.3164 5.1158 1.9794 0 3.409-1.1432 4.3438-2.5722h.055m8.8203-9.2601l-.0825-2.2864h-2.2268v13.833h2.3093V72.58c0-2.858 1.677-4.5729 3.739-4.5729 2.1444 0 2.6668 1.2576 2.6668 3.9156v8.2597h2.3094v-9.0028c0-3.3725-1.4846-5.116-4.3164-5.116-1.9794 0-3.409 1.1434-4.3438 2.5723h-.055m22.0993-.1427c-.9897-1.6863-2.4193-2.4294-4.2888-2.4294-3.574 0-5.9934 3.0867-5.9934 7.4595 0 4.1727 2.172 6.945 5.8284 6.945 1.9245 0 3.4091-.9146 4.4538-2.4293h.055l.0825 2.1435h2.227v-20.578h-2.3095v8.8887h-.055m.055 5.6017c0 2.4008-1.4296 4.5442-3.794 4.5442-2.6667 0-4.1238-2.172-4.1238-5.3445 0-3.2582 1.4021-5.4017 4.0689-5.4017 2.117 0 3.849 1.8864 3.849 4.5444v1.6576m11.1391-8.0311c-1.3471 0-2.6942.2287-4.1238.8003l.2199 1.8291c1.3471-.543 2.4468-.8003 3.574-.8003 2.0345 0 2.8867 1.229 2.8867 3.1725v.4c-.6323-.1142-1.2371-.1714-2.1994-.1714-3.3815 0-5.9384 1.7434-5.9384 4.773 0 2.8294 2.007 4.4013 4.1514 4.4013 1.7595 0 3.2166-.9431 3.9315-2.4293h.055l.0825 2.1435h2.2269v-9.3743c0-3.1153-1.787-4.7444-4.8662-4.7444m2.5568 8.174c0 2.7437-1.3472 4.4013-3.2991 4.4013-1.4021 0-2.3644-1.0574-2.3644-2.7437 0-1.8291 1.1272-3.0295 3.8215-3.0295.6873 0 1.2921.0857 1.842.1715v1.2004m12.5954-7.8882h-3.1892v-3.058h-2.3093v3.058h-2.117v1.8291h2.117v8.6028c0 2.515 1.3196 3.6868 3.464 3.6868 1.1272 0 1.8695-.1143 2.4469-.3715l-.2475-1.7434c-.4673.2-.9622.2857-1.4846.2857-1.3471 0-1.8695-.8001-1.8695-2.4578v-8.0026h3.1892v-1.8291m3.3708 13.8329h2.3094v-13.833h-2.3094v13.833m1.1547-15.8621c.7973 0 1.4296-.6573 1.4296-1.4862 0-.8288-.6323-1.4861-1.4296-1.4861s-1.4296.6573-1.4296 1.4861c0 .8289.6323 1.4862 1.4296 1.4862m10.7861 1.7434c-4.0139 0-6.4057 3.1438-6.4057 7.2023 0 4.0584 2.3918 7.2022 6.4057 7.2022 4.014 0 6.4058-3.1438 6.4058-7.2022 0-4.0585-2.3919-7.2023-6.4058-7.2023m0 12.5753c-2.7767 0-3.9864-2.4864-3.9864-5.373 0-2.8867 1.2097-5.3732 3.9864-5.3732 2.7768 0 3.9864 2.4865 3.9864 5.3732 0 2.8866-1.2096 5.373-3.9864 5.373M396.691 68.636l-.0825-2.2864h-2.227v13.833h2.3094V72.58c0-2.858 1.677-4.5729 3.739-4.5729 2.1444 0 2.6668 1.2576 2.6668 3.9156v8.2597h2.3094v-9.0028c0-3.3725-1.4846-5.116-4.3164-5.116-1.9794 0-3.409 1.1434-4.3438 2.5723h-.055" font-size="28.0312" font-family="Vegur"/><g color="#000" font-family="Andale Mono" fill-rule="evenodd"><path style="line-height:normal;-inkscape-font-specification:'Andale Mono';text-indent:0;text-align:start;text-decoration-line:none;text-transform:none;marker:none" d="M46.4244 2.4613c-.7546-.019-1.4981.4529-1.793 1.1382-.295.6853-.1229 1.5407.4152 2.0629L61.243 21.9099c.5223.5232 1.3729.6967 2.0627.4206.6899-.276 1.1775-.985 1.1827-1.7192V4.3337c.002-.9808-.904-1.8741-1.8983-1.8724z" overflow="visible"/><path style="line-height:normal;-inkscape-font-specification:'Andale Mono';text-indent:0;text-align:start;text-decoration-line:none;text-transform:none;marker:none" d="M1.8903 2.4607c-.996.014-1.892.925-1.8903 1.9213v74.1569c-.002.996.8943 1.9067 1.8903 1.9212H62.567c1.0064 0 1.923-.9148 1.9213-1.9212V30.7847c.003-.504-.2024-1.0061-.5578-1.3635L37.6827 3.0495c-.3523-.3665-.8552-.5837-1.3635-.5888z" overflow="visible" fill="#fff"/><path style="line-height:normal;-inkscape-font-specification:'Andale Mono';text-indent:0;text-align:start;text-decoration-line:none;text-transform:none;marker:none" d="M1.8903 2.4607A1.9182 1.9182 0 000 4.382v74.1569A1.9182 1.9182 0 001.8903 80.46H62.567a1.9182 1.9182 0 001.9213-1.9212V30.7847a1.9182 1.9182 0 00-.5578-1.3635L37.6827 3.0495a1.9182 1.9182 0 00-1.3635-.5888zm1.9214 3.8426h31.7018l25.132 25.2562v45.058H3.8118z" overflow="visible"/></g></g></svg>