<svg viewBox="0 0 154 48" fill="none" xmlns="http://www.w3.org/2000/svg">
<path fill-rule="evenodd" clip-rule="evenodd" d="M2 7.49503C2 6.1159 2 5.42633 2.26742 4.87131C2.50309 4.38219 2.8821 3.96763 3.35931 3.67702C3.90082 3.34726 4.62076 3.24937 6.06063 3.05361L26.5958 0.261598C28.4598 0.00816784 29.3918 -0.118547 30.1161 0.149002C30.7518 0.383867 31.2824 0.81992 31.6179 1.38326C32 2.025 32 2.91768 32 4.70302V43.297C32 45.0823 32 45.975 31.6179 46.6167C31.2824 47.1801 30.7518 47.6161 30.1161 47.851C29.3918 48.1185 28.4598 47.9918 26.5959 47.7384H26.5959H26.5958L6.06063 44.9464L6.06057 44.9464C4.62074 44.7506 3.90081 44.6527 3.35931 44.323C2.8821 44.0324 2.50309 43.6178 2.26742 43.1287C2 42.5737 2 41.8841 2 40.505V7.49503ZM24 20.5078C24 20.0879 24 19.8779 24.0705 19.7119C24.1326 19.5657 24.2323 19.4436 24.3567 19.3611C24.4979 19.2674 24.6847 19.2484 25.0583 19.2104L26.731 19.0402C27.1712 18.9954 27.3912 18.973 27.5611 19.0552C27.7104 19.1273 27.8338 19.2535 27.9115 19.4134C28 19.5954 28 19.8428 28 20.3376V27.6624C28 28.1572 28 28.4046 27.9115 28.5866C27.8338 28.7465 27.7104 28.8727 27.5611 28.9448C27.3912 29.027 27.1712 29.0046 26.731 28.9598L25.0583 28.7896C24.6847 28.7516 24.4979 28.7326 24.3567 28.6389C24.2323 28.5564 24.1326 28.4343 24.0705 28.2881C24 28.1221 24 27.9121 24 27.4922V20.5078ZM37.6444 5H35V44H37.6444C39.169 44 39.9313 44 40.5136 43.7024C41.0259 43.4407 41.4423 43.0231 41.7033 42.5094C42 41.9254 42 41.1609 42 39.632V9.368C42 7.83906 42 7.07458 41.7033 6.49061C41.4423 5.97692 41.0259 5.55929 40.5136 5.29755C39.9313 5 39.169 5 37.6444 5Z" fill="url(#paint0_linear_865_5913)"/>
<path d="M85.5299 36.8007C83.4751 36.8007 81.7004 36.3737 80.206 35.5198C78.7116 34.6658 77.5641 33.4783 76.7635 31.9572C75.963 30.4094 75.5627 28.6215 75.5627 26.5933C75.5627 24.5118 75.9763 22.7105 76.8036 21.1894C77.6308 19.6683 78.7917 18.4808 80.2861 17.6268C81.8072 16.7729 83.5818 16.3459 85.6099 16.3459C87.6648 16.3459 89.426 16.7729 90.8938 17.6268C92.3882 18.4808 93.549 19.6683 94.3763 21.1894C95.2036 22.7105 95.6172 24.4985 95.6172 26.5533C95.6172 28.5814 95.1902 30.3694 94.3363 31.9172C93.509 33.465 92.3482 34.6658 90.8537 35.5198C89.3593 36.3471 87.5847 36.774 85.5299 36.8007ZM85.5699 32.9179C86.6907 32.9179 87.6514 32.6377 88.452 32.0773C89.2526 31.5169 89.8664 30.7563 90.2933 29.7956C90.747 28.8349 90.9738 27.7542 90.9738 26.5533C90.9738 25.3257 90.7603 24.2316 90.3334 23.2709C89.9064 22.3102 89.2926 21.563 88.492 21.0293C87.6914 20.4689 86.7307 20.1887 85.6099 20.1887C84.5425 20.1887 83.5951 20.4689 82.7679 21.0293C81.9406 21.5897 81.3001 22.3502 80.8465 23.3109C80.4195 24.2716 80.1927 25.3524 80.166 26.5533C80.166 27.7808 80.3795 28.875 80.8065 29.8357C81.2334 30.7964 81.8606 31.5569 82.6878 32.1173C83.5151 32.651 84.4758 32.9179 85.5699 32.9179Z" fill="white"/>
<path d="M116.582 17.0751C116.582 16.9598 116.488 16.8663 116.373 16.8663H112.268C112.152 16.8663 112.059 16.9598 112.059 17.0751V37.5613C112.059 38.9222 111.552 39.7675 110.538 40.5147C109.55 41.2619 108.44 41.5062 106.865 41.5329C105.771 41.5062 104.744 41.4088 103.837 41.1152C102.986 40.8649 102.055 40.4971 101.084 40.012C100.978 39.9592 100.849 40.0031 100.799 40.1101L99.3229 43.2556C99.2803 43.3465 99.3081 43.4551 99.3911 43.5116C99.8414 43.8181 100.368 44.0919 100.971 44.333C101.638 44.5998 102.318 44.8133 103.012 44.9734C103.733 45.1602 104.477 45.3161 105.118 45.3961C105.785 45.4762 106.415 45.487 106.815 45.487C108.843 45.487 110.578 45.1668 112.019 44.5263C113.486 43.8858 114.607 42.9785 115.381 41.8043C116.182 40.6302 116.582 39.2291 116.582 37.6013V17.0751ZM113.314 30.3339C113.253 30.1892 113.059 30.1611 112.956 30.2796C112.171 31.183 111.373 31.823 110.618 32.2374C109.817 32.6911 108.896 32.9179 107.856 32.9179C106.788 32.9179 105.854 32.651 105.054 32.1173C104.28 31.5569 103.693 30.7964 103.292 29.8357C102.892 28.875 102.692 27.7675 102.692 26.5133C102.692 25.3124 102.892 24.2449 103.292 23.3109C103.693 22.3502 104.28 21.5897 105.054 21.0293C105.854 20.4689 106.802 20.1887 107.896 20.1887C108.91 20.1887 109.71 20.4022 110.538 20.8291C111.31 21.2153 112.132 22.0971 112.839 23.0181C112.938 23.1464 113.139 23.1225 113.202 22.9736L114.338 20.2934C114.366 20.2281 114.359 20.1533 114.319 20.0952C112.885 18.0383 110.461 16.3459 107.7 16.3459C105.699 16.3459 104.12 16.7729 102.652 17.6268C101.184 18.4808 100.05 19.6683 99.2494 21.1894C98.4755 22.7105 98.0886 24.4851 98.0886 26.5133C98.0886 28.5948 98.4755 30.4094 99.2494 31.9572C100.023 33.4783 101.131 34.6658 102.572 35.5198C104.04 36.3737 105.774 36.8007 107.776 36.8007C108.523 36.8007 109.297 36.6539 110.097 36.3604C110.925 36.0935 111.725 35.6932 112.499 35.1595C113.239 34.6489 113.894 34.0405 114.464 33.3345C114.511 33.2753 114.522 33.1947 114.493 33.1247L113.314 30.3339Z" fill="white"/>
<path d="M132.061 17.2352C132.061 17.1199 131.968 17.0264 131.852 17.0264H127.386C127.271 17.0264 127.178 16.9329 127.178 16.8176V11.3577C127.178 11.2424 127.084 11.1489 126.969 11.1489H122.903C122.788 11.1489 122.694 11.2424 122.694 11.3577V16.8176C122.694 16.9329 122.601 17.0264 122.486 17.0264H119.766C119.65 17.0264 119.556 17.1212 119.557 17.2374L119.593 20.6225C119.594 20.737 119.687 20.8291 119.801 20.8291H122.486C122.601 20.8291 122.694 20.9226 122.694 21.038V30.4761C122.694 31.8905 122.975 33.0914 123.535 34.0787C124.122 35.0394 124.923 35.7733 125.937 36.2803C126.951 36.7874 128.178 37.0409 129.619 37.0409C130.02 37.0409 130.447 36.9875 130.9 36.8808C131.381 36.774 131.845 36.6617 132.245 36.5015C132.602 36.3675 133.299 36.0182 133.654 35.8124C133.748 35.7576 133.777 35.6383 133.724 35.5431L132.072 32.631C132.02 32.5386 131.907 32.5 131.808 32.5378C131.541 32.6396 131.265 32.7234 130.98 32.7891C130.633 32.8692 130.286 32.9092 129.94 32.9092C129.006 32.9092 128.312 32.8112 127.858 32.1974C127.404 31.5569 127.178 30.743 127.178 29.7556V21.038C127.178 20.9226 127.271 20.8291 127.386 20.8291H131.852C131.968 20.8291 132.061 20.7356 132.061 20.6203V17.2352Z" fill="white"/>
<path d="M143.913 36.7907C141.858 36.7907 140.083 36.3638 138.589 35.5098C137.094 34.6559 135.947 33.4683 135.146 31.9472C134.346 30.3994 133.945 28.6115 133.945 26.5833C133.945 24.5018 134.359 22.7005 135.186 21.1794C136.014 19.6583 137.174 18.4708 138.669 17.6168C140.19 16.7629 141.965 16.3359 143.993 16.3359C146.048 16.3359 147.809 16.7629 149.277 17.6168C150.771 18.4708 151.932 19.6583 152.759 21.1794C153.586 22.7005 154 24.4885 154 26.5433C154 28.5715 153.573 30.3594 152.719 31.9072C151.892 33.455 150.731 34.6559 149.237 35.5098C147.742 36.3371 145.968 36.7641 143.913 36.7907ZM143.953 32.9079C145.074 32.9079 146.034 32.6277 146.835 32.0673C147.635 31.5069 148.249 30.7464 148.676 29.7857C149.13 28.825 149.357 27.7442 149.357 26.5433C149.357 25.3158 149.143 24.2216 148.716 23.2609C148.289 22.3002 147.675 21.553 146.875 21.0193C146.074 20.4589 145.114 20.1787 143.993 20.1787C142.925 20.1787 141.978 20.4589 141.151 21.0193C140.323 21.5797 139.683 22.3403 139.229 23.301C138.802 24.2617 138.575 25.3424 138.549 26.5433C138.549 27.7709 138.762 28.865 139.189 29.8257C139.616 30.7864 140.243 31.5469 141.071 32.1074C141.898 32.6411 142.859 32.9079 143.953 32.9079Z" fill="white"/>
<path d="M73.6634 32.7578C73.6634 32.6425 73.5699 32.549 73.4546 32.549H62.652C62.5367 32.549 62.4432 32.4555 62.4432 32.3401V11.3136C62.4432 11.1982 62.3497 11.1047 62.2344 11.1047H58.2088C58.0935 11.1047 58 11.1982 58 11.3136V36.5919C58 36.7072 58.0935 36.8007 58.2088 36.8007H73.4546C73.5699 36.8007 73.6634 36.7072 73.6634 36.5919V32.7578Z" fill="white"/>
<defs>
<linearGradient id="paint0_linear_865_5913" x1="-10.381" y1="33.1953" x2="38.8896" y2="13.0537" gradientUnits="userSpaceOnUse">
<stop stop-color="#4B2EFB"/>
<stop offset="1" stop-color="#E65FFC"/>
</linearGradient>
</defs>
</svg>
