<?xml version="1.0" encoding="UTF-8"?><svg xmlns="http://www.w3.org/2000/svg" width="240" height="240"><path fill="#464646" d="M0 0h240v240H0z"/><path fill="#efefef" d="M130.5 85.09v-1.71l-5.315.365c-1.505.095-2.635.415-3.395.955-.76.545-1.14 1.3-1.14 2.265 0 .94.375 1.69 1.13 2.245.75.56 1.76.835 3.02.835.805 0 1.56-.125 2.255-.37s1.305-.59 1.815-1.03c.51-.435.91-.955 1.195-1.56.29-.605.435-1.27.435-1.995zM120 16.25c-57.9 0-103.8 45.85-103.8 103.8.05 57.9 45.9 103.8 103.8 103.8s103.8-45.9 103.8-103.8S177.9 16.25 120 16.25zm20.14 61.5c.49-1.375 1.18-2.555 2.075-3.535s1.97-1.735 3.23-2.265 2.665-.795 4.21-.795c1.395 0 2.655.21 3.775.625 1.125.415 2.085.975 2.89 1.68s1.445 1.525 1.915 2.465.75 1.935.845 2.98h-4.165c-.105-.575-.295-1.115-.565-1.61s-.625-.925-1.065-1.29c-.445-.365-.965-.65-1.56-.855-.6-.21-1.27-.31-2.025-.31-.885 0-1.69.18-2.405.535-.72.355-1.335.86-1.845 1.51s-.905 1.445-1.185 2.375c-.285.935-.425 1.97-.425 3.11 0 1.18.14 2.24.425 3.17.28.935.68 1.72 1.2 2.365.515.645 1.14 1.14 1.865 1.48s1.525.515 2.395.515c1.425 0 2.585-.335 3.485-1.005s1.48-1.65 1.75-2.94h4.17c-.12 1.14-.435 2.18-.945 3.12s-1.17 1.74-1.98 2.405c-.815.665-1.77 1.18-2.87 1.54s-2.31.545-3.625.545c-1.56 0-2.965-.26-4.23-.775-1.26-.515-2.345-1.26-3.245-2.225s-1.595-2.14-2.085-3.525-.735-2.94-.735-4.675c-.01-1.695.235-3.235.725-4.615zm-59.26-6.31h4.17v3.705h.08c.255-.615.59-1.17 1-1.65.41-.485.88-.895 1.42-1.24.535-.345 1.13-.605 1.77-.785.645-.18 1.325-.27 2.035-.27 1.53 0 2.825.365 3.875 1.095 1.055.73 1.805 1.78 2.245 3.15h.105c.28-.66.65-1.25 1.105-1.77s.98-.97 1.57-1.34 1.24-.65 1.945-.845 1.445-.29 2.225-.29c1.075 0 2.05.17 2.93.515s1.63.825 2.255 1.45 1.105 1.385 1.44 2.275.505 1.88.505 2.97v14.9h-4.35V79.45c0-1.435-.37-2.55-1.11-3.335-.735-.785-1.79-1.18-3.16-1.18-.67 0-1.285.12-1.845.355-.555.235-1.04.565-1.44.99-.405.42-.72.93-.945 1.52-.23.59-.345 1.235-.345 1.935v13.58h-4.29v-14.22c0-.63-.1-1.2-.295-1.71s-.47-.945-.835-1.31c-.36-.365-.805-.64-1.32-.835-.52-.195-1.1-.295-1.745-.295-.67 0-1.29.125-1.865.375-.57.25-1.06.595-1.47 1.035-.41.445-.73.965-.955 1.57-.22.6-.58 1.26-.58 1.97v13.42H80.88v-21.87zm9.5 104.7c-19.12 0-31.12-13.29-31.12-34.5s12-34.54 31.12-34.54 31.08 13.34 31.08 34.54-11.95 34.5-31.08 34.5zm35.41-82.88c-.705.18-1.425.27-2.165.27-1.09 0-2.085-.155-2.99-.465-.91-.31-1.685-.745-2.335-1.31s-1.16-1.245-1.52-2.045c-.365-.8-.545-1.69-.545-2.67 0-1.92.715-3.42 2.145-4.5s3.5-1.71 6.215-1.885l5.9-.34v-1.69c0-1.26-.4-2.225-1.2-2.88s-1.93-.985-3.395-.985c-.59 0-1.145.075-1.655.22-.51.15-.96.36-1.35.635s-.715.605-.965.99c-.255.38-.43.81-.525 1.28h-4.09c.025-.965.265-1.86.715-2.68s1.06-1.53 1.835-2.135 1.68-1.075 2.73-1.41 2.19-.505 3.425-.505c1.33 0 2.535.165 3.615.505s2.005.815 2.77 1.44 1.355 1.375 1.77 2.255.625 1.865.625 2.95v15h-4.165V89.66h-.105c-.31.59-.7 1.125-1.175 1.6-.48.475-1.015.885-1.61 1.22-.6.335-1.25.595-1.955.775zm27.52 82.88c-14.58 0-24.5-7.64-25.19-19.64h9.495c.74 6.855 7.365 11.4 16.44 11.4 8.705 0 14.96-4.54 14.96-10.74 0-5.37-3.8-8.615-12.6-10.84l-8.57-2.13c-12.32-3.055-17.92-8.66-17.92-17.88 0-11.34 9.91-19.22 24.04-19.22 13.8 0 23.43 7.92 23.8 19.31h-9.4c-.65-6.855-6.25-11.07-14.59-11.07-8.29 0-14.03 4.26-14.03 10.42 0 4.86 3.61 7.735 12.41 9.955l7.225 1.805c13.76 3.335 19.4 8.755 19.4 18.48-.005 12.41-9.82 20.14-25.48 20.14zm-62.96-60.5c-13.1 0-21.3 10.05-21.3 26.02 0 15.93 8.195 25.98 21.3 25.98 13.06 0 21.3-10.05 21.3-25.98 0-16-8.2-26-21.26-26z"/></svg>