<svg xmlns="http://www.w3.org/2000/svg" viewBox="0 0 128 128"><path fill="#003545" d="M127.434 12.182a1.727 1.727 0 0 0-1.174-.392c-1.168 0-2.68.793-3.495 1.218l-.322.165a11.095 11.095 0 0 1-4.365 1.1c-1.554.049-2.892.14-4.635.322-10.327 1.06-14.933 8.975-19.37 16.63-2.416 4.164-4.91 8.489-8.33 11.793a22.472 22.472 0 0 1-2.252 1.913c-3.54 2.631-7.985 4.51-11.443 5.84-3.329 1.273-6.964 2.417-10.474 3.524-3.219 1.012-6.255 1.97-9.048 3.008a96.902 96.902 0 0 1-3.275 1.14c-2.545.825-4.378 1.458-7.06 3.304a45.386 45.386 0 0 0-2.804 2.066 29.585 29.585 0 0 0-5.597 5.894 34.802 34.802 0 0 1-4.701 5.642c-.566.554-1.57.826-3.074.826-1.76 0-3.895-.363-6.154-.747-2.33-.413-4.738-.805-6.803-.805-1.677 0-2.962.273-3.92.826 0 0-1.617.942-2.298 2.16l.67.302a13.718 13.718 0 0 1 2.859 2.065 14.342 14.342 0 0 0 2.973 2.115 2.553 2.553 0 0 1 .918.582c-.281.413-.694.946-1.129 1.516-2.384 3.119-3.774 5.09-2.977 6.163a2.507 2.507 0 0 0 1.239.28c5.196 0 7.989-1.35 11.52-3.06 1.024-.495 2.066-1.004 3.305-1.528 2.065-.896 4.288-2.325 6.647-3.838 3.084-2.01 6.31-4.076 9.442-5.072a25.734 25.734 0 0 1 7.943-1.115c3.305 0 6.783.441 10.138.872 2.499.322 5.089.652 7.63.805.986.057 1.9.086 2.787.086a32.307 32.307 0 0 0 3.557-.185l.284-.1c1.781-1.094 2.617-3.444 3.425-5.717.52-1.462.96-2.775 1.652-3.61a1.054 1.054 0 0 1 .132-.11.166.166 0 0 1 .202.032v.066c-.412 8.885-3.99 14.527-7.608 19.543l-2.416 2.59s3.383 0 5.307-.744c7.024-2.099 12.324-6.725 16.181-14.103a60.185 60.185 0 0 0 2.549-5.82c.065-.165.673-.47.616.384-.021.252-.038.533-.059.827 0 .173 0 .35-.033.528-.1 1.24-.392 3.859-.392 3.859l2.169-1.162c5.229-3.304 9.26-9.97 12.318-20.343 1.272-4.321 2.205-8.613 3.027-12.392.983-4.545 1.83-8.44 2.801-9.952 1.524-2.37 3.85-3.973 6.101-5.53.306-.211.616-.414.917-.637 2.83-1.986 5.643-4.279 6.263-8.555v-.095c.45-3.189.07-4.002-.364-4.373zm-7.283 103.727h-10.327V97.92h9.315c3.56 0 6.952.67 6.902 4.66 0 2.813-1.747 3.59-3.589 3.886 2.615.224 4.188 1.892 4.188 4.586.017 4.035-3.523 4.858-6.489 4.858zm-.772-10.14c3.565 0 4.362-1.372 4.362-3.115 0-2.619-1.595-3.214-4.362-3.214h-7.402v6.328zm.099 1.52h-7.501v7.1h7.823c2.194 0 4.511-.723 4.511-3.486 0-3.19-2.665-3.615-4.833-3.615zm-31.497-9.37h8.125c6.828 0 10.24 3.764 10.19 8.994.05 5.436-3.716 8.997-9.591 8.997H87.98zm2.242 1.596v14.825h6.197c5.432 0 7.501-3.665 7.501-7.477 0-4.309-2.59-7.348-7.5-7.348zm-10.838 5.357v-2.095h3.404v13.132h-3.392v-2.114c-.896 1.52-2.739 2.391-4.982 2.391-4.684 0-7.303-3.305-7.303-7.105 0-3.664 2.479-6.609 6.804-6.609 2.454.029 4.498.855 5.469 2.4zm-8.675 4.387c0 2.416 1.52 4.485 4.462 4.485 2.841 0 4.386-2.02 4.386-4.411 0-2.392-1.599-4.436-4.544-4.436-2.828 0-4.3 2.04-4.3 4.362zm-10.013-9.947a1.722 1.722 0 0 1 1.818-1.768 1.788 1.788 0 0 1 1.847 1.821 1.714 1.714 0 0 1-1.847 1.744 1.743 1.743 0 0 1-1.818-1.797zm.15 3.465h3.39v9.596c0 .595.125 1.02.62 1.02a3.657 3.657 0 0 0 .648-.073l.525 2.478a5.931 5.931 0 0 1-2.242.414c-1.421 0-2.942-.414-2.942-3.64zM52.15 115.91h-3.386v-13.132h3.386v2.942a5.197 5.197 0 0 1 4.735-3.218 6.13 6.13 0 0 1 2.119.347l-.723 2.479a7.435 7.435 0 0 0-1.793-.249c-2.445 0-4.338 1.843-4.338 4.545zm-11.037-11.037v-2.095h3.392v13.132h-3.392v-2.114c-.896 1.52-2.738 2.391-4.982 2.391-4.688 0-7.303-3.305-7.303-7.105 0-3.664 2.479-6.609 6.804-6.609 2.466.029 4.51.855 5.481 2.4zm-8.675 4.387c0 2.416 1.52 4.485 4.462 4.485 2.838 0 4.383-2.02 4.383-4.411 0-2.391-1.595-4.436-4.544-4.436-2.826 0-4.296 2.04-4.296 4.362zm-9.24-11.34 4.651 17.99h-3.51L21.24 102.95 15.4 115.91h-2.965l-5.808-12.883-3.19 12.883H0l4.61-17.99h3.04l6.28 13.93 6.253-13.93z"/></svg>
