<svg xmlns="http://www.w3.org/2000/svg" width="64" height="64" preserveAspectRatio="xMidYMid"><g transform="matrix(.197726 0 0 .197726 6.691093 -.000001)" fill="#509ee3"><ellipse ry="19.704" rx="19.394" cy="82.757" cx="19.394"/><ellipse ry="19.704" rx="19.394" cy="137.928" cx="19.394"/><ellipse ry="19.704" rx="19.394" cy="82.757" cx="73.697" opacity=".2"/><ellipse ry="19.704" rx="19.394" cy="138.464" cx="73.697"/><ellipse ry="19.704" rx="19.394" cy="82.757" cx="128" opacity=".2"/><ellipse ry="19.704" rx="19.394" cy="19.704" cx="128" opacity=".2"/><ellipse ry="19.704" rx="19.394" cy="138.464" cx="128" opacity=".2"/><ellipse ry="19.704" rx="19.394" cy="82.757" cx="182.303" opacity=".2"/><ellipse ry="19.704" rx="19.394" cy="82.757" cx="236.606"/><ellipse ry="19.704" rx="19.394" cy="138.464" cx="182.303"/><ellipse ry="19.704" rx="19.394" cy="138.464" cx="236.606"/><ellipse ry="19.704" rx="19.394" cy="193.099" cx="19.394"/><ellipse ry="19.704" rx="19.394" cy="193.635" cx="73.697" opacity=".2"/><ellipse ry="19.704" rx="19.394" cy="193.635" cx="128"/><ellipse ry="19.704" rx="19.394" cy="193.635" cx="182.303" opacity=".2"/><ellipse ry="19.704" rx="19.394" cy="193.635" cx="236.606"/><ellipse ry="19.704" rx="19.394" cy="248.27" cx="19.394"/><ellipse ry="19.704" rx="19.394" cy="248.806" cx="73.697" opacity=".2"/><ellipse ry="19.704" rx="19.394" cy="248.806" cx="128" opacity=".2"/><ellipse ry="19.704" rx="19.394" cy="303.977" cx="128" opacity=".2"/><ellipse ry="19.704" rx="19.394" cy="248.806" cx="182.303" opacity=".2"/><ellipse ry="19.704" rx="19.394" cy="248.806" cx="236.606"/></g></svg>