<svg width="512" height="512" viewBox="0 0 512 512" fill="none" xmlns="http://www.w3.org/2000/svg">
<rect width="512" height="512" rx="48" fill="#121212"/>
<path d="M403.072 173.771L415.657 191.275L415.962 191.698L415.526 191.985C413.878 193.069 412.192 194.152 410.471 195.235L408.738 196.318C406.43 197.751 404.185 199.315 402.005 201.009L401.996 201.016L401.987 201.021C399.42 202.847 396.333 205.264 392.724 208.274L392.716 208.281C389.103 211.165 385.232 214.243 381.103 217.52L381.104 217.521C377.102 220.799 373.165 224.012 369.292 227.159L369.291 227.158C366.209 229.749 363.344 232.116 360.699 234.264C363.19 233.735 365.604 233.366 367.942 233.158L369.067 233.02C371.699 232.716 374.379 232.564 377.108 232.564C388.146 232.564 398.033 234.741 406.759 239.105H406.76C415.605 243.466 422.577 249.419 427.664 256.967H427.665C432.891 264.399 435.5 272.958 435.5 282.625C435.5 292.744 433.056 301.944 428.163 310.214L427.681 311.011C422.459 319.498 414.57 326.244 404.043 331.261C393.629 336.285 380.577 338.782 364.91 338.782C355.955 338.782 347.829 337.464 340.538 334.819L340.535 334.818C333.594 332.255 328.036 328.626 323.881 323.922L323.482 323.463C319.272 318.519 317.168 312.699 317.168 306.028C317.168 300.56 318.613 295.486 321.502 290.818L321.504 290.815L321.79 290.369C324.779 285.78 328.813 282.07 333.882 279.238L333.885 279.236L334.392 278.966C339.646 276.217 345.628 274.849 352.325 274.849C361.299 274.849 368.881 276.698 375.044 280.427H375.043C381.309 284.009 386.085 288.858 389.356 294.969L389.67 295.543C391.827 299.565 393.283 303.843 394.04 308.373C398.065 306.071 401.253 303.289 403.616 300.031L403.618 300.03L403.957 299.557C407.406 294.639 409.136 288.871 409.136 282.231C409.136 276.443 407.366 271.376 403.826 267.01L403.821 267.003C400.504 262.76 395.989 259.413 390.256 256.968L389.697 256.733C383.7 254.271 376.924 253.034 369.363 253.034C361.92 253.034 355.131 254.012 348.991 255.961L348.982 255.964C342.832 257.786 337.002 260.454 331.49 263.97L331.487 263.972C326.433 267.149 321.432 271.017 316.482 275.578L315.493 276.499C310.344 281.336 305.193 286.764 300.041 292.783L299.68 293.204L299.299 292.804L281.679 274.316L281.31 273.929L281.723 273.586L284.423 271.36C287.207 269.073 290.246 266.601 293.539 263.945C297.923 260.278 302.371 256.48 306.884 252.551L306.889 252.546L313.617 246.844C315.779 245.008 317.86 243.238 319.86 241.534C323.991 237.994 327.478 235.042 330.32 232.68L330.322 232.678L334.725 229.041C336.306 227.73 338 226.321 339.806 224.813C343.42 221.798 347.163 218.718 351.034 215.572L353.903 213.15C356.733 210.767 359.454 208.494 362.066 206.332L364.57 204.158C366.529 202.45 368.266 200.913 369.787 199.551C368.621 199.566 367.288 199.598 365.787 199.65L363.576 199.736C360.477 199.868 357.054 199.998 353.31 200.129L353.311 200.13C349.697 200.261 346.018 200.391 342.274 200.522L342.275 200.523C338.668 200.654 335.255 200.851 332.036 201.112L332.026 201.113H332.016C328.92 201.244 326.342 201.375 324.282 201.506L324.276 201.507C322.346 201.605 320.342 201.739 318.265 201.911L316.165 202.095C313.335 202.356 310.766 202.682 308.457 203.073L307.891 203.169L307.874 202.596L307.099 177.028L307.082 176.434L307.671 176.519C310.362 176.909 313.251 177.17 316.334 177.301L318.628 177.387C320.898 177.46 323.095 177.497 325.219 177.497H334.497C338.629 177.366 343.276 177.235 348.44 177.104L364.123 176.71L371.479 176.514C373.797 176.448 375.985 176.383 378.046 176.317L383.71 175.974C385.355 175.875 386.758 175.793 387.92 175.728C391.904 175.336 395.053 175.009 397.368 174.748C399.678 174.357 401.385 173.969 402.506 173.59L402.856 173.472L403.072 173.771ZM352.518 294.729C348.998 294.729 346.222 295.684 344.139 297.551L344.134 297.557L344.127 297.562C342.027 299.319 341.014 301.349 341.014 303.669C341.014 307.137 342.704 309.938 346.198 312.093L346.531 312.293C349.999 314.326 354.501 315.362 360.07 315.362C363.868 315.362 367.444 315.203 370.801 314.889C370.245 309.309 368.53 304.764 365.682 301.229L365.677 301.223L365.673 301.216C362.413 296.886 358.044 294.729 352.518 294.729Z" fill="#F1F1F1" stroke="#F1F1F1"/>
<path d="M232.976 165.5V282.535H201.416V313.306C201.416 314.859 201.527 316.114 201.742 317.081C201.954 318.033 202.256 318.658 202.603 319.024C203.026 319.335 203.759 319.606 204.871 319.794C205.995 319.984 207.449 320.082 209.241 320.082H229.571C231.677 320.082 233.209 319.518 234.249 318.462C234.754 317.948 235.224 317.111 235.632 315.899C236.038 314.694 236.371 313.154 236.627 311.271L236.722 310.54C237.188 306.769 237.542 301.264 237.784 294.016L237.817 293.032L238.592 293.638C240.241 294.927 242.281 296.222 244.715 297.523C247.271 298.821 249.89 299.924 252.572 300.833L256.495 302.112C257.69 302.506 258.773 302.867 259.742 303.195L260.109 303.319L260.08 303.706C259.304 314.08 257.946 322.128 255.989 327.825C254.091 333.479 251.312 337.52 247.613 339.867L247.253 340.089C243.404 342.381 238.205 343.503 231.701 343.503H205.949C198.304 343.503 192.288 342.582 187.938 340.708L187.934 340.706C183.679 338.815 180.682 335.633 178.958 331.187L178.953 331.175L179.424 331.006L178.953 331.174C177.377 326.771 176.601 320.871 176.601 313.502V282.535H154.227C153.414 288.389 152.293 293.903 150.864 299.075L150.865 299.076C148.913 306.481 145.656 313.162 141.098 319.116L141.097 319.115C136.655 325.084 130.335 330.239 122.159 334.59L122.16 334.591C113.975 339.078 103.342 342.828 90.2783 345.85L89.8174 345.956L89.6855 345.502C89.0548 343.324 87.9782 340.936 86.4443 338.34L86.4404 338.333C85.0284 335.856 83.4219 333.311 81.6221 330.699L81.6191 330.695C80.0602 328.381 78.509 326.477 76.9668 324.979L76.6582 324.684L75.9385 324.009L76.9082 323.827L78.9834 323.43C88.884 321.481 96.9114 319.159 103.077 316.472L103.708 316.192C110.375 313.066 115.406 309.499 118.829 305.507L118.835 305.5L119.491 304.742C122.706 300.924 124.967 296.655 126.278 291.932C127.07 289.007 127.741 285.875 128.291 282.535H104.769V165.5H232.976ZM128.228 261.081H208.354V249.691H128.228V261.081ZM128.228 229.418H208.354V218.224H128.228V229.418ZM128.228 198.147H208.354V186.954H128.228V198.147Z" fill="#F1F1F1" stroke="#F1F1F1"/>
</svg>
