<?xml version="1.0" encoding="UTF-8" standalone="no"?> <!-- Created with Inkscape (http://www.inkscape.org/) --> <svg xmlns:dc="http://purl.org/dc/elements/1.1/" xmlns:cc="http://creativecommons.org/ns#" xmlns:rdf="http://www.w3.org/1999/02/22-rdf-syntax-ns#" xmlns:svg="http://www.w3.org/2000/svg" xmlns="http://www.w3.org/2000/svg" xmlns:sodipodi="http://sodipodi.sourceforge.net/DTD/sodipodi-0.dtd" xmlns:inkscape="http://www.inkscape.org/namespaces/inkscape" id="svg4136" version="1.1" inkscape:version="0.91 r13725" xml:space="preserve" width="278.23288" height="278.23288" viewBox="0 0 278.23288 278.23288" sodipodi:docname="mosquitto-logo-only.svg"><metadata id="metadata4142"><rdf:RDF><cc:Work rdf:about=""><dc:format>image/svg+xml</dc:format><dc:type rdf:resource="http://purl.org/dc/dcmitype/StillImage" /><dc:title></dc:title></cc:Work></rdf:RDF></metadata><defs id="defs4140" /><sodipodi:namedview pagecolor="#ffffff" bordercolor="#666666" borderopacity="1" objecttolerance="10" gridtolerance="10" guidetolerance="10" inkscape:pageopacity="0" inkscape:pageshadow="2" inkscape:window-width="1280" inkscape:window-height="995" id="namedview4138" showgrid="false" inkscape:zoom="1.7899063" inkscape:cx="67.324802" inkscape:cy="84.142768" inkscape:window-x="1280" inkscape:window-y="0" inkscape:window-maximized="1" inkscape:current-layer="g4144" fit-margin-top="0" fit-margin-left="0" fit-margin-right="0" fit-margin-bottom="0" /><g id="g4144" inkscape:groupmode="layer" inkscape:label="mosquitto" transform="matrix(1.25,0,0,-1.25,-387.06488,575.71439)"><g id="g3377" transform="translate(0,26.44071)"><path inkscape:connector-curvature="0" id="path4160" style="fill:#f3771c;fill-opacity:1;fill-rule:evenodd;stroke:none" d="m 420.9449,237.9852 3.1034,42.3947 2.5194,34.4248 c 5.1916,2.194 8.8356,7.3344 8.8356,13.324 0,7.9837 -6.4746,14.4584 -14.4584,14.4584 -7.9838,0 -14.4584,-6.4747 -14.4584,-14.4584 0,-5.9896 3.6439,-11.13 8.8356,-13.324 l 2.5194,-34.4248 3.1034,-42.3947 z" /><path inkscape:connector-curvature="0" id="path4162" style="fill:#3c5280;fill-opacity:1;fill-rule:evenodd;stroke:none" d="m 322.2003,328.1839 c 0,-24.4581 8.9422,-47.3527 24.4508,-65.0437 l -9.347,-8.3787 c -17.5008,19.9159 -27.6522,45.7824 -27.6522,73.4224 0,31.144 12.801,59.3037 33.4258,79.5062 l 0.47,-0.4215 27.6474,-24.7845 C 345.2111,358.664 339.8298,319.926 357.9086,290.084 l 9.5443,8.5556 c -13.7812,24.8958 -8.5306,56.3422 13.1394,75.42 l 9.4666,-8.4844 8.4197,-7.5492 8.7333,-7.8288 c -3.2664,-2.048 -6.0429,-4.8044 -8.1148,-8.0538 -2.5602,-4.0158 -4.0439,-8.7843 -4.0439,-13.8982 0,-11.4001 7.3721,-21.0816 17.6077,-24.5373 l 0.8807,-12.0308 c -17.0538,3.435 -29.9009,18.5037 -29.9009,36.5681 0,8.0438 2.5472,15.4941 6.8791,21.5875 l -8.356,7.4922 -0.0315,0.0284 c -13.6984,-18.1953 -12.852,-43.4563 1.899,-60.7045 L 355.9969,271.518 c -27.6004,31.6071 -28.3884,78.5191 -1.9533,111.0143 l -9.3515,8.3835 c -12.907,-15.6702 -21.0804,-35.3849 -22.3254,-56.9549 l -0.057,-0.0637 0.0507,-0.0454 c -0.1063,-1.876 -0.1601,-3.7655 -0.1601,-5.6679 z m 107.0286,-24.476 c 10.2356,3.4557 17.6076,13.1375 17.6076,24.5373 0,5.1139 -1.4836,9.8824 -4.0436,13.8979 -2.0718,3.2494 -4.8484,6.0061 -8.1144,8.0538 l 8.7329,7.8288 8.4206,7.5486 -8e-4,9e-4 9.4666,8.4844 c 21.67,-19.0778 26.9206,-50.5242 13.1394,-75.42 l 9.5442,-8.5556 c 18.0786,29.842 12.6976,68.58 -13.2865,92.4001 l 27.6486,24.7856 0.4688,0.4204 c 20.6249,-20.2025 33.4259,-48.3622 33.4259,-79.5062 0,-27.64 -10.1515,-53.5065 -27.6523,-73.4224 l -9.3469,8.3787 c 15.5083,17.691 24.4505,40.5856 24.4505,65.0437 0,1.9024 -0.0536,3.7919 -0.1599,5.6679 l 0.0507,0.0454 -0.0569,0.0637 c -1.245,21.57 -9.4184,41.2847 -22.3257,56.9549 l -9.3512,-8.3835 c 26.435,-32.4952 25.6467,-79.4072 -1.9534,-111.0143 l -28.0346,25.1308 c 14.7512,17.2482 15.5976,42.5092 1.8992,60.7045 l -0.0317,-0.0284 -8.356,-7.4922 c 4.3319,-6.0936 6.8791,-13.5439 6.8791,-21.5875 0,-18.0644 -12.8472,-33.1328 -29.9007,-36.5681 l 0.8805,12.0308 z" /></g></g></svg>