<svg height="256.024" viewBox="0 0 67.74 67.74" width="256.024" xmlns="http://www.w3.org/2000/svg"><g stroke="#000"><circle cx="33.86958" cy="33.869496" fill="#0084ff" r="32.499" stroke-width="2.74219"/><g stroke-width="2.64583"><circle cx="33.86958" cy="33.869496" fill="#fff" r="11.573"/><path d="m161.58928 117.1873c0 10.77898-8.73809 19.51707-19.51707 19.51707m-19.51706-19.51707c0-10.77898 8.73809-19.517068 19.51706-19.517067" fill="none" stroke-linecap="round" transform="translate(-108.20242 -83.317504)"/><path d="m167.71209 117.1873c0 .32994-.006.65843-.0186.98535m-.60107 4.64276c-2.56514 11.4532-12.7932 20.01177-25.02022 20.01177m-25.63986-25.63988c0-.29458.005-.58801.0148-.88019m.49655-4.2403c2.37274-11.707 12.7215-20.519383 25.1285-20.519383" fill="none" stroke-linecap="round" transform="translate(-108.20242 -83.317504)"/><circle cx="33.86958" cy="33.869496" fill="#fff" r="2.391"/></g></g></svg>