<?xml version="1.0" encoding="UTF-8"?>
<!DOCTYPE svg PUBLIC "-//W3C//DTD SVG 1.1//EN" "http://www.w3.org/Graphics/SVG/1.1/DTD/svg11.dtd">
<svg xmlns="http://www.w3.org/2000/svg" version="1.1" width="4096px" height="4096px" style="shape-rendering:geometricPrecision; text-rendering:geometricPrecision; image-rendering:optimizeQuality; fill-rule:evenodd; clip-rule:evenodd" xmlns:xlink="http://www.w3.org/1999/xlink">
<g><path style="opacity:0.999" fill="#fefefe" d="M 1984.5,-0.5 C 2026.5,-0.5 2068.5,-0.5 2110.5,-0.5C 2537.4,15.5079 2922.4,149.008 3265.5,400C 3560.04,620.244 3781.2,898.744 3929,1235.5C 4031.4,1474.76 4086.9,1724.43 4095.5,1984.5C 4095.5,2026.5 4095.5,2068.5 4095.5,2110.5C 4079.61,2533.7 3948.11,2916.03 3701,3257.5C 3593.06,3404.12 3467.89,3534.62 3325.5,3649C 3314.27,3657.74 3302.94,3666.24 3291.5,3674.5C 3294.9,3533.77 3270.4,3398.11 3218,3267.5C 3213.27,3256.38 3208.27,3245.38 3203,3234.5C 3199.86,3228.11 3198.2,3221.44 3198,3214.5C 3233.37,3166.09 3260.04,3113.09 3278,3055.5C 3315.81,2931.9 3329.15,2805.57 3318,2676.5C 3312.19,2588.11 3293.86,2502.44 3263,2419.5C 3248.74,2385.4 3232.58,2352.23 3214.5,2320C 3228.7,2298.44 3242.54,2276.6 3256,2254.5C 3306.49,2163.1 3334.16,2065.1 3339,1960.5C 3347.09,1770.12 3293.75,1599.45 3179,1448.5C 3152.35,1414.84 3123.18,1383.34 3091.5,1354C 3073.96,1338.79 3056.13,1323.96 3038,1309.5C 3037.33,1303.83 3037.33,1298.17 3038,1292.5C 3071.33,1118.01 3070.66,943.681 3036,769.5C 3022.49,704.637 3000.82,642.637 2971,583.5C 2948.49,539.65 2918.65,501.484 2881.5,469C 2825.8,423.008 2762.8,409.008 2692.5,427C 2651.4,440.793 2615.9,463.293 2586,494.5C 2546.73,537.991 2515.73,586.991 2493,641.5C 2466.37,705.666 2447.04,771.999 2435,840.5C 2428.17,878.941 2423.17,917.608 2420,956.5C 2419.88,958.573 2418.88,959.907 2417,960.5C 2399.1,950.801 2381.27,940.967 2363.5,931C 2153.62,824.176 1943.62,823.842 1733.5,930C 1715.06,940.301 1696.56,950.467 1678,960.5C 1676.35,960.18 1675.35,959.18 1675,957.5C 1667.31,849.014 1643.31,744.347 1603,643.5C 1581.9,592.477 1553.57,546.144 1518,504.5C 1488.61,471.396 1453.44,446.562 1412.5,430C 1388.07,422.647 1363.07,419.147 1337.5,419.5C 1322.44,419.049 1307.78,421.215 1293.5,426C 1244.84,441.668 1204.68,469.502 1173,509.5C 1141.62,549.221 1116.62,592.887 1098,640.5C 1066.87,721.373 1047.53,805.04 1040,891.5C 1026.67,1023.93 1032.01,1155.6 1056,1286.5C 1057.33,1293.8 1058,1301.14 1058,1308.5C 887.035,1442.34 787.369,1617.67 759,1834.5C 747.069,1944.53 758.735,2051.86 794,2156.5C 807.02,2192.21 823.02,2226.54 842,2259.5C 854.715,2279.77 867.548,2299.93 880.5,2320C 836.781,2396.64 806.948,2478.47 791,2565.5C 783.711,2603.19 779.045,2641.19 777,2679.5C 776.333,2731.83 776.333,2784.17 777,2836.5C 782.248,2934.22 803.581,3028.22 841,3118.5C 856.12,3152.76 874.787,3184.76 897,3214.5C 897.611,3218.68 896.944,3222.68 895,3226.5C 830.268,3368.77 799.768,3518.1 803.5,3674.5C 556.783,3485.22 362.616,3252.55 221,2976.5C 83.5748,2704.13 9.74149,2415.47 -0.5,2110.5C -0.5,2068.5 -0.5,2026.5 -0.5,1984.5C 15.5079,1557.6 149.008,1172.6 400,829.5C 620.244,534.963 898.744,313.796 1235.5,166C 1474.76,63.6006 1724.43,8.10056 1984.5,-0.5 Z"/></g>
<g><path style="opacity:1" fill="#000000" d="M 3291.5,3674.5 C 3219.32,3730.61 3143.32,3781.28 3063.5,3826.5C 3086.34,3778.48 3098.17,3727.82 3099,3674.5C 3102.6,3547.82 3078.26,3426.82 3026,3311.5C 3012.26,3283.68 2998.26,3256.01 2984,3228.5C 2983.33,3211.83 2983.33,3195.17 2984,3178.5C 2986.77,3167.3 2991.43,3156.97 2998,3147.5C 3011.32,3131.52 3025.32,3116.18 3040,3101.5C 3055.7,3082.12 3068.37,3060.78 3078,3037.5C 3102.95,2974.82 3118.62,2909.82 3125,2842.5C 3135.67,2731.91 3124.67,2623.58 3092,2517.5C 3079.64,2478.12 3061.97,2441.45 3039,2407.5C 3031.38,2397.54 3023.38,2387.88 3015,2378.5C 2984.39,2332.41 2986.72,2288.07 3022,2245.5C 3066.42,2200.01 3099.09,2147.01 3120,2086.5C 3154.85,1979.03 3156.52,1871.03 3125,1762.5C 3089.97,1643.55 3024.14,1545.72 2927.5,1469C 2862.72,1419.8 2789.72,1390.13 2708.5,1380C 2686.83,1378.03 2665.16,1378.03 2643.5,1380C 2623.56,1383.05 2603.56,1385.55 2583.5,1387.5C 2544.15,1385.92 2515.31,1367.92 2497,1333.5C 2488.47,1313.24 2478.81,1293.57 2468,1274.5C 2451.43,1251.93 2434.1,1229.93 2416,1208.5C 2343.7,1135.91 2257.86,1085.74 2158.5,1058C 2140.99,1053.57 2123.33,1049.9 2105.5,1047C 2033.1,1038.03 1962.77,1046.03 1894.5,1071C 1825.56,1096.11 1763.56,1132.45 1708.5,1180C 1668.06,1216.42 1635.23,1258.58 1610,1306.5C 1603.43,1325.64 1593.77,1342.98 1581,1358.5C 1561.48,1377.23 1538.15,1386.57 1511,1386.5C 1493.39,1385.7 1475.89,1383.87 1458.5,1381C 1393.37,1374.82 1330.71,1384.49 1270.5,1410C 1181.85,1448.98 1109.68,1508.15 1054,1587.5C 957.404,1727.48 927.071,1880.82 963,2047.5C 983.321,2126.03 1021.65,2194.03 1078,2251.5C 1102.43,2283.23 1107.43,2317.89 1093,2355.5C 1089.44,2363.62 1085.11,2371.29 1080,2378.5C 1052.63,2408.91 1031.3,2443.25 1016,2481.5C 996.087,2532.48 982.42,2585.15 975,2639.5C 958.127,2755.12 965.46,2869.12 997,2981.5C 1005.9,3012.21 1017.9,3041.54 1033,3069.5C 1039.84,3080.51 1047.17,3091.18 1055,3101.5C 1069.68,3116.18 1083.68,3131.52 1097,3147.5C 1103.4,3157.04 1108.07,3167.37 1111,3178.5C 1111.67,3195.17 1111.67,3211.83 1111,3228.5C 1085.66,3274.84 1063.33,3322.51 1044,3371.5C 1005.13,3479.61 989.794,3590.94 998,3705.5C 1001.44,3737.36 1008.44,3768.36 1019,3798.5C 1022.7,3808.23 1027.2,3817.56 1032.5,3826.5C 952.208,3781.54 875.874,3730.87 803.5,3674.5C 799.768,3518.1 830.268,3368.77 895,3226.5C 896.944,3222.68 897.611,3218.68 897,3214.5C 874.787,3184.76 856.12,3152.76 841,3118.5C 803.581,3028.22 782.248,2934.22 777,2836.5C 776.333,2784.17 776.333,2731.83 777,2679.5C 779.045,2641.19 783.711,2603.19 791,2565.5C 806.948,2478.47 836.781,2396.64 880.5,2320C 867.548,2299.93 854.715,2279.77 842,2259.5C 823.02,2226.54 807.02,2192.21 794,2156.5C 758.735,2051.86 747.069,1944.53 759,1834.5C 787.369,1617.67 887.035,1442.34 1058,1308.5C 1058,1301.14 1057.33,1293.8 1056,1286.5C 1032.01,1155.6 1026.67,1023.93 1040,891.5C 1047.53,805.04 1066.87,721.373 1098,640.5C 1116.62,592.887 1141.62,549.221 1173,509.5C 1204.68,469.502 1244.84,441.668 1293.5,426C 1307.78,421.215 1322.44,419.049 1337.5,419.5C 1363.07,419.147 1388.07,422.647 1412.5,430C 1453.44,446.562 1488.61,471.396 1518,504.5C 1553.57,546.144 1581.9,592.477 1603,643.5C 1643.31,744.347 1667.31,849.014 1675,957.5C 1675.35,959.18 1676.35,960.18 1678,960.5C 1696.56,950.467 1715.06,940.301 1733.5,930C 1943.62,823.842 2153.62,824.176 2363.5,931C 2381.27,940.967 2399.1,950.801 2417,960.5C 2418.88,959.907 2419.88,958.573 2420,956.5C 2423.17,917.608 2428.17,878.941 2435,840.5C 2447.04,771.999 2466.37,705.666 2493,641.5C 2515.73,586.991 2546.73,537.991 2586,494.5C 2615.9,463.293 2651.4,440.793 2692.5,427C 2762.8,409.008 2825.8,423.008 2881.5,469C 2918.65,501.484 2948.49,539.65 2971,583.5C 3000.82,642.637 3022.49,704.637 3036,769.5C 3070.66,943.681 3071.33,1118.01 3038,1292.5C 3037.33,1298.17 3037.33,1303.83 3038,1309.5C 3056.13,1323.96 3073.96,1338.79 3091.5,1354C 3123.18,1383.34 3152.35,1414.84 3179,1448.5C 3293.75,1599.45 3347.09,1770.12 3339,1960.5C 3334.16,2065.1 3306.49,2163.1 3256,2254.5C 3242.54,2276.6 3228.7,2298.44 3214.5,2320C 3232.58,2352.23 3248.74,2385.4 3263,2419.5C 3293.86,2502.44 3312.19,2588.11 3318,2676.5C 3329.15,2805.57 3315.81,2931.9 3278,3055.5C 3260.04,3113.09 3233.37,3166.09 3198,3214.5C 3198.2,3221.44 3199.86,3228.11 3203,3234.5C 3208.27,3245.38 3213.27,3256.38 3218,3267.5C 3270.4,3398.11 3294.9,3533.77 3291.5,3674.5 Z"/></g>
<g><path style="opacity:1" fill="#fefefe" d="M 1343.5,613.5 C 1345.86,613.337 1348.19,613.503 1350.5,614C 1363.25,622.08 1374.08,632.247 1383,644.5C 1406.08,678.657 1424.41,715.323 1438,754.5C 1469.67,849.867 1486.01,947.867 1487,1048.5C 1487.67,1077.83 1487.67,1107.17 1487,1136.5C 1475.83,1153 1464.67,1169.5 1453.5,1186C 1407.83,1184.32 1362.5,1187.32 1317.5,1195C 1293.64,1199.88 1269.98,1205.55 1246.5,1212C 1244.5,1212.67 1242.5,1212.67 1240.5,1212C 1237.69,1200.67 1235.52,1189.17 1234,1177.5C 1220.98,1067.87 1222.98,958.541 1240,849.5C 1250.18,786.973 1269.18,727.306 1297,670.5C 1306.8,651.693 1319.3,634.86 1334.5,620C 1337.57,617.812 1340.57,615.645 1343.5,613.5 Z"/></g>
<g><path style="opacity:1" fill="#fefefe" d="M 2743.5,613.5 C 2746.98,613.184 2750.31,613.684 2753.5,615C 2767.13,624.964 2778.3,637.13 2787,651.5C 2807.31,685.784 2822.97,722.118 2834,760.5C 2858.32,848.257 2870.16,937.757 2869.5,1029C 2869.08,1081 2865.91,1132.83 2860,1184.5C 2858.99,1193.9 2857.16,1203.06 2854.5,1212C 2852.5,1212.67 2850.5,1212.67 2848.5,1212C 2813.95,1202.49 2778.95,1195.16 2743.5,1190C 2709.57,1187.05 2675.57,1185.71 2641.5,1186C 2630.33,1169.5 2619.17,1153 2608,1136.5C 2606.33,1076.74 2607.99,1017.07 2613,957.5C 2620.37,882.341 2637.04,809.341 2663,738.5C 2676.24,703.018 2693.9,670.018 2716,639.5C 2724.1,629.559 2733.27,620.893 2743.5,613.5 Z"/></g>
<g><path style="opacity:1" fill="#fefefe" d="M 3063.5,3826.5 C 2768.17,3994.26 2450.5,4083.93 2110.5,4095.5C 2068.5,4095.5 2026.5,4095.5 1984.5,4095.5C 1663.69,4084.63 1361.69,4003.8 1078.5,3853C 1062.94,3844.39 1047.61,3835.56 1032.5,3826.5C 1027.2,3817.56 1022.7,3808.23 1019,3798.5C 1008.44,3768.36 1001.44,3737.36 998,3705.5C 989.794,3590.94 1005.13,3479.61 1044,3371.5C 1063.33,3322.51 1085.66,3274.84 1111,3228.5C 1111.67,3211.83 1111.67,3195.17 1111,3178.5C 1108.07,3167.37 1103.4,3157.04 1097,3147.5C 1083.68,3131.52 1069.68,3116.18 1055,3101.5C 1047.17,3091.18 1039.84,3080.51 1033,3069.5C 1017.9,3041.54 1005.9,3012.21 997,2981.5C 965.46,2869.12 958.127,2755.12 975,2639.5C 982.42,2585.15 996.087,2532.48 1016,2481.5C 1031.3,2443.25 1052.63,2408.91 1080,2378.5C 1085.11,2371.29 1089.44,2363.62 1093,2355.5C 1107.43,2317.89 1102.43,2283.23 1078,2251.5C 1021.65,2194.03 983.321,2126.03 963,2047.5C 927.071,1880.82 957.404,1727.48 1054,1587.5C 1109.68,1508.15 1181.85,1448.98 1270.5,1410C 1330.71,1384.49 1393.37,1374.82 1458.5,1381C 1475.89,1383.87 1493.39,1385.7 1511,1386.5C 1538.15,1386.57 1561.48,1377.23 1581,1358.5C 1593.77,1342.98 1603.43,1325.64 1610,1306.5C 1635.23,1258.58 1668.06,1216.42 1708.5,1180C 1763.56,1132.45 1825.56,1096.11 1894.5,1071C 1962.77,1046.03 2033.1,1038.03 2105.5,1047C 2123.33,1049.9 2140.99,1053.57 2158.5,1058C 2257.86,1085.74 2343.7,1135.91 2416,1208.5C 2434.1,1229.93 2451.43,1251.93 2468,1274.5C 2478.81,1293.57 2488.47,1313.24 2497,1333.5C 2515.31,1367.92 2544.15,1385.92 2583.5,1387.5C 2603.56,1385.55 2623.56,1383.05 2643.5,1380C 2665.16,1378.03 2686.83,1378.03 2708.5,1380C 2789.72,1390.13 2862.72,1419.8 2927.5,1469C 3024.14,1545.72 3089.97,1643.55 3125,1762.5C 3156.52,1871.03 3154.85,1979.03 3120,2086.5C 3099.09,2147.01 3066.42,2200.01 3022,2245.5C 2986.72,2288.07 2984.39,2332.41 3015,2378.5C 3023.38,2387.88 3031.38,2397.54 3039,2407.5C 3061.97,2441.45 3079.64,2478.12 3092,2517.5C 3124.67,2623.58 3135.67,2731.91 3125,2842.5C 3118.62,2909.82 3102.95,2974.82 3078,3037.5C 3068.37,3060.78 3055.7,3082.12 3040,3101.5C 3025.32,3116.18 3011.32,3131.52 2998,3147.5C 2991.43,3156.97 2986.77,3167.3 2984,3178.5C 2983.33,3195.17 2983.33,3211.83 2984,3228.5C 2998.26,3256.01 3012.26,3283.68 3026,3311.5C 3078.26,3426.82 3102.6,3547.82 3099,3674.5C 3098.17,3727.82 3086.34,3778.48 3063.5,3826.5 Z"/></g>
<g><path style="opacity:1" fill="#000000" d="M 2012.5,1851.5 C 2112.37,1846.89 2208.04,1864.39 2299.5,1904C 2385.62,1942.45 2455.79,2000.28 2510,2077.5C 2542.75,2125.73 2563.75,2178.73 2573,2236.5C 2586.91,2380.14 2536.41,2494.97 2421.5,2581C 2340.82,2637.34 2251.15,2668.01 2152.5,2673C 2079.17,2674.97 2005.83,2674.97 1932.5,2673C 1826.08,2665.77 1731.75,2628.77 1649.5,2562C 1545.11,2470.64 1503.61,2356.14 1525,2218.5C 1543.42,2138.98 1581.08,2070.31 1638,2012.5C 1724.73,1929.05 1827.89,1877.89 1947.5,1859C 1969.31,1856.53 1990.98,1854.03 2012.5,1851.5 Z"/></g>
<g><path style="opacity:1" fill="#000000" d="M 1379.5,1875.5 C 1434.55,1872.44 1476.05,1894.44 1504,1941.5C 1507.73,1949.96 1511.73,1958.29 1516,1966.5C 1522.92,2031.46 1501.09,2084.29 1450.5,2125C 1425.26,2142.77 1397.26,2149.44 1366.5,2145C 1313.36,2136.83 1277.86,2107.33 1260,2056.5C 1249.49,1997.03 1266.32,1946.86 1310.5,1906C 1330.89,1889.8 1353.89,1879.64 1379.5,1875.5 Z"/></g>
<g><path style="opacity:1" fill="#000000" d="M 2687.5,1875.5 C 2742.89,1873.11 2785.39,1895.11 2815,1941.5C 2832.9,1972.49 2840.57,2005.82 2838,2041.5C 2828.41,2090.75 2799.91,2123.59 2752.5,2140C 2699.54,2155.81 2655.04,2142.98 2619,2101.5C 2597.87,2076.91 2584.54,2048.58 2579,2016.5C 2578.33,1999.83 2578.33,1983.17 2579,1966.5C 2593.13,1927.71 2618.96,1899.87 2656.5,1883C 2666.74,1879.52 2677.07,1877.02 2687.5,1875.5 Z"/></g>
<g><path style="opacity:1" fill="#fefefe" d="M 2018.5,1983.5 C 2118.82,1978 2211.82,2001.16 2297.5,2053C 2340.25,2081.75 2376.41,2117.25 2406,2159.5C 2433.84,2203.86 2446.84,2252.19 2445,2304.5C 2439.12,2354.58 2419.45,2398.25 2386,2435.5C 2362.54,2461.31 2335.37,2482.15 2304.5,2498C 2251.11,2526.6 2194.11,2541.6 2133.5,2543C 2075.5,2543.67 2017.5,2543.67 1959.5,2543C 1884.97,2540.6 1816.97,2518.6 1755.5,2477C 1725.83,2455.33 1701,2429.16 1681,2398.5C 1637.86,2320.42 1639.19,2243.09 1685,2166.5C 1733.44,2091.82 1799.94,2039.99 1884.5,2011C 1927.96,1995.22 1972.62,1986.05 2018.5,1983.5 Z"/></g>
<g><path style="opacity:1" fill="#000000" d="M 1964.5,2160.5 C 1974.84,2160.33 1985.17,2160.5 1995.5,2161C 1999.17,2162 2002.83,2163 2006.5,2164C 2019.36,2170.6 2032.03,2177.43 2044.5,2184.5C 2051.61,2180.57 2058.61,2176.4 2065.5,2172C 2084.44,2160.58 2104.77,2157.25 2126.5,2162C 2154.24,2173.76 2165.74,2194.6 2161,2224.5C 2159.39,2229.33 2157.39,2234 2155,2238.5C 2141.4,2256.86 2124.57,2271.36 2104.5,2282C 2095.83,2289.2 2093,2298.36 2096,2309.5C 2097.52,2320.59 2099.52,2331.59 2102,2342.5C 2102.67,2352.17 2102.67,2361.83 2102,2371.5C 2097.45,2391.05 2085.28,2402.88 2065.5,2407C 2048.08,2407.98 2030.75,2407.31 2013.5,2405C 1996.6,2395.27 1986.6,2380.77 1983.5,2361.5C 1986.88,2342.54 1990.05,2323.54 1993,2304.5C 1994.81,2296.58 1992.98,2289.75 1987.5,2284C 1971.14,2274.9 1956.31,2263.73 1943,2250.5C 1918.23,2221.25 1920.06,2193.75 1948.5,2168C 1953.54,2164.64 1958.88,2162.14 1964.5,2160.5 Z"/></g>
</svg>
