<?xml version="1.0" encoding="UTF-8"?>
<svg version="1.1" xmlns="http://www.w3.org/2000/svg" width="512" height="512">
<path d="M0 0 C0.77839233 0.70552002 0.77839233 0.70552002 1.57250977 1.42529297 C20.51724698 18.95857955 35.3183542 42.25039645 45.25 65.9375 C45.75917969 67.13761719 46.26835937 68.33773437 46.79296875 69.57421875 C53.13904333 85.15591751 57.42335993 102.21306817 59.25 118.9375 C59.35957031 119.79472656 59.46914063 120.65195313 59.58203125 121.53515625 C65.30647708 174.58168758 49.01780615 227.1014046 15.875 268.5 C12.4098987 272.65198864 8.83161111 276.6927508 5.1875 280.6875 C4.48197998 281.46589233 4.48197998 281.46589233 3.76220703 282.26000977 C-13.77107955 301.20474698 -37.06289645 316.0058542 -60.75 325.9375 C-61.95011719 326.44667969 -63.15023438 326.95585937 -64.38671875 327.48046875 C-79.96841751 333.82654333 -97.02556817 338.11085993 -113.75 339.9375 C-114.60722656 340.04707031 -115.46445312 340.15664063 -116.34765625 340.26953125 C-169.39418758 345.99397708 -221.9139046 329.70530615 -263.3125 296.5625 C-267.46448864 293.0973987 -271.5052508 289.51911111 -275.5 285.875 C-276.27839233 285.16947998 -276.27839233 285.16947998 -277.07250977 284.44970703 C-296.01724698 266.91642045 -310.8183542 243.62460355 -320.75 219.9375 C-321.25917969 218.73738281 -321.76835937 217.53726562 -322.29296875 216.30078125 C-328.63904333 200.71908249 -332.92335993 183.66193183 -334.75 166.9375 C-334.85957031 166.08027344 -334.96914063 165.22304688 -335.08203125 164.33984375 C-340.80647708 111.29331242 -324.51780615 58.7735954 -291.375 17.375 C-287.9098987 13.22301136 -284.33161111 9.1822492 -280.6875 5.1875 C-280.21715332 4.66857178 -279.74680664 4.14964355 -279.26220703 3.61499023 C-261.72892045 -15.32974698 -238.43710355 -30.1308542 -214.75 -40.0625 C-213.54988281 -40.57167969 -212.34976563 -41.08085938 -211.11328125 -41.60546875 C-195.53158249 -47.95154333 -178.47443183 -52.23585993 -161.75 -54.0625 C-160.89277344 -54.17207031 -160.03554687 -54.28164063 -159.15234375 -54.39453125 C-99.82500101 -60.79676248 -43.54726444 -39.72491441 0 0 Z " fill="#A289F9" transform="translate(393.75,113.0625)"/>
<path d="M0 0 C2.63622485 2.22708275 5.19150738 4.52921782 7.7409668 6.85546875 C8.46670898 7.49871094 9.19245117 8.14195312 9.94018555 8.8046875 C28.36748008 26.03588989 41.75155651 53.35960955 42.86425781 78.65869141 C43.70797362 112.3608808 36.58885956 142.14006064 13.7409668 167.85546875 C12.54020508 169.20705078 12.54020508 169.20705078 11.31518555 170.5859375 C-8.53153214 191.53705519 -37.09680019 204.15705607 -65.8137207 205.140625 C-77.94100422 205.37709014 -89.5422865 205.25443065 -101.2590332 201.85546875 C-103.0224707 201.37980469 -103.0224707 201.37980469 -104.8215332 200.89453125 C-121.40302939 195.94116057 -136.3527812 187.31831389 -149.2590332 175.85546875 C-150.14848633 175.0665625 -151.03793945 174.27765625 -151.9543457 173.46484375 C-167.40909083 158.83370573 -177.61511815 140.25052542 -183.2590332 119.85546875 C-183.5787207 118.70820313 -183.8984082 117.5609375 -184.2277832 116.37890625 C-188.26683057 98.91376625 -188.98196274 77.02425735 -183.2590332 59.85546875 C-182.5990332 58.86546875 -181.9390332 57.87546875 -181.2590332 56.85546875 C-180.93032227 57.46132812 -180.60161133 58.0671875 -180.26293945 58.69140625 C-172.21889547 72.86113142 -160.79177658 83.491992 -144.8840332 88.23046875 C-127.13242009 91.2910917 -110.45150547 88.72225434 -95.2590332 78.85546875 C-83.60677615 70.49132656 -75.75104634 56.9235307 -73.2590332 42.85546875 C-71.45757952 24.03946126 -74.73970981 8.78864654 -86.8762207 -6.1328125 C-90.96217608 -10.5413433 -95.77705169 -13.57401274 -100.90356445 -16.6640625 C-103.2590332 -18.14453125 -103.2590332 -18.14453125 -105.2590332 -20.14453125 C-103.57312478 -20.62926803 -101.88520775 -21.10702051 -100.1965332 -21.58203125 C-98.78694336 -21.98228516 -98.78694336 -21.98228516 -97.34887695 -22.390625 C-64.24168178 -30.4686132 -26.24452842 -21.45755623 0 0 Z " fill="#131928" transform="translate(344.259033203125,182.14453125)"/>
<path d="M0 0 C27.51668329 -1.54459553 56.68622642 12.36261605 76.97143555 30.24731445 C100.05828616 51.22761351 116.14269665 79.83089922 118.22119141 111.35473633 C119.4842267 149.41509562 109.54536352 181.25369492 83.42504883 209.56640625 C61.20694161 232.76768274 30.18258643 245.68447023 -1.72436523 246.47045898 C-37.47694444 246.75019142 -67.91707948 234.63666274 -93.52539062 209.50195312 C-112.03605933 190.64804024 -127.24579555 162.86302866 -128.09765625 135.91015625 C-128.08605469 134.97042969 -128.07445312 134.03070313 -128.0625 133.0625 C-128.05347656 132.10472656 -128.04445312 131.14695312 -128.03515625 130.16015625 C-128.01775391 129.09087891 -128.01775391 129.09087891 -128 128 C-127.67 128 -127.34 128 -127 128 C-126.79246094 129.23492187 -126.58492187 130.46984375 -126.37109375 131.7421875 C-122.03641631 156.12747696 -112.65378734 175.70645513 -96 194 C-95.43023437 194.65226563 -94.86046875 195.30453125 -94.2734375 195.9765625 C-77.53338041 214.09016274 -49.82674725 227.04001852 -25.19677734 228.12329102 C8.55585455 228.96826963 38.21751895 221.8135893 64 199 C64.82757813 198.27296875 65.65515625 197.5459375 66.5078125 196.796875 C87.15165343 177.37583998 99.32367565 148.51732778 100.28515625 120.4453125 C100.52162139 108.31802898 100.3989619 96.7167467 97 85 C96.68289063 83.824375 96.36578125 82.64875 96.0390625 81.4375 C91.07002873 64.80357134 82.4108957 49.99996858 71 37 C70.28457031 36.18402344 69.56914062 35.36804688 68.83203125 34.52734375 C50.47303107 14.99722536 25.98974766 5.20070823 0 1 C0 0.67 0 0.34 0 0 Z " fill="#6865CD" transform="translate(286,158)"/>
</svg>
