<?xml version="1.0" encoding="UTF-8"?>
<!DOCTYPE svg PUBLIC "-//W3C//DTD SVG 1.1//EN" "http://www.w3.org/Graphics/SVG/1.1/DTD/svg11.dtd">
<svg xmlns="http://www.w3.org/2000/svg" version="1.1" width="2048px" height="2048px" style="shape-rendering:geometricPrecision; text-rendering:geometricPrecision; image-rendering:optimizeQuality; fill-rule:evenodd; clip-rule:evenodd" xmlns:xlink="http://www.w3.org/1999/xlink">
<g><path style="opacity:0.99" fill="#eae9e9" d="M 966.5,-0.5 C 1004.5,-0.5 1042.5,-0.5 1080.5,-0.5C 1328.28,16.9653 1542.95,108.799 1724.5,275C 1732.06,282.389 1739.39,289.889 1746.5,297.5C 1704.53,298.828 1662.53,298.828 1620.5,297.5C 1516.97,213.561 1400.63,153.561 1271.5,117.5C 1269.49,116.076 1267.15,115.41 1264.5,115.5C 1260.12,114.707 1255.79,113.707 1251.5,112.5C 1249.49,111.076 1247.15,110.41 1244.5,110.5C 1199.67,100.185 1154.34,92.8514 1108.5,88.5C 1101.07,86.8028 1093.4,86.1362 1085.5,86.5C 875.885,74.2318 683.218,124.732 507.5,238C 480.162,256.175 453.829,275.675 428.5,296.5C 386.52,295.528 344.52,295.194 302.5,295.5C 439.443,160.494 602.109,70.3269 790.5,25C 848.691,12.3378 907.358,3.83784 966.5,-0.5 Z"/></g>
<g><path style="opacity:1" fill="#1d2d44" d="M 1085.5,86.5 C 1092.98,87.6664 1100.64,88.333 1108.5,88.5C 1154.34,92.8514 1199.67,100.185 1244.5,110.5C 1246.51,111.924 1248.85,112.59 1251.5,112.5C 1255.79,113.707 1260.12,114.707 1264.5,115.5C 1266.51,116.924 1268.85,117.59 1271.5,117.5C 1400.63,153.561 1516.97,213.561 1620.5,297.5C 1647.78,321.105 1674.28,345.772 1700,371.5C 1718.07,391.397 1735.9,411.397 1753.5,431.5C 1827.53,523.211 1882.53,625.544 1918.5,738.5C 1918.41,741.152 1919.08,743.485 1920.5,745.5C 1932.65,783.45 1941.99,822.117 1948.5,861.5C 1948.41,864.152 1949.08,866.485 1950.5,868.5C 1951.83,878.501 1953.17,888.501 1954.5,898.5C 1954.53,904.051 1955.19,909.384 1956.5,914.5C 1957.5,921.782 1958.16,929.116 1958.5,936.5C 1958.44,941.731 1959.11,946.731 1960.5,951.5C 1960.95,964.179 1961.61,976.846 1962.5,989.5C 1963.99,1049.84 1960.32,1109.84 1951.5,1169.5C 1949.95,1173.57 1949.28,1177.9 1949.5,1182.5C 1945.22,1204.55 1940.56,1226.55 1935.5,1248.5C 1933.96,1250.84 1933.29,1253.5 1933.5,1256.5C 1914.13,1329.29 1887.13,1398.95 1852.5,1465.5C 1740.56,1668.95 1576.89,1813.78 1361.5,1900C 1331.78,1910.69 1301.78,1920.52 1271.5,1929.5C 1218.44,1944.04 1164.44,1953.71 1109.5,1958.5C 1101.65,1958.75 1093.98,1959.42 1086.5,1960.5C 1053.86,1962.23 1021.2,1962.9 988.5,1962.5C 978.342,1961.47 968.009,1960.81 957.5,1960.5C 895.084,1956.43 833.751,1946.1 773.5,1929.5C 544.445,1862.91 364.278,1730.24 233,1531.5C 207.903,1491.63 185.736,1450.3 166.5,1407.5C 134.452,1335.35 111.452,1260.35 97.5,1182.5C 97.7204,1177.9 97.0538,1173.57 95.5,1169.5C 92.761,1151.92 90.761,1134.25 89.5,1116.5C 89.473,1110.95 88.8063,1105.62 87.5,1100.5C 84.879,1061.88 83.879,1023.22 84.5,984.5C 86.0563,963.158 87.7229,941.825 89.5,920.5C 90.7768,913.335 91.7768,906.001 92.5,898.5C 92.5,897.833 92.5,897.167 92.5,896.5C 94.1492,887.229 95.4825,877.896 96.5,868.5C 97.9238,866.485 98.5905,864.152 98.5,861.5C 102,838.802 106.667,816.469 112.5,794.5C 113.924,792.485 114.59,790.152 114.5,787.5C 117.896,773.314 121.896,759.314 126.5,745.5C 127.924,743.485 128.59,741.152 128.5,738.5C 165.295,623.889 221.628,520.222 297.5,427.5C 336.86,379.473 380.527,335.806 428.5,296.5C 453.829,275.675 480.162,256.175 507.5,238C 683.218,124.732 875.885,74.2318 1085.5,86.5 Z"/></g>
<g><path style="opacity:1" fill="#9196a1" d="M 1085.5,86.5 C 1093.4,86.1362 1101.07,86.8028 1108.5,88.5C 1100.64,88.333 1092.98,87.6664 1085.5,86.5 Z"/></g>
<g><path style="opacity:1" fill="#8c939e" d="M 1244.5,110.5 C 1247.15,110.41 1249.49,111.076 1251.5,112.5C 1248.85,112.59 1246.51,111.924 1244.5,110.5 Z"/></g>
<g><path style="opacity:1" fill="#989da7" d="M 1264.5,115.5 C 1267.15,115.41 1269.49,116.076 1271.5,117.5C 1268.85,117.59 1266.51,116.924 1264.5,115.5 Z"/></g>
<g><path style="opacity:0.993" fill="#e8e6e6" d="M 302.5,295.5 C 344.52,295.194 386.52,295.528 428.5,296.5C 380.527,335.806 336.86,379.473 297.5,427.5C 261.427,427.174 225.427,427.507 189.5,428.5C 204.333,406.878 220.166,385.878 237,365.5C 257.761,340.914 279.595,317.58 302.5,295.5 Z"/></g>
<g><path style="opacity:0.994" fill="#e8e6e6" d="M 1620.5,297.5 C 1662.53,298.828 1704.53,298.828 1746.5,297.5C 1788.96,338.764 1826.96,383.764 1860.5,432.5C 1824.91,431.507 1789.24,431.174 1753.5,431.5C 1735.9,411.397 1718.07,391.397 1700,371.5C 1674.28,345.772 1647.78,321.105 1620.5,297.5 Z"/></g>
<g><path style="opacity:0.991" fill="#e4e3e3" d="M 297.5,427.5 C 221.628,520.222 165.295,623.889 128.5,738.5C 127.076,740.515 126.41,742.848 126.5,745.5C 121.896,759.314 117.896,773.314 114.5,787.5C 113.076,789.515 112.41,791.848 112.5,794.5C 106.667,816.469 102,838.802 98.5,861.5C 97.0762,863.515 96.4095,865.848 96.5,868.5C 95.4825,877.896 94.1492,887.229 92.5,896.5C 63.8333,897.833 35.1667,897.833 6.5,896.5C 26.6957,739.26 79.529,594.593 165,462.5C 173.03,450.985 181.196,439.652 189.5,428.5C 225.427,427.507 261.427,427.174 297.5,427.5 Z"/></g>
<g><path style="opacity:0.991" fill="#e4e3e3" d="M 1753.5,431.5 C 1789.24,431.174 1824.91,431.507 1860.5,432.5C 1907.84,498.82 1946.67,570.153 1977,646.5C 2009.15,728.657 2030.65,813.657 2041.5,901.5C 2012.83,901.5 1984.17,901.5 1955.5,901.5C 1955.74,900.209 1955.4,899.209 1954.5,898.5C 1953.17,888.501 1951.83,878.501 1950.5,868.5C 1950.59,865.848 1949.92,863.515 1948.5,861.5C 1941.99,822.117 1932.65,783.45 1920.5,745.5C 1920.59,742.848 1919.92,740.515 1918.5,738.5C 1882.53,625.544 1827.53,523.211 1753.5,431.5 Z"/></g>
<g><path style="opacity:1" fill="#f1f0f0" d="M 1172.5,686.5 C 1172.28,691.1 1172.95,695.433 1174.5,699.5C 1177.54,724.322 1176.54,748.988 1171.5,773.5C 1113.65,748.086 1053.32,739.419 990.5,747.5C 984.534,747.507 978.868,748.507 973.5,750.5C 900.134,765.253 838.8,800.586 789.5,856.5C 769.216,829.345 755.882,799.012 749.5,765.5C 749.706,762.505 749.04,759.838 747.5,757.5C 743.687,729.144 745.354,701.144 752.5,673.5C 753.924,671.485 754.59,669.152 754.5,666.5C 774.876,600.617 816.876,554.117 880.5,527C 888.339,523.876 896.339,521.376 904.5,519.5C 908.162,519.277 911.495,518.277 914.5,516.5C 996.165,502.222 1065.67,524.889 1123,584.5C 1148.56,613.956 1165.06,647.956 1172.5,686.5 Z"/></g>
<g><path style="opacity:1" fill="#9ba0aa" d="M 914.5,516.5 C 911.495,518.277 908.162,519.277 904.5,519.5C 907.505,517.723 910.838,516.723 914.5,516.5 Z"/></g>
<g><path style="opacity:1" fill="#eeeded" d="M 725.5,683.5 C 723.946,687.567 723.28,691.9 723.5,696.5C 723.5,696.833 723.5,697.167 723.5,697.5C 722.043,702.598 721.376,707.931 721.5,713.5C 721.5,724.167 721.5,734.833 721.5,745.5C 706.767,745.085 692.1,745.752 677.5,747.5C 671.522,747.42 665.855,748.42 660.5,750.5C 656.738,750.691 653.071,751.358 649.5,752.5C 646.848,752.41 644.515,753.076 642.5,754.5C 621.44,759.619 601.606,767.619 583,778.5C 578.68,770.86 575.18,762.86 572.5,754.5C 572.59,751.848 571.924,749.515 570.5,747.5C 561.946,696.97 578.612,657.137 620.5,628C 660.69,605.73 700.69,606.064 740.5,629C 741.022,629.561 741.355,630.228 741.5,631C 734.063,647.814 728.73,665.314 725.5,683.5 Z"/></g>
<g><path style="opacity:1" fill="#939aa4" d="M 754.5,666.5 C 754.59,669.152 753.924,671.485 752.5,673.5C 752.41,670.848 753.076,668.515 754.5,666.5 Z"/></g>
<g><path style="opacity:1" fill="#a3a8b1" d="M 1226.5,689.5 C 1216.77,688.861 1207.44,689.528 1198.5,691.5C 1197.6,690.791 1197.26,689.791 1197.5,688.5C 1207.35,688.173 1217.01,688.506 1226.5,689.5 Z"/></g>
<g><path style="opacity:1" fill="#a4a9b2" d="M 1172.5,686.5 C 1174.05,690.567 1174.72,694.9 1174.5,699.5C 1172.95,695.433 1172.28,691.1 1172.5,686.5 Z"/></g>
<g><path style="opacity:1" fill="#556071" d="M 725.5,683.5 C 725.72,688.1 725.054,692.433 723.5,696.5C 723.28,691.9 723.946,687.567 725.5,683.5 Z"/></g>
<g><path style="opacity:1" fill="#f5f3f3" d="M 1226.5,689.5 C 1301.66,697.2 1358.83,733.2 1398,797.5C 1411.1,820.544 1419.6,845.211 1423.5,871.5C 1423.67,876.181 1424,880.848 1424.5,885.5C 1406.2,886.371 1388.2,889.204 1370.5,894C 1353.86,899.894 1337.52,906.227 1321.5,913C 1290.53,858.361 1247.86,815.361 1193.5,784C 1200.82,753.501 1202.48,722.668 1198.5,691.5C 1207.44,689.528 1216.77,688.861 1226.5,689.5 Z"/></g>
<g><path style="opacity:1" fill="#757e8b" d="M 723.5,697.5 C 723.473,703.051 722.806,708.384 721.5,713.5C 721.376,707.931 722.043,702.598 723.5,697.5 Z"/></g>
<g><path style="opacity:1" fill="#626b7b" d="M 128.5,738.5 C 128.59,741.152 127.924,743.485 126.5,745.5C 126.41,742.848 127.076,740.515 128.5,738.5 Z"/></g>
<g><path style="opacity:1" fill="#646e7d" d="M 1918.5,738.5 C 1919.92,740.515 1920.59,742.848 1920.5,745.5C 1919.08,743.485 1918.41,741.152 1918.5,738.5 Z"/></g>
<g><path style="opacity:1" fill="#505b6d" d="M 677.5,747.5 C 672.156,749.633 666.489,750.633 660.5,750.5C 665.855,748.42 671.522,747.42 677.5,747.5 Z"/></g>
<g><path style="opacity:1" fill="#4c586a" d="M 990.5,747.5 C 985.105,749.325 979.438,750.325 973.5,750.5C 978.868,748.507 984.534,747.507 990.5,747.5 Z"/></g>
<g><path style="opacity:1" fill="#667080" d="M 570.5,747.5 C 571.924,749.515 572.59,751.848 572.5,754.5C 571.076,752.485 570.41,750.152 570.5,747.5 Z"/></g>
<g><path style="opacity:1" fill="#6c7684" d="M 649.5,752.5 C 647.485,753.924 645.152,754.59 642.5,754.5C 644.515,753.076 646.848,752.41 649.5,752.5 Z"/></g>
<g><path style="opacity:1" fill="#7e8793" d="M 747.5,757.5 C 749.04,759.838 749.706,762.505 749.5,765.5C 748.232,763.095 747.565,760.428 747.5,757.5 Z"/></g>
<g><path style="opacity:1" fill="#adb1b9" d="M 1049.5,769.5 C 1034.16,769.558 1018.83,769.891 1003.5,770.5C 1012.79,769.042 1022.29,768.376 1032,768.5C 1038.01,768.501 1043.84,768.834 1049.5,769.5 Z"/></g>
<g><path style="opacity:1" fill="#f1f0f0" d="M 1049.5,769.5 C 1065.85,769.876 1081.85,771.876 1097.5,775.5C 1095.57,775.231 1093.9,775.731 1092.5,777C 1092.96,780.784 1093.29,784.617 1093.5,788.5C 1093.17,788.833 1092.83,789.167 1092.5,789.5C 1090.24,786.906 1088.07,786.906 1086,789.5C 1085.5,787.667 1084.33,786.5 1082.5,786C 1083.17,785.667 1083.83,785.333 1084.5,785C 1083.33,784.5 1082.5,783.667 1082,782.5C 1081.67,783.167 1081.33,783.833 1081,784.5C 1080.5,782.667 1079.33,781.5 1077.5,781C 1079.99,780.374 1079.99,779.541 1077.5,778.5C 1079.99,777.459 1079.99,776.626 1077.5,776C 1078.17,775.667 1078.83,775.333 1079.5,775C 1078.33,774.5 1077.5,773.667 1077,772.5C 1076.67,773.167 1076.33,773.833 1076,774.5C 1075.29,773.027 1074.12,772.36 1072.5,772.5C 1072.36,774.124 1073.03,775.29 1074.5,776C 1072.97,777.791 1071.3,779.458 1069.5,781C 1072.17,782.667 1072.17,784.333 1069.5,786C 1072.17,787.667 1072.17,789.333 1069.5,791C 1072.17,792.667 1072.17,794.333 1069.5,796C 1072.17,797.667 1072.17,799.333 1069.5,801C 1072.17,802.667 1072.17,804.333 1069.5,806C 1072.17,807.667 1072.17,809.333 1069.5,811C 1072.17,812.667 1072.17,814.333 1069.5,816C 1072.17,817.667 1072.17,819.333 1069.5,821C 1072.17,822.667 1072.17,824.333 1069.5,826C 1072.17,827.667 1072.17,829.333 1069.5,831C 1072.17,832.667 1072.17,834.333 1069.5,836C 1072.17,837.667 1072.17,839.333 1069.5,841C 1072.17,842.667 1072.17,844.333 1069.5,846C 1072.17,847.667 1072.17,849.333 1069.5,851C 1072.17,852.667 1072.17,854.333 1069.5,856C 1072.17,857.667 1072.17,859.333 1069.5,861C 1072.17,862.667 1072.17,864.333 1069.5,866C 1072.17,867.667 1072.17,869.333 1069.5,871C 1072.17,872.667 1072.17,874.333 1069.5,876C 1072.17,877.667 1072.17,879.333 1069.5,881C 1072.17,882.667 1072.17,884.333 1069.5,886C 1072.17,887.667 1072.17,889.333 1069.5,891C 1072.17,892.667 1072.17,894.333 1069.5,896C 1072.17,897.667 1072.17,899.333 1069.5,901C 1072.17,902.667 1072.17,904.333 1069.5,906C 1072.17,907.667 1072.17,909.333 1069.5,911C 1072.17,912.667 1072.17,914.333 1069.5,916C 1072.17,917.667 1072.17,919.333 1069.5,921C 1072.17,922.667 1072.17,924.333 1069.5,926C 1072.17,927.667 1072.17,929.333 1069.5,931C 1072.17,932.667 1072.17,934.333 1069.5,936C 1072.17,937.667 1072.17,939.333 1069.5,941C 1072.17,942.667 1072.17,944.333 1069.5,946C 1072.17,947.667 1072.17,949.333 1069.5,951C 1072.17,952.667 1072.17,954.333 1069.5,956C 1072.17,957.667 1072.17,959.333 1069.5,961C 1072.17,962.667 1072.17,964.333 1069.5,966C 1072.17,967.667 1072.17,969.333 1069.5,971C 1072.17,972.667 1072.17,974.333 1069.5,976C 1072.17,977.667 1072.17,979.333 1069.5,981C 1072.17,982.667 1072.17,984.333 1069.5,986C 1072.17,987.667 1072.17,989.333 1069.5,991C 1072.17,992.667 1072.17,994.333 1069.5,996C 1072.17,997.667 1072.17,999.333 1069.5,1001C 1072.17,1002.67 1072.17,1004.33 1069.5,1006C 1072.17,1007.67 1072.17,1009.33 1069.5,1011C 1072.17,1012.67 1072.17,1014.33 1069.5,1016C 1072.17,1017.67 1072.17,1019.33 1069.5,1021C 1072.17,1022.67 1072.17,1024.33 1069.5,1026C 1072.17,1027.67 1072.17,1029.33 1069.5,1031C 1072.17,1032.67 1072.17,1034.33 1069.5,1036C 1072.17,1037.67 1072.17,1039.33 1069.5,1041C 1072.17,1042.67 1072.17,1044.33 1069.5,1046C 1072.17,1047.67 1072.17,1049.33 1069.5,1051C 1072.17,1052.67 1072.17,1054.33 1069.5,1056C 1072.17,1057.67 1072.17,1059.33 1069.5,1061C 1072.17,1062.67 1072.17,1064.33 1069.5,1066C 1072.17,1067.67 1072.17,1069.33 1069.5,1071C 1072.17,1072.67 1072.17,1074.33 1069.5,1076C 1072.17,1077.67 1072.17,1079.33 1069.5,1081C 1072.17,1082.67 1072.17,1084.33 1069.5,1086C 1072.17,1087.67 1072.17,1089.33 1069.5,1091C 1072.17,1092.67 1072.17,1094.33 1069.5,1096C 1072.17,1097.67 1072.17,1099.33 1069.5,1101C 1072.17,1102.67 1072.17,1104.33 1069.5,1106C 1072.17,1107.67 1072.17,1109.33 1069.5,1111C 1072.17,1112.67 1072.17,1114.33 1069.5,1116C 1072.17,1117.67 1072.17,1119.33 1069.5,1121C 1072.17,1122.67 1072.17,1124.33 1069.5,1126C 1072.17,1127.67 1072.17,1129.33 1069.5,1131C 1072.17,1132.67 1072.17,1134.33 1069.5,1136C 1072.17,1137.67 1072.17,1139.33 1069.5,1141C 1072.17,1142.67 1072.17,1144.33 1069.5,1146C 1072.17,1147.67 1072.17,1149.33 1069.5,1151C 1072.17,1152.67 1072.17,1154.33 1069.5,1156C 1072.17,1157.67 1072.17,1159.33 1069.5,1161C 1072.17,1162.67 1072.17,1164.33 1069.5,1166C 1072.17,1167.67 1072.17,1169.33 1069.5,1171C 1072.17,1172.67 1072.17,1174.33 1069.5,1176C 1072.17,1177.67 1072.17,1179.33 1069.5,1181C 1072.17,1182.67 1072.17,1184.33 1069.5,1186C 1072.17,1187.67 1072.17,1189.33 1069.5,1191C 1072.17,1192.67 1072.17,1194.33 1069.5,1196C 1072.17,1197.67 1072.17,1199.33 1069.5,1201C 1072.17,1202.67 1072.17,1204.33 1069.5,1206C 1072.17,1207.67 1072.17,1209.33 1069.5,1211C 1072.17,1212.67 1072.17,1214.33 1069.5,1216C 1072.17,1217.67 1072.17,1219.33 1069.5,1221C 1072.17,1222.67 1072.17,1224.33 1069.5,1226C 1072.17,1227.67 1072.17,1229.33 1069.5,1231C 1072.17,1232.67 1072.17,1234.33 1069.5,1236C 1072.17,1237.67 1072.17,1239.33 1069.5,1241C 1072.17,1242.67 1072.17,1244.33 1069.5,1246C 1072.17,1247.67 1072.17,1249.33 1069.5,1251C 1072.17,1252.67 1072.17,1254.33 1069.5,1256C 1072.17,1257.67 1072.17,1259.33 1069.5,1261C 1072.17,1262.67 1072.17,1264.33 1069.5,1266C 1072.17,1267.67 1072.17,1269.33 1069.5,1271C 1072.17,1272.67 1072.17,1274.33 1069.5,1276C 1072.17,1277.67 1072.17,1279.33 1069.5,1281C 1072.17,1282.67 1072.17,1284.33 1069.5,1286C 1072.17,1287.67 1072.17,1289.33 1069.5,1291C 1072.17,1292.67 1072.17,1294.33 1069.5,1296C 1072.17,1297.67 1072.17,1299.33 1069.5,1301C 1072.17,1302.67 1072.17,1304.33 1069.5,1306C 1072.17,1307.67 1072.17,1309.33 1069.5,1311C 1072.17,1312.67 1072.17,1314.33 1069.5,1316C 1072.17,1317.67 1072.17,1319.33 1069.5,1321C 1072.17,1322.67 1072.17,1324.33 1069.5,1326C 1072.17,1327.67 1072.17,1329.33 1069.5,1331C 1072.17,1332.67 1072.17,1334.33 1069.5,1336C 1072.17,1337.67 1072.17,1339.33 1069.5,1341C 1072.17,1342.67 1072.17,1344.33 1069.5,1346C 1072.17,1347.67 1072.17,1349.33 1069.5,1351C 1072.17,1352.67 1072.17,1354.33 1069.5,1356C 1072.17,1357.67 1072.17,1359.33 1069.5,1361C 1071.45,1362.73 1072.45,1364.9 1072.5,1367.5C 1075.5,1367.5 1078.5,1367.5 1081.5,1367.5C 1080.79,1368.4 1079.79,1368.74 1078.5,1368.5C 1073.27,1368.44 1068.27,1369.11 1063.5,1370.5C 1046.16,1371.72 1028.82,1371.72 1011.5,1370.5C 1006.73,1369.11 1001.73,1368.44 996.5,1368.5C 996.167,1368.5 995.833,1368.5 995.5,1368.5C 991.433,1366.95 987.1,1366.28 982.5,1366.5C 978.443,1366.15 974.443,1365.49 970.5,1364.5C 968.485,1363.08 966.152,1362.41 963.5,1362.5C 891.287,1344.16 833.454,1304.82 790,1244.5C 747,1182.17 729.167,1113.17 736.5,1037.5C 738.116,1030.72 739.116,1023.72 739.5,1016.5C 755.856,933.03 798.856,867.197 868.5,819C 909.396,791.864 954.396,775.698 1003.5,770.5C 1018.83,769.891 1034.16,769.558 1049.5,769.5 Z"/></g>
<g><path style="opacity:1" fill="#eeeded" d="M 715.5,1012.5 C 713.946,1016.57 713.28,1020.9 713.5,1025.5C 709.987,1052.45 709.654,1079.45 712.5,1106.5C 712.5,1108.83 712.5,1111.17 712.5,1113.5C 708.167,1113.5 703.833,1113.5 699.5,1113.5C 693.833,1113.5 688.167,1113.5 682.5,1113.5C 677.586,1113.36 672.919,1114.03 668.5,1115.5C 641.973,1120.43 618.64,1131.76 598.5,1149.5C 596.549,1149.77 595.049,1149.11 594,1147.5C 593.772,1150.32 592.605,1152.66 590.5,1154.5C 589.636,1152.8 588.303,1151.64 586.5,1151C 588.991,1150.37 588.991,1149.54 586.5,1148.5C 588.991,1147.46 588.991,1146.63 586.5,1146C 588.991,1145.37 588.991,1144.54 586.5,1143.5C 588.991,1142.46 588.991,1141.63 586.5,1141C 588.991,1140.37 588.991,1139.54 586.5,1138.5C 588.991,1137.46 588.991,1136.63 586.5,1136C 588.991,1135.37 588.991,1134.54 586.5,1133.5C 588.991,1132.46 588.991,1131.63 586.5,1131C 588.991,1130.37 588.991,1129.54 586.5,1128.5C 588.991,1127.46 588.991,1126.63 586.5,1126C 588.991,1125.37 588.991,1124.54 586.5,1123.5C 588.991,1122.46 588.991,1121.63 586.5,1121C 588.991,1120.37 588.991,1119.54 586.5,1118.5C 588.991,1117.46 588.991,1116.63 586.5,1116C 588.991,1115.37 588.991,1114.54 586.5,1113.5C 588.991,1112.46 588.991,1111.63 586.5,1111C 588.991,1110.37 588.991,1109.54 586.5,1108.5C 588.991,1107.46 588.991,1106.63 586.5,1106C 588.991,1105.37 588.991,1104.54 586.5,1103.5C 588.991,1102.46 588.991,1101.63 586.5,1101C 588.991,1100.37 588.991,1099.54 586.5,1098.5C 588.991,1097.46 588.991,1096.63 586.5,1096C 588.991,1095.37 588.991,1094.54 586.5,1093.5C 588.991,1092.46 588.991,1091.63 586.5,1091C 588.991,1090.37 588.991,1089.54 586.5,1088.5C 588.991,1087.46 588.991,1086.63 586.5,1086C 588.991,1085.37 588.991,1084.54 586.5,1083.5C 588.991,1082.46 588.991,1081.63 586.5,1081C 588.991,1080.37 588.991,1079.54 586.5,1078.5C 588.991,1077.46 588.991,1076.63 586.5,1076C 588.991,1075.37 588.991,1074.54 586.5,1073.5C 588.991,1072.46 588.991,1071.63 586.5,1071C 588.991,1070.37 588.991,1069.54 586.5,1068.5C 588.991,1067.46 588.991,1066.63 586.5,1066C 588.991,1065.37 588.991,1064.54 586.5,1063.5C 588.991,1062.46 588.991,1061.63 586.5,1061C 588.991,1060.37 588.991,1059.54 586.5,1058.5C 588.991,1057.46 588.991,1056.63 586.5,1056C 588.991,1055.37 588.991,1054.54 586.5,1053.5C 588.991,1052.46 588.991,1051.63 586.5,1051C 588.991,1050.37 588.991,1049.54 586.5,1048.5C 588.991,1047.46 588.991,1046.63 586.5,1046C 588.991,1045.37 588.991,1044.54 586.5,1043.5C 588.991,1042.46 588.991,1041.63 586.5,1041C 588.991,1040.37 588.991,1039.54 586.5,1038.5C 588.991,1037.46 588.991,1036.63 586.5,1036C 588.991,1035.37 588.991,1034.54 586.5,1033.5C 588.991,1032.46 588.991,1031.63 586.5,1031C 588.991,1030.37 588.991,1029.54 586.5,1028.5C 588.991,1027.46 588.991,1026.63 586.5,1026C 588.991,1025.37 588.991,1024.54 586.5,1023.5C 588.991,1022.46 588.991,1021.63 586.5,1021C 588.991,1020.37 588.991,1019.54 586.5,1018.5C 588.991,1017.46 588.991,1016.63 586.5,1016C 588.991,1015.37 588.991,1014.54 586.5,1013.5C 588.991,1012.46 588.991,1011.63 586.5,1011C 588.991,1010.37 588.991,1009.54 586.5,1008.5C 588.991,1007.46 588.991,1006.63 586.5,1006C 588.991,1005.37 588.991,1004.54 586.5,1003.5C 588.991,1002.46 588.991,1001.63 586.5,1001C 588.991,1000.37 588.991,999.541 586.5,998.5C 588.991,997.459 588.991,996.626 586.5,996C 588.991,995.374 588.991,994.541 586.5,993.5C 588.991,992.459 588.991,991.626 586.5,991C 588.991,990.374 588.991,989.541 586.5,988.5C 588.991,987.459 588.991,986.626 586.5,986C 588.991,985.374 588.991,984.541 586.5,983.5C 588.991,982.459 588.991,981.626 586.5,981C 588.991,980.374 588.991,979.541 586.5,978.5C 588.991,977.459 588.991,976.626 586.5,976C 588.991,975.374 588.991,974.541 586.5,973.5C 588.991,972.459 588.991,971.626 586.5,971C 588.991,970.374 588.991,969.541 586.5,968.5C 588.991,967.459 588.991,966.626 586.5,966C 588.991,965.374 588.991,964.541 586.5,963.5C 588.991,962.459 588.991,961.626 586.5,961C 588.991,960.374 588.991,959.541 586.5,958.5C 588.991,957.459 588.991,956.626 586.5,956C 588.991,955.374 588.991,954.541 586.5,953.5C 588.991,952.459 588.991,951.626 586.5,951C 588.991,950.374 588.991,949.541 586.5,948.5C 588.991,947.459 588.991,946.626 586.5,946C 588.991,945.374 588.991,944.541 586.5,943.5C 588.991,942.459 588.991,941.626 586.5,941C 588.991,940.374 588.991,939.541 586.5,938.5C 588.991,937.459 588.991,936.626 586.5,936C 588.991,935.374 588.991,934.541 586.5,933.5C 588.991,932.459 588.991,931.626 586.5,931C 588.991,930.374 588.991,929.541 586.5,928.5C 588.991,927.459 588.991,926.626 586.5,926C 588.991,925.374 588.991,924.541 586.5,923.5C 588.991,922.459 588.991,921.626 586.5,921C 588.991,920.374 588.991,919.541 586.5,918.5C 588.991,917.459 588.991,916.626 586.5,916C 588.991,915.374 588.991,914.541 586.5,913.5C 588.991,912.459 588.991,911.626 586.5,911C 588.991,910.374 588.991,909.541 586.5,908.5C 588.991,907.459 588.991,906.626 586.5,906C 588.991,905.374 588.991,904.541 586.5,903.5C 588.991,902.459 588.991,901.626 586.5,901C 588.991,900.374 588.991,899.541 586.5,898.5C 588.991,897.459 588.991,896.626 586.5,896C 588.991,895.374 588.991,894.541 586.5,893.5C 588.991,892.459 588.991,891.626 586.5,891C 588.991,890.374 588.991,889.541 586.5,888.5C 588.991,887.459 588.991,886.626 586.5,886C 588.991,885.374 588.991,884.541 586.5,883.5C 588.991,882.459 588.991,881.626 586.5,881C 588.991,880.374 588.991,879.541 586.5,878.5C 588.991,877.459 588.991,876.626 586.5,876C 588.991,875.374 588.991,874.541 586.5,873.5C 588.991,872.459 588.991,871.626 586.5,871C 588.991,870.374 588.991,869.541 586.5,868.5C 588.991,867.459 588.991,866.626 586.5,866C 588.991,865.374 588.991,864.541 586.5,863.5C 588.991,862.459 588.991,861.626 586.5,861C 588.991,860.374 588.991,859.541 586.5,858.5C 588.991,857.459 588.991,856.626 586.5,856C 588.991,855.374 588.991,854.541 586.5,853.5C 588.991,852.459 588.991,851.626 586.5,851C 588.991,850.374 588.991,849.541 586.5,848.5C 588.991,847.459 588.991,846.626 586.5,846C 588.991,845.374 588.991,844.541 586.5,843.5C 588.991,842.459 588.991,841.626 586.5,841C 588.991,840.374 588.991,839.541 586.5,838.5C 588.991,837.459 588.991,836.626 586.5,836C 588.991,835.374 588.991,834.541 586.5,833.5C 588.991,832.459 588.991,831.626 586.5,831C 588.991,830.374 588.991,829.541 586.5,828.5C 588.991,827.459 588.991,826.626 586.5,826C 588.991,825.374 588.991,824.541 586.5,823.5C 587.833,822.167 589.167,822.167 590.5,823.5C 591.09,824.799 592.09,825.632 593.5,826C 592.833,826.333 592.167,826.667 591.5,827C 592.938,827.219 594.271,827.719 595.5,828.5C 596.09,829.799 597.09,830.632 598.5,831C 597.833,831.333 597.167,831.667 596.5,832C 598.402,832.199 599.902,833.033 601,834.5C 601.5,833.333 602.333,832.5 603.5,832C 600.833,831.333 600.833,830.667 603.5,830C 602.333,829.5 601.5,828.667 601,827.5C 600.667,828.167 600.333,828.833 600,829.5C 599.5,827.667 598.333,826.5 596.5,826C 598.991,825.374 598.991,824.541 596.5,823.5C 598.347,822.17 599.847,822.503 601,824.5C 601.5,823.333 602.333,822.5 603.5,822C 600.833,821.333 600.833,820.667 603.5,820C 602.333,819.5 601.5,818.667 601,817.5C 600.667,818.167 600.333,818.833 600,819.5C 599.5,817.667 598.333,816.5 596.5,816C 598.991,815.374 598.991,814.541 596.5,813.5C 598.347,812.17 599.847,812.503 601,814.5C 601.5,813.333 602.333,812.5 603.5,812C 600.833,811.333 600.833,810.667 603.5,810C 602.333,809.5 601.5,808.667 601,807.5C 600.667,808.167 600.333,808.833 600,809.5C 599.5,807.667 598.333,806.5 596.5,806C 598.991,805.374 598.991,804.541 596.5,803.5C 598.347,802.17 599.847,802.503 601,804.5C 601.5,803.333 602.333,802.5 603.5,802C 600.833,801.333 600.833,800.667 603.5,800C 602.692,799.692 602.025,799.192 601.5,798.5C 602.612,797.735 603.279,796.735 603.5,795.5C 621.957,785.394 641.624,778.394 662.5,774.5C 667.1,774.72 671.433,774.054 675.5,772.5C 692.143,769.193 708.809,768.859 725.5,771.5C 733.83,810.315 749.83,845.482 773.5,877C 743.673,917.507 724.34,962.674 715.5,1012.5 Z"/></g>
<g><path style="opacity:1" fill="#aaaeb6" d="M 675.5,772.5 C 671.433,774.054 667.1,774.72 662.5,774.5C 666.567,772.946 670.9,772.28 675.5,772.5 Z"/></g>
<g><path style="opacity:1" fill="#f4f2f2" d="M 1097.5,775.5 C 1171.78,791.377 1231.95,829.377 1278,889.5C 1305.73,927.294 1323.89,969.294 1332.5,1015.5C 1332.37,1021.49 1333.37,1027.16 1335.5,1032.5C 1345.57,1137.75 1311.9,1225.91 1234.5,1297C 1190.27,1335.03 1139.27,1358.53 1081.5,1367.5C 1078.5,1367.5 1075.5,1367.5 1072.5,1367.5C 1072.45,1364.9 1071.45,1362.73 1069.5,1361C 1072.17,1359.33 1072.17,1357.67 1069.5,1356C 1072.17,1354.33 1072.17,1352.67 1069.5,1351C 1072.17,1349.33 1072.17,1347.67 1069.5,1346C 1072.17,1344.33 1072.17,1342.67 1069.5,1341C 1072.17,1339.33 1072.17,1337.67 1069.5,1336C 1072.17,1334.33 1072.17,1332.67 1069.5,1331C 1072.17,1329.33 1072.17,1327.67 1069.5,1326C 1072.17,1324.33 1072.17,1322.67 1069.5,1321C 1072.17,1319.33 1072.17,1317.67 1069.5,1316C 1072.17,1314.33 1072.17,1312.67 1069.5,1311C 1072.17,1309.33 1072.17,1307.67 1069.5,1306C 1072.17,1304.33 1072.17,1302.67 1069.5,1301C 1072.17,1299.33 1072.17,1297.67 1069.5,1296C 1072.17,1294.33 1072.17,1292.67 1069.5,1291C 1072.17,1289.33 1072.17,1287.67 1069.5,1286C 1072.17,1284.33 1072.17,1282.67 1069.5,1281C 1072.17,1279.33 1072.17,1277.67 1069.5,1276C 1072.17,1274.33 1072.17,1272.67 1069.5,1271C 1072.17,1269.33 1072.17,1267.67 1069.5,1266C 1072.17,1264.33 1072.17,1262.67 1069.5,1261C 1072.17,1259.33 1072.17,1257.67 1069.5,1256C 1072.17,1254.33 1072.17,1252.67 1069.5,1251C 1072.17,1249.33 1072.17,1247.67 1069.5,1246C 1072.17,1244.33 1072.17,1242.67 1069.5,1241C 1072.17,1239.33 1072.17,1237.67 1069.5,1236C 1072.17,1234.33 1072.17,1232.67 1069.5,1231C 1072.17,1229.33 1072.17,1227.67 1069.5,1226C 1072.17,1224.33 1072.17,1222.67 1069.5,1221C 1072.17,1219.33 1072.17,1217.67 1069.5,1216C 1072.17,1214.33 1072.17,1212.67 1069.5,1211C 1072.17,1209.33 1072.17,1207.67 1069.5,1206C 1072.17,1204.33 1072.17,1202.67 1069.5,1201C 1072.17,1199.33 1072.17,1197.67 1069.5,1196C 1072.17,1194.33 1072.17,1192.67 1069.5,1191C 1072.17,1189.33 1072.17,1187.67 1069.5,1186C 1072.17,1184.33 1072.17,1182.67 1069.5,1181C 1072.17,1179.33 1072.17,1177.67 1069.5,1176C 1072.17,1174.33 1072.17,1172.67 1069.5,1171C 1072.17,1169.33 1072.17,1167.67 1069.5,1166C 1072.17,1164.33 1072.17,1162.67 1069.5,1161C 1072.17,1159.33 1072.17,1157.67 1069.5,1156C 1072.17,1154.33 1072.17,1152.67 1069.5,1151C 1072.17,1149.33 1072.17,1147.67 1069.5,1146C 1072.17,1144.33 1072.17,1142.67 1069.5,1141C 1072.17,1139.33 1072.17,1137.67 1069.5,1136C 1072.17,1134.33 1072.17,1132.67 1069.5,1131C 1072.17,1129.33 1072.17,1127.67 1069.5,1126C 1072.17,1124.33 1072.17,1122.67 1069.5,1121C 1072.17,1119.33 1072.17,1117.67 1069.5,1116C 1072.17,1114.33 1072.17,1112.67 1069.5,1111C 1072.17,1109.33 1072.17,1107.67 1069.5,1106C 1072.17,1104.33 1072.17,1102.67 1069.5,1101C 1072.17,1099.33 1072.17,1097.67 1069.5,1096C 1072.17,1094.33 1072.17,1092.67 1069.5,1091C 1072.17,1089.33 1072.17,1087.67 1069.5,1086C 1072.17,1084.33 1072.17,1082.67 1069.5,1081C 1072.17,1079.33 1072.17,1077.67 1069.5,1076C 1072.17,1074.33 1072.17,1072.67 1069.5,1071C 1072.17,1069.33 1072.17,1067.67 1069.5,1066C 1072.17,1064.33 1072.17,1062.67 1069.5,1061C 1072.17,1059.33 1072.17,1057.67 1069.5,1056C 1072.17,1054.33 1072.17,1052.67 1069.5,1051C 1072.17,1049.33 1072.17,1047.67 1069.5,1046C 1072.17,1044.33 1072.17,1042.67 1069.5,1041C 1072.17,1039.33 1072.17,1037.67 1069.5,1036C 1072.17,1034.33 1072.17,1032.67 1069.5,1031C 1072.17,1029.33 1072.17,1027.67 1069.5,1026C 1072.17,1024.33 1072.17,1022.67 1069.5,1021C 1072.17,1019.33 1072.17,1017.67 1069.5,1016C 1072.17,1014.33 1072.17,1012.67 1069.5,1011C 1072.17,1009.33 1072.17,1007.67 1069.5,1006C 1072.17,1004.33 1072.17,1002.67 1069.5,1001C 1072.17,999.333 1072.17,997.667 1069.5,996C 1072.17,994.333 1072.17,992.667 1069.5,991C 1072.17,989.333 1072.17,987.667 1069.5,986C 1072.17,984.333 1072.17,982.667 1069.5,981C 1072.17,979.333 1072.17,977.667 1069.5,976C 1072.17,974.333 1072.17,972.667 1069.5,971C 1072.17,969.333 1072.17,967.667 1069.5,966C 1072.17,964.333 1072.17,962.667 1069.5,961C 1072.17,959.333 1072.17,957.667 1069.5,956C 1072.17,954.333 1072.17,952.667 1069.5,951C 1072.17,949.333 1072.17,947.667 1069.5,946C 1072.17,944.333 1072.17,942.667 1069.5,941C 1072.17,939.333 1072.17,937.667 1069.5,936C 1072.17,934.333 1072.17,932.667 1069.5,931C 1072.17,929.333 1072.17,927.667 1069.5,926C 1072.17,924.333 1072.17,922.667 1069.5,921C 1072.17,919.333 1072.17,917.667 1069.5,916C 1072.17,914.333 1072.17,912.667 1069.5,911C 1072.17,909.333 1072.17,907.667 1069.5,906C 1072.17,904.333 1072.17,902.667 1069.5,901C 1072.17,899.333 1072.17,897.667 1069.5,896C 1072.17,894.333 1072.17,892.667 1069.5,891C 1072.17,889.333 1072.17,887.667 1069.5,886C 1072.17,884.333 1072.17,882.667 1069.5,881C 1072.17,879.333 1072.17,877.667 1069.5,876C 1072.17,874.333 1072.17,872.667 1069.5,871C 1072.17,869.333 1072.17,867.667 1069.5,866C 1072.17,864.333 1072.17,862.667 1069.5,861C 1072.17,859.333 1072.17,857.667 1069.5,856C 1072.17,854.333 1072.17,852.667 1069.5,851C 1072.17,849.333 1072.17,847.667 1069.5,846C 1072.17,844.333 1072.17,842.667 1069.5,841C 1072.17,839.333 1072.17,837.667 1069.5,836C 1072.17,834.333 1072.17,832.667 1069.5,831C 1072.17,829.333 1072.17,827.667 1069.5,826C 1072.17,824.333 1072.17,822.667 1069.5,821C 1072.17,819.333 1072.17,817.667 1069.5,816C 1072.17,814.333 1072.17,812.667 1069.5,811C 1072.17,809.333 1072.17,807.667 1069.5,806C 1072.17,804.333 1072.17,802.667 1069.5,801C 1072.17,799.333 1072.17,797.667 1069.5,796C 1072.17,794.333 1072.17,792.667 1069.5,791C 1072.17,789.333 1072.17,787.667 1069.5,786C 1072.17,784.333 1072.17,782.667 1069.5,781C 1071.3,779.458 1072.97,777.791 1074.5,776C 1073.03,775.29 1072.36,774.124 1072.5,772.5C 1074.12,772.36 1075.29,773.027 1076,774.5C 1076.33,773.833 1076.67,773.167 1077,772.5C 1077.5,773.667 1078.33,774.5 1079.5,775C 1078.83,775.333 1078.17,775.667 1077.5,776C 1079.99,776.626 1079.99,777.459 1077.5,778.5C 1079.99,779.541 1079.99,780.374 1077.5,781C 1079.33,781.5 1080.5,782.667 1081,784.5C 1081.33,783.833 1081.67,783.167 1082,782.5C 1082.5,783.667 1083.33,784.5 1084.5,785C 1083.83,785.333 1083.17,785.667 1082.5,786C 1084.33,786.5 1085.5,787.667 1086,789.5C 1088.07,786.906 1090.24,786.906 1092.5,789.5C 1092.83,789.167 1093.17,788.833 1093.5,788.5C 1093.29,784.617 1092.96,780.784 1092.5,777C 1093.9,775.731 1095.57,775.231 1097.5,775.5 Z"/></g>
<g><path style="opacity:1" fill="#646d7c" d="M 114.5,787.5 C 114.59,790.152 113.924,792.485 112.5,794.5C 112.41,791.848 113.076,789.515 114.5,787.5 Z"/></g>
<g><path style="opacity:1" fill="#edecec" d="M 603.5,795.5 C 603.279,796.735 602.612,797.735 601.5,798.5C 602.025,799.192 602.692,799.692 603.5,800C 600.833,800.667 600.833,801.333 603.5,802C 602.333,802.5 601.5,803.333 601,804.5C 599.847,802.503 598.347,802.17 596.5,803.5C 598.991,804.541 598.991,805.374 596.5,806C 598.333,806.5 599.5,807.667 600,809.5C 600.333,808.833 600.667,808.167 601,807.5C 601.5,808.667 602.333,809.5 603.5,810C 600.833,810.667 600.833,811.333 603.5,812C 602.333,812.5 601.5,813.333 601,814.5C 599.847,812.503 598.347,812.17 596.5,813.5C 598.991,814.541 598.991,815.374 596.5,816C 598.333,816.5 599.5,817.667 600,819.5C 600.333,818.833 600.667,818.167 601,817.5C 601.5,818.667 602.333,819.5 603.5,820C 600.833,820.667 600.833,821.333 603.5,822C 602.333,822.5 601.5,823.333 601,824.5C 599.847,822.503 598.347,822.17 596.5,823.5C 598.991,824.541 598.991,825.374 596.5,826C 598.333,826.5 599.5,827.667 600,829.5C 600.333,828.833 600.667,828.167 601,827.5C 601.5,828.667 602.333,829.5 603.5,830C 600.833,830.667 600.833,831.333 603.5,832C 602.333,832.5 601.5,833.333 601,834.5C 599.902,833.033 598.402,832.199 596.5,832C 597.167,831.667 597.833,831.333 598.5,831C 597.09,830.632 596.09,829.799 595.5,828.5C 594.271,827.719 592.938,827.219 591.5,827C 592.167,826.667 592.833,826.333 593.5,826C 592.09,825.632 591.09,824.799 590.5,823.5C 589.167,822.167 587.833,822.167 586.5,823.5C 588.991,824.541 588.991,825.374 586.5,826C 588.991,826.626 588.991,827.459 586.5,828.5C 588.991,829.541 588.991,830.374 586.5,831C 588.991,831.626 588.991,832.459 586.5,833.5C 588.991,834.541 588.991,835.374 586.5,836C 588.991,836.626 588.991,837.459 586.5,838.5C 588.991,839.541 588.991,840.374 586.5,841C 588.991,841.626 588.991,842.459 586.5,843.5C 588.991,844.541 588.991,845.374 586.5,846C 588.991,846.626 588.991,847.459 586.5,848.5C 588.991,849.541 588.991,850.374 586.5,851C 588.991,851.626 588.991,852.459 586.5,853.5C 588.991,854.541 588.991,855.374 586.5,856C 588.991,856.626 588.991,857.459 586.5,858.5C 588.991,859.541 588.991,860.374 586.5,861C 588.991,861.626 588.991,862.459 586.5,863.5C 588.991,864.541 588.991,865.374 586.5,866C 588.991,866.626 588.991,867.459 586.5,868.5C 588.991,869.541 588.991,870.374 586.5,871C 588.991,871.626 588.991,872.459 586.5,873.5C 588.991,874.541 588.991,875.374 586.5,876C 588.991,876.626 588.991,877.459 586.5,878.5C 588.991,879.541 588.991,880.374 586.5,881C 588.991,881.626 588.991,882.459 586.5,883.5C 588.991,884.541 588.991,885.374 586.5,886C 588.991,886.626 588.991,887.459 586.5,888.5C 588.991,889.541 588.991,890.374 586.5,891C 588.991,891.626 588.991,892.459 586.5,893.5C 588.991,894.541 588.991,895.374 586.5,896C 588.991,896.626 588.991,897.459 586.5,898.5C 588.991,899.541 588.991,900.374 586.5,901C 588.991,901.626 588.991,902.459 586.5,903.5C 588.991,904.541 588.991,905.374 586.5,906C 588.991,906.626 588.991,907.459 586.5,908.5C 588.991,909.541 588.991,910.374 586.5,911C 588.991,911.626 588.991,912.459 586.5,913.5C 588.991,914.541 588.991,915.374 586.5,916C 588.991,916.626 588.991,917.459 586.5,918.5C 588.991,919.541 588.991,920.374 586.5,921C 588.991,921.626 588.991,922.459 586.5,923.5C 588.991,924.541 588.991,925.374 586.5,926C 588.991,926.626 588.991,927.459 586.5,928.5C 588.991,929.541 588.991,930.374 586.5,931C 588.991,931.626 588.991,932.459 586.5,933.5C 588.991,934.541 588.991,935.374 586.5,936C 588.991,936.626 588.991,937.459 586.5,938.5C 588.991,939.541 588.991,940.374 586.5,941C 588.991,941.626 588.991,942.459 586.5,943.5C 588.991,944.541 588.991,945.374 586.5,946C 588.991,946.626 588.991,947.459 586.5,948.5C 588.991,949.541 588.991,950.374 586.5,951C 588.991,951.626 588.991,952.459 586.5,953.5C 588.991,954.541 588.991,955.374 586.5,956C 588.991,956.626 588.991,957.459 586.5,958.5C 588.991,959.541 588.991,960.374 586.5,961C 588.991,961.626 588.991,962.459 586.5,963.5C 588.991,964.541 588.991,965.374 586.5,966C 588.991,966.626 588.991,967.459 586.5,968.5C 588.991,969.541 588.991,970.374 586.5,971C 588.991,971.626 588.991,972.459 586.5,973.5C 588.991,974.541 588.991,975.374 586.5,976C 588.991,976.626 588.991,977.459 586.5,978.5C 588.991,979.541 588.991,980.374 586.5,981C 588.991,981.626 588.991,982.459 586.5,983.5C 588.991,984.541 588.991,985.374 586.5,986C 588.991,986.626 588.991,987.459 586.5,988.5C 588.991,989.541 588.991,990.374 586.5,991C 588.991,991.626 588.991,992.459 586.5,993.5C 588.991,994.541 588.991,995.374 586.5,996C 588.991,996.626 588.991,997.459 586.5,998.5C 588.991,999.541 588.991,1000.37 586.5,1001C 588.991,1001.63 588.991,1002.46 586.5,1003.5C 588.991,1004.54 588.991,1005.37 586.5,1006C 588.991,1006.63 588.991,1007.46 586.5,1008.5C 588.991,1009.54 588.991,1010.37 586.5,1011C 588.991,1011.63 588.991,1012.46 586.5,1013.5C 588.991,1014.54 588.991,1015.37 586.5,1016C 588.991,1016.63 588.991,1017.46 586.5,1018.5C 588.991,1019.54 588.991,1020.37 586.5,1021C 588.991,1021.63 588.991,1022.46 586.5,1023.5C 588.991,1024.54 588.991,1025.37 586.5,1026C 588.991,1026.63 588.991,1027.46 586.5,1028.5C 588.991,1029.54 588.991,1030.37 586.5,1031C 588.991,1031.63 588.991,1032.46 586.5,1033.5C 588.991,1034.54 588.991,1035.37 586.5,1036C 588.991,1036.63 588.991,1037.46 586.5,1038.5C 588.991,1039.54 588.991,1040.37 586.5,1041C 588.991,1041.63 588.991,1042.46 586.5,1043.5C 588.991,1044.54 588.991,1045.37 586.5,1046C 588.991,1046.63 588.991,1047.46 586.5,1048.5C 588.991,1049.54 588.991,1050.37 586.5,1051C 588.991,1051.63 588.991,1052.46 586.5,1053.5C 588.991,1054.54 588.991,1055.37 586.5,1056C 588.991,1056.63 588.991,1057.46 586.5,1058.5C 588.991,1059.54 588.991,1060.37 586.5,1061C 588.991,1061.63 588.991,1062.46 586.5,1063.5C 588.991,1064.54 588.991,1065.37 586.5,1066C 588.991,1066.63 588.991,1067.46 586.5,1068.5C 588.991,1069.54 588.991,1070.37 586.5,1071C 588.991,1071.63 588.991,1072.46 586.5,1073.5C 588.991,1074.54 588.991,1075.37 586.5,1076C 588.991,1076.63 588.991,1077.46 586.5,1078.5C 588.991,1079.54 588.991,1080.37 586.5,1081C 588.991,1081.63 588.991,1082.46 586.5,1083.5C 588.991,1084.54 588.991,1085.37 586.5,1086C 588.991,1086.63 588.991,1087.46 586.5,1088.5C 588.991,1089.54 588.991,1090.37 586.5,1091C 588.991,1091.63 588.991,1092.46 586.5,1093.5C 588.991,1094.54 588.991,1095.37 586.5,1096C 588.991,1096.63 588.991,1097.46 586.5,1098.5C 588.991,1099.54 588.991,1100.37 586.5,1101C 588.991,1101.63 588.991,1102.46 586.5,1103.5C 588.991,1104.54 588.991,1105.37 586.5,1106C 588.991,1106.63 588.991,1107.46 586.5,1108.5C 588.991,1109.54 588.991,1110.37 586.5,1111C 588.991,1111.63 588.991,1112.46 586.5,1113.5C 588.991,1114.54 588.991,1115.37 586.5,1116C 588.991,1116.63 588.991,1117.46 586.5,1118.5C 588.991,1119.54 588.991,1120.37 586.5,1121C 588.991,1121.63 588.991,1122.46 586.5,1123.5C 588.991,1124.54 588.991,1125.37 586.5,1126C 588.991,1126.63 588.991,1127.46 586.5,1128.5C 588.991,1129.54 588.991,1130.37 586.5,1131C 588.991,1131.63 588.991,1132.46 586.5,1133.5C 588.991,1134.54 588.991,1135.37 586.5,1136C 588.991,1136.63 588.991,1137.46 586.5,1138.5C 588.991,1139.54 588.991,1140.37 586.5,1141C 588.991,1141.63 588.991,1142.46 586.5,1143.5C 588.991,1144.54 588.991,1145.37 586.5,1146C 588.991,1146.63 588.991,1147.46 586.5,1148.5C 588.991,1149.54 588.991,1150.37 586.5,1151C 588.303,1151.64 589.636,1152.8 590.5,1154.5C 592.605,1152.66 593.772,1150.32 594,1147.5C 595.049,1149.11 596.549,1149.77 598.5,1149.5C 585.888,1161.11 575.555,1174.44 567.5,1189.5C 519.23,1151.99 489.563,1102.99 478.5,1042.5C 478.556,1037.27 477.889,1032.27 476.5,1027.5C 474.854,1009.1 475.187,990.765 477.5,972.5C 479.054,968.433 479.72,964.1 479.5,959.5C 479.851,956.097 480.518,952.763 481.5,949.5C 482.924,947.485 483.59,945.152 483.5,942.5C 502.204,876.128 542.204,827.128 603.5,795.5 Z"/></g>
<g><path style="opacity:1" fill="#858c96" d="M 98.5,861.5 C 98.5905,864.152 97.9238,866.485 96.5,868.5C 96.4095,865.848 97.0762,863.515 98.5,861.5 Z"/></g>
<g><path style="opacity:1" fill="#868d98" d="M 1948.5,861.5 C 1949.92,863.515 1950.59,865.848 1950.5,868.5C 1949.08,866.485 1948.41,864.152 1948.5,861.5 Z"/></g>
<g><path style="opacity:1" fill="#616b7b" d="M 1423.5,871.5 C 1425.33,876.103 1425.66,880.769 1424.5,885.5C 1424,880.848 1423.67,876.181 1423.5,871.5 Z"/></g>
<g><path style="opacity:0.994" fill="#e0dfdf" d="M 6.5,896.5 C 35.1667,897.833 63.8333,897.833 92.5,896.5C 92.5,897.167 92.5,897.833 92.5,898.5C 90.2574,905.529 89.2574,912.863 89.5,920.5C 87.7229,941.825 86.0563,963.158 84.5,984.5C 56.5,984.5 28.5,984.5 0.5,984.5C 0.8064,987.385 0.473067,990.052 -0.5,992.5C -0.5,983.5 -0.5,974.5 -0.5,965.5C 1.75534,942.615 4.08867,919.615 6.5,896.5 Z"/></g>
<g><path style="opacity:0.995" fill="#e0dfdf" d="M 1955.5,901.5 C 1984.17,901.5 2012.83,901.5 2041.5,901.5C 2043.25,922.999 2045.25,944.332 2047.5,965.5C 2047.5,973.5 2047.5,981.5 2047.5,989.5C 2019.17,989.5 1990.83,989.5 1962.5,989.5C 1961.61,976.846 1960.95,964.179 1960.5,951.5C 1960.56,946.269 1959.89,941.269 1958.5,936.5C 1958.16,929.116 1957.5,921.782 1956.5,914.5C 1956.53,910.131 1956.2,905.798 1955.5,901.5 Z"/></g>
<g><path style="opacity:1" fill="#717986" d="M 1954.5,898.5 C 1955.4,899.209 1955.74,900.209 1955.5,901.5C 1956.2,905.798 1956.53,910.131 1956.5,914.5C 1955.19,909.384 1954.53,904.051 1954.5,898.5 Z"/></g>
<g><path style="opacity:1" fill="#d5d5d9" d="M 1470.5,911.5 C 1450.17,910.167 1429.83,910.167 1409.5,911.5C 1411.63,910.686 1413.96,910.186 1416.5,910C 1432.17,909.333 1447.83,909.333 1463.5,910C 1466.04,910.186 1468.37,910.686 1470.5,911.5 Z"/></g>
<g><path style="opacity:1" fill="#f7f5f5" d="M 1470.5,911.5 C 1542.05,921.175 1597.88,955.842 1638,1015.5C 1651.62,1036.53 1661.45,1059.2 1667.5,1083.5C 1667.41,1086.15 1668.08,1088.49 1669.5,1090.5C 1686.56,1179.79 1662.23,1255.63 1596.5,1318C 1532.11,1371.01 1459.11,1387.67 1377.5,1368C 1334.42,1355.31 1298.09,1332.31 1268.5,1299C 1347.98,1212.87 1376.31,1112.04 1353.5,996.5C 1353.59,993.848 1352.92,991.515 1351.5,989.5C 1351.42,986.673 1350.75,984.006 1349.5,981.5C 1349.28,977.838 1348.28,974.505 1346.5,971.5C 1344.25,962.988 1341.41,954.654 1338,946.5C 1336.92,944.004 1335.59,941.67 1334,939.5C 1333.2,937.741 1333.37,936.074 1334.5,934.5C 1358.21,922.598 1383.21,914.931 1409.5,911.5C 1429.83,910.167 1450.17,910.167 1470.5,911.5 Z"/></g>
<g><path style="opacity:1" fill="#9fa4ab" d="M 92.5,898.5 C 91.7768,906.001 90.7768,913.335 89.5,920.5C 89.2574,912.863 90.2574,905.529 92.5,898.5 Z"/></g>
<g><path style="opacity:1" fill="#ebebeb" d="M 554.5,1227.5 C 551.505,1239.38 550.838,1251.38 552.5,1263.5C 553.729,1288.01 560.729,1310.67 573.5,1331.5C 572.99,1333.09 571.99,1334.25 570.5,1335C 510.503,1372.15 446.836,1379.82 379.5,1358C 307.409,1329.41 261.742,1277.58 242.5,1202.5C 242.59,1199.85 241.924,1197.51 240.5,1195.5C 237.853,1176.27 236.853,1156.94 237.5,1137.5C 238.972,1133.08 239.638,1128.41 239.5,1123.5C 240.943,1112.93 243.276,1102.6 246.5,1092.5C 247.924,1090.49 248.59,1088.15 248.5,1085.5C 276.775,1010.73 329.775,963.568 407.5,944C 416.515,942.775 425.515,941.442 434.5,940C 442.521,939.168 450.521,939.335 458.5,940.5C 439.296,1029.07 458.796,1107.74 517,1176.5C 529.14,1189.98 542.473,1201.98 557,1212.5C 556.715,1217.54 555.882,1222.54 554.5,1227.5 Z"/></g>
<g><path style="opacity:1" fill="#8f96a0" d="M 483.5,942.5 C 483.59,945.152 482.924,947.485 481.5,949.5C 481.41,946.848 482.076,944.515 483.5,942.5 Z"/></g>
<g><path style="opacity:1" fill="#858c97" d="M 1958.5,936.5 C 1959.89,941.269 1960.56,946.269 1960.5,951.5C 1959.11,946.731 1958.44,941.731 1958.5,936.5 Z"/></g>
<g><path style="opacity:1" fill="#aaafb6" d="M 479.5,959.5 C 479.72,964.1 479.054,968.433 477.5,972.5C 477.28,967.9 477.946,963.567 479.5,959.5 Z"/></g>
<g><path style="opacity:1" fill="#656e7e" d="M 1346.5,971.5 C 1348.28,974.505 1349.28,977.838 1349.5,981.5C 1347.72,978.495 1346.72,975.162 1346.5,971.5 Z"/></g>
<g><path style="opacity:0.992" fill="#dddcdc" d="M 84.5,984.5 C 83.879,1023.22 84.879,1061.88 87.5,1100.5C 87.2549,1106.08 87.9216,1111.42 89.5,1116.5C 90.761,1134.25 92.761,1151.92 95.5,1169.5C 95.2796,1174.1 95.9462,1178.43 97.5,1182.5C 111.452,1260.35 134.452,1335.35 166.5,1407.5C 166.357,1409.26 166.691,1410.93 167.5,1412.5C 137.003,1413.17 106.669,1413.83 76.5,1414.5C 32.5895,1308.21 6.92288,1197.55 -0.5,1082.5C -0.5,1052.5 -0.5,1022.5 -0.5,992.5C 0.473067,990.052 0.8064,987.385 0.5,984.5C 28.5,984.5 56.5,984.5 84.5,984.5 Z"/></g>
<g><path style="opacity:0.992" fill="#dcdcdc" d="M 1962.5,989.5 C 1990.83,989.5 2019.17,989.5 2047.5,989.5C 2047.5,1020.17 2047.5,1050.83 2047.5,1081.5C 2039.16,1218.15 2005.16,1347.82 1945.5,1470.5C 1914.85,1468.51 1883.85,1467.84 1852.5,1468.5C 1852.5,1467.5 1852.5,1466.5 1852.5,1465.5C 1887.13,1398.95 1914.13,1329.29 1933.5,1256.5C 1934.77,1254.09 1935.43,1251.43 1935.5,1248.5C 1940.56,1226.55 1945.22,1204.55 1949.5,1182.5C 1951.05,1178.43 1951.72,1174.1 1951.5,1169.5C 1960.32,1109.84 1963.99,1049.84 1962.5,989.5 Z"/></g>
<g><path style="opacity:1" fill="#687180" d="M 1351.5,989.5 C 1352.92,991.515 1353.59,993.848 1353.5,996.5C 1352.08,994.485 1351.41,992.152 1351.5,989.5 Z"/></g>
<g><path style="opacity:1" fill="#5a6475" d="M 715.5,1012.5 C 715.72,1017.1 715.054,1021.43 713.5,1025.5C 713.28,1020.9 713.946,1016.57 715.5,1012.5 Z"/></g>
<g><path style="opacity:1" fill="#989ea8" d="M 1332.5,1015.5 C 1334.14,1020.93 1335.14,1026.59 1335.5,1032.5C 1333.37,1027.16 1332.37,1021.49 1332.5,1015.5 Z"/></g>
<g><path style="opacity:1" fill="#9ca1ab" d="M 739.5,1016.5 C 739.116,1023.72 738.116,1030.72 736.5,1037.5C 736.492,1030.22 737.492,1023.22 739.5,1016.5 Z"/></g>
<g><path style="opacity:1" fill="#7c8491" d="M 476.5,1027.5 C 477.889,1032.27 478.556,1037.27 478.5,1042.5C 477.111,1037.73 476.444,1032.73 476.5,1027.5 Z"/></g>
<g><path style="opacity:1" fill="#959ba5" d="M 248.5,1085.5 C 248.59,1088.15 247.924,1090.49 246.5,1092.5C 246.41,1089.85 247.076,1087.51 248.5,1085.5 Z"/></g>
<g><path style="opacity:1" fill="#a1a6af" d="M 1667.5,1083.5 C 1668.92,1085.51 1669.59,1087.85 1669.5,1090.5C 1668.08,1088.49 1667.41,1086.15 1667.5,1083.5 Z"/></g>
<g><path style="opacity:1" fill="#4c5869" d="M 87.5,1100.5 C 88.8063,1105.62 89.473,1110.95 89.5,1116.5C 87.9216,1111.42 87.2549,1106.08 87.5,1100.5 Z"/></g>
<g><path style="opacity:1" fill="#747d8a" d="M 712.5,1106.5 C 713.473,1108.95 713.806,1111.61 713.5,1114.5C 708.637,1114.82 703.97,1114.49 699.5,1113.5C 703.833,1113.5 708.167,1113.5 712.5,1113.5C 712.5,1111.17 712.5,1108.83 712.5,1106.5 Z"/></g>
<g><path style="opacity:1" fill="#636d7d" d="M 682.5,1113.5 C 678.081,1114.97 673.414,1115.64 668.5,1115.5C 672.919,1114.03 677.586,1113.36 682.5,1113.5 Z"/></g>
<g><path style="opacity:1" fill="#f9f7f7" d="M 1835.5,1229.5 C 1835.74,1240.2 1835.4,1250.86 1834.5,1261.5C 1823.28,1313.89 1791.61,1346.39 1739.5,1359C 1728.87,1360.2 1718.2,1360.7 1707.5,1360.5C 1703.43,1358.95 1699.1,1358.28 1694.5,1358.5C 1668.47,1352.83 1646.81,1339.99 1629.5,1320C 1656.49,1290.52 1676.16,1256.69 1688.5,1218.5C 1689.92,1216.49 1690.59,1214.15 1690.5,1211.5C 1691.5,1206.84 1692.5,1202.17 1693.5,1197.5C 1694.92,1195.49 1695.59,1193.15 1695.5,1190.5C 1698.61,1169.3 1700.28,1147.96 1700.5,1126.5C 1760.12,1121.22 1802.62,1145.55 1828,1199.5C 1831.64,1209.24 1834.14,1219.24 1835.5,1229.5 Z"/></g>
<g><path style="opacity:1" fill="#9097a1" d="M 239.5,1123.5 C 239.638,1128.41 238.972,1133.08 237.5,1137.5C 237.362,1132.59 238.028,1127.92 239.5,1123.5 Z"/></g>
<g><path style="opacity:1" fill="#eeeded" d="M 705.5,1138.5 C 709.794,1138.58 713.961,1139.24 718,1140.5C 732.287,1201.26 760.787,1254.09 803.5,1299C 779.171,1351.01 738.171,1375.68 680.5,1373C 625.862,1363.69 591.695,1332.19 578,1278.5C 570.391,1219.55 592.558,1176.05 644.5,1148C 652.216,1144.57 660.216,1142.07 668.5,1140.5C 680.76,1138.78 693.094,1138.12 705.5,1138.5 Z"/></g>
<g><path style="opacity:1" fill="#9fa5ad" d="M 705.5,1138.5 C 693.094,1138.12 680.76,1138.78 668.5,1140.5C 671.534,1138.98 674.867,1138.15 678.5,1138C 687.676,1137.18 696.676,1137.34 705.5,1138.5 Z"/></g>
<g><path style="opacity:1" fill="#9ea3aa" d="M 95.5,1169.5 C 97.0538,1173.57 97.7204,1177.9 97.5,1182.5C 95.9462,1178.43 95.2796,1174.1 95.5,1169.5 Z"/></g>
<g><path style="opacity:1" fill="#a0a4ac" d="M 1951.5,1169.5 C 1951.72,1174.1 1951.05,1178.43 1949.5,1182.5C 1949.28,1177.9 1949.95,1173.57 1951.5,1169.5 Z"/></g>
<g><path style="opacity:1" fill="#868d9a" d="M 1695.5,1190.5 C 1695.59,1193.15 1694.92,1195.49 1693.5,1197.5C 1693.41,1194.85 1694.08,1192.51 1695.5,1190.5 Z"/></g>
<g><path style="opacity:1" fill="#6c7584" d="M 240.5,1195.5 C 241.924,1197.51 242.59,1199.85 242.5,1202.5C 241.076,1200.49 240.41,1198.15 240.5,1195.5 Z"/></g>
<g><path style="opacity:1" fill="#a6aab3" d="M 1690.5,1211.5 C 1690.59,1214.15 1689.92,1216.49 1688.5,1218.5C 1688.41,1215.85 1689.08,1213.51 1690.5,1211.5 Z"/></g>
<g><path style="opacity:1" fill="#596374" d="M 1835.5,1229.5 C 1836.66,1238.99 1836.82,1248.66 1836,1258.5C 1835.77,1259.74 1835.27,1260.74 1834.5,1261.5C 1835.4,1250.86 1835.74,1240.2 1835.5,1229.5 Z"/></g>
<g><path style="opacity:1" fill="#838994" d="M 1935.5,1248.5 C 1935.43,1251.43 1934.77,1254.09 1933.5,1256.5C 1933.29,1253.5 1933.96,1250.84 1935.5,1248.5 Z"/></g>
<g><path style="opacity:1" fill="#66707f" d="M 554.5,1227.5 C 552.927,1239.44 552.26,1251.44 552.5,1263.5C 550.838,1251.38 551.505,1239.38 554.5,1227.5 Z"/></g>
<g><path style="opacity:1" fill="#818995" d="M 1694.5,1358.5 C 1699.1,1358.28 1703.43,1358.95 1707.5,1360.5C 1702.9,1360.72 1698.57,1360.05 1694.5,1358.5 Z"/></g>
<g><path style="opacity:1" fill="#888f9b" d="M 963.5,1362.5 C 966.152,1362.41 968.485,1363.08 970.5,1364.5C 967.848,1364.59 965.515,1363.92 963.5,1362.5 Z"/></g>
<g><path style="opacity:1" fill="#b7bac1" d="M 982.5,1366.5 C 987.1,1366.28 991.433,1366.95 995.5,1368.5C 990.9,1368.72 986.567,1368.05 982.5,1366.5 Z"/></g>
<g><path style="opacity:1" fill="#a2a7b0" d="M 996.5,1368.5 C 1001.73,1368.44 1006.73,1369.11 1011.5,1370.5C 1006.27,1370.56 1001.27,1369.89 996.5,1368.5 Z"/></g>
<g><path style="opacity:1" fill="#5a6575" d="M 1078.5,1368.5 C 1073.73,1369.89 1068.73,1370.56 1063.5,1370.5C 1068.27,1369.11 1073.27,1368.44 1078.5,1368.5 Z"/></g>
<g><path style="opacity:0.99" fill="#d7d6d6" d="M 166.5,1407.5 C 185.736,1450.3 207.903,1491.63 233,1531.5C 364.278,1730.24 544.445,1862.91 773.5,1929.5C 713.166,1930.63 652.666,1930.63 592,1929.5C 577.5,1929.67 563,1929.83 548.5,1930C 547.944,1930.38 547.611,1930.88 547.5,1931.5C 345.341,1823.25 194.508,1665.59 95,1458.5C 88.0051,1444.18 81.8385,1429.51 76.5,1414.5C 106.669,1413.83 137.003,1413.17 167.5,1412.5C 166.691,1410.93 166.357,1409.26 166.5,1407.5 Z"/></g>
<g><path style="opacity:0.991" fill="#d6d6d6" d="M 1852.5,1465.5 C 1852.5,1466.5 1852.5,1467.5 1852.5,1468.5C 1883.85,1467.84 1914.85,1468.51 1945.5,1470.5C 1849.74,1665.75 1707.07,1816.25 1517.5,1922C 1509.81,1925.85 1502.14,1929.68 1494.5,1933.5C 1490.69,1932.68 1486.69,1932.18 1482.5,1932C 1411.83,1931.67 1341.17,1931.33 1270.5,1931C 1271.06,1930.62 1271.39,1930.12 1271.5,1929.5C 1301.78,1920.52 1331.78,1910.69 1361.5,1900C 1576.89,1813.78 1740.56,1668.95 1852.5,1465.5 Z"/></g>
<g><path style="opacity:0.99" fill="#d3d3d3" d="M 773.5,1929.5 C 833.751,1946.1 895.084,1956.43 957.5,1960.5C 967.617,1962.17 977.95,1962.84 988.5,1962.5C 1021.2,1962.9 1053.86,1962.23 1086.5,1960.5C 1094.4,1960.86 1102.07,1960.2 1109.5,1958.5C 1164.44,1953.71 1218.44,1944.04 1271.5,1929.5C 1271.39,1930.12 1271.06,1930.62 1270.5,1931C 1341.17,1931.33 1411.83,1931.67 1482.5,1932C 1486.69,1932.18 1490.69,1932.68 1494.5,1933.5C 1365.13,2000.48 1227.46,2038.48 1081.5,2047.5C 1042.83,2047.5 1004.17,2047.5 965.5,2047.5C 817.685,2038.21 678.352,1999.55 547.5,1931.5C 547.611,1930.88 547.944,1930.38 548.5,1930C 563,1929.83 577.5,1929.67 592,1929.5C 652.666,1930.63 713.166,1930.63 773.5,1929.5 Z"/></g>
<g><path style="opacity:1" fill="#838a94" d="M 1109.5,1958.5 C 1102.07,1960.2 1094.4,1960.86 1086.5,1960.5C 1093.98,1959.42 1101.65,1958.75 1109.5,1958.5 Z"/></g>
<g><path style="opacity:1" fill="#abafb4" d="M 957.5,1960.5 C 968.009,1960.81 978.342,1961.47 988.5,1962.5C 977.95,1962.84 967.617,1962.17 957.5,1960.5 Z"/></g>
</svg>
