<?xml version="1.0" encoding="utf-8"?>
<!-- Generator: Adobe Illustrator 27.0.1, SVG Export Plug-In . SVG Version: 6.00 Build 0)  -->
<svg version="1.1" id="Layer_1" xmlns="http://www.w3.org/2000/svg" xmlns:xlink="http://www.w3.org/1999/xlink" x="0px" y="0px"
	 viewBox="0 0 1000 1000" style="enable-background:new 0 0 1000 1000;" xml:space="preserve">
<style type="text/css">
	.st0{fill:#FFFFFF;}
</style>
<path class="st0" d="M299,891.7c-4.2-19.8-12.5-59.6-13.6-59.6c-176.7-105.7-155.8-288.7-97.3-393.4
	c12.5,131.8,245.8,222.8,109.8,383.9c-1.1,2,6.2,27.2,12.5,50.2c27.2-46,68-101.4,65.8-106.7C208.9,358.2,731.9,326.9,840.6,73.7
	c49.1,244.8-25.1,623.5-445.5,719.7c-2,1.1-76.3,131.8-79.5,132.9c0-2-31.4-1.1-27.2-11.5C290.7,908.4,294.8,900.1,299,891.7
	L299,891.7z M293.8,793.4c53.3-61.8-9.4-167.4-47.1-201.9C310.5,701.3,306.3,765.1,293.8,793.4L293.8,793.4z"/>
</svg>
