<svg width="32" height="32" viewBox="0 0 32 32" fill="none" xmlns="http://www.w3.org/2000/svg">
<g clip-path="url(#clip0_720_150)">
<mask id="path-1-outside-1_720_150" maskUnits="userSpaceOnUse" x="6" y="4.02667" width="21" height="26" fill="black">
<rect fill="white" x="6" y="4.02667" width="21" height="26"/>
<path d="M8.9015 27.4267V7.28467H12.6815V10.0927L12.3305 9.28267C12.8165 8.54467 13.4735 7.97767 14.3015 7.58167C15.1475 7.16767 16.1105 6.96067 17.1905 6.96067C18.5945 6.96067 19.8635 7.30267 20.9975 7.98667C22.1315 8.67067 23.0315 9.59767 23.6975 10.7677C24.3635 11.9197 24.6965 13.2157 24.6965 14.6557C24.6965 16.0777 24.3635 17.3737 23.6975 18.5437C23.0495 19.7137 22.1585 20.6407 21.0245 21.3247C19.8905 22.0087 18.6035 22.3507 17.1635 22.3507C16.1555 22.3507 15.2195 22.1707 14.3555 21.8107C13.5095 21.4327 12.8255 20.8837 12.3035 20.1637L12.9515 19.3267V27.4267H8.9015ZM16.6775 18.7057C17.4335 18.7057 18.0995 18.5347 18.6755 18.1927C19.2515 17.8507 19.7015 17.3737 20.0255 16.7617C20.3495 16.1497 20.5115 15.4477 20.5115 14.6557C20.5115 13.8637 20.3495 13.1707 20.0255 12.5767C19.7015 11.9647 19.2515 11.4877 18.6755 11.1457C18.0995 10.7857 17.4335 10.6057 16.6775 10.6057C15.9575 10.6057 15.3095 10.7767 14.7335 11.1187C14.1755 11.4607 13.7345 11.9377 13.4105 12.5497C13.1045 13.1617 12.9515 13.8637 12.9515 14.6557C12.9515 15.4477 13.1045 16.1497 13.4105 16.7617C13.7345 17.3737 14.1755 17.8507 14.7335 18.1927C15.3095 18.5347 15.9575 18.7057 16.6775 18.7057Z"/>
</mask>
<path d="M8.9015 27.4267H6.9015V29.4267H8.9015V27.4267ZM8.9015 7.28467V5.28467H6.9015V7.28467H8.9015ZM12.6815 7.28467H14.6815V5.28467H12.6815V7.28467ZM12.6815 10.0927L10.8464 10.8879L14.6815 10.0927H12.6815ZM12.3305 9.28267L10.6602 8.18269L10.0655 9.08575L10.4954 10.0779L12.3305 9.28267ZM14.3015 7.58167L15.1644 9.38594L15.1725 9.38206L15.1806 9.37811L14.3015 7.58167ZM20.9975 7.98667L22.0305 6.27409L20.9975 7.98667ZM23.6975 10.7677L21.9593 11.7571L21.966 11.7687L23.6975 10.7677ZM23.6975 18.5437L21.9594 17.5543L21.9536 17.5644L21.9479 17.5747L23.6975 18.5437ZM21.0245 21.3247L19.9915 19.6121L21.0245 21.3247ZM14.3555 21.8107L13.5396 23.6367L13.5628 23.6471L13.5863 23.6568L14.3555 21.8107ZM12.3035 20.1637L10.7221 18.9393L9.80465 20.1243L10.6843 21.3376L12.3035 20.1637ZM12.9515 19.3267H14.9515V13.4763L11.3701 18.1023L12.9515 19.3267ZM12.9515 27.4267V29.4267H14.9515V27.4267H12.9515ZM18.6755 18.1927L19.6966 19.9124L18.6755 18.1927ZM20.0255 16.7617L18.2579 15.8259H18.2579L20.0255 16.7617ZM20.0255 12.5767L18.2579 13.5124L18.2638 13.5234L18.2697 13.5344L20.0255 12.5767ZM18.6755 11.1457L17.6155 12.8417L17.6348 12.8537L17.6544 12.8654L18.6755 11.1457ZM14.7335 11.1187L13.7124 9.39896L13.7004 9.40613L13.6884 9.41347L14.7335 11.1187ZM13.4105 12.5497L11.6429 11.6139L11.632 11.6344L11.6217 11.6552L13.4105 12.5497ZM13.4105 16.7617L11.6217 17.6561L11.632 17.6769L11.6429 17.6974L13.4105 16.7617ZM14.7335 18.1927L13.6884 19.8979L13.7004 19.9052L13.7124 19.9124L14.7335 18.1927ZM10.9015 27.4267V7.28467H6.9015V27.4267H10.9015ZM8.9015 9.28467H12.6815V5.28467H8.9015V9.28467ZM10.6815 7.28467V10.0927H14.6815V7.28467H10.6815ZM14.5166 9.29746L14.1656 8.48746L10.4954 10.0779L10.8464 10.8879L14.5166 9.29746ZM14.0008 10.3827C14.2788 9.96056 14.6513 9.63134 15.1644 9.38594L13.4386 5.7774C12.2957 6.32401 11.3542 7.12879 10.6602 8.18269L14.0008 10.3827ZM15.1806 9.37811C15.7153 9.11643 16.3704 8.96067 17.1905 8.96067V4.96067C15.8506 4.96067 14.5797 5.21892 13.4224 5.78524L15.1806 9.37811ZM17.1905 8.96067C18.2533 8.96067 19.1612 9.21474 19.9645 9.69925L22.0305 6.27409C20.5658 5.3906 18.9358 4.96067 17.1905 4.96067V8.96067ZM19.9645 9.69925C20.8004 10.2035 21.4597 10.8793 21.9594 11.7571L25.4356 9.77827C24.6033 8.31601 23.4626 7.13789 22.0305 6.27409L19.9645 9.69925ZM21.966 11.7687C22.4418 12.5916 22.6965 13.5373 22.6965 14.6557H26.6965C26.6965 12.894 26.2852 11.2477 25.429 9.76667L21.966 11.7687ZM22.6965 14.6557C22.6965 15.751 22.444 16.7029 21.9594 17.5543L25.4356 19.5331C26.283 18.0444 26.6965 16.4044 26.6965 14.6557H22.6965ZM21.9479 17.5747C21.4678 18.4415 20.8226 19.1108 19.9915 19.6121L22.0575 23.0373C23.4944 22.1705 24.6312 20.9858 25.4471 19.5127L21.9479 17.5747ZM19.9915 19.6121C19.1963 20.0918 18.2723 20.3507 17.1635 20.3507V24.3507C18.9347 24.3507 20.5847 23.9256 22.0575 23.0373L19.9915 19.6121ZM17.1635 20.3507C16.399 20.3507 15.7267 20.2154 15.1247 19.9645L13.5863 23.6568C14.7123 24.126 15.912 24.3507 17.1635 24.3507V20.3507ZM15.1714 19.9847C14.6317 19.7435 14.23 19.4135 13.9227 18.9897L10.6843 21.3376C11.421 22.3538 12.3873 23.1218 13.5396 23.6367L15.1714 19.9847ZM13.885 21.388L14.533 20.551L11.3701 18.1023L10.7221 18.9393L13.885 21.388ZM10.9515 19.3267V27.4267H14.9515V19.3267H10.9515ZM12.9515 25.4267H8.9015V29.4267H12.9515V25.4267ZM16.6775 20.7057C17.7456 20.7057 18.7734 20.4605 19.6966 19.9124L17.6544 16.473C17.4256 16.6088 17.1214 16.7057 16.6775 16.7057V20.7057ZM19.6966 19.9124C20.5998 19.3761 21.3031 18.6229 21.7931 17.6974L18.2579 15.8259C18.0999 16.1244 17.9033 16.3252 17.6544 16.473L19.6966 19.9124ZM21.7931 17.6974C22.2904 16.7581 22.5115 15.7266 22.5115 14.6557H18.5115C18.5115 15.1687 18.4086 15.5413 18.2579 15.8259L21.7931 17.6974ZM22.5115 14.6557C22.5115 13.5863 22.2909 12.5532 21.7813 11.619L18.2697 13.5344C18.4081 13.7881 18.5115 14.141 18.5115 14.6557H22.5115ZM21.7931 11.6409C21.3031 10.7154 20.5998 9.96222 19.6966 9.42596L17.6544 12.8654C17.9033 13.0131 18.0999 13.2139 18.2579 13.5124L21.7931 11.6409ZM19.7355 9.44967C18.8065 8.86907 17.7647 8.60567 16.6775 8.60567V12.6057C17.1023 12.6057 17.3925 12.7023 17.6155 12.8417L19.7355 9.44967ZM16.6775 8.60567C15.626 8.60567 14.6205 8.85977 13.7124 9.39896L15.7546 12.8384C15.9985 12.6936 16.289 12.6057 16.6775 12.6057V8.60567ZM13.6884 9.41347C12.8071 9.95362 12.1244 10.7045 11.6429 11.6139L15.1781 13.4854C15.3446 13.1709 15.5439 12.9677 15.7786 12.8239L13.6884 9.41347ZM11.6217 11.6552C11.1565 12.5856 10.9515 13.6021 10.9515 14.6557H14.9515C14.9515 14.1252 15.0526 13.7377 15.1994 13.4441L11.6217 11.6552ZM10.9515 14.6557C10.9515 15.7092 11.1565 16.7257 11.6217 17.6561L15.1994 15.8672C15.0526 15.5736 14.9515 15.1861 14.9515 14.6557H10.9515ZM11.6429 17.6974C12.1244 18.6069 12.8071 19.3577 13.6884 19.8979L15.7786 16.4875C15.5439 16.3436 15.3446 16.1405 15.1781 15.8259L11.6429 17.6974ZM13.7124 19.9124C14.6205 20.4516 15.626 20.7057 16.6775 20.7057V16.7057C16.289 16.7057 15.9985 16.6178 15.7546 16.473L13.7124 19.9124Z" fill="#FF34F5" mask="url(#path-1-outside-1_720_150)"/>
<mask id="path-3-outside-2_720_150" maskUnits="userSpaceOnUse" x="6" y="3.02667" width="21" height="26" fill="black">
<rect fill="white" x="6" y="3.02667" width="21" height="26"/>
<path d="M8.9015 26.4267V6.28467H12.6815V9.09267L12.3305 8.28267C12.8165 7.54467 13.4735 6.97767 14.3015 6.58167C15.1475 6.16767 16.1105 5.96067 17.1905 5.96067C18.5945 5.96067 19.8635 6.30267 20.9975 6.98667C22.1315 7.67067 23.0315 8.59767 23.6975 9.76767C24.3635 10.9197 24.6965 12.2157 24.6965 13.6557C24.6965 15.0777 24.3635 16.3737 23.6975 17.5437C23.0495 18.7137 22.1585 19.6407 21.0245 20.3247C19.8905 21.0087 18.6035 21.3507 17.1635 21.3507C16.1555 21.3507 15.2195 21.1707 14.3555 20.8107C13.5095 20.4327 12.8255 19.8837 12.3035 19.1637L12.9515 18.3267V26.4267H8.9015ZM16.6775 17.7057C17.4335 17.7057 18.0995 17.5347 18.6755 17.1927C19.2515 16.8507 19.7015 16.3737 20.0255 15.7617C20.3495 15.1497 20.5115 14.4477 20.5115 13.6557C20.5115 12.8637 20.3495 12.1707 20.0255 11.5767C19.7015 10.9647 19.2515 10.4877 18.6755 10.1457C18.0995 9.78567 17.4335 9.60567 16.6775 9.60567C15.9575 9.60567 15.3095 9.77667 14.7335 10.1187C14.1755 10.4607 13.7345 10.9377 13.4105 11.5497C13.1045 12.1617 12.9515 12.8637 12.9515 13.6557C12.9515 14.4477 13.1045 15.1497 13.4105 15.7617C13.7345 16.3737 14.1755 16.8507 14.7335 17.1927C15.3095 17.5347 15.9575 17.7057 16.6775 17.7057Z"/>
</mask>
<path d="M8.9015 26.4267H6.9015V28.4267H8.9015V26.4267ZM8.9015 6.28467V4.28467H6.9015V6.28467H8.9015ZM12.6815 6.28467H14.6815V4.28467H12.6815V6.28467ZM12.6815 9.09267L10.8464 9.88789L14.6815 9.09267H12.6815ZM12.3305 8.28267L10.6602 7.18269L10.0655 8.08575L10.4954 9.07789L12.3305 8.28267ZM14.3015 6.58167L15.1644 8.38594L15.1725 8.38206L15.1806 8.37811L14.3015 6.58167ZM20.9975 6.98667L22.0305 5.27409L20.9975 6.98667ZM23.6975 9.76767L21.9593 10.7571L21.966 10.7687L23.6975 9.76767ZM23.6975 17.5437L21.9594 16.5543L21.9536 16.5644L21.9479 16.5747L23.6975 17.5437ZM21.0245 20.3247L19.9915 18.6121L21.0245 20.3247ZM14.3555 20.8107L13.5396 22.6367L13.5628 22.6471L13.5863 22.6568L14.3555 20.8107ZM12.3035 19.1637L10.7221 17.9393L9.80465 19.1243L10.6843 20.3376L12.3035 19.1637ZM12.9515 18.3267H14.9515V12.4763L11.3701 17.1023L12.9515 18.3267ZM12.9515 26.4267V28.4267H14.9515V26.4267H12.9515ZM18.6755 17.1927L19.6966 18.9124L18.6755 17.1927ZM20.0255 15.7617L18.2579 14.8259H18.2579L20.0255 15.7617ZM20.0255 11.5767L18.2579 12.5124L18.2638 12.5234L18.2697 12.5344L20.0255 11.5767ZM18.6755 10.1457L17.6155 11.8417L17.6348 11.8537L17.6544 11.8654L18.6755 10.1457ZM14.7335 10.1187L13.7124 8.39896L13.7004 8.40613L13.6884 8.41347L14.7335 10.1187ZM13.4105 11.5497L11.6429 10.6139L11.632 10.6344L11.6217 10.6552L13.4105 11.5497ZM13.4105 15.7617L11.6217 16.6561L11.632 16.6769L11.6429 16.6974L13.4105 15.7617ZM14.7335 17.1927L13.6884 18.8979L13.7004 18.9052L13.7124 18.9124L14.7335 17.1927ZM10.9015 26.4267V6.28467H6.9015V26.4267H10.9015ZM8.9015 8.28467H12.6815V4.28467H8.9015V8.28467ZM10.6815 6.28467V9.09267H14.6815V6.28467H10.6815ZM14.5166 8.29746L14.1656 7.48746L10.4954 9.07789L10.8464 9.88789L14.5166 8.29746ZM14.0008 9.38265C14.2788 8.96056 14.6513 8.63134 15.1644 8.38594L13.4386 4.7774C12.2957 5.32401 11.3542 6.12879 10.6602 7.18269L14.0008 9.38265ZM15.1806 8.37811C15.7153 8.11643 16.3704 7.96067 17.1905 7.96067V3.96067C15.8506 3.96067 14.5797 4.21892 13.4224 4.78524L15.1806 8.37811ZM17.1905 7.96067C18.2533 7.96067 19.1612 8.21474 19.9645 8.69925L22.0305 5.27409C20.5658 4.3906 18.9358 3.96067 17.1905 3.96067V7.96067ZM19.9645 8.69925C20.8004 9.20345 21.4597 9.87933 21.9594 10.7571L25.4356 8.77827C24.6033 7.31601 23.4626 6.13789 22.0305 5.27409L19.9645 8.69925ZM21.966 10.7687C22.4418 11.5916 22.6965 12.5373 22.6965 13.6557H26.6965C26.6965 11.894 26.2852 10.2477 25.429 8.76667L21.966 10.7687ZM22.6965 13.6557C22.6965 14.751 22.444 15.7029 21.9594 16.5543L25.4356 18.5331C26.283 17.0444 26.6965 15.4044 26.6965 13.6557H22.6965ZM21.9479 16.5747C21.4678 17.4415 20.8226 18.1108 19.9915 18.6121L22.0575 22.0373C23.4944 21.1705 24.6312 19.9858 25.4471 18.5127L21.9479 16.5747ZM19.9915 18.6121C19.1963 19.0918 18.2723 19.3507 17.1635 19.3507V23.3507C18.9347 23.3507 20.5847 22.9256 22.0575 22.0373L19.9915 18.6121ZM17.1635 19.3507C16.399 19.3507 15.7267 19.2154 15.1247 18.9645L13.5863 22.6568C14.7123 23.126 15.912 23.3507 17.1635 23.3507V19.3507ZM15.1714 18.9847C14.6317 18.7435 14.23 18.4135 13.9227 17.9897L10.6843 20.3376C11.421 21.3538 12.3873 22.1218 13.5396 22.6367L15.1714 18.9847ZM13.885 20.388L14.533 19.551L11.3701 17.1023L10.7221 17.9393L13.885 20.388ZM10.9515 18.3267V26.4267H14.9515V18.3267H10.9515ZM12.9515 24.4267H8.9015V28.4267H12.9515V24.4267ZM16.6775 19.7057C17.7456 19.7057 18.7734 19.4605 19.6966 18.9124L17.6544 15.473C17.4256 15.6088 17.1214 15.7057 16.6775 15.7057V19.7057ZM19.6966 18.9124C20.5998 18.3761 21.3031 17.6229 21.7931 16.6974L18.2579 14.8259C18.0999 15.1244 17.9033 15.3252 17.6544 15.473L19.6966 18.9124ZM21.7931 16.6974C22.2904 15.7581 22.5115 14.7266 22.5115 13.6557H18.5115C18.5115 14.1687 18.4086 14.5413 18.2579 14.8259L21.7931 16.6974ZM22.5115 13.6557C22.5115 12.5863 22.2909 11.5532 21.7813 10.619L18.2697 12.5344C18.4081 12.7881 18.5115 13.141 18.5115 13.6557H22.5115ZM21.7931 10.6409C21.3031 9.71544 20.5998 8.96222 19.6966 8.42596L17.6544 11.8654C17.9033 12.0131 18.0999 12.2139 18.2579 12.5124L21.7931 10.6409ZM19.7355 8.44967C18.8065 7.86907 17.7647 7.60567 16.6775 7.60567V11.6057C17.1023 11.6057 17.3925 11.7023 17.6155 11.8417L19.7355 8.44967ZM16.6775 7.60567C15.626 7.60567 14.6205 7.85977 13.7124 8.39896L15.7546 11.8384C15.9985 11.6936 16.289 11.6057 16.6775 11.6057V7.60567ZM13.6884 8.41347C12.8071 8.95362 12.1244 9.70448 11.6429 10.6139L15.1781 12.4854C15.3446 12.1709 15.5439 11.9677 15.7786 11.8239L13.6884 8.41347ZM11.6217 10.6552C11.1565 11.5856 10.9515 12.6021 10.9515 13.6557H14.9515C14.9515 13.1252 15.0526 12.7377 15.1994 12.4441L11.6217 10.6552ZM10.9515 13.6557C10.9515 14.7092 11.1565 15.7257 11.6217 16.6561L15.1994 14.8672C15.0526 14.5736 14.9515 14.1861 14.9515 13.6557H10.9515ZM11.6429 16.6974C12.1244 17.6069 12.8071 18.3577 13.6884 18.8979L15.7786 15.4875C15.5439 15.3436 15.3446 15.1405 15.1781 14.8259L11.6429 16.6974ZM13.7124 18.9124C14.6205 19.4516 15.626 19.7057 16.6775 19.7057V15.7057C16.289 15.7057 15.9985 15.6178 15.7546 15.473L13.7124 18.9124Z" fill="#3469FF" mask="url(#path-3-outside-2_720_150)"/>
<mask id="path-5-outside-3_720_150" maskUnits="userSpaceOnUse" x="6" y="2" width="21" height="26" fill="black">
<rect fill="white" x="6" y="2" width="21" height="26"/>
<path d="M8.9015 25.4V5.258H12.6815V8.066L12.3305 7.256C12.8165 6.518 13.4735 5.951 14.3015 5.555C15.1475 5.141 16.1105 4.934 17.1905 4.934C18.5945 4.934 19.8635 5.276 20.9975 5.96C22.1315 6.644 23.0315 7.571 23.6975 8.741C24.3635 9.893 24.6965 11.189 24.6965 12.629C24.6965 14.051 24.3635 15.347 23.6975 16.517C23.0495 17.687 22.1585 18.614 21.0245 19.298C19.8905 19.982 18.6035 20.324 17.1635 20.324C16.1555 20.324 15.2195 20.144 14.3555 19.784C13.5095 19.406 12.8255 18.857 12.3035 18.137L12.9515 17.3V25.4H8.9015ZM16.6775 16.679C17.4335 16.679 18.0995 16.508 18.6755 16.166C19.2515 15.824 19.7015 15.347 20.0255 14.735C20.3495 14.123 20.5115 13.421 20.5115 12.629C20.5115 11.837 20.3495 11.144 20.0255 10.55C19.7015 9.938 19.2515 9.461 18.6755 9.119C18.0995 8.759 17.4335 8.579 16.6775 8.579C15.9575 8.579 15.3095 8.75 14.7335 9.092C14.1755 9.434 13.7345 9.911 13.4105 10.523C13.1045 11.135 12.9515 11.837 12.9515 12.629C12.9515 13.421 13.1045 14.123 13.4105 14.735C13.7345 15.347 14.1755 15.824 14.7335 16.166C15.3095 16.508 15.9575 16.679 16.6775 16.679Z"/>
</mask>
<path d="M8.9015 25.4H6.9015V27.4H8.9015V25.4ZM8.9015 5.258V3.258H6.9015V5.258H8.9015ZM12.6815 5.258H14.6815V3.258H12.6815V5.258ZM12.6815 8.066L10.8464 8.86121L14.6815 8.066H12.6815ZM12.3305 7.256L10.6602 6.15602L10.0655 7.05907L10.4954 8.05121L12.3305 7.256ZM14.3015 5.555L15.1644 7.35927L15.1725 7.35539L15.1806 7.35143L14.3015 5.555ZM20.9975 5.96L22.0305 4.24742L20.9975 5.96ZM23.6975 8.741L21.9593 9.73042L21.966 9.742L23.6975 8.741ZM23.6975 16.517L21.9594 15.5276L21.9536 15.5378L21.9479 15.548L23.6975 16.517ZM21.0245 19.298L19.9915 17.5854L21.0245 19.298ZM14.3555 19.784L13.5396 21.61L13.5628 21.6204L13.5863 21.6302L14.3555 19.784ZM12.3035 18.137L10.7221 16.9127L9.80465 18.0976L10.6843 19.3109L12.3035 18.137ZM12.9515 17.3H14.9515V11.4496L11.3701 16.0757L12.9515 17.3ZM12.9515 25.4V27.4H14.9515V25.4H12.9515ZM18.6755 16.166L19.6966 17.8857L18.6755 16.166ZM20.0255 14.735L18.2579 13.7992H18.2579L20.0255 14.735ZM20.0255 10.55L18.2579 11.4858L18.2638 11.4968L18.2697 11.5077L20.0255 10.55ZM18.6755 9.119L17.6155 10.815L17.6348 10.8271L17.6544 10.8387L18.6755 9.119ZM14.7335 9.092L13.7124 7.37229L13.7004 7.37946L13.6884 7.3868L14.7335 9.092ZM13.4105 10.523L11.6429 9.58722L11.632 9.60777L11.6217 9.62857L13.4105 10.523ZM13.4105 14.735L11.6217 15.6294L11.632 15.6502L11.6429 15.6708L13.4105 14.735ZM14.7335 16.166L13.6884 17.8712L13.7004 17.8785L13.7124 17.8857L14.7335 16.166ZM10.9015 25.4V5.258H6.9015V25.4H10.9015ZM8.9015 7.258H12.6815V3.258H8.9015V7.258ZM10.6815 5.258V8.066H14.6815V5.258H10.6815ZM14.5166 7.27078L14.1656 6.46078L10.4954 8.05121L10.8464 8.86121L14.5166 7.27078ZM14.0008 8.35598C14.2788 7.93388 14.6513 7.60467 15.1644 7.35927L13.4386 3.75073C12.2957 4.29733 11.3542 5.10212 10.6602 6.15602L14.0008 8.35598ZM15.1806 7.35143C15.7153 7.08975 16.3704 6.934 17.1905 6.934V2.934C15.8506 2.934 14.5797 3.19225 13.4224 3.75857L15.1806 7.35143ZM17.1905 6.934C18.2533 6.934 19.1612 7.18807 19.9645 7.67258L22.0305 4.24742C20.5658 3.36393 18.9358 2.934 17.1905 2.934V6.934ZM19.9645 7.67258C20.8004 8.17678 21.4597 8.85266 21.9594 9.7304L25.4356 7.7516C24.6033 6.28934 23.4626 5.11122 22.0305 4.24742L19.9645 7.67258ZM21.966 9.742C22.4418 10.5649 22.6965 11.5107 22.6965 12.629H26.6965C26.6965 10.8673 26.2852 9.22108 25.429 7.73999L21.966 9.742ZM22.6965 12.629C22.6965 13.7243 22.444 14.6762 21.9594 15.5276L25.4356 17.5064C26.283 16.0178 26.6965 14.3777 26.6965 12.629H22.6965ZM21.9479 15.548C21.4678 16.4149 20.8226 17.0842 19.9915 17.5854L22.0575 21.0106C23.4944 20.1439 24.6312 18.9591 25.4471 17.486L21.9479 15.548ZM19.9915 17.5854C19.1963 18.0651 18.2723 18.324 17.1635 18.324V22.324C18.9347 22.324 20.5847 21.8989 22.0575 21.0106L19.9915 17.5854ZM17.1635 18.324C16.399 18.324 15.7267 18.1887 15.1247 17.9378L13.5863 21.6302C14.7123 22.0993 15.912 22.324 17.1635 22.324V18.324ZM15.1714 17.958C14.6317 17.7169 14.23 17.3868 13.9227 16.9631L10.6843 19.3109C11.421 20.3272 12.3873 21.0951 13.5396 21.61L15.1714 17.958ZM13.885 19.3613L14.533 18.5243L11.3701 16.0757L10.7221 16.9127L13.885 19.3613ZM10.9515 17.3V25.4H14.9515V17.3H10.9515ZM12.9515 23.4H8.9015V27.4H12.9515V23.4ZM16.6775 18.679C17.7456 18.679 18.7734 18.4339 19.6966 17.8857L17.6544 14.4463C17.4256 14.5821 17.1214 14.679 16.6775 14.679V18.679ZM19.6966 17.8857C20.5998 17.3494 21.3031 16.5962 21.7931 15.6708L18.2579 13.7992C18.0999 14.0978 17.9033 14.2986 17.6544 14.4463L19.6966 17.8857ZM21.7931 15.6708C22.2904 14.7314 22.5115 13.6999 22.5115 12.629H18.5115C18.5115 13.1421 18.4086 13.5146 18.2579 13.7992L21.7931 15.6708ZM22.5115 12.629C22.5115 11.5596 22.2909 10.5266 21.7813 9.59229L18.2697 11.5077C18.4081 11.7614 18.5115 12.1144 18.5115 12.629H22.5115ZM21.7931 9.61422C21.3031 8.68877 20.5998 7.93555 19.6966 7.39929L17.6544 10.8387C17.9033 10.9864 18.0999 11.1872 18.2579 11.4858L21.7931 9.61422ZM19.7355 7.423C18.8065 6.84239 17.7647 6.579 16.6775 6.579V10.579C17.1023 10.579 17.3925 10.6756 17.6155 10.815L19.7355 7.423ZM16.6775 6.579C15.626 6.579 14.6205 6.8331 13.7124 7.37229L15.7546 10.8117C15.9985 10.6669 16.289 10.579 16.6775 10.579V6.579ZM13.6884 7.3868C12.8071 7.92695 12.1244 8.67781 11.6429 9.58722L15.1781 11.4588C15.3446 11.1442 15.5439 10.941 15.7786 10.7972L13.6884 7.3868ZM11.6217 9.62857C11.1565 10.559 10.9515 11.5754 10.9515 12.629H14.9515C14.9515 12.0986 15.0526 11.711 15.1994 11.4174L11.6217 9.62857ZM10.9515 12.629C10.9515 13.6826 11.1565 14.699 11.6217 15.6294L15.1994 13.8406C15.0526 13.547 14.9515 13.1594 14.9515 12.629H10.9515ZM11.6429 15.6708C12.1244 16.5802 12.8071 17.331 13.6884 17.8712L15.7786 14.4608C15.5439 14.317 15.3446 14.1138 15.1781 13.7992L11.6429 15.6708ZM13.7124 17.8857C14.6205 18.4249 15.626 18.679 16.6775 18.679V14.679C16.289 14.679 15.9985 14.5911 15.7546 14.4463L13.7124 17.8857Z" fill="#131313" mask="url(#path-5-outside-3_720_150)"/>
</g>
<defs>
<clipPath id="clip0_720_150">
<rect width="32" height="32" fill="white"/>
</clipPath>
</defs>
</svg>