<?xml version="1.0" encoding="UTF-8"?><svg id="Layer_2" xmlns="http://www.w3.org/2000/svg" xmlns:xlink="http://www.w3.org/1999/xlink" viewBox="0 0 245.4992501 66.0242793"><defs><style>.cls-1{fill:url(#New_Gradient_Swatch_1);}.cls-1,.cls-2,.cls-3,.cls-4{stroke-width:0px;}.cls-2{fill:url(#New_Gradient_Swatch_1-2);}.cls-3{fill:#5850eb;}.cls-4{fill:#1f2961;}</style><linearGradient id="New_Gradient_Swatch_1" x1="14.8413403" y1="22.5436904" x2="27.4731407" y2="44.6493411" gradientUnits="userSpaceOnUse"><stop offset="0" stop-color="#909cf7"/><stop offset="1" stop-color="#4b38d8"/></linearGradient><linearGradient id="New_Gradient_Swatch_1-2" x1="7.9837957" y1="-1.3582919" x2="21.0009873" y2="21.4217935" xlink:href="#New_Gradient_Swatch_1"/></defs><g id="Plausible_-_Branding"><g id="CE_Gradient_Logo_-_Purple_Gradient_on_White"><g id="Symbol_-_Purple_Gradient"><path class="cls-1" d="M45.2456059,22.6027536c-1.0911024,10.4557623-10.2327486,18.2272825-20.7452872,18.2272807h-4.047804v9.570007c0,5.3019285-4.2980623,9.5999908-9.5999908,9.5999908H3.3599854c-1.8556687,0-3.3599854-1.5043167-3.3599854-3.3599854v-19.7025146l5.0380685-7.0686343c.9118097-1.2793096,2.587965-1.7566996,4.0369945-1.1497867l2.8657142,1.2002785c1.4444817.6050081,3.1153774.12945,4.0247968-1.1455083l6.7172007-9.417163c.9071158-1.2717288,2.5743943-1.7450816,4.0144283-1.1397262l5.5198678,2.3204187c1.4430268.6066135,3.1137697.1319561,4.0223175-1.1427389l6.4594145-9.0625757c2.0248091,3.5597961,3.0145069,7.7887694,2.5468032,12.2706573Z"/><path class="cls-2" d="M3.2920959,28.8726296c.82329-1.1551271,2.0209115-2.0434967,3.4138697-2.3114381,1.0861554-.2089265,2.156905-.0992829,3.1472499.3155174l2.8649902,1.1999512c.1651001.0691528.3388672.104187.5164795.104187.4365845,0,.8488159-.2124634,1.1026611-.5683594l6.5942097-9.2447929c.8231505-1.154021,2.0204067-2.0410099,3.4124878-2.3083136,1.0821376-.2077892,2.1463585-.0989034,3.1282512.3138487l5.5198364,2.3204346c.1665649.0700684.3417969.1055298.5206909.1055298.4351807,0,.8456421-.2113647,1.0979614-.5653687l6.9192505-9.7077637C37.8272145,3.3644409,31.7802174,0,24.9450124,0H3.3599904C1.5043217,0,.000005,1.5043167.000005,3.3599854v30.1316528l3.2920909-4.6190085Z"/></g><path id="Tagline_-_Purple" class="cls-3" d="M67.839381,61.6763437c-1.0007553,0-1.9159114-.1711984-2.7467271-.5135952-.8295569-.3423968-1.5483384-.8333333-2.1538268-1.4728097-.6067472-.6382175-1.0775428-1.3960222-1.4136455-2.2721551-.3348439-.8761329-.5035247-1.8340886-.5035247-2.8751259,0-1.0020141.1774924-1.9297583.5337362-2.7870091.3562437-.8559919.8496979-1.6075025,1.4816213-2.2532729.6331823-.6445116,1.3708459-1.1455186,2.2142497-1.5017623.842145-.3549849,1.7585599-.5337362,2.7467271-.5337362.6722054,0,1.3242699.0994461,1.9561934.2970796s1.2122356.4707956,1.7396777.8194864c.5261833.3499496.9680262.755287,1.3230111,1.2160121l-1.6402316,1.7975831c-.3423968-.3549849-.694864-.6545821-1.056143-.8987915-.3625378-.2429507-.7389225-.427996-1.1266365-.5526183-.3889728-.1258812-.7880161-.1888218-1.1958711-.1888218-.6067472,0-1.1757301.1132931-1.7094663.3361027-.5337362.2240685-.9944612.541289-1.383434.949144s-.694864.8924975-.9189325,1.4526687-.3361027,1.1820242-.3361027,1.8668177c0,.6986405.1082578,1.3318228.3260322,1.8970292.2177744.5677241.5274421,1.0548842.929003,1.4627392.4015609.4091138.882427.7212991,1.4425982.9390735.5601712.2177744,1.1757301.3260322,1.8479355.3260322.43429,0,.8559919-.0591641,1.2651057-.1774924.407855-.1195871.7867573-.2870091,1.1354481-.5047835.3499496-.2165156.668429-.4707956.9592145-.7603223l1.2638469,2.0354985c-.3159617.3549849-.7376636.6784995-1.2638469.9680262-.5274421.2895267-1.116566.5173716-1.7686304.6822759-.6520645.1636455-1.3016113.2467271-1.9473817.2467271ZM79.8157153,61.6763437c-1.0410373,0-1.9700403-.234139-2.7870091-.7011581-.8169688-.4682779-1.4614804-1.1102719-1.9360524-1.9272407s-.7112286-1.7459718-.7112286-2.7870091c0-1.0397784.2366566-1.9687815.7112286-2.7857503s1.1190836-1.4589627,1.9360524-1.9272407c.8169688-.4670191,1.7459718-.7011581,2.7870091-.7011581,1.0271903,0,1.9498993.234139,2.7668681.7011581.81571.4682779,1.4589627,1.1102719,1.9259819,1.9272407.4682779.8169688.7024169,1.7459718.7024169,2.7857503,0,1.0410373-.234139,1.9700403-.7024169,2.7870091-.4670191.8169688-1.1102719,1.4589627-1.9259819,1.9272407-.8169688.4670191-1.7396777.7011581-2.7668681.7011581ZM79.8157153,59.522517c.5664653,0,1.0699899-.1447633,1.5118328-.4355488.4405841-.2895267.7905337-.6772407,1.0473313-1.1656596.2567976-.4871601.3789023-1.0397784.3650554-1.6603726.0138469-.6319235-.1082578-1.1920947-.3650554-1.6792548s-.6067472-.8723565-1.0473313-1.1555891c-.4418429-.2832326-.9453676-.4254783-1.5118328-.4254783s-1.0775428.1422457-1.5319738.4254783-.8068983.6709466-1.0574018,1.1656596c-.2505035.4934542-.3751259,1.0511078-.3751259,1.6691843,0,.6205942.1246224,1.1732125.3751259,1.6603726.2505035.4884189.6029708.8761329,1.0574018,1.1656596.454431.2907855.9655086.4355488,1.5319738.4355488ZM87.344668,61.4787103v-10.414149h2.3917422l.0390232,2.0946626-.3952669.1573515c.1183283-.3423968.2958207-.6621349.5337362-.9579557.2366566-.2970796.5198892-.5538771.8496979-.7703927.3285498-.2177744.6784995-.3889728,1.0473313-.514854.3688318-.1246224.7439577-.1875629,1.1266365-.1875629.5664653,0,1.0699899.0893756,1.5118328.2668681.4405841.1787513.8094159.4582075,1.1064955.8396274.2958207.3826788.5161128.8698389.6621349,1.4627392l-.3751259-.0793051.1573515-.3159617c.1447633-.3159617.3486908-.6029708.6130413-.8597684.2630916-.2567976.5589124-.4871601.888721-.6910876s.6747231-.3587613,1.0372608-.4645015.7212991-.1586103,1.0775428-.1586103c.7905337,0,1.4488922.1586103,1.9763343.474572.5261833.3159617.9214502.7968278,1.1858006,1.4425982.2630916.6457704.3952669,1.4425982.3952669,2.3917422v6.2839879h-2.4509063v-6.1266365c0-.5261833-.0692346-.9617321-.2077039-1.3041289s-.3486908-.5954179-.6319235-.7603223-.6356999-.2467271-1.0574018-.2467271c-.3298087,0-.641994.0553877-.9390735.167422-.2958207.1120342-.5501007.2706445-.7603223.474572-.2114804.2039275-.3751259.4380665-.494713.7011581-.1183283.2643505-.1774924.5538771-.1774924.8698389v6.2248238h-2.4509063v-6.1455186c0-.501007-.0717523-.9189325-.2165156-1.2550352s-.3562437-.5929003-.6331823-.7716516c-.2756798-.1774924-.6117825-.2656093-1.0070493-.2656093-.3298087,0-.6394763.0553877-.929003.167422s-.5400302.2668681-.7515106.4645015c-.2102216.1976334-.3751259.427996-.4934542.6910876-.1183283.2643505-.1774924.5538771-.1774924.8698389v6.2449648h-2.4509063ZM105.8416469,61.4787103v-10.414149h2.3917422l.0390232,2.0946626-.3952669.1573515c.1183283-.3423968.2958207-.6621349.5337362-.9579557.2366566-.2970796.5198892-.5538771.8496979-.7703927.3285498-.2177744.6784995-.3889728,1.0473313-.514854.3688318-.1246224.7439577-.1875629,1.1266365-.1875629.5664653,0,1.0699899.0893756,1.5118328.2668681.4405841.1787513.8094159.4582075,1.1064955.8396274.2958207.3826788.5161128.8698389.6621349,1.4627392l-.3751259-.0793051.1573515-.3159617c.1447633-.3159617.3486908-.6029708.6130413-.8597684.2630916-.2567976.5589124-.4871601.888721-.6910876s.6747231-.3587613,1.0372608-.4645015.7212991-.1586103,1.0775428-.1586103c.7905337,0,1.4488922.1586103,1.9763343.474572.5261833.3159617.9214502.7968278,1.1858006,1.4425982.2630916.6457704.3952669,1.4425982.3952669,2.3917422v6.2839879h-2.4509063v-6.1266365c0-.5261833-.0692346-.9617321-.2077039-1.3041289s-.3486908-.5954179-.6319235-.7603223-.6356999-.2467271-1.0574018-.2467271c-.3298087,0-.641994.0553877-.9390735.167422-.2958207.1120342-.5501007.2706445-.7603223.474572-.2114804.2039275-.3751259.4380665-.494713.7011581-.1183283.2643505-.1774924.5538771-.1774924.8698389v6.2248238h-2.4509063v-6.1455186c0-.501007-.0717523-.9189325-.2165156-1.2550352s-.3562437-.5929003-.6331823-.7716516c-.2756798-.1774924-.6117825-.2656093-1.0070493-.2656093-.3298087,0-.6394763.0553877-.929003.167422s-.5400302.2668681-.7515106.4645015c-.2102216.1976334-.3751259.427996-.4934542.6910876-.1183283.2643505-.1774924.5538771-.1774924.8698389v6.2449648h-2.4509063ZM127.9942148,61.6763437c-.7502518,0-1.4023162-.167422-1.9561934-.5035247-.5538771-.3361027-.9755791-.8169688-1.2651057-1.4425982s-.43429-1.3733635-.43429-2.2432024v-6.4224572h2.4307654v5.908862c0,.5526183.0855992,1.0246727.2567976,1.4123867.1711984.3889728.4217019.68857.7515106.8987915.3285498.2114804.7238167.3172205,1.1858006.3172205.3423968,0,.6545821-.0566465.9378147-.1686808s.5299597-.2693857.7414401-.474572c.2102216-.2039275.3751259-.4468781.4934542-.7301108.1195871-.2832326.1787513-.5903827.1787513-.9189325v-6.2449648h2.4307654v10.414149h-2.3716012l-.040282-2.1739678.4355488-.2366566c-.1586103.501007-.4254783.9453676-.8006042,1.3330816-.3751259.3889728-.8207452.6986405-1.3343404.929003s-1.0599194.3461732-1.6402316.3461732ZM136.5906398,61.4787103v-10.414149h2.3716012l.040282,2.1336858-.454431.2379154c.1309164-.474572.387714-.9063444.7703927-1.2953172.3814199-.387714.835851-.7011581,1.3632931-.9378147.5274421-.2379154,1.0674723-.3562437,1.6200906-.3562437.7905337,0,1.4526687.1586103,1.9864048.474572.5337362.3159617.9352971.7905337,1.2059416,1.4224572.2693857.6319235.4053374,1.4224572.4053374,2.3716012v6.3632931h-2.4307654v-6.1858006c0-.5261833-.0730111-.9642497-.2177744-1.3141994-.1447633-.3486908-.3688318-.6054884-.6722054-.7703927s-.6722054-.240433-1.1064955-.2278449c-.3562437,0-.6822759.0566465-.9780967.1686808-.2970796.1120342-.5538771.2706445-.7703927.474572-.2177744.2039275-.3889728.4380665-.514854.7011581-.1246224.2630916-.1875629.5538771-.1875629.8698389v6.2839879h-2.4307654ZM150.0888775,48.8503115c-.4871601,0-.8660624-.1208459-1.1367069-.3650554-.2693857-.2442095-.4040785-.5891239-.4040785-1.0372608,0-.4217019.1372105-.7640987.414149-1.0284491.2769386-.2630916.6520645-.3952669,1.1266365-.3952669.501007,0,.8862034.1221047,1.1555891.3663142.2706445.2442095.4053374.5954179.4053374,1.0574018,0,.407855-.1384693.7439577-.414149,1.0070493-.2769386.2643505-.6596173.3952669-1.1467774.3952669ZM148.9030769,61.4787103v-10.414149h2.4307654v10.414149h-2.4307654ZM153.487669,53.3165754v-2.2520141h6.7598187v2.2520141h-6.7598187ZM155.5433085,61.4787103v-13.0626888h2.4307654v13.0626888h-2.4307654ZM163.6840436,66.0242793l2.2142497-5.1183283.0188822,1.6200906-5.1384693-11.4614804h2.8071501l2.8650554,6.7975831c.0918933.1711984.1850453.3990433.2769386.6822759s.1711984.5626888.2366566.8396274l-.4934542.1573515c.0918933-.2492447.1900806-.5161128.2958207-.7993454s.2039275-.5765358.2970796-.8799094l2.4496475-6.7975831h2.8260322l-6.1253776,14.959718h-2.5302115ZM180.1065008,61.4787103v-13.8330816h9.050856v2.3313192h-6.5219033v9.1704431h6.6012085v2.3313192h-9.1301611ZM181.2923014,55.5497073v-2.2922961h6.8567472v2.2922961h-6.8567472ZM196.114809,61.6763437c-.922709,0-1.7497482-.234139-2.4811178-.7011581-.7313696-.4682779-1.310423-1.1064955-1.7384189-1.9171702-.427996-.8106747-.641994-1.7421954-.641994-2.7970796,0-1.0397784.2102216-1.9687815.6319235-2.7857503s.9982377-1.4589627,1.7296073-1.9272407c.7301108-.4670191,1.5571501-.7011581,2.479859-.7011581.4997482,0,.9843907.0793051,1.4526687.2366566.4670191.1586103.8849446.3726083,1.2550352.6432528.367573.2693857.6621349.5689829.8786506.8987915.2177744.3298087.3398792.6722054.3663142,1.0271903l-.6520645.0793051v-6.8768882h2.4307654v14.6236153h-2.352719l-.0591641-2.4509063.474572.040282c-.0138469.3285498-.1283988.6457704-.3461732.9478852-.2165156.3033736-.4972306.5803122-.8396274.8308157s-.7414401.4506546-1.1958711.601712c-.454431.1523162-.9189325.2278449-1.3922457.2278449ZM196.5881222,59.6207043c.5664653,0,1.0674723-.1447633,1.5017623-.43429.4355488-.2895267.7741692-.6847936,1.0183787-1.1858006.2429507-.501007.3650554-1.0800604.3650554-1.7396777,0-.6445116-.1221047-1.2210473-.3650554-1.7283484-.2442095-.5073011-.5828298-.902568-1.0183787-1.1858006-.43429-.2832326-.9352971-.4254783-1.5017623-.4254783s-1.0662135.1422457-1.5017623.4254783c-.43429.2832326-.7741692.6784995-1.0171198,1.1858006-.2442095.5073011-.3663142,1.0838369-.3663142,1.7283484,0,.6596173.1221047,1.2386707.3663142,1.7396777.2429507.501007.5828298.8962739,1.0171198,1.1858006.4355488.2895267.9352971.43429,1.5017623.43429ZM206.054386,48.8503115c-.4871601,0-.8660624-.1208459-1.1367069-.3650554-.2693857-.2442095-.4040785-.5891239-.4040785-1.0372608,0-.4217019.1372105-.7640987.414149-1.0284491.2769386-.2630916.6520645-.3952669,1.1266365-.3952669.501007,0,.8862034.1221047,1.1555891.3663142.2706445.2442095.4053374.5954179.4053374,1.0574018,0,.407855-.1384693.7439577-.414149,1.0070493-.2769386.2643505-.6596173.3952669-1.1467774.3952669ZM204.8685854,61.4787103v-10.414149h2.4307654v10.414149h-2.4307654ZM209.4531776,53.3165754v-2.2520141h6.7598187v2.2520141h-6.7598187ZM211.5088171,61.4787103v-13.0626888h2.4307654v13.0626888h-2.4307654ZM219.5312239,48.8503115c-.4871601,0-.8660624-.1208459-1.1367069-.3650554-.2693857-.2442095-.4040785-.5891239-.4040785-1.0372608,0-.4217019.1372105-.7640987.414149-1.0284491.2769386-.2630916.6520645-.3952669,1.1266365-.3952669.501007,0,.8862034.1221047,1.1555891.3663142.2706445.2442095.4053374.5954179.4053374,1.0574018,0,.407855-.1384693.7439577-.414149,1.0070493-.2769386.2643505-.6596173.3952669-1.1467774.3952669ZM218.3454233,61.4787103v-10.414149h2.4307654v10.414149h-2.4307654ZM228.6223619,61.6763437c-1.0410373,0-1.9700403-.234139-2.7870091-.7011581-.8169688-.4682779-1.4614804-1.1102719-1.9360524-1.9272407-.474572-.8169688-.7112286-1.7459718-.7112286-2.7870091,0-1.0397784.2366566-1.9687815.7112286-2.7857503.474572-.8169688,1.1190836-1.4589627,1.9360524-1.9272407.8169688-.4670191,1.7459718-.7011581,2.7870091-.7011581,1.0271903,0,1.9498993.234139,2.7668681.7011581.81571.4682779,1.4589627,1.1102719,1.9259819,1.9272407.4682779.8169688.7024169,1.7459718.7024169,2.7857503,0,1.0410373-.234139,1.9700403-.7024169,2.7870091-.4670191.8169688-1.1102719,1.4589627-1.9259819,1.9272407-.8169688.4670191-1.7396777.7011581-2.7668681.7011581ZM228.6223619,59.522517c.5664653,0,1.0699899-.1447633,1.5118328-.4355488.4405841-.2895267.7905337-.6772407,1.0473313-1.1656596.2567976-.4871601.3789023-1.0397784.3650554-1.6603726.0138469-.6319235-.1082578-1.1920947-.3650554-1.6792548s-.6067472-.8723565-1.0473313-1.1555891c-.4418429-.2832326-.9453676-.4254783-1.5118328-.4254783s-1.0775428.1422457-1.5319738.4254783-.8068983.6709466-1.0574018,1.1656596c-.2505035.4934542-.3751259,1.0511078-.3751259,1.6691843,0,.6205942.1246224,1.1732125.3751259,1.6603726.2505035.4884189.6029708.8761329,1.0574018,1.1656596.454431.2907855.9655086.4355488,1.5319738.4355488ZM236.1903377,61.4787103v-10.414149h2.3716012l.040282,2.1336858-.454431.2379154c.1309164-.474572.387714-.9063444.7703927-1.2953172.3814199-.387714.835851-.7011581,1.3632931-.9378147.5274421-.2379154,1.0674723-.3562437,1.6200906-.3562437.7905337,0,1.4526687.1586103,1.9864048.474572.5337362.3159617.9352971.7905337,1.2059416,1.4224572.2693857.6319235.4053374,1.4224572.4053374,2.3716012v6.3632931h-2.4307654v-6.1858006c0-.5261833-.0730111-.9642497-.2177744-1.3141994-.1447633-.3486908-.3688318-.6054884-.6722054-.7703927s-.6722054-.240433-1.1064955-.2278449c-.3562437,0-.6822759.0566465-.9780967.1686808-.2970796.1120342-.5538771.2706445-.7703927.474572-.2177744.2039275-.3889728.4380665-.514854.7011581-.1246224.2630916-.1875629.5538771-.1875629.8698389v6.2839879h-2.4307654Z"/><path id="Wordmark_-_Black" class="cls-4" d="M61.0882377,37.1350405V6.5864979h12.9620074c1.8328266,0,3.4764581.4289137,4.9308947,1.286741,1.4544366.8589023,2.611106,2.0295464,3.4700083,3.5130072.8578273,1.4845358,1.287816,3.1571916,1.287816,5.0190424,0,1.89195-.4299886,3.59363-1.287816,5.1061151-.8589023,1.51356-2.0155717,2.7132283-3.4700083,3.6000799-1.4544366.8879265-3.0980681,1.3318898-4.9308947,1.3318898h-6.4154304v10.6916674h-6.546577ZM67.547742,20.5514538h5.7607728c.6976566,0,1.32329-.1816702,1.8758254-.5460856.5525354-.3633404.9964987-.8503025,1.3318898-1.4619614.3332412-.6105839.5020117-1.3093154.5020117-2.0940447,0-.7858042-.1687705-1.4694862-.5020117-2.0510458-.3353911-.5815596-.7793544-1.0480973-1.3318898-1.3974631-.5525354-.3482908-1.1781689-.5235112-1.8758254-.5235112h-5.7607728v8.0741116ZM87.8840546,37.1350405V4.840744h6.1972112v32.2942965h-6.1972112ZM107.6979309,37.571479c-1.9209742,0-3.6516785-.5235112-5.1931878-1.5716085-1.5425842-1.0470223-2.7648269-2.4724347-3.6667281-4.276237-.9019012-1.8038023-1.3523143-3.8688228-1.3523143-6.1972112,0-2.3273135.4579379-4.3923339,1.3748887-6.1972112.9158758-1.8038023,2.1596179-3.2141651,3.7312264-4.2332381,1.5705335-1.0179981,3.3603612-1.5275346,5.3673331-1.5275346,1.13517,0,2.1746675.1676956,3.1206425.5020117.9449.3353911,1.7747781.793329,2.4874843,1.3748887.7127062.5826346,1.3157652,1.2512669,1.8113271,2.006972.4944869.757855.8438527,1.5716085,1.0470223,2.4444854l-1.3093154-.2182192v-5.6296262h6.1542124v23.0860899h-6.2412851v-5.5425535l1.3963881-.1311465c-.2332688.8148285-.6105839,1.5866581-1.134095,2.3133389-.5235112.7277558-1.171719,1.3748887-1.9424737,1.9424737-.7707546.56651-1.6361068,1.0179981-2.5960564,1.3523143-.9610246.3343162-1.9790227.5020117-3.0550693.5020117ZM109.3996109,32.2030709c1.1631193,0,2.1821923-.2751927,3.0550693-.8288031.8728769-.5525354,1.5490341-1.3308148,2.0295464-2.3348383.4794373-1.0040235.720231-2.1746675.720231-3.5130072,0-1.3093154-.2407936-2.45846-.720231-3.4474339-.4805123-.9889739-1.1566694-1.7672533-2.0295464-2.3348383s-1.89195-.8513775-3.0550693-.8513775c-1.134095,0-2.1316687.2837925-2.989496.8513775s-1.5350594,1.3458644-2.0295464,2.3348383c-.4944869.9889739-.7417304,2.1381185-.7417304,3.4474339,0,1.3383396.2472435,2.5089837.7417304,3.5130072s1.171719,1.7823029,2.0295464,2.3348383c.8578273.5536104,1.855401.8288031,2.989496.8288031ZM134.0992332,37.571479c-1.6877054,0-3.1346172-.3708652-4.3418103-1.1125956-1.2082681-.7417304-2.1391935-1.8038023-2.7938512-3.1862158-.6535827-1.3813385-.9814491-3.0475445-.9814491-4.996468v-14.227249h6.1972112v13.2232255c0,1.0470223.1741454,1.9564483.5235112,2.7272029.3493658.7718296.8438527,1.360914,1.4834608,1.7672533.6396081.4084892,1.4254123.6116588,2.3574127.6116588.6686323,0,1.286741-.1096471,1.854326-.3278663s1.0620719-.529961,1.4834608-.9373752c.4213889-.4074142.7492552-.8879265.982524-1.4404619.2321939-.5525354.3493658-1.1491446.3493658-1.7898277v-13.8338094h6.1972112v23.0860899h-5.8919193l-.2182192-4.7567493,1.134095-.5235112c-.3482908,1.0760466-.9309254,2.0510458-1.7457539,2.9239227s-1.7887527,1.5565589-2.9239227,2.0510458c-1.134095.4944869-2.3563377.7417304-3.6656531.7417304ZM160.5467592,37.571479c-2.1531681,0-4.0666175-.3568906-5.7392733-1.0695967-1.6726558-.7127062-3.0185202-1.6941552-4.0365183-2.9454222l3.8838724-3.3162874c.8728769.9599496,1.8618508,1.6511564,2.9679966,2.0725452,1.1050708.4224638,2.2101416.6331583,3.3162874.6331583.4364385,0,.8363279-.0505237,1.2007433-.152646.3633404-.1021223.6761571-.2472435.9373752-.4364385.2622931-.189195.4590129-.4213889.5901594-.6987315.1300716-.2762677.1956448-.5740348.1956448-.8943764,0-.6396081-.2531351-1.1476224-.7858042-1.4845358-.2860602-.1809331-.7417304-.3708652-1.3523143-.5890844s-1.3963881-.4579379-2.3563377-.720231c-1.4845358-.377315-2.7433275-.8212783-3.7753002-1.3308148-1.0330477-.5084616-1.854326-1.0835714-2.4659848-1.7231795-.5235112-.6116588-.9234006-1.2727664-1.1996683-1.9865475-.2773427-.7116312-.414939-1.5049602-.414939-2.3778372,0-1.0470223.2321939-2.0005221.6987315-2.8583495.4643877-.8578273,1.1125956-1.5931079,1.9413987-2.2036918.8298781-.6116588,1.7823029-1.0835714,2.8583495-1.4189625,1.0760466-.3343162,2.2112166-.5020117,3.404435-.5020117,1.1921435,0,2.3563377.1461961,3.4915077.4364385,1.134095.2913173,2.1886422.7062563,3.1636414,1.2437421.9749992.5385608,1.8253018,1.171719,2.5530575,1.8983998l-3.3162874,3.6656531c-.5235112-.493412-1.1136706-.9449-1.7672533-1.3523143-.6546577-.4074142-1.3318898-.7266808-2.0295464-.9599496-.6987315-.2332688-1.324365-.3493658-1.8769004-.3493658-.4955619,0-.9384502.0440738-1.3308148.1311465-.3934396.0870727-.720231.225744-.982524.4138641-.2612181.19027-.4579379.414939-.5890844.6772321-.1311465.2612181-.1956448.5525354-.1956448.8728769s.0795479.6256335.2397187.9158758c.1590958.2913173.3848398.5385608.6761571.7417304.3203415.1752204.7922541.37839,1.4189625.6116588.6245585.2332688,1.475936.4944869,2.5530575.7858042,1.3963881.37839,2.5810068.7997789,3.556006,1.2652416s1.7522037,1.0040235,2.3348383,1.6146073c.4944869.5235112.8578273,1.1201204,1.0910962,1.7887527.2321939.6697073.3493658,1.4125127.3493658,2.2262662,0,1.4254123-.3998894,2.6917289-1.2007433,3.7967997-.7997789,1.1061458-1.8983998,1.9790227-3.2947879,2.6186308-1.3963881.6396081-2.9669216.9599496-4.7126755.9599496ZM176.8669779,9.3352003c-1.1932185,0-2.1241439-.2977671-2.7927762-.8943764-.6697073-.5955343-1.0040235-1.4329371-1.0040235-2.5089837,0-.9889739.341841-1.7962775,1.0255229-2.422986.6836819-.6245585,1.6081575-.9373752,2.7712768-.9373752,1.1932185,0,2.1241439.2977671,2.7938512.8943764.6686323.5966092,1.0029485,1.4178875,1.0029485,2.4659848,0,.9889739-.341841,1.8038023-1.0255229,2.4434104-.6836819.6406831-1.6070825.9599496-2.7712768.9599496ZM173.8129836,37.1350405V14.0489507h6.1961362v23.0860899h-6.1961362ZM199.0812658,37.571479c-1.0190731,0-2.0080469-.1461961-2.9679966-.4364385s-1.8328266-.6912067-2.6186308-1.1996683c-.7858042-.5095365-1.439387-1.0910962-1.9639731-1.7457539-.5235112-.6546577-.8578273-1.3318898-1.0029485-2.0295464l1.3963881-.5235112-.3052919,5.411407h-5.8489204V4.840744h6.2412851v14.6196136l-1.2222427-.4805123c.1752204-.6976566.5084616-1.3738137,1.0040235-2.0284714.4944869-.6546577,1.1190454-1.2362173,1.8769004-1.7457539.755705-.5095365,1.5845081-.909426,2.4874843-1.2007433.9008262-.2902423,1.8328266-.4364385,2.7927762-.4364385,2.006972,0,3.8032495.5170613,5.3899076,1.5490341,1.5855831,1.0330477,2.8293252,2.4520102,3.7312264,4.2558125.9008262,1.8038023,1.3523143,3.8698977,1.3523143,6.1972112s-.4439633,4.3934089-1.3308148,6.1961362c-.8879265,1.8048773-2.1166191,3.2227648-3.6871526,4.2558125-1.5716085,1.0330477-3.3463866,1.5490341-5.3243343,1.5490341ZM197.59673,32.2912186c1.1641942,0,2.1746675-.2837925,3.0335698-.8513775.8578273-.567585,1.5339845-1.3533892,2.0295464-2.3563377.4944869-1.0040235.7417304-2.1746675.7417304-3.5130072,0-1.3093154-.2397187-2.4724347-.720231-3.4915077-.4805123-1.0179981-1.1566694-1.8038023-2.0295464-2.3563377s-1.890875-.8298781-3.0550693-.8298781c-1.1631193,0-2.1811174.2773427-3.0539943.8298781-.8728769.5525354-1.550109,1.3383396-2.0295464,2.3563377-.4805123,1.0190731-.720231,2.1821923-.720231,3.4915077,0,1.3383396.2397187,2.5089837.720231,3.5130072.4794373,1.0029485,1.1566694,1.7887527,2.0295464,2.3563377s1.890875.8513775,3.0539943.8513775ZM213.263366,37.1350405V4.840744h6.1972112v32.2942965h-6.1972112ZM235.3895062,37.571479c-2.5025339,0-4.691176-.5084616-6.5670014-1.5275346-1.8769004-1.0179981-3.3324119-2.4143862-4.3643847-4.1891643-1.0330477-1.7747781-1.5490341-3.8118493-1.5490341-6.1101385,0-1.8038023.2902423-3.4474339.871802-4.9319697.5826346-1.4834608,1.3974631-2.7702018,2.4444854-3.861298,1.0470223-1.0910962,2.2907645-1.9349489,3.7312264-2.5315581,1.4404619-.5966092,3.0034706-.8943764,4.691176-.8943764,1.5716085,0,3.026045.2913173,4.3643847.8728769,1.3383396.5815596,2.4939341,1.3888633,3.4700083,2.421911.9739243,1.0330477,1.7231795,2.2552904,2.2466906,3.6656531.5245861,1.4114377.75678,2.9314475.6987315,4.5600295l-.0440738,1.9209742h-18.5475598l-1.0029485-3.7967997h14.4443933l-.6976566.7858042v-.9610246c-.0591234-.7847293-.3128167-1.4899106-.7643048-2.1166191-.4514881-.6245585-1.0255229-1.1190454-1.7231795-1.4834608-.6987315-.3633404-1.4845358-.5450106-2.3574127-.5450106-1.2802912,0-2.3638625.2472435-3.2507141.7417304-.8879265.4944869-1.5640837,1.2211677-2.0295464,2.1821923-.4654627.9599496-.6976566,2.1241439-.6976566,3.4904328,0,1.3974631.2977671,2.6046562.8943764,3.6226543.5955343,1.0190731,1.4404619,1.8113271,2.5315581,2.3789121,1.0900212.56651,2.3778372.8503025,3.861298.8503025,1.0179981,0,1.9489235-.1590958,2.7938512-.4794373.8427777-.3203415,1.7457539-.8728769,2.7057035-1.6586812l2.9669216,4.1461654c-.8438527.75678-1.7747781,1.3899383-2.7927762,1.8983998-1.0190731.5095365-2.0660954.8943764-3.142142,1.1566694-1.0771215.2612181-2.1381185.3923646-3.1862158.3923646Z"/></g></g></svg>
