<svg xmlns="http://www.w3.org/2000/svg" fill="none" viewBox="0 0 1080 1080"><path fill="#fff" d="M0 0h1080v1080H0z"></path><path fill="#000" d="M976 284.628q0 95.414-49.38 175.112-49.379 79.699-143.65 130.212-94.27 50.512-224.453 59.493L510.26 919.971Q482.204 1076 357.632 1076q-68.459 0-126.816-40.41-57.235-40.41-92.026-123.477Q104 829.048 104 707.816q0-227.871 72.947-386.145 74.07-159.396 197.519-237.973Q499.037 4 648.299 4q105.492 0 178.44 37.043 74.069 37.042 111.104 101.026Q976 204.929 976 284.628M578.718 533.826q230.064-29.185 230.065-239.095 0-74.086-49.38-120.109-48.258-47.145-150.384-47.146-115.593 0-202.007 72.964-85.293 72.963-132.428 203.175-46.013 129.088-46.013 295.221 0 69.596 13.468 123.476 14.59 53.88 35.912 84.189 22.446 29.185 42.646 29.185 28.057 0 42.646-77.454l37.035-212.154q-43.769-6.736-38.157-5.613-33.668-5.613-43.768-20.205-10.101-15.715-10.101-39.288 0-24.696 13.467-39.288 14.59-14.593 39.28-14.593 11.223 0 16.834 1.123 26.934 4.49 41.524 5.612 14.589-87.556 41.523-234.605 6.734-38.166 30.302-53.881 24.689-16.837 57.235-16.837 37.035 0 52.746 14.592 16.834 13.47 16.834 43.778 0 17.96-2.244 29.186z"></path><path fill="#fff" d="m304.835 467.541 121.264 22.411-14.248 90.985-20.76 118.879-125.003-23.173z"></path></svg>
