<?xml version="1.0" encoding="UTF-8" standalone="no"?>
<!DOCTYPE svg PUBLIC "-//W3C//DTD SVG 1.1//EN" "http://www.w3.org/Graphics/SVG/1.1/DTD/svg11.dtd">
<svg width="100%" height="100%" viewBox="0 0 370 410" version="1.1" xmlns="http://www.w3.org/2000/svg" xmlns:xlink="http://www.w3.org/1999/xlink" xml:space="preserve" xmlns:serif="http://www.serif.com/" style="fill-rule:evenodd;clip-rule:evenodd;stroke-linejoin:round;stroke-miterlimit:2;">
    <g transform="matrix(1,0,0,1,-11583.9,-1689)">
        <g transform="matrix(1,0,0,1,-0.097081,-0.236295)">
            <g transform="matrix(12.8208,0,0,12.8208,11584,1689.24)">
                <path d="M4.902,4.617C4.924,4.976 4.955,5.38 4.991,5.842L6.282,22.516C6.426,24.379 6.498,25.311 6.916,25.995C7.283,26.596 7.832,27.066 8.482,27.337C9.222,27.644 10.154,27.572 12.018,27.428L24.788,26.44C25.997,26.346 26.813,26.283 27.424,26.136C27.219,26.617 26.903,27.046 26.498,27.385C25.885,27.9 24.974,28.11 23.153,28.531L10.672,31.41C8.85,31.83 7.939,32.04 7.162,31.846C6.478,31.675 5.866,31.292 5.413,30.752C4.898,30.138 4.688,29.228 4.268,27.406L0.509,11.111C0.089,9.289 -0.121,8.379 0.073,7.601C0.243,6.917 0.626,6.305 1.166,5.852C1.78,5.337 2.691,5.127 4.512,4.707L4.902,4.617Z" style="fill:rgb(97,43,211);fill-rule:nonzero;"/>
                <path d="M18.098,14.088C17.864,14.346 17.565,14.489 17.199,14.517C16.947,14.537 16.739,14.504 16.577,14.417C16.414,14.317 16.293,14.213 16.214,14.106L15.76,8.23C15.845,7.87 16,7.597 16.226,7.41C16.451,7.209 16.689,7.098 16.942,7.079C17.04,7.071 17.176,7.089 17.349,7.132C17.536,7.174 17.729,7.3 17.929,7.511C18.128,7.708 18.308,8.026 18.469,8.465C18.644,8.904 18.762,9.509 18.821,10.281C18.858,10.759 18.86,11.246 18.828,11.743C18.809,12.225 18.737,12.668 18.613,13.073C18.503,13.477 18.332,13.815 18.098,14.088Z" style="fill:white;fill-rule:nonzero;"/>
                <path d="M5.956,5.092C5.857,3.82 5.808,3.184 6.018,2.679C6.203,2.235 6.523,1.861 6.934,1.61C7.4,1.325 8.036,1.275 9.308,1.177L23.423,0.085C24.695,-0.014 25.331,-0.063 25.836,0.147C26.281,0.332 26.655,0.652 26.906,1.063C27.191,1.529 27.24,2.165 27.339,3.437L28.733,21.453C28.831,22.725 28.88,23.361 28.671,23.866C28.486,24.311 28.165,24.685 27.755,24.936C27.288,25.221 26.652,25.27 25.38,25.369L11.265,26.461C9.993,26.559 9.357,26.609 8.852,26.399C8.408,26.214 8.034,25.893 7.783,25.483C7.498,25.016 7.448,24.38 7.35,23.108L5.956,5.092ZM15.631,6.566L15.509,4.986L12.476,5.22L13.758,21.797L16.732,20.804L16.336,15.686C16.506,15.871 16.751,16.028 17.072,16.159C17.392,16.275 17.819,16.313 18.352,16.272C19.096,16.214 19.702,16.005 20.168,15.644C20.648,15.268 21.014,14.802 21.268,14.245C21.521,13.689 21.678,13.069 21.738,12.387C21.813,11.703 21.824,11.024 21.772,10.35C21.699,9.409 21.539,8.616 21.291,7.972C21.044,7.327 20.736,6.821 20.369,6.454C20.014,6.071 19.612,5.806 19.163,5.657C18.728,5.507 18.271,5.45 17.794,5.487C17.274,5.528 16.839,5.653 16.488,5.864C16.136,6.061 15.85,6.294 15.631,6.566Z" style="fill:white;"/>
            </g>
        </g>
    </g>
</svg>
