<?xml version="1.0" encoding="UTF-8"?><svg id="Layer_1" xmlns="http://www.w3.org/2000/svg" xmlns:xlink="http://www.w3.org/1999/xlink" viewBox="0 0 1920 296"><defs><style>.cls-1{fill:none;}.cls-1,.cls-2,.cls-3,.cls-4{stroke-width:0px;}.cls-2{fill:url(#linear-gradient);}.cls-3{fill:#000;}.cls-4{fill:url(#linear-gradient-2);}</style><linearGradient id="linear-gradient" x1="93.53" y1="61.81" x2="350.81" y2="210.36" gradientUnits="userSpaceOnUse"><stop offset="0" stop-color="#05f"/><stop offset="1" stop-color="#00d5ff"/></linearGradient><linearGradient id="linear-gradient-2" x1="284.87" y1="203.46" x2="27.58" y2="54.92" gradientUnits="userSpaceOnUse"><stop offset="0" stop-color="#05f"/><stop offset="1" stop-color="#a0f"/></linearGradient></defs><path class="cls-1" d="M718.2,125.37c-9.5,0-17.69,3.63-24.56,10.9-6.88,7.27-10.32,16.23-10.32,26.89s3.44,19.62,10.32,26.89c6.88,7.27,15.07,10.9,24.56,10.9s17.68-3.63,24.56-10.9c6.88-7.27,10.32-16.23,10.32-26.89s-3.44-19.62-10.32-26.89c-6.88-7.27-15.07-10.9-24.56-10.9Z"/><path class="cls-1" d="M1118.84,129.87c-5.72-4.94-12.74-7.41-21.07-7.41s-15.41,2.42-21.22,7.27c-5.81,4.85-9.88,11.15-12.21,18.9h65.4c-1.55-7.56-5.19-13.81-10.9-18.75Z"/><path class="cls-1" d="M555.8,70.14h-40.69v58.14h40.69c8.72,0,15.99-2.81,21.8-8.43,5.81-5.62,8.72-12.5,8.72-20.64s-2.91-15.01-8.72-20.64c-5.81-5.62-13.08-8.43-21.8-8.43Z"/><path class="cls-3" d="M609.28,50.52c-13.76-13.08-31.1-19.62-52.03-19.62h-85.75v203.48h43.6v-66.86h42.15c20.93,0,38.27-6.54,52.03-19.62,13.76-13.08,20.64-29.31,20.64-48.69s-6.88-35.61-20.64-48.69ZM577.6,119.85c-5.81,5.62-13.08,8.43-21.8,8.43h-40.69v-58.14h40.69c8.72,0,15.99,2.81,21.8,8.43,5.81,5.62,8.72,12.5,8.72,20.64s-2.91,15.02-8.72,20.64Z"/><path class="cls-3" d="M718.2,89.03c-20.35,0-38.03,7.41-53.05,22.24-15.02,14.83-22.53,32.12-22.53,51.89s7.51,37.06,22.53,51.89c15.02,14.83,32.7,22.24,53.05,22.24s38.03-7.41,53.05-22.24c15.02-14.83,22.53-32.12,22.53-51.89s-7.51-37.06-22.53-51.89c-15.02-14.82-32.7-22.24-53.05-22.24ZM742.76,190.05c-6.88,7.27-15.07,10.9-24.56,10.9s-17.69-3.63-24.56-10.9c-6.88-7.27-10.32-16.23-10.32-26.89s3.44-19.62,10.32-26.89c6.88-7.27,15.07-10.9,24.56-10.9s17.68,3.63,24.56,10.9c6.88,7.27,10.32,16.23,10.32,26.89s-3.44,19.62-10.32,26.89Z"/><polygon class="cls-3" points="950.77 177.69 923.16 91.94 894.09 91.94 866.47 177.69 838.86 91.94 798.16 91.94 846.71 234.38 881.01 234.38 908.62 152.98 936.24 234.38 970.54 234.38 1019.08 91.94 978.39 91.94 950.77 177.69"/><path class="cls-3" d="M1097.77,89.03c-20.35,0-37.79,7.27-52.32,21.8-14.53,14.53-21.8,31.98-21.8,52.32s7.36,37.79,22.09,52.32c14.73,14.53,32.56,21.8,53.49,21.8,7.36,0,14.53-.87,21.51-2.62,6.98-1.74,12.64-3.73,17.01-5.96,4.36-2.23,8.47-4.75,12.35-7.56,3.87-2.81,6.4-4.8,7.56-5.96s2.03-2.03,2.62-2.62l-20.35-26.16-4.07,4.36c-2.52,2.91-6.93,5.81-13.23,8.72-6.3,2.91-13.13,4.36-20.49,4.36-10.28,0-18.75-2.66-25.44-7.99-6.69-5.33-10.81-11.87-12.36-19.62h103.19l1.45-15.99c0-20.35-6.79-37.3-20.35-50.87-13.57-13.56-30.52-20.35-50.87-20.35ZM1064.34,148.63c2.33-7.75,6.4-14.05,12.21-18.9,5.81-4.84,12.89-7.27,21.22-7.27s15.36,2.47,21.07,7.41c5.71,4.94,9.35,11.19,10.9,18.75h-65.4Z"/><path class="cls-3" d="M1281.04,90.49h-5.81c-7.75,0-15.17,1.74-22.24,5.23-7.08,3.49-11.63,6.3-13.66,8.43-2.03,2.13-3.63,3.88-4.8,5.23v-17.44h-39.24v142.43h39.24v-68.31c0-12.21,3-21.56,9.01-28.05,6.01-6.49,14.14-9.74,24.42-9.74,5.81,0,10.17.49,13.08,1.45v-39.24Z"/><path class="cls-3" d="M1422.31,122.9c-9.88-3.78-19.72-7.07-29.5-9.88-9.79-2.81-18.12-6.3-25-10.47-6.88-4.16-10.32-9.64-10.32-16.42,0-6.01,2.52-11.14,7.56-15.41,5.04-4.26,11.72-6.4,20.06-6.4,6.98,0,13.71,1.6,20.2,4.8,6.49,3.2,10.75,5.77,12.79,7.7,2.01,1.91,3.59,3.55,4.75,4.89l13.87-24.03,5.89-10.2c-1.19-1-2.57-2.07-4.16-3.21-3.78-2.71-8.14-5.38-13.08-7.99-4.94-2.62-11.29-4.89-19.04-6.83-7.75-1.93-15.8-2.91-24.13-2.91-21.12,0-38.27,5.81-51.45,17.44-13.18,11.63-19.77,25.68-19.77,42.15,0,13.37,3.44,24.42,10.32,33.14,6.88,8.72,15.21,14.97,25,18.75,9.78,3.78,19.62,7.08,29.51,9.88,9.88,2.81,18.26,6.3,25.14,10.47,6.88,4.17,10.32,9.64,10.32,16.42,0,7.56-2.96,13.81-8.87,18.75-5.91,4.94-14.1,7.41-24.56,7.41-9.11,0-17.83-2.03-26.16-6.1-8.33-4.07-13.71-7.31-16.13-9.74-2.41-2.41-4.29-4.38-5.64-5.93l-13.83,23.96-5.44,9.43c1.59,1.43,3.5,2.98,5.72,4.66,4.36,3.3,9.4,6.54,15.12,9.74,5.71,3.2,12.98,5.96,21.8,8.28,8.82,2.33,17.97,3.49,27.47,3.49,24.03,0,42.88-5.96,56.54-17.88,13.66-11.92,20.49-27.28,20.49-46.07,0-13.37-3.44-24.42-10.32-33.14-6.88-8.72-15.26-14.97-25.14-18.75Z"/><path class="cls-3" d="M1537.68,186.41l-33.43-94.47h-40.69l55.23,140.98-4.36,10.17c-4.65,10.66-12.89,15.99-24.71,15.99-5.81,0-10.66-.97-14.53-2.91v34.88l2.91.87c1.93.77,4.99,1.55,9.16,2.33,4.17.77,8.38,1.16,12.64,1.16,23.84,0,42.24-17.44,55.23-52.32l56.68-151.16h-40.69l-33.43,94.47Z"/><path class="cls-3" d="M1708.74,89.03c-7.75,0-15.17,1.89-22.24,5.67-7.08,3.78-11.63,6.78-13.66,9.01-2.03,2.23-3.63,4.12-4.8,5.67v-17.44h-39.24v142.43h39.24v-74.12c0-10.66,2.62-18.89,7.85-24.71,5.23-5.81,12.3-8.72,21.22-8.72,8.14,0,14.78,2.67,19.91,7.99,5.13,5.33,7.7,12.35,7.7,21.07v78.48h39.24v-82.84c0-19.18-5.14-34.4-15.41-45.64-10.27-11.24-23.54-16.86-39.82-16.86Z"/><path class="cls-3" d="M1901.01,183.52l-3.77,4.93c-2.72,3.1-6.98,6.2-12.79,9.3-5.81,3.1-11.92,4.65-18.31,4.65-10.27,0-19.14-3.82-26.6-11.48-7.46-7.65-11.19-16.91-11.19-27.76s3.73-20.1,11.19-27.76c7.46-7.65,16.32-11.48,26.6-11.48,6.4,0,12.5,1.74,18.31,5.23,5.81,3.49,9.59,6.3,11.34,8.43,1.74,2.13,2.99,3.86,3.77,5.21l16.42-28.45,2.14-3.71c-.95-.91-1.97-1.85-3.14-2.85-3.3-2.81-7.08-5.62-11.34-8.43-4.26-2.81-9.74-5.23-16.42-7.27-6.69-2.03-13.71-3.05-21.08-3.05-20.93,0-39,7.41-54.21,22.24-15.21,14.83-22.82,32.12-22.82,51.89s7.6,37.06,22.82,51.89c15.21,14.83,33.28,22.24,54.21,22.24,7.36,0,14.39-1.07,21.08-3.2,6.68-2.13,12.11-4.46,16.28-6.98,4.16-2.52,8.04-5.42,11.63-8.72,1.54-1.41,2.82-2.64,3.88-3.7l-14.31-24.8-3.67-6.37Z"/><path class="cls-2" d="M373.25,140.55l-44.88-77.73c-5.53-9.57-15.74-15.47-26.8-15.47h-46.24c-3.97,0-6.45,4.3-4.47,7.74l10.04,17.39c1.84,3.19,5.25,5.16,8.93,5.16h20.21c7.37,0,14.18,3.93,17.86,10.32l33.35,57.76c3.69,6.38,3.69,14.25,0,20.63l-33.35,57.76c-3.68,6.38-10.49,10.32-17.87,10.32h-66.7c-7.37,0-14.18-3.93-17.87-10.32l-72.13-124.94c-1.99-3.44.5-7.74,4.47-7.74h20.21c3.97,0,6.45-4.3,4.47-7.74l-10.04-17.39c-1.84-3.19-5.25-5.16-8.93-5.16h-43.64c-3.69,0-7.09,1.97-8.93,5.16l-21.82,37.8c-1.84,3.19-1.84,7.12,0,10.31l10.04,17.39c1.99,3.44,6.95,3.44,8.93,0l10.1-17.5c1.98-3.44,6.95-3.44,8.93,0l77.9,134.93c5.53,9.57,15.74,15.47,26.8,15.47h89.75c11.06,0,21.27-5.9,26.8-15.47l44.88-77.73c5.53-9.57,5.53-21.37,0-30.94Z"/><path class="cls-4" d="M117.49,192.8c-1.84-3.19-5.25-5.16-8.93-5.16h-20.21c-7.37,0-14.18-3.93-17.86-10.32l-33.35-57.76c-3.69-6.38-3.69-14.25,0-20.63l33.35-57.76c3.69-6.38,10.5-10.32,17.87-10.31h66.7c7.37,0,14.18,3.93,17.86,10.32l72.13,124.94c1.99,3.44-.5,7.74-4.47,7.74h-20.21c-3.97,0-6.45,4.3-4.47,7.74l10.04,17.39c1.84,3.19,5.25,5.16,8.93,5.16h43.64c3.69,0,7.09-1.97,8.93-5.16l21.82-37.8c1.84-3.19,1.84-7.12,0-10.31l-10.04-17.39c-1.98-3.44-6.95-3.44-8.93,0l-10.1,17.5c-1.99,3.44-6.95,3.44-8.93,0L193.37,16.05c-5.53-9.57-15.74-15.47-26.8-15.47h-89.75c-11.06,0-21.27,5.9-26.8,15.47L5.15,93.78c-5.53,9.57-5.53,21.37,0,30.94l44.88,77.73c5.53,9.57,15.74,15.47,26.8,15.47h46.24c3.97,0,6.45-4.3,4.47-7.74l-10.04-17.39Z"/></svg>
