<svg height="1024" viewBox="0 0 1024 1024" width="1024" xmlns="http://www.w3.org/2000/svg"><g transform="matrix(5.46133333013 0 0 -5.46133333013 765.42405916342 2013.63476255505)"><circle cx="-46.403" cy="-274.958" fill="#ffe6d5" fill-rule="evenodd" r="90" stroke-width="1.68178" transform="scale(1 -1)"/><path d="m-108.10156 258.50681 16.177 19.001 121.483.403-15.767-19.404z" fill="#83331b"/><path d="m-144.13477 321.99023v68.08399a24.036282 10.884353 0 0 1 21.68555 10.82031h125.7714856a18.14059 11.337869 0 0 1 -1.5078125-4.52344 18.14059 11.337869 0 0 1 16.5742189-11.29297v-63.08789z" fill="#f8a37b" transform="matrix(.75000002 0 0 -.75000002 0 500.00002)"/><path d="m-38.32356 249.89581c1.962 1.06 4.991 4.244 3.122 7.428-.346.589-.684.968-1.008 1.183h8.145c-1.06-2.333-4.89-5.155-4.89-5.155s-.313-.606-2.011-1.941c-.961-.754-2.341-1.237-3.358-1.515m-24.041.131c-1.001.465-2.455 1.262-3.478 2.348-1.708 1.813-2.052 4.191-2.052 4.191l-1.208 1.941h4.853c-.324-.215-.661-.594-1.007-1.183-1.797-3.062.935-6.124 2.892-7.297m22.287.961c-1.065.104-3.04.372-5.015 1.03-2.911.97-4.609 3.153-4.609 3.153s-3.275-2.001-7.641-2.796c-1.458-.265-2.408-.354-3.028-.354-.01 0-.019 0-.029 0-.087 1.464-.387 3.029-.387 3.029s-.827 2.653-2.068 3.457h5.168 20.083c-1.241-.804-2.069-3.457-2.069-3.457s-.464-2.425-.405-4.062" fill="#da845d"/><path d="m-60.78656 255.04981s.923-4.821 0-5.458c-.922-.637-6.926 3.548-4.47 7.732s4.47-2.274 4.47-2.274" fill="#dee6e3"/><path d="m-39.67256 255.04981s-.922-4.821 0-5.458c.923-.637 6.927 3.548 4.471 7.732s-4.471-2.274-4.471-2.274" fill="#dee6e3"/><path d="m-75.27356 295.45981c1.117-5.335-2.302-10.566-7.637-11.683s-10.565 2.302-11.682 7.637 2.302 10.566 7.637 11.683 10.565-2.302 11.682-7.637" fill="#d4541e"/><path d="m-79.13656 301.41081c-2.176 1.581-4.979 2.281-7.819 1.686-5.335-1.117-8.754-6.348-7.637-11.683.243-1.161.69-2.224 1.282-3.177 4.349 1.479 10.933 5.007 14.174 13.174" fill="#852e1b"/><path d="m-79.55556 294.56281c.621-2.97-1.282-5.881-4.252-6.503-2.969-.622-5.881 1.281-6.503 4.251s1.282 5.881 4.251 6.503c2.97.622 5.882-1.281 6.504-4.251" fill="#fff"/><path d="m-11.97056 297.29481c-2.292 0-4.427 1.456-5.185 3.752-.941 2.854.602 5.932 3.449 6.887 1.578.545 9.258 3.6 6.96 10.765-1.66 5.18-4.8 5.934-14.08 6.919-1.702.18-3.461.368-5.289.629-6.567.938-11.396 3.654-14.351 8.072-4.312 6.445-2.622 13.751-2.415 14.562.744 2.922 3.717 4.683 6.64 3.943 2.922-.745 4.687-3.718 3.942-6.64.002 0-.74-3.391.946-5.845 1.168-1.701 3.45-2.804 6.783-3.281 1.632-.233 3.292-.409 4.897-.58 8.623-.915 19.355-2.056 23.327-14.443 4.228-13.187-6.004-21.855-13.912-24.464-.568-.187-1.145-.276-1.712-.276" fill="#e2591e"/><path d="m-31.35356 340.33881-.162.262c-3.6-2.3-8.146-2.791-10.691-2.868.426-1.138.987-2.289 1.74-3.414.966-1.445 2.153-2.688 3.516-3.766 4.784.793 8.636 4.38 10.757 6.815-2.455.573-4.194 1.564-5.16 2.971" fill="#852e1b"/><path d="m-19.75856 325.50081c3.913-.433 6.655-.862 8.622-1.688 1.349 2.24 3.232 5.957 3.93 10.147-2.897 1.167-6.016 1.739-9.03 2.126.263-2.716.078-7.398-3.522-10.585" fill="#852e1b"/><path d="m4.15644 311.99081c.613 2.488.673 5.256-.025 8.278-1.075-.869-2.457-1.657-4.202-2.11-2.954-.768-5.066-.721-6.408-.509.581-2.947-.577-5.128-2.15-6.674 4.852-2.119 9.593-.653 12.785 1.015" fill="#852e1b"/><path d="m-6.44656 314.85681c-.003.001-.006.003-.009.004.012.064.024.128.034.193l.001.002.028.238c.031.251.052.506.056.77l.001.16c-.004.338-.027.685-.081 1.047l.001-.001c-.066.45-.167.916-.322 1.404.111-.352.199-.693.265-1.025-.002 0-.004 0-.006.001.201-1.021.194-1.95.032-2.793m-.292 3.82c-.003.007-.005.015-.008.022-.856 2.671-2.105 4.165-4.386 5.121 2.281-.956 3.53-2.45 4.386-5.121.003-.007.005-.015.008-.022m-13.018 6.825c-.347.039-.704.077-1.07.116-1.702.18-3.461.368-5.29.629-.048.007-.097.014-.146.022.049-.008.098-.015.147-.022 1.828-.261 3.587-.449 5.289-.629.366-.039.723-.077 1.07-.116zm-6.54.772c-.007.001-.015.002-.023.003.008-.001.015-.002.023-.003m-.075.011c-.001 0-.002 0-.003 0z" fill="#83bad2"/><path d="m3.32344 309.50681c-.608.453-1.229.89-1.865 1.311.962.334 1.851.733 2.646 1.146.013-.008.025-.017.037-.026-.211-.844-.488-1.653-.818-2.431m-7.988 8.008c-.71 0-1.312.056-1.808.134-.066.332-.154.673-.265 1.025-.001.001-.001.002-.001.003-.003.007-.005.015-.008.022-.856 2.671-2.105 4.165-4.386 5.121.494.82 1.059 1.839 1.612 3.006 2.749-1.108 4.625-2.821 6.016-5.603.566-1.131.757-2.351.695-3.592-.685-.082-1.303-.116-1.855-.116m-15.092 7.987c-.347.039-.704.077-1.07.116-1.702.18-3.461.368-5.289.629-.049.007-.098.014-.147.022-.011.001-.023.003-.034.005-.008.001-.015.002-.023.003-.018.003-.035.005-.052.008-.001 0-.003 0-.003 0-4.878.737-8.769 2.481-11.64 5.178.341-.316.696-.619 1.064-.91.568.094 1.123.228 1.664.394 2.752-.893 6.221-1.645 10.437-1.887 2.795-.16 5.246-.326 7.403-.556-.54-1.068-1.287-2.095-2.31-3.002" fill="#ba4a1f"/><path d="m-36.95056 330.55281c-.368.291-.723.594-1.064.91-.306.287-.6.585-.883.893 1.024-.474 2.227-.959 3.611-1.409-.541-.166-1.096-.3-1.664-.394" fill="#6f2717"/><path d="m-11.13256 323.81981c-1.97.825-4.707 1.249-8.624 1.682 1.023.907 1.77 1.934 2.31 3.002 3.255-.346 5.842-.838 7.926-1.678-.553-1.167-1.118-2.186-1.612-3.006z" fill="#6f2717"/><path d="m1.45844 310.81781c-2.431 1.612-5.063 2.99-7.905 4.039.162.843.169 1.772-.032 2.793.002-.001.004-.001.006-.001.496-.078 1.098-.134 1.808-.134.552 0 1.17.034 1.855.116-.027-.549-.104-1.101-.219-1.652 2.551-1.103 4.934-2.454 7.133-4.015-.795-.413-1.684-.812-2.646-1.146" fill="#6f2717"/><path d="m1.95644 321.13981s-4.428 6.195-10.044 9.266c.233.715.442 1.456.617 2.217.927-.436 1.771-.935 2.477-1.507 4.964-4.019 6.95-9.976 6.95-9.976m-18.127 12.572c-3.248 1.173-5.535 1.865-5.535 1.865s2.427-.091 5.54-.568c.014-.409.015-.844-.005-1.297" fill="#e66733"/><path d="m-8.08756 330.40581c-.478.261-.964.5-1.456.71-2.364 1.009-4.67 1.89-6.627 2.596.02.453.019.888.005 1.297 2.763-.423 6.066-1.15 8.695-2.386-.175-.761-.384-1.502-.617-2.217" fill="#94401d"/><path d="m-57.68656 303.78381s14.474 17.064 43.825 12.94 40.267-42.45 40.267-42.45l-12.614-15.767h-71.478z" fill="#ef5d22"/><path d="m-53.06456 307.88981c3.118.854 8.074 1.536 15.715 1.011 18.532-1.273 42.591-30.99 42.591-30.99s-10.668 33.893-44.619 36.942c-6.085-1.951-10.642-4.693-13.687-6.963" fill="#852e1b"/><path d="m5.02844 263.29881h-4.184c-1.15 3.215-6.923 18.376-16.161 26.318-7.613 6.544-18.654 14.166-32.41 14.879.704.036 1.401.054 2.092.054 9.919 0 18.501-3.657 25.49-8.144.021.129.034.258.061.388.293 1.403.874 2.67 1.665 3.758 5.534-3.983 10.713-8.764 14.808-12.906-.999-.954-2.191-1.692-3.497-2.159 6.883-8.215 11.163-19.471 12.136-22.188m-6.338 27.706c-2.837 4.334-6.709 9.107-11.819 13.25.149.042.3.08.451.116l.167.041c.259.056.521.099.786.134l.227.033c.249.027.501.04.754.048.091.003.181.012.273.012h.023c.245 0 .492-.016.74-.034.09-.006.18-.006.271-.015.344-.035.689-.086 1.035-.159 5.335-1.117 8.754-6.347 7.637-11.682-.117-.56-.289-1.092-.492-1.606l-.034-.091c-.006-.016-.012-.031-.019-.047" fill="#c74d1f"/><path d="m-3.61056 287.64581c-4.095 4.142-9.274 8.923-14.808 12.906.616.847 1.361 1.585 2.198 2.193.269.196.548.378.835.545l.017.01c.278.161.564.309.857.443l.053.025c.278.125.562.236.852.335l.105.038c.124.04.248.078.373.114 5.11-4.143 8.982-8.916 11.819-13.25-.207-.503-.456-.98-.737-1.433v-.001c-.442-.711-.969-1.357-1.564-1.925" fill="#6f2717"/><path d="m-24.26856 296.79381c-1.117-5.335 2.303-10.565 7.637-11.682 5.335-1.117 10.566 2.302 11.683 7.637s-2.302 10.565-7.637 11.682-10.565-2.302-11.683-7.637" fill="#d4541e"/><path d="m-20.40556 302.74481c2.176 1.581 4.98 2.281 7.82 1.686 5.335-1.117 8.754-6.347 7.637-11.682-.243-1.162-.691-2.225-1.282-3.178-4.35 1.48-10.934 5.007-14.175 13.174" fill="#852e1b"/><path d="m-19.98556 295.89681c-.622-2.969 1.282-5.881 4.251-6.503 2.97-.622 5.881 1.282 6.503 4.251.622 2.97-1.281 5.882-4.251 6.504-2.97.621-5.881-1.282-6.503-4.252" fill="#fff"/><path d="m-95.60856 258.50681-4.852 4.94s15.465 31.449 36.75 38.724c21.286 7.276 38.024-3.64 48.394-12.554 10.37-8.915 16.373-26.926 16.373-26.926l-3.82-4.184z" fill="#f46a2f"/><path d="m-71.12356 289.57081s17.435 13.737 20.853 13.737c3.419 0 20.078-12.054 20.078-12.054l-2.762-3.317s-14.548 11.807-17.316 11.807-16.459-11.807-16.459-11.807z" fill="#852e1b"/><path d="m-62.48456 284.29281s10.016 8.491 12.885 8.491 12.401-7.399 12.401-7.399l-2.597-5.067s-7.579 8.22-9.804 8.22-10.777-7.641-10.777-7.641z" fill="#852e1b"/><path d="m-100.46056 263.44681 13.49 4.52s-4.302 14.009 8.251 20.74 18.102-.182 19.83-4.184c1.729-4.003 1.729-14.555 1.729-14.555h14.954s-.157 15.707 6.271 20.194c6.428 4.488 16.095 5.094 19.873-3.274 3.778-8.369 0-15.646 0-15.646l17.119-8.551-3.82-4.184h-92.845z" fill="#fff"/><path d="m-60.78656 277.91081c0-3.282-2.66-5.943-5.943-5.943-3.282 0-5.943 2.661-5.943 5.943s2.661 5.943 5.943 5.943c3.283 0 5.943-2.661 5.943-5.943" fill="#fddd04"/><path d="m-62.48456 277.91081c0-2.344-1.901-4.245-4.245-4.245s-4.244 1.901-4.244 4.245 1.9 4.244 4.244 4.244 4.245-1.9 4.245-4.244" fill="#391913"/><path d="m-67.62156 280.55381c0-.967-.784-1.751-1.751-1.751s-1.751.784-1.751 1.751.784 1.751 1.751 1.751 1.751-.784 1.751-1.751" fill="#fff"/><path d="m-27.01156 277.91081c0-3.282-2.661-5.943-5.943-5.943s-5.943 2.661-5.943 5.943 2.661 5.943 5.943 5.943 5.943-2.661 5.943-5.943" fill="#fddd04"/><path d="m-28.70956 277.91081c0-2.344-1.901-4.245-4.245-4.245s-4.244 1.901-4.244 4.245 1.9 4.244 4.244 4.244 4.245-1.9 4.245-4.244" fill="#391913"/><path d="m-33.84656 280.55381c0-.967-.784-1.751-1.752-1.751-.967 0-1.751.784-1.751 1.751s.784 1.751 1.751 1.751c.968 0 1.752-.784 1.752-1.751" fill="#fff"/><path d="m13.79144 258.50681h-12.371l3.821 4.184s-.072.214-.213.608h8.763l11.536 14.197c.723-1.989 1.073-3.206 1.078-3.222z" fill="#c74d1f"/><path d="m1.42044 258.50681h-4.184l3.82 4.184s-.071.214-.212.608h4.184c.141-.394.213-.608.213-.608z" fill="#a33f1e"/><path d="m1.05644 262.69081-1.217.608h1.005c.141-.394.212-.608.212-.608z" fill="#de581d"/><path d="m-2.76356 258.50681h-92.845l-4.706 4.792h100.154l1.217-.608-3.82-4.184" fill="#d5d0cd"/><path d="m-58.97456 271.48281s-5.68-1.462-7.755-6.855c-2.075-5.394.745-9.305 5.475-10.397 4.731-1.091 11.553 2.456 11.553 2.456s5.602-5.458 12.352-4.093c6.75 1.364 8.934 9.096 5.659 13.736-3.275 4.639-11.28 5.153-11.28 5.153s-12.179-3.488-16.004 0" fill="#fff"/><path d="m-49.70156 256.68681s.282-.27.773-.664v8.605c0 .37-.301.671-.671.671-.369 0-.671-.301-.671-.671v-8.217c.356.167.569.276.569.276" fill="#a6b9b5"/><g fill="#852e1b"><path d="m-42.30556 265.56381s4.394 5.176 1.554 7.403c-2.841 2.228-5.535-1.611-9.101-1.267s-7.301 3.095-8.825.572c-1.523-2.522 2.303-5.562 2.303-5.562s.908 2.659 3.196 1.379c2.289-1.28.361-3.99.361-3.99s1.685-1.104 3.059-1.331c1.374-.228 3.509 1.549 3.509 1.549s-1.109 3.074 1.246 4.262c2.356 1.189 2.698-3.015 2.698-3.015"/><path d="m-85.90456 281.52781s-3.367-4.374-3.094-10.832c.273-6.459 9.56-12.189 9.56-12.189l-3.656 5.688c-.913 1.42-.603 3.3.717 4.353l5.659 4.513s-7.641-2.456-8.914-.637c-1.274 1.82-.272 9.104-.272 9.104"/><path d="m-15.45756 285.37981s-.525-5.679-1.92-8.498c-1.396-2.82-6.217-1.547-6.217-1.547s5.367-2.729 5.367-4.457c0-1.729-3.639-7.186-3.639-7.186s11.817 7.446 6.409 21.688"/><path d="m-86.02656 258.50681s-2.365 1.758-3.882 4.245c-1.516 2.486-2.001 4.002-2.001 4.002s-.182-3.275.728-5.458 1.637-2.789 1.637-2.789z"/><path d="m-13.74056 258.50681s2.209 1.81 4.124 5.185c1.915 3.374 2.608 7.791 2.608 7.791s.909-6.366.303-9.095c-.607-2.729-1.577-3.881-1.577-3.881z"/><path d="m-4.78756 314.17381c-2.809 1.198-5.822 2.093-9.074 2.55-2.707.38-5.285.578-7.739.628 4.835-1.15 14.841-4.264 22.793-11.581 10.901-10.029 15.146-19.22 15.146-19.22s-6.557 18.098-21.126 27.623"/><path d="m1.95644 301.95081s7.105-5.586 11.35-16.571 4.124-13.897 4.124-13.897l-18.072 22.682 12.008-11.037s-.486 6.443-9.41 18.823"/></g><path d="m39.412109 296.11914-21.023437 25.87109v59.92579a9.2970522 17.233561 0 0 1 5.419922-3.23047 9.2970522 17.233561 0 0 1 5.197265 2.94336l10.40625-18.88477z" fill="#f6854f" transform="matrix(.75000002 0 0 -.75000002 0 500.00002)"/><path d="m-3.30956 240.43481h7.034v5.97h3.188l-6.705 7.626-6.705-7.626h3.188z" fill="#852e1b"/><path d="m.20744 238.61981h-6.705v-2.309h13.41v2.309z" fill="#852e1b"/><path d="m-4.28656 310.01981c-3.321 1.214-7.933 2.459-13.091 2.58-.665.016-1.339.023-2.015.023-2.736 0-5.535-.12-8.147-.292-1.365.475-2.782.899-4.25 1.261 3.254.749 7.275 1.374 11.627 1.374 1.151 0 2.323-.044 3.511-.14 1.663-.135 3.198-.364 4.61-.658 2.489-1.076 5.144-2.437 7.755-4.148" fill="#f06c34"/><path d="m-39.79556 311.08381s3.151 1.392 8.006 2.508c1.468-.362 2.885-.786 4.25-1.261-6.75-.447-12.256-1.247-12.256-1.247" fill="#94401d"/><path d="m1.05644 307.62781s-2.028 1.18-5.343 2.392c-2.611 1.711-5.266 3.072-7.755 4.148 9.116-1.899 13.098-6.54 13.098-6.54" fill="#94401d"/><path d="m-46.403322 368.70754a93.750002 93.750002 0 0 1 -93.749998-93.75001 93.750002 93.750002 0 0 1 93.749998-93.75 93.750002 93.750002 0 0 1 93.750003 93.75 93.750002 93.750002 0 0 1 -93.750003 93.75001zm0-18.75a75 75 0 0 0 75.000002-75.00001 75 75 0 0 0 -75.000002-75 75 75 0 0 0 -74.999998 75 75 75 0 0 0 74.999998 75.00001z" fill="#e66001" fill-rule="evenodd" stroke-width=".691367"/><path d="m-31.35356 340.33881c-1.686 2.454-.944 5.845-.946 5.845.745 2.922-1.02 5.895-3.942 6.64-2.923.74-5.896-1.021-6.64-3.943-.2-.781-1.757-7.578 1.972-13.834 2.907.545 7.163 1.779 10.204 4.534-.24.239-.463.488-.648.758" fill="#fff"/></g></svg>