<svg viewBox="0 0 85.484 61" fill="none" xmlns="http://www.w3.org/2000/svg" style="max-height:500px" width="85.484" height="61">
  <path d="M.221 5.894c2.105 4.942 3.762 10.569 3.518 15.349-.124 2.415 2.375 5.89 4.683 6.683 2.568.881 4.998 2.762 6.208 6.329.66 1.942 3.005 3.258 4.995 2.696 4.253-1.203 9.98-1.256 14.475 3.247.529.53.764 1.286.597 2.012a15.34 15.34 0 0 1-10.022 10.946c-1.798.623-2.37 2.472-.468 2.575 2.41.13 6.157-.897 11.586-4.603.3-.205.71-.175.968.08.228.225.284.57.14.854l-.644 1.276c-.47.93-.358 2.043.287 2.864l.73.93c.431.549.54 1.28.285 1.928l-.192.49c-.14.353-.077.754.162 1.05.485.6 1.434.51 1.793-.172l.329-.623c.187-.355.445-.597.801-.407.717.382 2.333.346 2.279-.458l-.002-.029a.74.74 0 0 0-.22-.5L40.47 56.33a2.68 2.68 0 0 1-.396-3.238l.93-1.579a1.48 1.48 0 0 0-.104-1.656 1.48 1.48 0 0 1 .292-2.097l.93-.69a1.89 1.89 0 0 1 2.297.036c.71.562.91 1.548.474 2.339l-.027.05a1.91 1.91 0 0 0 .22 2.162l1.67 1.958c.405.476.502 1.139.25 1.709l-.165.375a.97.97 0 0 0 .155 1.032.997.997 0 0 0 1.656-.232l.312-.68c.136-.296.445-.486.761-.398q.137.038.282.095c.69.27 2.127.084 2.052-.647a.68.68 0 0 0-.2-.402l-2.52-2.423a2.68 2.68 0 0 1-.523-3.172l.414-.796c.417-.802.408-1.762-.115-2.502a19 19 0 0 0-.56-.752c-.843-1.077-1.013-2.612-.04-3.576 3.14-3.11 8.802-6.355 15.662-4.248 2.002.614 4.458-.647 5.178-2.596.796-2.157 2.177-4.31 4.396-5.684 2.262-1.4 6.302-6.74 6.465-9.377.228-3.701 1.408-8.64 4.302-14.947 1.104-2.407-1.49-5.198-3.953-4.176C75.77 2.205 69.92 4.458 64.573 6.11c-1.138.352-1.935 1.377-1.96 2.557l-.183 8.996c-.008.393-.095.781-.308 1.112-1.138 1.767-4.333 5.01-10.452 7.749-1.31.586-2.828-.035-3.426-1.33l-.826-1.79c-1.06-2.565.04-5.525 6.322-6.655l.017-.003a.3.3 0 0 0 .068-.017l.033-.012c.565-.203 1.4-.503 1.43-1.086.061-1.177-.167-2.505-1.224-2.907a1.5 1.5 0 0 0-.547-.078h-9.795c-.212 0-.424.02-.626.087-1.419.465-3.466 1.923-5.226 3.175-1.36.967-2.547 1.813-3.14 1.983a.5.5 0 0 1-.142.017c-.54 0-.847.572-.46.943.823.788 2.085 1.456 3.651 1.142 1.366-.274 2.94-.274 3.674.9 1.309 2.095 2.165 4.855.056 6.647-.361.307-.835.439-1.31.433-4.32-.057-12.867-1.902-18.27-9.031a2.5 2.5 0 0 1-.496-1.523v-8.77c0-1.227-.833-2.297-2.025-2.636A156 156 0 0 1 4.896 1.071C2.294.032-.869 3.334.221 5.894M43.993 15.92a.823.823 0 0 0 .827-.82.823.823 0 0 0-.827-.818.823.823 0 0 0-.827.819c0 .452.37.819.827.819" fill="url(#a)"/>
  <path d="M.221 5.894c2.105 4.942 3.762 10.569 3.518 15.349-.124 2.415 2.375 5.89 4.683 6.683 2.568.881 4.998 2.762 6.208 6.329.66 1.942 3.005 3.258 4.995 2.696 4.253-1.203 9.98-1.256 14.475 3.247.529.53.764 1.286.597 2.012a15.34 15.34 0 0 1-10.022 10.946c-1.798.623-2.37 2.472-.468 2.575 2.41.13 6.157-.897 11.586-4.603.3-.205.71-.175.968.08.228.225.284.57.14.854l-.644 1.276c-.47.93-.358 2.043.287 2.864l.73.93c.431.549.54 1.28.285 1.928l-.192.49c-.14.353-.077.754.162 1.05.485.6 1.434.51 1.793-.172l.329-.623c.187-.355.445-.597.801-.407.717.382 2.333.346 2.279-.458l-.002-.029a.74.74 0 0 0-.22-.5L40.47 56.33a2.68 2.68 0 0 1-.396-3.238l.93-1.579a1.48 1.48 0 0 0-.104-1.656 1.48 1.48 0 0 1 .292-2.097l.93-.69a1.89 1.89 0 0 1 2.297.036c.71.562.91 1.548.474 2.339l-.027.05a1.91 1.91 0 0 0 .22 2.162l1.67 1.958c.405.476.502 1.139.25 1.709l-.165.375a.97.97 0 0 0 .155 1.032.997.997 0 0 0 1.656-.232l.312-.68c.136-.296.445-.486.761-.398q.137.038.282.095c.69.27 2.127.084 2.052-.647a.68.68 0 0 0-.2-.402l-2.52-2.423a2.68 2.68 0 0 1-.523-3.172l.414-.796c.417-.802.408-1.762-.115-2.502a19 19 0 0 0-.56-.752c-.843-1.077-1.013-2.612-.04-3.576 3.14-3.11 8.802-6.355 15.662-4.248 2.002.614 4.458-.647 5.178-2.596.796-2.157 2.177-4.31 4.396-5.684 2.262-1.4 6.302-6.74 6.465-9.377.228-3.701 1.408-8.64 4.302-14.947 1.104-2.407-1.49-5.198-3.953-4.176C75.77 2.205 69.92 4.458 64.573 6.11c-1.138.352-1.935 1.377-1.96 2.557l-.183 8.996c-.008.393-.095.781-.308 1.112-1.138 1.767-4.333 5.01-10.452 7.749-1.31.586-2.828-.035-3.426-1.33l-.826-1.79c-1.06-2.565.04-5.525 6.322-6.655l.017-.003a.3.3 0 0 0 .068-.017l.033-.012c.565-.203 1.4-.503 1.43-1.086.061-1.177-.167-2.505-1.224-2.907a1.5 1.5 0 0 0-.547-.078h-9.795c-.212 0-.424.02-.626.087-1.419.465-3.466 1.923-5.226 3.175-1.36.967-2.547 1.813-3.14 1.983a.5.5 0 0 1-.142.017c-.54 0-.847.572-.46.943.823.788 2.085 1.456 3.651 1.142 1.366-.274 2.94-.274 3.674.9 1.309 2.095 2.165 4.855.056 6.647-.361.307-.835.439-1.31.433-4.32-.057-12.867-1.902-18.27-9.031a2.5 2.5 0 0 1-.496-1.523v-8.77c0-1.227-.833-2.297-2.025-2.636A156 156 0 0 1 4.896 1.071C2.294.032-.869 3.334.221 5.894M43.993 15.92a.823.823 0 0 0 .827-.82.823.823 0 0 0-.827-.818.823.823 0 0 0-.827.819c0 .452.37.819.827.819" fill="#F3B4A6"/>
  <path d="M102.914 44.556v-25.29h9.699q2.611 0 4.612.916 2.034.916 3.188 2.716 1.152 1.8 1.153 4.447 0 2.58-1.187 4.38-1.154 1.798-3.188 2.749-2.001.917-4.578.917h-4.443v9.166h-5.256zm5.256-13.748h4.477q1.119 0 1.933-.442.813-.44 1.254-1.222.475-.78.475-1.799 0-1.053-.475-1.833a3.1 3.1 0 0 0-1.254-1.222q-.814-.441-1.933-.442h-4.477zm19.276 21.285a9.3 9.3 0 0 1-1.594-.136 4.6 4.6 0 0 1-1.322-.441V47.34q.474.136 1.119.238t1.187.102q1.493 0 2.136-.713.645-.713 1.052-1.63l1.254-2.885-.067 4.243-8.139-20.674h5.459l5.392 14.7h-2.034l5.392-14.7h5.46l-7.936 20.267q-.746 1.935-1.831 3.225-1.086 1.29-2.476 1.935-1.356.645-3.052.645m17.518-7.537V26.021h4.748v4.447l-.34-.645q.61-2.342 2.001-3.157 1.425-.849 3.357-.849h1.086v4.413h-1.594q-1.866 0-3.018 1.155-1.153 1.12-1.153 3.19v9.981zm22.271.408q-2.746 0-5.019-1.256a9.86 9.86 0 0 1-3.594-3.429q-1.323-2.206-1.323-4.99 0-2.818 1.323-4.99a9.86 9.86 0 0 1 3.594-3.43q2.272-1.255 5.019-1.255c2.747 0 3.493.418 4.985 1.256a9.6 9.6 0 0 1 3.561 3.428q1.356 2.173 1.356 4.99 0 2.785-1.356 4.991a9.6 9.6 0 0 1-3.561 3.429q-2.238 1.256-4.985 1.256m0-4.583q1.39 0 2.408-.645a4.33 4.33 0 0 0 1.628-1.8q.61-1.153.61-2.647t-.61-2.614a4.33 4.33 0 0 0-1.628-1.8q-1.017-.678-2.408-.678-1.39 0-2.441.678a4.56 4.56 0 0 0-1.662 1.8q-.577 1.12-.577 2.614t.577 2.648a4.56 4.56 0 0 0 1.662 1.799q1.05.645 2.441.645m21.615 4.583q-2.714 0-4.85-1.29a9.5 9.5 0 0 1-3.391-3.497q-1.221-2.205-1.221-4.888 0-2.715 1.255-4.889a9.5 9.5 0 0 1 3.391-3.496q2.136-1.29 4.782-1.29 2.034 0 3.594.78 1.594.747 2.51 2.14l-.78 1.018V18.858h5.087v25.698h-4.748v-3.394l.475 1.052q-.95 1.358-2.578 2.07-1.627.68-3.526.68m.61-4.583q1.39 0 2.442-.645a4.33 4.33 0 0 0 1.627-1.8q.61-1.153.611-2.647 0-1.494-.611-2.648a4.33 4.33 0 0 0-1.627-1.8q-1.052-.645-2.442-.644-1.39 0-2.51.678a4.5 4.5 0 0 0-1.695 1.8q-.61 1.12-.611 2.614 0 1.494.611 2.648.61 1.154 1.695 1.799 1.12.645 2.51.645m19.223 4.583q-2.001 0-3.459-.645t-2.238-1.833q-.78-1.222-.78-2.886 0-1.561.712-2.75.712-1.221 2.17-2.037 1.492-.814 3.697-1.154l5.663-.916v3.734l-4.748.849q-1.085.203-1.661.712-.577.475-.577 1.392 0 .85.644 1.324.645.476 1.594.476 1.255 0 2.205-.543a3.77 3.77 0 0 0 1.458-1.46 4.1 4.1 0 0 0 .542-2.071v-4.82q0-1.052-.847-1.766-.814-.713-2.239-.713-1.356 0-2.407.747a4.3 4.3 0 0 0-1.492 1.969l-4.07-1.935a6.6 6.6 0 0 1 1.73-2.682q1.186-1.12 2.848-1.731 1.662-.612 3.629-.611 2.34 0 4.137.848 1.797.849 2.781 2.377 1.017 1.493 1.017 3.496v12.221h-4.748V41.57l1.153-.204q-.813 1.222-1.797 2.037-.983.781-2.204 1.154-1.22.408-2.713.408zm23.128 0q-2.781 0-5.019-1.256a9.86 9.86 0 0 1-3.527-3.497q-1.288-2.206-1.288-4.956t1.288-4.923a9.26 9.26 0 0 1 3.527-3.462q2.238-1.256 5.019-1.256 2.068 0 3.832.712a8.7 8.7 0 0 1 3.018 2.003 7.2 7.2 0 0 1 1.798 2.988l-4.409 1.9q-.474-1.39-1.628-2.206-1.119-.814-2.611-.814-1.323 0-2.374.645-1.017.645-1.628 1.799-.576 1.154-.576 2.648t.576 2.648q.61 1.154 1.628 1.799 1.051.645 2.374.645 1.526 0 2.645-.815 1.12-.815 1.594-2.206l4.409 1.935a7.25 7.25 0 0 1-1.764 2.92q-1.254 1.29-3.018 2.036-1.763.713-3.866.713m20.562-.204q-3.357 0-5.223-1.799-1.83-1.834-1.831-5.092v-7.435h-3.12v-4.413h.17q1.424 0 2.17-.713.78-.712.78-2.139v-1.358h5.087v4.21h4.341v4.413h-4.341v7.095q0 .951.339 1.596.34.611 1.051.916.712.306 1.764.306.237 0 .542-.034t.645-.068v4.312q-.51.068-1.153.135-.645.069-1.221.068m8.237 7.333a9.3 9.3 0 0 1-1.594-.136 4.6 4.6 0 0 1-1.323-.441V47.34q.475.136 1.12.238.644.102 1.187.102 1.491 0 2.136-.713a6.1 6.1 0 0 0 1.051-1.63l1.255-2.885-.068 4.243-8.139-20.674h5.46l5.392 14.7h-2.035l5.392-14.7h5.46l-7.935 20.267q-.747 1.935-1.831 3.225-1.086 1.29-2.476 1.935-1.357.645-3.052.645m17.518-7.537V18.858h5.086v25.698z" fill="#fff"/>
  <defs>
    <radialGradient gradientUnits="userSpaceOnUse" gradientTransform="scale(291.711 62.83)rotate(90 .257 .228)" r="1" cy="0" cx="0" id="a">
      <stop/>
      <stop offset="1"/>
    </radialGradient>
  </defs>
</svg>
