<?xml version="1.0" encoding="UTF-8" standalone="no"?>
<!DOCTYPE svg PUBLIC "-//W3C//DTD SVG 1.1//EN" "http://www.w3.org/Graphics/SVG/1.1/DTD/svg11.dtd">
<svg width="100%" height="100%" viewBox="0 0 128 128" version="1.1" xmlns="http://www.w3.org/2000/svg" xmlns:xlink="http://www.w3.org/1999/xlink" xml:space="preserve" xmlns:serif="http://www.serif.com/" style="fill-rule:evenodd;clip-rule:evenodd;stroke-linejoin:round;stroke-miterlimit:2;">
    <g id="rabbitmq-logo-svgrepo-com.svg" transform="matrix(0.16,0,0,0.16,64,64)">
        <g transform="matrix(1,0,0,1,-400,-400)">
            <path d="M746.686,319.728L495.498,319.728C482.975,319.724 472.671,309.421 472.664,296.897L472.664,35.111C472.664,15.725 456.945,0 437.568,0L347.9,0C328.511,0 312.8,15.725 312.8,35.111L312.8,295.312C312.8,308.812 301.886,319.785 288.387,319.844L206.069,320.236C192.455,320.31 181.393,309.263 181.42,295.661L181.931,35.17C181.975,15.755 166.249,0 146.834,0L57.24,0C37.848,0 22.14,15.725 22.14,35.111L22.14,768.148C22.14,785.37 36.092,799.321 53.299,799.321L746.686,799.321C763.908,799.321 777.86,785.37 777.86,768.148L777.86,350.902C777.86,333.68 763.908,319.728 746.686,319.728ZM628.894,594.955C628.894,617.523 610.598,635.823 588.03,635.823L517.166,635.823C494.595,635.823 476.298,617.523 476.298,594.955L476.298,524.092C476.298,501.52 494.595,483.224 517.166,483.224L588.03,483.224C610.598,483.224 628.894,501.52 628.894,524.092L628.894,594.955Z" style="fill:rgb(255,102,0);fill-rule:nonzero;"/>
        </g>
    </g>
</svg>
