<?xml version="1.0" encoding="UTF-8"?>
<svg xmlns="http://www.w3.org/2000/svg" xmlns:xlink="http://www.w3.org/1999/xlink" width="240" height="240" viewBox="0 0 240 240">
<path fill-rule="nonzero" fill="rgb(98.431373%, 80.784314%, 33.333333%)" fill-opacity="1" d="M 191.011719 69.769531 L 91.191406 116.308594 L 91.191406 187.800781 L 218.394531 128.492188 Z M 191.011719 69.769531 "/>
<path fill-rule="nonzero" fill="rgb(27.45098%, 73.333333%, 83.921569%)" fill-opacity="1" d="M 91.191406 117.808594 L 91.191406 189.304688 L 197.078125 238.671875 L 190.730469 199.960938 L 224.460938 179.949219 Z M 91.191406 117.808594 "/>
<path fill-rule="nonzero" fill="rgb(3.529412%, 43.529412%, 52.54902%)" fill-opacity="1" d="M 26.386719 38.96875 L 91.191406 38.96875 L 91.191406 230.949219 L 26.386719 230.949219 Z M 26.386719 38.96875 "/>
<path fill-rule="nonzero" fill="rgb(0%, 0%, 0%)" fill-opacity="0.313726" d="M 26.382812 38.96875 L 26.382812 43.105469 L 213.953125 130.5625 L 218.398438 128.488281 Z M 26.382812 38.96875 "/>
<path fill-rule="nonzero" fill="rgb(27.45098%, 73.333333%, 83.921569%)" fill-opacity="1" d="M 91.191406 3.222656 L 26.386719 38.96875 L 218.394531 128.492188 L 218.394531 57 Z M 91.191406 3.222656 "/>
<path fill-rule="nonzero" fill="rgb(100%, 100%, 100%)" fill-opacity="1" d="M 91.191406 69.1875 L 91.191406 116.308594 L 141.726562 92.75 Z M 91.191406 69.1875 "/>
</svg>
