<svg id="svg" version="1.1" xmlns="http://www.w3.org/2000/svg" xmlns:xlink="http://www.w3.org/1999/xlink" width="400" height="400" viewBox="0, 0, 400,400"><g id="svgg"><path id="path0" d="M171.315 55.690 C 173.040 62.560,188.872 133.851,188.712 134.023 C 188.512 134.236,246.159 134.108,246.372 133.895 C 246.433 133.834,257.714 78.282,261.551 59.150 L 262.343 55.200 216.768 55.200 L 171.192 55.200 171.315 55.690 M215.325 145.624 C 200.489 145.711,188.306 145.827,188.251 145.882 C 188.170 145.963,188.591 173.436,188.675 173.528 C 188.723 173.580,245.100 174.164,245.153 174.113 C 245.205 174.061,245.792 149.065,245.797 146.650 L 245.800 145.400 244.050 145.433 C 243.088 145.451,230.161 145.537,215.325 145.624 M52.664 173.722 C 52.542 174.039,52.774 264.240,52.896 264.363 C 52.951 264.418,132.027 247.402,132.146 247.310 C 132.236 247.241,131.875 190.008,131.784 189.917 C 131.691 189.824,53.328 173.400,52.977 173.400 C 52.873 173.400,52.732 173.545,52.664 173.722 M142.844 218.013 L 142.789 246.200 143.644 246.201 C 144.115 246.201,150.395 246.516,157.600 246.900 C 164.805 247.284,170.870 247.599,171.077 247.599 C 171.415 247.600,171.434 191.191,171.097 190.834 C 171.062 190.797,165.739 190.600,159.267 190.397 C 152.795 190.193,146.465 189.981,145.200 189.926 L 142.900 189.825 142.844 218.013 M201.414 203.200 C 193.910 210.949,191.621 213.200,191.248 213.200 C 190.512 213.200,190.282 212.949,200.783 223.604 L 210.667 233.632 220.933 223.367 L 231.200 213.101 221.251 203.151 C 215.779 197.678,211.256 193.200,211.200 193.200 C 211.144 193.200,206.740 197.700,201.414 203.200 M233.592 233.111 C 211.517 254.507,211.800 254.226,211.800 254.756 C 211.800 255.172,231.689 274.681,231.989 274.560 C 232.070 274.527,240.973 265.188,251.773 253.807 L 271.410 233.114 269.955 231.681 C 257.742 219.658,252.758 214.800,252.634 214.800 C 252.552 214.800,243.983 223.040,233.592 233.111 M260.133 262.566 C 242.439 280.262,240.162 282.607,240.133 283.174 C 240.096 283.892,284.871 350.425,285.335 350.342 C 285.670 350.282,347.431 286.391,347.359 286.179 C 347.306 286.021,280.784 242.867,280.300 242.676 C 280.190 242.632,271.115 251.583,260.133 262.566 " stroke="none" fill="#cc442c" fill-rule="evenodd"></path><path id="path1" d="" stroke="none" fill="#d0442c" fill-rule="evenodd"></path><path id="path2" d="" stroke="none" fill="#d0442c" fill-rule="evenodd"></path><path id="path3" d="" stroke="none" fill="#d0442c" fill-rule="evenodd"></path><path id="path4" d="" stroke="none" fill="#d0442c" fill-rule="evenodd"></path></g></svg>