<svg width="512" height="512" viewBox="0 0 512 512" fill="none" xmlns="http://www.w3.org/2000/svg">
  <rect width="512" height="512" rx="9" fill="#FAFAFA" />
  <path fill-rule="evenodd" clip-rule="evenodd"
    d="M183.603 184.722L156.74 220H183.545L197.032 201.54L209.701 220H237.938L211.008 183.874L211.012 183.868L210.859 183.675L205.927 177.444L197.894 167.294L197.882 167.31L197.693 167.041L196.926 166.072L196.982 166.027L185.367 149.472H157.52L183.603 184.722ZM200.948 163.099L214.127 179.749L237.027 149.472H210.872L200.948 163.099Z"
    fill="#3F3F46" />
  <path fill-rule="evenodd" clip-rule="evenodd"
    d="M69.1087 98.9125V190H94.8735V165.797H108.938L108.938 165.797C108.943 165.797 108.948 165.797 108.953 165.797C118.377 165.381 125.285 164.448 133.094 161.494C133.195 161.455 133.296 161.417 133.397 161.378L133.382 161.356C138.893 158.705 143.19 155.066 146.273 150.442C149.569 145.41 151.218 139.468 151.218 132.615C151.218 125.675 149.569 119.689 146.273 114.658C142.976 109.539 138.292 105.636 132.219 102.946C126.234 100.257 119.077 98.9125 110.749 98.9125H69.1087ZM136.456 165.836L111.867 170.09L125.453 190H153.039L136.456 165.836ZM94.8735 145.888H109.187C114.566 145.888 118.556 144.716 121.159 142.374C123.848 140.032 125.193 136.779 125.193 132.615C125.193 128.364 123.848 125.068 121.159 122.725C118.556 120.383 114.566 119.212 109.187 119.212H94.8735V145.888Z"
    fill="#3F3F46" />
  <path
    d="M69.6 288V232H95.2C100.32 232 104.72 232.827 108.4 234.48C112.133 236.133 115.013 238.533 117.04 241.68C119.067 244.773 120.08 248.453 120.08 252.72C120.08 256.933 119.067 260.587 117.04 263.68C115.013 266.72 112.133 269.067 108.4 270.72C104.72 272.32 100.32 273.12 95.2 273.12H78.4L85.44 266.48V288H69.6ZM104.24 288L90.32 267.6H107.2L121.2 288H104.24ZM85.44 268.16L78.4 260.88H94.24C97.5467 260.88 100 260.16 101.6 258.72C103.253 257.28 104.08 255.28 104.08 252.72C104.08 250.107 103.253 248.08 101.6 246.64C100 245.2 97.5467 244.48 94.24 244.48H78.4L85.44 237.2V268.16ZM150.819 288.72C145.699 288.72 141.219 287.76 137.379 285.84C133.592 283.867 130.632 281.2 128.499 277.84C126.419 274.427 125.379 270.56 125.379 266.24C125.379 261.92 126.392 258.08 128.419 254.72C130.499 251.307 133.352 248.667 136.979 246.8C140.605 244.88 144.685 243.92 149.219 243.92C153.485 243.92 157.379 244.8 160.899 246.56C164.419 248.267 167.219 250.8 169.299 254.16C171.379 257.52 172.419 261.6 172.419 266.4C172.419 266.933 172.392 267.547 172.339 268.24C172.285 268.933 172.232 269.573 172.179 270.16H137.859V262.16H164.099L158.339 264.4C158.392 262.427 158.019 260.72 157.219 259.28C156.472 257.84 155.405 256.72 154.019 255.92C152.685 255.12 151.112 254.72 149.299 254.72C147.485 254.72 145.885 255.12 144.499 255.92C143.165 256.72 142.125 257.867 141.379 259.36C140.632 260.8 140.259 262.507 140.259 264.48V266.8C140.259 268.933 140.685 270.773 141.539 272.32C142.445 273.867 143.725 275.067 145.379 275.92C147.032 276.72 149.005 277.12 151.299 277.12C153.432 277.12 155.245 276.827 156.739 276.24C158.285 275.6 159.805 274.64 161.299 273.36L169.299 281.68C167.219 283.973 164.659 285.733 161.619 286.96C158.579 288.133 154.979 288.72 150.819 288.72ZM195.187 288.72C191.507 288.72 187.907 288.293 184.387 287.44C180.92 286.587 178.12 285.52 175.987 284.24L180.547 273.84C182.574 275.067 184.947 276.053 187.667 276.8C190.387 277.493 193.054 277.84 195.667 277.84C198.227 277.84 199.987 277.573 200.947 277.04C201.96 276.507 202.467 275.787 202.467 274.88C202.467 274.027 201.987 273.413 201.027 273.04C200.12 272.613 198.894 272.293 197.347 272.08C195.854 271.867 194.2 271.627 192.387 271.36C190.574 271.093 188.734 270.747 186.867 270.32C185.054 269.84 183.374 269.147 181.827 268.24C180.334 267.28 179.134 266 178.227 264.4C177.32 262.8 176.867 260.773 176.867 258.32C176.867 255.547 177.667 253.093 179.267 250.96C180.92 248.773 183.32 247.067 186.467 245.84C189.614 244.56 193.454 243.92 197.987 243.92C201.027 243.92 204.094 244.24 207.187 244.88C210.334 245.467 212.974 246.373 215.107 247.6L210.547 257.92C208.414 256.693 206.28 255.867 204.147 255.44C202.014 254.96 199.987 254.72 198.067 254.72C195.507 254.72 193.694 255.013 192.627 255.6C191.614 256.187 191.107 256.907 191.107 257.76C191.107 258.613 191.56 259.28 192.467 259.76C193.374 260.187 194.574 260.533 196.067 260.8C197.614 261.013 199.294 261.253 201.107 261.52C202.92 261.733 204.734 262.08 206.547 262.56C208.414 263.04 210.094 263.76 211.587 264.72C213.134 265.627 214.36 266.88 215.267 268.48C216.174 270.027 216.627 272.027 216.627 274.48C216.627 277.147 215.8 279.547 214.147 281.68C212.547 283.813 210.147 285.52 206.947 286.8C203.8 288.08 199.88 288.72 195.187 288.72ZM241.417 288.72C237.897 288.72 234.724 288.027 231.897 286.64C229.124 285.253 226.937 283.093 225.337 280.16C223.79 277.173 223.017 273.413 223.017 268.88V244.64H238.217V266.4C238.217 269.76 238.83 272.16 240.057 273.6C241.337 275.04 243.124 275.76 245.417 275.76C246.91 275.76 248.27 275.413 249.497 274.72C250.724 274.027 251.71 272.933 252.457 271.44C253.204 269.893 253.577 267.92 253.577 265.52V244.64H268.777V288H254.297V275.76L257.097 279.2C255.604 282.4 253.444 284.8 250.617 286.4C247.79 287.947 244.724 288.72 241.417 288.72ZM335.048 243.92C338.408 243.92 341.394 244.613 344.008 246C346.674 247.333 348.754 249.413 350.248 252.24C351.794 255.067 352.568 258.72 352.568 263.2V288H337.368V265.68C337.368 262.587 336.781 260.347 335.608 258.96C334.434 257.52 332.834 256.8 330.808 256.8C329.368 256.8 328.061 257.147 326.888 257.84C325.714 258.533 324.808 259.6 324.168 261.04C323.528 262.427 323.208 264.24 323.208 266.48V288H308.008V265.68C308.008 262.587 307.421 260.347 306.248 258.96C305.128 257.52 303.528 256.8 301.448 256.8C299.954 256.8 298.621 257.147 297.448 257.84C296.328 258.533 295.421 259.6 294.728 261.04C294.088 262.427 293.768 264.24 293.768 266.48V288H278.568V244.64H293.048V256.72L290.168 253.28C291.768 250.187 293.954 247.867 296.728 246.32C299.501 244.72 302.594 243.92 306.008 243.92C309.901 243.92 313.314 244.933 316.248 246.96C319.234 248.933 321.234 252.027 322.248 256.24L317.288 255.2C318.834 251.68 321.154 248.933 324.248 246.96C327.394 244.933 330.994 243.92 335.048 243.92ZM385.428 288.72C380.308 288.72 375.828 287.76 371.988 285.84C368.201 283.867 365.241 281.2 363.108 277.84C361.028 274.427 359.988 270.56 359.988 266.24C359.988 261.92 361.001 258.08 363.028 254.72C365.108 251.307 367.961 248.667 371.588 246.8C375.215 244.88 379.295 243.92 383.828 243.92C388.095 243.92 391.988 244.8 395.508 246.56C399.028 248.267 401.828 250.8 403.908 254.16C405.988 257.52 407.028 261.6 407.028 266.4C407.028 266.933 407.001 267.547 406.948 268.24C406.895 268.933 406.841 269.573 406.788 270.16H372.468V262.16H398.708L392.948 264.4C393.001 262.427 392.628 260.72 391.828 259.28C391.081 257.84 390.015 256.72 388.628 255.92C387.295 255.12 385.721 254.72 383.908 254.72C382.095 254.72 380.495 255.12 379.108 255.92C377.775 256.72 376.735 257.867 375.988 259.36C375.241 260.8 374.868 262.507 374.868 264.48V266.8C374.868 268.933 375.295 270.773 376.148 272.32C377.055 273.867 378.335 275.067 379.988 275.92C381.641 276.72 383.615 277.12 385.908 277.12C388.041 277.12 389.855 276.827 391.348 276.24C392.895 275.6 394.415 274.64 395.908 273.36L403.908 281.68C401.828 283.973 399.268 285.733 396.228 286.96C393.188 288.133 389.588 288.72 385.428 288.72Z"
    fill="#3F3F46" />
  <line opacity="0.1" x1="60" y1="358" x2="360" y2="358" stroke="#3F3F46" stroke-width="20"
    stroke-miterlimit="16" />
  <line opacity="0.2" x1="60" y1="398" x2="300" y2="398" stroke="#3F3F46" stroke-width="20"
    stroke-miterlimit="16" />
  <line opacity="0.1" x1="60" y1="438" x2="240" y2="438" stroke="#3F3F46" stroke-width="20"
    stroke-miterlimit="16" />
</svg>