<?xml version="1.0" encoding="UTF-8"?>
<svg xmlns="http://www.w3.org/2000/svg" viewBox="0 0 364.06 364.46">
  <defs>
    <style>
      .cls-1 {
        fill: black
      }
    </style>
  </defs>
  <g>
    <g>
      <g>
        <path class="cls-1" d="M205.79,79.41c-4.67-6.13-10.08-11.58-16.72-16.87,9.66-6.22,19.76-9.86,30.45-11.33,49.44-6.8,89.19,10.38,118.45,50.37,40,54.66,35.03,138.49-22,188.64-45.92,40.37-123.02,31.43-155.28-19.4-8.81-13.87-17.6-27.7-25.07-42.32-4.32-8.46-8.78-16.83-14.11-24.71-5.21-7.72-10.81-15.13-17.33-22.23v-29.21c5.69,2.19,9.92,6.01,14.07,9.82,12.39,11.36,21.77,25.05,30.03,39.56,11.05,19.42,21.95,38.84,35.28,56.92,29.29,39.74,90.33,45.99,127.98,1.93,39.9-46.7,37.45-119.4-6.69-160.39-28.45-26.41-61.61-32.72-99.05-20.77Z"/>
        <path class="cls-1" d="M159.14,279.3c5.4,7,11.02,13.07,17.45,19.28-12.18,8.28-25.32,12.65-39.14,15.22-49.07,9.15-85.13-11.69-112.54-50.3C-21.82,197.68-.41,100.57,69.12,63.77c34.05-18.03,69.57-20.67,104.63-2.3,23.18,12.14,36.95,31.61,40.3,57.97,1.59,12.52-.43,24.53-5.52,35.9-10.25,22.92-28.33,37.47-51.26,47.11-4.46-6.79-8.77-13.36-13.12-19.98,1.27-2.03,3.67-2.05,5.58-2.88,12.58-5.45,23.54-12.98,31.51-24.36,16.44-23.47,9.82-55.2-14.42-70.53-16.6-10.49-34.72-12.53-53.64-10.27-45.12,5.4-80.69,43.68-87.23,90.79-5.34,38.44,4.89,72.67,32.22,100.79,26.74,27.51,64.03,32.83,97.94,14.77,.85-.45,1.73-.85,3.03-1.48Z"/>
        <path class="cls-1" d="M278.9,49.42c-10.1-1.92-19.75-5.58-29.85-5.55-33.94-33.5-98.75-33.71-133.11-.12-10.06,.34-19.86,3.43-29.88,6.21C96.34,25.21,140.26,.98,175.99,.06c42.74-1.1,77.72,13.87,102.91,49.36Z"/>
        <path class="cls-1" d="M89.76,320.1c9.29,1.34,18.45,2.6,27.52,2.09,33.86,31.14,95.35,31.9,130.14,.04,9.08,.4,18.25-.81,27.57-2.16-23.1,29.76-53.98,43.98-91.06,44.38-38.25,.41-70.19-13.73-94.17-44.35Z"/>
        <path class="cls-1" d="M260.25,151.82v30.04c-25.14,25.18-34.85,59.85-56.12,87.69-7.05-5.22-12.27-11.56-17.64-18.62,18.87-25.39,29.78-55.81,50.89-79.82,6.52-7.41,13.64-14.1,22.88-19.29Z"/>
        <path class="cls-1" d="M267.64,178.19V85.8c8.7,2.38,16.15,6.42,22.88,12.36,0,20.79,0,41.57,0,62.34,0,2.92-1.36,5.31-3.17,7.48-4.37,5.22-13.1,9.83-19.7,10.2Z"/>
        <path class="cls-1" d="M74.43,98.08c6.6-5.99,14.07-9.68,22.6-12.32v92.48c-13.35-.95-22.6-10.6-22.6-23.24,0-19,0-37.99,0-56.91Z"/>
        <path class="cls-1" d="M246.26,211.72c5.45-10.01,11.33-17.82,17.97-25.11,1.44-1.58,3.57-1.59,5.41-2.17,10.28-3.25,18.82-9.15,25.76-17.24,6.48-7.56,6.43-12.81,.52-20.48,13.13-.53,24.44,15.47,20.33,28.76-1.01,3.25-2.53,6.28-4.77,8.79-16.98,19.06-38.67,27.04-65.22,27.45Z"/>
        <path class="cls-1" d="M69.37,146.29c-6.26,7.87-6.48,12.83-.31,20.42,6.74,8.28,15.24,14.55,25.38,17.88,5.07,1.67,8.61,4.5,11.56,8.58,4.02,5.56,8.34,10.94,11.23,17.8-5.66,1.34-10.86,.41-16.01-.49-16.58-2.91-31.16-9.95-43.54-21.4-3.07-2.84-5.68-6.08-7.57-9.83-7.12-14.12,2.61-31.34,19.26-32.96Z"/>
        <path class="cls-1" d="M161.41,89.23c7.19,3.99,12.68,9.65,17.03,16.86-5.79,14.06-6.06,28.06,.31,42.13-4.15,7.33-10,13.05-16.74,18-15.68-19.98-15.98-57.81-.6-76.99Z"/>
        <path class="cls-1" d="M267.68,215.68c7.62-2.15,14.91-5,22.55-8.42v62.3c-6.27,5.12-13.61,8.99-22.55,10.98v-64.85Z"/>
        <path class="cls-1" d="M97,280.52c-8.77-2.01-15.79-5.79-22.36-10.87v-62.29c7.45,3.02,14.52,6.25,22.36,8.2v64.97Z"/>
        <path class="cls-1" d="M203.75,174.45c5.59,2.52,10.56,4.76,16.03,7.23-4.16,6.82-8.21,13.46-12.47,20.44-7.19-2.29-13.57-5.92-20.27-10.31,6.1-5.44,11.82-10.78,16.7-17.36Z"/>
      </g>
    </g>
  </g>
</svg>
