<svg width="400" height="400" viewBox="0 0 400 400" fill="none" xmlns="http://www.w3.org/2000/svg">
<rect width="400" height="400" rx="80" fill="url(#paint0_radial_4733_781)"/>
<g filter="url(#filter0_di_4733_781)">
<path fill-rule="evenodd" clip-rule="evenodd" d="M44 199.765L44.0022 199.754L44.0069 199.73L44.0182 199.675L44.0481 199.534C44.0714 199.426 44.1015 199.292 44.1394 199.131C44.2153 198.809 44.3224 198.382 44.4678 197.856C44.7587 196.805 45.203 195.358 45.8587 193.567C47.1706 189.983 49.3257 185.027 52.7826 179.099C59.7091 167.222 71.7901 151.567 92.5794 135.281C113.473 118.913 133.761 110.11 148.904 105.394C156.476 103.036 162.774 101.697 167.241 100.942C169.475 100.565 171.254 100.333 172.508 100.194C173.135 100.125 173.632 100.078 173.989 100.048C174.168 100.033 174.311 100.022 174.419 100.014L174.554 100.005L174.601 100.002L174.627 100C174.627 100 174.634 99.9996 175.158 108.869C175.682 117.738 175.688 117.738 175.688 117.738L175.68 117.739C175.644 117.741 175.573 117.746 175.469 117.755C175.26 117.773 174.915 117.805 174.444 117.857C173.501 117.962 172.051 118.148 170.163 118.467C166.929 119.013 162.416 119.947 156.957 121.52C156.788 121.577 156.619 121.634 156.448 121.693C145.468 125.449 129.786 132.792 111.452 147.138C93.1643 161.448 82.886 174.942 77.2007 184.71C74.3549 189.599 72.6507 193.571 71.6684 196.266C71.1771 197.614 70.8661 198.643 70.683 199.309C70.5974 199.62 70.5398 199.852 70.5048 200C70.5398 200.148 70.5974 200.38 70.683 200.691C70.8661 201.357 71.1771 202.386 71.6684 203.734C72.6507 206.429 74.3549 210.401 77.2007 215.29C82.886 225.058 93.1643 238.552 111.452 252.862C129.786 267.208 145.468 274.551 156.448 278.307C156.619 278.366 156.788 278.423 156.957 278.48C162.416 280.053 166.929 280.987 170.163 281.533C172.051 281.852 173.501 282.038 174.444 282.143C174.915 282.195 175.26 282.227 175.469 282.245C175.573 282.254 175.644 282.259 175.68 282.261L175.688 282.262C175.688 282.262 175.682 282.262 175.158 291.131C174.634 300 174.627 300 174.627 300L174.619 300L174.601 299.998L174.554 299.995L174.419 299.986C174.311 299.978 174.168 299.967 173.989 299.952C173.632 299.922 173.135 299.875 172.508 299.806C171.254 299.667 169.475 299.435 167.241 299.058C162.774 298.303 156.476 296.964 148.904 294.606C133.761 289.89 113.473 281.087 92.5794 264.719C71.7901 248.433 59.7091 232.778 52.7826 220.901C49.3257 214.973 47.1706 210.017 45.8587 206.433C45.203 204.642 44.7587 203.195 44.4678 202.144C44.3224 201.618 44.2153 201.191 44.1394 200.869C44.1015 200.708 44.0714 200.574 44.0481 200.466L44.0182 200.325L44.0069 200.27L44.0022 200.246L44 200.235V199.765Z" fill="white"/>
<path fill-rule="evenodd" clip-rule="evenodd" d="M356 199.765L355.998 199.754L355.993 199.73L355.982 199.675L355.952 199.534C355.929 199.426 355.899 199.292 355.861 199.131C355.785 198.809 355.678 198.382 355.532 197.856C355.241 196.805 354.797 195.358 354.141 193.567C352.829 189.983 350.674 185.027 347.217 179.099C340.291 167.222 328.21 151.567 307.421 135.281C286.527 118.913 266.239 110.11 251.096 105.394C243.524 103.036 237.226 101.697 232.759 100.942C230.525 100.565 228.746 100.333 227.492 100.194C226.865 100.125 226.368 100.078 226.011 100.048C225.833 100.033 225.689 100.022 225.581 100.014L225.446 100.005L225.399 100.002L225.373 100C225.373 100 225.366 99.9996 224.842 108.869C224.318 117.738 224.312 117.738 224.312 117.738L224.32 117.739C224.356 117.741 224.427 117.746 224.531 117.755C224.74 117.773 225.085 117.805 225.556 117.857C226.499 117.962 227.949 118.148 229.837 118.467C233.071 119.013 237.584 119.947 243.043 121.52C243.212 121.577 243.381 121.634 243.552 121.693C254.532 125.449 270.214 132.792 288.548 147.138C306.836 161.448 317.114 174.942 322.799 184.71C325.645 189.599 327.349 193.571 328.332 196.266C328.823 197.614 329.134 198.643 329.317 199.309C329.403 199.62 329.46 199.852 329.495 200C329.46 200.148 329.403 200.38 329.317 200.691C329.134 201.357 328.823 202.386 328.332 203.734C327.349 206.429 325.645 210.401 322.799 215.29C317.114 225.058 306.836 238.552 288.548 252.862C270.214 267.208 254.532 274.551 243.552 278.307C243.381 278.366 243.212 278.423 243.043 278.48C237.584 280.053 233.071 280.987 229.837 281.533C227.949 281.852 226.499 282.038 225.556 282.143C225.085 282.195 224.74 282.227 224.531 282.245C224.427 282.254 224.356 282.259 224.32 282.261L224.312 282.262C224.312 282.262 224.318 282.262 224.842 291.131C225.366 300 225.373 300 225.373 300L225.381 300L225.399 299.998L225.446 299.995L225.581 299.986C225.689 299.978 225.833 299.967 226.011 299.952C226.368 299.922 226.865 299.875 227.492 299.806C228.746 299.667 230.525 299.435 232.759 299.058C237.226 298.303 243.524 296.964 251.096 294.606C266.239 289.89 286.527 281.087 307.421 264.719C328.21 248.433 340.291 232.778 347.217 220.901C350.674 214.973 352.829 210.017 354.141 206.433C354.797 204.642 355.241 203.195 355.532 202.144C355.678 201.618 355.785 201.191 355.861 200.869C355.899 200.708 355.929 200.574 355.952 200.466L355.982 200.325L355.993 200.27L355.998 200.246L356 200.235V199.765Z" fill="white"/>
<path fill-rule="evenodd" clip-rule="evenodd" d="M273.369 199.992C273.369 239.375 241.671 271.301 202.57 271.301C163.468 271.301 131.771 239.375 131.771 199.992C131.771 160.609 163.468 128.682 202.57 128.682C241.671 128.682 273.369 160.609 273.369 199.992ZM184.87 159.88C184.87 159.88 176.363 169.911 173.808 177.708C172.16 182.734 171.595 191.078 171.595 191.078H149.47C149.47 191.078 149.47 184.393 153.895 173.251C158.32 162.109 162.745 159.88 162.745 159.88H184.87ZM173.808 222.276C176.363 230.072 184.87 240.103 184.87 240.103H162.745C162.745 240.103 158.32 237.875 153.895 226.733C149.47 215.591 149.47 208.906 149.47 208.906H171.595C171.595 208.906 172.16 217.249 173.808 222.276Z" fill="white"/>
</g>
<defs>
<filter id="filter0_di_4733_781" x="20" y="92" width="360" height="248" filterUnits="userSpaceOnUse" color-interpolation-filters="sRGB">
<feFlood flood-opacity="0" result="BackgroundImageFix"/>
<feColorMatrix in="SourceAlpha" type="matrix" values="0 0 0 0 0 0 0 0 0 0 0 0 0 0 0 0 0 0 127 0" result="hardAlpha"/>
<feOffset dy="16"/>
<feGaussianBlur stdDeviation="12"/>
<feComposite in2="hardAlpha" operator="out"/>
<feColorMatrix type="matrix" values="0 0 0 0 0.368384 0 0 0 0 0.0623777 0 0 0 0 0.0623777 0 0 0 0.25 0"/>
<feBlend mode="normal" in2="BackgroundImageFix" result="effect1_dropShadow_4733_781"/>
<feBlend mode="normal" in="SourceGraphic" in2="effect1_dropShadow_4733_781" result="shape"/>
<feColorMatrix in="SourceAlpha" type="matrix" values="0 0 0 0 0 0 0 0 0 0 0 0 0 0 0 0 0 0 127 0" result="hardAlpha"/>
<feOffset dy="16"/>
<feGaussianBlur stdDeviation="12"/>
<feComposite in2="hardAlpha" operator="arithmetic" k2="-1" k3="1"/>
<feColorMatrix type="matrix" values="0 0 0 0 0 0 0 0 0 0 0 0 0 0 0 0 0 0 0.06 0"/>
<feBlend mode="normal" in2="shape" result="effect2_innerShadow_4733_781"/>
</filter>
<radialGradient id="paint0_radial_4733_781" cx="0" cy="0" r="1" gradientUnits="userSpaceOnUse" gradientTransform="translate(200 200) rotate(45.6903) scale(234.776)">
<stop offset="0.329632" stop-color="#F76526"/>
<stop offset="1" stop-color="#F43030"/>
</radialGradient>
</defs>
</svg>
