<?xml version="1.0" encoding="utf-8"?>
<!-- Generator: Adobe Illustrator 28.0.0, SVG Export Plug-In . SVG Version: 6.00 Build 0)  -->
<svg version="1.1" id="Livello_1" xmlns="http://www.w3.org/2000/svg" xmlns:xlink="http://www.w3.org/1999/xlink" x="0px" y="0px"
	 viewBox="0 0 320 320" style="enable-background:new 0 0 320 320;" xml:space="preserve">
<style type="text/css">
	.st0{fill:#1D273B;}
	.st1{fill:#D4D5D6;}
</style>
<rect x="0" y="0" class="st0" width="320" height="320"/>
<g transform="translate(0.000000,240.000000) scale(0.100000,-0.100000)">
	<path class="st1" d="M955,1573.8c-285.1-74.1-498.4-280.6-582.8-563.4c-20.5-69.6-29.7-282.9-14.8-353.6
		c53.6-253.2,204.2-455.1,420.9-564.6C912.8,23.9,986.9,7.9,1148.8,7.9c128.9,1.1,159.7,4.6,236.1,30.8
		c260,89,457.4,295.4,530.4,554.3c27.4,100.4,28.5,288.6,2.3,395.8c-19.4,77.6-28.5,94.7-60.4,116.3c-43.3,29.7-75.3,31.9-119.8,8
		c-54.7-27.4-63.9-69.6-41.1-184.8c43.3-215.6-17.1-408.3-171.1-548.6C1291.4,165.3,923,187,715.4,426.5
		c-92.4,107.2-131.2,206.4-136.9,350.1c-6.8,171.1,44.5,302.2,166.5,423.1c125.5,125.5,255.5,173.4,447.1,164.2
		c124.3-4.6,160.8,4.6,184.8,50.2c31.9,65-5.7,150.6-74.1,167.7C1234.4,1598.9,1033.7,1594.4,955,1573.8z"/>
	<path class="st1" d="M1893.6,1580.7c-248.6-53.6-460.8-224.7-565.7-453.9c-38.8-84.4-68.4-225.8-68.4-326.2
		c0-92.4,21.7-222.4,44.5-266.9c36.5-71.9,126.6-87.8,182.5-31.9c38.8,38.8,39.9,60.4,14.8,168.8c-30.8,130-9.1,279.4,59.3,414
		c11.4,21.7,53.6,73,94.7,114.1c122,120.9,253.2,172.2,423.1,165.4c509.8-20.5,734.5-647.8,354.7-990
		c-118.6-104.9-270.3-154-442.5-140.3c-117.5,10.3-156.3-5.7-175.6-71.9c-16-52.5,0-94.7,50.2-131.2c28.5-21.7,47.9-24,188.2-22.8
		c139.1,0,165.4,3.4,244.1,30.8c345.6,119.8,565.7,431.1,552,783.5c-2.3,59.3-6.8,118.6-10.3,131.2
		c-35.4,139.1-75.3,228.1-144.8,321.6c-108.4,142.6-255.5,244.1-427.7,294.3C2181,1594.4,1981.4,1600.1,1893.6,1580.7z"/>
</g>
</svg>
