<?xml version="1.0" encoding="UTF-8"?>
<svg version="1.1" xmlns="http://www.w3.org/2000/svg" width="310" height="310">
<path d="M0 0 C9.60471507 -0.35947472 17.60138582 1.25577213 25.21484375 7.375 C31.0228154 12.92059922 34.28586353 19.34940078 35.04296875 27.328125 C35.26739532 37.42732066 32.22282336 43.70620706 25.25390625 51.015625 C19.13056619 56.52464939 12.71501524 58.199958 4.64648438 58.42651367 C-3.60132442 58.68234533 -10.664149 59.45742941 -18.16015625 63.1875 C-19.44986328 63.82171875 -19.44986328 63.82171875 -20.765625 64.46875 C-32.05491282 70.61722748 -38.18190681 79.9618587 -42.47265625 91.8125 C-45.26031265 105.18242487 -43.14714882 117.92066972 -36.09765625 129.5625 C-33.19688823 133.90120238 -29.99129092 137.93941032 -26.72265625 142 C-10.01842978 162.91159639 -1.6310923 189.59303298 -4.38720703 216.39550781 C-7.87059143 244.93837189 -21.32806065 270.53091306 -43.95068359 288.61914062 C-60.25734384 300.88532896 -81.58592714 309.68157633 -102.16015625 310.1875 C-103.19398437 310.23777344 -104.2278125 310.28804688 -105.29296875 310.33984375 C-114.91900688 310.61902119 -123.51783047 309.47119008 -131.16015625 303.1875 C-137.85971872 296.83446662 -141.12857879 290.5767799 -141.59765625 281.3125 C-141.35011335 273.75654752 -138.73165582 265.45783743 -133.16015625 260.1875 C-125.26768588 254.07620971 -118.278599 252.01949353 -108.41015625 251.8125 C-101.02424936 251.51451168 -94.85788523 250.52034122 -88.16015625 247.1875 C-87.30035156 246.7646875 -86.44054687 246.341875 -85.5546875 245.90625 C-74.26539968 239.75777252 -68.13840569 230.4131413 -63.84765625 218.5625 C-61.05999985 205.19257513 -63.17316368 192.45433028 -70.22265625 180.8125 C-73.12334718 176.47391292 -76.32831524 172.43492201 -79.59765625 168.375 C-96.64340752 147.10781417 -104.64377707 120.18483799 -101.94189453 92.99072266 C-99.23654649 71.97078644 -91.25889576 52.13178267 -77.16015625 36.1875 C-76.68320313 35.58035156 -76.20625 34.97320312 -75.71484375 34.34765625 C-60.1166509 14.69393326 -34.97796925 4.5532542 -10.8984375 0.66015625 C-7.26869812 0.27333731 -3.64202046 0.21609021 0 0 Z " fill="#8D54FE" transform="translate(204.16015625,-0.1875)"/>
<path d="M0 0 C9.60471507 -0.35947472 17.60138582 1.25577213 25.21484375 7.375 C31.0228154 12.92059922 34.28586353 19.34940078 35.04296875 27.328125 C35.26739532 37.42732066 32.22282336 43.70620706 25.25390625 51.015625 C19.13056619 56.52464939 12.71501524 58.199958 4.64648438 58.42651367 C-3.60132442 58.68234533 -10.664149 59.45742941 -18.16015625 63.1875 C-19.44986328 63.82171875 -19.44986328 63.82171875 -20.765625 64.46875 C-32.05491282 70.61722748 -38.18190681 79.9618587 -42.47265625 91.8125 C-45.103812 104.43182953 -43.47783179 117.16120467 -36.84765625 128.25 C-36.29078125 129.219375 -35.73390625 130.18875 -35.16015625 131.1875 C-35.49015625 132.1775 -35.82015625 133.1675 -36.16015625 134.1875 C-37.06894531 133.754375 -37.06894531 133.754375 -37.99609375 133.3125 C-46.54304091 129.52554495 -54.12763613 128.75195705 -62.9921875 132.078125 C-69.99738919 135.66276875 -75.66599982 141.70503071 -78.16015625 149.1875 C-78.30418973 150.52113703 -78.40606048 151.85968046 -78.4765625 153.19921875 C-78.51845703 153.95654297 -78.56035156 154.71386719 -78.60351562 155.49414062 C-78.64283203 156.27982422 -78.68214844 157.06550781 -78.72265625 157.875 C-78.76583984 158.67228516 -78.80902344 159.46957031 -78.85351562 160.29101562 C-78.95942993 162.25631447 -79.06028176 164.22188496 -79.16015625 166.1875 C-82.29464667 164.85543465 -83.81804526 163.68418029 -85.5625 160.765625 C-85.97556396 160.07694336 -86.38862793 159.38826172 -86.81420898 158.67871094 C-87.23774658 157.93911133 -87.66128418 157.19951172 -88.09765625 156.4375 C-88.53859619 155.67469727 -88.97953613 154.91189453 -89.43383789 154.12597656 C-103.30819328 129.4821243 -105.22178781 101.34055545 -98.1640625 74.3828125 C-93.84430859 60.24271839 -86.96441071 47.275144 -77.16015625 36.1875 C-76.68320313 35.58035156 -76.20625 34.97320312 -75.71484375 34.34765625 C-60.1166509 14.69393326 -34.97796925 4.5532542 -10.8984375 0.66015625 C-7.26869812 0.27333731 -3.64202046 0.21609021 0 0 Z " fill="#601BEB" transform="translate(204.16015625,-0.1875)"/>
<path d="M0 0 C9.48390772 6.98143123 16.79227036 15.71868955 19.3203125 27.40234375 C20.98440322 38.55791485 18.45362799 48.78994308 12.359375 58.23828125 C5.76541454 66.98537165 -3.94401642 72.54639433 -14.73046875 74.3046875 C-26.84092906 75.31089785 -36.99978407 72.16998719 -46.328125 64.4375 C-53.88878009 57.32671114 -58.80050209 48.17506949 -59.56640625 37.76171875 C-59.74936178 26.34224455 -57.0886514 18.68417846 -50.36328125 9.5234375 C-49.70328125 8.5334375 -49.04328125 7.5434375 -48.36328125 6.5234375 C-47.70328125 6.5234375 -47.04328125 6.5234375 -46.36328125 6.5234375 C-46.36328125 5.8634375 -46.36328125 5.2034375 -46.36328125 4.5234375 C-34.11073823 -6.10135222 -14.00407799 -8.74965534 0 0 Z " fill="#611CEB" transform="translate(227.36328125,69.4765625)"/>
<path d="M0 0 C0.86625 0.66 1.7325 1.32 2.625 2 C3.429375 2.598125 4.23375 3.19625 5.0625 3.8125 C13.27838377 10.82605931 16.5365354 20.70620634 17.90234375 31.11328125 C18.41780323 41.07195833 14.82882499 50.38487833 8.625 58 C8.12226562 58.62648438 7.61953125 59.25296875 7.1015625 59.8984375 C1.21264329 66.47679115 -8.14208116 71.65602581 -17 72.23828125 C-29.25196866 72.55218164 -38.6867624 71.04526191 -48.375 62.9140625 C-56.95930601 54.69861339 -61.4109544 44.72279591 -61.6875 32.875 C-61.57568611 21.8675441 -57.24858902 12.33539455 -49.78515625 4.28515625 C-35.76887255 -8.67578374 -16.03498481 -9.50221322 0 0 Z " fill="#8E55FF" transform="translate(115.375,172)"/>
<path d="M0 0 C0.66 0.33 1.32 0.66 2 1 C-3.94 6.94 -9.88 12.88 -16 19 C-16 13.77719767 -11.50919035 10.58625028 -8 7 C-5.39703481 4.58610154 -2.73530762 2.26244859 0 0 Z " fill="#8B58F0" transform="translate(141,22)"/>
<path d="M0 0 C0.66 0.33 1.32 0.66 2 1 C-0.31 3.31 -2.62 5.62 -5 8 C-5.66 7.67 -6.32 7.34 -7 7 C-4.66666667 4.66666667 -2.33333333 2.33333333 0 0 Z " fill="#A87CFF" transform="translate(75,257)"/>
</svg>
