<svg width="344" height="344" viewBox="0 0 344 344" fill="none" xmlns="http://www.w3.org/2000/svg">
<g clip-path="url(#clip0_145_46)">
<path d="M22.2036 7.25656C22.5124 2.94876 26.2573 -0.291868 30.5651 0.020859L183.798 11.0875L172.231 171.258L11.1995 159.629L22.2036 7.25656Z" fill="#9EFFA8"/>
<path d="M183.841 10.5669L328.434 21.012C337.046 21.6335 343.523 29.1194 342.902 37.7311L329.106 228.733L168.92 217.166L183.841 10.5669Z" fill="#3BE78A"/>
<path d="M13.244 136.698L192.945 149.676C195.099 149.832 196.717 151.705 196.561 153.859L183.602 333.321L0 320.062L13.244 136.698Z" fill="#66CC5D"/>
<path d="M170.006 202.006C170.319 197.698 174.06 194.462 178.368 194.77L331.608 205.837L321.644 343.847L160.605 332.218L170.006 202.006Z" fill="#DAFF45"/>
<path d="M91.8636 257.458C125.327 257.458 152.455 230.33 152.455 196.867C152.455 163.403 125.327 136.276 91.8636 136.276C58.4002 136.276 31.2727 163.403 31.2727 196.867C31.2727 230.33 58.4002 257.458 91.8636 257.458Z" fill="white"/>
<path d="M91.8636 257.458C125.327 257.458 152.455 230.33 152.455 196.867C152.455 163.403 125.327 136.276 91.8636 136.276C58.4002 136.276 31.2727 163.403 31.2727 196.867C31.2727 230.33 58.4002 257.458 91.8636 257.458Z" fill="white"/>
<path d="M113.852 174.604C110.983 167.54 106.546 162.216 101.32 159.57C96.0972 156.923 90.413 157.122 85.2764 160.136C80.1399 163.146 75.8754 168.78 73.2329 176.039C70.5903 183.302 69.7382 191.726 70.8249 199.837C71.9116 207.949 74.8665 215.224 79.1782 220.387C83.486 225.551 88.8689 228.272 94.3846 228.072C99.8964 227.873 105.19 224.766 109.326 219.297C113.465 213.828 116.186 206.342 117.011 198.164L93.8178 192.903L113.852 174.604Z" fill="#414141"/>
<path d="M94.0606 258.451C81.8837 258.451 71.0438 255.699 61.5369 250.195C52.1942 244.523 44.8568 236.767 39.5209 226.928C34.1811 217.089 31.5151 205.745 31.5151 192.904C31.5151 180.062 34.099 168.718 39.2707 158.879C44.6066 149.04 51.944 141.366 61.2867 135.862C70.7937 130.19 81.5515 127.356 93.5602 127.356C105.901 127.356 116.741 130.19 126.084 135.862C135.591 141.366 142.928 149.04 148.1 158.879C153.436 168.718 156.106 180.062 156.106 192.904C156.106 205.745 153.436 217.089 148.1 226.928C142.928 236.767 135.673 244.523 126.334 250.195C116.991 255.699 106.233 258.451 94.0606 258.451ZM94.0606 239.938C102.399 239.938 109.654 237.936 115.826 233.933C121.995 229.93 126.834 224.426 130.337 217.421C134.004 210.416 135.841 202.242 135.841 192.904C135.841 183.565 134.004 175.391 130.337 168.386C126.834 161.381 121.913 155.877 115.576 151.874C109.236 147.871 101.898 145.869 93.5602 145.869C85.3863 145.869 78.131 147.871 71.7944 151.874C65.6219 155.877 60.7004 161.381 57.0336 168.386C53.5311 175.391 51.7798 183.565 51.7798 192.904C51.7798 202.078 53.5311 210.248 57.0336 217.421C60.7004 224.426 65.704 229.93 72.0446 233.933C78.5493 237.936 85.8867 239.938 94.0606 239.938ZM203.41 215.17L190.65 201.41L257.199 130.358H282.467L203.41 215.17ZM183.895 255.449V80.3218H203.91V255.449H183.895ZM262.703 255.449L215.168 183.647L228.178 169.637L287.471 255.449H262.703Z" fill="black"/>
</g>
<defs>
<clipPath id="clip0_145_46">
<rect width="344" height="344" fill="white"/>
</clipPath>
</defs>
</svg>
