<?xml version="1.0" encoding="UTF-8"?>
<svg width="256px" height="128px" viewBox="0 0 256 128" version="1.1" xmlns="http://www.w3.org/2000/svg" preserveAspectRatio="xMidYMid">
    <title>Superset</title>
    <g>
        <path d="M190.218924,0 C168.269282,0 148.049828,12.3487941 128.508879,33.9252584 C109.307183,12.0095415 88.748476,0 65.7810761,0 C27.7508614,0 0,27.1402067 0,63.67771 C0,100.215213 27.7508614,127.016168 65.7810761,127.016168 C89.1555791,127.016168 107.271667,116.058309 127.491121,94.2104426 C147.03207,116.12616 166.912271,127.084018 190.218924,127.084018 C228.249139,127.016168 256,100.316989 256,63.67771 C256,27.038431 228.249139,0 190.218924,0 Z M66.0524781,88.6806255 C49.9379804,88.6806255 40.3371323,78.0620196 40.3371323,64.0169626 C40.3371323,49.9719056 49.9379804,39.0479724 66.0524781,39.0479724 C79.6225815,39.0479724 90.716141,49.9719056 102.725682,64.6954678 C91.3946462,78.4012722 79.4190299,88.6806255 66.0524781,88.6806255 Z M189.065465,88.6806255 C175.698913,88.6806255 164.401802,78.0620196 152.392261,64.0169626 C164.741055,49.2934005 175.359661,39.0479724 189.065465,39.0479724 C205.179963,39.0479724 214.679035,50.1076067 214.679035,64.0169626 C214.679035,77.9263186 205.179963,88.6806255 189.065465,88.6806255 Z" fill="#484848"></path>
        <path d="M156.124039,117.958124 L181.703684,87.4253909 C171.526107,84.3721177 162.12881,75.2122979 152.392261,63.8473363 L127.491121,94.2104426 C135.643361,103.668805 145.322237,111.695521 156.124039,117.958124 Z" fill="#20A7C9"></path>
        <path d="M128.508879,33.8913332 C120.41092,24.2972701 110.793109,16.0907501 100.045587,9.60084813 L74.432017,40.4728333 C84.1685661,43.8653591 92.7855818,52.6180758 101.945402,63.7794858 L102.963159,64.4919162 L128.508879,33.8913332 Z" fill="#20A7C9"></path>
    </g>
</svg>
