<svg xmlns="http://www.w3.org/2000/svg" width="44.869" height="40.302" viewBox="0 0 44.869 40.302">
  <g id="Group_10325" data-name="Group 10325" transform="translate(0.516)">
    <path id="Exclusion_1" data-name="Exclusion 1" d="M18.621,36.98c-.1,0-.2,0-.305-.008a7.383,7.383,0,0,1-3.67-1.338c-.308-.207-.615-.429-.912-.644l-.027-.019a16.427,16.427,0,0,0-1.965-1.286,7.348,7.348,0,0,0-3.4-.847l-.165,0a5.86,5.86,0,0,0-1.338.135A1.959,1.959,0,0,0,5.934,34.7a3.214,3.214,0,0,0,.3,1.18,3.066,3.066,0,0,1,.274.709h0c-.034,0-.122-.108-.289-.313-.665-.82-2.428-2.995-4.791-3.458A1.76,1.76,0,0,1,.306,30.1C6.2,21.434,6.931,18.338,9.672,6.822l.238-1q.261-1.1.55-2.3A1.773,1.773,0,0,1,11.5,2.3L14.818.918a1.759,1.759,0,0,1,.676-.135,1.8,1.8,0,0,1,.275.021A14.322,14.322,0,0,1,20.989,0h2.3a14.32,14.32,0,0,1,5.219.8,1.77,1.77,0,0,0-1.017.539l-10,.758h0l-.7-.757A1.773,1.773,0,0,0,15.77.805a5.9,5.9,0,0,0-1.814,1.1c-1.308,1.2-1.972,3.351-1.972,6.406V20.836c0,3.056.664,5.213,1.972,6.408,1.377,1.262,3.743,1.9,7.033,1.9h2.3c3.29,0,5.656-.64,7.033-1.9,1.308-1.2,1.972-3.354,1.972-6.408V8.31c0-3.053-.664-5.208-1.972-6.406A5.912,5.912,0,0,0,28.508.8a1.825,1.825,0,0,1,.274-.021,1.749,1.749,0,0,1,.675.135L32.779,2.3a1.773,1.773,0,0,1,1.036,1.223c.613,2.556,1.133,4.837,1.511,6.5,2.1,9.24,2.891,12.7,8.2,20.511a1.759,1.759,0,0,1-1.115,2.718A8.073,8.073,0,0,0,37.9,36.443c-.108.139-.155.2-.168.2a2.225,2.225,0,0,1,.195-.49l.118-.273a3.243,3.243,0,0,0,.293-1.18,1.9,1.9,0,0,0-.657-1.524,10.157,10.157,0,0,0-2.225-.28q-.118,0-.237,0a3.506,3.506,0,0,0-2.887,1.172,5,5,0,0,0-.3.455l-.013.022a4.346,4.346,0,0,1-.365.543,1.328,1.328,0,0,1-1.083.532A4.472,4.472,0,0,1,28.737,35c-.242-.122-.44-.222-.632-.3a5.773,5.773,0,0,0-2.236-.523,3.7,3.7,0,0,0-.643.055,7.689,7.689,0,0,0-2.771,1.336c-.194.126-.386.252-.579.374A6.007,6.007,0,0,1,18.621,36.98Z" transform="translate(0 2.822)" fill="#f93" stroke="rgba(0,0,0,0)" stroke-width="1"/>
    <g id="Group_4056" data-name="Group 4056" transform="translate(5.914 22.19)">
      <path id="Path_14227" data-name="Path 14227" d="M698.042,466.44l.162-2.728,2.46-.713,1.006,3.181A4.743,4.743,0,0,0,698.042,466.44Z" transform="translate(-680.16 -451.111)" fill="#db902e"/>
      <path id="Path_14229" data-name="Path 14229" d="M660.956,448.452c0,.064,0,1.019.007,1.1-1.971-.35-3.581.3-3.53,1.77h-.017V450.9c-.081-2.846,1.322-5.229,2.111-7.863.647-2.175.943-8.8,1.467-6.608a14.459,14.459,0,0,1-.037,5.614,23.229,23.229,0,0,0,0,3.2Z" transform="translate(-657.412 -435.988)" fill="#db902e"/>
      <path id="Path_14231" data-name="Path 14231" d="M722.715,448.452c0,.064,0,1.019-.007,1.1,1.724.09,3.581.3,3.53,1.77h.017V450.9c.081-2.846-1.322-5.229-2.11-7.863-.647-2.175-.943-8.8-1.467-6.608a14.438,14.438,0,0,0,.038,5.614,23.287,23.287,0,0,1,0,3.2Z" transform="translate(-693.804 -435.988)" fill="#db902e"/>
    </g>
    <g id="Group_1803" data-name="Group 1803" transform="translate(9.16)">
      <path id="Path_14233" data-name="Path 14233" d="M678.914,391.217c3.483,0,4.746.813,5.128,1.162.671.615,1.056,2.193,1.056,4.328v12.525c0,2.135-.385,3.712-1.057,4.328-.381.349-1.643,1.161-5.127,1.161h-2.3c-3.483,0-4.746-.812-5.129-1.163-.671-.614-1.055-2.191-1.055-4.326V396.707c0-2.135.385-3.713,1.056-4.328.382-.349,1.645-1.162,5.128-1.162h2.3m0-5.644h-2.3q-6.052,0-8.94,2.644t-2.888,8.49v12.525q0,5.846,2.888,8.49t8.94,2.644h2.3q6.054,0,8.94-2.644t2.888-8.49V396.707q0-5.846-2.888-8.49t-8.94-2.644Z" transform="translate(-664.788 -385.573)" fill="#1a1a1a"/>
    </g>
    <g id="Group_1804" data-name="Group 1804" transform="translate(19.692 15.337)">
      <ellipse id="Ellipse_669" data-name="Ellipse 669" cx="2.445" cy="2.445" rx="2.445" ry="2.445" transform="translate(0 0)" fill="#1a1a1a"/>
      <path id="Path_14234" data-name="Path 14234" d="M693.3,432.955h-2.286a.517.517,0,0,1-.514-.566l.47-4.836a.516.516,0,0,1,.514-.466h1.344a.516.516,0,0,1,.514.466l.47,4.836A.517.517,0,0,1,693.3,432.955Z" transform="translate(-689.717 -424.151)" fill="#1a1a1a"/>
    </g>
  </g>
</svg>
