<?xml version="1.0" encoding="utf-8"?><!-- Uploaded to: SVG Repo, www.svgrepo.com, Generator: SVG Repo Mixer Tools -->
<svg 
xmlns="http://www.w3.org/2000/svg"
aria-label="Teamspeak" role="img"
viewBox="0 0 512 512"><rect
width="512" height="512"
rx="15%"
fill="#ffffff"/><path fill="#2580c3" d="M407 336c5 5 9 18 9 26s0 15-2 21c0 3-6 33-43 51l-23 8-14 3c-64 12-148-3-84-10l17-2a1532 1532 0 0042-10h1a19086 19086 0 0012-4c16-7 33-16 47-29 10-10 19-22 26-37l6-15c0-2 4-3 6-2zm-60-56c17-3 28 5 29 19 1 13-3 25-13 35-8 9-18 13-32 12a249 249 0 01-40-5c-19-5-26-19-14-30 7-7 16-12 25-16l23-9c7-3 15-5 22-6zm-211-15c3-18 18-26 34-18a1135 1135 0 0142 28 141 141 0 0133 39l1 10c-2 10-9 15-18 19l-13 1h-19l-16-2c-15-1-26-7-34-19a77 77 0 01-10-58zm256-153l3 2c4 4 8 9 3 16l-1 1v2l2 2c16 22 27 46 32 73l2 4 2 1c14 7 21 18 21 33v19l-1 21c-4 20-23 33-42 29-6-1-7-6-7-11a11534 11534 0 010-66 150 150 0 00-300-1v69c0 6-4 9-10 9-24 1-40-14-40-38v-27l1-10c2-12 8-21 19-27h1l1-1c2-1 3-3 3-5 5-26 15-50 30-71l2-3v-5c-3-4-1-7 1-11h1c22-25 48-43 80-53 75-23 141-7 197 48z"/></svg>