<svg xmlns="http://www.w3.org/2000/svg" xmlns:xlink="http://www.w3.org/1999/xlink" width="48" height="48"><defs><linearGradient id="k"><stop style="stop-color:#fff;stop-opacity:1" offset="0"/><stop style="stop-color:#fff;stop-opacity:0" offset="1"/></linearGradient><linearGradient id="j"><stop style="stop-color:#000;stop-opacity:1" offset="0"/><stop style="stop-color:#000;stop-opacity:0" offset="1"/></linearGradient><linearGradient id="i"><stop style="stop-color:#f9f9f9;stop-opacity:1" offset="0"/><stop style="stop-color:#eeeeec;stop-opacity:.62037037" offset="1"/></linearGradient><linearGradient id="h"><stop style="stop-color:#787b76;stop-opacity:1" offset="0"/><stop offset=".871" style="stop-color:#babcb9;stop-opacity:1"/><stop style="stop-color:#787b76;stop-opacity:1" offset="1"/></linearGradient><linearGradient id="f"><stop style="stop-color:#fff;stop-opacity:1" offset="0"/><stop style="stop-color:#fff;stop-opacity:0" offset="1"/></linearGradient><linearGradient id="e"><stop style="stop-color:#c00;stop-opacity:1" offset="0"/><stop offset=".365" style="stop-color:#ef0000;stop-opacity:1"/><stop style="stop-color:#a00;stop-opacity:1" offset="1"/></linearGradient><linearGradient id="g"><stop style="stop-color:#f0f2ef;stop-opacity:1" offset="0"/><stop style="stop-color:#cdd1c8;stop-opacity:1" offset="1"/></linearGradient><linearGradient id="d"><stop style="stop-color:#888a85;stop-opacity:1" offset="0"/><stop style="stop-color:#2e3436;stop-opacity:1" offset="1"/></linearGradient><linearGradient id="c"><stop style="stop-color:#555753;stop-opacity:1" offset="0"/><stop style="stop-color:#2e3436;stop-opacity:1" offset="1"/></linearGradient><linearGradient id="b"><stop style="stop-color:#2e3436;stop-opacity:1" offset="0"/><stop style="stop-color:#2e3436;stop-opacity:0" offset="1"/></linearGradient><linearGradient id="a"><stop style="stop-color:#babdb6;stop-opacity:1" offset="0"/><stop offset=".133" style="stop-color:#eeeeec;stop-opacity:1"/><stop style="stop-color:#babdb6;stop-opacity:1" offset="1"/></linearGradient><linearGradient xlink:href="#a" id="t" x1="23.739" y1="4.157" x2="23.739" y2="19.466" gradientUnits="userSpaceOnUse"/><linearGradient xlink:href="#b" id="u" x1="23.732" y1="30.057" x2="23.688" y2="22.633" gradientUnits="userSpaceOnUse"/><linearGradient xlink:href="#c" id="o" x1="23.938" y1="30.617" x2="23.938" y2="36.358" gradientUnits="userSpaceOnUse"/><linearGradient xlink:href="#e" id="p" x1="14.813" y1="5.624" x2="14.813" y2="9" gradientUnits="userSpaceOnUse"/><linearGradient xlink:href="#f" id="q" x1="24.041" y1="5.069" x2="24.041" y2="10.009" gradientUnits="userSpaceOnUse"/><linearGradient xlink:href="#g" id="n" x1="13.625" y1="33.125" x2="14.125" y2="24" gradientUnits="userSpaceOnUse"/><linearGradient xlink:href="#h" id="m" x1="10.188" y1="20.25" x2="10.188" y2="42.5" gradientUnits="userSpaceOnUse"/><linearGradient xlink:href="#i" id="r" x1="24.719" y1="35.959" x2="23.937" y2="17.071" gradientUnits="userSpaceOnUse"/><linearGradient xlink:href="#j" id="s" x1="18.313" y1="20.744" x2="18.313" y2="21.814" gradientUnits="userSpaceOnUse"/><filter id="l" x="-.03" width="1.06" y="-.14" height="1.28"><feGaussianBlur stdDeviation=".52"/></filter></defs><rect style="opacity:.28240741;fill:#2e3436;fill-opacity:1;stroke:none;stroke-width:1;stroke-linecap:round;stroke-linejoin:round;stroke-miterlimit:4;stroke-dasharray:none;stroke-dashoffset:0;stroke-opacity:1;filter:url(#l)" width="41.901" height="8.912" x="3" y="39" rx="2.298" ry="2.298"/><path style="fill:url(#m);fill-rule:evenodd;stroke:#555753;stroke-width:1.00000011999999994px;stroke-linecap:butt;stroke-linejoin:miter;stroke-opacity:1;fill-opacity:1" d="M10 16.594c-1.18-.045-2.36.978-2.469 2.218-.888 7.288-2.204 14.592-2.875 21.875v3.063c.034 1.58 1.071 2.642 2.219 2.844H41.5c.979-.025 2.065-.704 2.031-2v-3.938l-3.125-21.218c-.254-1.302-1.366-2.685-2.906-2.844H10z"/><path style="fill:url(#n);fill-opacity:1;fill-rule:evenodd;stroke:#555753;stroke-width:.99999994000000003px;stroke-linecap:butt;stroke-linejoin:miter;stroke-opacity:1" d="M10.602 39.625c-1.13-.123-1.929-.864-1.9-2.224l1.9-15.993c.292-1.069.985-1.923 2.079-1.92h21.925c1.086-.032 2.172.72 2.457 1.617l2.415 16.133c.057 1.469-.547 2.32-1.565 2.286l-27.311.1z"/><path style="fill:url(#o);fill-rule:evenodd;stroke:url(#linearGradient5849);stroke-width:1px;stroke-linecap:butt;stroke-linejoin:miter;stroke-opacity:1;fill-opacity:1" d="m20.469 20.438-2.063 12.03h-2.968l8.03 5.157 8.97-5.156h-2.97l-1.874-12.032h-7.125z"/><rect style="opacity:1;fill:url(#p);fill-opacity:1;stroke:#930000;stroke-width:1.00000011999999994;stroke-linecap:round;stroke-linejoin:round;stroke-miterlimit:4;stroke-dasharray:none;stroke-dashoffset:0;stroke-opacity:1" width="31.113" height="6.061" x="8.485" y="4.514" rx="5.016" ry="1.985"/><rect style="opacity:.58333333;fill:none;fill-opacity:1;stroke:url(#q);stroke-width:1.00000011999999994;stroke-linecap:round;stroke-linejoin:round;stroke-miterlimit:4;stroke-dasharray:none;stroke-dashoffset:0;stroke-opacity:1" width="29.08" height="3.94" x="9.5" y="5.569" rx="1.834" ry="1.278"/><path style="opacity:.24537036000000001;fill:none;fill-opacity:1;fill-rule:evenodd;stroke:url(#r);stroke-width:1.00000011999999994px;stroke-linecap:butt;stroke-linejoin:miter;stroke-opacity:1" d="M10.593 17.572c-1.119-.042-2.237.915-2.34 2.075L5.469 39.723c.01.125.03.257.059.38v2.863c.032 1.478 1.015 2.442 2.103 2.63h32.848c.928-.022 1.928-.628 1.896-1.84v-3.683c.007-.028.024-.06.03-.087l-.03-.205v-.204h-.03l-2.902-19.375c-.241-1.217-1.296-2.481-2.755-2.63H10.593z"/><path style="fill:url(#s);fill-rule:evenodd;stroke:none;stroke-width:1px;stroke-linecap:butt;stroke-linejoin:miter;stroke-opacity:1;fill-opacity:1;opacity:.20833333000000001" d="M10.21 29.956 12.048 22l24.03.058 1.78 8.986-1.177-9.074c-.22-1.002-.751-1.97-1.723-1.945l-21.92-.044c-1.431-.044-1.712.884-2.038 1.989l-.79 7.986z"/><rect style="opacity:1;fill:url(#t);fill-opacity:1;stroke:#888a85;stroke-width:1;stroke-linecap:round;stroke-linejoin:round;stroke-miterlimit:4;stroke-dasharray:none;stroke-dashoffset:0;stroke-opacity:1" width="7.096" height="25.97" x="20.484" y="3.604" rx="1.076" ry="1.076"/><rect style="opacity:1;fill:url(#u);fill-opacity:1;stroke:none;stroke-width:1;stroke-linecap:round;stroke-linejoin:round;stroke-miterlimit:4;stroke-dasharray:none;stroke-dashoffset:0;stroke-opacity:1" width="8.132" height="8.043" x="19.976" y="22.014" rx="1.076" ry="1.076"/><path style="opacity:.43518521;fill:none;fill-rule:evenodd;stroke:#fff;stroke-width:1px;stroke-linecap:round;stroke-linejoin:miter;stroke-opacity:1" d="M11.423 41.486h28.11"/><rect style="opacity:.22685185;fill:none;fill-opacity:1;stroke:#fff;stroke-width:1;stroke-linecap:round;stroke-linejoin:round;stroke-miterlimit:4;stroke-dasharray:none;stroke-dashoffset:0;stroke-opacity:1" width="5.152" height="23.937" x="21.428" y="4.632" rx="1.076" ry="1.076"/><g style="opacity:.62037037"><path d="M20.438 30.5H27.5" style="fill:none;fill-rule:evenodd;stroke:#888a85;stroke-width:1px;stroke-linecap:round;stroke-linejoin:miter;stroke-opacity:1;opacity:1"/><path d="M19.961 32.5h8.016" style="fill:none;fill-rule:evenodd;stroke:#888a85;stroke-width:1px;stroke-linecap:round;stroke-linejoin:miter;stroke-opacity:1;opacity:.68055556"/><path d="M20.273 31.5h7.454" style="fill:none;fill-rule:evenodd;stroke:#5d5d5c;stroke-width:1px;stroke-linecap:round;stroke-linejoin:miter;stroke-opacity:1;opacity:1"/><path d="M19.87 33.489h8.271" style="fill:none;fill-rule:evenodd;stroke:#5d5d5c;stroke-width:.99999994000000003px;stroke-linecap:round;stroke-linejoin:miter;stroke-opacity:1;opacity:.68055556"/></g><path style="fill:none;fill-rule:evenodd;stroke:#fff;stroke-width:1px;stroke-linecap:round;stroke-linejoin:miter;stroke-opacity:1" d="M14.381 31.514h3.138M30.444 31.451h3.138"/><path style="opacity:.33500001;fill:#fff;fill-opacity:1;stroke:none;stroke-width:1;stroke-linecap:round;stroke-linejoin:round;stroke-miterlimit:4;stroke-dasharray:none;stroke-dashoffset:0;stroke-opacity:1" d="M11.049 42.188a1.193 1.083 0 1 1-2.387 0 1.193 1.083 0 1 1 2.387 0z" transform="matrix(.42163 0 0 .4766 5.363 21.392)"/></svg>