<svg fill="none" height="136" viewBox="0 0 136 136" width="136" xmlns="http://www.w3.org/2000/svg" xmlns:xlink="http://www.w3.org/1999/xlink"><clipPath id="a"><rect height="136" rx="16" width="136"/></clipPath><g clip-path="url(#a)"><path d="m136 .00002289h-136l.00014448 135.99997711h135.99985552zm-108.73 50.64007711c0-7.43 6.03-13.46 13.46-13.46h25.91c.38 0 .73.23.89.58s.09.76-.17 1.05l-5.68 6.17c-.99 1.07-2.38 1.69-3.84 1.69h-17.04c-2.23 0-4.04 1.81-4.04 4.04v10.18c0 1.31-1.06 2.37-2.37 2.37h-4.74c-1.31 0-2.37-1.06-2.37-2.37v-10.25zm80.61 34.72c0 7.43-6.03 13.4599-13.46 13.4599h-11.01c-7.43 0-13.46-6.0299-13.46-13.4599v-19.27c0-1.31.49-2.57 1.38-3.54l6.42-6.97c.27-.29.69-.39 1.07-.25.37.15.62.4999.62.8999v29.0701c0 2.23 1.81 4.04 4.04 4.04h10.88c2.23 0 4.04-1.81 4.04-4.04v-34.59c0-2.23-1.81-4.04-4.04-4.04h-12.65c-1.45 0-2.83.61-3.82 1.67l-37.73 41h22.67c1.31 0 2.37 1.06 2.37 2.37v4.74c0 1.31-1.06 2.3699-2.37 2.3699h-30.55c-2.77 0-5.02-2.2499-5.02-5.0199v-2.5101c0-1.26.47-2.4699 1.33-3.3999l42.3-45.95c2.8-3.04 6.73-4.76 10.86-4.76h12.66c7.43 0 13.46 6.03 13.46 13.46v34.72z" fill="#000"/><g fill="#fff"><path d="m27.27 50.6401c0-7.43 6.03-13.46 13.46-13.46h25.91c.38 0 .73.23.89.58s.09.76-.17 1.05l-5.68 6.17c-.99 1.07-2.38 1.69-3.84 1.69h-17.04c-2.23 0-4.04 1.81-4.04 4.04v10.18c0 1.31-1.06 2.37-2.37 2.37h-4.74c-1.31 0-2.37-1.06-2.37-2.37v-10.25z"/><path d="m107.88 85.3601c0 7.43-6.03 13.4599-13.46 13.4599h-11.01c-7.43 0-13.46-6.0299-13.46-13.4599v-19.27c0-1.31.49-2.57 1.38-3.54l6.42-6.97c.27-.29.69-.39 1.07-.25.37.15.62.4999.62.8999v29.0701c0 2.23 1.81 4.04 4.04 4.04h10.88c2.23 0 4.04-1.81 4.04-4.04v-34.59c0-2.23-1.81-4.04-4.04-4.04h-12.65c-1.45 0-2.83.61-3.82 1.67l-37.73 41h22.67c1.31 0 2.37 1.06 2.37 2.37v4.74c0 1.31-1.06 2.3699-2.37 2.3699h-30.55c-2.77 0-5.02-2.2499-5.02-5.0199v-2.5101c0-1.26.47-2.4699 1.33-3.3999l42.3-45.95c2.8-3.04 6.73-4.76 10.86-4.76h12.66c7.43 0 13.46 6.03 13.46 13.46v34.72z"/></g></g></svg>
