<?xml version="1.0" encoding="UTF-8" standalone="no"?>
<!DOCTYPE svg PUBLIC "-//W3C//DTD SVG 1.1//EN" "http://www.w3.org/Graphics/SVG/1.1/DTD/svg11.dtd">
<svg width="100%" height="100%" viewBox="0 0 842 842" version="1.1" xmlns="http://www.w3.org/2000/svg" xmlns:xlink="http://www.w3.org/1999/xlink" xml:space="preserve" xmlns:serif="http://www.serif.com/" style="fill-rule:evenodd;clip-rule:evenodd;stroke-linecap:round;stroke-miterlimit:1;">
    <g transform="matrix(0.930446,0,0,0.917323,29.2822,34.8071)">
        <path d="M334.284,27.605C324.581,29.734 314.999,23.473 312.899,13.631C310.8,3.789 316.973,-5.93 326.676,-8.059C357.062,-14.728 388.624,-18.245 421,-18.245C453.376,-18.245 484.938,-14.728 515.324,-8.059C525.027,-5.93 531.2,3.789 529.101,13.631C527.001,23.473 517.419,29.734 507.716,27.605C479.781,21.474 450.765,18.245 421,18.245C391.235,18.245 362.219,21.474 334.284,27.605ZM606.128,63.219C597.288,58.637 593.779,47.638 598.297,38.671C602.814,29.705 613.659,26.145 622.499,30.727C679.503,60.274 729.222,101.957 768.228,152.343C774.359,160.262 772.997,171.741 765.189,177.96C757.382,184.178 746.065,182.797 739.934,174.878C704.12,128.616 658.468,90.349 606.128,63.219ZM793.05,266.019C789.175,256.748 793.448,246.031 802.588,242.099C811.727,238.168 822.294,242.503 826.17,251.773C847.95,303.871 859.987,361.041 859.987,421C859.987,427.466 859.847,433.899 859.57,440.297C859.134,450.356 850.728,458.165 840.811,457.723C830.893,457.281 823.195,448.755 823.63,438.695C823.884,432.828 824.013,426.929 824.013,421C824.013,366.089 812.997,313.73 793.05,266.019ZM805.215,542.842C808.259,533.258 818.403,527.984 827.852,531.072C837.301,534.16 842.5,544.448 839.456,554.032C819.74,616.095 786.607,672.206 743.458,718.934C736.672,726.283 725.279,726.662 718.034,719.778C710.788,712.895 710.415,701.34 717.202,693.99C756.755,651.156 787.143,599.732 805.215,542.842ZM636.506,761.317C644.924,755.979 656.03,758.576 661.294,767.114C666.557,775.652 663.996,786.917 655.579,792.256C602.871,825.685 542.566,848.194 477.858,856.585C468.011,857.862 458.994,850.79 457.735,840.802C456.476,830.814 463.448,821.668 473.296,820.391C532.72,812.685 588.102,792.017 636.506,761.317ZM368.705,820.391C378.552,821.668 385.524,830.814 384.265,840.802C383.007,850.79 373.99,857.862 364.142,856.585C299.434,848.194 239.13,825.685 186.422,792.256C178.005,786.918 175.444,775.652 180.707,767.114C185.97,758.577 197.077,755.979 205.494,761.318C253.899,792.017 309.28,812.685 368.705,820.391ZM124.799,693.991C131.585,701.34 131.212,712.895 123.966,719.779C116.721,726.662 105.329,726.284 98.542,718.935C55.393,672.206 22.26,616.096 2.544,554.033C-0.5,544.449 4.699,534.16 14.148,531.072C23.597,527.984 33.741,533.258 36.785,542.842C54.857,599.733 85.245,651.157 124.799,693.991ZM18.37,438.695C18.805,448.755 11.107,457.281 1.189,457.723C-8.728,458.165 -17.134,450.356 -17.57,440.297C-17.847,433.899 -17.987,427.466 -17.987,421C-17.987,361.041 -5.95,303.871 15.83,251.773C19.706,242.503 30.273,238.168 39.412,242.099C48.552,246.031 52.825,256.748 48.95,266.019C29.003,313.73 17.987,366.089 17.987,421C17.987,426.929 18.116,432.828 18.37,438.695ZM102.066,174.878C95.935,182.797 84.618,184.178 76.811,177.959C69.003,171.741 67.641,160.262 73.772,152.343C112.778,101.957 162.497,60.274 219.502,30.727C228.342,26.145 239.187,29.704 243.704,38.671C248.221,47.637 244.712,58.637 235.872,63.219C183.532,90.348 137.88,128.616 102.066,174.878Z"/>
    </g>
    <g transform="matrix(1,0,0,1,-0.0874913,19.7704)">
        <path d="M271.72,299.242C257.366,130.855 588.516,93.563 570.173,317.131C562.493,410.745 418.71,399.948 421,555.808" style="fill:none;stroke:black;stroke-width:33.47px;"/>
        <g transform="matrix(203.075,0,0,203.075,-85082.2,-110751)">
            <circle cx="421.044" cy="548.483" r="0.044" style="stroke:black;stroke-width:0.16px;"/>
        </g>
    </g>
</svg>
