<svg width="45.34" height="64" viewBox="0 0 17 24" xmlns="http://www.w3.org/2000/svg">
    <path fill="#FCD34D" d="M11.403 18.751v4.499c-.01.41-.34.74-.748.75H6.159a.768.768 0 0 1-.749-.748v-4.5c.01-.41.34-.739.749-.749h4.5c.41.01.74.34.75.749v.001zm5.923-11.247a6.306 6.306 0 0 1-.962 3.354l.015-.026a5.462 5.462 0 0 1-1.021 1.108l-.01.008c-.321.282-.672.55-1.042.794l-.036.022q-.413.253-1.144.665a3.71 3.71 0 0 0-1.275 1.204l-.009.014a2.535 2.535 0 0 0-.515 1.243l-.001.012a.978.978 0 0 1-.226.611l.001-.002a.652.652 0 0 1-.524.29h-4.5a.563.563 0 0 1-.479-.343l-.001-.004a1.394 1.394 0 0 1-.197-.702v-.845a4.356 4.356 0 0 1 1.219-2.935l-.001.001A7.945 7.945 0 0 1 9.251 9.96l.048-.02a4.627 4.627 0 0 0 1.574-1.049l.001-.001a2.094 2.094 0 0 0 .469-1.429v.005a1.695 1.695 0 0 0-.863-1.382l-.009-.004a3.436 3.436 0 0 0-2.018-.599h.003a3.53 3.53 0 0 0-2.039.552l.014-.009A12.825 12.825 0 0 0 4.45 8.149l-.025.035a.73.73 0 0 1-.581.3a.897.897 0 0 1-.472-.152l.003.002L.301 5.991a.732.732 0 0 1-.29-.464L.01 5.523a.747.747 0 0 1 .105-.527l-.002.003C1.77 2 4.912.003 8.522.003c.103 0 .205.002.307.005h-.015a8.362 8.362 0 0 1 3.074.602l-.057-.02a10.2 10.2 0 0 1 2.757 1.571l-.02-.016a7.838 7.838 0 0 1 1.966 2.349l.02.041c.483.857.768 1.881.769 2.971z"/>
</svg>
