<svg width="512" height="512" viewBox="0 0 512 512" fill="none" xmlns="http://www.w3.org/2000/svg">
<mask id="mask0_11_17" style="mask-type:alpha" maskUnits="userSpaceOnUse" x="0" y="0" width="512" height="512">
<rect width="512" height="512" fill="black"/>
</mask>
<g mask="url(#mask0_11_17)">
<path d="M375.776 63.6078C376.949 58.409 384.357 58.409 385.53 63.6078L435.035 282.926C436.338 288.703 428.294 291.55 425.673 286.239L385.137 204.087C383.303 200.37 378.003 200.37 376.169 204.087L335.632 286.239C333.012 291.55 324.967 288.703 326.271 282.926L375.776 63.6078Z" fill="#D9D9D9"/>
<path d="M400 312C400 338.264 394.827 364.272 384.776 388.537C374.725 412.802 359.993 434.85 341.421 453.421C322.85 471.993 300.802 486.725 276.537 496.776C252.272 506.827 226.264 512 200 512C173.736 512 147.728 506.827 123.463 496.776C99.1982 486.725 77.1504 471.993 58.5786 453.421C40.0069 434.85 25.275 412.802 15.2241 388.537C5.17315 364.272 -2.2961e-06 338.264 0 312L40.7078 312C40.7078 332.919 44.828 353.632 52.8332 372.958C60.8383 392.285 72.5717 409.845 87.3634 424.637C102.155 439.428 119.715 451.162 139.041 459.167C158.368 467.172 179.081 471.292 200 471.292C220.919 471.292 241.632 467.172 260.958 459.167C280.285 451.162 297.845 439.428 312.637 424.637C327.428 409.845 339.162 392.285 347.167 372.959C355.172 353.632 359.292 332.919 359.292 312H400Z" fill="#D9D9D9"/>
<path d="M0 20.5C0 9.17816 9.17816 0 20.5 0V0C31.8218 0 41 9.17816 41 20.5V310.5C41 321.822 31.8218 331 20.5 331V331C9.17816 331 0 321.822 0 310.5V20.5Z" fill="#D9D9D9"/>
<path d="M359 20.5C359 9.17816 368.178 0 379.5 0V0C390.822 0 400 9.17816 400 20.5V310.5C400 321.822 390.822 331 379.5 331V331C368.178 331 359 321.822 359 310.5V20.5Z" fill="#D9D9D9"/>
<path d="M362.06 10.2806C363.767 5.02805 369.408 2.15354 374.661 3.86019V3.86019C379.913 5.56684 382.788 11.2084 381.081 16.4609L284.977 312.239C283.27 317.492 277.629 320.367 272.376 318.66V318.66C267.123 316.953 264.249 311.312 265.956 306.059L362.06 10.2806Z" fill="#D9D9D9"/>
<path d="M378.96 17.9405C377.254 12.688 380.128 7.04642 385.381 5.33976V5.33976C390.633 3.63311 396.275 6.50762 397.981 11.7602L494.086 307.539C495.792 312.791 492.918 318.433 487.665 320.139V320.139C482.413 321.846 476.771 318.972 475.064 313.719L378.96 17.9405Z" fill="#D9D9D9"/>
</g>
</svg>
