<svg xmlns="http://www.w3.org/2000/svg" xml:space="preserve" viewBox="0 0 256 256" width="256" height="256">
  <path d="M2268.2 2512.3a953.7 953.7 0 0 1-50 57c-180.5 189.5-426.2 294-691.6 294A953.7 953.7 0 0 1 847.8 2582a952.7 952.7 0 0 1-281.2-678.8 953.8 953.8 0 0 1 281.2-678.9 953.7 953.7 0 0 1 678.8-281.1 953.7 953.7 0 0 1 678.8 281.1 953.7 953.7 0 0 1 281.2 678.9c0 219.2-78.9 437.2-218.4 609" style="fill:#196aff;fill-opacity:1;fill-rule:nonzero;stroke:none;stroke-width:.36633128" transform="matrix(.13333 0 0 -.13333 -75.5 381.8)"/>
  <path d="M1823.7 1650.9c35.7 104.2 94.7 136.1 102 297 2.6 56.5-14.7 236-14.7 236s28 72-25.8 152.3c-83.5 124.3-255.4 132.8-345.7 132.8-90.3 0-260.2-8.5-343.7-132.8C1142 2256 1170 2184 1170 2184s-9.5-92.4-16.7-173.8c-1.7-19.1.1-94.7 2.4-113a453 453 0 0 1 25.8-96.2c14.4-39.6 36.8-79.9 54-120.5 51.8-122.8 8.4-274.9 11.1-407.3 2.2-94-20-189.3-28.7-281.2a960.4 960.4 0 0 1 308.7-50.6 958.6 958.6 0 0 1 344.9 63.6c-20.4 115-44.1 224.2-47.8 265.9-10.6 125.9-41.3 259.4 0 380" style="fill:#fff;fill-opacity:1;fill-rule:nonzero;stroke:none;stroke-width:.36655635" transform="matrix(.13333 0 0 -.13333 -75.5 381.8)"/>
  <path d="M1162.9 2383.9c1.1-18.8 3-38 8.3-56.2 1.6-5.7 4-19.7 11.4-21.8 9-2.6 25.9 8.3 32.3 13 12.3 9 23.9 18.5 36.2 27.6 8 6 16.5 10.5 24.3 16.5 8.4 6.6 14.7 14.5 21.7 22.2 8.4 9.4 14.8 19 21.3 29.5 5.1 8.2 37.1 13.5 42.2 21 5.6 8.3 1 18.6 1 28.7 0 74.2 4.4 147.6 6.1 220.3 1.8 50 21.4 109.2-53.4 85.8-160.3-50-158.5-271.3-151.4-386.6M1869.1 2279.7c-1.6 1.8-4.2 3.2-6.3 4.8a208 208 0 0 0-25.1 21.5c-9.4 9.6-19.2 19-28.2 28.9-7.9 8.7-17.3 16.6-25 25.6-5.1 6-10 12.3-14.6 18.5-2.3 3.2-3.5 7-5.3 10.4-2.7 5-40 10.1-36.2 15 6.3 8.3 20.3 15.4 23.7 25 17.2 48.6 24.8 244.5 26.8 294.5 5.4 127.8 117.6-6.3 137.2-57.7 57-149.7 23.2-258.8-46.3-386.6" style="fill:#fff;fill-opacity:1;fill-rule:nonzero;stroke:none;stroke-width:.36633128" transform="matrix(.13333 0 0 -.13333 -75.5 381.8)"/>
  <path d="M1716.5 1787.9c-.1 73.8-9.3 103.6-50.4 139.7-25.8 22.6-55.9 31.2-103.8 30-47.9 1.2-82.4-13.4-107.3-39.2-37.5-39-47.4-62-47.5-135.9 0-39.9 43-128.1 55.7-148.5 21.3-36 60.6-48.9 99.1-46.2 38.6-2.7 77.9 10.3 99.1 46.2 12.8 20.4 55.1 107 55 153.9" style="fill:#f1e6d3;fill-opacity:1;fill-rule:nonzero;stroke:none;stroke-width:.36633128" transform="matrix(.13333 0 0 -.13333 -75.5 381.8)"/>
  <path d="M1226.6 2316c-9.6 86.2-38.6 240 61.5 331.3 11 10.1 14-24.2 15.8-38 2.6-19 0-73.5.4-92.6.7-36.1 8.3-55 4.7-71.5-9.6-45-17.3-42.2-26.5-69.6-18.3-54.4-53.3-83-55.9-59.5M1851.7 2333c10.3-18.2 37 80.3 45.4 123.2 8 40.3 18 93.8 4 133.9-7.4 21.5-53 84.5-58.4 62.9-2-8.5-3.2-71.1-8.3-101.1-6.4-37.1-18-73.8-18-111.6-.2-84.5 25.3-88 35.3-107.2" style="fill:#f1d7d4;fill-opacity:1;fill-rule:nonzero;stroke:none;stroke-width:.36633128" transform="matrix(.13333 0 0 -.13333 -75.5 381.8)"/>
  <path d="M1522 1319.7c-2.2-6.5-18.6-11.4-24.8-13.3-14.9-4.9-28.1 6.9-36.4 16.8-11.6 13.7-11.3 35.6-16.2 51.6-2.9 9.7-19.5 11-24.5 2-16.6-29.8-81.1 26.4-66.1 45.2 9.9 12.3-13.8 23.2-23.6 11-29-36.1 49-103.4 93.6-85.2 2-9 4-18 8-26.6 7.4-16.9 23.9-27.8 41-37 23.1-12.4 68.2 9.5 75 30.3 4.9 14.5-21.2 19.7-26 5.2M1727.6 1538.2c2.4-10 2.8-44-16-25.4-7.5 7.5-22.6 3-23.2-7-1.4-23.4-24.9-24-45.1-16.9-16 5.6-24.6-16.6-8.6-22.1 29.7-10.4 62-4.6 74.7 17.8 10.1-4.7 21.5-6 30.7 2.6 16 15 18.4 36.2 13.7 55.7-3.5 14.8-29.7 10.1-26.2-4.7M1775 1049.2c-7-14.3-19.8-13.4-33.6-7.4-10.1 4.4-22.6-2.8-19.6-13 6.2-20.6-19.7-26.6-37.3-19.3-15.4 6.5-28.8-13.8-13.2-20.3 31.6-13.2 71.7-1.6 77.5 26.2 20.4-3.3 39.8 2.4 49.4 22.3 6.7 13.6-16.4 25.4-23.2 11.5M1569.8 2153.3c-3.3-20.2-41.1 3.3-50.5 9.7-8.3 5.5-19 2.1-20-7.3-1.4-12.7-18.5-9-26.3-7.4-14.8 3-27.4 12.2-27.7 26-.4 13.6 8.2 27.7 12.6 40.4 2.9 8-8.7 17-17.2 11.5-15.2-9.7-88.7-18.5-59.4 13.6 9.3 10.2-7.1 24.8-16.6 14.5-13.5-14.8-22.6-48.7 6.6-56 15.5-3.7 37.8-3.5 56.8.8-8-25.5-9.6-48.8 23.2-65.1 22.1-11.1 52.5-11 65.4 6 27.2-14.5 69.7-28.7 75.6 7.8 2.1 13-20.4 18.5-22.5 5.5" style="fill:#faeee0;fill-opacity:1;fill-rule:nonzero;stroke:none;stroke-width:.36633128" transform="matrix(.13333 0 0 -.13333 -75.5 381.8)"/>
  <path d="M1443 1685.6c39.4-3.4 78.8-12.3 118.5-10.9 25.4 1 51.7 4.5 76.8 8.2 18.2 2.7 40.5 6 52.7 19.4 1-45-92.6-59.1-128.9-60-42.1-1-89.5 17.2-119 43.3" style="fill:#494949;fill-opacity:1;fill-rule:nonzero;stroke:none;stroke-width:.36633128" transform="matrix(.13333 0 0 -.13333 -75.5 381.8)"/>
  <path d="M1549.4 1779.5a353.5 353.5 0 0 1-2.7-87.3c.7-7.6-1.3-25.7 8.8-29.5 8.2-3 18.3 2.7 19.7 10.1 2.2 12.5-3 28.2-3.5 41-.5 14.9 0 29.8 1.6 44.7 1 8.8 5.9 20.7-4.2 27-7.4 4.5-18.3 2.8-19.7-6" style="fill:#494949;fill-opacity:1;fill-rule:nonzero;stroke:none;stroke-width:.36633128" transform="matrix(.13333 0 0 -.13333 -75.5 381.8)"/>
  <path d="M1626 1849.7c-23.7-1-45.7-14.2-63.4-27-16.1 10.7-40.5 20.5-60.7 14.8-12-3.4-1.1-7.1 4-10.3 9.2-6.2 16.8-14.2 23.7-22.4 10.3-12.6 19.6-25.8 30.7-38 7.6 5.6 15 11.1 21.6 17.6 3.1 3 28.5 37 32.4 42.7 2.4 3.6 5 7.4 7.8 10.8 2.9 3.5 11 9 3.9 11.8" style="fill:#494949;fill-opacity:1;fill-rule:nonzero;stroke:none;stroke-width:.36633128" transform="matrix(.13333 0 0 -.13333 -75.5 381.8)"/>
  <path d="M1326.5 2010c11.7 30.3 24.3 68.4 56.3 62.4 24.2-5.2 56.7-86.2 36-78.2-11.3 4.4-20.3 41.1-41.4 46-13.4 3-32-43.6-50-48.4-8.7-2.3-4.3 10.4-.9 18.2M1670.6 2010c11.7 30.3 24.2 68.4 56.3 62.4 24.2-5.2 56.7-86.2 35.9-78.2-11.3 4.4-20.2 41.1-41.3 46-13.5 3-32-43.6-50-48.4-8.7-2.3-4.4 10.4-1 18.2" style="fill:#2c3844;fill-opacity:1;fill-rule:nonzero;stroke:none;stroke-width:.36633128" transform="matrix(.13333 0 0 -.13333 -75.5 381.8)"/>
</svg>
