<?xml version="1.0" encoding="UTF-8" standalone="no"?>
<svg
   xmlns:dc="http://purl.org/dc/elements/1.1/"
   xmlns:cc="http://creativecommons.org/ns#"
   xmlns:rdf="http://www.w3.org/1999/02/22-rdf-syntax-ns#"
   xmlns:svg="http://www.w3.org/2000/svg"
   xmlns="http://www.w3.org/2000/svg"
   xmlns:sodipodi="http://sodipodi.sourceforge.net/DTD/sodipodi-0.dtd"
   xmlns:inkscape="http://www.inkscape.org/namespaces/inkscape"
   width="275.9418mm"
   height="107.06042mm"
   viewBox="0 0 275.9418 107.06042"
   version="1.1"
   id="svg900"
   inkscape:version="1.0.1 (3bc2e813f5, 2020-09-07)"
   sodipodi:docname="logo-dark-bg.svg">
  <defs
     id="defs894">
    <clipPath
       clipPathUnits="userSpaceOnUse"
       id="clipPath20">
      <path
         d="M 0,700 H 1100 V 0 H 0 Z"
         id="path18" />
    </clipPath>
  </defs>
  <sodipodi:namedview
     id="base"
     pagecolor="#ffffff"
     bordercolor="#666666"
     borderopacity="1.0"
     inkscape:pageopacity="0.0"
     inkscape:pageshadow="2"
     inkscape:zoom="0.35"
     inkscape:cx="501.46484"
     inkscape:cy="865.17604"
     inkscape:document-units="mm"
     inkscape:current-layer="layer1"
     inkscape:document-rotation="0"
     showgrid="false"
     inkscape:window-width="1346"
     inkscape:window-height="1198"
     inkscape:window-x="149"
     inkscape:window-y="113"
     inkscape:window-maximized="0" />
  <metadata
     id="metadata897">
    <rdf:RDF>
      <cc:Work
         rdf:about="">
        <dc:format>image/svg+xml</dc:format>
        <dc:type
           rdf:resource="http://purl.org/dc/dcmitype/StillImage" />
        <dc:title></dc:title>
      </cc:Work>
    </rdf:RDF>
  </metadata>
  <g
     inkscape:label="Layer 1"
     inkscape:groupmode="layer"
     id="layer1"
     transform="translate(26.845906,80.744493)">
    <g
       id="g14"
       transform="matrix(0.35277777,0,0,-0.35277777,-100.60779,96.696294)">
      <g
         id="g16"
         clip-path="url(#clipPath20)">
        <g
           id="g22"
           transform="translate(600.9092,345.958)" />
        <g
           id="g26"
           transform="translate(706.707,299.5566)" />
        <g
           id="g30"
           transform="translate(810.2764,345.958)" />
        <g
           id="g34"
           transform="translate(930.5527,345.958)" />
        <g
           id="g40"
           transform="translate(503.8398,367.5195)">
          <path
             d="m 8.7266003,-16.286056 c 0,-3.170064 -0.10674,-6.340128 -0.32021,-9.492657 -0.85541,-13.857403 -3.56194,-27.197135 -7.89009005,-39.789715 C -18.95161,-122.31318 -71.13644,-163.86557 -133.5283,-167.69511 c -3.13424,-0.23101 -6.30506,-0.32097 -9.49342,-0.32097 -3.1876,0 -6.33937,0.09 -9.4919,0.32097 -76.24773,4.68419 -137.23296,65.6679 -141.91639,141.916397 -0.23101,3.152529 -0.32098,6.322593 -0.32098,9.492657 0,3.188361 0.09,6.358425 0.32098,9.493419 4.68343,76.22944 65.66866,137.249737 141.91639,141.933927 3.15253,0.21348 6.3043,0.32098 9.4919,0.32098 3.18836,0 6.35918,-0.1075 9.49342,-0.32098 V 94.354359 h -18.98532 V 110.75818 C -215.22645,106.14489 -265.43361,55.901133 -270.06444,-6.792637 h 14.65793 v -18.986076 h -14.65793 c 4.63083,-62.712067 54.83799,-112.920757 117.55082,-117.551577 v 16.72479 h 18.98532 v -16.72479 c 46.32654,3.42013 85.86619,31.73876 105.20907,71.59937 6.83873,14.070117 11.14859,29.584217 12.34251,45.952207 h -0.0358 l 8.8697703,18.986076 h 15.54917 c 0.21347,-3.134994 0.32021,-6.305058 0.32021,-9.493419"
             style="fill:#2f855a;fill-opacity:1;fill-rule:nonzero;stroke:none;stroke-width:0.762401"
             id="path42" />
        </g>
        <g
           id="g44"
           transform="translate(504.2754,431.2373)">
          <path
             d="m 11.6231,-31.425333 -17.1029497,8.252992 -4.6666503,-9.703842 -9.61922,-20.006168 -37.98968,-78.855149 -0.0572,-0.0854 h -37.47886 l -0.0282,0.0572 0.0282,0.0854 14.77,30.64853 3.78456,7.85425 0.19898,0.42618 19.2087,39.869009 7.37013,15.25336 2.27653,4.752808 11.72497,24.386926 -5.77672,2.761416 -9.59024,4.638449 49.9708203,23.249422 z"
             style="fill:#2f855a;fill-opacity:1;fill-rule:nonzero;stroke:none;stroke-width:0.762401"
             id="path46" />
        </g>
        <g
           id="g48"
           transform="translate(258.5654,361.2139)">
          <path
             d="m 65.50352,-19.287853 v -0.0183 L 46.73396,-58.308305 12.56848,12.654468 2.9523203,32.646912 H 40.49066 l 9.63446,-19.992444 z"
             style="fill:#2f855a;fill-opacity:1;fill-rule:nonzero;stroke:none;stroke-width:0.762401"
             id="path50" />
        </g>
        <g
           id="g52"
           transform="translate(320.9248,367.3867)">
          <path
             d="M 52.18699,-16.254503 27.28545,-67.966647 v -0.01906 h -37.57494 v 0.01906 l 18.7870903,39.002155 19.2506297,39.94677 5.65168,11.764611 5.66921,-11.764611 9.2647,-19.232331 z"
             style="fill:#2f855a;fill-opacity:1;fill-rule:nonzero;stroke:none;stroke-width:0.762401"
             id="path54" />
        </g>
        <g
           id="g56"
           transform="translate(383.7656,359.833)">
          <path
             d="m 38.75609,-18.959752 -3.78456,-7.854257 -14.7982,-30.591345 -0.0282,-0.08539 -25.2979997,52.560696 -9.1358503,18.95253 -9.61769,20.005406 h 37.10759 z"
             style="fill:#2f855a;fill-opacity:1;fill-rule:nonzero;stroke:none;stroke-width:0.762401"
             id="path58" />
        </g>
      </g>
    </g>
    <g
       aria-label="akapi"
       transform="matrix(0.35277777,0,0,0.35277777,-84.30991,101.5377)"
       id="text856"
       style="font-style:normal;font-variant:normal;font-weight:500;font-stretch:normal;font-size:176px;line-height:1.25;font-family:Roboto;-inkscape-font-specification:'Roboto, Medium';font-variant-ligatures:normal;font-variant-caps:normal;font-variant-numeric:normal;font-variant-east-asian:normal;letter-spacing:7.5px;fill:#000000;fill-opacity:1;stroke:none;stroke-width:0.75">
      <path
         d="m 565.57956,-313.41107 q -1.375,-2.66406 -2.40625,-8.67969 -9.96875,10.39844 -24.40625,10.39844 -14.00781,0 -22.85938,-7.99219 -8.85156,-7.99219 -8.85156,-19.76562 0,-14.86719 11,-22.77344 11.08594,-7.99219 31.625,-7.99219 h 12.80469 v -6.10156 q 0,-7.21875 -4.03906,-11.51563 -4.03907,-4.38281 -12.28907,-4.38281 -7.13281,0 -11.6875,3.60938 -4.55468,3.52343 -4.55468,9.02343 h -20.88282 q 0,-7.64843 5.07032,-14.26562 5.07031,-6.70313 13.75,-10.48438 8.76562,-3.78125 19.50781,-3.78125 16.32812,0 26.03906,8.25 9.71094,8.16407 9.96875,23.03125 v 41.9375 q 0,12.54688 3.52344,20.02344 v 1.46094 z m -22.94531,-15.03906 q 6.1875,0 11.60156,-3.00782 5.5,-3.00781 8.25,-8.07812 v -17.53125 H 551.228 q -11.60157,0 -17.44532,4.03906 -5.84375,4.03906 -5.84375,11.42969 0,6.01562 3.95313,9.625 4.03906,3.52344 10.74219,3.52344 z"
         style="font-style:normal;font-variant:normal;font-weight:500;font-stretch:normal;font-size:176px;font-family:Roboto;-inkscape-font-specification:'Roboto, Medium';font-variant-ligatures:normal;font-variant-caps:normal;font-variant-numeric:normal;font-variant-east-asian:normal;fill:#ffffff;fill-opacity:1;stroke-width:0.75"
         id="path851" />
      <path
         d="m 642.94675,-353.28607 -9.28125,9.53906 v 30.33594 h -20.88282 v -132 h 20.88282 v 76.14062 l 6.53125,-8.16406 25.69531,-28.96094 h 25.09375 l -34.54688,38.75782 38.24219,54.22656 h -24.14844 z"
         style="font-style:normal;font-variant:normal;font-weight:500;font-stretch:normal;font-size:176px;font-family:Roboto;-inkscape-font-specification:'Roboto, Medium';font-variant-ligatures:normal;font-variant-caps:normal;font-variant-numeric:normal;font-variant-east-asian:normal;fill:#ffffff;fill-opacity:1;stroke-width:0.75"
         id="path853" />
      <path
         d="m 767.6655,-313.41107 q -1.375,-2.66406 -2.40625,-8.67969 -9.96875,10.39844 -24.40625,10.39844 -14.00782,0 -22.85938,-7.99219 -8.85156,-7.99219 -8.85156,-19.76562 0,-14.86719 11,-22.77344 11.08594,-7.99219 31.625,-7.99219 h 12.80469 v -6.10156 q 0,-7.21875 -4.03907,-11.51563 -4.03906,-4.38281 -12.28906,-4.38281 -7.13281,0 -11.6875,3.60938 -4.55469,3.52343 -4.55469,9.02343 h -20.88281 q 0,-7.64843 5.07031,-14.26562 5.07032,-6.70313 13.75,-10.48438 8.76563,-3.78125 19.50782,-3.78125 16.32812,0 26.03906,8.25 9.71094,8.16407 9.96875,23.03125 v 41.9375 q 0,12.54688 3.52344,20.02344 v 1.46094 z m -22.94532,-15.03906 q 6.1875,0 11.60157,-3.00782 5.5,-3.00781 8.25,-8.07812 v -17.53125 h -11.25782 q -11.60156,0 -17.44531,4.03906 -5.84375,4.03906 -5.84375,11.42969 0,6.01562 3.95313,9.625 4.03906,3.52344 10.74218,3.52344 z"
         style="font-style:normal;font-variant:normal;font-weight:500;font-stretch:normal;font-size:176px;font-family:Roboto;-inkscape-font-specification:'Roboto, Medium';font-variant-ligatures:normal;font-variant-caps:normal;font-variant-numeric:normal;font-variant-east-asian:normal;fill:#ffffff;fill-opacity:1;stroke-width:0.75"
         id="path855" />
      <path
         d="m 896.25143,-358.95795 q 0,21.57032 -9.79687,34.46094 -9.79688,12.80469 -26.29688,12.80469 -15.29687,0 -24.49218,-10.05469 v 44.08594 h -20.88282 v -128.73438 h 19.25 l 0.85938,9.45313 q 9.19531,-11.17188 25.00781,-11.17188 17.01563,0 26.64063,12.71875 9.71093,12.63282 9.71093,35.14844 z m -20.79687,-1.80468 q 0,-13.92188 -5.58594,-22.08594 -5.5,-8.16406 -15.8125,-8.16406 -12.80469,0 -18.39062,10.57031 v 41.25 q 5.67187,10.82812 18.5625,10.82812 9.96875,0 15.55468,-7.99218 5.67188,-8.07813 5.67188,-24.40625 z"
         style="font-style:normal;font-variant:normal;font-weight:500;font-stretch:normal;font-size:176px;font-family:Roboto;-inkscape-font-specification:'Roboto, Medium';font-variant-ligatures:normal;font-variant-caps:normal;font-variant-numeric:normal;font-variant-east-asian:normal;fill:#ffffff;fill-opacity:1;stroke-width:0.75"
         id="path857" />
      <path
         d="m 943.62643,-313.41107 h -20.88281 v -92.98438 h 20.88281 z m -22.17187,-117.13281 q 0,-4.8125 3.00781,-7.99219 3.09375,-3.17969 8.76563,-3.17969 5.67187,0 8.76562,3.17969 3.09375,3.17969 3.09375,7.99219 0,4.72656 -3.09375,7.90625 -3.09375,3.09375 -8.76562,3.09375 -5.67188,0 -8.76563,-3.09375 -3.00781,-3.17969 -3.00781,-7.90625 z"
         style="font-style:normal;font-variant:normal;font-weight:500;font-stretch:normal;font-size:176px;font-family:Roboto;-inkscape-font-specification:'Roboto, Medium';font-variant-ligatures:normal;font-variant-caps:normal;font-variant-numeric:normal;font-variant-east-asian:normal;fill:#ffffff;fill-opacity:1;stroke-width:0.75"
         id="path859" />
    </g>
  </g>
</svg>
