<?xml version="1.0" encoding="UTF-8" standalone="no"?>
<!DOCTYPE svg PUBLIC "-//W3C//DTD SVG 1.1//EN" "http://www.w3.org/Graphics/SVG/1.1/DTD/svg11.dtd">
<svg width="100%" height="100%" viewBox="0 0 128 128" version="1.1" xmlns="http://www.w3.org/2000/svg" xmlns:xlink="http://www.w3.org/1999/xlink" xml:space="preserve" xmlns:serif="http://www.serif.com/" style="fill-rule:evenodd;clip-rule:evenodd;stroke-linejoin:round;stroke-miterlimit:2;">
    <path d="M63.692,64.781c0,0 20.812,0.75 30.375,9c9.562,8.25 16.125,24 13.312,37.688c-5.625,-1.313 -29.625,-5.438 -39.375,-17.438c-9.75,-12 -9.375,-20.437 -8.25,-25.5c1.125,-5.062 3.938,-3.75 3.938,-3.75" style="fill:#1c9cf3;fill-rule:nonzero;"/>
    <path d="M60.044,68.582c-0.475,2.139 -0.988,5.498 0.046,9.953c1.125,4.848 3.801,10.068 8.198,15.31c10.06,11.993 38.391,16.857 38.734,16.932c1.078,-6.234 0.351,-12.729 -2.174,-19.516c-2.494,-6.705 -6.5,-12.669 -11.279,-16.793c-9.415,-8.122 -30.26,-8.963 -30.469,-8.971l-0.215,-0.007l-0.155,-0.081c-0.002,0 -0.177,-0.068 -0.418,-0.068c-0.998,0 -1.803,1.151 -2.268,3.241Z" style="fill:url(#_Radial1);fill-rule:nonzero;"/>
    <path d="M58.254,64.781c0,0 2.625,5.438 -3.562,13.688c-6.188,8.25 -19.125,21.562 -51.375,18.75c1.125,-7.688 6.75,-15.563 12.937,-21.188c6.188,-5.625 20.063,-11.437 29.25,-11.625c9.188,-0.187 12.75,0.375 12.75,0.375" style="fill:#04bbf3;fill-rule:nonzero;"/>
    <path d="M45.667,65.135c-4.286,0.086 -10.037,1.469 -15.783,3.791c-5.597,2.263 -10.53,5.128 -13.534,7.859c-6.762,6.148 -11.116,13.417 -12.413,19.94c2.596,0.201 7.447,0.302 7.447,0.302c11.549,0 21.195,-2.117 29.11,-6.626c7.017,-3.996 11.231,-8.995 13.79,-12.407c4.909,-6.545 4.149,-11.122 3.717,-12.555c-1.08,-0.116 -3.81,-0.344 -8.669,-0.344c-1.165,0 -2.398,0.013 -3.665,0.04Z" style="fill:url(#_Linear2);fill-rule:nonzero;"/>
    <path d="M123.879,45.656c0,0 -3.75,10.875 -22.125,16.125c-18.375,5.25 -38.062,1.875 -38.062,1.875c0,0 4.687,-12.375 18.187,-18.187c13.5,-5.813 37.313,-0.563 42,0.187" style="fill:#02bef3;fill-rule:nonzero;"/>
    <path d="M81.544,46.68c-10.988,4.731 -16.174,13.887 -17.695,17.055c2.266,0.309 7.463,0.901 13.983,0.901c8.656,0 16.566,-1.005 23.51,-2.989c14.825,-4.235 20.235,-12.672 21.72,-15.505c-0.243,-0.043 -17.126,-3.378 -26.758,-3.378c-6.904,0 -10.593,2.121 -14.76,3.916Z" style="fill:url(#_Radial3);fill-rule:nonzero;"/>
    <path d="M57.921,65.406c0,0 -26.74,-1.259 -42.436,-12.71c-15.695,-11.451 -15.333,-15.226 -15.333,-15.226c0,0 17.598,-0.054 26.286,3.078c8.688,3.133 22.335,11.948 31.483,24.858" style="fill:#02bef3;fill-rule:nonzero;"/>
    <path d="M16.409,52.486c6.069,4.428 13.396,7.559 22.006,9.665c0.002,0.001 0.002,0.001 0.004,0.001c9.149,1.098 16.735,2.791 18.559,2.946c-4.016,-5.462 -9.015,-10.404 -14.381,-14.517c-5.193,-3.99 -10.674,-7.143 -15.228,-8.943c-0.845,-0.336 -1.74,-0.638 -2.662,-0.915c-8.018,-2.397 -21.465,-2.553 -23.533,-2.583c0.509,0.942 2.299,4.909 15.235,14.346Z" style="fill:url(#_Radial4);fill-rule:nonzero;"/>
    <path d="M58.113,67.998c2.377,0.304 3.66,5.62 2.862,11.865c-0.798,6.244 -3.376,11.067 -5.754,10.763c-2.377,-0.303 -3.66,-5.62 -2.862,-11.864c0.798,-6.245 3.376,-11.068 5.754,-10.764Z" style="fill:url(#_Radial5);"/>
    <g>
        <path d="M61.629,64.651c-7.957,1.497 3.291,37.119 15.337,42.529c23.156,10.401 35.993,-9.611 35.993,-16.859c0,-7.249 -31.885,-29.326 -51.33,-25.67Z" style="fill:url(#_Radial6);fill-rule:nonzero;"/>
        <path d="M50.386,74.833c-2.895,5.261 20.365,23.165 30.768,21.166c10.402,-2 24.271,-12.529 23.192,-18.252c-1.079,-5.724 -19.995,-21.583 -35.132,-15.913c-9.928,3.719 -15.933,7.738 -18.828,12.999Z" style="fill:url(#_Radial7);fill-rule:nonzero;"/>
        <path d="M60.31,77.16c-2.178,5.597 13.079,21.534 23.128,18.182c10.048,-3.352 22.409,-15.617 20.586,-21.148c-1.824,-5.532 -22.664,-18.761 -36.922,-11.146c-9.351,4.994 -4.615,8.515 -6.792,14.112Z" style="fill:url(#_Radial8);fill-rule:nonzero;"/>
        <path d="M58.727,74.603c-1.855,4.721 11.081,18.141 19.616,15.304c8.535,-2.837 19.043,-13.192 17.501,-17.853c-1.542,-4.662 -19.221,-15.793 -31.334,-9.357c-7.946,4.221 -3.928,7.185 -5.783,11.906Z" style="fill:url(#_Radial9);fill-rule:nonzero;"/>
    </g>
    <g>
        <path d="M61.553,74.101c-1.577,4.793 -19.173,24.596 -31.313,27.374c-12.14,2.779 -24.092,-9.922 -25.211,-15.785c-1.119,-5.862 17.202,-22.572 35.975,-24.02c12.313,-0.95 23.195,4.394 20.549,12.431" style="fill:url(#_Radial10);fill-rule:nonzero;"/>
        <path d="M61.211,71.442c-1.214,5.581 -17.369,27.784 -29.357,30.15c-11.989,2.368 -24.988,-13.673 -26.567,-20.736c-1.579,-7.063 15.545,-25.529 34.304,-25.799c12.305,-0.176 23.657,7.026 21.62,16.385" style="fill:url(#_Radial11);fill-rule:nonzero;"/>
        <path d="M52.51,74.882c-1.717,3.102 -15.803,13.833 -23.882,13.516c-8.079,-0.316 -13.708,-11.577 -13.531,-15.946c0.177,-4.369 14.254,-12.769 26.319,-10.259c7.913,1.647 13.974,7.488 11.094,12.689" style="fill:url(#_Radial12);fill-rule:nonzero;"/>
    </g>
    <path d="M34.746,69.666c-3.518,0.435 -20.481,-4.645 -24.977,-11.365c-4.497,-6.719 1.299,-17.895 4.937,-20.322c3.637,-2.426 18.71,4.018 23.777,15.251c3.322,7.368 2.164,15.705 -3.737,16.436" style="fill:url(#_Radial13);fill-rule:nonzero;"/>
    <g>
        <path d="M96.436,40.499c15.231,-2.015 28.385,2.308 29.356,9.649c0.971,7.34 -10.605,14.936 -25.836,16.951c-15.231,2.015 -28.385,-2.308 -29.356,-9.648c-0.971,-7.341 10.606,-14.937 25.836,-16.952Z" style="fill:url(#_Radial14);"/>
        <path d="M99.526,41.492c13.736,1.417 24.292,8.341 23.559,15.452c-0.734,7.111 -12.482,11.734 -26.218,10.316c-13.737,-1.417 -24.293,-8.341 -23.559,-15.452c0.733,-7.111 12.481,-11.734 26.218,-10.316Z" style="fill:url(#_Radial15);"/>
        <path d="M89.733,43.795c11.582,-1.429 21.602,2.408 22.361,8.563c0.76,6.154 -8.027,12.311 -19.609,13.74c-11.581,1.429 -21.601,-2.407 -22.36,-8.562c-0.76,-6.154 8.027,-12.311 19.608,-13.741Z" style="fill:url(#_Radial16);"/>
    </g>
    <path d="M59.353,65.162c0.022,0.369 0.978,7.846 -5.49,10.654c-5.003,2.171 -11.154,3.242 -24.792,-2.947c-13.638,-6.189 -18.377,-15.18 -18.377,-15.18c0,0 7.628,2.802 12.367,3.153c4.739,0.351 16.99,2.102 20.11,2.685c3.121,0.585 8.669,0.117 10.749,-0.349c2.081,-0.468 5.202,-1.752 5.433,1.984" style="fill:#b3c3ce;fill-rule:nonzero;"/>
    <path d="M29.071,72.494c13.639,6.188 19.79,5.117 24.792,2.948c6.468,-2.809 5.512,-10.287 5.49,-10.655c-0.232,-3.736 -3.352,-2.452 -5.432,-1.984c-2.081,0.467 -7.49,0.137 -11.979,-0.178c-5.344,-0.375 -13.969,-1.5 -18.88,-2.158c-4.71,-0.631 -12.368,-3.153 -12.368,-3.153c0,0 4.74,8.991 18.377,15.18Z" style="fill:url(#_Linear17);fill-rule:nonzero;"/>
    <path d="M55.262,58.355c0,0 -4.342,-3.433 -7.875,-7.169c-3.534,-3.735 -14.943,-14.538 -17.77,-17.466c-2.826,-2.928 -10.5,-12.924 -11.51,-17.164c-2.322,5.149 -3.836,14.539 -1.009,23.626c2.826,9.087 9.39,15.648 18.072,19.284c8.683,3.634 16.255,3.432 18.375,3.432c2.121,0 5.049,-1.413 1.717,-4.543" style="fill:#f5f6f2;fill-rule:nonzero;"/>
    <path d="M17.473,40.182c2.827,9.086 9.39,15.649 18.073,19.283c8.682,3.635 16.254,3.687 18.375,3.687c1.197,0 4.989,-0.152 5.177,-0.715c0.403,-1.21 -1.926,-2.107 -3.375,-3.468c-3.848,-3.042 -3.776,-3.358 -7.961,-7.782c-3.534,-3.736 -14.943,-14.539 -17.769,-17.467c-2.827,-2.928 -10.502,-12.923 -11.511,-17.165c-2.322,5.15 -3.837,14.54 -1.009,23.627Z" style="fill:url(#_Linear18);fill-rule:nonzero;"/>
    <path d="M103.337,21.668c-3.75,3.375 -10.395,7.863 -16.77,11.988c-6.375,4.125 -10.5,11.063 -15.375,18.375c-4.875,7.313 -9.75,10.875 -9.75,10.875c0,0 7.687,1.125 15,1.125c11.256,0 24,-9.375 28.687,-14.437c4.688,-5.063 7.838,-13.311 7.875,-21.75c0.043,-9.861 -4.519,-11.792 -4.519,-11.792c0,0 -1.398,2.24 -5.148,5.615Z" style="fill:url(#_Linear19);fill-rule:nonzero;"/>
    <path d="M103.865,20.907c-3.751,3.375 -11.298,8.624 -17.673,12.749c-6.375,4.125 -10.5,11.063 -15.375,18.375c-3.751,5.625 -8.444,8.724 -10.41,10.329c-0.59,0.482 -0.934,1.765 -0.934,1.765c6.769,0.99 8.351,-0.094 16.594,-0.094c11.255,0 24,-9.375 28.687,-14.437c4.688,-5.063 7.688,-13.313 7.875,-21.75c0.188,-8.438 -4.125,-11.813 -4.125,-11.813c0,0 -0.89,1.501 -4.639,4.876Z" style="fill:url(#_Linear20);fill-rule:nonzero;"/>
    <g>
        <path d="M42.638,45.578c8.133,5.258 12.662,12.735 10.107,16.686c-2.555,3.952 -11.232,2.89 -19.365,-2.368c-8.132,-5.259 -12.661,-12.736 -10.106,-16.687c2.555,-3.951 11.232,-2.89 19.364,2.369Z" style="fill:url(#_Radial21);"/>
        <path d="M41.855,45.022c7.726,5.84 12.065,13.139 9.684,16.29c-2.382,3.151 -10.588,0.968 -18.314,-4.871c-7.726,-5.839 -12.065,-13.139 -9.684,-16.29c2.382,-3.151 10.588,-0.968 18.314,4.871Z" style="fill:url(#_Radial22);"/>
    </g>
    <g>
        <path d="M76.747,50.134c8.038,-4.494 15.957,-5.649 17.674,-2.578c1.717,3.071 -3.415,9.213 -11.452,13.706c-8.038,4.494 -15.958,5.649 -17.674,2.578c-1.717,-3.071 3.414,-9.213 11.452,-13.706Z" style="fill:url(#_Radial23);"/>
        <path d="M79.138,46.315c7.951,-4.445 15.94,-5.31 17.83,-1.93c1.889,3.38 -3.032,9.733 -10.983,14.178c-7.951,4.445 -15.94,5.31 -17.83,1.93c-1.889,-3.38 3.032,-9.733 10.983,-14.178Z" style="fill:url(#_Radial24);"/>
        <path d="M78.132,49.395c7.5,-5.169 15.482,-6.621 17.812,-3.24c2.33,3.381 -1.867,10.323 -9.367,15.492c-7.5,5.17 -15.481,6.622 -17.812,3.241c-2.33,-3.381 1.867,-10.323 9.367,-15.493Z" style="fill:url(#_Radial25);"/>
        <path d="M87.314,42.046c2.878,-6.448 7.508,-10.659 10.332,-9.399c2.825,1.261 2.781,7.519 -0.098,13.967c-2.878,6.448 -7.508,10.659 -10.332,9.399c-2.824,-1.261 -2.78,-7.52 0.098,-13.967Z" style="fill:url(#_Radial26);"/>
    </g>
    <path d="M24.702,32.262c-0.805,5.902 0.586,11.977 3.363,15.977c2.778,4.001 10.763,11.808 18.631,12.917c5.111,0.72 10.596,0.69 10.596,0.69c0,0 -3.058,-2.97 -5.745,-8.561c-2.687,-5.591 -4.888,-10.846 -8.937,-14.358c-4.05,-3.511 -8.254,-7.303 -10.543,-10.031c-2.288,-2.729 -3.044,-4.431 -3.044,-4.431c0,0 -3.38,0.899 -4.321,7.797Z" style="fill:url(#_Linear27);fill-rule:nonzero;"/>
    <path d="M24.965,32.299c-0.7,5.916 0.585,11.978 3.363,15.978c2.778,3.999 10.762,11.808 18.63,12.915c5.762,0.813 6.31,1.128 11.139,1.102c0,0 -3.6,-3.381 -6.288,-8.972c-2.688,-5.591 -4.887,-10.847 -8.937,-14.358c-4.05,-3.51 -8.808,-7.923 -11.097,-10.651c-2.289,-2.728 -2.764,-3.865 -2.764,-3.865c0,0 -3.347,1.934 -4.046,7.851Z" style="fill:url(#_Linear28);fill-rule:nonzero;"/>
    <g>
        <path d="M55.714,66.066c1.06,3.068 -2.837,7.203 -8.698,9.227c-5.86,2.024 -11.478,1.176 -12.538,-1.892c-1.059,-3.069 2.838,-7.203 8.698,-9.227c5.86,-2.024 11.478,-1.176 12.538,1.892Z" style="fill:url(#_Radial29);"/>
        <path d="M53.204,68.127c0.12,2.902 -4.178,5.44 -9.591,5.663c-5.413,0.223 -9.905,-1.952 -10.024,-4.854c-0.12,-2.903 4.178,-5.44 9.591,-5.664c5.413,-0.223 9.905,1.953 10.024,4.855Z" style="fill:url(#_Radial30);"/>
        <path d="M58.03,66.776c0.851,2.014 -2.078,5.179 -6.538,7.064c-4.459,1.885 -8.771,1.78 -9.622,-0.233c-0.851,-2.014 2.078,-5.179 6.538,-7.064c4.46,-1.885 8.771,-1.78 9.622,0.233Z" style="fill:url(#_Radial31);"/>
    </g>
    <path d="M31.673,65.694c2.166,3.131 5.442,5.398 8.477,6.086c3.035,0.689 10.168,0.927 14.358,-1.942c2.722,-1.865 5.295,-4.244 5.295,-4.244c0,0 -2.723,-0.082 -6.401,-1.561c-3.679,-1.478 -6.984,-3.008 -10.407,-2.918c-3.425,0.09 -7.043,0.115 -9.299,-0.185c-2.257,-0.299 -3.348,-0.777 -3.348,-0.777c0,0 -1.205,1.882 1.325,5.541Z" style="fill:url(#_Linear32);fill-rule:nonzero;"/>
    <path d="M31.813,65.599c2.221,3.091 5.441,5.396 8.476,6.086c3.036,0.688 10.17,0.928 14.358,-1.942c3.068,-2.103 3.462,-2.19 5.729,-4.285c0,0 -3.155,-0.042 -6.835,-1.52c-3.679,-1.478 -6.982,-3.009 -10.407,-2.918c-3.424,0.091 -7.572,0.061 -9.828,-0.239c-2.256,-0.3 -2.97,-0.631 -2.97,-0.631c0,0 -0.745,2.356 1.477,5.449Z" style="fill:url(#_Linear33);fill-rule:nonzero;"/>
    <path d="M98.926,64.619c-3.373,1.42 -18.374,0.622 -23.876,0c-5.503,-0.621 -11.189,-0.526 -12.25,-0.621c-3.796,-0.342 -3.106,0.887 -3.373,4.703c-0.621,10.563 3.373,12.694 6.302,13.138c2.93,0.443 5.593,-0.976 5.593,-0.976c0,0 29.024,-13.137 31.687,-14.558c0.496,-2.725 0.376,-3.586 -0.232,-3.586c-0.7,0 -2.047,1.14 -3.851,1.9Z" style="fill:url(#_Radial34);fill-rule:nonzero;"/>
    <g>
        <path d="M71.826,68.086c4.948,3.511 7.617,8.26 5.957,10.598c-1.659,2.338 -7.023,1.386 -11.971,-2.126c-4.947,-3.511 -7.616,-8.261 -5.957,-10.599c1.66,-2.338 7.024,-1.385 11.971,2.127Z" style="fill:url(#_Radial35);"/>
        <path d="M70.546,68.086c3.798,2.696 5.535,6.783 3.875,9.121c-1.659,2.338 -6.09,2.047 -9.889,-0.649c-3.798,-2.696 -5.534,-6.783 -3.875,-9.121c1.66,-2.338 6.091,-2.047 9.889,0.649Z" style="fill:url(#_Radial36);"/>
        <path d="M74.322,68.379c3.799,2.696 5.535,6.783 3.876,9.121c-1.66,2.338 -6.091,2.047 -9.889,-0.649c-3.799,-2.695 -5.535,-6.783 -3.875,-9.121c1.659,-2.338 6.09,-2.047 9.888,0.649Z" style="fill:url(#_Radial37);"/>
    </g>
    <path d="M61.502,69.307c2.637,4.341 9.236,7.059 12.286,7.682c3.05,0.622 6.968,-0.097 10.231,-2.06c3.811,-2.292 3.487,-4.503 3.487,-4.503c0,0 -1.191,-0.014 -3.37,-0.669c-2.18,-0.656 -5.468,-2.167 -8.551,-3.659c-3.083,-1.492 -6.724,-1.457 -10.686,-1.624c-3.961,-0.167 -6.476,-1.212 -6.476,-1.212c0,0 1.366,3.228 3.079,6.045Z" style="fill:url(#_Linear38);fill-rule:nonzero;"/>
    <path d="M61.415,69.164c2.635,4.34 9.235,7.059 12.285,7.68c3.05,0.622 6.933,-0.154 10.23,-2.058c3.298,-1.903 3.588,-4.357 3.588,-4.357c0,0 -0.786,0.008 -2.965,-0.647c-2.18,-0.656 -5.972,-2.337 -9.056,-3.829c-3.083,-1.491 -6.724,-1.457 -10.686,-1.623c-3.961,-0.168 -6.854,-1.429 -6.854,-1.429c1.203,2.843 1.527,3.085 3.458,6.263Z" style="fill:url(#_Linear39);fill-rule:nonzero;"/>
    <path d="M102.035,66.75c0,0 1.219,-0.938 1.125,-2.813c-0.093,-1.874 0.375,-4.687 -9.562,-10.781c-3.281,5.907 -14.625,21.657 -19.594,25.219c-4.969,3.563 -5.765,3.442 -5.765,3.442c0,0 2.871,-0.343 5.39,-2.223c2.722,-2.032 28.406,-12.844 28.406,-12.844" style="fill:#cbd3dd;fill-rule:nonzero;"/>
    <path d="M74.379,78.563c-3.085,2.212 -4.026,2.655 -4.716,2.945c0.257,-0.077 2.189,-0.583 4.341,-1.726c3,-1.594 28.406,-12.844 28.406,-12.844c0,-0.001 1.219,-0.938 1.125,-2.813c-0.093,-1.875 0.375,-4.687 -9.562,-10.781c-3.281,5.906 -14.625,21.657 -19.594,25.219Z" style="fill:url(#_Linear40);fill-rule:nonzero;"/>
    <path d="M58.915,67.448c-0.618,-0.001 -6.022,9.818 -3.491,21.069c0,-0.001 3.615,-4.339 4.058,-15.247c0.183,-4.5 -0.133,-5.823 -0.567,-5.823Z" style="fill:url(#_Linear41);fill-rule:nonzero;"/>
    <path d="M44.829,36.179c1.272,-1.24 5.597,-0.248 6.615,1.116c0.995,1.333 6.118,6.458 5.875,14.213c0.788,0.033 1.832,0.17 3.031,0.17c1.035,0 1.994,-0.102 2.781,-0.152c-0.252,-7.765 4.878,-12.897 5.873,-14.231c1.017,-1.364 5.343,-2.356 6.615,-1.116c1.273,1.24 -2.036,1.116 -3.562,0.744c-4.941,1.094 -8.097,12.039 -8.77,14.594c1.153,-0.063 1.897,0.018 1.897,0.781c0,1.156 -1.619,3.021 -3.872,3.221c0.092,0.464 0.627,3.053 0.024,5.777c-0.245,1.107 -2.519,2.36 -2.519,2.36c-2.415,-7.912 -0.023,-8.682 0.01,-8.748c-1.978,-0.296 -3.058,-1.549 -3.058,-2.61c0,-0.676 0.518,-0.817 1.388,-0.796c-0.681,-2.582 -3.835,-13.487 -8.765,-14.579c-1.527,0.372 -4.835,0.496 -3.563,-0.744" style="fill:#00c6f9;fill-rule:nonzero;"/>
    <path d="M69.004,37.669c-0.995,1.335 -6.125,6.466 -5.873,14.232c-0.787,0.05 -1.746,0.152 -2.781,0.152c-1.199,0 -2.243,-0.137 -3.031,-0.17c0.243,-7.755 -4.88,-12.88 -5.874,-14.214c-1.018,-1.364 -5.344,-2.355 -6.616,-1.115c-1.272,1.24 2.036,1.115 3.563,0.743c4.93,1.093 8.084,11.998 8.765,14.58c-0.87,-0.02 -1.387,0.12 -1.387,0.796c0,1.061 0.786,2.39 2.763,2.684c-0.033,0.066 -1.658,1.242 0.284,8.674c0,0 3.102,-0.292 2.628,-6.64c-0.054,-0.732 -0.13,-1.318 -0.223,-1.782c2.252,-0.201 3.962,-1.781 3.962,-2.936c0,-0.763 -0.744,-0.844 -1.897,-0.781c0.674,-2.555 3.829,-13.5 8.77,-14.595c1.527,0.372 4.835,0.497 3.562,-0.743c-0.408,-0.398 -1.13,-0.566 -1.956,-0.566c-1.75,0 -3.968,0.755 -4.659,1.681Z" style="fill:url(#_Radial42);fill-rule:nonzero;"/>
    <path d="M48.011,24.197c-0.937,1.89 2.368,2.171 3.493,1.605c3.635,1.665 5.958,18.288 6.46,22.223c-0.641,-0.031 -1.022,0.183 -1.022,1.213c0,1.617 0.873,3.929 2.329,4.38c-0.024,0.1 -0.037,0.16 -0.037,0.16c0,0 -2.48,4.628 -0.417,14.753c0,0 2.307,-5.062 2.307,-12.099c0,-1.119 -0.096,-2.01 -0.165,-2.719c1.66,-0.305 2.92,-2.713 2.92,-4.475c0,-1.161 -0.547,-1.285 -1.397,-1.189c0.387,-4.644 1.969,-20.385 6.463,-22.247c1.125,0.566 4.286,0.354 3.348,-1.536c-0.937,-1.89 -4.255,-0.383 -5.571,1.387c-1.445,1.942 -4.932,10.629 -4.747,22.466c-0.579,0.076 -0.896,0.174 -1.658,0.174c-0.883,0 -1.653,-0.208 -2.234,-0.259c0.179,-11.822 -3.677,-19.606 -4.329,-21.666c-0.616,-1.949 -2.533,-3.101 -4.027,-3.101c-0.755,0 -1.401,0.295 -1.716,0.93Z" style="fill:url(#_Linear43);fill-rule:nonzero;"/>
    <path d="M48.011,24.565c-0.937,1.874 2.368,2.154 3.493,1.591c3.635,1.652 5.958,18.142 6.46,22.047c-0.641,-0.031 -1.022,0.181 -1.022,1.203c0,1.604 0.873,3.897 2.329,4.343c-0.024,0.1 -0.037,0.159 -0.037,0.159c0,0 -4.295,14.835 -1.471,24.549c0,0 3.709,-12.317 3.361,-21.915c-0.04,-1.109 -0.096,-1.994 -0.165,-2.697c1.66,-0.303 2.92,-2.691 2.92,-4.439c0,-1.153 -0.547,-1.276 -1.397,-1.181c0.387,-4.607 1.969,-20.222 6.463,-22.069c1.125,0.563 4.286,0.352 3.348,-1.523c-0.937,-1.875 -4.255,-0.38 -5.571,1.375c-1.445,1.927 -4.932,10.545 -4.747,22.287c-0.579,0.075 -0.896,0.174 -1.658,0.174c-0.883,0 -1.653,-0.207 -2.234,-0.258c0.179,-11.728 -3.677,-19.448 -4.329,-21.492c-0.616,-1.934 -2.533,-3.077 -4.027,-3.077c-0.754,0.001 -1.401,0.293 -1.716,0.923Z" style="fill:url(#_Linear44);fill-rule:nonzero;"/>
    <path d="M64.284,58.419c0,0 3.743,-2.96 6.791,-6.181c3.047,-3.222 12.885,-12.537 15.323,-15.063c2.438,-2.524 9.055,-11.144 9.926,-14.801c2.003,4.441 3.308,12.538 0.87,20.373c-2.437,7.836 -8.097,13.496 -15.584,16.63c-7.488,3.134 -14.018,2.96 -15.845,2.96c-1.829,0 -4.354,-1.219 -1.481,-3.918" style="fill:#f5f6f2;fill-rule:nonzero;"/>
    <path d="M86.075,37.175c-2.439,2.525 -12.276,11.84 -15.323,15.062c-3.609,3.816 -3.547,4.088 -6.865,6.711c-1.25,1.174 -3.205,2.508 -2.946,3.073c0.259,0.564 3.467,0.316 4.5,0.316c1.828,0 8.358,0.174 15.846,-2.96c7.487,-3.135 13.146,-8.794 15.584,-16.629c2.439,-7.836 1.132,-15.933 -0.871,-20.374c-0.87,3.658 -7.487,12.277 -9.925,14.801Z" style="fill:url(#_Linear45);fill-rule:nonzero;"/>
    <defs>
        <radialGradient id="_Radial1" cx="0" cy="0" r="1" gradientUnits="userSpaceOnUse" gradientTransform="matrix(-66.1387,0,-0,66.1387,60.5806,63.95)"><stop offset="0" style="stop-color:#3d4ead;stop-opacity:1"/><stop offset="1" style="stop-color:#00c0f3;stop-opacity:1"/></radialGradient>
        <linearGradient id="_Linear2" x1="0" y1="0" x2="1" y2="0" gradientUnits="userSpaceOnUse" gradientTransform="matrix(-54.7355,0,0,-32.1015,58.3206,81.1455)"><stop offset="0" style="stop-color:#3f51b4;stop-opacity:1"/><stop offset="1" style="stop-color:#00c0f3;stop-opacity:1"/></linearGradient>
        <radialGradient id="_Radial3" cx="0" cy="0" r="1" gradientUnits="userSpaceOnUse" gradientTransform="matrix(-66.1374,0,-0,66.1374,60.5808,63.95)"><stop offset="0" style="stop-color:#3d4ead;stop-opacity:1"/><stop offset="1" style="stop-color:#00c0f3;stop-opacity:1"/></radialGradient>
        <radialGradient id="_Radial4" cx="0" cy="0" r="1" gradientUnits="userSpaceOnUse" gradientTransform="matrix(-52.6361,-107.604,-12.8428,112.241,48.7863,138.585)"><stop offset="0" style="stop-color:#0072e9;stop-opacity:1"/><stop offset="1" style="stop-color:#00fdfe;stop-opacity:1"/></radialGradient>
        <radialGradient id="_Radial5" cx="0" cy="0" r="1" gradientUnits="userSpaceOnUse" gradientTransform="matrix(4.0052,0.526563,-1.46889,11.3112,56.6669,79.3122)"><stop offset="0" style="stop-color:#153e68;stop-opacity:0.34"/><stop offset="1" style="stop-color:#153e68;stop-opacity:0.01"/></radialGradient>
        <radialGradient id="_Radial6" cx="0" cy="0" r="1" gradientUnits="userSpaceOnUse" gradientTransform="matrix(-10.3568,10.999,26.0381,24.5177,74.5359,78.3911)"><stop offset="0" style="stop-color:#00336f;stop-opacity:1"/><stop offset="1" style="stop-color:#00336f;stop-opacity:0"/></radialGradient>
        <radialGradient id="_Radial7" cx="0" cy="0" r="1" gradientUnits="userSpaceOnUse" gradientTransform="matrix(-6.51962,11.4057,24.5674,14.4231,72.7521,72.772)"><stop offset="0" style="stop-color:#00336f;stop-opacity:0.5"/><stop offset="1" style="stop-color:#00336f;stop-opacity:0"/></radialGradient>
        <radialGradient id="_Radial8" cx="0" cy="0" r="1" gradientUnits="userSpaceOnUse" gradientTransform="matrix(-4.96046,12.1651,26.2531,11.0614,72.05,73.4244)"><stop offset="0" style="stop-color:#00336f;stop-opacity:0.5"/><stop offset="1" style="stop-color:#00336f;stop-opacity:0"/></radialGradient>
        <radialGradient id="_Radial9" cx="0" cy="0" r="1" gradientUnits="userSpaceOnUse" gradientTransform="matrix(-4.22491,10.2622,22.277,9.29717,68.699,71.4404)"><stop offset="0" style="stop-color:#00336f;stop-opacity:1"/><stop offset="1" style="stop-color:#00336f;stop-opacity:0"/></radialGradient>
        <radialGradient id="_Radial10" cx="0" cy="0" r="1" gradientUnits="userSpaceOnUse" gradientTransform="matrix(-9.78901,-10.0451,-28.1355,22.8978,42.6909,72.541)"><stop offset="0" style="stop-color:#002d68;stop-opacity:1"/><stop offset="1" style="stop-color:#002d68;stop-opacity:0"/></radialGradient>
        <radialGradient id="_Radial11" cx="0" cy="0" r="1" gradientUnits="userSpaceOnUse" gradientTransform="matrix(-10.6184,-12.7117,-26.5102,25.0697,42.1289,68.125)"><stop offset="0" style="stop-color:#002d68;stop-opacity:1"/><stop offset="1" style="stop-color:#002d68;stop-opacity:0"/></radialGradient>
        <radialGradient id="_Radial12" cx="0" cy="0" r="1" gradientUnits="userSpaceOnUse" gradientTransform="matrix(-4.66402,-8.96904,-21.2029,10.9396,40.8426,70.2218)"><stop offset="0" style="stop-color:#002d68;stop-opacity:1"/><stop offset="1" style="stop-color:#002d68;stop-opacity:0"/></radialGradient>
        <radialGradient id="_Radial13" cx="0" cy="0" r="1" gradientUnits="userSpaceOnUse" gradientTransform="matrix(4.51007,-9.04744,-21.3185,-10.7126,31.6527,57.4886)"><stop offset="0" style="stop-color:#002d68;stop-opacity:1"/><stop offset="1" style="stop-color:#002d68;stop-opacity:0"/></radialGradient>
        <radialGradient id="_Radial14" cx="0" cy="0" r="1" gradientUnits="userSpaceOnUse" gradientTransform="matrix(55.5618,-7.25333,2.08197,15.9483,70.5908,57.3802)"><stop offset="0" style="stop-color:#00326d;stop-opacity:1"/><stop offset="1" style="stop-color:#003b79;stop-opacity:0"/></radialGradient>
        <radialGradient id="_Radial15" cx="0" cy="0" r="1" gradientUnits="userSpaceOnUse" gradientTransform="matrix(50.0892,5.26339,-1.61895,15.4438,73.3147,51.7397)"><stop offset="0" style="stop-color:#00326d;stop-opacity:1"/><stop offset="1" style="stop-color:#003b79;stop-opacity:0"/></radialGradient>
        <radialGradient id="_Radial16" cx="0" cy="0" r="1" gradientUnits="userSpaceOnUse" gradientTransform="matrix(42.2509,-5.13094,1.62846,13.3715,70.1175,57.4772)"><stop offset="0" style="stop-color:#00326d;stop-opacity:1"/><stop offset="1" style="stop-color:#003b79;stop-opacity:0"/></radialGradient>
        <linearGradient id="_Linear17" x1="0" y1="0" x2="1" y2="0" gradientUnits="userSpaceOnUse" gradientTransform="matrix(-48.7206,0,-0,48.7206,59.4148,67.2287)"><stop offset="0" style="stop-color:#f5f7fa;stop-opacity:1"/><stop offset="0.53" style="stop-color:#f1f4f2;stop-opacity:1"/><stop offset="1" style="stop-color:#bad7e9;stop-opacity:1"/></linearGradient>
        <linearGradient id="_Linear18" x1="0" y1="0" x2="1" y2="0" gradientUnits="userSpaceOnUse" gradientTransform="matrix(-43.2077,0,-0,43.2077,59.144,39.7308)"><stop offset="0" style="stop-color:#fafafa;stop-opacity:1"/><stop offset="0.26" style="stop-color:#f1f6f8;stop-opacity:1"/><stop offset="0.73" style="stop-color:#dce5eb;stop-opacity:1"/><stop offset="1" style="stop-color:#bbcfda;stop-opacity:1"/></linearGradient>
        <linearGradient id="_Linear19" x1="0" y1="0" x2="1" y2="0" gradientUnits="userSpaceOnUse" gradientTransform="matrix(0,-47.9791,-47.9791,-0,87.2229,64.0313)"><stop offset="0" style="stop-color:#fdfdff;stop-opacity:1"/><stop offset="0.26" style="stop-color:#f1f2f2;stop-opacity:1"/><stop offset="0.73" style="stop-color:#bfd2e0;stop-opacity:1"/><stop offset="1" style="stop-color:#afc0cc;stop-opacity:1"/></linearGradient>
        <linearGradient id="_Linear20" x1="0" y1="0" x2="1" y2="0" gradientUnits="userSpaceOnUse" gradientTransform="matrix(0,-48.0543,-48.0543,-0,86.4289,64.0856)"><stop offset="0" style="stop-color:#f1f6f6;stop-opacity:1"/><stop offset="0.41" style="stop-color:#fdfdfd;stop-opacity:1"/><stop offset="0.55" style="stop-color:#f5f8fa;stop-opacity:1"/><stop offset="0.89" style="stop-color:#d6e1e7;stop-opacity:1"/><stop offset="0.98" style="stop-color:#c3d3dd;stop-opacity:1"/><stop offset="1" style="stop-color:#c3d3dd;stop-opacity:1"/></linearGradient>
        <radialGradient id="_Radial21" cx="0" cy="0" r="1" gradientUnits="userSpaceOnUse" gradientTransform="matrix(14.7354,9.52776,-4.62893,7.15901,38.0093,52.7366)"><stop offset="0" style="stop-color:#153e68;stop-opacity:1"/><stop offset="1" style="stop-color:#153e68;stop-opacity:0"/></radialGradient>
        <radialGradient id="_Radial22" cx="0" cy="0" r="1" gradientUnits="userSpaceOnUse" gradientTransform="matrix(13.9988,10.5803,-4.31511,5.70934,37.54,50.7316)"><stop offset="0" style="stop-color:#153e68;stop-opacity:1"/><stop offset="1" style="stop-color:#153e68;stop-opacity:0"/></radialGradient>
        <radialGradient id="_Radial23" cx="0" cy="0" r="1" gradientUnits="userSpaceOnUse" gradientTransform="matrix(14.5634,-8.14176,3.11074,5.56427,79.858,55.6982)"><stop offset="0" style="stop-color:#153e68;stop-opacity:1"/><stop offset="1" style="stop-color:#153e68;stop-opacity:0"/></radialGradient>
        <radialGradient id="_Radial24" cx="0" cy="0" r="1" gradientUnits="userSpaceOnUse" gradientTransform="matrix(14.4062,-8.05386,3.42371,6.12408,82.5616,52.4391)"><stop offset="0" style="stop-color:#153e68;stop-opacity:1"/><stop offset="1" style="stop-color:#153e68;stop-opacity:0"/></radialGradient>
        <radialGradient id="_Radial25" cx="0" cy="0" r="1" gradientUnits="userSpaceOnUse" gradientTransform="matrix(13.5894,-9.36638,4.22241,6.1262,82.3546,55.5213)"><stop offset="0" style="stop-color:#153e68;stop-opacity:1"/><stop offset="1" style="stop-color:#1a426b;stop-opacity:0"/></radialGradient>
        <radialGradient id="_Radial26" cx="0" cy="0" r="1" gradientUnits="userSpaceOnUse" gradientTransform="matrix(5.21516,-11.6826,5.1171,2.2843,92.4313,44.33)"><stop offset="0" style="stop-color:#153e68;stop-opacity:1"/><stop offset="1" style="stop-color:#1b436c;stop-opacity:0"/></radialGradient>
        <linearGradient id="_Linear27" x1="0" y1="0" x2="1" y2="0" gradientUnits="userSpaceOnUse" gradientTransform="matrix(4.72457,-33.536,33.536,4.72457,39.1596,60.0944)"><stop offset="0" style="stop-color:#fdfdff;stop-opacity:1"/><stop offset="0.26" style="stop-color:#f1f2f2;stop-opacity:1"/><stop offset="0.73" style="stop-color:#bfd2e0;stop-opacity:1"/><stop offset="1" style="stop-color:#afc0cc;stop-opacity:1"/></linearGradient>
        <linearGradient id="_Linear28" x1="0" y1="0" x2="1" y2="0" gradientUnits="userSpaceOnUse" gradientTransform="matrix(-33.3203,-0.000343575,0.000343575,-33.3203,58.0971,43.372)"><stop offset="0" style="stop-color:#fafafa;stop-opacity:1"/><stop offset="0.26" style="stop-color:#f1f6f8;stop-opacity:1"/><stop offset="0.73" style="stop-color:#dce5eb;stop-opacity:1"/><stop offset="1" style="stop-color:#bbcfda;stop-opacity:1"/></linearGradient>
        <radialGradient id="_Radial29" cx="0" cy="0" r="1" gradientUnits="userSpaceOnUse" gradientTransform="matrix(1.92018,5.55941,-10.6179,3.66735,45.0962,69.7332)"><stop offset="0" style="stop-color:#153e68;stop-opacity:1"/><stop offset="1" style="stop-color:#153e68;stop-opacity:0"/></radialGradient>
        <radialGradient id="_Radial30" cx="0" cy="0" r="1" gradientUnits="userSpaceOnUse" gradientTransform="matrix(0.21678,5.25887,-9.80783,0.404296,43.3965,68.5313)"><stop offset="0" style="stop-color:#153e68;stop-opacity:1"/><stop offset="1" style="stop-color:#153e68;stop-opacity:0"/></radialGradient>
        <radialGradient id="_Radial31" cx="0" cy="0" r="1" gradientUnits="userSpaceOnUse" gradientTransform="matrix(1.54211,3.64848,-8.0801,3.41524,49.9501,70.1915)"><stop offset="0" style="stop-color:#153e68;stop-opacity:1"/><stop offset="1" style="stop-color:#153e68;stop-opacity:0"/></radialGradient>
        <linearGradient id="_Linear32" x1="0" y1="0" x2="1" y2="0" gradientUnits="userSpaceOnUse" gradientTransform="matrix(-12.2342,-17.8556,17.8556,-12.2342,50.4952,72.5871)"><stop offset="0" style="stop-color:#fdfdff;stop-opacity:1"/><stop offset="0.26" style="stop-color:#f1f2f2;stop-opacity:1"/><stop offset="0.73" style="stop-color:#bfd2e0;stop-opacity:1"/><stop offset="1" style="stop-color:#afc0cc;stop-opacity:1"/></linearGradient>
        <linearGradient id="_Linear33" x1="0" y1="0" x2="1" y2="0" gradientUnits="userSpaceOnUse" gradientTransform="matrix(-15.7162,14.3692,-14.3692,-15.7162,52.2159,56.533)"><stop offset="0" style="stop-color:#fafafa;stop-opacity:1"/><stop offset="0.26" style="stop-color:#f1f6f8;stop-opacity:1"/><stop offset="0.73" style="stop-color:#dce5eb;stop-opacity:1"/><stop offset="1" style="stop-color:#bbcfda;stop-opacity:1"/></linearGradient>
        <radialGradient id="_Radial34" cx="0" cy="0" r="1" gradientUnits="userSpaceOnUse" gradientTransform="matrix(-16.9591,0,-0,16.9591,81.3402,72.3216)"><stop offset="0" style="stop-color:#f9f9fa;stop-opacity:1"/><stop offset="1" style="stop-color:#f5f7f7;stop-opacity:1"/></radialGradient>
        <radialGradient id="_Radial35" cx="0" cy="0" r="1" gradientUnits="userSpaceOnUse" gradientTransform="matrix(8.96408,6.36252,-3.00685,4.23632,68.8193,72.3219)"><stop offset="0" style="stop-color:#153e68;stop-opacity:1"/><stop offset="1" style="stop-color:#153e68;stop-opacity:0"/></radialGradient>
        <radialGradient id="_Radial36" cx="0" cy="0" r="1" gradientUnits="userSpaceOnUse" gradientTransform="matrix(6.8821,4.88477,-3.00685,4.23632,67.5393,72.3219)"><stop offset="0" style="stop-color:#153e68;stop-opacity:1"/><stop offset="1" style="stop-color:#153e68;stop-opacity:0"/></radialGradient>
        <radialGradient id="_Radial37" cx="0" cy="0" r="1" gradientUnits="userSpaceOnUse" gradientTransform="matrix(6.8821,4.88477,-3.00685,4.23632,71.3156,72.6152)"><stop offset="0" style="stop-color:#153e68;stop-opacity:1"/><stop offset="1" style="stop-color:#153e68;stop-opacity:0"/></radialGradient>
        <linearGradient id="_Linear38" x1="0" y1="0" x2="1" y2="0" gradientUnits="userSpaceOnUse" gradientTransform="matrix(18.4986,-11.2373,-11.2373,-18.4986,64.0277,73.4655)"><stop offset="0" style="stop-color:#fdfdff;stop-opacity:1"/><stop offset="0.26" style="stop-color:#f1f2f2;stop-opacity:1"/><stop offset="0.73" style="stop-color:#bfd2e0;stop-opacity:1"/><stop offset="1" style="stop-color:#afc0cc;stop-opacity:1"/></linearGradient>
        <linearGradient id="_Linear39" x1="0" y1="0" x2="1" y2="0" gradientUnits="userSpaceOnUse" gradientTransform="matrix(8.40915,19.5646,19.5646,-8.40915,69.0669,58.1262)"><stop offset="0" style="stop-color:#fafafa;stop-opacity:1"/><stop offset="0.26" style="stop-color:#f1f6f8;stop-opacity:1"/><stop offset="0.73" style="stop-color:#dce5eb;stop-opacity:1"/><stop offset="1" style="stop-color:#bbcfda;stop-opacity:1"/></linearGradient>
        <linearGradient id="_Linear40" x1="0" y1="0" x2="1" y2="0" gradientUnits="userSpaceOnUse" gradientTransform="matrix(6.46873,14.3437,14.3437,-6.46873,80.3566,59.6296)"><stop offset="0" style="stop-color:#aebcd0;stop-opacity:1"/><stop offset="0.22" style="stop-color:#859bb9;stop-opacity:1"/><stop offset="0.53" style="stop-color:#a1b1c9;stop-opacity:1"/><stop offset="1" style="stop-color:#97a9c3;stop-opacity:1"/></linearGradient>
        <linearGradient id="_Linear41" x1="0" y1="0" x2="1" y2="0" gradientUnits="userSpaceOnUse" gradientTransform="matrix(0,-21.0692,-21.0692,0,57.0961,88.5161)"><stop offset="0" style="stop-color:#c0cbda;stop-opacity:1"/><stop offset="0.02" style="stop-color:#c0cbda;stop-opacity:1"/><stop offset="0.11" style="stop-color:#d4dbe5;stop-opacity:1"/><stop offset="0.45" style="stop-color:#f5f6f9;stop-opacity:1"/><stop offset="0.59" style="stop-color:#fdfdfd;stop-opacity:1"/><stop offset="1" style="stop-color:#fcfdfd;stop-opacity:1"/></linearGradient>
        <radialGradient id="_Radial42" cx="0" cy="0" r="1" gradientUnits="userSpaceOnUse" gradientTransform="matrix(-18.2184,0,-0,12.4951,60.2241,50.0098)"><stop offset="0" style="stop-color:#3f51b5;stop-opacity:1"/><stop offset="1" style="stop-color:#04bbf3;stop-opacity:1"/></radialGradient>
        <linearGradient id="_Linear43" x1="0" y1="0" x2="1" y2="0" gradientUnits="userSpaceOnUse" gradientTransform="matrix(0,-45.2637,-45.2637,-0,60.1552,68.5313)"><stop offset="0" style="stop-color:#afc0cc;stop-opacity:1"/><stop offset="0.24" style="stop-color:#afc0cc;stop-opacity:1"/><stop offset="0.74" style="stop-color:#f1f2f2;stop-opacity:1"/><stop offset="1" style="stop-color:#fdfdff;stop-opacity:1"/></linearGradient>
        <linearGradient id="_Linear44" x1="0" y1="0" x2="1" y2="0" gradientUnits="userSpaceOnUse" gradientTransform="matrix(0,-46.5257,-46.5257,-0,60.1552,70.1682)"><stop offset="0" style="stop-color:#fafafa;stop-opacity:1"/><stop offset="0.26" style="stop-color:#f1f6f8;stop-opacity:1"/><stop offset="0.73" style="stop-color:#dce5eb;stop-opacity:1"/><stop offset="1" style="stop-color:#bbcfda;stop-opacity:1"/></linearGradient>
        <linearGradient id="_Linear45" x1="0" y1="0" x2="1" y2="0" gradientUnits="userSpaceOnUse" gradientTransform="matrix(0,-39.9686,39.9686,-0,79.5662,62.3429)"><stop offset="0" style="stop-color:#f1f6f6;stop-opacity:1"/><stop offset="0.41" style="stop-color:#fdfdfd;stop-opacity:1"/><stop offset="0.55" style="stop-color:#f5f8fa;stop-opacity:1"/><stop offset="0.89" style="stop-color:#d6e1e7;stop-opacity:1"/><stop offset="0.98" style="stop-color:#c3d3dd;stop-opacity:1"/><stop offset="1" style="stop-color:#c3d3dd;stop-opacity:1"/></linearGradient>
    </defs>
</svg>
